G75*
G70*
%OFA0B0*%
%FSLAX24Y24*%
%IPPOS*%
%LPD*%
%AMOC8*
5,1,8,0,0,1.08239X$1,22.5*
%
%ADD10C,0.0000*%
%ADD11C,0.0104*%
%ADD12C,0.0520*%
%ADD13C,0.0600*%
%ADD14R,0.1600X0.1600*%
%ADD15C,0.0300*%
%ADD16C,0.0120*%
%ADD17C,0.0100*%
%ADD18C,0.0357*%
%ADD19C,0.0160*%
D10*
X009756Y010038D02*
X009756Y025786D01*
X009873Y026053D01*
X010003Y026314D01*
X010146Y026569D01*
X010300Y026816D01*
X010467Y027055D01*
X010645Y027287D01*
X010833Y027509D01*
X011033Y027722D01*
X011242Y027925D01*
X011461Y028117D01*
X011689Y028299D01*
X011925Y028470D01*
X012170Y028629D01*
X012422Y028776D01*
X012680Y028911D01*
X012945Y029033D01*
X013216Y029142D01*
X013491Y029238D01*
X013771Y029320D01*
X014054Y029389D01*
X014340Y029444D01*
X014629Y029485D01*
X014919Y029513D01*
X015211Y029526D01*
X015502Y029525D01*
X015794Y029510D01*
X016084Y029481D01*
X016372Y029438D01*
X016658Y029381D01*
X016941Y029310D01*
X017220Y029226D01*
X017495Y029128D01*
X017765Y029017D01*
X018029Y028893D01*
X018286Y028757D01*
X018537Y028608D01*
X018781Y028448D01*
X019016Y028276D01*
X019243Y028092D01*
X019461Y027898D01*
X019669Y027694D01*
X019866Y027480D01*
X020054Y027256D01*
X020230Y027024D01*
X020395Y026783D01*
X020548Y026535D01*
X020689Y026280D01*
X020817Y026018D01*
X020933Y025750D01*
X021035Y025477D01*
X021125Y025200D01*
X021200Y024918D01*
X021262Y024633D01*
X021310Y024345D01*
X021345Y024056D01*
X021365Y023765D01*
X021371Y023473D01*
X021363Y023182D01*
X021341Y022891D01*
X021305Y022602D01*
X021255Y022314D01*
X021191Y022030D01*
X021113Y021749D01*
X021022Y021472D01*
X020918Y021199D01*
X022368Y018112D02*
X022370Y018155D01*
X022376Y018197D01*
X022386Y018239D01*
X022399Y018280D01*
X022416Y018320D01*
X022437Y018357D01*
X022461Y018393D01*
X022488Y018426D01*
X022518Y018457D01*
X022551Y018485D01*
X022586Y018510D01*
X022623Y018531D01*
X022662Y018549D01*
X022702Y018563D01*
X022744Y018574D01*
X022786Y018581D01*
X022829Y018584D01*
X022872Y018583D01*
X022915Y018578D01*
X022957Y018569D01*
X022998Y018557D01*
X023038Y018541D01*
X023076Y018521D01*
X023112Y018498D01*
X023146Y018471D01*
X023178Y018442D01*
X023206Y018410D01*
X023232Y018375D01*
X023254Y018339D01*
X023273Y018300D01*
X023288Y018260D01*
X023300Y018219D01*
X023308Y018176D01*
X023312Y018133D01*
X023312Y018091D01*
X023308Y018048D01*
X023300Y018005D01*
X023288Y017964D01*
X023273Y017924D01*
X023254Y017885D01*
X023232Y017849D01*
X023206Y017814D01*
X023178Y017782D01*
X023146Y017753D01*
X023112Y017726D01*
X023076Y017703D01*
X023038Y017683D01*
X022998Y017667D01*
X022957Y017655D01*
X022915Y017646D01*
X022872Y017641D01*
X022829Y017640D01*
X022786Y017643D01*
X022744Y017650D01*
X022702Y017661D01*
X022662Y017675D01*
X022623Y017693D01*
X022586Y017714D01*
X022551Y017739D01*
X022518Y017767D01*
X022488Y017798D01*
X022461Y017831D01*
X022437Y017867D01*
X022416Y017904D01*
X022399Y017944D01*
X022386Y017985D01*
X022376Y018027D01*
X022370Y018069D01*
X022368Y018112D01*
X020918Y021200D02*
X021190Y021304D01*
X021467Y021395D01*
X021748Y021473D01*
X022033Y021537D01*
X022320Y021587D01*
X022609Y021623D01*
X022900Y021645D01*
X023191Y021653D01*
X023483Y021647D01*
X023774Y021627D01*
X024063Y021592D01*
X024351Y021544D01*
X024636Y021482D01*
X024918Y021407D01*
X025195Y021317D01*
X025468Y021215D01*
X025736Y021099D01*
X025998Y020971D01*
X026253Y020830D01*
X026501Y020677D01*
X026742Y020512D01*
X026974Y020336D01*
X027198Y020148D01*
X027412Y019951D01*
X027616Y019743D01*
X027810Y019525D01*
X027994Y019298D01*
X028166Y019063D01*
X028326Y018819D01*
X028475Y018568D01*
X028611Y018311D01*
X028735Y018047D01*
X028846Y017777D01*
X028944Y017502D01*
X029028Y017223D01*
X029099Y016940D01*
X029156Y016654D01*
X029199Y016366D01*
X029228Y016076D01*
X029243Y015784D01*
X029244Y015493D01*
X029231Y015201D01*
X029203Y014911D01*
X029162Y014622D01*
X029107Y014336D01*
X029038Y014053D01*
X028956Y013773D01*
X028860Y013498D01*
X028751Y013227D01*
X028629Y012962D01*
X028494Y012704D01*
X028347Y012452D01*
X028188Y012207D01*
X028017Y011971D01*
X027835Y011743D01*
X027643Y011524D01*
X027440Y011315D01*
X027227Y011115D01*
X027005Y010927D01*
X026773Y010749D01*
X026534Y010582D01*
X026287Y010428D01*
X026032Y010285D01*
X025771Y010155D01*
X025504Y010038D01*
X009756Y010038D01*
X017357Y023123D02*
X017359Y023166D01*
X017365Y023208D01*
X017375Y023250D01*
X017388Y023291D01*
X017405Y023331D01*
X017426Y023368D01*
X017450Y023404D01*
X017477Y023437D01*
X017507Y023468D01*
X017540Y023496D01*
X017575Y023521D01*
X017612Y023542D01*
X017651Y023560D01*
X017691Y023574D01*
X017733Y023585D01*
X017775Y023592D01*
X017818Y023595D01*
X017861Y023594D01*
X017904Y023589D01*
X017946Y023580D01*
X017987Y023568D01*
X018027Y023552D01*
X018065Y023532D01*
X018101Y023509D01*
X018135Y023482D01*
X018167Y023453D01*
X018195Y023421D01*
X018221Y023386D01*
X018243Y023350D01*
X018262Y023311D01*
X018277Y023271D01*
X018289Y023230D01*
X018297Y023187D01*
X018301Y023144D01*
X018301Y023102D01*
X018297Y023059D01*
X018289Y023016D01*
X018277Y022975D01*
X018262Y022935D01*
X018243Y022896D01*
X018221Y022860D01*
X018195Y022825D01*
X018167Y022793D01*
X018135Y022764D01*
X018101Y022737D01*
X018065Y022714D01*
X018027Y022694D01*
X017987Y022678D01*
X017946Y022666D01*
X017904Y022657D01*
X017861Y022652D01*
X017818Y022651D01*
X017775Y022654D01*
X017733Y022661D01*
X017691Y022672D01*
X017651Y022686D01*
X017612Y022704D01*
X017575Y022725D01*
X017540Y022750D01*
X017507Y022778D01*
X017477Y022809D01*
X017450Y022842D01*
X017426Y022878D01*
X017405Y022915D01*
X017388Y022955D01*
X017375Y022996D01*
X017365Y023038D01*
X017359Y023080D01*
X017357Y023123D01*
D11*
X016554Y025633D02*
X016502Y025685D01*
X016674Y025685D01*
X016795Y025564D01*
X016795Y025392D01*
X016674Y025271D01*
X016502Y025271D01*
X016381Y025392D01*
X016381Y025564D01*
X016502Y025685D01*
X016534Y025607D01*
X016642Y025607D01*
X016717Y025532D01*
X016717Y025424D01*
X016642Y025349D01*
X016534Y025349D01*
X016459Y025424D01*
X016459Y025532D01*
X016534Y025607D01*
X016567Y025529D01*
X016609Y025529D01*
X016639Y025499D01*
X016639Y025457D01*
X016609Y025427D01*
X016567Y025427D01*
X016537Y025457D01*
X016537Y025499D01*
X016567Y025529D01*
X015140Y027047D02*
X015088Y027099D01*
X015260Y027099D01*
X015381Y026978D01*
X015381Y026806D01*
X015260Y026685D01*
X015088Y026685D01*
X014967Y026806D01*
X014967Y026978D01*
X015088Y027099D01*
X015120Y027021D01*
X015228Y027021D01*
X015303Y026946D01*
X015303Y026838D01*
X015228Y026763D01*
X015120Y026763D01*
X015045Y026838D01*
X015045Y026946D01*
X015120Y027021D01*
X015153Y026943D01*
X015195Y026943D01*
X015225Y026913D01*
X015225Y026871D01*
X015195Y026841D01*
X015153Y026841D01*
X015123Y026871D01*
X015123Y026913D01*
X015153Y026943D01*
X015233Y028164D02*
X015181Y028112D01*
X015181Y028284D01*
X015302Y028405D01*
X015474Y028405D01*
X015595Y028284D01*
X015595Y028112D01*
X015474Y027991D01*
X015302Y027991D01*
X015181Y028112D01*
X015259Y028144D01*
X015259Y028252D01*
X015334Y028327D01*
X015442Y028327D01*
X015517Y028252D01*
X015517Y028144D01*
X015442Y028069D01*
X015334Y028069D01*
X015259Y028144D01*
X015337Y028177D01*
X015337Y028219D01*
X015367Y028249D01*
X015409Y028249D01*
X015439Y028219D01*
X015439Y028177D01*
X015409Y028147D01*
X015367Y028147D01*
X015337Y028177D01*
X015940Y028871D02*
X015888Y028819D01*
X015888Y028991D01*
X016009Y029112D01*
X016181Y029112D01*
X016302Y028991D01*
X016302Y028819D01*
X016181Y028698D01*
X016009Y028698D01*
X015888Y028819D01*
X015966Y028851D01*
X015966Y028959D01*
X016041Y029034D01*
X016149Y029034D01*
X016224Y028959D01*
X016224Y028851D01*
X016149Y028776D01*
X016041Y028776D01*
X015966Y028851D01*
X016044Y028884D01*
X016044Y028926D01*
X016074Y028956D01*
X016116Y028956D01*
X016146Y028926D01*
X016146Y028884D01*
X016116Y028854D01*
X016074Y028854D01*
X016044Y028884D01*
X018156Y026911D02*
X018104Y026859D01*
X018104Y027031D01*
X018225Y027152D01*
X018397Y027152D01*
X018518Y027031D01*
X018518Y026859D01*
X018397Y026738D01*
X018225Y026738D01*
X018104Y026859D01*
X018182Y026891D01*
X018182Y026999D01*
X018257Y027074D01*
X018365Y027074D01*
X018440Y026999D01*
X018440Y026891D01*
X018365Y026816D01*
X018257Y026816D01*
X018182Y026891D01*
X018260Y026924D01*
X018260Y026966D01*
X018290Y026996D01*
X018332Y026996D01*
X018362Y026966D01*
X018362Y026924D01*
X018332Y026894D01*
X018290Y026894D01*
X018260Y026924D01*
X018863Y027618D02*
X018811Y027566D01*
X018811Y027738D01*
X018932Y027859D01*
X019104Y027859D01*
X019225Y027738D01*
X019225Y027566D01*
X019104Y027445D01*
X018932Y027445D01*
X018811Y027566D01*
X018889Y027598D01*
X018889Y027706D01*
X018964Y027781D01*
X019072Y027781D01*
X019147Y027706D01*
X019147Y027598D01*
X019072Y027523D01*
X018964Y027523D01*
X018889Y027598D01*
X018967Y027631D01*
X018967Y027673D01*
X018997Y027703D01*
X019039Y027703D01*
X019069Y027673D01*
X019069Y027631D01*
X019039Y027601D01*
X018997Y027601D01*
X018967Y027631D01*
X020534Y024556D02*
X020482Y024504D01*
X020482Y024676D01*
X020603Y024797D01*
X020775Y024797D01*
X020896Y024676D01*
X020896Y024504D01*
X020775Y024383D01*
X020603Y024383D01*
X020482Y024504D01*
X020560Y024536D01*
X020560Y024644D01*
X020635Y024719D01*
X020743Y024719D01*
X020818Y024644D01*
X020818Y024536D01*
X020743Y024461D01*
X020635Y024461D01*
X020560Y024536D01*
X020638Y024569D01*
X020638Y024611D01*
X020668Y024641D01*
X020710Y024641D01*
X020740Y024611D01*
X020740Y024569D01*
X020710Y024539D01*
X020668Y024539D01*
X020638Y024569D01*
X019826Y023849D02*
X019774Y023797D01*
X019774Y023969D01*
X019895Y024090D01*
X020067Y024090D01*
X020188Y023969D01*
X020188Y023797D01*
X020067Y023676D01*
X019895Y023676D01*
X019774Y023797D01*
X019852Y023829D01*
X019852Y023937D01*
X019927Y024012D01*
X020035Y024012D01*
X020110Y023937D01*
X020110Y023829D01*
X020035Y023754D01*
X019927Y023754D01*
X019852Y023829D01*
X019930Y023862D01*
X019930Y023904D01*
X019960Y023934D01*
X020002Y023934D01*
X020032Y023904D01*
X020032Y023862D01*
X020002Y023832D01*
X019960Y023832D01*
X019930Y023862D01*
X020015Y020816D02*
X020067Y020764D01*
X019895Y020764D01*
X019774Y020885D01*
X019774Y021057D01*
X019895Y021178D01*
X020067Y021178D01*
X020188Y021057D01*
X020188Y020885D01*
X020067Y020764D01*
X020035Y020842D01*
X019927Y020842D01*
X019852Y020917D01*
X019852Y021025D01*
X019927Y021100D01*
X020035Y021100D01*
X020110Y021025D01*
X020110Y020917D01*
X020035Y020842D01*
X020002Y020920D01*
X019960Y020920D01*
X019930Y020950D01*
X019930Y020992D01*
X019960Y021022D01*
X020002Y021022D01*
X020032Y020992D01*
X020032Y020950D01*
X020002Y020920D01*
X020723Y020109D02*
X020775Y020057D01*
X020603Y020057D01*
X020482Y020178D01*
X020482Y020350D01*
X020603Y020471D01*
X020775Y020471D01*
X020896Y020350D01*
X020896Y020178D01*
X020775Y020057D01*
X020743Y020135D01*
X020635Y020135D01*
X020560Y020210D01*
X020560Y020318D01*
X020635Y020393D01*
X020743Y020393D01*
X020818Y020318D01*
X020818Y020210D01*
X020743Y020135D01*
X020710Y020213D01*
X020668Y020213D01*
X020638Y020243D01*
X020638Y020285D01*
X020668Y020315D01*
X020710Y020315D01*
X020740Y020285D01*
X020740Y020243D01*
X020710Y020213D01*
X023445Y020230D02*
X023393Y020178D01*
X023393Y020350D01*
X023514Y020471D01*
X023686Y020471D01*
X023807Y020350D01*
X023807Y020178D01*
X023686Y020057D01*
X023514Y020057D01*
X023393Y020178D01*
X023471Y020210D01*
X023471Y020318D01*
X023546Y020393D01*
X023654Y020393D01*
X023729Y020318D01*
X023729Y020210D01*
X023654Y020135D01*
X023546Y020135D01*
X023471Y020210D01*
X023549Y020243D01*
X023549Y020285D01*
X023579Y020315D01*
X023621Y020315D01*
X023651Y020285D01*
X023651Y020243D01*
X023621Y020213D01*
X023579Y020213D01*
X023549Y020243D01*
X024153Y020937D02*
X024101Y020885D01*
X024101Y021057D01*
X024222Y021178D01*
X024394Y021178D01*
X024515Y021057D01*
X024515Y020885D01*
X024394Y020764D01*
X024222Y020764D01*
X024101Y020885D01*
X024179Y020917D01*
X024179Y021025D01*
X024254Y021100D01*
X024362Y021100D01*
X024437Y021025D01*
X024437Y020917D01*
X024362Y020842D01*
X024254Y020842D01*
X024179Y020917D01*
X024257Y020950D01*
X024257Y020992D01*
X024287Y021022D01*
X024329Y021022D01*
X024359Y020992D01*
X024359Y020950D01*
X024329Y020920D01*
X024287Y020920D01*
X024257Y020950D01*
X026508Y018559D02*
X026456Y018507D01*
X026456Y018679D01*
X026577Y018800D01*
X026749Y018800D01*
X026870Y018679D01*
X026870Y018507D01*
X026749Y018386D01*
X026577Y018386D01*
X026456Y018507D01*
X026534Y018539D01*
X026534Y018647D01*
X026609Y018722D01*
X026717Y018722D01*
X026792Y018647D01*
X026792Y018539D01*
X026717Y018464D01*
X026609Y018464D01*
X026534Y018539D01*
X026612Y018572D01*
X026612Y018614D01*
X026642Y018644D01*
X026684Y018644D01*
X026714Y018614D01*
X026714Y018572D01*
X026684Y018542D01*
X026642Y018542D01*
X026612Y018572D01*
X027215Y019266D02*
X027163Y019214D01*
X027163Y019386D01*
X027284Y019507D01*
X027456Y019507D01*
X027577Y019386D01*
X027577Y019214D01*
X027456Y019093D01*
X027284Y019093D01*
X027163Y019214D01*
X027241Y019246D01*
X027241Y019354D01*
X027316Y019429D01*
X027424Y019429D01*
X027499Y019354D01*
X027499Y019246D01*
X027424Y019171D01*
X027316Y019171D01*
X027241Y019246D01*
X027319Y019279D01*
X027319Y019321D01*
X027349Y019351D01*
X027391Y019351D01*
X027421Y019321D01*
X027421Y019279D01*
X027391Y019249D01*
X027349Y019249D01*
X027319Y019279D01*
X028468Y016343D02*
X028416Y016291D01*
X028416Y016463D01*
X028537Y016584D01*
X028709Y016584D01*
X028830Y016463D01*
X028830Y016291D01*
X028709Y016170D01*
X028537Y016170D01*
X028416Y016291D01*
X028494Y016323D01*
X028494Y016431D01*
X028569Y016506D01*
X028677Y016506D01*
X028752Y016431D01*
X028752Y016323D01*
X028677Y016248D01*
X028569Y016248D01*
X028494Y016323D01*
X028572Y016356D01*
X028572Y016398D01*
X028602Y016428D01*
X028644Y016428D01*
X028674Y016398D01*
X028674Y016356D01*
X028644Y016326D01*
X028602Y016326D01*
X028572Y016356D01*
X027760Y015636D02*
X027708Y015584D01*
X027708Y015756D01*
X027829Y015877D01*
X028001Y015877D01*
X028122Y015756D01*
X028122Y015584D01*
X028001Y015463D01*
X027829Y015463D01*
X027708Y015584D01*
X027786Y015616D01*
X027786Y015724D01*
X027861Y015799D01*
X027969Y015799D01*
X028044Y015724D01*
X028044Y015616D01*
X027969Y015541D01*
X027861Y015541D01*
X027786Y015616D01*
X027864Y015649D01*
X027864Y015691D01*
X027894Y015721D01*
X027936Y015721D01*
X027966Y015691D01*
X027966Y015649D01*
X027936Y015619D01*
X027894Y015619D01*
X027864Y015649D01*
X027772Y013420D02*
X027720Y013368D01*
X027720Y013540D01*
X027841Y013661D01*
X028013Y013661D01*
X028134Y013540D01*
X028134Y013368D01*
X028013Y013247D01*
X027841Y013247D01*
X027720Y013368D01*
X027798Y013400D01*
X027798Y013508D01*
X027873Y013583D01*
X027981Y013583D01*
X028056Y013508D01*
X028056Y013400D01*
X027981Y013325D01*
X027873Y013325D01*
X027798Y013400D01*
X027876Y013433D01*
X027876Y013475D01*
X027906Y013505D01*
X027948Y013505D01*
X027978Y013475D01*
X027978Y013433D01*
X027948Y013403D01*
X027906Y013403D01*
X027876Y013433D01*
X027064Y012713D02*
X027012Y012661D01*
X027012Y012833D01*
X027133Y012954D01*
X027305Y012954D01*
X027426Y012833D01*
X027426Y012661D01*
X027305Y012540D01*
X027133Y012540D01*
X027012Y012661D01*
X027090Y012693D01*
X027090Y012801D01*
X027165Y012876D01*
X027273Y012876D01*
X027348Y012801D01*
X027348Y012693D01*
X027273Y012618D01*
X027165Y012618D01*
X027090Y012693D01*
X027168Y012726D01*
X027168Y012768D01*
X027198Y012798D01*
X027240Y012798D01*
X027270Y012768D01*
X027270Y012726D01*
X027240Y012696D01*
X027198Y012696D01*
X027168Y012726D01*
X025544Y011472D02*
X025492Y011420D01*
X025492Y011592D01*
X025613Y011713D01*
X025785Y011713D01*
X025906Y011592D01*
X025906Y011420D01*
X025785Y011299D01*
X025613Y011299D01*
X025492Y011420D01*
X025570Y011452D01*
X025570Y011560D01*
X025645Y011635D01*
X025753Y011635D01*
X025828Y011560D01*
X025828Y011452D01*
X025753Y011377D01*
X025645Y011377D01*
X025570Y011452D01*
X025648Y011485D01*
X025648Y011527D01*
X025678Y011557D01*
X025720Y011557D01*
X025750Y011527D01*
X025750Y011485D01*
X025720Y011455D01*
X025678Y011455D01*
X025648Y011485D01*
X024837Y010764D02*
X024785Y010712D01*
X024785Y010884D01*
X024906Y011005D01*
X025078Y011005D01*
X025199Y010884D01*
X025199Y010712D01*
X025078Y010591D01*
X024906Y010591D01*
X024785Y010712D01*
X024863Y010744D01*
X024863Y010852D01*
X024938Y010927D01*
X025046Y010927D01*
X025121Y010852D01*
X025121Y010744D01*
X025046Y010669D01*
X024938Y010669D01*
X024863Y010744D01*
X024941Y010777D01*
X024941Y010819D01*
X024971Y010849D01*
X025013Y010849D01*
X025043Y010819D01*
X025043Y010777D01*
X025013Y010747D01*
X024971Y010747D01*
X024941Y010777D01*
X022621Y011332D02*
X022569Y011280D01*
X022569Y011452D01*
X022690Y011573D01*
X022862Y011573D01*
X022983Y011452D01*
X022983Y011280D01*
X022862Y011159D01*
X022690Y011159D01*
X022569Y011280D01*
X022647Y011312D01*
X022647Y011420D01*
X022722Y011495D01*
X022830Y011495D01*
X022905Y011420D01*
X022905Y011312D01*
X022830Y011237D01*
X022722Y011237D01*
X022647Y011312D01*
X022725Y011345D01*
X022725Y011387D01*
X022755Y011417D01*
X022797Y011417D01*
X022827Y011387D01*
X022827Y011345D01*
X022797Y011315D01*
X022755Y011315D01*
X022725Y011345D01*
X021914Y010625D02*
X021862Y010573D01*
X021862Y010745D01*
X021983Y010866D01*
X022155Y010866D01*
X022276Y010745D01*
X022276Y010573D01*
X022155Y010452D01*
X021983Y010452D01*
X021862Y010573D01*
X021940Y010605D01*
X021940Y010713D01*
X022015Y010788D01*
X022123Y010788D01*
X022198Y010713D01*
X022198Y010605D01*
X022123Y010530D01*
X022015Y010530D01*
X021940Y010605D01*
X022018Y010638D01*
X022018Y010680D01*
X022048Y010710D01*
X022090Y010710D01*
X022120Y010680D01*
X022120Y010638D01*
X022090Y010608D01*
X022048Y010608D01*
X022018Y010638D01*
X019559Y011332D02*
X019507Y011280D01*
X019507Y011452D01*
X019628Y011573D01*
X019800Y011573D01*
X019921Y011452D01*
X019921Y011280D01*
X019800Y011159D01*
X019628Y011159D01*
X019507Y011280D01*
X019585Y011312D01*
X019585Y011420D01*
X019660Y011495D01*
X019768Y011495D01*
X019843Y011420D01*
X019843Y011312D01*
X019768Y011237D01*
X019660Y011237D01*
X019585Y011312D01*
X019663Y011345D01*
X019663Y011387D01*
X019693Y011417D01*
X019735Y011417D01*
X019765Y011387D01*
X019765Y011345D01*
X019735Y011315D01*
X019693Y011315D01*
X019663Y011345D01*
X018852Y010625D02*
X018800Y010573D01*
X018800Y010745D01*
X018921Y010866D01*
X019093Y010866D01*
X019214Y010745D01*
X019214Y010573D01*
X019093Y010452D01*
X018921Y010452D01*
X018800Y010573D01*
X018878Y010605D01*
X018878Y010713D01*
X018953Y010788D01*
X019061Y010788D01*
X019136Y010713D01*
X019136Y010605D01*
X019061Y010530D01*
X018953Y010530D01*
X018878Y010605D01*
X018956Y010638D01*
X018956Y010680D01*
X018986Y010710D01*
X019028Y010710D01*
X019058Y010680D01*
X019058Y010638D01*
X019028Y010608D01*
X018986Y010608D01*
X018956Y010638D01*
X016775Y011332D02*
X016723Y011280D01*
X016723Y011452D01*
X016844Y011573D01*
X017016Y011573D01*
X017137Y011452D01*
X017137Y011280D01*
X017016Y011159D01*
X016844Y011159D01*
X016723Y011280D01*
X016801Y011312D01*
X016801Y011420D01*
X016876Y011495D01*
X016984Y011495D01*
X017059Y011420D01*
X017059Y011312D01*
X016984Y011237D01*
X016876Y011237D01*
X016801Y011312D01*
X016879Y011345D01*
X016879Y011387D01*
X016909Y011417D01*
X016951Y011417D01*
X016981Y011387D01*
X016981Y011345D01*
X016951Y011315D01*
X016909Y011315D01*
X016879Y011345D01*
X016068Y010625D02*
X016016Y010573D01*
X016016Y010745D01*
X016137Y010866D01*
X016309Y010866D01*
X016430Y010745D01*
X016430Y010573D01*
X016309Y010452D01*
X016137Y010452D01*
X016016Y010573D01*
X016094Y010605D01*
X016094Y010713D01*
X016169Y010788D01*
X016277Y010788D01*
X016352Y010713D01*
X016352Y010605D01*
X016277Y010530D01*
X016169Y010530D01*
X016094Y010605D01*
X016172Y010638D01*
X016172Y010680D01*
X016202Y010710D01*
X016244Y010710D01*
X016274Y010680D01*
X016274Y010638D01*
X016244Y010608D01*
X016202Y010608D01*
X016172Y010638D01*
X013991Y011332D02*
X013939Y011280D01*
X013939Y011452D01*
X014060Y011573D01*
X014232Y011573D01*
X014353Y011452D01*
X014353Y011280D01*
X014232Y011159D01*
X014060Y011159D01*
X013939Y011280D01*
X014017Y011312D01*
X014017Y011420D01*
X014092Y011495D01*
X014200Y011495D01*
X014275Y011420D01*
X014275Y011312D01*
X014200Y011237D01*
X014092Y011237D01*
X014017Y011312D01*
X014095Y011345D01*
X014095Y011387D01*
X014125Y011417D01*
X014167Y011417D01*
X014197Y011387D01*
X014197Y011345D01*
X014167Y011315D01*
X014125Y011315D01*
X014095Y011345D01*
X013284Y010625D02*
X013232Y010573D01*
X013232Y010745D01*
X013353Y010866D01*
X013525Y010866D01*
X013646Y010745D01*
X013646Y010573D01*
X013525Y010452D01*
X013353Y010452D01*
X013232Y010573D01*
X013310Y010605D01*
X013310Y010713D01*
X013385Y010788D01*
X013493Y010788D01*
X013568Y010713D01*
X013568Y010605D01*
X013493Y010530D01*
X013385Y010530D01*
X013310Y010605D01*
X013388Y010638D01*
X013388Y010680D01*
X013418Y010710D01*
X013460Y010710D01*
X013490Y010680D01*
X013490Y010638D01*
X013460Y010608D01*
X013418Y010608D01*
X013388Y010638D01*
X010929Y011332D02*
X010877Y011280D01*
X010877Y011452D01*
X010998Y011573D01*
X011170Y011573D01*
X011291Y011452D01*
X011291Y011280D01*
X011170Y011159D01*
X010998Y011159D01*
X010877Y011280D01*
X010955Y011312D01*
X010955Y011420D01*
X011030Y011495D01*
X011138Y011495D01*
X011213Y011420D01*
X011213Y011312D01*
X011138Y011237D01*
X011030Y011237D01*
X010955Y011312D01*
X011033Y011345D01*
X011033Y011387D01*
X011063Y011417D01*
X011105Y011417D01*
X011135Y011387D01*
X011135Y011345D01*
X011105Y011315D01*
X011063Y011315D01*
X011033Y011345D01*
X010222Y010625D02*
X010170Y010573D01*
X010170Y010745D01*
X010291Y010866D01*
X010463Y010866D01*
X010584Y010745D01*
X010584Y010573D01*
X010463Y010452D01*
X010291Y010452D01*
X010170Y010573D01*
X010248Y010605D01*
X010248Y010713D01*
X010323Y010788D01*
X010431Y010788D01*
X010506Y010713D01*
X010506Y010605D01*
X010431Y010530D01*
X010323Y010530D01*
X010248Y010605D01*
X010326Y010638D01*
X010326Y010680D01*
X010356Y010710D01*
X010398Y010710D01*
X010428Y010680D01*
X010428Y010638D01*
X010398Y010608D01*
X010356Y010608D01*
X010326Y010638D01*
X010222Y013687D02*
X010170Y013635D01*
X010170Y013807D01*
X010291Y013928D01*
X010463Y013928D01*
X010584Y013807D01*
X010584Y013635D01*
X010463Y013514D01*
X010291Y013514D01*
X010170Y013635D01*
X010248Y013667D01*
X010248Y013775D01*
X010323Y013850D01*
X010431Y013850D01*
X010506Y013775D01*
X010506Y013667D01*
X010431Y013592D01*
X010323Y013592D01*
X010248Y013667D01*
X010326Y013700D01*
X010326Y013742D01*
X010356Y013772D01*
X010398Y013772D01*
X010428Y013742D01*
X010428Y013700D01*
X010398Y013670D01*
X010356Y013670D01*
X010326Y013700D01*
X010929Y014395D02*
X010877Y014343D01*
X010877Y014515D01*
X010998Y014636D01*
X011170Y014636D01*
X011291Y014515D01*
X011291Y014343D01*
X011170Y014222D01*
X010998Y014222D01*
X010877Y014343D01*
X010955Y014375D01*
X010955Y014483D01*
X011030Y014558D01*
X011138Y014558D01*
X011213Y014483D01*
X011213Y014375D01*
X011138Y014300D01*
X011030Y014300D01*
X010955Y014375D01*
X011033Y014408D01*
X011033Y014450D01*
X011063Y014480D01*
X011105Y014480D01*
X011135Y014450D01*
X011135Y014408D01*
X011105Y014378D01*
X011063Y014378D01*
X011033Y014408D01*
X010222Y016471D02*
X010170Y016419D01*
X010170Y016591D01*
X010291Y016712D01*
X010463Y016712D01*
X010584Y016591D01*
X010584Y016419D01*
X010463Y016298D01*
X010291Y016298D01*
X010170Y016419D01*
X010248Y016451D01*
X010248Y016559D01*
X010323Y016634D01*
X010431Y016634D01*
X010506Y016559D01*
X010506Y016451D01*
X010431Y016376D01*
X010323Y016376D01*
X010248Y016451D01*
X010326Y016484D01*
X010326Y016526D01*
X010356Y016556D01*
X010398Y016556D01*
X010428Y016526D01*
X010428Y016484D01*
X010398Y016454D01*
X010356Y016454D01*
X010326Y016484D01*
X010929Y017178D02*
X010877Y017126D01*
X010877Y017298D01*
X010998Y017419D01*
X011170Y017419D01*
X011291Y017298D01*
X011291Y017126D01*
X011170Y017005D01*
X010998Y017005D01*
X010877Y017126D01*
X010955Y017158D01*
X010955Y017266D01*
X011030Y017341D01*
X011138Y017341D01*
X011213Y017266D01*
X011213Y017158D01*
X011138Y017083D01*
X011030Y017083D01*
X010955Y017158D01*
X011033Y017191D01*
X011033Y017233D01*
X011063Y017263D01*
X011105Y017263D01*
X011135Y017233D01*
X011135Y017191D01*
X011105Y017161D01*
X011063Y017161D01*
X011033Y017191D01*
X010222Y019255D02*
X010170Y019203D01*
X010170Y019375D01*
X010291Y019496D01*
X010463Y019496D01*
X010584Y019375D01*
X010584Y019203D01*
X010463Y019082D01*
X010291Y019082D01*
X010170Y019203D01*
X010248Y019235D01*
X010248Y019343D01*
X010323Y019418D01*
X010431Y019418D01*
X010506Y019343D01*
X010506Y019235D01*
X010431Y019160D01*
X010323Y019160D01*
X010248Y019235D01*
X010326Y019268D01*
X010326Y019310D01*
X010356Y019340D01*
X010398Y019340D01*
X010428Y019310D01*
X010428Y019268D01*
X010398Y019238D01*
X010356Y019238D01*
X010326Y019268D01*
X010929Y019962D02*
X010877Y019910D01*
X010877Y020082D01*
X010998Y020203D01*
X011170Y020203D01*
X011291Y020082D01*
X011291Y019910D01*
X011170Y019789D01*
X010998Y019789D01*
X010877Y019910D01*
X010955Y019942D01*
X010955Y020050D01*
X011030Y020125D01*
X011138Y020125D01*
X011213Y020050D01*
X011213Y019942D01*
X011138Y019867D01*
X011030Y019867D01*
X010955Y019942D01*
X011033Y019975D01*
X011033Y020017D01*
X011063Y020047D01*
X011105Y020047D01*
X011135Y020017D01*
X011135Y019975D01*
X011105Y019945D01*
X011063Y019945D01*
X011033Y019975D01*
X010222Y022317D02*
X010170Y022265D01*
X010170Y022437D01*
X010291Y022558D01*
X010463Y022558D01*
X010584Y022437D01*
X010584Y022265D01*
X010463Y022144D01*
X010291Y022144D01*
X010170Y022265D01*
X010248Y022297D01*
X010248Y022405D01*
X010323Y022480D01*
X010431Y022480D01*
X010506Y022405D01*
X010506Y022297D01*
X010431Y022222D01*
X010323Y022222D01*
X010248Y022297D01*
X010326Y022330D01*
X010326Y022372D01*
X010356Y022402D01*
X010398Y022402D01*
X010428Y022372D01*
X010428Y022330D01*
X010398Y022300D01*
X010356Y022300D01*
X010326Y022330D01*
X010929Y023025D02*
X010877Y022973D01*
X010877Y023145D01*
X010998Y023266D01*
X011170Y023266D01*
X011291Y023145D01*
X011291Y022973D01*
X011170Y022852D01*
X010998Y022852D01*
X010877Y022973D01*
X010955Y023005D01*
X010955Y023113D01*
X011030Y023188D01*
X011138Y023188D01*
X011213Y023113D01*
X011213Y023005D01*
X011138Y022930D01*
X011030Y022930D01*
X010955Y023005D01*
X011033Y023038D01*
X011033Y023080D01*
X011063Y023110D01*
X011105Y023110D01*
X011135Y023080D01*
X011135Y023038D01*
X011105Y023008D01*
X011063Y023008D01*
X011033Y023038D01*
X010361Y025241D02*
X010309Y025189D01*
X010309Y025361D01*
X010430Y025482D01*
X010602Y025482D01*
X010723Y025361D01*
X010723Y025189D01*
X010602Y025068D01*
X010430Y025068D01*
X010309Y025189D01*
X010387Y025221D01*
X010387Y025329D01*
X010462Y025404D01*
X010570Y025404D01*
X010645Y025329D01*
X010645Y025221D01*
X010570Y025146D01*
X010462Y025146D01*
X010387Y025221D01*
X010465Y025254D01*
X010465Y025296D01*
X010495Y025326D01*
X010537Y025326D01*
X010567Y025296D01*
X010567Y025254D01*
X010537Y025224D01*
X010495Y025224D01*
X010465Y025254D01*
X011068Y025948D02*
X011016Y025896D01*
X011016Y026068D01*
X011137Y026189D01*
X011309Y026189D01*
X011430Y026068D01*
X011430Y025896D01*
X011309Y025775D01*
X011137Y025775D01*
X011016Y025896D01*
X011094Y025928D01*
X011094Y026036D01*
X011169Y026111D01*
X011277Y026111D01*
X011352Y026036D01*
X011352Y025928D01*
X011277Y025853D01*
X011169Y025853D01*
X011094Y025928D01*
X011172Y025961D01*
X011172Y026003D01*
X011202Y026033D01*
X011244Y026033D01*
X011274Y026003D01*
X011274Y025961D01*
X011244Y025931D01*
X011202Y025931D01*
X011172Y025961D01*
X012310Y027468D02*
X012258Y027416D01*
X012258Y027588D01*
X012379Y027709D01*
X012551Y027709D01*
X012672Y027588D01*
X012672Y027416D01*
X012551Y027295D01*
X012379Y027295D01*
X012258Y027416D01*
X012336Y027448D01*
X012336Y027556D01*
X012411Y027631D01*
X012519Y027631D01*
X012594Y027556D01*
X012594Y027448D01*
X012519Y027373D01*
X012411Y027373D01*
X012336Y027448D01*
X012414Y027481D01*
X012414Y027523D01*
X012444Y027553D01*
X012486Y027553D01*
X012516Y027523D01*
X012516Y027481D01*
X012486Y027451D01*
X012444Y027451D01*
X012414Y027481D01*
X013017Y028175D02*
X012965Y028123D01*
X012965Y028295D01*
X013086Y028416D01*
X013258Y028416D01*
X013379Y028295D01*
X013379Y028123D01*
X013258Y028002D01*
X013086Y028002D01*
X012965Y028123D01*
X013043Y028155D01*
X013043Y028263D01*
X013118Y028338D01*
X013226Y028338D01*
X013301Y028263D01*
X013301Y028155D01*
X013226Y028080D01*
X013118Y028080D01*
X013043Y028155D01*
X013121Y028188D01*
X013121Y028230D01*
X013151Y028260D01*
X013193Y028260D01*
X013223Y028230D01*
X013223Y028188D01*
X013193Y028158D01*
X013151Y028158D01*
X013121Y028188D01*
D12*
X013609Y026402D02*
X013977Y026034D01*
X013270Y025327D02*
X012902Y025695D01*
X012195Y024988D02*
X012562Y024620D01*
X011855Y023913D02*
X011488Y024281D01*
X013609Y022159D02*
X013977Y021792D01*
X014684Y022499D02*
X014316Y022867D01*
X015023Y023574D02*
X015391Y023206D01*
X016098Y023913D02*
X015730Y024281D01*
D13*
X024296Y015815D02*
X024720Y016239D01*
X025979Y014981D02*
X025555Y014556D01*
X024169Y013170D02*
X023744Y012746D01*
X022486Y014005D02*
X022910Y014429D01*
D14*
G36*
X016994Y016145D02*
X015863Y017276D01*
X016994Y018407D01*
X018125Y017276D01*
X016994Y016145D01*
G37*
D15*
X020062Y013858D02*
X020212Y013708D01*
X019716Y013708D01*
X019365Y014059D01*
X019365Y014555D01*
X019716Y014906D01*
X020212Y014906D01*
X020563Y014555D01*
X020563Y014059D01*
X020212Y013708D01*
X020119Y013933D01*
X019809Y013933D01*
X019590Y014152D01*
X019590Y014462D01*
X019809Y014681D01*
X020119Y014681D01*
X020338Y014462D01*
X020338Y014152D01*
X020119Y013933D01*
X020026Y014158D01*
X019902Y014158D01*
X019815Y014245D01*
X019815Y014369D01*
X019902Y014456D01*
X020026Y014456D01*
X020113Y014369D01*
X020113Y014245D01*
X020026Y014158D01*
X014122Y019797D02*
X014272Y019647D01*
X013776Y019647D01*
X013425Y019998D01*
X013425Y020494D01*
X013776Y020845D01*
X014272Y020845D01*
X014623Y020494D01*
X014623Y019998D01*
X014272Y019647D01*
X014179Y019872D01*
X013869Y019872D01*
X013650Y020091D01*
X013650Y020401D01*
X013869Y020620D01*
X014179Y020620D01*
X014398Y020401D01*
X014398Y020091D01*
X014179Y019872D01*
X014086Y020097D01*
X013962Y020097D01*
X013875Y020184D01*
X013875Y020308D01*
X013962Y020395D01*
X014086Y020395D01*
X014173Y020308D01*
X014173Y020184D01*
X014086Y020097D01*
D16*
X012823Y015884D02*
X012653Y015884D01*
X012646Y015877D02*
X012561Y015792D01*
X012561Y015637D01*
X012405Y015637D01*
X012398Y015629D02*
X012314Y015545D01*
X012306Y015538D02*
X012306Y015368D01*
X012476Y015198D01*
X012660Y015198D01*
X012779Y014896D02*
X013121Y014553D01*
X012954Y014731D02*
X013452Y015230D01*
X013457Y015235D02*
X013457Y014892D01*
X013763Y014760D02*
X013424Y014420D01*
X013424Y014251D01*
X013593Y014081D01*
X013763Y014081D01*
X013770Y014753D01*
X013763Y014760D02*
X013933Y014760D01*
X014103Y014590D01*
X014103Y014420D01*
X013763Y014081D01*
X013897Y013777D02*
X014244Y013430D01*
X014237Y014116D01*
X014322Y014201D01*
X014329Y014208D02*
X014499Y014208D01*
X014668Y014039D01*
X014668Y013855D01*
X014951Y013600D02*
X015121Y013600D01*
X015290Y013430D01*
X015290Y013261D01*
X015375Y013346D01*
X015637Y013084D01*
X015637Y012914D01*
X015460Y012737D01*
X015290Y012737D01*
X015206Y012822D01*
X015199Y012476D01*
X015206Y012822D02*
X015029Y012999D01*
X015290Y013261D01*
X014944Y013254D02*
X014767Y013430D01*
X014598Y013261D01*
X014590Y013084D01*
X014767Y012907D01*
X014937Y012907D01*
X014852Y012822D01*
X014937Y012907D02*
X015029Y012999D01*
X012992Y015530D02*
X012992Y015714D01*
X012823Y015884D01*
X012563Y015635D02*
X012644Y015553D01*
D17*
X012807Y015419D02*
X012905Y015320D01*
X013079Y015320D01*
X013202Y015443D01*
X013202Y015627D01*
X013202Y015801D01*
X013033Y015971D01*
X012910Y016094D01*
X012566Y016094D01*
X012443Y015971D01*
X012351Y015879D01*
X012351Y015846D01*
X012318Y015846D01*
X012195Y015724D01*
X012096Y015625D01*
X012096Y015281D01*
X012219Y015158D01*
X012389Y014988D01*
X012563Y014988D01*
X012574Y014988D01*
X012569Y014983D01*
X012569Y014809D01*
X013034Y014343D01*
X013208Y014343D01*
X013214Y014348D01*
X013214Y014333D01*
X013214Y014164D01*
X013313Y014065D01*
X013383Y013994D01*
X013420Y013957D01*
X013506Y013871D01*
X013506Y013871D01*
X013695Y013871D01*
X013687Y013864D01*
X013687Y013690D01*
X014035Y013343D01*
X014035Y013341D01*
X014097Y013281D01*
X014157Y013220D01*
X014158Y013220D01*
X014159Y013219D01*
X014246Y013220D01*
X014331Y013220D01*
X014332Y013221D01*
X014333Y013221D01*
X014388Y013277D01*
X014388Y013265D01*
X014384Y013174D01*
X014380Y013171D01*
X014380Y013088D01*
X014377Y013005D01*
X014380Y013002D01*
X014380Y012997D01*
X014439Y012938D01*
X014495Y012878D01*
X014500Y012877D01*
X014557Y012820D01*
X014680Y012697D01*
X014680Y012697D01*
X014765Y012612D01*
X014939Y012612D01*
X014992Y012666D01*
X014987Y012393D01*
X015107Y012268D01*
X015281Y012264D01*
X015407Y012384D01*
X015410Y012527D01*
X015547Y012527D01*
X015670Y012650D01*
X015847Y012827D01*
X015847Y013001D01*
X015847Y013171D01*
X015724Y013294D01*
X015462Y013555D01*
X015331Y013687D01*
X015208Y013810D01*
X014878Y013810D01*
X014878Y013951D01*
X014878Y014125D01*
X014709Y014295D01*
X014586Y014418D01*
X014313Y014418D01*
X014313Y014507D01*
X014313Y014677D01*
X014216Y014773D01*
X014190Y014800D01*
X014189Y014800D01*
X014116Y014874D01*
X014020Y014970D01*
X014020Y014970D01*
X013846Y014970D01*
X013676Y014970D01*
X013667Y014961D01*
X013667Y015322D01*
X013544Y015445D01*
X013370Y015445D01*
X013365Y015440D01*
X012948Y015023D01*
X012865Y015106D01*
X012870Y015111D01*
X012870Y015285D01*
X012771Y015384D01*
X012807Y015419D01*
X012795Y015360D02*
X012866Y015360D01*
X012870Y015261D02*
X013186Y015261D01*
X013119Y015360D02*
X013285Y015360D01*
X013365Y015440D02*
X013365Y015440D01*
X013202Y015458D02*
X023498Y015458D01*
X023556Y015400D02*
X023024Y014869D01*
X023000Y014879D01*
X022821Y014879D01*
X022655Y014810D01*
X022104Y014260D01*
X022036Y014094D01*
X022036Y013915D01*
X022104Y013750D01*
X022231Y013623D01*
X022396Y013555D01*
X022575Y013555D01*
X022741Y013623D01*
X023292Y014174D01*
X023360Y014339D01*
X023360Y014518D01*
X023350Y014543D01*
X023977Y015170D01*
X024111Y015305D01*
X024182Y015375D01*
X024206Y015365D01*
X024386Y015365D01*
X024551Y015433D01*
X025102Y015984D01*
X025170Y016150D01*
X025170Y016329D01*
X025102Y016494D01*
X024975Y016621D01*
X024810Y016689D01*
X024631Y016689D01*
X024465Y016621D01*
X023915Y016070D01*
X023846Y015904D01*
X023846Y015761D01*
X019916Y019691D01*
X020441Y019691D01*
X020576Y019826D01*
X020604Y019854D01*
X020773Y019854D01*
X021075Y019552D01*
X021265Y019552D01*
X022379Y019552D01*
X023190Y020364D01*
X023190Y020179D01*
X022565Y019554D01*
X022497Y019554D01*
X022376Y019504D01*
X022284Y019411D01*
X022234Y019291D01*
X022234Y019160D01*
X022284Y019039D01*
X022376Y018947D01*
X022497Y018897D01*
X022627Y018897D01*
X022748Y018947D01*
X022840Y019039D01*
X022890Y019160D01*
X022890Y019228D01*
X023516Y019854D01*
X023685Y019854D01*
X025737Y017802D01*
X025737Y017524D01*
X025747Y017514D01*
X027506Y015755D01*
X027506Y015585D01*
X026369Y014449D01*
X026369Y014449D01*
X026369Y013614D01*
X026369Y013423D01*
X026830Y012961D01*
X026711Y012842D01*
X025784Y011915D01*
X025530Y011915D01*
X025290Y011675D01*
X025290Y011534D01*
X025158Y011665D01*
X025024Y011799D01*
X024188Y011799D01*
X023998Y011799D01*
X023163Y010964D01*
X022954Y010964D01*
X023186Y011196D01*
X023186Y011536D01*
X022946Y011776D01*
X022607Y011776D01*
X022366Y011536D01*
X022366Y011382D01*
X022188Y011382D01*
X021586Y011382D01*
X021588Y011383D01*
X021638Y011504D01*
X021638Y011573D01*
X022141Y012076D01*
X022210Y012076D01*
X022331Y012126D01*
X022423Y012219D01*
X022473Y012339D01*
X022473Y012470D01*
X022423Y012591D01*
X022331Y012683D01*
X022210Y012733D01*
X022079Y012733D01*
X021958Y012683D01*
X021866Y012591D01*
X021816Y012470D01*
X021816Y012402D01*
X021312Y011898D01*
X021244Y011898D01*
X021123Y011848D01*
X021031Y011756D01*
X020981Y011635D01*
X020981Y011504D01*
X021031Y011383D01*
X021032Y011382D01*
X020124Y011382D01*
X020124Y011536D01*
X019884Y011776D01*
X019629Y011776D01*
X019189Y012217D01*
X019189Y012217D01*
X015976Y012217D01*
X015785Y012217D01*
X015229Y011660D01*
X014862Y011660D01*
X011910Y014613D01*
X011864Y014659D01*
X011434Y014659D01*
X011378Y014714D01*
X011378Y016346D01*
X011378Y016537D01*
X011112Y016803D01*
X011254Y016803D01*
X011494Y017043D01*
X011494Y017297D01*
X012074Y017877D01*
X012074Y017877D01*
X012074Y019826D01*
X013331Y021083D01*
X013589Y021083D01*
X013124Y020619D01*
X013124Y019874D01*
X013652Y019346D01*
X014397Y019346D01*
X014924Y019874D01*
X014924Y020619D01*
X014731Y020813D01*
X016667Y022749D01*
X016667Y022940D01*
X016667Y023669D01*
X016507Y023829D01*
X016508Y023832D01*
X016508Y023995D01*
X016446Y024145D01*
X016367Y024224D01*
X016683Y024541D01*
X016683Y024541D01*
X016718Y024576D01*
X016818Y024675D01*
X016818Y024675D01*
X016818Y024685D01*
X016818Y024866D01*
X016818Y024866D01*
X016818Y025128D01*
X016998Y025308D01*
X016998Y025648D01*
X016758Y025888D01*
X016466Y025888D01*
X017058Y026481D01*
X017385Y026154D01*
X019571Y023967D01*
X019571Y023798D01*
X018430Y022657D01*
X018295Y022522D01*
X018295Y021408D01*
X018295Y021312D01*
X017462Y022145D01*
X017462Y022214D01*
X017412Y022334D01*
X017320Y022427D01*
X017199Y022477D01*
X017068Y022477D01*
X016947Y022427D01*
X016855Y022334D01*
X016805Y022214D01*
X016805Y022083D01*
X016855Y021962D01*
X015881Y021962D01*
X015979Y022061D02*
X016814Y022061D01*
X016805Y022159D02*
X016078Y022159D01*
X016176Y022258D02*
X016823Y022258D01*
X016877Y022356D02*
X016275Y022356D01*
X016373Y022455D02*
X017016Y022455D01*
X017251Y022455D02*
X018295Y022455D01*
X018295Y022356D02*
X017390Y022356D01*
X017444Y022258D02*
X018295Y022258D01*
X018295Y022159D02*
X017462Y022159D01*
X017546Y022061D02*
X018295Y022061D01*
X018295Y021962D02*
X017645Y021962D01*
X017743Y021864D02*
X018295Y021864D01*
X018295Y021765D02*
X017842Y021765D01*
X017940Y021667D02*
X018295Y021667D01*
X018295Y021568D02*
X018039Y021568D01*
X018138Y021469D02*
X018295Y021469D01*
X018295Y021371D02*
X018236Y021371D01*
X017881Y021075D02*
X014994Y021075D01*
X015092Y021174D02*
X017783Y021174D01*
X017684Y021272D02*
X015191Y021272D01*
X015289Y021371D02*
X017586Y021371D01*
X017487Y021469D02*
X015388Y021469D01*
X015486Y021568D02*
X017389Y021568D01*
X017290Y021667D02*
X015585Y021667D01*
X015684Y021765D02*
X017191Y021765D01*
X017137Y021820D02*
X023556Y015400D01*
X023516Y015360D02*
X013630Y015360D01*
X013667Y015261D02*
X023417Y015261D01*
X023319Y015163D02*
X020381Y015163D01*
X020337Y015207D02*
X019591Y015207D01*
X019064Y014679D01*
X019064Y013934D01*
X019591Y013407D01*
X020337Y013407D01*
X020864Y013934D01*
X020864Y014679D01*
X020337Y015207D01*
X020479Y015064D02*
X023220Y015064D01*
X023121Y014966D02*
X020578Y014966D01*
X020676Y014867D02*
X022792Y014867D01*
X022613Y014769D02*
X020775Y014769D01*
X020864Y014670D02*
X022515Y014670D01*
X022416Y014571D02*
X020864Y014571D01*
X020864Y014473D02*
X022318Y014473D01*
X022219Y014374D02*
X020864Y014374D01*
X020864Y014276D02*
X022121Y014276D01*
X022070Y014177D02*
X020864Y014177D01*
X020864Y014079D02*
X022036Y014079D01*
X022036Y013980D02*
X020864Y013980D01*
X020812Y013882D02*
X022050Y013882D01*
X022091Y013783D02*
X020713Y013783D01*
X020615Y013685D02*
X022170Y013685D01*
X022321Y013586D02*
X020516Y013586D01*
X020418Y013487D02*
X023849Y013487D01*
X023876Y013514D02*
X023674Y013312D01*
X023956Y013029D01*
X023886Y012958D01*
X023956Y012887D01*
X023463Y012394D01*
X023509Y012361D01*
X023572Y012329D01*
X023639Y012307D01*
X023709Y012296D01*
X023780Y012296D01*
X023850Y012307D01*
X023917Y012329D01*
X023980Y012361D01*
X024038Y012403D01*
X024239Y012605D01*
X023957Y012887D01*
X024027Y012958D01*
X024310Y012675D01*
X024512Y012877D01*
X024554Y012934D01*
X024586Y012998D01*
X024608Y013065D01*
X024619Y013135D01*
X024619Y013206D01*
X024608Y013276D01*
X024586Y013343D01*
X024554Y013406D01*
X024521Y013451D01*
X024027Y012958D01*
X023957Y013029D01*
X024450Y013522D01*
X024405Y013555D01*
X024341Y013587D01*
X024274Y013609D01*
X024204Y013620D01*
X024133Y013620D01*
X024063Y013609D01*
X023996Y013587D01*
X023933Y013555D01*
X023876Y013514D01*
X023993Y013586D02*
X022651Y013586D01*
X022802Y013685D02*
X026369Y013685D01*
X026369Y013783D02*
X022901Y013783D01*
X022999Y013882D02*
X026369Y013882D01*
X026369Y013980D02*
X023098Y013980D01*
X023196Y014079D02*
X026369Y014079D01*
X026369Y014177D02*
X025799Y014177D01*
X025791Y014171D02*
X025848Y014213D01*
X026050Y014415D01*
X025767Y014698D01*
X025838Y014768D01*
X026120Y014486D01*
X026322Y014687D01*
X026364Y014745D01*
X026396Y014808D01*
X026418Y014875D01*
X026429Y014945D01*
X026429Y015016D01*
X026418Y015086D01*
X026396Y015153D01*
X026364Y015216D01*
X026331Y015262D01*
X025838Y014768D01*
X025838Y014769D02*
X025838Y014769D01*
X025838Y014768D02*
X025767Y014839D01*
X026260Y015332D01*
X026215Y015365D01*
X026152Y015398D01*
X026084Y015419D01*
X026014Y015430D01*
X025944Y015430D01*
X025874Y015419D01*
X025806Y015398D01*
X025743Y015365D01*
X025686Y015324D01*
X025484Y015122D01*
X025767Y014839D01*
X025696Y014768D01*
X025767Y014698D01*
X025273Y014204D01*
X025319Y014171D01*
X025382Y014139D01*
X025449Y014117D01*
X025519Y014106D01*
X025590Y014106D01*
X025660Y014117D01*
X025727Y014139D01*
X025791Y014171D01*
X025911Y014276D02*
X026369Y014276D01*
X026369Y014374D02*
X026009Y014374D01*
X025992Y014473D02*
X026393Y014473D01*
X026491Y014571D02*
X026206Y014571D01*
X026305Y014670D02*
X026590Y014670D01*
X026689Y014769D02*
X026376Y014769D01*
X026415Y014867D02*
X026787Y014867D01*
X026886Y014966D02*
X026429Y014966D01*
X026421Y015064D02*
X026984Y015064D01*
X027083Y015163D02*
X026391Y015163D01*
X026331Y015261D02*
X027181Y015261D01*
X027280Y015360D02*
X026222Y015360D01*
X026189Y015261D02*
X026330Y015261D01*
X026232Y015163D02*
X026090Y015163D01*
X026133Y015064D02*
X025992Y015064D01*
X026035Y014966D02*
X025893Y014966D01*
X025936Y014867D02*
X025795Y014867D01*
X025739Y014867D02*
X025597Y014867D01*
X025640Y014966D02*
X025499Y014966D01*
X025542Y015064D02*
X023870Y015064D01*
X023772Y014966D02*
X025328Y014966D01*
X025413Y015051D02*
X025211Y014849D01*
X025170Y014792D01*
X025138Y014729D01*
X025116Y014662D01*
X025105Y014592D01*
X025105Y014521D01*
X025116Y014451D01*
X025138Y014384D01*
X025170Y014320D01*
X025203Y014275D01*
X025696Y014768D01*
X025413Y015051D01*
X025525Y015163D02*
X023969Y015163D01*
X024068Y015261D02*
X025623Y015261D01*
X025735Y015360D02*
X024166Y015360D01*
X023673Y014867D02*
X025229Y014867D01*
X025158Y014769D02*
X023575Y014769D01*
X023476Y014670D02*
X025118Y014670D01*
X025105Y014571D02*
X023378Y014571D01*
X023360Y014473D02*
X025112Y014473D01*
X025142Y014374D02*
X023360Y014374D01*
X023334Y014276D02*
X025202Y014276D01*
X025204Y014276D02*
X025345Y014276D01*
X025311Y014177D02*
X023293Y014177D01*
X023751Y013389D02*
X015629Y013389D01*
X015530Y013487D02*
X019511Y013487D01*
X019412Y013586D02*
X015432Y013586D01*
X015333Y013685D02*
X019314Y013685D01*
X019215Y013783D02*
X015235Y013783D01*
X014878Y013882D02*
X019116Y013882D01*
X019064Y013980D02*
X014878Y013980D01*
X014878Y014079D02*
X019064Y014079D01*
X019064Y014177D02*
X014826Y014177D01*
X014728Y014276D02*
X019064Y014276D01*
X019064Y014374D02*
X014629Y014374D01*
X014313Y014473D02*
X019064Y014473D01*
X019064Y014571D02*
X014313Y014571D01*
X014313Y014670D02*
X019064Y014670D01*
X019153Y014769D02*
X014221Y014769D01*
X014313Y014677D02*
X014313Y014677D01*
X014122Y014867D02*
X019252Y014867D01*
X019350Y014966D02*
X014024Y014966D01*
X013672Y014966D02*
X013667Y014966D01*
X013667Y015064D02*
X019449Y015064D01*
X019548Y015163D02*
X013667Y015163D01*
X013202Y015557D02*
X023400Y015557D01*
X023301Y015655D02*
X013202Y015655D01*
X013202Y015754D02*
X023203Y015754D01*
X023104Y015852D02*
X013151Y015852D01*
X013053Y015951D02*
X023006Y015951D01*
X022907Y016050D02*
X017111Y016050D01*
X017086Y016025D02*
X017631Y016569D01*
X016994Y017206D01*
X016358Y016569D01*
X016902Y016025D01*
X016936Y016005D01*
X016975Y015995D01*
X017014Y015995D01*
X017052Y016005D01*
X017086Y016025D01*
X017209Y016148D02*
X022808Y016148D01*
X022710Y016247D02*
X017308Y016247D01*
X017406Y016345D02*
X022611Y016345D01*
X022513Y016444D02*
X017505Y016444D01*
X017604Y016542D02*
X022414Y016542D01*
X022316Y016641D02*
X017702Y016641D01*
X017701Y016640D02*
X018246Y017184D01*
X018265Y017219D01*
X018276Y017257D01*
X018276Y017296D01*
X018265Y017334D01*
X018246Y017369D01*
X017701Y017913D01*
X017065Y017277D01*
X016994Y017347D01*
X016924Y017277D01*
X016287Y017913D01*
X015743Y017369D01*
X015723Y017334D01*
X015713Y017296D01*
X015713Y017257D01*
X015723Y017219D01*
X015743Y017184D01*
X016287Y016640D01*
X016924Y017276D01*
X016994Y017206D01*
X017065Y017276D01*
X017701Y016640D01*
X017701Y016641D02*
X017559Y016641D01*
X017602Y016739D02*
X017461Y016739D01*
X017503Y016838D02*
X017362Y016838D01*
X017405Y016936D02*
X017264Y016936D01*
X017306Y017035D02*
X017165Y017035D01*
X017208Y017134D02*
X017067Y017134D01*
X017109Y017232D02*
X017021Y017232D01*
X016968Y017232D02*
X016879Y017232D01*
X016869Y017331D02*
X016978Y017331D01*
X016994Y017347D02*
X016358Y017984D01*
X016902Y018528D01*
X016936Y018548D01*
X016975Y018558D01*
X017014Y018558D01*
X017052Y018548D01*
X017086Y018528D01*
X017631Y017983D01*
X016994Y017347D01*
X017011Y017331D02*
X017119Y017331D01*
X017076Y017429D02*
X017218Y017429D01*
X017175Y017528D02*
X017316Y017528D01*
X017273Y017626D02*
X017415Y017626D01*
X017372Y017725D02*
X017513Y017725D01*
X017471Y017823D02*
X017612Y017823D01*
X017569Y017922D02*
X021035Y017922D01*
X021133Y017823D02*
X017791Y017823D01*
X017889Y017725D02*
X021232Y017725D01*
X021330Y017626D02*
X017988Y017626D01*
X018086Y017528D02*
X021429Y017528D01*
X021527Y017429D02*
X018185Y017429D01*
X018266Y017331D02*
X021626Y017331D01*
X021724Y017232D02*
X018269Y017232D01*
X018195Y017134D02*
X021823Y017134D01*
X021922Y017035D02*
X018096Y017035D01*
X017998Y016936D02*
X022020Y016936D01*
X022119Y016838D02*
X017899Y016838D01*
X017801Y016739D02*
X022217Y016739D01*
X022572Y017035D02*
X026225Y017035D01*
X026127Y017134D02*
X022473Y017134D01*
X022375Y017232D02*
X026028Y017232D01*
X025930Y017331D02*
X022276Y017331D01*
X022178Y017429D02*
X025831Y017429D01*
X025737Y017528D02*
X023057Y017528D01*
X022964Y017489D02*
X023193Y017584D01*
X023368Y017759D01*
X023463Y017988D01*
X023463Y018235D01*
X023368Y018464D01*
X023193Y018639D01*
X022964Y018734D01*
X022717Y018734D01*
X022488Y018639D01*
X022313Y018464D01*
X022218Y018235D01*
X022218Y017988D01*
X022313Y017759D01*
X022488Y017584D01*
X022717Y017489D01*
X022964Y017489D01*
X023235Y017626D02*
X025737Y017626D01*
X025737Y017725D02*
X023334Y017725D01*
X023395Y017823D02*
X025715Y017823D01*
X025617Y017922D02*
X023436Y017922D01*
X023463Y018020D02*
X025518Y018020D01*
X025420Y018119D02*
X023463Y018119D01*
X023463Y018218D02*
X025321Y018218D01*
X025223Y018316D02*
X023429Y018316D01*
X023389Y018415D02*
X025124Y018415D01*
X025026Y018513D02*
X023319Y018513D01*
X023221Y018612D02*
X024927Y018612D01*
X024829Y018710D02*
X023022Y018710D01*
X022659Y018710D02*
X020897Y018710D01*
X020995Y018612D02*
X022460Y018612D01*
X022362Y018513D02*
X021094Y018513D01*
X021192Y018415D02*
X022292Y018415D01*
X022251Y018316D02*
X021291Y018316D01*
X021389Y018218D02*
X022218Y018218D01*
X022218Y018119D02*
X021488Y018119D01*
X021587Y018020D02*
X022218Y018020D01*
X022245Y017922D02*
X021685Y017922D01*
X021784Y017823D02*
X022286Y017823D01*
X022347Y017725D02*
X021882Y017725D01*
X021981Y017626D02*
X022446Y017626D01*
X022624Y017528D02*
X022079Y017528D01*
X022671Y016936D02*
X026324Y016936D01*
X026422Y016838D02*
X022769Y016838D01*
X022868Y016739D02*
X026521Y016739D01*
X026620Y016641D02*
X024926Y016641D01*
X025054Y016542D02*
X026718Y016542D01*
X026817Y016444D02*
X025123Y016444D01*
X025163Y016345D02*
X026915Y016345D01*
X027014Y016247D02*
X025170Y016247D01*
X025170Y016148D02*
X027112Y016148D01*
X027211Y016050D02*
X025129Y016050D01*
X025069Y015951D02*
X027309Y015951D01*
X027408Y015852D02*
X024970Y015852D01*
X024871Y015754D02*
X027506Y015754D01*
X027506Y015655D02*
X024773Y015655D01*
X024674Y015557D02*
X027477Y015557D01*
X027378Y015458D02*
X024576Y015458D01*
X023906Y016050D02*
X023557Y016050D01*
X023459Y016148D02*
X023993Y016148D01*
X024091Y016247D02*
X023360Y016247D01*
X023262Y016345D02*
X024190Y016345D01*
X024288Y016444D02*
X023163Y016444D01*
X023065Y016542D02*
X024387Y016542D01*
X024514Y016641D02*
X022966Y016641D01*
X023656Y015951D02*
X023865Y015951D01*
X023846Y015852D02*
X023754Y015852D01*
X025302Y014374D02*
X025443Y014374D01*
X025401Y014473D02*
X025542Y014473D01*
X025499Y014571D02*
X025641Y014571D01*
X025598Y014670D02*
X025739Y014670D01*
X025794Y014670D02*
X025936Y014670D01*
X025893Y014571D02*
X026034Y014571D01*
X025696Y014769D02*
X025696Y014769D01*
X026369Y013586D02*
X024344Y013586D01*
X024415Y013487D02*
X026369Y013487D01*
X026403Y013389D02*
X024562Y013389D01*
X024458Y013389D02*
X024317Y013389D01*
X024359Y013290D02*
X024218Y013290D01*
X024261Y013192D02*
X024120Y013192D01*
X024162Y013093D02*
X024021Y013093D01*
X023991Y012995D02*
X024064Y012995D01*
X024089Y012896D02*
X023966Y012896D01*
X023948Y012896D02*
X023824Y012896D01*
X023886Y012958D02*
X023393Y012465D01*
X023360Y012510D01*
X023327Y012573D01*
X023306Y012641D01*
X023294Y012711D01*
X023294Y012781D01*
X023306Y012851D01*
X023327Y012919D01*
X023360Y012982D01*
X023401Y013039D01*
X023603Y013241D01*
X023886Y012958D01*
X023922Y012995D02*
X023849Y012995D01*
X023892Y013093D02*
X023751Y013093D01*
X023794Y013192D02*
X023652Y013192D01*
X023554Y013192D02*
X015826Y013192D01*
X015847Y013093D02*
X023455Y013093D01*
X023369Y012995D02*
X015847Y012995D01*
X015847Y012896D02*
X023320Y012896D01*
X023297Y012798D02*
X015817Y012798D01*
X015719Y012699D02*
X021997Y012699D01*
X021876Y012601D02*
X015620Y012601D01*
X015409Y012502D02*
X021829Y012502D01*
X021816Y012403D02*
X015407Y012403D01*
X015324Y012305D02*
X021719Y012305D01*
X021621Y012206D02*
X019199Y012206D01*
X019298Y012108D02*
X021522Y012108D01*
X021424Y012009D02*
X019396Y012009D01*
X019495Y011911D02*
X021325Y011911D01*
X021088Y011812D02*
X019594Y011812D01*
X019946Y011714D02*
X021014Y011714D01*
X020981Y011615D02*
X020045Y011615D01*
X020124Y011517D02*
X020981Y011517D01*
X021017Y011418D02*
X020124Y011418D01*
X019357Y010429D02*
X019177Y010249D01*
X018837Y010249D01*
X018657Y010429D01*
X016573Y010429D01*
X016393Y010249D01*
X016053Y010249D01*
X015937Y010365D01*
X014306Y010365D01*
X014115Y010365D01*
X013849Y010631D01*
X013849Y010489D01*
X013609Y010249D01*
X013269Y010249D01*
X013029Y010489D01*
X013029Y010829D01*
X013269Y011069D01*
X013411Y011069D01*
X013344Y011136D01*
X011434Y011136D01*
X011254Y010956D01*
X010914Y010956D01*
X010674Y011196D01*
X010674Y011536D01*
X010914Y011776D01*
X011254Y011776D01*
X011434Y011596D01*
X013535Y011596D01*
X013541Y011590D01*
X013736Y011394D01*
X013736Y011536D01*
X013977Y011776D01*
X014096Y011776D01*
X011674Y014199D01*
X011434Y014199D01*
X011254Y014019D01*
X010914Y014019D01*
X010674Y014259D01*
X010674Y014598D01*
X010914Y014839D01*
X010918Y014839D01*
X010918Y016346D01*
X010787Y016477D01*
X010787Y016336D01*
X010547Y016095D01*
X010207Y016095D01*
X009967Y016336D01*
X009967Y016675D01*
X010207Y016915D01*
X010349Y016915D01*
X010282Y016982D01*
X010147Y017117D01*
X010147Y018939D01*
X009967Y019119D01*
X009967Y019459D01*
X010147Y019639D01*
X010147Y022002D01*
X009967Y022182D01*
X009967Y022521D01*
X010147Y022701D01*
X010147Y025064D01*
X010106Y025105D01*
X010106Y025444D01*
X010286Y025624D01*
X010286Y026479D01*
X010077Y026130D01*
X009906Y025754D01*
X009906Y010188D01*
X025472Y010188D01*
X025848Y010359D01*
X026602Y010811D01*
X027281Y011370D01*
X027869Y012024D01*
X028277Y012644D01*
X026411Y010778D01*
X026276Y010644D01*
X025720Y010644D01*
X025529Y010644D01*
X025402Y010770D01*
X025402Y010629D01*
X025162Y010388D01*
X024908Y010388D01*
X024745Y010226D01*
X024555Y010226D01*
X022177Y010226D01*
X022154Y010249D01*
X021899Y010249D01*
X021719Y010429D01*
X019357Y010429D01*
X019262Y010334D02*
X021815Y010334D01*
X022168Y010236D02*
X009906Y010236D01*
X009906Y010334D02*
X010122Y010334D01*
X010207Y010249D02*
X009967Y010489D01*
X009967Y010829D01*
X010207Y011069D01*
X010547Y011069D01*
X010787Y010829D01*
X010787Y010489D01*
X010547Y010249D01*
X010207Y010249D01*
X010024Y010433D02*
X009906Y010433D01*
X009906Y010531D02*
X009967Y010531D01*
X009967Y010630D02*
X009906Y010630D01*
X009906Y010728D02*
X009967Y010728D01*
X009967Y010827D02*
X009906Y010827D01*
X009906Y010925D02*
X010063Y010925D01*
X010162Y011024D02*
X009906Y011024D01*
X009906Y011122D02*
X010748Y011122D01*
X010674Y011221D02*
X009906Y011221D01*
X009906Y011319D02*
X010674Y011319D01*
X010674Y011418D02*
X009906Y011418D01*
X009906Y011517D02*
X010674Y011517D01*
X010753Y011615D02*
X009906Y011615D01*
X009906Y011714D02*
X010852Y011714D01*
X011316Y011714D02*
X013914Y011714D01*
X013815Y011615D02*
X011415Y011615D01*
X011420Y011122D02*
X013358Y011122D01*
X013224Y011024D02*
X011321Y011024D01*
X010847Y011024D02*
X010592Y011024D01*
X010691Y010925D02*
X013126Y010925D01*
X013029Y010827D02*
X010787Y010827D01*
X010787Y010728D02*
X013029Y010728D01*
X013029Y010630D02*
X010787Y010630D01*
X010787Y010531D02*
X013029Y010531D01*
X013086Y010433D02*
X010730Y010433D01*
X010632Y010334D02*
X013185Y010334D01*
X013694Y010334D02*
X015968Y010334D01*
X016478Y010334D02*
X018752Y010334D01*
X021602Y011418D02*
X022366Y011418D01*
X022366Y011517D02*
X021638Y011517D01*
X021680Y011615D02*
X022445Y011615D01*
X022544Y011714D02*
X021779Y011714D01*
X021877Y011812D02*
X025426Y011812D01*
X025328Y011714D02*
X025109Y011714D01*
X025208Y011615D02*
X025290Y011615D01*
X025525Y011911D02*
X021976Y011911D01*
X022074Y012009D02*
X025878Y012009D01*
X025977Y012108D02*
X022286Y012108D01*
X022411Y012206D02*
X026075Y012206D01*
X026174Y012305D02*
X023836Y012305D01*
X023653Y012305D02*
X022459Y012305D01*
X022473Y012403D02*
X023473Y012403D01*
X023430Y012502D02*
X023571Y012502D01*
X023528Y012601D02*
X023670Y012601D01*
X023627Y012699D02*
X023768Y012699D01*
X023725Y012798D02*
X023867Y012798D01*
X024046Y012798D02*
X024188Y012798D01*
X024145Y012699D02*
X024286Y012699D01*
X024334Y012699D02*
X026568Y012699D01*
X026666Y012798D02*
X024432Y012798D01*
X024526Y012896D02*
X026765Y012896D01*
X026711Y012842D02*
X026711Y012842D01*
X026797Y012995D02*
X024584Y012995D01*
X024612Y013093D02*
X026698Y013093D01*
X026600Y013192D02*
X024619Y013192D01*
X024603Y013290D02*
X026501Y013290D01*
X026469Y012601D02*
X024235Y012601D01*
X024137Y012502D02*
X026371Y012502D01*
X026272Y012403D02*
X024038Y012403D01*
X023366Y012502D02*
X022460Y012502D01*
X022413Y012601D02*
X023319Y012601D01*
X023296Y012699D02*
X022292Y012699D01*
X023009Y011714D02*
X023912Y011714D01*
X023814Y011615D02*
X023107Y011615D01*
X023186Y011517D02*
X023715Y011517D01*
X023616Y011418D02*
X023186Y011418D01*
X023186Y011319D02*
X023518Y011319D01*
X023419Y011221D02*
X023186Y011221D01*
X023112Y011122D02*
X023321Y011122D01*
X023222Y011024D02*
X023014Y011024D01*
X024755Y010236D02*
X025575Y010236D01*
X025792Y010334D02*
X024853Y010334D01*
X025206Y010433D02*
X025970Y010433D01*
X026134Y010531D02*
X025305Y010531D01*
X025402Y010630D02*
X026299Y010630D01*
X026361Y010728D02*
X026463Y010728D01*
X026460Y010827D02*
X026621Y010827D01*
X026558Y010925D02*
X026741Y010925D01*
X026657Y011024D02*
X026860Y011024D01*
X026755Y011122D02*
X026980Y011122D01*
X027099Y011221D02*
X026854Y011221D01*
X026952Y011319D02*
X027219Y011319D01*
X027324Y011418D02*
X027051Y011418D01*
X027149Y011517D02*
X027412Y011517D01*
X027501Y011615D02*
X027248Y011615D01*
X027346Y011714D02*
X027589Y011714D01*
X027678Y011812D02*
X027445Y011812D01*
X027544Y011911D02*
X027766Y011911D01*
X027855Y012009D02*
X027642Y012009D01*
X027741Y012108D02*
X027924Y012108D01*
X027988Y012206D02*
X027839Y012206D01*
X027938Y012305D02*
X028053Y012305D01*
X028036Y012403D02*
X028118Y012403D01*
X028135Y012502D02*
X028183Y012502D01*
X028233Y012601D02*
X028248Y012601D01*
X025444Y010728D02*
X025402Y010728D01*
X023695Y013290D02*
X015727Y013290D01*
X014991Y012601D02*
X013922Y012601D01*
X013824Y012699D02*
X014678Y012699D01*
X014580Y012798D02*
X013725Y012798D01*
X013627Y012896D02*
X014478Y012896D01*
X014383Y012995D02*
X013528Y012995D01*
X013429Y013093D02*
X014380Y013093D01*
X014385Y013192D02*
X013331Y013192D01*
X013232Y013290D02*
X014087Y013290D01*
X013988Y013389D02*
X013134Y013389D01*
X013035Y013487D02*
X013890Y013487D01*
X013791Y013586D02*
X012937Y013586D01*
X012838Y013685D02*
X013693Y013685D01*
X013687Y013783D02*
X012740Y013783D01*
X012641Y013882D02*
X013496Y013882D01*
X013397Y013980D02*
X012543Y013980D01*
X012444Y014079D02*
X013299Y014079D01*
X013383Y013994D02*
X013383Y013994D01*
X013214Y014177D02*
X012346Y014177D01*
X012247Y014276D02*
X013214Y014276D01*
X013003Y014374D02*
X012148Y014374D01*
X012050Y014473D02*
X012904Y014473D01*
X012806Y014571D02*
X011951Y014571D01*
X011695Y014177D02*
X011412Y014177D01*
X011314Y014079D02*
X011794Y014079D01*
X011892Y013980D02*
X010698Y013980D01*
X010787Y013891D02*
X010547Y014131D01*
X010207Y014131D01*
X009967Y013891D01*
X009967Y013552D01*
X010207Y013311D01*
X010547Y013311D01*
X010787Y013552D01*
X010787Y013891D01*
X010787Y013882D02*
X011991Y013882D01*
X012089Y013783D02*
X010787Y013783D01*
X010787Y013685D02*
X012188Y013685D01*
X012286Y013586D02*
X010787Y013586D01*
X010723Y013487D02*
X012385Y013487D01*
X012483Y013389D02*
X010624Y013389D01*
X010130Y013389D02*
X009906Y013389D01*
X009906Y013487D02*
X010031Y013487D01*
X009967Y013586D02*
X009906Y013586D01*
X009906Y013685D02*
X009967Y013685D01*
X009967Y013783D02*
X009906Y013783D01*
X009906Y013882D02*
X009967Y013882D01*
X009906Y013980D02*
X010056Y013980D01*
X010154Y014079D02*
X009906Y014079D01*
X009906Y014177D02*
X010756Y014177D01*
X010674Y014276D02*
X009906Y014276D01*
X009906Y014374D02*
X010674Y014374D01*
X010674Y014473D02*
X009906Y014473D01*
X009906Y014571D02*
X010674Y014571D01*
X010746Y014670D02*
X009906Y014670D01*
X009906Y014769D02*
X010844Y014769D01*
X010918Y014867D02*
X009906Y014867D01*
X009906Y014966D02*
X010918Y014966D01*
X010918Y015064D02*
X009906Y015064D01*
X009906Y015163D02*
X010918Y015163D01*
X010918Y015261D02*
X009906Y015261D01*
X009906Y015360D02*
X010918Y015360D01*
X010918Y015458D02*
X009906Y015458D01*
X009906Y015557D02*
X010918Y015557D01*
X010918Y015655D02*
X009906Y015655D01*
X009906Y015754D02*
X010918Y015754D01*
X010918Y015852D02*
X009906Y015852D01*
X009906Y015951D02*
X010918Y015951D01*
X010918Y016050D02*
X009906Y016050D01*
X009906Y016148D02*
X010154Y016148D01*
X010056Y016247D02*
X009906Y016247D01*
X009906Y016345D02*
X009967Y016345D01*
X009967Y016444D02*
X009906Y016444D01*
X009906Y016542D02*
X009967Y016542D01*
X009967Y016641D02*
X009906Y016641D01*
X009906Y016739D02*
X010031Y016739D01*
X010130Y016838D02*
X009906Y016838D01*
X009906Y016936D02*
X010328Y016936D01*
X010229Y017035D02*
X009906Y017035D01*
X009906Y017134D02*
X010147Y017134D01*
X010147Y017232D02*
X009906Y017232D01*
X009906Y017331D02*
X010147Y017331D01*
X010147Y017429D02*
X009906Y017429D01*
X009906Y017528D02*
X010147Y017528D01*
X010147Y017626D02*
X009906Y017626D01*
X009906Y017725D02*
X010147Y017725D01*
X010147Y017823D02*
X009906Y017823D01*
X009906Y017922D02*
X010147Y017922D01*
X010147Y018020D02*
X009906Y018020D01*
X009906Y018119D02*
X010147Y018119D01*
X010147Y018218D02*
X009906Y018218D01*
X009906Y018316D02*
X010147Y018316D01*
X010147Y018415D02*
X009906Y018415D01*
X009906Y018513D02*
X010147Y018513D01*
X010147Y018612D02*
X009906Y018612D01*
X009906Y018710D02*
X010147Y018710D01*
X010147Y018809D02*
X009906Y018809D01*
X009906Y018907D02*
X010147Y018907D01*
X010081Y019006D02*
X009906Y019006D01*
X009906Y019104D02*
X009982Y019104D01*
X009967Y019203D02*
X009906Y019203D01*
X009906Y019301D02*
X009967Y019301D01*
X009967Y019400D02*
X009906Y019400D01*
X009906Y019499D02*
X010007Y019499D01*
X010105Y019597D02*
X009906Y019597D01*
X009906Y019696D02*
X010147Y019696D01*
X010147Y019794D02*
X009906Y019794D01*
X009906Y019893D02*
X010147Y019893D01*
X010147Y019991D02*
X009906Y019991D01*
X009906Y020090D02*
X010147Y020090D01*
X010147Y020188D02*
X009906Y020188D01*
X009906Y020287D02*
X010147Y020287D01*
X010147Y020385D02*
X009906Y020385D01*
X009906Y020484D02*
X010147Y020484D01*
X010147Y020583D02*
X009906Y020583D01*
X009906Y020681D02*
X010147Y020681D01*
X010147Y020780D02*
X009906Y020780D01*
X009906Y020878D02*
X010147Y020878D01*
X010147Y020977D02*
X009906Y020977D01*
X009906Y021075D02*
X010147Y021075D01*
X010147Y021174D02*
X009906Y021174D01*
X009906Y021272D02*
X010147Y021272D01*
X010147Y021371D02*
X009906Y021371D01*
X009906Y021469D02*
X010147Y021469D01*
X010147Y021568D02*
X009906Y021568D01*
X009906Y021667D02*
X010147Y021667D01*
X010147Y021765D02*
X009906Y021765D01*
X009906Y021864D02*
X010147Y021864D01*
X010147Y021962D02*
X009906Y021962D01*
X009906Y022061D02*
X010088Y022061D01*
X009989Y022159D02*
X009906Y022159D01*
X009906Y022258D02*
X009967Y022258D01*
X009967Y022356D02*
X009906Y022356D01*
X009906Y022455D02*
X009967Y022455D01*
X009999Y022553D02*
X009906Y022553D01*
X009906Y022652D02*
X010098Y022652D01*
X010147Y022751D02*
X009906Y022751D01*
X009906Y022849D02*
X010147Y022849D01*
X010147Y022948D02*
X009906Y022948D01*
X009906Y023046D02*
X010147Y023046D01*
X010147Y023145D02*
X009906Y023145D01*
X009906Y023243D02*
X010147Y023243D01*
X010147Y023342D02*
X009906Y023342D01*
X009906Y023440D02*
X010147Y023440D01*
X010147Y023539D02*
X009906Y023539D01*
X009906Y023637D02*
X010147Y023637D01*
X010147Y023736D02*
X009906Y023736D01*
X009906Y023834D02*
X010147Y023834D01*
X010147Y023933D02*
X009906Y023933D01*
X009906Y024032D02*
X010147Y024032D01*
X010147Y024130D02*
X009906Y024130D01*
X009906Y024229D02*
X010147Y024229D01*
X010147Y024327D02*
X009906Y024327D01*
X009906Y024426D02*
X010147Y024426D01*
X010147Y024524D02*
X009906Y024524D01*
X009906Y024623D02*
X010147Y024623D01*
X010147Y024721D02*
X009906Y024721D01*
X009906Y024820D02*
X010147Y024820D01*
X010147Y024918D02*
X009906Y024918D01*
X009906Y025017D02*
X010147Y025017D01*
X010106Y025116D02*
X009906Y025116D01*
X009906Y025214D02*
X010106Y025214D01*
X010106Y025313D02*
X009906Y025313D01*
X009906Y025411D02*
X010106Y025411D01*
X010172Y025510D02*
X009906Y025510D01*
X009906Y025608D02*
X010270Y025608D01*
X010286Y025707D02*
X009906Y025707D01*
X009930Y025805D02*
X010286Y025805D01*
X010286Y025904D02*
X009974Y025904D01*
X010019Y026002D02*
X010286Y026002D01*
X010286Y026101D02*
X010064Y026101D01*
X010119Y026200D02*
X010286Y026200D01*
X010286Y026298D02*
X010178Y026298D01*
X010237Y026397D02*
X010286Y026397D01*
X010293Y026490D02*
X010529Y026884D01*
X011088Y027563D01*
X011742Y028151D01*
X012476Y028635D01*
X013275Y029003D01*
X014119Y029249D01*
X014991Y029366D01*
X015870Y029352D01*
X016096Y029315D01*
X015925Y029315D01*
X015685Y029075D01*
X015685Y028735D01*
X015925Y028495D01*
X016265Y028495D01*
X016505Y028735D01*
X016505Y029075D01*
X016299Y029281D01*
X016737Y029208D01*
X017573Y028935D01*
X018359Y028541D01*
X019038Y028062D01*
X018848Y028062D01*
X018608Y027822D01*
X018608Y027482D01*
X018848Y027242D01*
X019103Y027242D01*
X019548Y026797D01*
X019548Y024888D01*
X019548Y024698D01*
X019953Y024293D01*
X019897Y024293D01*
X017940Y026249D01*
X018226Y026535D01*
X018481Y026535D01*
X018721Y026775D01*
X018721Y027115D01*
X018481Y027355D01*
X018141Y027355D01*
X017901Y027115D01*
X017901Y026860D01*
X017615Y026574D01*
X017288Y026901D01*
X015795Y028394D01*
X015762Y028428D01*
X015738Y028428D01*
X015558Y028608D01*
X015218Y028608D01*
X015049Y028439D01*
X013522Y028439D01*
X013342Y028619D01*
X013002Y028619D01*
X012762Y028379D01*
X012762Y028039D01*
X013002Y027799D01*
X013342Y027799D01*
X013522Y027979D01*
X015027Y027979D01*
X015218Y027788D01*
X015558Y027788D01*
X015654Y027884D01*
X016469Y027070D01*
X016372Y027070D01*
X016251Y027020D01*
X016159Y026928D01*
X016109Y026807D01*
X016109Y026739D01*
X013419Y024049D01*
X013359Y023988D01*
X012166Y022796D01*
X011672Y022796D01*
X011494Y022974D01*
X011494Y023228D01*
X011254Y023469D01*
X010914Y023469D01*
X010674Y023228D01*
X010674Y022889D01*
X010914Y022649D01*
X011169Y022649D01*
X011477Y022340D01*
X011482Y022336D01*
X012166Y022336D01*
X012357Y022336D01*
X013439Y023418D01*
X013907Y022950D01*
X013906Y022948D01*
X013906Y022785D01*
X013969Y022634D01*
X014451Y022151D01*
X014602Y022089D01*
X014765Y022089D01*
X014825Y022114D01*
X014362Y021651D01*
X014387Y021710D01*
X014387Y021873D01*
X014324Y022024D01*
X013841Y022507D01*
X013691Y022569D01*
X013527Y022569D01*
X013377Y022507D01*
X013261Y022392D01*
X013199Y022241D01*
X013199Y022239D01*
X013192Y022239D01*
X013002Y022239D01*
X011169Y020406D01*
X010914Y020406D01*
X010674Y020166D01*
X010674Y019826D01*
X010914Y019586D01*
X011254Y019586D01*
X011494Y019826D01*
X011494Y020081D01*
X013192Y021779D01*
X013410Y021779D01*
X013646Y021543D01*
X013141Y021543D01*
X013141Y021543D01*
X011614Y020016D01*
X011614Y019826D01*
X011614Y018068D01*
X011169Y017622D01*
X010914Y017622D01*
X010674Y017382D01*
X010674Y017241D01*
X010607Y017308D01*
X010607Y018939D01*
X010787Y019119D01*
X010787Y019459D01*
X010607Y019639D01*
X010607Y022002D01*
X010787Y022182D01*
X010787Y022521D01*
X010607Y022701D01*
X010607Y024865D01*
X010686Y024865D01*
X010926Y025105D01*
X010926Y025444D01*
X010746Y025624D01*
X010746Y026293D01*
X011800Y027347D01*
X012055Y027347D01*
X012055Y027332D01*
X012235Y027152D01*
X012235Y026037D01*
X012336Y025936D01*
X012493Y025779D01*
X012492Y025777D01*
X012492Y025613D01*
X012554Y025463D01*
X013037Y024980D01*
X013188Y024917D01*
X013351Y024917D01*
X013502Y024980D01*
X013617Y025095D01*
X013679Y025246D01*
X013679Y025409D01*
X013617Y025560D01*
X013134Y026043D01*
X012983Y026105D01*
X012820Y026105D01*
X012818Y026104D01*
X012695Y026227D01*
X012695Y027152D01*
X012875Y027332D01*
X012875Y027671D01*
X012635Y027912D01*
X012295Y027912D01*
X012190Y027807D01*
X011800Y027807D01*
X011610Y027807D01*
X010400Y026597D01*
X010293Y026490D01*
X010296Y026495D02*
X010298Y026495D01*
X010355Y026594D02*
X010397Y026594D01*
X010414Y026692D02*
X010495Y026692D01*
X010473Y026791D02*
X010594Y026791D01*
X010533Y026889D02*
X010692Y026889D01*
X010614Y026988D02*
X010791Y026988D01*
X010696Y027086D02*
X010889Y027086D01*
X010988Y027185D02*
X010777Y027185D01*
X010858Y027284D02*
X011086Y027284D01*
X011185Y027382D02*
X010939Y027382D01*
X011020Y027481D02*
X011283Y027481D01*
X011382Y027579D02*
X011106Y027579D01*
X011216Y027678D02*
X011480Y027678D01*
X011579Y027776D02*
X011325Y027776D01*
X011435Y027875D02*
X012258Y027875D01*
X012672Y027875D02*
X012926Y027875D01*
X012828Y027973D02*
X011545Y027973D01*
X011654Y028072D02*
X012762Y028072D01*
X012762Y028170D02*
X011772Y028170D01*
X011922Y028269D02*
X012762Y028269D01*
X012762Y028367D02*
X012071Y028367D01*
X012221Y028466D02*
X012849Y028466D01*
X012948Y028565D02*
X012370Y028565D01*
X012538Y028663D02*
X015757Y028663D01*
X015685Y028762D02*
X012752Y028762D01*
X012965Y028860D02*
X015685Y028860D01*
X015685Y028959D02*
X013178Y028959D01*
X013460Y029057D02*
X015685Y029057D01*
X015766Y029156D02*
X013798Y029156D01*
X014157Y029254D02*
X015865Y029254D01*
X015843Y029353D02*
X014890Y029353D01*
X015175Y028565D02*
X013396Y028565D01*
X013495Y028466D02*
X015077Y028466D01*
X015033Y027973D02*
X013516Y027973D01*
X013418Y027875D02*
X015131Y027875D01*
X015645Y027875D02*
X015664Y027875D01*
X015763Y027776D02*
X012770Y027776D01*
X012869Y027678D02*
X015861Y027678D01*
X015960Y027579D02*
X012875Y027579D01*
X012875Y027481D02*
X016058Y027481D01*
X016157Y027382D02*
X012875Y027382D01*
X012826Y027284D02*
X014985Y027284D01*
X015004Y027302D02*
X014905Y027203D01*
X015173Y026935D01*
X015131Y026892D01*
X014862Y027161D01*
X014764Y027062D01*
X014764Y026722D01*
X014862Y026623D01*
X015131Y026892D01*
X015173Y026849D01*
X014905Y026581D01*
X015004Y026482D01*
X015343Y026482D01*
X015442Y026581D01*
X015174Y026849D01*
X015216Y026892D01*
X015174Y026935D01*
X015442Y027203D01*
X015343Y027302D01*
X015004Y027302D01*
X014923Y027185D02*
X012728Y027185D01*
X012695Y027086D02*
X014788Y027086D01*
X014764Y026988D02*
X012695Y026988D01*
X012695Y026889D02*
X014764Y026889D01*
X014764Y026791D02*
X013742Y026791D01*
X013691Y026812D02*
X013527Y026812D01*
X013377Y026750D01*
X013261Y026634D01*
X013199Y026484D01*
X013199Y026321D01*
X013261Y026170D01*
X013744Y025687D01*
X013895Y025624D01*
X014058Y025624D01*
X014209Y025687D01*
X014324Y025802D01*
X014387Y025953D01*
X014387Y026116D01*
X014324Y026267D01*
X013841Y026750D01*
X013691Y026812D01*
X013476Y026791D02*
X012695Y026791D01*
X012695Y026692D02*
X013319Y026692D01*
X013245Y026594D02*
X012695Y026594D01*
X012695Y026495D02*
X013204Y026495D01*
X013199Y026397D02*
X012695Y026397D01*
X012695Y026298D02*
X013208Y026298D01*
X013249Y026200D02*
X012723Y026200D01*
X012993Y026101D02*
X013330Y026101D01*
X013429Y026002D02*
X013174Y026002D01*
X013273Y025904D02*
X013527Y025904D01*
X013626Y025805D02*
X013371Y025805D01*
X013470Y025707D02*
X013724Y025707D01*
X013568Y025608D02*
X014979Y025608D01*
X014880Y025510D02*
X013638Y025510D01*
X013679Y025411D02*
X014782Y025411D01*
X014683Y025313D02*
X013679Y025313D01*
X013666Y025214D02*
X014585Y025214D01*
X014486Y025116D02*
X013626Y025116D01*
X013539Y025017D02*
X014388Y025017D01*
X014289Y024918D02*
X013354Y024918D01*
X013185Y024918D02*
X012844Y024918D01*
X012910Y024852D02*
X012972Y024702D01*
X012972Y024539D01*
X012910Y024388D01*
X012795Y024273D01*
X012644Y024210D01*
X012481Y024210D01*
X012330Y024273D01*
X011847Y024756D01*
X011785Y024906D01*
X011785Y025069D01*
X011786Y025072D01*
X011286Y025572D01*
X011053Y025572D01*
X010813Y025812D01*
X010813Y026151D01*
X011053Y026392D01*
X011393Y026392D01*
X011633Y026151D01*
X011633Y025875D01*
X012111Y025397D01*
X012113Y025398D01*
X012276Y025398D01*
X012427Y025335D01*
X012910Y024852D01*
X012923Y024820D02*
X014191Y024820D01*
X014092Y024721D02*
X012964Y024721D01*
X012972Y024623D02*
X013993Y024623D01*
X013895Y024524D02*
X012966Y024524D01*
X012926Y024426D02*
X013796Y024426D01*
X013698Y024327D02*
X012849Y024327D01*
X012688Y024229D02*
X013599Y024229D01*
X013501Y024130D02*
X012204Y024130D01*
X012206Y024128D02*
X012168Y024180D01*
X011983Y024366D01*
X011714Y024097D01*
X011672Y024140D01*
X011940Y024408D01*
X011755Y024594D01*
X011703Y024631D01*
X011645Y024661D01*
X011584Y024681D01*
X011520Y024691D01*
X011455Y024691D01*
X011392Y024681D01*
X011330Y024661D01*
X011273Y024631D01*
X011221Y024594D01*
X011219Y024592D01*
X011671Y024140D01*
X011629Y024097D01*
X011671Y024054D01*
X011403Y023786D01*
X011588Y023600D01*
X011640Y023563D01*
X011698Y023533D01*
X011759Y023513D01*
X011823Y023503D01*
X011888Y023503D01*
X011951Y023513D01*
X012013Y023533D01*
X012070Y023563D01*
X012122Y023600D01*
X012124Y023602D01*
X011672Y024054D01*
X011714Y024097D01*
X012166Y023644D01*
X012168Y023646D01*
X012206Y023698D01*
X012235Y023756D01*
X012255Y023817D01*
X012265Y023881D01*
X012265Y023945D01*
X012255Y024009D01*
X012235Y024071D01*
X012206Y024128D01*
X012248Y024032D02*
X013402Y024032D01*
X013304Y023933D02*
X012265Y023933D01*
X012258Y023834D02*
X013205Y023834D01*
X013107Y023736D02*
X012225Y023736D01*
X012075Y023736D02*
X011990Y023736D01*
X011976Y023834D02*
X011891Y023834D01*
X011878Y023933D02*
X011793Y023933D01*
X011779Y024032D02*
X011694Y024032D01*
X011649Y024032D02*
X011564Y024032D01*
X011629Y024097D02*
X011360Y023828D01*
X011175Y024014D01*
X011137Y024066D01*
X011108Y024123D01*
X011088Y024185D01*
X011078Y024249D01*
X011078Y024313D01*
X011088Y024377D01*
X011108Y024438D01*
X011137Y024496D01*
X011175Y024548D01*
X011176Y024549D01*
X011629Y024097D01*
X011596Y024130D02*
X011662Y024130D01*
X011681Y024130D02*
X011747Y024130D01*
X011761Y024229D02*
X011846Y024229D01*
X011859Y024327D02*
X011944Y024327D01*
X012021Y024327D02*
X012276Y024327D01*
X012177Y024426D02*
X011923Y024426D01*
X011824Y024524D02*
X012079Y024524D01*
X011980Y024623D02*
X011714Y024623D01*
X011881Y024721D02*
X010607Y024721D01*
X010607Y024623D02*
X011261Y024623D01*
X011287Y024524D02*
X011202Y024524D01*
X011158Y024524D02*
X010607Y024524D01*
X010607Y024426D02*
X011104Y024426D01*
X011080Y024327D02*
X010607Y024327D01*
X010607Y024229D02*
X011081Y024229D01*
X011106Y024130D02*
X010607Y024130D01*
X010607Y024032D02*
X011162Y024032D01*
X011256Y023933D02*
X010607Y023933D01*
X010607Y023834D02*
X011354Y023834D01*
X011366Y023834D02*
X011451Y023834D01*
X011453Y023736D02*
X010607Y023736D01*
X010607Y023637D02*
X011551Y023637D01*
X011687Y023539D02*
X010607Y023539D01*
X010607Y023440D02*
X010886Y023440D01*
X010787Y023342D02*
X010607Y023342D01*
X010607Y023243D02*
X010689Y023243D01*
X010674Y023145D02*
X010607Y023145D01*
X010607Y023046D02*
X010674Y023046D01*
X010674Y022948D02*
X010607Y022948D01*
X010607Y022849D02*
X010714Y022849D01*
X010812Y022751D02*
X010607Y022751D01*
X010656Y022652D02*
X010911Y022652D01*
X010755Y022553D02*
X011264Y022553D01*
X011363Y022455D02*
X010787Y022455D01*
X010787Y022356D02*
X011461Y022356D01*
X011619Y022849D02*
X012220Y022849D01*
X012318Y022948D02*
X011520Y022948D01*
X011494Y023046D02*
X012417Y023046D01*
X012515Y023145D02*
X011494Y023145D01*
X011479Y023243D02*
X012614Y023243D01*
X012712Y023342D02*
X011381Y023342D01*
X011282Y023440D02*
X012811Y023440D01*
X012909Y023539D02*
X012024Y023539D01*
X012089Y023637D02*
X013008Y023637D01*
X013363Y023342D02*
X013516Y023342D01*
X013614Y023243D02*
X013264Y023243D01*
X013166Y023145D02*
X013713Y023145D01*
X013811Y023046D02*
X013067Y023046D01*
X012969Y022948D02*
X013906Y022948D01*
X013906Y022849D02*
X012870Y022849D01*
X012772Y022751D02*
X013920Y022751D01*
X013961Y022652D02*
X012673Y022652D01*
X012574Y022553D02*
X013489Y022553D01*
X013325Y022455D02*
X012476Y022455D01*
X012377Y022356D02*
X013247Y022356D01*
X013206Y022258D02*
X010787Y022258D01*
X010764Y022159D02*
X012922Y022159D01*
X012823Y022061D02*
X010666Y022061D01*
X010607Y021962D02*
X012725Y021962D01*
X012626Y021864D02*
X010607Y021864D01*
X010607Y021765D02*
X012528Y021765D01*
X012429Y021667D02*
X010607Y021667D01*
X010607Y021568D02*
X012331Y021568D01*
X012232Y021469D02*
X010607Y021469D01*
X010607Y021371D02*
X012133Y021371D01*
X012035Y021272D02*
X010607Y021272D01*
X010607Y021174D02*
X011936Y021174D01*
X011838Y021075D02*
X010607Y021075D01*
X010607Y020977D02*
X011739Y020977D01*
X011641Y020878D02*
X010607Y020878D01*
X010607Y020780D02*
X011542Y020780D01*
X011444Y020681D02*
X010607Y020681D01*
X010607Y020583D02*
X011345Y020583D01*
X011247Y020484D02*
X010607Y020484D01*
X010607Y020385D02*
X010893Y020385D01*
X010795Y020287D02*
X010607Y020287D01*
X010607Y020188D02*
X010696Y020188D01*
X010674Y020090D02*
X010607Y020090D01*
X010607Y019991D02*
X010674Y019991D01*
X010674Y019893D02*
X010607Y019893D01*
X010607Y019794D02*
X010706Y019794D01*
X010607Y019696D02*
X010805Y019696D01*
X010904Y019597D02*
X010649Y019597D01*
X010747Y019499D02*
X011614Y019499D01*
X011614Y019597D02*
X011265Y019597D01*
X011363Y019696D02*
X011614Y019696D01*
X011614Y019794D02*
X011462Y019794D01*
X011494Y019893D02*
X011614Y019893D01*
X011614Y019991D02*
X011494Y019991D01*
X011503Y020090D02*
X011688Y020090D01*
X011601Y020188D02*
X011786Y020188D01*
X011700Y020287D02*
X011885Y020287D01*
X011798Y020385D02*
X011983Y020385D01*
X011897Y020484D02*
X012082Y020484D01*
X011996Y020583D02*
X012180Y020583D01*
X012094Y020681D02*
X012279Y020681D01*
X012193Y020780D02*
X012377Y020780D01*
X012291Y020878D02*
X012476Y020878D01*
X012390Y020977D02*
X012574Y020977D01*
X012488Y021075D02*
X012673Y021075D01*
X012587Y021174D02*
X012771Y021174D01*
X012685Y021272D02*
X012870Y021272D01*
X012784Y021371D02*
X012969Y021371D01*
X012882Y021469D02*
X013067Y021469D01*
X012981Y021568D02*
X013621Y021568D01*
X013522Y021667D02*
X013079Y021667D01*
X013178Y021765D02*
X013424Y021765D01*
X013323Y021075D02*
X013581Y021075D01*
X013482Y020977D02*
X013225Y020977D01*
X013126Y020878D02*
X013384Y020878D01*
X013285Y020780D02*
X013028Y020780D01*
X012929Y020681D02*
X013187Y020681D01*
X013124Y020583D02*
X012831Y020583D01*
X012732Y020484D02*
X013124Y020484D01*
X013124Y020385D02*
X012634Y020385D01*
X012535Y020287D02*
X013124Y020287D01*
X013124Y020188D02*
X012437Y020188D01*
X012338Y020090D02*
X013124Y020090D01*
X013124Y019991D02*
X012239Y019991D01*
X012141Y019893D02*
X013124Y019893D01*
X013204Y019794D02*
X012074Y019794D01*
X012074Y019696D02*
X013302Y019696D01*
X013401Y019597D02*
X012074Y019597D01*
X012074Y019499D02*
X013499Y019499D01*
X013598Y019400D02*
X012074Y019400D01*
X012074Y019301D02*
X019655Y019301D01*
X019754Y019203D02*
X012074Y019203D01*
X012074Y019104D02*
X019852Y019104D01*
X019951Y019006D02*
X012074Y019006D01*
X012074Y018907D02*
X020049Y018907D01*
X020148Y018809D02*
X012074Y018809D01*
X012074Y018710D02*
X020246Y018710D01*
X020345Y018612D02*
X012074Y018612D01*
X012074Y018513D02*
X016887Y018513D01*
X016789Y018415D02*
X012074Y018415D01*
X012074Y018316D02*
X016690Y018316D01*
X016592Y018218D02*
X012074Y018218D01*
X012074Y018119D02*
X016493Y018119D01*
X016395Y018020D02*
X012074Y018020D01*
X012074Y017922D02*
X016419Y017922D01*
X016377Y017823D02*
X016518Y017823D01*
X016475Y017725D02*
X016617Y017725D01*
X016574Y017626D02*
X016715Y017626D01*
X016672Y017528D02*
X016814Y017528D01*
X016771Y017429D02*
X016912Y017429D01*
X016922Y017134D02*
X016781Y017134D01*
X016823Y017035D02*
X016682Y017035D01*
X016725Y016936D02*
X016584Y016936D01*
X016626Y016838D02*
X016485Y016838D01*
X016528Y016739D02*
X016387Y016739D01*
X016429Y016641D02*
X016288Y016641D01*
X016286Y016641D02*
X011274Y016641D01*
X011372Y016542D02*
X016385Y016542D01*
X016484Y016444D02*
X011378Y016444D01*
X011378Y016345D02*
X016582Y016345D01*
X016681Y016247D02*
X011378Y016247D01*
X011378Y016148D02*
X016779Y016148D01*
X016878Y016050D02*
X012954Y016050D01*
X012522Y016050D02*
X011378Y016050D01*
X011378Y015951D02*
X012423Y015951D01*
X012351Y015852D02*
X011378Y015852D01*
X011378Y015754D02*
X012226Y015754D01*
X012127Y015655D02*
X011378Y015655D01*
X011378Y015557D02*
X012096Y015557D01*
X012096Y015458D02*
X011378Y015458D01*
X011378Y015360D02*
X012096Y015360D01*
X012116Y015261D02*
X011378Y015261D01*
X011378Y015163D02*
X012215Y015163D01*
X012313Y015064D02*
X011378Y015064D01*
X011378Y014966D02*
X012569Y014966D01*
X012569Y014867D02*
X011378Y014867D01*
X011378Y014769D02*
X012609Y014769D01*
X012707Y014670D02*
X011422Y014670D01*
X010854Y014079D02*
X010599Y014079D01*
X009906Y013290D02*
X012582Y013290D01*
X012680Y013192D02*
X009906Y013192D01*
X009906Y013093D02*
X012779Y013093D01*
X012878Y012995D02*
X009906Y012995D01*
X009906Y012896D02*
X012976Y012896D01*
X013075Y012798D02*
X009906Y012798D01*
X009906Y012699D02*
X013173Y012699D01*
X013272Y012601D02*
X009906Y012601D01*
X009906Y012502D02*
X013370Y012502D01*
X013469Y012403D02*
X009906Y012403D01*
X009906Y012305D02*
X013567Y012305D01*
X013666Y012206D02*
X009906Y012206D01*
X009906Y012108D02*
X013764Y012108D01*
X013863Y012009D02*
X009906Y012009D01*
X009906Y011911D02*
X013962Y011911D01*
X014060Y011812D02*
X009906Y011812D01*
X012907Y015064D02*
X012989Y015064D01*
X012865Y015106D02*
X012865Y015106D01*
X012870Y015163D02*
X013088Y015163D01*
X011388Y016936D02*
X015991Y016936D01*
X016089Y016838D02*
X011289Y016838D01*
X011175Y016739D02*
X016188Y016739D01*
X015892Y017035D02*
X011486Y017035D01*
X011494Y017134D02*
X015794Y017134D01*
X015720Y017232D02*
X011494Y017232D01*
X011527Y017331D02*
X015722Y017331D01*
X015804Y017429D02*
X011626Y017429D01*
X011725Y017528D02*
X015902Y017528D01*
X016001Y017626D02*
X011823Y017626D01*
X011922Y017725D02*
X016099Y017725D01*
X016198Y017823D02*
X012020Y017823D01*
X011567Y018020D02*
X010607Y018020D01*
X010607Y017922D02*
X011468Y017922D01*
X011370Y017823D02*
X010607Y017823D01*
X010607Y017725D02*
X011271Y017725D01*
X011173Y017626D02*
X010607Y017626D01*
X010607Y017528D02*
X010820Y017528D01*
X010721Y017429D02*
X010607Y017429D01*
X010607Y017331D02*
X010674Y017331D01*
X010787Y016444D02*
X010820Y016444D01*
X010787Y016345D02*
X010918Y016345D01*
X010918Y016247D02*
X010698Y016247D01*
X010599Y016148D02*
X010918Y016148D01*
X010607Y018119D02*
X011614Y018119D01*
X011614Y018218D02*
X010607Y018218D01*
X010607Y018316D02*
X011614Y018316D01*
X011614Y018415D02*
X010607Y018415D01*
X010607Y018513D02*
X011614Y018513D01*
X011614Y018612D02*
X010607Y018612D01*
X010607Y018710D02*
X011614Y018710D01*
X011614Y018809D02*
X010607Y018809D01*
X010607Y018907D02*
X011614Y018907D01*
X011614Y019006D02*
X010673Y019006D01*
X010772Y019104D02*
X011614Y019104D01*
X011614Y019203D02*
X010787Y019203D01*
X010787Y019301D02*
X011614Y019301D01*
X011614Y019400D02*
X010787Y019400D01*
X013729Y022553D02*
X014049Y022553D01*
X014148Y022455D02*
X013893Y022455D01*
X013992Y022356D02*
X014246Y022356D01*
X014345Y022258D02*
X014090Y022258D01*
X014189Y022159D02*
X014444Y022159D01*
X014288Y022061D02*
X014772Y022061D01*
X014673Y021962D02*
X014350Y021962D01*
X014387Y021864D02*
X014575Y021864D01*
X014476Y021765D02*
X014387Y021765D01*
X014378Y021667D02*
X014368Y021667D01*
X014895Y020977D02*
X017980Y020977D01*
X018078Y020878D02*
X014797Y020878D01*
X014764Y020780D02*
X018177Y020780D01*
X018275Y020681D02*
X014862Y020681D01*
X014924Y020583D02*
X018374Y020583D01*
X018473Y020484D02*
X014924Y020484D01*
X014924Y020385D02*
X018571Y020385D01*
X018670Y020287D02*
X014924Y020287D01*
X014924Y020188D02*
X018768Y020188D01*
X018867Y020090D02*
X014924Y020090D01*
X014924Y019991D02*
X018965Y019991D01*
X019064Y019893D02*
X014924Y019893D01*
X014845Y019794D02*
X019162Y019794D01*
X019261Y019696D02*
X014746Y019696D01*
X014648Y019597D02*
X019359Y019597D01*
X019458Y019499D02*
X014549Y019499D01*
X014451Y019400D02*
X019556Y019400D01*
X020010Y019597D02*
X021030Y019597D01*
X020931Y019696D02*
X020446Y019696D01*
X020544Y019794D02*
X020833Y019794D01*
X020305Y019301D02*
X022238Y019301D01*
X022234Y019203D02*
X020404Y019203D01*
X020503Y019104D02*
X022257Y019104D01*
X022317Y019006D02*
X020601Y019006D01*
X020700Y018907D02*
X022471Y018907D01*
X022653Y018907D02*
X024631Y018907D01*
X024533Y019006D02*
X022807Y019006D01*
X022867Y019104D02*
X024434Y019104D01*
X024336Y019203D02*
X022890Y019203D01*
X022964Y019301D02*
X024237Y019301D01*
X024139Y019400D02*
X023062Y019400D01*
X023161Y019499D02*
X024040Y019499D01*
X023942Y019597D02*
X023259Y019597D01*
X023358Y019696D02*
X023843Y019696D01*
X023745Y019794D02*
X023456Y019794D01*
X023101Y020090D02*
X022917Y020090D01*
X023003Y019991D02*
X022818Y019991D01*
X022904Y019893D02*
X022720Y019893D01*
X022806Y019794D02*
X022621Y019794D01*
X022707Y019696D02*
X022523Y019696D01*
X022609Y019597D02*
X022424Y019597D01*
X022379Y019552D02*
X022379Y019552D01*
X022371Y019499D02*
X020108Y019499D01*
X020207Y019400D02*
X022279Y019400D01*
X023015Y020188D02*
X023190Y020188D01*
X023190Y020287D02*
X023114Y020287D01*
X024010Y020236D02*
X025111Y019134D01*
X025302Y019134D01*
X026503Y019134D01*
X026635Y019003D01*
X026493Y019003D01*
X026253Y018763D01*
X026253Y018509D01*
X025967Y018223D01*
X024010Y020179D01*
X024010Y020236D01*
X024010Y020188D02*
X024058Y020188D01*
X024099Y020090D02*
X024156Y020090D01*
X024198Y019991D02*
X024255Y019991D01*
X024296Y019893D02*
X024353Y019893D01*
X024395Y019794D02*
X024452Y019794D01*
X024494Y019696D02*
X024550Y019696D01*
X024592Y019597D02*
X024649Y019597D01*
X024691Y019499D02*
X024747Y019499D01*
X024789Y019400D02*
X024846Y019400D01*
X024888Y019301D02*
X024944Y019301D01*
X024986Y019203D02*
X025043Y019203D01*
X025085Y019104D02*
X026533Y019104D01*
X026632Y019006D02*
X025183Y019006D01*
X025282Y018907D02*
X026397Y018907D01*
X026298Y018809D02*
X025381Y018809D01*
X025479Y018710D02*
X026253Y018710D01*
X026253Y018612D02*
X025578Y018612D01*
X025676Y018513D02*
X026253Y018513D01*
X026159Y018415D02*
X025775Y018415D01*
X025873Y018316D02*
X026060Y018316D01*
X026503Y019594D02*
X025302Y019594D01*
X024336Y020561D01*
X024477Y020561D01*
X024717Y020801D01*
X024717Y021141D01*
X024519Y021339D01*
X024856Y021268D01*
X025679Y020960D01*
X026448Y020532D01*
X027144Y019995D01*
X027416Y019710D01*
X027200Y019710D01*
X026960Y019470D01*
X026960Y019328D01*
X026694Y019594D01*
X026503Y019594D01*
X026790Y019499D02*
X026988Y019499D01*
X026960Y019400D02*
X026888Y019400D01*
X027087Y019597D02*
X025299Y019597D01*
X025201Y019696D02*
X027185Y019696D01*
X027336Y019794D02*
X025102Y019794D01*
X025004Y019893D02*
X027242Y019893D01*
X027147Y019991D02*
X024905Y019991D01*
X024807Y020090D02*
X027021Y020090D01*
X026893Y020188D02*
X024708Y020188D01*
X024609Y020287D02*
X026766Y020287D01*
X026638Y020385D02*
X024511Y020385D01*
X024412Y020484D02*
X026510Y020484D01*
X026357Y020583D02*
X024499Y020583D01*
X024598Y020681D02*
X026180Y020681D01*
X026003Y020780D02*
X024696Y020780D01*
X024717Y020878D02*
X025826Y020878D01*
X025634Y020977D02*
X024717Y020977D01*
X024717Y021075D02*
X025371Y021075D01*
X025107Y021174D02*
X024684Y021174D01*
X024586Y021272D02*
X024835Y021272D01*
X024730Y018809D02*
X020798Y018809D01*
X020443Y018513D02*
X017101Y018513D01*
X017200Y018415D02*
X020542Y018415D01*
X020640Y018316D02*
X017298Y018316D01*
X017397Y018218D02*
X020739Y018218D01*
X020838Y018119D02*
X017495Y018119D01*
X017594Y018020D02*
X020936Y018020D01*
X017137Y021820D02*
X017068Y021820D01*
X016947Y021870D01*
X016855Y021962D01*
X016963Y021864D02*
X015782Y021864D01*
X016472Y022553D02*
X017577Y022553D01*
X017477Y022595D02*
X017302Y022770D01*
X017207Y022999D01*
X017207Y023246D01*
X017302Y023475D01*
X017477Y023650D01*
X017706Y023745D01*
X017953Y023745D01*
X018182Y023650D01*
X018357Y023475D01*
X018452Y023246D01*
X018452Y022999D01*
X018357Y022770D01*
X018182Y022595D01*
X017953Y022500D01*
X017706Y022500D01*
X017477Y022595D01*
X017420Y022652D02*
X016570Y022652D01*
X016667Y022751D02*
X017321Y022751D01*
X017269Y022849D02*
X016667Y022849D01*
X016667Y022948D02*
X017228Y022948D01*
X017207Y023046D02*
X016667Y023046D01*
X016667Y023145D02*
X017207Y023145D01*
X017207Y023243D02*
X016667Y023243D01*
X016667Y023342D02*
X017246Y023342D01*
X017287Y023440D02*
X016667Y023440D01*
X016667Y023539D02*
X017365Y023539D01*
X017464Y023637D02*
X016667Y023637D01*
X016667Y023669D02*
X016667Y023669D01*
X016600Y023736D02*
X017684Y023736D01*
X017975Y023736D02*
X019509Y023736D01*
X019571Y023834D02*
X016508Y023834D01*
X016508Y023933D02*
X019571Y023933D01*
X019507Y024032D02*
X016493Y024032D01*
X016452Y024130D02*
X019409Y024130D01*
X019310Y024229D02*
X016371Y024229D01*
X016470Y024327D02*
X019212Y024327D01*
X019113Y024426D02*
X016568Y024426D01*
X016667Y024524D02*
X019014Y024524D01*
X018916Y024623D02*
X016765Y024623D01*
X016818Y024721D02*
X018817Y024721D01*
X018719Y024820D02*
X016818Y024820D01*
X016818Y024918D02*
X018620Y024918D01*
X018522Y025017D02*
X016818Y025017D01*
X016818Y025116D02*
X018423Y025116D01*
X018325Y025214D02*
X016904Y025214D01*
X016998Y025313D02*
X018226Y025313D01*
X018128Y025411D02*
X016998Y025411D01*
X016998Y025510D02*
X018029Y025510D01*
X017931Y025608D02*
X016998Y025608D01*
X016939Y025707D02*
X017832Y025707D01*
X017733Y025805D02*
X016840Y025805D01*
X016580Y026002D02*
X017536Y026002D01*
X017635Y025904D02*
X016482Y025904D01*
X016679Y026101D02*
X017438Y026101D01*
X017339Y026200D02*
X016777Y026200D01*
X016876Y026298D02*
X017241Y026298D01*
X017142Y026397D02*
X016974Y026397D01*
X017399Y026791D02*
X017832Y026791D01*
X017901Y026889D02*
X017300Y026889D01*
X017288Y026901D02*
X017288Y026901D01*
X017201Y026988D02*
X017901Y026988D01*
X017901Y027086D02*
X017103Y027086D01*
X017004Y027185D02*
X017971Y027185D01*
X018070Y027284D02*
X016906Y027284D01*
X016807Y027382D02*
X018708Y027382D01*
X018610Y027481D02*
X016709Y027481D01*
X016610Y027579D02*
X018608Y027579D01*
X018608Y027678D02*
X016512Y027678D01*
X016413Y027776D02*
X018608Y027776D01*
X018661Y027875D02*
X016315Y027875D01*
X016216Y027973D02*
X018760Y027973D01*
X018885Y028170D02*
X016019Y028170D01*
X016117Y028072D02*
X019024Y028072D01*
X018745Y028269D02*
X015920Y028269D01*
X015822Y028367D02*
X018605Y028367D01*
X018466Y028466D02*
X015699Y028466D01*
X015601Y028565D02*
X015856Y028565D01*
X016335Y028565D02*
X018312Y028565D01*
X018116Y028663D02*
X016433Y028663D01*
X016505Y028762D02*
X017919Y028762D01*
X017723Y028860D02*
X016505Y028860D01*
X016505Y028959D02*
X017501Y028959D01*
X017198Y029057D02*
X016505Y029057D01*
X016424Y029156D02*
X016896Y029156D01*
X016457Y029254D02*
X016325Y029254D01*
X016255Y027284D02*
X015362Y027284D01*
X015424Y027185D02*
X016354Y027185D01*
X016452Y027086D02*
X015559Y027086D01*
X015584Y027062D02*
X015485Y027161D01*
X015216Y026892D01*
X015485Y026623D01*
X015584Y026722D01*
X015584Y027062D01*
X015584Y026988D02*
X016219Y026988D01*
X016143Y026889D02*
X015584Y026889D01*
X015584Y026791D02*
X016109Y026791D01*
X016063Y026692D02*
X015554Y026692D01*
X015416Y026692D02*
X015331Y026692D01*
X015317Y026791D02*
X015232Y026791D01*
X015219Y026889D02*
X015214Y026889D01*
X015134Y026889D02*
X015128Y026889D01*
X015115Y026791D02*
X015030Y026791D01*
X015016Y026692D02*
X014931Y026692D01*
X014918Y026594D02*
X013997Y026594D01*
X013899Y026692D02*
X014794Y026692D01*
X014991Y026495D02*
X014096Y026495D01*
X014194Y026397D02*
X015767Y026397D01*
X015866Y026495D02*
X015356Y026495D01*
X015429Y026594D02*
X015964Y026594D01*
X015669Y026298D02*
X014293Y026298D01*
X014352Y026200D02*
X015570Y026200D01*
X015472Y026101D02*
X014387Y026101D01*
X014387Y026002D02*
X015373Y026002D01*
X015274Y025904D02*
X014366Y025904D01*
X014325Y025805D02*
X015176Y025805D01*
X015077Y025707D02*
X014229Y025707D01*
X013000Y025017D02*
X012745Y025017D01*
X012647Y025116D02*
X012902Y025116D01*
X012803Y025214D02*
X012548Y025214D01*
X012450Y025313D02*
X012704Y025313D01*
X012606Y025411D02*
X012097Y025411D01*
X011998Y025510D02*
X012535Y025510D01*
X012494Y025608D02*
X011900Y025608D01*
X011801Y025707D02*
X012492Y025707D01*
X012466Y025805D02*
X011703Y025805D01*
X011633Y025904D02*
X012368Y025904D01*
X012269Y026002D02*
X011633Y026002D01*
X011633Y026101D02*
X012235Y026101D01*
X012235Y026200D02*
X011585Y026200D01*
X011487Y026298D02*
X012235Y026298D01*
X012235Y026397D02*
X010850Y026397D01*
X010948Y026495D02*
X012235Y026495D01*
X012235Y026594D02*
X011047Y026594D01*
X011146Y026692D02*
X012235Y026692D01*
X012235Y026791D02*
X011244Y026791D01*
X011343Y026889D02*
X012235Y026889D01*
X012235Y026988D02*
X011441Y026988D01*
X011540Y027086D02*
X012235Y027086D01*
X012202Y027185D02*
X011638Y027185D01*
X011737Y027284D02*
X012103Y027284D01*
X010960Y026298D02*
X010751Y026298D01*
X010746Y026200D02*
X010861Y026200D01*
X010813Y026101D02*
X010746Y026101D01*
X010746Y026002D02*
X010813Y026002D01*
X010813Y025904D02*
X010746Y025904D01*
X010746Y025805D02*
X010820Y025805D01*
X010746Y025707D02*
X010918Y025707D01*
X011017Y025608D02*
X010762Y025608D01*
X010861Y025510D02*
X011348Y025510D01*
X011446Y025411D02*
X010926Y025411D01*
X010926Y025313D02*
X011545Y025313D01*
X011643Y025214D02*
X010926Y025214D01*
X010926Y025116D02*
X011742Y025116D01*
X011785Y025017D02*
X010838Y025017D01*
X010740Y024918D02*
X011785Y024918D01*
X011821Y024820D02*
X010607Y024820D01*
X011300Y024426D02*
X011385Y024426D01*
X011399Y024327D02*
X011484Y024327D01*
X011497Y024229D02*
X011582Y024229D01*
X011550Y023933D02*
X011465Y023933D01*
X012120Y024229D02*
X012436Y024229D01*
X015035Y026988D02*
X015120Y026988D01*
X015227Y026988D02*
X015312Y026988D01*
X015326Y027086D02*
X015411Y027086D01*
X015022Y027086D02*
X014937Y027086D01*
X017497Y026692D02*
X017733Y026692D01*
X017635Y026594D02*
X017596Y026594D01*
X017989Y026298D02*
X019548Y026298D01*
X019548Y026200D02*
X017990Y026200D01*
X018088Y026101D02*
X019548Y026101D01*
X019548Y026002D02*
X018187Y026002D01*
X018285Y025904D02*
X019548Y025904D01*
X019548Y025805D02*
X018384Y025805D01*
X018482Y025707D02*
X019548Y025707D01*
X019548Y025608D02*
X018581Y025608D01*
X018680Y025510D02*
X019548Y025510D01*
X019548Y025411D02*
X018778Y025411D01*
X018877Y025313D02*
X019548Y025313D01*
X019548Y025214D02*
X018975Y025214D01*
X019074Y025116D02*
X019548Y025116D01*
X019548Y025017D02*
X019172Y025017D01*
X019271Y024918D02*
X019548Y024918D01*
X019548Y024820D02*
X019369Y024820D01*
X019468Y024721D02*
X019548Y024721D01*
X019566Y024623D02*
X019623Y024623D01*
X019665Y024524D02*
X019722Y024524D01*
X019764Y024426D02*
X019820Y024426D01*
X019862Y024327D02*
X019919Y024327D01*
X020274Y024623D02*
X020279Y024623D01*
X020279Y024618D02*
X020008Y024888D01*
X020008Y026987D01*
X019873Y027122D01*
X019428Y027567D01*
X019428Y027699D01*
X019713Y027426D01*
X020250Y026730D01*
X020678Y025961D01*
X020986Y025138D01*
X021057Y024801D01*
X020858Y025000D01*
X020519Y025000D01*
X020279Y024760D01*
X020279Y024618D01*
X020279Y024721D02*
X020175Y024721D01*
X020076Y024820D02*
X020339Y024820D01*
X020437Y024918D02*
X020008Y024918D01*
X020008Y025017D02*
X021011Y025017D01*
X020991Y025116D02*
X020008Y025116D01*
X020008Y025214D02*
X020957Y025214D01*
X020920Y025313D02*
X020008Y025313D01*
X020008Y025411D02*
X020884Y025411D01*
X020847Y025510D02*
X020008Y025510D01*
X020008Y025608D02*
X020810Y025608D01*
X020773Y025707D02*
X020008Y025707D01*
X020008Y025805D02*
X020736Y025805D01*
X020699Y025904D02*
X020008Y025904D01*
X020008Y026002D02*
X020655Y026002D01*
X020600Y026101D02*
X020008Y026101D01*
X020008Y026200D02*
X020545Y026200D01*
X020490Y026298D02*
X020008Y026298D01*
X020008Y026397D02*
X020436Y026397D01*
X020381Y026495D02*
X020008Y026495D01*
X020008Y026594D02*
X020326Y026594D01*
X020271Y026692D02*
X020008Y026692D01*
X020008Y026791D02*
X020203Y026791D01*
X020127Y026889D02*
X020008Y026889D01*
X020008Y026988D02*
X020051Y026988D01*
X019975Y027086D02*
X019909Y027086D01*
X019899Y027185D02*
X019810Y027185D01*
X019823Y027284D02*
X019712Y027284D01*
X019747Y027382D02*
X019613Y027382D01*
X019656Y027481D02*
X019515Y027481D01*
X019553Y027579D02*
X019428Y027579D01*
X019428Y027678D02*
X019450Y027678D01*
X019160Y027185D02*
X018651Y027185D01*
X018721Y027086D02*
X019259Y027086D01*
X019357Y026988D02*
X018721Y026988D01*
X018721Y026889D02*
X019456Y026889D01*
X019548Y026791D02*
X018721Y026791D01*
X018638Y026692D02*
X019548Y026692D01*
X019548Y026594D02*
X018540Y026594D01*
X018186Y026495D02*
X019548Y026495D01*
X019548Y026397D02*
X018088Y026397D01*
X018552Y027284D02*
X018807Y027284D01*
X020940Y024918D02*
X021032Y024918D01*
X021038Y024820D02*
X021053Y024820D01*
X019411Y023637D02*
X018195Y023637D01*
X018293Y023539D02*
X019312Y023539D01*
X019214Y023440D02*
X018372Y023440D01*
X018412Y023342D02*
X019115Y023342D01*
X019017Y023243D02*
X018452Y023243D01*
X018452Y023145D02*
X018918Y023145D01*
X018820Y023046D02*
X018452Y023046D01*
X018431Y022948D02*
X018721Y022948D01*
X018623Y022849D02*
X018390Y022849D01*
X018338Y022751D02*
X018524Y022751D01*
X018425Y022652D02*
X018239Y022652D01*
X018327Y022553D02*
X018082Y022553D01*
X027398Y018890D02*
X027540Y018890D01*
X027780Y019131D01*
X027780Y019321D01*
X028259Y018641D01*
X028653Y017855D01*
X028925Y017019D01*
X028999Y016581D01*
X028792Y016787D01*
X028453Y016787D01*
X028213Y016547D01*
X028213Y016405D01*
X027525Y017093D01*
X027525Y018764D01*
X027398Y018890D01*
X027480Y018809D02*
X028141Y018809D01*
X028071Y018907D02*
X027557Y018907D01*
X027655Y019006D02*
X028002Y019006D01*
X027932Y019104D02*
X027754Y019104D01*
X027780Y019203D02*
X027863Y019203D01*
X027793Y019301D02*
X027780Y019301D01*
X027525Y018764D02*
X027525Y018764D01*
X027525Y018710D02*
X028210Y018710D01*
X028274Y018612D02*
X027525Y018612D01*
X027525Y018513D02*
X028323Y018513D01*
X028372Y018415D02*
X027525Y018415D01*
X027525Y018316D02*
X028422Y018316D01*
X028471Y018218D02*
X027525Y018218D01*
X027525Y018119D02*
X028521Y018119D01*
X028570Y018020D02*
X027525Y018020D01*
X027525Y017922D02*
X028619Y017922D01*
X028663Y017823D02*
X027525Y017823D01*
X027525Y017725D02*
X028695Y017725D01*
X028728Y017626D02*
X027525Y017626D01*
X027525Y017528D02*
X028760Y017528D01*
X028792Y017429D02*
X027525Y017429D01*
X027525Y017331D02*
X028824Y017331D01*
X028856Y017232D02*
X027525Y017232D01*
X027525Y017134D02*
X028888Y017134D01*
X028920Y017035D02*
X027583Y017035D01*
X027682Y016936D02*
X028939Y016936D01*
X028956Y016838D02*
X027780Y016838D01*
X027879Y016739D02*
X028405Y016739D01*
X028306Y016641D02*
X027977Y016641D01*
X028076Y016542D02*
X028213Y016542D01*
X028213Y016444D02*
X028174Y016444D01*
X028840Y016739D02*
X028972Y016739D01*
X028989Y016641D02*
X028939Y016641D01*
X015775Y012206D02*
X014316Y012206D01*
X014218Y012305D02*
X015071Y012305D01*
X014987Y012403D02*
X014119Y012403D01*
X014021Y012502D02*
X014989Y012502D01*
X014513Y012009D02*
X015578Y012009D01*
X015676Y012108D02*
X014415Y012108D01*
X014612Y011911D02*
X015479Y011911D01*
X015381Y011812D02*
X014711Y011812D01*
X014809Y011714D02*
X015282Y011714D01*
X014048Y010433D02*
X013792Y010433D01*
X013849Y010531D02*
X013949Y010531D01*
X013851Y010630D02*
X013849Y010630D01*
X013736Y011418D02*
X013713Y011418D01*
X013736Y011517D02*
X013614Y011517D01*
D18*
X012123Y011848D03*
X011566Y012405D03*
X019778Y012266D03*
X020196Y011848D03*
X021309Y011570D03*
X022144Y012405D03*
X026599Y012961D03*
X027573Y017555D03*
X028408Y017555D03*
X025903Y018947D03*
X026181Y019782D03*
X025207Y020756D03*
X022562Y019225D03*
X021727Y020339D03*
X017134Y022148D03*
X020196Y026324D03*
X016438Y026742D03*
D19*
X013514Y023819D01*
X013514Y023668D01*
X014500Y022683D01*
X013826Y022009D02*
X013097Y022009D01*
X011084Y019996D01*
X011844Y019921D02*
X013236Y021313D01*
X014350Y021313D01*
X015602Y022566D01*
X015602Y022995D01*
X015207Y023390D01*
X014767Y023830D01*
X014767Y024515D01*
X017058Y026806D01*
X017615Y026249D01*
X018311Y026945D01*
X017615Y026249D02*
X019981Y023883D01*
X018525Y022427D01*
X018525Y021313D01*
X019917Y019921D01*
X020346Y019921D01*
X020689Y020264D01*
X021170Y019782D01*
X022284Y019782D01*
X023258Y020756D01*
X023815Y020756D01*
X025207Y019364D01*
X026599Y019364D01*
X027295Y018668D01*
X027295Y016998D01*
X028408Y015885D01*
X028408Y015049D01*
X027927Y014568D01*
X027927Y013454D01*
X028408Y013379D02*
X028408Y013101D01*
X026181Y010874D01*
X025624Y010874D01*
X024928Y011570D01*
X024093Y011570D01*
X023258Y010734D01*
X022701Y010734D01*
X022284Y011152D01*
X019929Y011152D01*
X019714Y011366D01*
X019093Y011987D01*
X015881Y011987D01*
X015324Y011430D01*
X014767Y011430D01*
X011769Y014429D01*
X011084Y014429D01*
X011148Y014493D01*
X011148Y016441D01*
X010377Y017212D01*
X010377Y019289D01*
X010377Y022351D01*
X010377Y025135D01*
X010516Y025275D01*
X010516Y026388D01*
X011705Y027577D01*
X012390Y027577D01*
X012465Y027502D01*
X012465Y026132D01*
X013086Y025511D01*
X012379Y024804D02*
X011223Y025959D01*
X011223Y025982D01*
X013172Y028209D02*
X015377Y028209D01*
X015388Y028198D01*
X015666Y028198D01*
X017058Y026806D01*
X016588Y025478D02*
X016588Y024771D01*
X015914Y024097D01*
X016438Y023574D01*
X016438Y022844D01*
X014024Y020431D01*
X014024Y020246D01*
X013793Y021976D02*
X013826Y022009D01*
X012262Y022566D02*
X013514Y023819D01*
X012262Y022566D02*
X011577Y022566D01*
X011084Y023059D01*
X011844Y019921D02*
X011844Y017972D01*
X011084Y017212D01*
X011084Y011366D02*
X013439Y011366D01*
X014210Y010595D01*
X016159Y010595D01*
X016223Y010659D01*
X019007Y010659D01*
X022069Y010659D01*
X022273Y010456D01*
X024650Y010456D01*
X024992Y010798D01*
X025699Y011506D02*
X026941Y012747D01*
X027219Y012747D01*
X027220Y012897D01*
X026599Y013518D01*
X026599Y014353D01*
X027915Y015670D01*
X025967Y017619D01*
X025967Y017897D01*
X026663Y018593D01*
X025967Y017897D02*
X023600Y020264D01*
X022562Y019225D01*
X021727Y020339D02*
X021449Y020339D01*
X019917Y021870D01*
X019917Y022148D01*
X020613Y022844D01*
X020613Y023958D01*
X019778Y024793D01*
X019778Y026892D01*
X019018Y027652D01*
X017134Y022148D02*
X023881Y015400D01*
X024508Y016027D01*
X023881Y015400D02*
X022698Y014217D01*
X022144Y012405D02*
X021309Y011570D01*
X028408Y013379D02*
X028547Y013518D01*
X028547Y014353D01*
X028826Y014632D01*
X028826Y016024D01*
X028623Y016227D01*
X028623Y016377D01*
X024308Y020971D02*
X024104Y021174D01*
X022562Y021174D01*
X021727Y020339D01*
M02*
