G75*
G70*
%OFA0B0*%
%FSLAX24Y24*%
%IPPOS*%
%LPD*%
%AMOC8*
5,1,8,0,0,1.08239X$1,22.5*
%
%ADD10C,0.0000*%
%ADD11R,0.0128X0.0167*%
%ADD12R,0.0138X0.0138*%
%ADD13C,0.0100*%
%ADD14C,0.0080*%
%ADD15C,0.0060*%
D10*
X010038Y009756D02*
X025786Y009756D01*
X026053Y009873D01*
X026314Y010003D01*
X026569Y010146D01*
X026816Y010300D01*
X027055Y010467D01*
X027287Y010645D01*
X027509Y010833D01*
X027722Y011033D01*
X027925Y011242D01*
X028117Y011461D01*
X028299Y011689D01*
X028470Y011925D01*
X028629Y012170D01*
X028776Y012422D01*
X028911Y012680D01*
X029033Y012945D01*
X029142Y013216D01*
X029238Y013491D01*
X029320Y013771D01*
X029389Y014054D01*
X029444Y014340D01*
X029485Y014629D01*
X029513Y014919D01*
X029526Y015211D01*
X029525Y015502D01*
X029510Y015794D01*
X029481Y016084D01*
X029438Y016372D01*
X029381Y016658D01*
X029310Y016941D01*
X029226Y017220D01*
X029128Y017495D01*
X029017Y017765D01*
X028893Y018029D01*
X028757Y018286D01*
X028608Y018537D01*
X028448Y018781D01*
X028276Y019016D01*
X028092Y019243D01*
X027898Y019461D01*
X027694Y019669D01*
X027480Y019866D01*
X027256Y020054D01*
X027024Y020230D01*
X026783Y020395D01*
X026535Y020548D01*
X026280Y020689D01*
X026018Y020817D01*
X025750Y020933D01*
X025477Y021035D01*
X025200Y021125D01*
X024918Y021200D01*
X024633Y021262D01*
X024345Y021310D01*
X024056Y021345D01*
X023765Y021365D01*
X023473Y021371D01*
X023182Y021363D01*
X022891Y021341D01*
X022602Y021305D01*
X022315Y021255D01*
X022030Y021191D01*
X021749Y021113D01*
X021472Y021022D01*
X021200Y020918D01*
X017640Y022840D02*
X017642Y022883D01*
X017648Y022925D01*
X017658Y022967D01*
X017671Y023008D01*
X017688Y023048D01*
X017709Y023085D01*
X017733Y023121D01*
X017760Y023154D01*
X017790Y023185D01*
X017823Y023213D01*
X017858Y023238D01*
X017895Y023259D01*
X017934Y023277D01*
X017974Y023291D01*
X018016Y023302D01*
X018058Y023309D01*
X018101Y023312D01*
X018144Y023311D01*
X018187Y023306D01*
X018229Y023297D01*
X018270Y023285D01*
X018310Y023269D01*
X018348Y023249D01*
X018384Y023226D01*
X018418Y023199D01*
X018450Y023170D01*
X018478Y023138D01*
X018504Y023103D01*
X018526Y023067D01*
X018545Y023028D01*
X018560Y022988D01*
X018572Y022947D01*
X018580Y022904D01*
X018584Y022861D01*
X018584Y022819D01*
X018580Y022776D01*
X018572Y022733D01*
X018560Y022692D01*
X018545Y022652D01*
X018526Y022613D01*
X018504Y022577D01*
X018478Y022542D01*
X018450Y022510D01*
X018418Y022481D01*
X018384Y022454D01*
X018348Y022431D01*
X018310Y022411D01*
X018270Y022395D01*
X018229Y022383D01*
X018187Y022374D01*
X018144Y022369D01*
X018101Y022368D01*
X018058Y022371D01*
X018016Y022378D01*
X017974Y022389D01*
X017934Y022403D01*
X017895Y022421D01*
X017858Y022442D01*
X017823Y022467D01*
X017790Y022495D01*
X017760Y022526D01*
X017733Y022559D01*
X017709Y022595D01*
X017688Y022632D01*
X017671Y022672D01*
X017658Y022713D01*
X017648Y022755D01*
X017642Y022797D01*
X017640Y022840D01*
X021200Y020917D02*
X021304Y021190D01*
X021395Y021467D01*
X021473Y021748D01*
X021537Y022032D01*
X021587Y022320D01*
X021623Y022609D01*
X021645Y022900D01*
X021653Y023191D01*
X021647Y023483D01*
X021627Y023774D01*
X021592Y024063D01*
X021544Y024351D01*
X021482Y024636D01*
X021407Y024918D01*
X021317Y025195D01*
X021215Y025468D01*
X021099Y025736D01*
X020971Y025998D01*
X020830Y026253D01*
X020677Y026501D01*
X020512Y026742D01*
X020336Y026974D01*
X020148Y027198D01*
X019951Y027412D01*
X019743Y027616D01*
X019525Y027810D01*
X019298Y027994D01*
X019063Y028166D01*
X018819Y028326D01*
X018568Y028475D01*
X018311Y028611D01*
X018047Y028735D01*
X017777Y028846D01*
X017502Y028944D01*
X017223Y029028D01*
X016940Y029099D01*
X016654Y029156D01*
X016366Y029199D01*
X016076Y029228D01*
X015784Y029243D01*
X015493Y029244D01*
X015201Y029231D01*
X014911Y029203D01*
X014622Y029162D01*
X014336Y029107D01*
X014053Y029038D01*
X013773Y028956D01*
X013498Y028860D01*
X013227Y028751D01*
X012962Y028629D01*
X012704Y028494D01*
X012452Y028347D01*
X012207Y028188D01*
X011971Y028017D01*
X011743Y027835D01*
X011524Y027643D01*
X011315Y027440D01*
X011115Y027227D01*
X010927Y027005D01*
X010749Y026773D01*
X010582Y026534D01*
X010428Y026287D01*
X010285Y026032D01*
X010155Y025771D01*
X010038Y025504D01*
X010038Y009756D01*
X022651Y017829D02*
X022653Y017872D01*
X022659Y017914D01*
X022669Y017956D01*
X022682Y017997D01*
X022699Y018037D01*
X022720Y018074D01*
X022744Y018110D01*
X022771Y018143D01*
X022801Y018174D01*
X022834Y018202D01*
X022869Y018227D01*
X022906Y018248D01*
X022945Y018266D01*
X022985Y018280D01*
X023027Y018291D01*
X023069Y018298D01*
X023112Y018301D01*
X023155Y018300D01*
X023198Y018295D01*
X023240Y018286D01*
X023281Y018274D01*
X023321Y018258D01*
X023359Y018238D01*
X023395Y018215D01*
X023429Y018188D01*
X023461Y018159D01*
X023489Y018127D01*
X023515Y018092D01*
X023537Y018056D01*
X023556Y018017D01*
X023571Y017977D01*
X023583Y017936D01*
X023591Y017893D01*
X023595Y017850D01*
X023595Y017808D01*
X023591Y017765D01*
X023583Y017722D01*
X023571Y017681D01*
X023556Y017641D01*
X023537Y017602D01*
X023515Y017566D01*
X023489Y017531D01*
X023461Y017499D01*
X023429Y017470D01*
X023395Y017443D01*
X023359Y017420D01*
X023321Y017400D01*
X023281Y017384D01*
X023240Y017372D01*
X023198Y017363D01*
X023155Y017358D01*
X023112Y017357D01*
X023069Y017360D01*
X023027Y017367D01*
X022985Y017378D01*
X022945Y017392D01*
X022906Y017410D01*
X022869Y017431D01*
X022834Y017456D01*
X022801Y017484D01*
X022771Y017515D01*
X022744Y017548D01*
X022720Y017584D01*
X022699Y017621D01*
X022682Y017661D01*
X022669Y017702D01*
X022659Y017744D01*
X022653Y017786D01*
X022651Y017829D01*
D11*
G36*
X023785Y020035D02*
X023875Y020125D01*
X023991Y020009D01*
X023901Y019919D01*
X023785Y020035D01*
G37*
G36*
X024168Y020418D02*
X024258Y020508D01*
X024374Y020392D01*
X024284Y020302D01*
X024168Y020418D01*
G37*
G36*
X026848Y018643D02*
X026938Y018733D01*
X027054Y018617D01*
X026964Y018527D01*
X026848Y018643D01*
G37*
G36*
X027230Y019026D02*
X027320Y019116D01*
X027436Y019000D01*
X027346Y018910D01*
X027230Y019026D01*
G37*
G36*
X028205Y016102D02*
X028295Y016192D01*
X028411Y016076D01*
X028321Y015986D01*
X028205Y016102D01*
G37*
G36*
X027822Y015720D02*
X027912Y015810D01*
X028028Y015694D01*
X027938Y015604D01*
X027822Y015720D01*
G37*
G36*
X027509Y013458D02*
X027599Y013548D01*
X027715Y013432D01*
X027625Y013342D01*
X027509Y013458D01*
G37*
G36*
X027126Y013075D02*
X027216Y013165D01*
X027332Y013049D01*
X027242Y012959D01*
X027126Y013075D01*
G37*
G36*
X025421Y011370D02*
X025511Y011460D01*
X025627Y011344D01*
X025537Y011254D01*
X025421Y011370D01*
G37*
G36*
X025038Y010987D02*
X025128Y011077D01*
X025244Y010961D01*
X025154Y010871D01*
X025038Y010987D01*
G37*
G36*
X022498Y011231D02*
X022588Y011321D01*
X022704Y011205D01*
X022614Y011115D01*
X022498Y011231D01*
G37*
G36*
X022115Y010848D02*
X022205Y010938D01*
X022321Y010822D01*
X022231Y010732D01*
X022115Y010848D01*
G37*
G36*
X019435Y011231D02*
X019525Y011321D01*
X019641Y011205D01*
X019551Y011115D01*
X019435Y011231D01*
G37*
G36*
X019053Y010848D02*
X019143Y010938D01*
X019259Y010822D01*
X019169Y010732D01*
X019053Y010848D01*
G37*
G36*
X016652Y011231D02*
X016742Y011321D01*
X016858Y011205D01*
X016768Y011115D01*
X016652Y011231D01*
G37*
G36*
X016269Y010848D02*
X016359Y010938D01*
X016475Y010822D01*
X016385Y010732D01*
X016269Y010848D01*
G37*
G36*
X013868Y011231D02*
X013958Y011321D01*
X014074Y011205D01*
X013984Y011115D01*
X013868Y011231D01*
G37*
G36*
X013485Y010848D02*
X013575Y010938D01*
X013691Y010822D01*
X013601Y010732D01*
X013485Y010848D01*
G37*
G36*
X011084Y011231D02*
X011174Y011321D01*
X011290Y011205D01*
X011200Y011115D01*
X011084Y011231D01*
G37*
G36*
X010701Y010848D02*
X010791Y010938D01*
X010907Y010822D01*
X010817Y010732D01*
X010701Y010848D01*
G37*
G36*
X010701Y013632D02*
X010791Y013722D01*
X010907Y013606D01*
X010817Y013516D01*
X010701Y013632D01*
G37*
G36*
X011084Y014015D02*
X011174Y014105D01*
X011290Y013989D01*
X011200Y013899D01*
X011084Y014015D01*
G37*
G36*
X010701Y016416D02*
X010791Y016506D01*
X010907Y016390D01*
X010817Y016300D01*
X010701Y016416D01*
G37*
G36*
X011084Y016798D02*
X011174Y016888D01*
X011290Y016772D01*
X011200Y016682D01*
X011084Y016798D01*
G37*
G36*
X010701Y019200D02*
X010791Y019290D01*
X010907Y019174D01*
X010817Y019084D01*
X010701Y019200D01*
G37*
G36*
X011084Y019582D02*
X011174Y019672D01*
X011290Y019556D01*
X011200Y019466D01*
X011084Y019582D01*
G37*
G36*
X010701Y022262D02*
X010791Y022352D01*
X010907Y022236D01*
X010817Y022146D01*
X010701Y022262D01*
G37*
G36*
X011084Y022645D02*
X011174Y022735D01*
X011290Y022619D01*
X011200Y022529D01*
X011084Y022645D01*
G37*
G36*
X010840Y025185D02*
X010930Y025275D01*
X011046Y025159D01*
X010956Y025069D01*
X010840Y025185D01*
G37*
G36*
X011223Y025568D02*
X011313Y025658D01*
X011429Y025542D01*
X011339Y025452D01*
X011223Y025568D01*
G37*
G36*
X012928Y027273D02*
X013018Y027363D01*
X013134Y027247D01*
X013044Y027157D01*
X012928Y027273D01*
G37*
G36*
X013311Y027656D02*
X013401Y027746D01*
X013517Y027630D01*
X013427Y027540D01*
X013311Y027656D01*
G37*
G36*
X015573Y027969D02*
X015663Y028059D01*
X015779Y027943D01*
X015689Y027853D01*
X015573Y027969D01*
G37*
G36*
X015956Y028352D02*
X016046Y028442D01*
X016162Y028326D01*
X016072Y028236D01*
X015956Y028352D01*
G37*
G36*
X018496Y026994D02*
X018586Y027084D01*
X018702Y026968D01*
X018612Y026878D01*
X018496Y026994D01*
G37*
G36*
X018879Y027377D02*
X018969Y027467D01*
X019085Y027351D01*
X018995Y027261D01*
X018879Y027377D01*
G37*
G36*
X020271Y024315D02*
X020361Y024405D01*
X020477Y024289D01*
X020387Y024199D01*
X020271Y024315D01*
G37*
G36*
X019888Y023932D02*
X019978Y024022D01*
X020094Y023906D01*
X020004Y023816D01*
X019888Y023932D01*
G37*
G36*
X020549Y020696D02*
X020639Y020786D01*
X020755Y020670D01*
X020665Y020580D01*
X020549Y020696D01*
G37*
G36*
X020166Y020313D02*
X020256Y020403D01*
X020372Y020287D01*
X020282Y020197D01*
X020166Y020313D01*
G37*
D12*
G36*
X020471Y020384D02*
X020568Y020481D01*
X020665Y020384D01*
X020568Y020287D01*
X020471Y020384D01*
G37*
G36*
X020193Y024003D02*
X020290Y024100D01*
X020387Y024003D01*
X020290Y023906D01*
X020193Y024003D01*
G37*
G36*
X018801Y027065D02*
X018898Y027162D01*
X018995Y027065D01*
X018898Y026968D01*
X018801Y027065D01*
G37*
G36*
X015878Y028039D02*
X015975Y028136D01*
X016072Y028039D01*
X015975Y027942D01*
X015878Y028039D01*
G37*
G36*
X013233Y027343D02*
X013330Y027440D01*
X013427Y027343D01*
X013330Y027246D01*
X013233Y027343D01*
G37*
G36*
X011145Y025255D02*
X011242Y025352D01*
X011339Y025255D01*
X011242Y025158D01*
X011145Y025255D01*
G37*
G36*
X011006Y022332D02*
X011103Y022429D01*
X011200Y022332D01*
X011103Y022235D01*
X011006Y022332D01*
G37*
G36*
X011006Y019270D02*
X011103Y019367D01*
X011200Y019270D01*
X011103Y019173D01*
X011006Y019270D01*
G37*
G36*
X011006Y016486D02*
X011103Y016583D01*
X011200Y016486D01*
X011103Y016389D01*
X011006Y016486D01*
G37*
G36*
X011006Y013702D02*
X011103Y013799D01*
X011200Y013702D01*
X011103Y013605D01*
X011006Y013702D01*
G37*
G36*
X011006Y010918D02*
X011103Y011015D01*
X011200Y010918D01*
X011103Y010821D01*
X011006Y010918D01*
G37*
G36*
X013790Y010918D02*
X013887Y011015D01*
X013984Y010918D01*
X013887Y010821D01*
X013790Y010918D01*
G37*
G36*
X016574Y010918D02*
X016671Y011015D01*
X016768Y010918D01*
X016671Y010821D01*
X016574Y010918D01*
G37*
G36*
X019358Y010918D02*
X019455Y011015D01*
X019552Y010918D01*
X019455Y010821D01*
X019358Y010918D01*
G37*
G36*
X022420Y010918D02*
X022517Y011015D01*
X022614Y010918D01*
X022517Y010821D01*
X022420Y010918D01*
G37*
G36*
X025343Y011058D02*
X025440Y011155D01*
X025537Y011058D01*
X025440Y010961D01*
X025343Y011058D01*
G37*
G36*
X027431Y013146D02*
X027528Y013243D01*
X027625Y013146D01*
X027528Y013049D01*
X027431Y013146D01*
G37*
G36*
X028127Y015790D02*
X028224Y015887D01*
X028321Y015790D01*
X028224Y015693D01*
X028127Y015790D01*
G37*
G36*
X027153Y018713D02*
X027250Y018810D01*
X027347Y018713D01*
X027250Y018616D01*
X027153Y018713D01*
G37*
G36*
X024091Y020105D02*
X024188Y020202D01*
X024285Y020105D01*
X024188Y020008D01*
X024091Y020105D01*
G37*
D13*
X016525Y022924D02*
X014855Y024594D01*
X013852Y023592D01*
X015523Y021922D01*
X016525Y022924D01*
X015731Y023077D02*
X015370Y022715D01*
X014646Y023439D01*
X015008Y023801D01*
X015731Y023077D01*
D14*
X024473Y014921D02*
X024475Y014936D01*
X024481Y014949D01*
X024490Y014961D01*
X024501Y014970D01*
X024515Y014976D01*
X024530Y014978D01*
X024545Y014976D01*
X024558Y014970D01*
X024570Y014961D01*
X024579Y014950D01*
X024585Y014936D01*
X024587Y014921D01*
X024585Y014906D01*
X024579Y014893D01*
X024570Y014881D01*
X024559Y014872D01*
X024545Y014866D01*
X024530Y014864D01*
X024515Y014866D01*
X024502Y014872D01*
X024490Y014881D01*
X024481Y014892D01*
X024475Y014906D01*
X024473Y014921D01*
D15*
X024912Y014850D02*
X023491Y016271D01*
X022176Y014956D02*
X023597Y013535D01*
M02*
