G75*
G70*
%OFA0B0*%
%FSLAX24Y24*%
%IPPOS*%
%LPD*%
%AMOC8*
5,1,8,0,0,1.08239X$1,22.5*
%
%ADD10C,0.0000*%
%ADD11R,0.0472X0.0472*%
%ADD12R,0.0433X0.0394*%
%ADD13R,0.0591X0.0591*%
%ADD14R,0.0197X0.0866*%
%ADD15C,0.0100*%
%ADD16C,0.0357*%
D10*
X009756Y010038D02*
X009756Y025786D01*
X009873Y026053D01*
X010003Y026314D01*
X010146Y026569D01*
X010300Y026816D01*
X010467Y027055D01*
X010645Y027287D01*
X010833Y027509D01*
X011033Y027722D01*
X011242Y027925D01*
X011461Y028117D01*
X011689Y028299D01*
X011925Y028470D01*
X012170Y028629D01*
X012422Y028776D01*
X012680Y028911D01*
X012945Y029033D01*
X013216Y029142D01*
X013491Y029238D01*
X013771Y029320D01*
X014054Y029389D01*
X014340Y029444D01*
X014629Y029485D01*
X014919Y029513D01*
X015211Y029526D01*
X015502Y029525D01*
X015794Y029510D01*
X016084Y029481D01*
X016372Y029438D01*
X016658Y029381D01*
X016941Y029310D01*
X017220Y029226D01*
X017495Y029128D01*
X017765Y029017D01*
X018029Y028893D01*
X018286Y028757D01*
X018537Y028608D01*
X018781Y028448D01*
X019016Y028276D01*
X019243Y028092D01*
X019461Y027898D01*
X019669Y027694D01*
X019866Y027480D01*
X020054Y027256D01*
X020230Y027024D01*
X020395Y026783D01*
X020548Y026535D01*
X020689Y026280D01*
X020817Y026018D01*
X020933Y025750D01*
X021035Y025477D01*
X021125Y025200D01*
X021200Y024918D01*
X021262Y024633D01*
X021310Y024345D01*
X021345Y024056D01*
X021365Y023765D01*
X021371Y023473D01*
X021363Y023182D01*
X021341Y022891D01*
X021305Y022602D01*
X021255Y022314D01*
X021191Y022030D01*
X021113Y021749D01*
X021022Y021472D01*
X020918Y021199D01*
X022368Y018112D02*
X022370Y018155D01*
X022376Y018197D01*
X022386Y018239D01*
X022399Y018280D01*
X022416Y018320D01*
X022437Y018357D01*
X022461Y018393D01*
X022488Y018426D01*
X022518Y018457D01*
X022551Y018485D01*
X022586Y018510D01*
X022623Y018531D01*
X022662Y018549D01*
X022702Y018563D01*
X022744Y018574D01*
X022786Y018581D01*
X022829Y018584D01*
X022872Y018583D01*
X022915Y018578D01*
X022957Y018569D01*
X022998Y018557D01*
X023038Y018541D01*
X023076Y018521D01*
X023112Y018498D01*
X023146Y018471D01*
X023178Y018442D01*
X023206Y018410D01*
X023232Y018375D01*
X023254Y018339D01*
X023273Y018300D01*
X023288Y018260D01*
X023300Y018219D01*
X023308Y018176D01*
X023312Y018133D01*
X023312Y018091D01*
X023308Y018048D01*
X023300Y018005D01*
X023288Y017964D01*
X023273Y017924D01*
X023254Y017885D01*
X023232Y017849D01*
X023206Y017814D01*
X023178Y017782D01*
X023146Y017753D01*
X023112Y017726D01*
X023076Y017703D01*
X023038Y017683D01*
X022998Y017667D01*
X022957Y017655D01*
X022915Y017646D01*
X022872Y017641D01*
X022829Y017640D01*
X022786Y017643D01*
X022744Y017650D01*
X022702Y017661D01*
X022662Y017675D01*
X022623Y017693D01*
X022586Y017714D01*
X022551Y017739D01*
X022518Y017767D01*
X022488Y017798D01*
X022461Y017831D01*
X022437Y017867D01*
X022416Y017904D01*
X022399Y017944D01*
X022386Y017985D01*
X022376Y018027D01*
X022370Y018069D01*
X022368Y018112D01*
X020918Y021200D02*
X021190Y021304D01*
X021467Y021395D01*
X021748Y021473D01*
X022033Y021537D01*
X022320Y021587D01*
X022609Y021623D01*
X022900Y021645D01*
X023191Y021653D01*
X023483Y021647D01*
X023774Y021627D01*
X024063Y021592D01*
X024351Y021544D01*
X024636Y021482D01*
X024918Y021407D01*
X025195Y021317D01*
X025468Y021215D01*
X025736Y021099D01*
X025998Y020971D01*
X026253Y020830D01*
X026501Y020677D01*
X026742Y020512D01*
X026974Y020336D01*
X027198Y020148D01*
X027412Y019951D01*
X027616Y019743D01*
X027810Y019525D01*
X027994Y019298D01*
X028166Y019063D01*
X028326Y018819D01*
X028475Y018568D01*
X028611Y018311D01*
X028735Y018047D01*
X028846Y017777D01*
X028944Y017502D01*
X029028Y017223D01*
X029099Y016940D01*
X029156Y016654D01*
X029199Y016366D01*
X029228Y016076D01*
X029243Y015784D01*
X029244Y015493D01*
X029231Y015201D01*
X029203Y014911D01*
X029162Y014622D01*
X029107Y014336D01*
X029038Y014053D01*
X028956Y013773D01*
X028860Y013498D01*
X028751Y013227D01*
X028629Y012962D01*
X028494Y012704D01*
X028347Y012452D01*
X028188Y012207D01*
X028017Y011971D01*
X027835Y011743D01*
X027643Y011524D01*
X027440Y011315D01*
X027227Y011115D01*
X027005Y010927D01*
X026773Y010749D01*
X026534Y010582D01*
X026287Y010428D01*
X026032Y010285D01*
X025771Y010155D01*
X025504Y010038D01*
X009756Y010038D01*
X017357Y023123D02*
X017359Y023166D01*
X017365Y023208D01*
X017375Y023250D01*
X017388Y023291D01*
X017405Y023331D01*
X017426Y023368D01*
X017450Y023404D01*
X017477Y023437D01*
X017507Y023468D01*
X017540Y023496D01*
X017575Y023521D01*
X017612Y023542D01*
X017651Y023560D01*
X017691Y023574D01*
X017733Y023585D01*
X017775Y023592D01*
X017818Y023595D01*
X017861Y023594D01*
X017904Y023589D01*
X017946Y023580D01*
X017987Y023568D01*
X018027Y023552D01*
X018065Y023532D01*
X018101Y023509D01*
X018135Y023482D01*
X018167Y023453D01*
X018195Y023421D01*
X018221Y023386D01*
X018243Y023350D01*
X018262Y023311D01*
X018277Y023271D01*
X018289Y023230D01*
X018297Y023187D01*
X018301Y023144D01*
X018301Y023102D01*
X018297Y023059D01*
X018289Y023016D01*
X018277Y022975D01*
X018262Y022935D01*
X018243Y022896D01*
X018221Y022860D01*
X018195Y022825D01*
X018167Y022793D01*
X018135Y022764D01*
X018101Y022737D01*
X018065Y022714D01*
X018027Y022694D01*
X017987Y022678D01*
X017946Y022666D01*
X017904Y022657D01*
X017861Y022652D01*
X017818Y022651D01*
X017775Y022654D01*
X017733Y022661D01*
X017691Y022672D01*
X017651Y022686D01*
X017612Y022704D01*
X017575Y022725D01*
X017540Y022750D01*
X017507Y022778D01*
X017477Y022809D01*
X017450Y022842D01*
X017426Y022878D01*
X017405Y022915D01*
X017388Y022955D01*
X017375Y022996D01*
X017365Y023038D01*
X017359Y023080D01*
X017357Y023123D01*
D11*
G36*
X019710Y024529D02*
X020043Y024862D01*
X020376Y024529D01*
X020043Y024196D01*
X019710Y024529D01*
G37*
G36*
X020294Y023944D02*
X020627Y024277D01*
X020960Y023944D01*
X020627Y023611D01*
X020294Y023944D01*
G37*
G36*
X018624Y027006D02*
X018957Y027339D01*
X019290Y027006D01*
X018957Y026673D01*
X018624Y027006D01*
G37*
G36*
X018039Y027591D02*
X018372Y027924D01*
X018705Y027591D01*
X018372Y027258D01*
X018039Y027591D01*
G37*
G36*
X015701Y028259D02*
X016034Y028592D01*
X016367Y028259D01*
X016034Y027926D01*
X015701Y028259D01*
G37*
G36*
X015116Y028844D02*
X015449Y029177D01*
X015782Y028844D01*
X015449Y028511D01*
X015116Y028844D01*
G37*
G36*
X012778Y027563D02*
X013111Y027896D01*
X013444Y027563D01*
X013111Y027230D01*
X012778Y027563D01*
G37*
G36*
X012193Y028148D02*
X012526Y028481D01*
X012859Y028148D01*
X012526Y027815D01*
X012193Y028148D01*
G37*
G36*
X010244Y025920D02*
X010577Y026253D01*
X010910Y025920D01*
X010577Y025587D01*
X010244Y025920D01*
G37*
G36*
X010829Y025336D02*
X011162Y025669D01*
X011495Y025336D01*
X011162Y025003D01*
X010829Y025336D01*
G37*
G36*
X010105Y022997D02*
X010438Y023330D01*
X010771Y022997D01*
X010438Y022664D01*
X010105Y022997D01*
G37*
G36*
X010690Y022413D02*
X011023Y022746D01*
X011356Y022413D01*
X011023Y022080D01*
X010690Y022413D01*
G37*
G36*
X010105Y019935D02*
X010438Y020268D01*
X010771Y019935D01*
X010438Y019602D01*
X010105Y019935D01*
G37*
G36*
X010690Y019350D02*
X011023Y019683D01*
X011356Y019350D01*
X011023Y019017D01*
X010690Y019350D01*
G37*
G36*
X010105Y017151D02*
X010438Y017484D01*
X010771Y017151D01*
X010438Y016818D01*
X010105Y017151D01*
G37*
G36*
X010690Y016567D02*
X011023Y016900D01*
X011356Y016567D01*
X011023Y016234D01*
X010690Y016567D01*
G37*
G36*
X010105Y014367D02*
X010438Y014700D01*
X010771Y014367D01*
X010438Y014034D01*
X010105Y014367D01*
G37*
G36*
X010690Y013783D02*
X011023Y014116D01*
X011356Y013783D01*
X011023Y013450D01*
X010690Y013783D01*
G37*
G36*
X010105Y011305D02*
X010438Y011638D01*
X010771Y011305D01*
X010438Y010972D01*
X010105Y011305D01*
G37*
G36*
X010690Y010720D02*
X011023Y011053D01*
X011356Y010720D01*
X011023Y010387D01*
X010690Y010720D01*
G37*
G36*
X013168Y011305D02*
X013501Y011638D01*
X013834Y011305D01*
X013501Y010972D01*
X013168Y011305D01*
G37*
G36*
X013752Y010720D02*
X014085Y011053D01*
X014418Y010720D01*
X014085Y010387D01*
X013752Y010720D01*
G37*
G36*
X015951Y011305D02*
X016284Y011638D01*
X016617Y011305D01*
X016284Y010972D01*
X015951Y011305D01*
G37*
G36*
X016536Y010720D02*
X016869Y011053D01*
X017202Y010720D01*
X016869Y010387D01*
X016536Y010720D01*
G37*
G36*
X018735Y011305D02*
X019068Y011638D01*
X019401Y011305D01*
X019068Y010972D01*
X018735Y011305D01*
G37*
G36*
X019320Y010720D02*
X019653Y011053D01*
X019986Y010720D01*
X019653Y010387D01*
X019320Y010720D01*
G37*
G36*
X021798Y011305D02*
X022131Y011638D01*
X022464Y011305D01*
X022131Y010972D01*
X021798Y011305D01*
G37*
G36*
X022382Y010720D02*
X022715Y011053D01*
X023048Y010720D01*
X022715Y010387D01*
X022382Y010720D01*
G37*
G36*
X024721Y011444D02*
X025054Y011777D01*
X025387Y011444D01*
X025054Y011111D01*
X024721Y011444D01*
G37*
G36*
X025305Y010860D02*
X025638Y011193D01*
X025971Y010860D01*
X025638Y010527D01*
X025305Y010860D01*
G37*
G36*
X026948Y013393D02*
X027281Y013726D01*
X027614Y013393D01*
X027281Y013060D01*
X026948Y013393D01*
G37*
G36*
X027532Y012808D02*
X027865Y013141D01*
X028198Y012808D01*
X027865Y012475D01*
X027532Y012808D01*
G37*
G36*
X028228Y015731D02*
X028561Y016064D01*
X028894Y015731D01*
X028561Y015398D01*
X028228Y015731D01*
G37*
G36*
X027644Y016316D02*
X027977Y016649D01*
X028310Y016316D01*
X027977Y015983D01*
X027644Y016316D01*
G37*
G36*
X026976Y018655D02*
X027309Y018988D01*
X027642Y018655D01*
X027309Y018322D01*
X026976Y018655D01*
G37*
G36*
X026391Y019239D02*
X026724Y019572D01*
X027057Y019239D01*
X026724Y018906D01*
X026391Y019239D01*
G37*
G36*
X023913Y020325D02*
X024246Y020658D01*
X024579Y020325D01*
X024246Y019992D01*
X023913Y020325D01*
G37*
G36*
X023329Y020909D02*
X023662Y021242D01*
X023995Y020909D01*
X023662Y020576D01*
X023329Y020909D01*
G37*
G36*
X020960Y020325D02*
X020627Y019992D01*
X020294Y020325D01*
X020627Y020658D01*
X020960Y020325D01*
G37*
G36*
X020376Y020909D02*
X020043Y020576D01*
X019710Y020909D01*
X020043Y021242D01*
X020376Y020909D01*
G37*
D12*
G36*
X016383Y024848D02*
X016688Y024543D01*
X016409Y024264D01*
X016104Y024569D01*
X016383Y024848D01*
G37*
G36*
X015909Y025322D02*
X016214Y025017D01*
X015935Y024738D01*
X015630Y025043D01*
X015909Y025322D01*
G37*
D13*
G36*
X022172Y016691D02*
X022589Y016274D01*
X022172Y015857D01*
X021755Y016274D01*
X022172Y016691D01*
G37*
G36*
X024344Y014520D02*
X024761Y014103D01*
X024344Y013686D01*
X023927Y014103D01*
X024344Y014520D01*
G37*
D14*
G36*
X015586Y023075D02*
X015725Y023214D01*
X016336Y022603D01*
X016197Y022464D01*
X015586Y023075D01*
G37*
G36*
X015233Y022721D02*
X015372Y022860D01*
X015983Y022249D01*
X015844Y022110D01*
X015233Y022721D01*
G37*
G36*
X014879Y022368D02*
X015018Y022507D01*
X015629Y021896D01*
X015490Y021757D01*
X014879Y022368D01*
G37*
G36*
X015940Y023429D02*
X016079Y023568D01*
X016690Y022957D01*
X016551Y022818D01*
X015940Y023429D01*
G37*
G36*
X014184Y025185D02*
X014323Y025324D01*
X014934Y024713D01*
X014795Y024574D01*
X014184Y025185D01*
G37*
G36*
X013833Y024834D02*
X013972Y024973D01*
X014583Y024362D01*
X014444Y024223D01*
X013833Y024834D01*
G37*
G36*
X013479Y024480D02*
X013618Y024619D01*
X014229Y024008D01*
X014090Y023869D01*
X013479Y024480D01*
G37*
G36*
X013126Y024127D02*
X013265Y024266D01*
X013876Y023655D01*
X013737Y023516D01*
X013126Y024127D01*
G37*
D15*
X013163Y024229D02*
X013163Y024229D01*
X013088Y024303D02*
X013005Y024219D01*
X012985Y024185D01*
X012975Y024147D01*
X012975Y024108D01*
X012985Y024069D01*
X013005Y024035D01*
X013325Y023715D01*
X013500Y023891D01*
X013088Y024303D01*
X013089Y024303D02*
X013501Y023891D01*
X013676Y024066D01*
X013356Y024386D01*
X013322Y024406D01*
X013284Y024416D01*
X013244Y024416D01*
X013206Y024406D01*
X013172Y024386D01*
X013089Y024303D01*
X013113Y024327D02*
X011626Y024327D01*
X011626Y024229D02*
X013014Y024229D01*
X012975Y024130D02*
X011626Y024130D01*
X011626Y024032D02*
X013009Y024032D01*
X013107Y023933D02*
X011626Y023933D01*
X011626Y023834D02*
X013206Y023834D01*
X013304Y023736D02*
X011626Y023736D01*
X011626Y023637D02*
X013403Y023637D01*
X013325Y023715D02*
X013645Y023395D01*
X013679Y023375D01*
X013718Y023365D01*
X013757Y023365D01*
X013795Y023375D01*
X013829Y023395D01*
X013913Y023478D01*
X013501Y023890D01*
X013501Y023891D01*
X013501Y023891D01*
X013676Y024066D01*
X013997Y023746D01*
X014016Y023712D01*
X014027Y023674D01*
X014027Y023634D01*
X014016Y023596D01*
X013997Y023562D01*
X013913Y023479D01*
X013501Y023891D01*
X013500Y023891D01*
X013501Y023890D01*
X013325Y023715D01*
X013346Y023736D02*
X013346Y023736D01*
X013444Y023834D02*
X013445Y023834D01*
X013458Y023933D02*
X013459Y023933D01*
X013543Y023933D02*
X013543Y023933D01*
X013557Y023834D02*
X013557Y023834D01*
X013655Y023736D02*
X013656Y023736D01*
X013754Y023637D02*
X013754Y023637D01*
X013852Y023539D02*
X013853Y023539D01*
X013875Y023440D02*
X014245Y023440D01*
X014289Y023484D02*
X013153Y022348D01*
X013036Y022231D01*
X013036Y020742D01*
X012958Y020664D01*
X012908Y020543D01*
X012908Y020413D01*
X012958Y020292D01*
X013050Y020200D01*
X013171Y020150D01*
X013301Y020150D01*
X013422Y020200D01*
X013514Y020292D01*
X013564Y020413D01*
X013564Y020543D01*
X013514Y020664D01*
X013436Y020742D01*
X013436Y022065D01*
X014160Y022790D01*
X014160Y022779D01*
X014210Y022658D01*
X014303Y022566D01*
X014423Y022516D01*
X014554Y022516D01*
X014578Y022526D01*
X014728Y022375D01*
X014728Y022306D01*
X015429Y021606D01*
X015553Y021606D01*
X015780Y021833D01*
X015780Y021957D01*
X015080Y022658D01*
X015011Y022658D01*
X014817Y022852D01*
X014817Y022910D01*
X014800Y022950D01*
X014841Y022933D01*
X014877Y022933D01*
X015082Y022728D01*
X015082Y022660D01*
X015782Y021960D01*
X015906Y021960D01*
X016127Y022180D01*
X016159Y022101D01*
X016251Y022009D01*
X016372Y021959D01*
X016503Y021959D01*
X016624Y022009D01*
X016716Y022101D01*
X016766Y022222D01*
X016766Y022353D01*
X016716Y022474D01*
X016624Y022566D01*
X016503Y022616D01*
X016487Y022616D01*
X016487Y022664D01*
X015787Y023365D01*
X015718Y023365D01*
X015663Y023420D01*
X015663Y024839D01*
X015854Y025029D01*
X015922Y024961D01*
X015711Y024750D01*
X015844Y024617D01*
X015878Y024598D01*
X015917Y024587D01*
X015953Y024587D01*
X015953Y024508D01*
X016196Y024266D01*
X016196Y023902D01*
X016159Y023865D01*
X016109Y023745D01*
X016109Y023718D01*
X016016Y023718D01*
X015789Y023491D01*
X015789Y023367D01*
X016489Y022667D01*
X016613Y022667D01*
X016794Y022848D01*
X016794Y021369D01*
X016871Y021293D01*
X021716Y016448D01*
X021605Y016336D01*
X021605Y016212D01*
X022110Y015707D01*
X022234Y015707D01*
X022740Y016212D01*
X022740Y016336D01*
X022234Y016842D01*
X022110Y016842D01*
X021999Y016731D01*
X017194Y021535D01*
X017194Y023875D01*
X017773Y024454D01*
X017890Y024571D01*
X017890Y024737D01*
X017866Y024761D01*
X017773Y024854D01*
X016488Y026139D01*
X016488Y026250D01*
X016438Y026371D01*
X016345Y026463D01*
X016224Y026513D01*
X016214Y026513D01*
X016855Y027155D01*
X017218Y026792D01*
X017207Y026792D01*
X017087Y026742D01*
X016994Y026649D01*
X016944Y026529D01*
X016944Y026398D01*
X016994Y026277D01*
X017087Y026185D01*
X017207Y026135D01*
X017318Y026135D01*
X018743Y024710D01*
X018743Y020534D01*
X018860Y020417D01*
X020113Y019164D01*
X020279Y019164D01*
X021852Y019164D01*
X021931Y019086D01*
X022051Y019036D01*
X022182Y019036D01*
X022303Y019086D01*
X022395Y019178D01*
X022445Y019299D01*
X022445Y019410D01*
X023530Y020495D01*
X023600Y020425D01*
X023724Y020425D01*
X024146Y020847D01*
X024146Y020972D01*
X023865Y021252D01*
X023871Y021252D01*
X025967Y019156D01*
X026084Y019039D01*
X026378Y019039D01*
X026662Y018755D01*
X026786Y018755D01*
X027208Y019177D01*
X027208Y019301D01*
X026786Y019723D01*
X026662Y019723D01*
X026378Y019439D01*
X026250Y019439D01*
X024304Y021385D01*
X024856Y021268D01*
X025679Y020960D01*
X026448Y020532D01*
X027144Y019995D01*
X027752Y019360D01*
X028259Y018641D01*
X028653Y017855D01*
X028780Y017466D01*
X027723Y018523D01*
X027793Y018592D01*
X027793Y018717D01*
X027371Y019139D01*
X027246Y019139D01*
X026825Y018717D01*
X026825Y018592D01*
X026880Y018537D01*
X026794Y018451D01*
X026403Y018451D01*
X024661Y020193D01*
X024730Y020263D01*
X024730Y020387D01*
X024308Y020809D01*
X024184Y020809D01*
X023762Y020387D01*
X023762Y020263D01*
X024184Y019841D01*
X024308Y019841D01*
X024378Y019910D01*
X026206Y018083D01*
X026237Y018051D01*
X026794Y018051D01*
X026960Y018051D01*
X027163Y018254D01*
X027246Y018170D01*
X027371Y018170D01*
X027440Y018240D01*
X028626Y017054D01*
X028626Y016213D01*
X028623Y016215D01*
X028499Y016215D01*
X028077Y015794D01*
X028077Y015669D01*
X028147Y015600D01*
X028069Y015522D01*
X028069Y013323D01*
X027983Y013237D01*
X027927Y013292D01*
X027803Y013292D01*
X027381Y012870D01*
X027381Y012746D01*
X027451Y012677D01*
X026822Y012048D01*
X025568Y012048D01*
X025402Y012048D01*
X025199Y011845D01*
X025116Y011928D01*
X024991Y011928D01*
X024922Y011859D01*
X024839Y011941D01*
X024839Y012052D01*
X024789Y012173D01*
X024697Y012266D01*
X024576Y012316D01*
X024445Y012316D01*
X024325Y012266D01*
X024232Y012173D01*
X024182Y012052D01*
X024182Y011922D01*
X024232Y011801D01*
X024325Y011709D01*
X024445Y011659D01*
X024556Y011659D01*
X024639Y011576D01*
X024570Y011506D01*
X024570Y011382D01*
X024991Y010960D01*
X025116Y010960D01*
X025538Y011382D01*
X025538Y011506D01*
X025482Y011562D01*
X025568Y011648D01*
X026988Y011648D01*
X027105Y011765D01*
X027734Y012394D01*
X027803Y012324D01*
X027927Y012324D01*
X028334Y012731D01*
X027869Y012024D01*
X027281Y011370D01*
X026602Y010811D01*
X025848Y010359D01*
X025472Y010188D01*
X014825Y010188D01*
X014906Y010270D01*
X014956Y010391D01*
X014956Y010521D01*
X014906Y010642D01*
X014814Y010734D01*
X014693Y010784D01*
X014567Y010784D01*
X014207Y011144D01*
X014293Y011230D01*
X014406Y011230D01*
X015263Y010373D01*
X015364Y010272D01*
X015380Y010256D01*
X015546Y010256D01*
X016687Y010256D01*
X016737Y010306D01*
X016807Y010236D01*
X016931Y010236D01*
X017001Y010306D01*
X017051Y010256D01*
X017216Y010256D01*
X019471Y010256D01*
X019521Y010306D01*
X019591Y010236D01*
X019715Y010236D01*
X019785Y010306D01*
X019834Y010256D01*
X019835Y010256D01*
X020000Y010256D01*
X022534Y010256D01*
X022583Y010306D01*
X022653Y010236D01*
X022777Y010236D01*
X022847Y010306D01*
X022897Y010256D01*
X023062Y010256D01*
X025317Y010256D01*
X025435Y010373D01*
X025507Y010445D01*
X025576Y010376D01*
X025700Y010376D01*
X026122Y010797D01*
X026122Y010922D01*
X026081Y010963D01*
X026107Y010963D01*
X026228Y011013D01*
X026320Y011105D01*
X026370Y011226D01*
X026370Y011356D01*
X026320Y011477D01*
X026228Y011570D01*
X026107Y011620D01*
X025977Y011620D01*
X025856Y011570D01*
X025764Y011477D01*
X025714Y011356D01*
X025714Y011330D01*
X025700Y011344D01*
X025576Y011344D01*
X025154Y010922D01*
X025154Y010797D01*
X025224Y010728D01*
X025152Y010656D01*
X023197Y010656D01*
X023199Y010658D01*
X023199Y010783D01*
X022777Y011204D01*
X022653Y011204D01*
X022231Y010783D01*
X022231Y010658D01*
X022233Y010656D01*
X021974Y010656D01*
X022005Y010688D01*
X022055Y010808D01*
X022055Y010834D01*
X022068Y010821D01*
X022193Y010821D01*
X022615Y011243D01*
X022615Y011367D01*
X022193Y011789D01*
X022068Y011789D01*
X021646Y011367D01*
X021646Y011243D01*
X021687Y011202D01*
X021662Y011202D01*
X021541Y011152D01*
X021448Y011060D01*
X021398Y010939D01*
X021398Y010808D01*
X021448Y010688D01*
X021480Y010656D01*
X020135Y010656D01*
X020137Y010658D01*
X020137Y010783D01*
X019715Y011204D01*
X019591Y011204D01*
X019169Y010783D01*
X019169Y010658D01*
X019171Y010656D01*
X017351Y010656D01*
X017353Y010658D01*
X017353Y010783D01*
X016931Y011204D01*
X016807Y011204D01*
X016385Y010783D01*
X016385Y010658D01*
X016387Y010656D01*
X015546Y010656D01*
X014689Y011513D01*
X014572Y011630D01*
X014318Y011630D01*
X014350Y011662D01*
X014400Y011783D01*
X014400Y011913D01*
X014350Y012034D01*
X014257Y012126D01*
X014137Y012176D01*
X014006Y012176D01*
X013885Y012126D01*
X013793Y012034D01*
X013743Y011913D01*
X013743Y011830D01*
X013632Y011719D01*
X013563Y011789D01*
X013438Y011789D01*
X013016Y011367D01*
X013016Y011243D01*
X013378Y010881D01*
X013292Y010795D01*
X012345Y010795D01*
X011348Y011792D01*
X011231Y011909D01*
X010953Y011909D01*
X010787Y011909D01*
X010584Y011706D01*
X010500Y011789D01*
X010376Y011789D01*
X009954Y011367D01*
X009954Y011243D01*
X010376Y010821D01*
X010500Y010821D01*
X010922Y011243D01*
X010922Y011367D01*
X010867Y011423D01*
X010953Y011509D01*
X011065Y011509D01*
X011650Y010924D01*
X011640Y010924D01*
X011632Y010920D01*
X011497Y010920D01*
X011369Y010920D01*
X011085Y011204D01*
X010961Y011204D01*
X010539Y010783D01*
X010539Y010658D01*
X010961Y010236D01*
X011085Y010236D01*
X011369Y010520D01*
X011380Y010520D01*
X011426Y010409D01*
X011519Y010317D01*
X011640Y010267D01*
X011751Y010267D01*
X011829Y010188D01*
X009906Y010188D01*
X009906Y016384D01*
X009988Y016302D01*
X010108Y016252D01*
X010239Y016252D01*
X010360Y016302D01*
X010452Y016394D01*
X010502Y016515D01*
X010502Y016646D01*
X010493Y016667D01*
X010500Y016667D01*
X010922Y017089D01*
X010922Y017213D01*
X010631Y017505D01*
X010637Y017505D01*
X011087Y017054D01*
X011087Y017048D01*
X011085Y017051D01*
X010961Y017051D01*
X010539Y016629D01*
X010539Y016504D01*
X010608Y016435D01*
X010125Y015952D01*
X010113Y015940D01*
X010113Y015592D01*
X010035Y015514D01*
X009985Y015393D01*
X009985Y015262D01*
X010035Y015142D01*
X010127Y015049D01*
X010248Y014999D01*
X010378Y014999D01*
X010499Y015049D01*
X010591Y015142D01*
X010684Y015049D01*
X010804Y014999D01*
X010815Y014999D01*
X010584Y014768D01*
X010500Y014851D01*
X010376Y014851D01*
X009954Y014429D01*
X009954Y014305D01*
X010376Y013883D01*
X010500Y013883D01*
X010922Y014305D01*
X010922Y014429D01*
X010867Y014485D01*
X011705Y015323D01*
X015124Y011904D01*
X015241Y011787D01*
X016220Y011787D01*
X015800Y011367D01*
X015800Y011243D01*
X015831Y011213D01*
X015824Y011213D01*
X015652Y011385D01*
X015652Y011496D01*
X015602Y011616D01*
X015510Y011709D01*
X015389Y011759D01*
X015259Y011759D01*
X015138Y011709D01*
X015046Y011616D01*
X014996Y011496D01*
X014996Y011365D01*
X015046Y011244D01*
X015138Y011152D01*
X015259Y011102D01*
X015370Y011102D01*
X015542Y010930D01*
X015659Y010813D01*
X016075Y010813D01*
X016153Y010891D01*
X016222Y010821D01*
X016347Y010821D01*
X016768Y011243D01*
X016768Y011367D01*
X016348Y011787D01*
X018122Y011787D01*
X018200Y011709D01*
X018321Y011659D01*
X018432Y011659D01*
X018654Y011437D01*
X018584Y011367D01*
X018584Y011243D01*
X019006Y010821D01*
X019130Y010821D01*
X019552Y011243D01*
X019552Y011367D01*
X019130Y011789D01*
X019006Y011789D01*
X018937Y011719D01*
X018715Y011941D01*
X018715Y012052D01*
X018665Y012173D01*
X018572Y012266D01*
X018452Y012316D01*
X018321Y012316D01*
X018200Y012266D01*
X018122Y012187D01*
X015407Y012187D01*
X011988Y015606D01*
X012205Y015824D01*
X012205Y015824D01*
X012322Y015941D01*
X012322Y018334D01*
X012205Y018451D01*
X011437Y019219D01*
X011507Y019288D01*
X011507Y019413D01*
X011423Y019496D01*
X011626Y019699D01*
X011626Y019865D01*
X011626Y022092D01*
X011509Y022209D01*
X011437Y022281D01*
X011507Y022351D01*
X011507Y022475D01*
X011423Y022558D01*
X011626Y022761D01*
X011626Y022927D01*
X011626Y025154D01*
X011577Y025204D01*
X011646Y025274D01*
X011646Y025398D01*
X011525Y025519D01*
X011933Y025927D01*
X011933Y025841D01*
X011983Y025720D01*
X012076Y025628D01*
X012196Y025578D01*
X012238Y025578D01*
X013329Y024487D01*
X013329Y024419D01*
X014029Y023718D01*
X014092Y023718D01*
X014289Y023521D01*
X014289Y023484D01*
X014271Y023539D02*
X013973Y023539D01*
X014027Y023637D02*
X014173Y023637D01*
X014011Y023736D02*
X014002Y023736D01*
X013913Y023834D02*
X013908Y023834D01*
X013814Y023933D02*
X013810Y023933D01*
X013716Y024032D02*
X013711Y024032D01*
X013642Y024032D02*
X013641Y024032D01*
X013617Y024130D02*
X013613Y024130D01*
X013519Y024229D02*
X013514Y024229D01*
X013420Y024327D02*
X013416Y024327D01*
X013329Y024426D02*
X011626Y024426D01*
X011626Y024524D02*
X013291Y024524D01*
X013193Y024623D02*
X011626Y024623D01*
X011626Y024721D02*
X013094Y024721D01*
X012996Y024820D02*
X011626Y024820D01*
X011626Y024918D02*
X012897Y024918D01*
X012799Y025017D02*
X011626Y025017D01*
X011626Y025116D02*
X012700Y025116D01*
X012602Y025214D02*
X011586Y025214D01*
X011646Y025313D02*
X012503Y025313D01*
X012405Y025411D02*
X011633Y025411D01*
X011534Y025510D02*
X012306Y025510D01*
X012124Y025608D02*
X011614Y025608D01*
X011713Y025707D02*
X011997Y025707D01*
X011948Y025805D02*
X011811Y025805D01*
X011910Y025904D02*
X011933Y025904D01*
X012262Y025907D02*
X012262Y025837D01*
X013854Y024244D01*
X013854Y024239D01*
X014489Y023604D01*
X014489Y023401D01*
X013236Y022148D01*
X013236Y020478D01*
X012908Y020484D02*
X011626Y020484D01*
X011626Y020583D02*
X012924Y020583D01*
X012975Y020681D02*
X011626Y020681D01*
X011626Y020780D02*
X013036Y020780D01*
X013036Y020878D02*
X011626Y020878D01*
X011626Y020977D02*
X013036Y020977D01*
X013036Y021075D02*
X011626Y021075D01*
X011626Y021174D02*
X013036Y021174D01*
X013036Y021272D02*
X011626Y021272D01*
X011626Y021371D02*
X013036Y021371D01*
X013036Y021469D02*
X011626Y021469D01*
X011626Y021568D02*
X013036Y021568D01*
X013036Y021667D02*
X011626Y021667D01*
X011626Y021765D02*
X013036Y021765D01*
X013036Y021864D02*
X011626Y021864D01*
X011626Y021962D02*
X013036Y021962D01*
X013036Y022061D02*
X011626Y022061D01*
X011559Y022159D02*
X013036Y022159D01*
X013063Y022258D02*
X011461Y022258D01*
X011509Y022209D02*
X011509Y022209D01*
X011507Y022356D02*
X013161Y022356D01*
X013260Y022455D02*
X011507Y022455D01*
X011428Y022553D02*
X013358Y022553D01*
X013457Y022652D02*
X011517Y022652D01*
X011616Y022751D02*
X013555Y022751D01*
X013654Y022849D02*
X011626Y022849D01*
X011626Y022948D02*
X013753Y022948D01*
X013851Y023046D02*
X011626Y023046D01*
X011626Y023145D02*
X013950Y023145D01*
X014048Y023243D02*
X011626Y023243D01*
X011626Y023342D02*
X014147Y023342D01*
X013600Y023440D02*
X011626Y023440D01*
X011626Y023539D02*
X013501Y023539D01*
X013360Y024032D02*
X013360Y024032D01*
X013262Y024130D02*
X013261Y024130D01*
X014208Y024598D02*
X012262Y026544D01*
X012262Y026742D01*
X013083Y027563D01*
X013111Y027563D01*
X012554Y028148D02*
X012818Y028412D01*
X013097Y028412D01*
X015463Y026046D01*
X016855Y027438D01*
X017551Y026742D01*
X018665Y026742D01*
X018929Y027006D01*
X018957Y027006D01*
X020892Y025071D01*
X020892Y024236D01*
X020627Y023972D01*
X020627Y023944D01*
X019639Y022956D01*
X019639Y021313D01*
X020043Y020909D01*
X020057Y020339D02*
X019778Y020339D01*
X019221Y020896D01*
X019221Y023707D01*
X020043Y024529D01*
X019639Y024932D01*
X018943Y024793D02*
X017273Y026463D01*
X016971Y026594D02*
X016294Y026594D01*
X016268Y026495D02*
X016944Y026495D01*
X016945Y026397D02*
X016412Y026397D01*
X016468Y026298D02*
X016986Y026298D01*
X017072Y026200D02*
X016488Y026200D01*
X016526Y026101D02*
X017352Y026101D01*
X017451Y026002D02*
X016624Y026002D01*
X016723Y025904D02*
X017549Y025904D01*
X017648Y025805D02*
X016822Y025805D01*
X016920Y025707D02*
X017746Y025707D01*
X017845Y025608D02*
X017019Y025608D01*
X017117Y025510D02*
X017943Y025510D01*
X018042Y025411D02*
X017216Y025411D01*
X017314Y025313D02*
X018141Y025313D01*
X018239Y025214D02*
X017413Y025214D01*
X017511Y025116D02*
X018338Y025116D01*
X018436Y025017D02*
X017610Y025017D01*
X017708Y024918D02*
X018535Y024918D01*
X018633Y024820D02*
X017807Y024820D01*
X017890Y024721D02*
X018732Y024721D01*
X018743Y024623D02*
X017890Y024623D01*
X017844Y024524D02*
X018743Y024524D01*
X018743Y024426D02*
X017745Y024426D01*
X017646Y024327D02*
X018743Y024327D01*
X018743Y024229D02*
X017548Y024229D01*
X017449Y024130D02*
X018743Y024130D01*
X018743Y024032D02*
X017351Y024032D01*
X017252Y023933D02*
X018743Y023933D01*
X018743Y023834D02*
X017194Y023834D01*
X017194Y023736D02*
X017684Y023736D01*
X017706Y023745D02*
X017477Y023650D01*
X017302Y023475D01*
X017207Y023246D01*
X017207Y022999D01*
X017302Y022770D01*
X017477Y022595D01*
X017706Y022500D01*
X017953Y022500D01*
X018182Y022595D01*
X018357Y022770D01*
X018452Y022999D01*
X018452Y023246D01*
X018357Y023475D01*
X018182Y023650D01*
X017953Y023745D01*
X017706Y023745D01*
X017464Y023637D02*
X017194Y023637D01*
X017194Y023539D02*
X017365Y023539D01*
X017287Y023440D02*
X017194Y023440D01*
X017194Y023342D02*
X017246Y023342D01*
X017207Y023243D02*
X017194Y023243D01*
X017194Y023145D02*
X017207Y023145D01*
X017194Y023046D02*
X017207Y023046D01*
X017194Y022948D02*
X017228Y022948D01*
X017194Y022849D02*
X017269Y022849D01*
X017321Y022751D02*
X017194Y022751D01*
X017194Y022652D02*
X017420Y022652D01*
X017577Y022553D02*
X017194Y022553D01*
X017194Y022455D02*
X018743Y022455D01*
X018743Y022553D02*
X018082Y022553D01*
X018239Y022652D02*
X018743Y022652D01*
X018743Y022751D02*
X018338Y022751D01*
X018390Y022849D02*
X018743Y022849D01*
X018743Y022948D02*
X018431Y022948D01*
X018452Y023046D02*
X018743Y023046D01*
X018743Y023145D02*
X018452Y023145D01*
X018452Y023243D02*
X018743Y023243D01*
X018743Y023342D02*
X018412Y023342D01*
X018372Y023440D02*
X018743Y023440D01*
X018743Y023539D02*
X018293Y023539D01*
X018195Y023637D02*
X018743Y023637D01*
X018743Y023736D02*
X017975Y023736D01*
X017278Y024524D02*
X016838Y024524D01*
X016838Y024480D02*
X016838Y024605D01*
X016444Y024999D01*
X016365Y024999D01*
X016365Y025035D01*
X016354Y025074D01*
X016335Y025108D01*
X016202Y025241D01*
X015991Y025030D01*
X015923Y025098D01*
X016133Y025309D01*
X016001Y025442D01*
X015966Y025462D01*
X015928Y025472D01*
X015889Y025472D01*
X015851Y025462D01*
X015816Y025442D01*
X015698Y025323D01*
X015922Y025098D01*
X015854Y025030D01*
X015663Y025220D01*
X015663Y025963D01*
X015831Y026131D01*
X015831Y026120D01*
X015881Y025999D01*
X015973Y025906D01*
X016094Y025856D01*
X016205Y025856D01*
X017407Y024654D01*
X016794Y024041D01*
X016794Y023875D01*
X016794Y023064D01*
X016632Y023227D01*
X016637Y023232D01*
X016637Y023415D01*
X016716Y023493D01*
X016766Y023614D01*
X016766Y023745D01*
X016716Y023865D01*
X016624Y023958D01*
X016596Y023969D01*
X016596Y024238D01*
X016838Y024480D01*
X016783Y024426D02*
X017179Y024426D01*
X017081Y024327D02*
X016685Y024327D01*
X016596Y024229D02*
X016982Y024229D01*
X016884Y024130D02*
X016596Y024130D01*
X016596Y024032D02*
X016794Y024032D01*
X016794Y023933D02*
X016648Y023933D01*
X016729Y023834D02*
X016794Y023834D01*
X016794Y023736D02*
X016766Y023736D01*
X016766Y023637D02*
X016794Y023637D01*
X016794Y023539D02*
X016735Y023539D01*
X016794Y023440D02*
X016663Y023440D01*
X016637Y023342D02*
X016794Y023342D01*
X016794Y023243D02*
X016637Y023243D01*
X016714Y023145D02*
X016794Y023145D01*
X016794Y022751D02*
X016697Y022751D01*
X016794Y022652D02*
X016487Y022652D01*
X016405Y022751D02*
X016401Y022751D01*
X016307Y022849D02*
X016302Y022849D01*
X016208Y022948D02*
X016204Y022948D01*
X016110Y023046D02*
X016105Y023046D01*
X016011Y023145D02*
X016007Y023145D01*
X015913Y023243D02*
X015908Y023243D01*
X015814Y023342D02*
X015810Y023342D01*
X015789Y023440D02*
X015663Y023440D01*
X015663Y023539D02*
X015837Y023539D01*
X015935Y023637D02*
X015663Y023637D01*
X015663Y023736D02*
X016109Y023736D01*
X016146Y023834D02*
X015663Y023834D01*
X015663Y023933D02*
X016196Y023933D01*
X016196Y024032D02*
X015663Y024032D01*
X015663Y024130D02*
X016196Y024130D01*
X016196Y024229D02*
X015663Y024229D01*
X015663Y024327D02*
X016134Y024327D01*
X016036Y024426D02*
X015663Y024426D01*
X015663Y024524D02*
X015953Y024524D01*
X015839Y024623D02*
X015663Y024623D01*
X015663Y024721D02*
X015740Y024721D01*
X015781Y024820D02*
X015663Y024820D01*
X015743Y024918D02*
X015880Y024918D01*
X015866Y025017D02*
X015841Y025017D01*
X015905Y025116D02*
X015768Y025116D01*
X015806Y025214D02*
X015669Y025214D01*
X015663Y025313D02*
X015708Y025313D01*
X015663Y025411D02*
X015786Y025411D01*
X015663Y025510D02*
X016551Y025510D01*
X016453Y025608D02*
X015663Y025608D01*
X015663Y025707D02*
X016354Y025707D01*
X016256Y025805D02*
X015663Y025805D01*
X015663Y025904D02*
X015979Y025904D01*
X015879Y026002D02*
X015703Y026002D01*
X015801Y026101D02*
X015838Y026101D01*
X016159Y026185D02*
X017690Y024654D01*
X016994Y023958D01*
X016994Y021452D01*
X022172Y016274D01*
X021866Y015951D02*
X012322Y015951D01*
X012322Y016050D02*
X021767Y016050D01*
X021669Y016148D02*
X012322Y016148D01*
X012322Y016247D02*
X021605Y016247D01*
X021614Y016345D02*
X012322Y016345D01*
X012322Y016444D02*
X021712Y016444D01*
X021621Y016542D02*
X012322Y016542D01*
X012322Y016641D02*
X021523Y016641D01*
X021424Y016739D02*
X012322Y016739D01*
X012322Y016838D02*
X021326Y016838D01*
X021227Y016936D02*
X012322Y016936D01*
X012322Y017035D02*
X021129Y017035D01*
X021030Y017134D02*
X012322Y017134D01*
X012322Y017232D02*
X020932Y017232D01*
X020833Y017331D02*
X012322Y017331D01*
X012322Y017429D02*
X020735Y017429D01*
X020636Y017528D02*
X012322Y017528D01*
X012322Y017626D02*
X020537Y017626D01*
X020439Y017725D02*
X012322Y017725D01*
X012322Y017823D02*
X020340Y017823D01*
X020242Y017922D02*
X012322Y017922D01*
X012322Y018020D02*
X020143Y018020D01*
X020045Y018119D02*
X012322Y018119D01*
X012322Y018218D02*
X019946Y018218D01*
X019848Y018316D02*
X012322Y018316D01*
X012242Y018415D02*
X019749Y018415D01*
X019651Y018513D02*
X012143Y018513D01*
X012205Y018451D02*
X012205Y018451D01*
X012123Y018251D02*
X012123Y016024D01*
X011705Y015606D01*
X015324Y011987D01*
X018386Y011987D01*
X019068Y011305D01*
X018803Y011024D02*
X017112Y011024D01*
X017210Y010925D02*
X018902Y010925D01*
X019000Y010827D02*
X017309Y010827D01*
X017353Y010728D02*
X019169Y010728D01*
X019136Y010827D02*
X019213Y010827D01*
X019235Y010925D02*
X019312Y010925D01*
X019333Y011024D02*
X019410Y011024D01*
X019432Y011122D02*
X019509Y011122D01*
X019530Y011221D02*
X021668Y011221D01*
X021646Y011319D02*
X019552Y011319D01*
X019501Y011418D02*
X021697Y011418D01*
X021796Y011517D02*
X019403Y011517D01*
X019304Y011615D02*
X021894Y011615D01*
X021993Y011714D02*
X019206Y011714D01*
X018844Y011812D02*
X024228Y011812D01*
X024187Y011911D02*
X018745Y011911D01*
X018715Y012009D02*
X024182Y012009D01*
X024205Y012108D02*
X018692Y012108D01*
X018631Y012206D02*
X024266Y012206D01*
X024420Y012305D02*
X018477Y012305D01*
X018295Y012305D02*
X015289Y012305D01*
X015190Y012403D02*
X027178Y012403D01*
X027079Y012305D02*
X024602Y012305D01*
X024756Y012206D02*
X026981Y012206D01*
X026882Y012108D02*
X024816Y012108D01*
X024839Y012009D02*
X025364Y012009D01*
X025265Y011911D02*
X025133Y011911D01*
X024974Y011911D02*
X024870Y011911D01*
X024511Y011987D02*
X025054Y011444D01*
X025081Y011444D01*
X025485Y011848D01*
X026905Y011848D01*
X027865Y012808D01*
X027865Y012836D01*
X028269Y013240D01*
X028269Y015439D01*
X028561Y015731D01*
X028826Y015996D01*
X028826Y017137D01*
X027309Y018655D01*
X027281Y018655D01*
X026877Y018251D01*
X026320Y018251D01*
X024246Y020325D01*
X023958Y020583D02*
X023881Y020583D01*
X023859Y020484D02*
X023782Y020484D01*
X023762Y020385D02*
X023421Y020385D01*
X023519Y020484D02*
X023541Y020484D01*
X023322Y020287D02*
X023762Y020287D01*
X023837Y020188D02*
X023223Y020188D01*
X023125Y020090D02*
X023935Y020090D01*
X024034Y019991D02*
X023026Y019991D01*
X022928Y019893D02*
X024132Y019893D01*
X024360Y019893D02*
X024396Y019893D01*
X024494Y019794D02*
X022829Y019794D01*
X022731Y019696D02*
X024593Y019696D01*
X024691Y019597D02*
X022632Y019597D01*
X022534Y019499D02*
X024790Y019499D01*
X024888Y019400D02*
X022445Y019400D01*
X022445Y019301D02*
X024987Y019301D01*
X025085Y019203D02*
X022405Y019203D01*
X022321Y019104D02*
X025184Y019104D01*
X025282Y019006D02*
X019724Y019006D01*
X019822Y018907D02*
X025381Y018907D01*
X025480Y018809D02*
X019921Y018809D01*
X020019Y018710D02*
X022659Y018710D01*
X022717Y018734D02*
X022488Y018639D01*
X022313Y018464D01*
X022218Y018235D01*
X022218Y017988D01*
X022313Y017759D01*
X022488Y017584D01*
X022717Y017489D01*
X022964Y017489D01*
X023193Y017584D01*
X023368Y017759D01*
X023463Y017988D01*
X023463Y018235D01*
X023368Y018464D01*
X023193Y018639D01*
X022964Y018734D01*
X022717Y018734D01*
X022460Y018612D02*
X020118Y018612D01*
X020216Y018513D02*
X022362Y018513D01*
X022292Y018415D02*
X020315Y018415D01*
X020413Y018316D02*
X022251Y018316D01*
X022218Y018218D02*
X020512Y018218D01*
X020610Y018119D02*
X022218Y018119D01*
X022218Y018020D02*
X020709Y018020D01*
X020807Y017922D02*
X022245Y017922D01*
X022286Y017823D02*
X020906Y017823D01*
X021005Y017725D02*
X022347Y017725D01*
X022446Y017626D02*
X021103Y017626D01*
X021202Y017528D02*
X022624Y017528D01*
X023057Y017528D02*
X026966Y017528D01*
X026966Y017509D02*
X026227Y016770D01*
X026116Y016770D01*
X025995Y016720D01*
X025903Y016627D01*
X025853Y016507D01*
X025853Y016376D01*
X025903Y016255D01*
X025995Y016163D01*
X026116Y016113D01*
X026246Y016113D01*
X026367Y016163D01*
X026460Y016255D01*
X026510Y016376D01*
X026510Y016487D01*
X027249Y017226D01*
X027360Y017226D01*
X027481Y017276D01*
X027573Y017369D01*
X027623Y017490D01*
X027623Y017620D01*
X027573Y017741D01*
X027481Y017833D01*
X027360Y017883D01*
X027229Y017883D01*
X027109Y017833D01*
X027016Y017741D01*
X026966Y017620D01*
X026966Y017509D01*
X026886Y017429D02*
X021300Y017429D01*
X021399Y017331D02*
X026788Y017331D01*
X026689Y017232D02*
X021497Y017232D01*
X021596Y017134D02*
X026591Y017134D01*
X026492Y017035D02*
X021694Y017035D01*
X021793Y016936D02*
X026393Y016936D01*
X026295Y016838D02*
X022238Y016838D01*
X022106Y016838D02*
X021891Y016838D01*
X021990Y016739D02*
X022008Y016739D01*
X022337Y016739D02*
X026043Y016739D01*
X025916Y016641D02*
X022435Y016641D01*
X022534Y016542D02*
X025867Y016542D01*
X025853Y016444D02*
X022632Y016444D01*
X022731Y016345D02*
X025865Y016345D01*
X025911Y016247D02*
X022740Y016247D01*
X022676Y016148D02*
X026031Y016148D01*
X026331Y016148D02*
X026585Y016148D01*
X026599Y016116D02*
X026691Y016024D01*
X026812Y015974D01*
X026923Y015974D01*
X027512Y015384D01*
X027512Y013907D01*
X027412Y013807D01*
X027343Y013877D01*
X027219Y013877D01*
X026797Y013455D01*
X026797Y013331D01*
X027219Y012909D01*
X027343Y012909D01*
X027765Y013331D01*
X027765Y013455D01*
X027695Y013525D01*
X027904Y013734D01*
X027912Y013742D01*
X027912Y015384D01*
X027912Y015550D01*
X027205Y016257D01*
X027205Y016367D01*
X027155Y016488D01*
X027063Y016581D01*
X026942Y016631D01*
X026812Y016631D01*
X026691Y016581D01*
X026599Y016488D01*
X026549Y016367D01*
X026549Y016237D01*
X026599Y016116D01*
X026665Y016050D02*
X022577Y016050D01*
X022479Y015951D02*
X026945Y015951D01*
X027044Y015852D02*
X022380Y015852D01*
X022282Y015754D02*
X027142Y015754D01*
X027241Y015655D02*
X012037Y015655D01*
X012037Y015557D02*
X027339Y015557D01*
X027438Y015458D02*
X012136Y015458D01*
X012234Y015360D02*
X027512Y015360D01*
X027512Y015261D02*
X012333Y015261D01*
X012431Y015163D02*
X027512Y015163D01*
X027512Y015064D02*
X012530Y015064D01*
X012628Y014966D02*
X027512Y014966D01*
X027512Y014867D02*
X012727Y014867D01*
X012825Y014769D02*
X027512Y014769D01*
X027512Y014670D02*
X024365Y014670D01*
X024363Y014670D02*
X024324Y014670D01*
X024286Y014660D01*
X024252Y014640D01*
X024064Y014453D01*
X024344Y014174D01*
X024623Y014453D01*
X024436Y014640D01*
X024402Y014660D01*
X024363Y014670D01*
X024323Y014670D02*
X012924Y014670D01*
X013022Y014571D02*
X024183Y014571D01*
X024084Y014473D02*
X013121Y014473D01*
X013220Y014374D02*
X023986Y014374D01*
X023994Y014382D02*
X023806Y014195D01*
X023786Y014161D01*
X023776Y014123D01*
X023776Y014083D01*
X023786Y014045D01*
X023806Y014011D01*
X023994Y013823D01*
X024273Y014103D01*
X023994Y014382D01*
X024002Y014374D02*
X024143Y014374D01*
X024100Y014276D02*
X024241Y014276D01*
X024199Y014177D02*
X024340Y014177D01*
X024344Y014174D02*
X024273Y014103D01*
X024344Y014032D01*
X024414Y014103D01*
X024344Y014174D01*
X024348Y014177D02*
X024489Y014177D01*
X024414Y014103D02*
X024694Y014382D01*
X024881Y014195D01*
X024901Y014161D01*
X024911Y014123D01*
X024911Y014083D01*
X024901Y014045D01*
X024881Y014011D01*
X024694Y013823D01*
X024414Y014103D01*
X024390Y014079D02*
X024438Y014079D01*
X024344Y014032D02*
X024623Y013753D01*
X024436Y013565D01*
X024402Y013546D01*
X024363Y013535D01*
X024324Y013535D01*
X024286Y013546D01*
X024252Y013565D01*
X024064Y013753D01*
X024344Y014032D01*
X024297Y014079D02*
X024249Y014079D01*
X024292Y013980D02*
X024150Y013980D01*
X024193Y013882D02*
X024052Y013882D01*
X024095Y013783D02*
X013811Y013783D01*
X013909Y013685D02*
X024132Y013685D01*
X024231Y013586D02*
X014008Y013586D01*
X014106Y013487D02*
X026829Y013487D01*
X026797Y013389D02*
X014205Y013389D01*
X014304Y013290D02*
X026837Y013290D01*
X026936Y013192D02*
X014402Y013192D01*
X014501Y013093D02*
X027034Y013093D01*
X027133Y012995D02*
X014599Y012995D01*
X014698Y012896D02*
X027407Y012896D01*
X027429Y012995D02*
X027506Y012995D01*
X027527Y013093D02*
X027604Y013093D01*
X027626Y013192D02*
X027703Y013192D01*
X027724Y013290D02*
X027801Y013290D01*
X027765Y013389D02*
X028069Y013389D01*
X028069Y013487D02*
X027732Y013487D01*
X027757Y013586D02*
X028069Y013586D01*
X028069Y013685D02*
X027855Y013685D01*
X027912Y013783D02*
X028069Y013783D01*
X028069Y013882D02*
X027912Y013882D01*
X027912Y013980D02*
X028069Y013980D01*
X028069Y014079D02*
X027912Y014079D01*
X027912Y014177D02*
X028069Y014177D01*
X028069Y014276D02*
X027912Y014276D01*
X027912Y014374D02*
X028069Y014374D01*
X028069Y014473D02*
X027912Y014473D01*
X027912Y014571D02*
X028069Y014571D01*
X028069Y014670D02*
X027912Y014670D01*
X027912Y014769D02*
X028069Y014769D01*
X028069Y014867D02*
X027912Y014867D01*
X027912Y014966D02*
X028069Y014966D01*
X028069Y015064D02*
X027912Y015064D01*
X027912Y015163D02*
X028069Y015163D01*
X028069Y015261D02*
X027912Y015261D01*
X027912Y015360D02*
X028069Y015360D01*
X028069Y015458D02*
X027912Y015458D01*
X027905Y015557D02*
X028104Y015557D01*
X028091Y015655D02*
X027807Y015655D01*
X027708Y015754D02*
X028077Y015754D01*
X028039Y015832D02*
X028461Y016254D01*
X028461Y016378D01*
X028039Y016800D01*
X027915Y016800D01*
X027845Y016731D01*
X027762Y016813D01*
X027762Y016924D01*
X027712Y017045D01*
X027620Y017137D01*
X027499Y017187D01*
X027369Y017187D01*
X027248Y017137D01*
X027155Y017045D01*
X027105Y016924D01*
X027105Y016794D01*
X027155Y016673D01*
X027248Y016581D01*
X027369Y016531D01*
X027479Y016531D01*
X027562Y016448D01*
X027493Y016378D01*
X027493Y016254D01*
X027915Y015832D01*
X028039Y015832D01*
X028059Y015852D02*
X028136Y015852D01*
X028158Y015951D02*
X028235Y015951D01*
X028256Y016050D02*
X028333Y016050D01*
X028355Y016148D02*
X028432Y016148D01*
X028454Y016247D02*
X028626Y016247D01*
X028626Y016345D02*
X028461Y016345D01*
X028395Y016444D02*
X028626Y016444D01*
X028626Y016542D02*
X028297Y016542D01*
X028198Y016641D02*
X028626Y016641D01*
X028626Y016739D02*
X028100Y016739D01*
X027854Y016739D02*
X027836Y016739D01*
X027762Y016838D02*
X028626Y016838D01*
X028626Y016936D02*
X027757Y016936D01*
X027716Y017035D02*
X028626Y017035D01*
X028547Y017134D02*
X027624Y017134D01*
X027535Y017331D02*
X028350Y017331D01*
X028448Y017232D02*
X027374Y017232D01*
X027244Y017134D02*
X027156Y017134D01*
X027151Y017035D02*
X027058Y017035D01*
X027111Y016936D02*
X026959Y016936D01*
X026861Y016838D02*
X027105Y016838D01*
X027128Y016739D02*
X026762Y016739D01*
X026663Y016641D02*
X027187Y016641D01*
X027101Y016542D02*
X027340Y016542D01*
X027174Y016444D02*
X027558Y016444D01*
X027493Y016345D02*
X027205Y016345D01*
X027215Y016247D02*
X027500Y016247D01*
X027598Y016148D02*
X027314Y016148D01*
X027412Y016050D02*
X027697Y016050D01*
X027796Y015951D02*
X027511Y015951D01*
X027610Y015852D02*
X027894Y015852D01*
X027712Y015467D02*
X026877Y016302D01*
X026653Y016542D02*
X026565Y016542D01*
X026580Y016444D02*
X026510Y016444D01*
X026497Y016345D02*
X026549Y016345D01*
X026549Y016247D02*
X026451Y016247D01*
X026181Y016441D02*
X027295Y017555D01*
X027598Y017429D02*
X028251Y017429D01*
X028153Y017528D02*
X027623Y017528D01*
X027621Y017626D02*
X028054Y017626D01*
X027955Y017725D02*
X027580Y017725D01*
X027491Y017823D02*
X027857Y017823D01*
X027758Y017922D02*
X023436Y017922D01*
X023463Y018020D02*
X027660Y018020D01*
X027561Y018119D02*
X027028Y018119D01*
X027127Y018218D02*
X027199Y018218D01*
X027418Y018218D02*
X027463Y018218D01*
X027733Y018513D02*
X028323Y018513D01*
X028372Y018415D02*
X027831Y018415D01*
X027930Y018316D02*
X028422Y018316D01*
X028471Y018218D02*
X028028Y018218D01*
X028127Y018119D02*
X028521Y018119D01*
X028570Y018020D02*
X028225Y018020D01*
X028324Y017922D02*
X028619Y017922D01*
X028663Y017823D02*
X028423Y017823D01*
X028521Y017725D02*
X028695Y017725D01*
X028728Y017626D02*
X028620Y017626D01*
X028718Y017528D02*
X028760Y017528D01*
X028274Y018612D02*
X027793Y018612D01*
X027793Y018710D02*
X028210Y018710D01*
X028141Y018809D02*
X027700Y018809D01*
X027602Y018907D02*
X028071Y018907D01*
X028002Y019006D02*
X027503Y019006D01*
X027405Y019104D02*
X027932Y019104D01*
X027863Y019203D02*
X027208Y019203D01*
X027208Y019301D02*
X027793Y019301D01*
X027714Y019400D02*
X027109Y019400D01*
X027011Y019499D02*
X027619Y019499D01*
X027525Y019597D02*
X026912Y019597D01*
X026814Y019696D02*
X027430Y019696D01*
X027336Y019794D02*
X025895Y019794D01*
X025993Y019696D02*
X026634Y019696D01*
X026536Y019597D02*
X026092Y019597D01*
X026191Y019499D02*
X026437Y019499D01*
X026167Y019239D02*
X026724Y019239D01*
X027037Y019006D02*
X027114Y019006D01*
X027135Y019104D02*
X027212Y019104D01*
X027015Y018907D02*
X026938Y018907D01*
X026917Y018809D02*
X026840Y018809D01*
X026825Y018710D02*
X026144Y018710D01*
X026242Y018612D02*
X026825Y018612D01*
X026857Y018513D02*
X026341Y018513D01*
X026608Y018809D02*
X026045Y018809D01*
X025947Y018907D02*
X026510Y018907D01*
X026411Y019006D02*
X025848Y019006D01*
X025750Y019104D02*
X026019Y019104D01*
X025921Y019203D02*
X025651Y019203D01*
X025552Y019301D02*
X025822Y019301D01*
X025723Y019400D02*
X025454Y019400D01*
X025355Y019499D02*
X025625Y019499D01*
X025526Y019597D02*
X025257Y019597D01*
X025158Y019696D02*
X025428Y019696D01*
X025329Y019794D02*
X025060Y019794D01*
X024961Y019893D02*
X025231Y019893D01*
X025132Y019991D02*
X024863Y019991D01*
X024764Y020090D02*
X025034Y020090D01*
X024935Y020188D02*
X024666Y020188D01*
X024730Y020287D02*
X024837Y020287D01*
X024738Y020385D02*
X024730Y020385D01*
X024639Y020484D02*
X024633Y020484D01*
X024541Y020583D02*
X024535Y020583D01*
X024442Y020681D02*
X024436Y020681D01*
X024344Y020780D02*
X024338Y020780D01*
X024245Y020878D02*
X024146Y020878D01*
X024155Y020780D02*
X024078Y020780D01*
X024056Y020681D02*
X023980Y020681D01*
X024141Y020977D02*
X024147Y020977D01*
X024048Y021075D02*
X024042Y021075D01*
X023950Y021174D02*
X023943Y021174D01*
X023954Y021452D02*
X026167Y019239D01*
X025578Y018710D02*
X023022Y018710D01*
X023221Y018612D02*
X025677Y018612D01*
X025775Y018513D02*
X023319Y018513D01*
X023389Y018415D02*
X025874Y018415D01*
X025972Y018316D02*
X023429Y018316D01*
X023463Y018218D02*
X026071Y018218D01*
X026169Y018119D02*
X023463Y018119D01*
X023395Y017823D02*
X027099Y017823D01*
X027010Y017725D02*
X023334Y017725D01*
X023235Y017626D02*
X026969Y017626D01*
X027434Y016859D02*
X027977Y016316D01*
X027712Y015467D02*
X027712Y013824D01*
X027281Y013393D01*
X027026Y013685D02*
X024555Y013685D01*
X024593Y013783D02*
X027125Y013783D01*
X026928Y013586D02*
X024457Y013586D01*
X024494Y013882D02*
X024636Y013882D01*
X024752Y013882D02*
X027487Y013882D01*
X027512Y013980D02*
X024851Y013980D01*
X024910Y014079D02*
X027512Y014079D01*
X027512Y014177D02*
X024891Y014177D01*
X024800Y014276D02*
X027512Y014276D01*
X027512Y014374D02*
X024702Y014374D01*
X024686Y014374D02*
X024545Y014374D01*
X024587Y014276D02*
X024446Y014276D01*
X024603Y014473D02*
X027512Y014473D01*
X027512Y014571D02*
X024505Y014571D01*
X024537Y013980D02*
X024396Y013980D01*
X023935Y013882D02*
X013712Y013882D01*
X013614Y013980D02*
X023837Y013980D01*
X023777Y014079D02*
X013515Y014079D01*
X013417Y014177D02*
X023796Y014177D01*
X023887Y014276D02*
X013318Y014276D01*
X013048Y013980D02*
X011657Y013980D01*
X011613Y013936D02*
X011705Y014028D01*
X011755Y014149D01*
X011755Y014280D01*
X011705Y014400D01*
X011613Y014493D01*
X011492Y014543D01*
X011361Y014543D01*
X011240Y014493D01*
X011148Y014400D01*
X011098Y014280D01*
X011098Y014254D01*
X011085Y014267D01*
X010961Y014267D01*
X010539Y013845D01*
X010539Y013721D01*
X010961Y013299D01*
X011085Y013299D01*
X011507Y013721D01*
X011507Y013845D01*
X011466Y013886D01*
X011492Y013886D01*
X011613Y013936D01*
X011470Y013882D02*
X013147Y013882D01*
X013245Y013783D02*
X011507Y013783D01*
X011471Y013685D02*
X013344Y013685D01*
X013442Y013586D02*
X011372Y013586D01*
X011274Y013487D02*
X013541Y013487D01*
X013639Y013389D02*
X011175Y013389D01*
X010870Y013389D02*
X009906Y013389D01*
X009906Y013487D02*
X010772Y013487D01*
X010673Y013586D02*
X009906Y013586D01*
X009906Y013685D02*
X010575Y013685D01*
X010539Y013783D02*
X009906Y013783D01*
X009906Y013882D02*
X010576Y013882D01*
X010597Y013980D02*
X010674Y013980D01*
X010696Y014079D02*
X010773Y014079D01*
X010794Y014177D02*
X010871Y014177D01*
X010893Y014276D02*
X011098Y014276D01*
X011137Y014374D02*
X010922Y014374D01*
X010879Y014473D02*
X011221Y014473D01*
X011051Y014670D02*
X012358Y014670D01*
X012260Y014769D02*
X011150Y014769D01*
X011249Y014867D02*
X012161Y014867D01*
X012063Y014966D02*
X011347Y014966D01*
X011446Y015064D02*
X011964Y015064D01*
X011866Y015163D02*
X011544Y015163D01*
X011643Y015261D02*
X011767Y015261D01*
X011705Y015606D02*
X010466Y014367D01*
X010438Y014367D01*
X010181Y014079D02*
X009906Y014079D01*
X009906Y014177D02*
X010082Y014177D01*
X009984Y014276D02*
X009906Y014276D01*
X009906Y014374D02*
X009954Y014374D01*
X009998Y014473D02*
X009906Y014473D01*
X009906Y014571D02*
X010096Y014571D01*
X010195Y014670D02*
X009906Y014670D01*
X009906Y014769D02*
X010293Y014769D01*
X010583Y014769D02*
X010584Y014769D01*
X010683Y014867D02*
X009906Y014867D01*
X009906Y014966D02*
X010782Y014966D01*
X010669Y015064D02*
X010514Y015064D01*
X010313Y015328D02*
X010313Y015857D01*
X011023Y016567D01*
X011287Y016831D01*
X011287Y017137D01*
X010591Y017833D01*
X010706Y017429D02*
X010713Y017429D01*
X010805Y017331D02*
X010811Y017331D01*
X010904Y017232D02*
X010910Y017232D01*
X010922Y017134D02*
X011008Y017134D01*
X010945Y017035D02*
X010868Y017035D01*
X010846Y016936D02*
X010770Y016936D01*
X010748Y016838D02*
X010671Y016838D01*
X010649Y016739D02*
X010573Y016739D01*
X010551Y016641D02*
X010502Y016641D01*
X010502Y016542D02*
X010539Y016542D01*
X010599Y016444D02*
X010473Y016444D01*
X010519Y016345D02*
X010403Y016345D01*
X010420Y016247D02*
X009906Y016247D01*
X009906Y016345D02*
X009945Y016345D01*
X009906Y016148D02*
X010322Y016148D01*
X010223Y016050D02*
X009906Y016050D01*
X009906Y015951D02*
X010124Y015951D01*
X010113Y015852D02*
X009906Y015852D01*
X009906Y015754D02*
X010113Y015754D01*
X010113Y015655D02*
X009906Y015655D01*
X009906Y015557D02*
X010078Y015557D01*
X010012Y015458D02*
X009906Y015458D01*
X009906Y015360D02*
X009985Y015360D01*
X009985Y015261D02*
X009906Y015261D01*
X009906Y015163D02*
X010026Y015163D01*
X010112Y015064D02*
X009906Y015064D01*
X010870Y015328D02*
X011705Y016163D01*
X011705Y017555D01*
X010313Y018947D01*
X010313Y019810D01*
X010438Y019935D01*
X010842Y020339D01*
X010870Y020339D01*
X011626Y020385D02*
X012919Y020385D01*
X012963Y020287D02*
X011626Y020287D01*
X011626Y020188D02*
X013077Y020188D01*
X013395Y020188D02*
X017975Y020188D01*
X018074Y020090D02*
X011626Y020090D01*
X011626Y019991D02*
X018172Y019991D01*
X018271Y019893D02*
X011626Y019893D01*
X011626Y019794D02*
X018370Y019794D01*
X018468Y019696D02*
X011623Y019696D01*
X011524Y019597D02*
X018567Y019597D01*
X018665Y019499D02*
X011426Y019499D01*
X011507Y019400D02*
X018764Y019400D01*
X018862Y019301D02*
X011507Y019301D01*
X011453Y019203D02*
X018961Y019203D01*
X019059Y019104D02*
X011552Y019104D01*
X011650Y019006D02*
X019158Y019006D01*
X019256Y018907D02*
X011749Y018907D01*
X011847Y018809D02*
X019355Y018809D01*
X019454Y018710D02*
X011946Y018710D01*
X012044Y018612D02*
X019552Y018612D01*
X019625Y019104D02*
X021912Y019104D01*
X022117Y019364D02*
X023662Y020909D01*
X023397Y021452D02*
X023954Y021452D01*
X024318Y021371D02*
X024370Y021371D01*
X024417Y021272D02*
X024835Y021272D01*
X025107Y021174D02*
X024515Y021174D01*
X024614Y021075D02*
X025371Y021075D01*
X025634Y020977D02*
X024712Y020977D01*
X024811Y020878D02*
X025826Y020878D01*
X026003Y020780D02*
X024909Y020780D01*
X025008Y020681D02*
X026180Y020681D01*
X026357Y020583D02*
X025107Y020583D01*
X025205Y020484D02*
X026510Y020484D01*
X026638Y020385D02*
X025304Y020385D01*
X025402Y020287D02*
X026766Y020287D01*
X026893Y020188D02*
X025501Y020188D01*
X025599Y020090D02*
X027021Y020090D01*
X027147Y019991D02*
X025698Y019991D01*
X025796Y019893D02*
X027242Y019893D01*
X023397Y021452D02*
X022980Y021035D01*
X021309Y021035D01*
X021170Y020896D01*
X020613Y020896D01*
X020057Y020339D01*
X020627Y020325D02*
X021713Y020325D01*
X021727Y020339D01*
X022117Y019364D02*
X020196Y019364D01*
X018943Y020617D01*
X018943Y024793D01*
X017376Y024623D02*
X016820Y024623D01*
X016721Y024721D02*
X017340Y024721D01*
X017241Y024820D02*
X016623Y024820D01*
X016524Y024918D02*
X017143Y024918D01*
X017044Y025017D02*
X016365Y025017D01*
X016327Y025116D02*
X016946Y025116D01*
X016847Y025214D02*
X016228Y025214D01*
X016176Y025214D02*
X016038Y025214D01*
X016077Y025116D02*
X015940Y025116D01*
X016130Y025313D02*
X016749Y025313D01*
X016650Y025411D02*
X016031Y025411D01*
X015463Y026046D02*
X015463Y023337D01*
X015961Y022839D01*
X016438Y022363D01*
X016438Y022287D01*
X016740Y022159D02*
X016794Y022159D01*
X016794Y022061D02*
X016675Y022061D01*
X016794Y021962D02*
X016510Y021962D01*
X016365Y021962D02*
X015909Y021962D01*
X015780Y021962D02*
X015775Y021962D01*
X015780Y021864D02*
X016794Y021864D01*
X016794Y021765D02*
X015712Y021765D01*
X015613Y021667D02*
X016794Y021667D01*
X016794Y021568D02*
X013436Y021568D01*
X013436Y021469D02*
X016794Y021469D01*
X016794Y021371D02*
X013436Y021371D01*
X013436Y021272D02*
X016891Y021272D01*
X016990Y021174D02*
X013436Y021174D01*
X013436Y021075D02*
X017088Y021075D01*
X017187Y020977D02*
X013436Y020977D01*
X013436Y020878D02*
X017286Y020878D01*
X017384Y020780D02*
X013436Y020780D01*
X013497Y020681D02*
X017483Y020681D01*
X017581Y020583D02*
X013548Y020583D01*
X013564Y020484D02*
X017680Y020484D01*
X017778Y020385D02*
X013553Y020385D01*
X013509Y020287D02*
X017877Y020287D01*
X018147Y020583D02*
X018743Y020583D01*
X018743Y020681D02*
X018048Y020681D01*
X017950Y020780D02*
X018743Y020780D01*
X018743Y020878D02*
X017851Y020878D01*
X017753Y020977D02*
X018743Y020977D01*
X018743Y021075D02*
X017654Y021075D01*
X017556Y021174D02*
X018743Y021174D01*
X018743Y021272D02*
X017457Y021272D01*
X017359Y021371D02*
X018743Y021371D01*
X018743Y021469D02*
X017260Y021469D01*
X017194Y021568D02*
X018743Y021568D01*
X018743Y021667D02*
X017194Y021667D01*
X017194Y021765D02*
X018743Y021765D01*
X018743Y021864D02*
X017194Y021864D01*
X017194Y021962D02*
X018743Y021962D01*
X018743Y022061D02*
X017194Y022061D01*
X017194Y022159D02*
X018743Y022159D01*
X018743Y022258D02*
X017194Y022258D01*
X017194Y022356D02*
X018743Y022356D01*
X018793Y020484D02*
X018245Y020484D01*
X018344Y020385D02*
X018892Y020385D01*
X018990Y020287D02*
X018442Y020287D01*
X018541Y020188D02*
X019089Y020188D01*
X019187Y020090D02*
X018640Y020090D01*
X018738Y019991D02*
X019286Y019991D01*
X019385Y019893D02*
X018837Y019893D01*
X018935Y019794D02*
X019483Y019794D01*
X019582Y019696D02*
X019034Y019696D01*
X019132Y019597D02*
X019680Y019597D01*
X019779Y019499D02*
X019231Y019499D01*
X019329Y019400D02*
X019877Y019400D01*
X019976Y019301D02*
X019428Y019301D01*
X019526Y019203D02*
X020074Y019203D01*
X021964Y015852D02*
X012234Y015852D01*
X012136Y015754D02*
X022063Y015754D01*
X018141Y012206D02*
X015388Y012206D01*
X015117Y011911D02*
X014400Y011911D01*
X014400Y011812D02*
X015216Y011812D01*
X015150Y011714D02*
X014371Y011714D01*
X014587Y011615D02*
X015045Y011615D01*
X015004Y011517D02*
X014685Y011517D01*
X014689Y011513D02*
X014689Y011513D01*
X014784Y011418D02*
X014996Y011418D01*
X015014Y011319D02*
X014882Y011319D01*
X014981Y011221D02*
X015069Y011221D01*
X015080Y011122D02*
X015209Y011122D01*
X015178Y011024D02*
X015448Y011024D01*
X015542Y010930D02*
X015542Y010930D01*
X015546Y010925D02*
X015277Y010925D01*
X015375Y010827D02*
X015645Y010827D01*
X015474Y010728D02*
X016385Y010728D01*
X016352Y010827D02*
X016429Y010827D01*
X016451Y010925D02*
X016528Y010925D01*
X016549Y011024D02*
X016626Y011024D01*
X016648Y011122D02*
X016725Y011122D01*
X016746Y011221D02*
X018606Y011221D01*
X018584Y011319D02*
X016768Y011319D01*
X016718Y011418D02*
X018635Y011418D01*
X018574Y011517D02*
X016619Y011517D01*
X016520Y011615D02*
X018475Y011615D01*
X018195Y011714D02*
X016422Y011714D01*
X016147Y011714D02*
X015498Y011714D01*
X015603Y011615D02*
X016048Y011615D01*
X015950Y011517D02*
X015644Y011517D01*
X015652Y011418D02*
X015851Y011418D01*
X015800Y011319D02*
X015718Y011319D01*
X015816Y011221D02*
X015822Y011221D01*
X015742Y011013D02*
X015992Y011013D01*
X016284Y011305D01*
X016216Y010827D02*
X016089Y010827D01*
X015742Y011013D02*
X015324Y011430D01*
X014810Y010827D02*
X014525Y010827D01*
X014426Y010925D02*
X014711Y010925D01*
X014612Y011024D02*
X014328Y011024D01*
X014229Y011122D02*
X014514Y011122D01*
X014415Y011221D02*
X014284Y011221D01*
X014210Y011430D02*
X013375Y010595D01*
X012262Y010595D01*
X011148Y011709D01*
X010870Y011709D01*
X010466Y011305D01*
X010438Y011305D01*
X010173Y011024D02*
X009906Y011024D01*
X009906Y011122D02*
X010075Y011122D01*
X009976Y011221D02*
X009906Y011221D01*
X009906Y011319D02*
X009954Y011319D01*
X009906Y011418D02*
X010005Y011418D01*
X009906Y011517D02*
X010104Y011517D01*
X010202Y011615D02*
X009906Y011615D01*
X009906Y011714D02*
X010301Y011714D01*
X010576Y011714D02*
X010592Y011714D01*
X010690Y011812D02*
X009906Y011812D01*
X009906Y011911D02*
X013743Y011911D01*
X013725Y011812D02*
X011327Y011812D01*
X011426Y011714D02*
X013363Y011714D01*
X013264Y011615D02*
X011525Y011615D01*
X011623Y011517D02*
X013166Y011517D01*
X013067Y011418D02*
X011722Y011418D01*
X011820Y011319D02*
X013016Y011319D01*
X013038Y011221D02*
X011919Y011221D01*
X012017Y011122D02*
X013137Y011122D01*
X013235Y011024D02*
X012116Y011024D01*
X012214Y010925D02*
X013334Y010925D01*
X013324Y010827D02*
X012313Y010827D01*
X011983Y010317D02*
X011705Y010595D01*
X011580Y010720D01*
X011023Y010720D01*
X011281Y010433D02*
X011417Y010433D01*
X011502Y010334D02*
X011183Y010334D01*
X010863Y010334D02*
X009906Y010334D01*
X009906Y010236D02*
X011782Y010236D01*
X011983Y010317D02*
X013681Y010317D01*
X014085Y010720D01*
X014350Y010456D01*
X014628Y010456D01*
X014933Y010334D02*
X015302Y010334D01*
X015263Y010373D02*
X015263Y010373D01*
X015204Y010433D02*
X014956Y010433D01*
X014952Y010531D02*
X015105Y010531D01*
X015007Y010630D02*
X014911Y010630D01*
X014908Y010728D02*
X014820Y010728D01*
X014872Y010236D02*
X025575Y010236D01*
X025435Y010373D02*
X025435Y010373D01*
X025396Y010334D02*
X025792Y010334D01*
X025757Y010433D02*
X025970Y010433D01*
X025856Y010531D02*
X026134Y010531D01*
X026299Y010630D02*
X025954Y010630D01*
X026053Y010728D02*
X026463Y010728D01*
X026621Y010827D02*
X026122Y010827D01*
X026119Y010925D02*
X026741Y010925D01*
X026860Y011024D02*
X026239Y011024D01*
X026327Y011122D02*
X026980Y011122D01*
X027099Y011221D02*
X026368Y011221D01*
X026370Y011319D02*
X027219Y011319D01*
X027324Y011418D02*
X026345Y011418D01*
X026281Y011517D02*
X027412Y011517D01*
X027501Y011615D02*
X026118Y011615D01*
X025966Y011615D02*
X025535Y011615D01*
X025527Y011517D02*
X025803Y011517D01*
X025739Y011418D02*
X025538Y011418D01*
X025552Y011319D02*
X025475Y011319D01*
X025453Y011221D02*
X025376Y011221D01*
X025355Y011122D02*
X025278Y011122D01*
X025256Y011024D02*
X025179Y011024D01*
X025158Y010925D02*
X023056Y010925D01*
X022958Y011024D02*
X024928Y011024D01*
X024829Y011122D02*
X022859Y011122D01*
X022593Y011221D02*
X024731Y011221D01*
X024632Y011319D02*
X022615Y011319D01*
X022564Y011418D02*
X024570Y011418D01*
X024580Y011517D02*
X022465Y011517D01*
X022367Y011615D02*
X024600Y011615D01*
X024320Y011714D02*
X022268Y011714D01*
X022131Y011305D02*
X021727Y010901D01*
X021727Y010874D01*
X021511Y011122D02*
X019797Y011122D01*
X019896Y011024D02*
X021434Y011024D01*
X021398Y010925D02*
X019994Y010925D01*
X020093Y010827D02*
X021398Y010827D01*
X021432Y010728D02*
X020137Y010728D01*
X019917Y010456D02*
X019653Y010720D01*
X019388Y010456D01*
X017134Y010456D01*
X016869Y010720D01*
X016605Y010456D01*
X015463Y010456D01*
X014489Y011430D01*
X014210Y011430D01*
X014071Y011848D02*
X014043Y011848D01*
X013501Y011305D01*
X013783Y012009D02*
X009906Y012009D01*
X009906Y012108D02*
X013867Y012108D01*
X014276Y012108D02*
X014920Y012108D01*
X014822Y012206D02*
X009906Y012206D01*
X009906Y012305D02*
X014723Y012305D01*
X014625Y012403D02*
X009906Y012403D01*
X009906Y012502D02*
X014526Y012502D01*
X014428Y012601D02*
X009906Y012601D01*
X009906Y012699D02*
X014329Y012699D01*
X014231Y012798D02*
X009906Y012798D01*
X009906Y012896D02*
X014132Y012896D01*
X014034Y012995D02*
X009906Y012995D01*
X009906Y013093D02*
X013935Y013093D01*
X013836Y013192D02*
X009906Y013192D01*
X009906Y013290D02*
X013738Y013290D01*
X012950Y014079D02*
X011726Y014079D01*
X011755Y014177D02*
X012851Y014177D01*
X012752Y014276D02*
X011755Y014276D01*
X011716Y014374D02*
X012654Y014374D01*
X012555Y014473D02*
X011632Y014473D01*
X011427Y014214D02*
X011427Y014186D01*
X011023Y013783D01*
X010279Y013980D02*
X009906Y013980D01*
X010953Y014571D02*
X012457Y014571D01*
X014796Y012798D02*
X027381Y012798D01*
X027428Y012699D02*
X014895Y012699D01*
X014993Y012601D02*
X027375Y012601D01*
X027276Y012502D02*
X015092Y012502D01*
X015019Y012009D02*
X014360Y012009D01*
X017013Y011122D02*
X018705Y011122D01*
X019917Y010456D02*
X022451Y010456D01*
X022715Y010720D01*
X022980Y010456D01*
X025235Y010456D01*
X025638Y010860D01*
X025638Y010887D01*
X026042Y011291D01*
X025223Y010728D02*
X023199Y010728D01*
X023155Y010827D02*
X025154Y010827D01*
X025494Y010433D02*
X025519Y010433D01*
X027054Y011714D02*
X027589Y011714D01*
X027678Y011812D02*
X027152Y011812D01*
X027251Y011911D02*
X027766Y011911D01*
X027855Y012009D02*
X027349Y012009D01*
X027448Y012108D02*
X027924Y012108D01*
X027988Y012206D02*
X027546Y012206D01*
X027645Y012305D02*
X028053Y012305D01*
X028007Y012403D02*
X028118Y012403D01*
X028105Y012502D02*
X028183Y012502D01*
X028204Y012601D02*
X028248Y012601D01*
X028302Y012699D02*
X028313Y012699D01*
X028037Y013290D02*
X027929Y013290D01*
X022897Y010256D02*
X022897Y010256D01*
X022231Y010728D02*
X022022Y010728D01*
X022055Y010827D02*
X022063Y010827D01*
X022198Y010827D02*
X022275Y010827D01*
X022297Y010925D02*
X022374Y010925D01*
X022396Y011024D02*
X022472Y011024D01*
X022494Y011122D02*
X022571Y011122D01*
X017051Y010256D02*
X017051Y010256D01*
X011649Y010925D02*
X011364Y010925D01*
X011497Y010920D02*
X011497Y010920D01*
X011550Y011024D02*
X011266Y011024D01*
X011167Y011122D02*
X011452Y011122D01*
X011353Y011221D02*
X010900Y011221D01*
X010879Y011122D02*
X010802Y011122D01*
X010780Y011024D02*
X010703Y011024D01*
X010682Y010925D02*
X010605Y010925D01*
X010583Y010827D02*
X010506Y010827D01*
X010539Y010728D02*
X009906Y010728D01*
X009906Y010630D02*
X010567Y010630D01*
X010666Y010531D02*
X009906Y010531D01*
X009906Y010433D02*
X010764Y010433D01*
X010370Y010827D02*
X009906Y010827D01*
X009906Y010925D02*
X010272Y010925D01*
X010922Y011319D02*
X011255Y011319D01*
X011156Y011418D02*
X010871Y011418D01*
X010174Y016581D02*
X010174Y016887D01*
X010438Y017151D01*
X012123Y018251D02*
X011023Y019350D01*
X011023Y019378D01*
X011427Y019782D01*
X011427Y022009D01*
X011023Y022413D01*
X011023Y022441D01*
X011427Y022844D01*
X011427Y025071D01*
X011162Y025336D01*
X011162Y025439D01*
X012262Y026539D01*
X012262Y026544D01*
X012262Y025907D02*
X012262Y025831D01*
X011427Y026742D02*
X010605Y025920D01*
X010577Y025920D01*
X012526Y028148D02*
X012554Y028148D01*
X015046Y028134D02*
X015046Y028440D01*
X015449Y028844D01*
X016034Y028259D02*
X016855Y027438D01*
X016787Y027086D02*
X016924Y027086D01*
X017022Y026988D02*
X016688Y026988D01*
X016590Y026889D02*
X017121Y026889D01*
X017205Y026791D02*
X016491Y026791D01*
X016392Y026692D02*
X017037Y026692D01*
X017969Y027159D02*
X018386Y027577D01*
X018372Y027591D01*
X016396Y024556D02*
X016396Y023721D01*
X016438Y023679D01*
X016438Y023315D01*
X016315Y023193D01*
X016438Y023615D02*
X016438Y023679D01*
X016636Y022553D02*
X016794Y022553D01*
X016794Y022455D02*
X016724Y022455D01*
X016764Y022356D02*
X016794Y022356D01*
X016794Y022258D02*
X016766Y022258D01*
X016200Y022061D02*
X016007Y022061D01*
X016106Y022159D02*
X016135Y022159D01*
X015681Y022061D02*
X015676Y022061D01*
X015582Y022159D02*
X015578Y022159D01*
X015484Y022258D02*
X015479Y022258D01*
X015385Y022356D02*
X015381Y022356D01*
X015287Y022455D02*
X015282Y022455D01*
X015188Y022553D02*
X015184Y022553D01*
X015090Y022652D02*
X015085Y022652D01*
X015060Y022751D02*
X014918Y022751D01*
X014961Y022849D02*
X014820Y022849D01*
X014807Y022948D02*
X014801Y022948D01*
X014906Y023187D02*
X014906Y023262D01*
X014906Y023187D02*
X015608Y022485D01*
X015254Y022132D02*
X014542Y022844D01*
X014489Y022844D01*
X014333Y022553D02*
X013924Y022553D01*
X013825Y022455D02*
X014648Y022455D01*
X014728Y022356D02*
X013727Y022356D01*
X013628Y022258D02*
X014777Y022258D01*
X014875Y022159D02*
X013530Y022159D01*
X013436Y022061D02*
X014974Y022061D01*
X015072Y021962D02*
X013436Y021962D01*
X013436Y021864D02*
X015171Y021864D01*
X015269Y021765D02*
X013436Y021765D01*
X013436Y021667D02*
X015368Y021667D01*
X014217Y022652D02*
X014023Y022652D01*
X014121Y022751D02*
X014172Y022751D01*
X014559Y024949D02*
X014681Y025071D01*
X015046Y025071D01*
X010870Y023401D02*
X010842Y023401D01*
X010438Y022997D01*
D16*
X010870Y023401D03*
X011844Y025489D03*
X012262Y025907D03*
X011427Y026742D03*
X015046Y028134D03*
X016159Y026185D03*
X016577Y025211D03*
X016994Y024793D03*
X015918Y024199D03*
X016438Y023679D03*
X016438Y022287D03*
X014906Y023262D03*
X014489Y022844D03*
X015046Y025071D03*
X017273Y026463D03*
X017969Y027159D03*
X019639Y024932D03*
X019639Y021313D03*
X021727Y020339D03*
X022117Y019364D03*
X026181Y016441D03*
X026877Y016302D03*
X027434Y016859D03*
X027295Y017555D03*
X025764Y014910D03*
X025346Y014493D03*
X026181Y013657D03*
X025764Y013240D03*
X025346Y012822D03*
X024511Y011987D03*
X026042Y011291D03*
X026599Y014075D03*
X021727Y010874D03*
X018386Y011987D03*
X015324Y011430D03*
X014628Y010456D03*
X014071Y011848D03*
X011705Y010595D03*
X011427Y014214D03*
X010870Y015328D03*
X010313Y015328D03*
X010174Y016581D03*
X010591Y017833D03*
X010870Y020339D03*
X013236Y020478D03*
M02*
