G75*
G70*
%OFA0B0*%
%FSLAX24Y24*%
%IPPOS*%
%LPD*%
%AMOC8*
5,1,8,0,0,1.08239X$1,22.5*
%
%ADD10C,0.0000*%
%ADD11R,0.1417X0.1417*%
%ADD12C,0.0120*%
%ADD13C,0.0100*%
%ADD14C,0.0357*%
D10*
X009756Y010038D02*
X009756Y025786D01*
X009873Y026053D01*
X010003Y026314D01*
X010146Y026569D01*
X010300Y026816D01*
X010467Y027055D01*
X010645Y027287D01*
X010833Y027509D01*
X011033Y027722D01*
X011242Y027925D01*
X011461Y028117D01*
X011689Y028299D01*
X011925Y028470D01*
X012170Y028629D01*
X012422Y028776D01*
X012680Y028911D01*
X012945Y029033D01*
X013216Y029142D01*
X013491Y029238D01*
X013771Y029320D01*
X014054Y029389D01*
X014340Y029444D01*
X014629Y029485D01*
X014919Y029513D01*
X015211Y029526D01*
X015502Y029525D01*
X015794Y029510D01*
X016084Y029481D01*
X016372Y029438D01*
X016658Y029381D01*
X016941Y029310D01*
X017220Y029226D01*
X017495Y029128D01*
X017765Y029017D01*
X018029Y028893D01*
X018286Y028757D01*
X018537Y028608D01*
X018781Y028448D01*
X019016Y028276D01*
X019243Y028092D01*
X019461Y027898D01*
X019669Y027694D01*
X019866Y027480D01*
X020054Y027256D01*
X020230Y027024D01*
X020395Y026783D01*
X020548Y026535D01*
X020689Y026280D01*
X020817Y026018D01*
X020933Y025750D01*
X021035Y025477D01*
X021125Y025200D01*
X021200Y024918D01*
X021262Y024633D01*
X021310Y024345D01*
X021345Y024056D01*
X021365Y023765D01*
X021371Y023473D01*
X021363Y023182D01*
X021341Y022891D01*
X021305Y022602D01*
X021255Y022314D01*
X021191Y022030D01*
X021113Y021749D01*
X021022Y021472D01*
X020918Y021199D01*
X022368Y018112D02*
X022370Y018155D01*
X022376Y018197D01*
X022386Y018239D01*
X022399Y018280D01*
X022416Y018320D01*
X022437Y018357D01*
X022461Y018393D01*
X022488Y018426D01*
X022518Y018457D01*
X022551Y018485D01*
X022586Y018510D01*
X022623Y018531D01*
X022662Y018549D01*
X022702Y018563D01*
X022744Y018574D01*
X022786Y018581D01*
X022829Y018584D01*
X022872Y018583D01*
X022915Y018578D01*
X022957Y018569D01*
X022998Y018557D01*
X023038Y018541D01*
X023076Y018521D01*
X023112Y018498D01*
X023146Y018471D01*
X023178Y018442D01*
X023206Y018410D01*
X023232Y018375D01*
X023254Y018339D01*
X023273Y018300D01*
X023288Y018260D01*
X023300Y018219D01*
X023308Y018176D01*
X023312Y018133D01*
X023312Y018091D01*
X023308Y018048D01*
X023300Y018005D01*
X023288Y017964D01*
X023273Y017924D01*
X023254Y017885D01*
X023232Y017849D01*
X023206Y017814D01*
X023178Y017782D01*
X023146Y017753D01*
X023112Y017726D01*
X023076Y017703D01*
X023038Y017683D01*
X022998Y017667D01*
X022957Y017655D01*
X022915Y017646D01*
X022872Y017641D01*
X022829Y017640D01*
X022786Y017643D01*
X022744Y017650D01*
X022702Y017661D01*
X022662Y017675D01*
X022623Y017693D01*
X022586Y017714D01*
X022551Y017739D01*
X022518Y017767D01*
X022488Y017798D01*
X022461Y017831D01*
X022437Y017867D01*
X022416Y017904D01*
X022399Y017944D01*
X022386Y017985D01*
X022376Y018027D01*
X022370Y018069D01*
X022368Y018112D01*
X020918Y021200D02*
X021190Y021304D01*
X021467Y021395D01*
X021748Y021473D01*
X022033Y021537D01*
X022320Y021587D01*
X022609Y021623D01*
X022900Y021645D01*
X023191Y021653D01*
X023483Y021647D01*
X023774Y021627D01*
X024063Y021592D01*
X024351Y021544D01*
X024636Y021482D01*
X024918Y021407D01*
X025195Y021317D01*
X025468Y021215D01*
X025736Y021099D01*
X025998Y020971D01*
X026253Y020830D01*
X026501Y020677D01*
X026742Y020512D01*
X026974Y020336D01*
X027198Y020148D01*
X027412Y019951D01*
X027616Y019743D01*
X027810Y019525D01*
X027994Y019298D01*
X028166Y019063D01*
X028326Y018819D01*
X028475Y018568D01*
X028611Y018311D01*
X028735Y018047D01*
X028846Y017777D01*
X028944Y017502D01*
X029028Y017223D01*
X029099Y016940D01*
X029156Y016654D01*
X029199Y016366D01*
X029228Y016076D01*
X029243Y015784D01*
X029244Y015493D01*
X029231Y015201D01*
X029203Y014911D01*
X029162Y014622D01*
X029107Y014336D01*
X029038Y014053D01*
X028956Y013773D01*
X028860Y013498D01*
X028751Y013227D01*
X028629Y012962D01*
X028494Y012704D01*
X028347Y012452D01*
X028188Y012207D01*
X028017Y011971D01*
X027835Y011743D01*
X027643Y011524D01*
X027440Y011315D01*
X027227Y011115D01*
X027005Y010927D01*
X026773Y010749D01*
X026534Y010582D01*
X026287Y010428D01*
X026032Y010285D01*
X025771Y010155D01*
X025504Y010038D01*
X009756Y010038D01*
X017357Y023123D02*
X017359Y023166D01*
X017365Y023208D01*
X017375Y023250D01*
X017388Y023291D01*
X017405Y023331D01*
X017426Y023368D01*
X017450Y023404D01*
X017477Y023437D01*
X017507Y023468D01*
X017540Y023496D01*
X017575Y023521D01*
X017612Y023542D01*
X017651Y023560D01*
X017691Y023574D01*
X017733Y023585D01*
X017775Y023592D01*
X017818Y023595D01*
X017861Y023594D01*
X017904Y023589D01*
X017946Y023580D01*
X017987Y023568D01*
X018027Y023552D01*
X018065Y023532D01*
X018101Y023509D01*
X018135Y023482D01*
X018167Y023453D01*
X018195Y023421D01*
X018221Y023386D01*
X018243Y023350D01*
X018262Y023311D01*
X018277Y023271D01*
X018289Y023230D01*
X018297Y023187D01*
X018301Y023144D01*
X018301Y023102D01*
X018297Y023059D01*
X018289Y023016D01*
X018277Y022975D01*
X018262Y022935D01*
X018243Y022896D01*
X018221Y022860D01*
X018195Y022825D01*
X018167Y022793D01*
X018135Y022764D01*
X018101Y022737D01*
X018065Y022714D01*
X018027Y022694D01*
X017987Y022678D01*
X017946Y022666D01*
X017904Y022657D01*
X017861Y022652D01*
X017818Y022651D01*
X017775Y022654D01*
X017733Y022661D01*
X017691Y022672D01*
X017651Y022686D01*
X017612Y022704D01*
X017575Y022725D01*
X017540Y022750D01*
X017507Y022778D01*
X017477Y022809D01*
X017450Y022842D01*
X017426Y022878D01*
X017405Y022915D01*
X017388Y022955D01*
X017375Y022996D01*
X017365Y023038D01*
X017359Y023080D01*
X017357Y023123D01*
D11*
G36*
X010941Y020659D02*
X011942Y021660D01*
X012943Y020659D01*
X011942Y019658D01*
X010941Y020659D01*
G37*
G36*
X019376Y012224D02*
X020377Y013225D01*
X021378Y012224D01*
X020377Y011223D01*
X019376Y012224D01*
G37*
D12*
X020627Y017904D02*
X020634Y018251D01*
X020457Y018428D01*
X020719Y018689D01*
X020804Y018774D01*
X021066Y018512D01*
X021066Y018343D01*
X020889Y018166D01*
X020719Y018166D01*
X020634Y018251D01*
X020457Y018428D02*
X020366Y018336D01*
X020281Y018251D01*
X020196Y018336D02*
X020366Y018336D01*
X020196Y018336D02*
X020019Y018512D01*
X020026Y018689D01*
X020196Y018859D01*
X020373Y018682D01*
X020719Y018689D02*
X020719Y018859D01*
X020549Y019029D01*
X020380Y019029D01*
X020097Y019283D02*
X020097Y019467D01*
X019927Y019637D01*
X019757Y019637D01*
X019750Y019630D02*
X019665Y019545D01*
X019673Y018859D01*
X019326Y019205D01*
X019192Y019509D02*
X019022Y019509D01*
X018852Y019679D01*
X018852Y019849D01*
X019192Y020188D01*
X019361Y020188D01*
X019531Y020019D01*
X019531Y019849D01*
X019192Y019509D01*
X019199Y020181D01*
X018886Y020321D02*
X018886Y020664D01*
X018881Y020659D02*
X018382Y020160D01*
X018207Y020324D02*
X018550Y019981D01*
X018089Y020613D02*
X017919Y020613D01*
X017742Y020789D01*
X017742Y020959D01*
X017912Y021129D01*
X017919Y021136D02*
X018074Y021136D01*
X018166Y021044D01*
X018258Y020782D01*
X018513Y021037D01*
X018166Y021383D01*
D13*
X017956Y021371D02*
X014969Y021371D01*
X015067Y021469D02*
X017956Y021469D01*
X017956Y021470D02*
X017956Y021346D01*
X017832Y021346D01*
X017825Y021339D01*
X017825Y021339D01*
X017631Y021145D01*
X017532Y021046D01*
X017532Y020876D01*
X017532Y020702D01*
X017709Y020526D01*
X017832Y020403D01*
X017997Y020403D01*
X017997Y020237D01*
X018463Y019771D01*
X018637Y019771D01*
X018642Y019777D01*
X018642Y019762D01*
X018642Y019592D01*
X018741Y019493D01*
X018812Y019423D01*
X018812Y019422D01*
X018849Y019386D01*
X018935Y019299D01*
X019123Y019299D01*
X019116Y019292D01*
X019116Y019118D01*
X019463Y018771D01*
X019463Y018770D01*
X019525Y018709D01*
X019586Y018649D01*
X019587Y018649D01*
X019588Y018648D01*
X019675Y018649D01*
X019760Y018649D01*
X019760Y018650D01*
X019762Y018650D01*
X019816Y018705D01*
X019816Y018693D01*
X019812Y018603D01*
X019809Y018599D01*
X019809Y018516D01*
X019806Y018434D01*
X019809Y018430D01*
X019809Y018425D01*
X019868Y018367D01*
X019924Y018306D01*
X019929Y018306D01*
X019986Y018249D01*
X020109Y018126D01*
X020194Y018041D01*
X020368Y018041D01*
X020421Y018094D01*
X020415Y017822D01*
X020536Y017696D01*
X020710Y017693D01*
X020835Y017813D01*
X020838Y017956D01*
X020976Y017956D01*
X021276Y018256D01*
X021276Y018430D01*
X021276Y018599D01*
X021153Y018722D01*
X020891Y018984D01*
X020759Y019116D01*
X020636Y019239D01*
X020307Y019239D01*
X020307Y019380D01*
X020307Y019554D01*
X020137Y019724D01*
X020014Y019847D01*
X019741Y019847D01*
X019741Y019936D01*
X019741Y020106D01*
X019645Y020202D01*
X019618Y020229D01*
X019544Y020302D01*
X019448Y020398D01*
X019274Y020398D01*
X019105Y020398D01*
X019096Y020389D01*
X019096Y020751D01*
X018973Y020874D01*
X018799Y020874D01*
X018794Y020869D01*
X018794Y020869D01*
X018377Y020452D01*
X018299Y020530D01*
X018299Y020572D01*
X018345Y020572D01*
X018373Y020600D01*
X018410Y020613D01*
X018432Y020659D01*
X018723Y020950D01*
X018723Y021124D01*
X018716Y021131D01*
X018253Y021593D01*
X018079Y021593D01*
X017956Y021470D01*
X018054Y021568D02*
X015166Y021568D01*
X015264Y021667D02*
X020930Y021667D01*
X020931Y021670D02*
X020779Y021257D01*
X020755Y021200D01*
X020755Y021200D01*
X020755Y021199D01*
X020779Y021141D01*
X020802Y021085D01*
X020803Y021085D01*
X020803Y021085D01*
X020858Y021062D01*
X020917Y021037D01*
X020918Y021038D01*
X020918Y021037D01*
X020975Y021061D01*
X021388Y021213D01*
X022242Y021422D01*
X023117Y021502D01*
X023995Y021450D01*
X024856Y021268D01*
X025679Y020960D01*
X026448Y020532D01*
X027144Y019995D01*
X027752Y019360D01*
X028259Y018641D01*
X028653Y017855D01*
X028925Y017019D01*
X029070Y016152D01*
X029084Y015273D01*
X028967Y014401D01*
X028721Y013557D01*
X028352Y012759D01*
X027869Y012024D01*
X027281Y011370D01*
X026602Y010811D01*
X025848Y010359D01*
X025472Y010188D01*
X014825Y010188D01*
X014906Y010270D01*
X014956Y010391D01*
X014956Y010395D01*
X021531Y010395D01*
X021648Y010512D01*
X021681Y010545D01*
X021792Y010545D01*
X021913Y010595D01*
X022005Y010688D01*
X022055Y010808D01*
X022055Y010939D01*
X022005Y011060D01*
X021913Y011152D01*
X021792Y011202D01*
X021662Y011202D01*
X021541Y011152D01*
X021448Y011060D01*
X021398Y010939D01*
X021398Y010828D01*
X021366Y010795D01*
X014850Y010795D01*
X014684Y010795D01*
X014674Y010784D01*
X014563Y010784D01*
X014442Y010734D01*
X014350Y010642D01*
X014300Y010521D01*
X014300Y010391D01*
X014350Y010270D01*
X014431Y010188D01*
X009906Y010188D01*
X009906Y016384D01*
X009988Y016302D01*
X010108Y016252D01*
X010219Y016252D01*
X010815Y015656D01*
X010804Y015656D01*
X010684Y015606D01*
X010591Y015514D01*
X010499Y015606D01*
X010378Y015656D01*
X010248Y015656D01*
X010127Y015606D01*
X010035Y015514D01*
X009985Y015393D01*
X009985Y015262D01*
X010035Y015142D01*
X010127Y015049D01*
X010248Y014999D01*
X010359Y014999D01*
X011098Y014260D01*
X011098Y014149D01*
X011148Y014028D01*
X011240Y013936D01*
X011361Y013886D01*
X011472Y013886D01*
X011505Y013853D01*
X011505Y010860D01*
X011426Y010781D01*
X011376Y010661D01*
X011376Y010530D01*
X011426Y010409D01*
X011519Y010317D01*
X011640Y010267D01*
X011770Y010267D01*
X011891Y010317D01*
X011983Y010409D01*
X012033Y010530D01*
X012033Y010661D01*
X011983Y010781D01*
X011905Y010860D01*
X011905Y013853D01*
X011905Y014010D01*
X013837Y012078D01*
X013793Y012034D01*
X013743Y011913D01*
X013743Y011783D01*
X013793Y011662D01*
X013885Y011569D01*
X014006Y011519D01*
X014117Y011519D01*
X014706Y010930D01*
X014824Y010813D01*
X020948Y010813D01*
X021114Y010813D01*
X021130Y010829D01*
X021231Y010930D01*
X022088Y011787D01*
X024246Y011787D01*
X024325Y011709D01*
X024445Y011659D01*
X024576Y011659D01*
X024697Y011709D01*
X024789Y011801D01*
X024839Y011922D01*
X024839Y012052D01*
X024789Y012173D01*
X024697Y012266D01*
X024576Y012316D01*
X024445Y012316D01*
X024325Y012266D01*
X024246Y012187D01*
X021922Y012187D01*
X021805Y012070D01*
X020948Y011213D01*
X020580Y011213D01*
X020949Y011581D01*
X020377Y012153D01*
X020447Y012224D01*
X020377Y012294D01*
X020949Y012866D01*
X020469Y013346D01*
X020435Y013366D01*
X020396Y013376D01*
X020357Y013376D01*
X020319Y013366D01*
X020285Y013346D01*
X019805Y012866D01*
X020377Y012294D01*
X020306Y012224D01*
X019734Y012796D01*
X019255Y012316D01*
X019235Y012282D01*
X019225Y012243D01*
X019225Y012204D01*
X019235Y012166D01*
X019255Y012132D01*
X019734Y011652D01*
X020306Y012224D01*
X020377Y012153D01*
X019805Y011581D01*
X020173Y011213D01*
X015571Y011213D01*
X015602Y011244D01*
X015652Y011365D01*
X015652Y011496D01*
X015602Y011616D01*
X015510Y011709D01*
X015389Y011759D01*
X015278Y011759D01*
X010502Y016535D01*
X010502Y016646D01*
X010452Y016767D01*
X010408Y016811D01*
X015685Y022087D01*
X016173Y022087D01*
X016251Y022009D01*
X016372Y021959D01*
X016503Y021959D01*
X016624Y022009D01*
X016716Y022101D01*
X016766Y022222D01*
X016766Y022353D01*
X016716Y022474D01*
X016624Y022566D01*
X016503Y022616D01*
X016372Y022616D01*
X016251Y022566D01*
X016173Y022487D01*
X015685Y022487D01*
X015528Y022487D01*
X016392Y023351D01*
X016503Y023351D01*
X016624Y023401D01*
X016716Y023493D01*
X016766Y023614D01*
X016766Y023745D01*
X016716Y023865D01*
X016624Y023958D01*
X016503Y024008D01*
X016372Y024008D01*
X016251Y023958D01*
X016159Y023865D01*
X016109Y023745D01*
X016109Y023634D01*
X015106Y022631D01*
X015106Y022997D01*
X015185Y023076D01*
X015235Y023196D01*
X015235Y023327D01*
X015185Y023448D01*
X015106Y023526D01*
X015106Y024014D01*
X017227Y026135D01*
X017338Y026135D01*
X017459Y026185D01*
X017551Y026277D01*
X017601Y026398D01*
X017601Y026509D01*
X017923Y026831D01*
X018034Y026831D01*
X018155Y026881D01*
X018247Y026973D01*
X018297Y027094D01*
X018297Y027225D01*
X018247Y027345D01*
X018155Y027438D01*
X018034Y027488D01*
X017903Y027488D01*
X017783Y027438D01*
X017690Y027345D01*
X017640Y027225D01*
X017640Y027114D01*
X017318Y026792D01*
X017207Y026792D01*
X017087Y026742D01*
X016994Y026649D01*
X016944Y026529D01*
X016944Y026418D01*
X014742Y024216D01*
X014706Y024180D01*
X014706Y023526D01*
X014628Y023448D01*
X014578Y023327D01*
X014578Y023196D01*
X014595Y023156D01*
X014554Y023173D01*
X014443Y023173D01*
X012405Y025211D01*
X015000Y027805D01*
X015111Y027805D01*
X015232Y027855D01*
X015324Y027948D01*
X015374Y028068D01*
X015374Y028199D01*
X015324Y028320D01*
X015232Y028412D01*
X015111Y028462D01*
X014980Y028462D01*
X014860Y028412D01*
X014767Y028320D01*
X014717Y028199D01*
X014717Y028088D01*
X012590Y025961D01*
X012590Y025972D01*
X012540Y026093D01*
X012448Y026185D01*
X012327Y026235D01*
X012216Y026235D01*
X012127Y026324D01*
X014432Y028630D01*
X016215Y028630D01*
X016794Y028051D01*
X016900Y027945D01*
X016911Y027934D01*
X017077Y027934D01*
X018025Y027934D01*
X019021Y026937D01*
X019021Y025267D01*
X019139Y025150D01*
X019311Y024978D01*
X019311Y024867D01*
X019361Y024746D01*
X019453Y024654D01*
X019574Y024604D01*
X019704Y024604D01*
X019825Y024654D01*
X019917Y024746D01*
X019967Y024867D01*
X019967Y024998D01*
X019917Y025118D01*
X019825Y025211D01*
X019704Y025261D01*
X019593Y025261D01*
X019421Y025433D01*
X019421Y026937D01*
X019421Y027103D01*
X018308Y028216D01*
X018191Y028334D01*
X017077Y028334D01*
X016498Y028912D01*
X016498Y028912D01*
X016381Y029030D01*
X014432Y029030D01*
X014267Y029030D01*
X014229Y028992D01*
X014150Y028912D01*
X011844Y026607D01*
X011755Y026696D01*
X011755Y026807D01*
X011705Y026928D01*
X011613Y027020D01*
X011492Y027070D01*
X011361Y027070D01*
X011240Y027020D01*
X011148Y026928D01*
X011098Y026807D01*
X011098Y026676D01*
X011148Y026556D01*
X011240Y026463D01*
X011361Y026413D01*
X011472Y026413D01*
X011644Y026241D01*
X011761Y026124D01*
X011933Y025952D01*
X011933Y025841D01*
X011983Y025720D01*
X012076Y025628D01*
X012196Y025578D01*
X012207Y025578D01*
X012040Y025411D01*
X009906Y025411D01*
X009906Y025313D02*
X011942Y025313D01*
X012040Y025411D02*
X010252Y023623D01*
X010252Y023457D01*
X010252Y020674D01*
X010369Y020556D01*
X010541Y020384D01*
X010541Y020273D01*
X010591Y020153D01*
X010684Y020060D01*
X010804Y020010D01*
X010935Y020010D01*
X011056Y020060D01*
X011148Y020153D01*
X011173Y020213D01*
X011879Y019507D01*
X011982Y019507D01*
X010637Y018162D01*
X010526Y018162D01*
X010405Y018112D01*
X010313Y018019D01*
X010263Y017899D01*
X010263Y017768D01*
X010313Y017647D01*
X010405Y017555D01*
X010526Y017505D01*
X010537Y017505D01*
X009974Y016942D01*
X009974Y016845D01*
X009906Y016777D01*
X009906Y025754D01*
X010077Y026130D01*
X010529Y026884D01*
X011088Y027563D01*
X011742Y028151D01*
X012476Y028635D01*
X013275Y029003D01*
X014119Y029249D01*
X014991Y029366D01*
X015870Y029352D01*
X016737Y029208D01*
X017573Y028935D01*
X018359Y028541D01*
X019078Y028034D01*
X019713Y027426D01*
X020250Y026730D01*
X020678Y025961D01*
X020986Y025138D01*
X021168Y024277D01*
X021220Y023400D01*
X021140Y022524D01*
X020931Y021670D01*
X020954Y021765D02*
X015363Y021765D01*
X015461Y021864D02*
X020978Y021864D01*
X021002Y021962D02*
X016510Y021962D01*
X016365Y021962D02*
X015560Y021962D01*
X015658Y022061D02*
X016200Y022061D01*
X016438Y022287D02*
X015602Y022287D01*
X010174Y016859D01*
X010174Y016581D01*
X015324Y011430D01*
X015652Y011418D02*
X019968Y011418D01*
X019870Y011517D02*
X015644Y011517D01*
X015603Y011615D02*
X019839Y011615D01*
X019796Y011714D02*
X019937Y011714D01*
X019895Y011812D02*
X020036Y011812D01*
X019993Y011911D02*
X020134Y011911D01*
X020092Y012009D02*
X020233Y012009D01*
X020190Y012108D02*
X020331Y012108D01*
X020422Y012108D02*
X020563Y012108D01*
X020521Y012009D02*
X020662Y012009D01*
X020619Y011911D02*
X020760Y011911D01*
X020718Y011812D02*
X020859Y011812D01*
X020816Y011714D02*
X020957Y011714D01*
X021019Y011652D02*
X021499Y012132D01*
X021519Y012166D01*
X021529Y012204D01*
X021529Y012243D01*
X021519Y012282D01*
X021499Y012316D01*
X021019Y012796D01*
X020447Y012224D01*
X021019Y011652D01*
X021081Y011714D02*
X021449Y011714D01*
X021548Y011812D02*
X021179Y011812D01*
X021278Y011911D02*
X021646Y011911D01*
X021745Y012009D02*
X021377Y012009D01*
X021475Y012108D02*
X021843Y012108D01*
X021805Y012070D02*
X021805Y012070D01*
X022005Y011987D02*
X024511Y011987D01*
X024816Y012108D02*
X026576Y012108D01*
X026674Y012206D02*
X024756Y012206D01*
X024602Y012305D02*
X026773Y012305D01*
X026871Y012403D02*
X021411Y012403D01*
X021505Y012305D02*
X024420Y012305D01*
X024266Y012206D02*
X021529Y012206D01*
X021313Y012502D02*
X026970Y012502D01*
X027069Y012601D02*
X021214Y012601D01*
X021116Y012699D02*
X022402Y012699D01*
X022465Y012636D02*
X022479Y012622D01*
X024428Y012622D01*
X024594Y012622D01*
X027795Y015824D01*
X027912Y015941D01*
X027912Y016498D01*
X027912Y016655D01*
X027930Y016637D01*
X027930Y013462D01*
X026087Y011620D01*
X025977Y011620D01*
X025856Y011570D01*
X025764Y011477D01*
X025714Y011356D01*
X025714Y011226D01*
X025764Y011105D01*
X025856Y011013D01*
X025977Y010963D01*
X026107Y010963D01*
X026228Y011013D01*
X026320Y011105D01*
X026370Y011226D01*
X026370Y011337D01*
X028330Y013296D01*
X028330Y013462D01*
X028330Y016803D01*
X028213Y016920D01*
X028213Y016920D01*
X027623Y017509D01*
X027623Y017620D01*
X027573Y017741D01*
X027481Y017833D01*
X027360Y017883D01*
X027229Y017883D01*
X027109Y017833D01*
X027016Y017741D01*
X026966Y017620D01*
X026966Y017609D01*
X024154Y020422D01*
X024037Y020539D01*
X021991Y020539D01*
X021913Y020617D01*
X021792Y020667D01*
X021662Y020667D01*
X021541Y020617D01*
X021448Y020525D01*
X021398Y020404D01*
X021398Y020273D01*
X021448Y020153D01*
X021541Y020060D01*
X021662Y020010D01*
X021792Y020010D01*
X021913Y020060D01*
X021991Y020139D01*
X023871Y020139D01*
X027105Y016904D01*
X027105Y016794D01*
X027155Y016673D01*
X027248Y016581D01*
X027369Y016531D01*
X027479Y016531D01*
X027512Y016498D01*
X027512Y016107D01*
X024428Y013022D01*
X022645Y013022D01*
X021810Y013857D01*
X021644Y013857D01*
X019974Y013857D01*
X019857Y013740D01*
X018432Y012316D01*
X018321Y012316D01*
X018200Y012266D01*
X018108Y012173D01*
X018058Y012052D01*
X018058Y011922D01*
X018108Y011801D01*
X018200Y011709D01*
X018321Y011659D01*
X018452Y011659D01*
X018572Y011709D01*
X018665Y011801D01*
X018715Y011922D01*
X018715Y012033D01*
X020139Y013457D01*
X021644Y013457D01*
X022465Y012636D01*
X022562Y012822D02*
X024511Y012822D01*
X027712Y016024D01*
X027712Y016581D01*
X027434Y016859D01*
X023954Y020339D01*
X021727Y020339D01*
X021948Y020583D02*
X026357Y020583D01*
X026510Y020484D02*
X024092Y020484D01*
X024190Y020385D02*
X026638Y020385D01*
X026766Y020287D02*
X024289Y020287D01*
X024387Y020188D02*
X026893Y020188D01*
X027021Y020090D02*
X024486Y020090D01*
X024584Y019991D02*
X027147Y019991D01*
X027242Y019893D02*
X024683Y019893D01*
X024781Y019794D02*
X027336Y019794D01*
X027430Y019696D02*
X024880Y019696D01*
X024978Y019597D02*
X027525Y019597D01*
X027619Y019499D02*
X025077Y019499D01*
X025176Y019400D02*
X027714Y019400D01*
X027793Y019301D02*
X025274Y019301D01*
X025373Y019203D02*
X027863Y019203D01*
X027932Y019104D02*
X025471Y019104D01*
X025570Y019006D02*
X028002Y019006D01*
X028071Y018907D02*
X025668Y018907D01*
X025767Y018809D02*
X028141Y018809D01*
X028210Y018710D02*
X025865Y018710D01*
X025964Y018612D02*
X028274Y018612D01*
X028323Y018513D02*
X026062Y018513D01*
X026161Y018415D02*
X028372Y018415D01*
X028422Y018316D02*
X026260Y018316D01*
X026358Y018218D02*
X028471Y018218D01*
X028521Y018119D02*
X026457Y018119D01*
X026555Y018020D02*
X028570Y018020D01*
X028619Y017922D02*
X026654Y017922D01*
X026752Y017823D02*
X027099Y017823D01*
X027010Y017725D02*
X026851Y017725D01*
X026949Y017626D02*
X026969Y017626D01*
X027295Y017555D02*
X028130Y016720D01*
X028130Y013379D01*
X026042Y011291D01*
X025739Y011418D02*
X021719Y011418D01*
X021620Y011319D02*
X025714Y011319D01*
X025715Y011221D02*
X021522Y011221D01*
X021511Y011122D02*
X021423Y011122D01*
X021434Y011024D02*
X021325Y011024D01*
X021398Y010925D02*
X021226Y010925D01*
X021231Y010930D02*
X021231Y010930D01*
X021128Y010827D02*
X021397Y010827D01*
X021449Y010595D02*
X014767Y010595D01*
X014628Y010456D01*
X014933Y010334D02*
X025792Y010334D01*
X025970Y010433D02*
X021569Y010433D01*
X021667Y010531D02*
X026134Y010531D01*
X026299Y010630D02*
X021947Y010630D01*
X022022Y010728D02*
X026463Y010728D01*
X026621Y010827D02*
X022055Y010827D01*
X022055Y010925D02*
X026741Y010925D01*
X026860Y011024D02*
X026239Y011024D01*
X026327Y011122D02*
X026980Y011122D01*
X027099Y011221D02*
X026368Y011221D01*
X026370Y011319D02*
X027219Y011319D01*
X027324Y011418D02*
X026452Y011418D01*
X026550Y011517D02*
X027412Y011517D01*
X027501Y011615D02*
X026649Y011615D01*
X026747Y011714D02*
X027589Y011714D01*
X027678Y011812D02*
X026846Y011812D01*
X026944Y011911D02*
X027766Y011911D01*
X027855Y012009D02*
X027043Y012009D01*
X027141Y012108D02*
X027924Y012108D01*
X027988Y012206D02*
X027240Y012206D01*
X027339Y012305D02*
X028053Y012305D01*
X028118Y012403D02*
X027437Y012403D01*
X027536Y012502D02*
X028183Y012502D01*
X028248Y012601D02*
X027634Y012601D01*
X027733Y012699D02*
X028313Y012699D01*
X028370Y012798D02*
X027831Y012798D01*
X027930Y012896D02*
X028416Y012896D01*
X028461Y012995D02*
X028028Y012995D01*
X028127Y013093D02*
X028507Y013093D01*
X028552Y013192D02*
X028225Y013192D01*
X028324Y013290D02*
X028598Y013290D01*
X028644Y013389D02*
X028330Y013389D01*
X028330Y013487D02*
X028689Y013487D01*
X028730Y013586D02*
X028330Y013586D01*
X028330Y013685D02*
X028758Y013685D01*
X028787Y013783D02*
X028330Y013783D01*
X028330Y013882D02*
X028816Y013882D01*
X028844Y013980D02*
X028330Y013980D01*
X028330Y014079D02*
X028873Y014079D01*
X028902Y014177D02*
X028330Y014177D01*
X028330Y014276D02*
X028930Y014276D01*
X028959Y014374D02*
X028330Y014374D01*
X028330Y014473D02*
X028977Y014473D01*
X028990Y014571D02*
X028330Y014571D01*
X028330Y014670D02*
X029003Y014670D01*
X029016Y014769D02*
X028330Y014769D01*
X028330Y014867D02*
X029030Y014867D01*
X029043Y014966D02*
X028330Y014966D01*
X028330Y015064D02*
X029056Y015064D01*
X029069Y015163D02*
X028330Y015163D01*
X028330Y015261D02*
X029083Y015261D01*
X029083Y015360D02*
X028330Y015360D01*
X028330Y015458D02*
X029081Y015458D01*
X029080Y015557D02*
X028330Y015557D01*
X028330Y015655D02*
X029078Y015655D01*
X029077Y015754D02*
X028330Y015754D01*
X028330Y015852D02*
X029075Y015852D01*
X029073Y015951D02*
X028330Y015951D01*
X028330Y016050D02*
X029072Y016050D01*
X029070Y016148D02*
X028330Y016148D01*
X028330Y016247D02*
X029054Y016247D01*
X029038Y016345D02*
X028330Y016345D01*
X028330Y016444D02*
X029021Y016444D01*
X029005Y016542D02*
X028330Y016542D01*
X028330Y016641D02*
X028989Y016641D01*
X028972Y016739D02*
X028330Y016739D01*
X028294Y016838D02*
X028956Y016838D01*
X028939Y016936D02*
X028196Y016936D01*
X028097Y017035D02*
X028920Y017035D01*
X028888Y017134D02*
X027999Y017134D01*
X027900Y017232D02*
X028856Y017232D01*
X028824Y017331D02*
X027802Y017331D01*
X027703Y017429D02*
X028792Y017429D01*
X028760Y017528D02*
X027623Y017528D01*
X027621Y017626D02*
X028728Y017626D01*
X028695Y017725D02*
X027580Y017725D01*
X027491Y017823D02*
X028663Y017823D01*
X027926Y016641D02*
X027912Y016641D01*
X027912Y016542D02*
X027930Y016542D01*
X027930Y016444D02*
X027912Y016444D01*
X027912Y016345D02*
X027930Y016345D01*
X027930Y016247D02*
X027912Y016247D01*
X027912Y016148D02*
X027930Y016148D01*
X027930Y016050D02*
X027912Y016050D01*
X027912Y015951D02*
X027930Y015951D01*
X027930Y015852D02*
X027824Y015852D01*
X027725Y015754D02*
X027930Y015754D01*
X027930Y015655D02*
X027627Y015655D01*
X027528Y015557D02*
X027930Y015557D01*
X027930Y015458D02*
X027430Y015458D01*
X027331Y015360D02*
X027930Y015360D01*
X027930Y015261D02*
X027233Y015261D01*
X027134Y015163D02*
X027930Y015163D01*
X027930Y015064D02*
X027035Y015064D01*
X026937Y014966D02*
X027930Y014966D01*
X027930Y014867D02*
X026838Y014867D01*
X026740Y014769D02*
X027930Y014769D01*
X027930Y014670D02*
X026641Y014670D01*
X026543Y014571D02*
X027930Y014571D01*
X027930Y014473D02*
X026444Y014473D01*
X026346Y014374D02*
X027930Y014374D01*
X027930Y014276D02*
X026247Y014276D01*
X026149Y014177D02*
X027930Y014177D01*
X027930Y014079D02*
X026050Y014079D01*
X025951Y013980D02*
X027930Y013980D01*
X027930Y013882D02*
X025853Y013882D01*
X025754Y013783D02*
X027930Y013783D01*
X027930Y013685D02*
X025656Y013685D01*
X025557Y013586D02*
X027930Y013586D01*
X027930Y013487D02*
X025459Y013487D01*
X025360Y013389D02*
X027857Y013389D01*
X027758Y013290D02*
X025262Y013290D01*
X025163Y013192D02*
X027660Y013192D01*
X027561Y013093D02*
X025065Y013093D01*
X024966Y012995D02*
X027463Y012995D01*
X027364Y012896D02*
X024868Y012896D01*
X024769Y012798D02*
X027266Y012798D01*
X027167Y012699D02*
X024670Y012699D01*
X024499Y013093D02*
X022574Y013093D01*
X022475Y013192D02*
X024597Y013192D01*
X024696Y013290D02*
X022377Y013290D01*
X022278Y013389D02*
X024795Y013389D01*
X024893Y013487D02*
X022180Y013487D01*
X022081Y013586D02*
X024992Y013586D01*
X025090Y013685D02*
X021983Y013685D01*
X021884Y013783D02*
X025189Y013783D01*
X025287Y013882D02*
X013156Y013882D01*
X013254Y013783D02*
X019899Y013783D01*
X019801Y013685D02*
X013353Y013685D01*
X013451Y013586D02*
X019702Y013586D01*
X019604Y013487D02*
X013550Y013487D01*
X013648Y013389D02*
X019505Y013389D01*
X019407Y013290D02*
X013747Y013290D01*
X013845Y013192D02*
X019308Y013192D01*
X019210Y013093D02*
X013944Y013093D01*
X014042Y012995D02*
X019111Y012995D01*
X019012Y012896D02*
X014141Y012896D01*
X014239Y012798D02*
X018914Y012798D01*
X018815Y012699D02*
X014338Y012699D01*
X014437Y012601D02*
X018717Y012601D01*
X018618Y012502D02*
X014535Y012502D01*
X014634Y012403D02*
X018520Y012403D01*
X018295Y012305D02*
X014732Y012305D01*
X014831Y012206D02*
X018141Y012206D01*
X018081Y012108D02*
X014929Y012108D01*
X015028Y012009D02*
X018058Y012009D01*
X018062Y011911D02*
X015126Y011911D01*
X015225Y011812D02*
X018103Y011812D01*
X018195Y011714D02*
X015498Y011714D01*
X015634Y011319D02*
X020067Y011319D01*
X020165Y011221D02*
X015579Y011221D01*
X014906Y011013D02*
X021031Y011013D01*
X022005Y011987D01*
X022015Y011714D02*
X024320Y011714D01*
X024702Y011714D02*
X026182Y011714D01*
X026280Y011812D02*
X024794Y011812D01*
X024835Y011911D02*
X026379Y011911D01*
X026477Y012009D02*
X024839Y012009D01*
X025803Y011517D02*
X021818Y011517D01*
X021916Y011615D02*
X025966Y011615D01*
X025756Y011122D02*
X021942Y011122D01*
X022020Y011024D02*
X025845Y011024D01*
X025575Y010236D02*
X014872Y010236D01*
X014436Y010728D02*
X012005Y010728D01*
X012033Y010630D02*
X014344Y010630D01*
X014304Y010531D02*
X012033Y010531D01*
X011993Y010433D02*
X014300Y010433D01*
X014323Y010334D02*
X011908Y010334D01*
X011705Y010595D02*
X011705Y013936D01*
X011427Y014214D01*
X010313Y015328D01*
X010548Y015557D02*
X010634Y015557D01*
X010803Y015655D02*
X010380Y015655D01*
X010246Y015655D02*
X009906Y015655D01*
X009906Y015557D02*
X010078Y015557D01*
X010012Y015458D02*
X009906Y015458D01*
X009906Y015360D02*
X009985Y015360D01*
X009985Y015261D02*
X009906Y015261D01*
X009906Y015163D02*
X010026Y015163D01*
X010112Y015064D02*
X009906Y015064D01*
X009906Y014966D02*
X010392Y014966D01*
X010491Y014867D02*
X009906Y014867D01*
X009906Y014769D02*
X010589Y014769D01*
X010688Y014670D02*
X009906Y014670D01*
X009906Y014571D02*
X010786Y014571D01*
X010885Y014473D02*
X009906Y014473D01*
X009906Y014374D02*
X010984Y014374D01*
X011082Y014276D02*
X009906Y014276D01*
X009906Y014177D02*
X011098Y014177D01*
X011127Y014079D02*
X009906Y014079D01*
X009906Y013980D02*
X011196Y013980D01*
X011476Y013882D02*
X009906Y013882D01*
X009906Y013783D02*
X011505Y013783D01*
X011505Y013685D02*
X009906Y013685D01*
X009906Y013586D02*
X011505Y013586D01*
X011505Y013487D02*
X009906Y013487D01*
X009906Y013389D02*
X011505Y013389D01*
X011505Y013290D02*
X009906Y013290D01*
X009906Y013192D02*
X011505Y013192D01*
X011505Y013093D02*
X009906Y013093D01*
X009906Y012995D02*
X011505Y012995D01*
X011505Y012896D02*
X009906Y012896D01*
X009906Y012798D02*
X011505Y012798D01*
X011505Y012699D02*
X009906Y012699D01*
X009906Y012601D02*
X011505Y012601D01*
X011505Y012502D02*
X009906Y012502D01*
X009906Y012403D02*
X011505Y012403D01*
X011505Y012305D02*
X009906Y012305D01*
X009906Y012206D02*
X011505Y012206D01*
X011505Y012108D02*
X009906Y012108D01*
X009906Y012009D02*
X011505Y012009D01*
X011505Y011911D02*
X009906Y011911D01*
X009906Y011812D02*
X011505Y011812D01*
X011505Y011714D02*
X009906Y011714D01*
X009906Y011615D02*
X011505Y011615D01*
X011505Y011517D02*
X009906Y011517D01*
X009906Y011418D02*
X011505Y011418D01*
X011505Y011319D02*
X009906Y011319D01*
X009906Y011221D02*
X011505Y011221D01*
X011505Y011122D02*
X009906Y011122D01*
X009906Y011024D02*
X011505Y011024D01*
X011505Y010925D02*
X009906Y010925D01*
X009906Y010827D02*
X011472Y010827D01*
X011405Y010728D02*
X009906Y010728D01*
X009906Y010630D02*
X011376Y010630D01*
X011376Y010531D02*
X009906Y010531D01*
X009906Y010433D02*
X011417Y010433D01*
X011502Y010334D02*
X009906Y010334D01*
X009906Y010236D02*
X014384Y010236D01*
X014809Y010827D02*
X011938Y010827D01*
X011905Y010925D02*
X014711Y010925D01*
X014612Y011024D02*
X011905Y011024D01*
X011905Y011122D02*
X014514Y011122D01*
X014415Y011221D02*
X011905Y011221D01*
X011905Y011319D02*
X014317Y011319D01*
X014218Y011418D02*
X011905Y011418D01*
X011905Y011517D02*
X014120Y011517D01*
X013840Y011615D02*
X011905Y011615D01*
X011905Y011714D02*
X013771Y011714D01*
X013743Y011812D02*
X011905Y011812D01*
X011905Y011911D02*
X013743Y011911D01*
X013783Y012009D02*
X011905Y012009D01*
X011905Y012108D02*
X013807Y012108D01*
X013708Y012206D02*
X011905Y012206D01*
X011905Y012305D02*
X013610Y012305D01*
X013511Y012403D02*
X011905Y012403D01*
X011905Y012502D02*
X013413Y012502D01*
X013314Y012601D02*
X011905Y012601D01*
X011905Y012699D02*
X013216Y012699D01*
X013117Y012798D02*
X011905Y012798D01*
X011905Y012896D02*
X013019Y012896D01*
X012920Y012995D02*
X011905Y012995D01*
X011905Y013093D02*
X012821Y013093D01*
X012723Y013192D02*
X011905Y013192D01*
X011905Y013290D02*
X012624Y013290D01*
X012526Y013389D02*
X011905Y013389D01*
X011905Y013487D02*
X012427Y013487D01*
X012329Y013586D02*
X011905Y013586D01*
X011905Y013685D02*
X012230Y013685D01*
X012132Y013783D02*
X011905Y013783D01*
X011905Y013882D02*
X012033Y013882D01*
X011935Y013980D02*
X011905Y013980D01*
X012466Y014571D02*
X025977Y014571D01*
X025879Y014473D02*
X012564Y014473D01*
X012663Y014374D02*
X025780Y014374D01*
X025681Y014276D02*
X012761Y014276D01*
X012860Y014177D02*
X025583Y014177D01*
X025484Y014079D02*
X012958Y014079D01*
X013057Y013980D02*
X025386Y013980D01*
X026076Y014670D02*
X012367Y014670D01*
X012269Y014769D02*
X026174Y014769D01*
X026273Y014867D02*
X012170Y014867D01*
X012072Y014966D02*
X026371Y014966D01*
X026470Y015064D02*
X011973Y015064D01*
X011874Y015163D02*
X026568Y015163D01*
X026667Y015261D02*
X011776Y015261D01*
X011677Y015360D02*
X026765Y015360D01*
X026864Y015458D02*
X011579Y015458D01*
X011480Y015557D02*
X026963Y015557D01*
X027061Y015655D02*
X011382Y015655D01*
X011283Y015754D02*
X027160Y015754D01*
X027258Y015852D02*
X011185Y015852D01*
X011086Y015951D02*
X027357Y015951D01*
X027455Y016050D02*
X027089Y016050D01*
X027063Y016024D02*
X027155Y016116D01*
X027205Y016237D01*
X027205Y016367D01*
X027155Y016488D01*
X027063Y016581D01*
X026942Y016631D01*
X026831Y016631D01*
X023597Y019865D01*
X023480Y019982D01*
X021253Y019982D01*
X019967Y021268D01*
X019967Y021378D01*
X019917Y021499D01*
X019825Y021592D01*
X019704Y021642D01*
X019574Y021642D01*
X019453Y021592D01*
X019361Y021499D01*
X019311Y021378D01*
X019311Y021248D01*
X019361Y021127D01*
X019453Y021035D01*
X019574Y020985D01*
X019685Y020985D01*
X021087Y019582D01*
X021253Y019582D01*
X021870Y019582D01*
X021838Y019550D01*
X021788Y019430D01*
X021788Y019299D01*
X021838Y019178D01*
X021931Y019086D01*
X022051Y019036D01*
X022182Y019036D01*
X022303Y019086D01*
X022381Y019164D01*
X023175Y019164D01*
X025853Y016487D01*
X025853Y016376D01*
X025903Y016255D01*
X025995Y016163D01*
X026116Y016113D01*
X026246Y016113D01*
X026367Y016163D01*
X026460Y016255D01*
X026510Y016376D01*
X026510Y016387D01*
X026549Y016348D01*
X026549Y016237D01*
X026599Y016116D01*
X026691Y016024D01*
X026812Y015974D01*
X026942Y015974D01*
X027063Y016024D01*
X027169Y016148D02*
X027512Y016148D01*
X027512Y016247D02*
X027205Y016247D01*
X027205Y016345D02*
X027512Y016345D01*
X027512Y016444D02*
X027174Y016444D01*
X027101Y016542D02*
X027340Y016542D01*
X027187Y016641D02*
X026821Y016641D01*
X026723Y016739D02*
X027128Y016739D01*
X027105Y016838D02*
X026624Y016838D01*
X026526Y016936D02*
X027073Y016936D01*
X026975Y017035D02*
X026427Y017035D01*
X026329Y017134D02*
X026876Y017134D01*
X026778Y017232D02*
X026230Y017232D01*
X026131Y017331D02*
X026679Y017331D01*
X026581Y017429D02*
X026033Y017429D01*
X025934Y017528D02*
X026482Y017528D01*
X026384Y017626D02*
X025836Y017626D01*
X025737Y017725D02*
X026285Y017725D01*
X026187Y017823D02*
X025639Y017823D01*
X025540Y017922D02*
X026088Y017922D01*
X025989Y018020D02*
X025442Y018020D01*
X025343Y018119D02*
X025891Y018119D01*
X025792Y018218D02*
X025245Y018218D01*
X025146Y018316D02*
X025694Y018316D01*
X025595Y018415D02*
X025047Y018415D01*
X024949Y018513D02*
X025497Y018513D01*
X025398Y018612D02*
X024850Y018612D01*
X024752Y018710D02*
X025300Y018710D01*
X025201Y018809D02*
X024653Y018809D01*
X024555Y018907D02*
X025103Y018907D01*
X025004Y019006D02*
X024456Y019006D01*
X024358Y019104D02*
X024906Y019104D01*
X024807Y019203D02*
X024259Y019203D01*
X024161Y019301D02*
X024708Y019301D01*
X024610Y019400D02*
X024062Y019400D01*
X023963Y019499D02*
X024511Y019499D01*
X024413Y019597D02*
X023865Y019597D01*
X023766Y019696D02*
X024314Y019696D01*
X024216Y019794D02*
X023668Y019794D01*
X023569Y019893D02*
X024117Y019893D01*
X024019Y019991D02*
X021244Y019991D01*
X021145Y020090D02*
X021511Y020090D01*
X021434Y020188D02*
X021047Y020188D01*
X020948Y020287D02*
X021398Y020287D01*
X021398Y020385D02*
X020849Y020385D01*
X020751Y020484D02*
X021432Y020484D01*
X021506Y020583D02*
X020652Y020583D01*
X020554Y020681D02*
X026180Y020681D01*
X026003Y020780D02*
X020455Y020780D01*
X020357Y020878D02*
X025826Y020878D01*
X025634Y020977D02*
X020258Y020977D01*
X020160Y021075D02*
X020826Y021075D01*
X020766Y021174D02*
X020061Y021174D01*
X019967Y021272D02*
X020785Y021272D01*
X020821Y021371D02*
X019967Y021371D01*
X019930Y021469D02*
X020857Y021469D01*
X020893Y021568D02*
X019849Y021568D01*
X019639Y021313D02*
X021170Y019782D01*
X023397Y019782D01*
X026877Y016302D01*
X026665Y016050D02*
X010988Y016050D01*
X010889Y016148D02*
X026031Y016148D01*
X025911Y016247D02*
X010790Y016247D01*
X010692Y016345D02*
X025865Y016345D01*
X025853Y016444D02*
X010593Y016444D01*
X010502Y016542D02*
X025797Y016542D01*
X025699Y016641D02*
X010502Y016641D01*
X010463Y016739D02*
X025600Y016739D01*
X025502Y016838D02*
X010436Y016838D01*
X010534Y016936D02*
X025403Y016936D01*
X025305Y017035D02*
X010633Y017035D01*
X010731Y017134D02*
X025206Y017134D01*
X025107Y017232D02*
X010830Y017232D01*
X010928Y017331D02*
X025009Y017331D01*
X024910Y017429D02*
X011027Y017429D01*
X011125Y017528D02*
X022624Y017528D01*
X022717Y017489D02*
X022964Y017489D01*
X023193Y017584D01*
X023368Y017759D01*
X023463Y017988D01*
X023463Y018235D01*
X023368Y018464D01*
X023193Y018639D01*
X022964Y018734D01*
X022717Y018734D01*
X022488Y018639D01*
X022313Y018464D01*
X022218Y018235D01*
X022218Y017988D01*
X022313Y017759D01*
X022488Y017584D01*
X022717Y017489D01*
X022446Y017626D02*
X011224Y017626D01*
X011322Y017725D02*
X020508Y017725D01*
X020415Y017823D02*
X011421Y017823D01*
X011520Y017922D02*
X020417Y017922D01*
X020419Y018020D02*
X011618Y018020D01*
X011717Y018119D02*
X020116Y018119D01*
X020109Y018126D02*
X020109Y018126D01*
X020017Y018218D02*
X011815Y018218D01*
X011914Y018316D02*
X019914Y018316D01*
X019820Y018415D02*
X012012Y018415D01*
X012111Y018513D02*
X019809Y018513D01*
X019813Y018612D02*
X012209Y018612D01*
X012308Y018710D02*
X019524Y018710D01*
X019426Y018809D02*
X012406Y018809D01*
X012505Y018907D02*
X019327Y018907D01*
X019229Y019006D02*
X012604Y019006D01*
X012702Y019104D02*
X019130Y019104D01*
X019116Y019203D02*
X012801Y019203D01*
X012899Y019301D02*
X018933Y019301D01*
X018935Y019299D02*
X018935Y019299D01*
X018834Y019400D02*
X012998Y019400D01*
X013096Y019499D02*
X018736Y019499D01*
X018642Y019597D02*
X013195Y019597D01*
X013293Y019696D02*
X018642Y019696D01*
X018440Y019794D02*
X013392Y019794D01*
X013490Y019893D02*
X018342Y019893D01*
X018243Y019991D02*
X013589Y019991D01*
X013688Y020090D02*
X018145Y020090D01*
X018046Y020188D02*
X013786Y020188D01*
X013885Y020287D02*
X017997Y020287D01*
X017997Y020385D02*
X013983Y020385D01*
X014082Y020484D02*
X017751Y020484D01*
X017652Y020583D02*
X014180Y020583D01*
X014279Y020681D02*
X017553Y020681D01*
X017532Y020780D02*
X014377Y020780D01*
X014476Y020878D02*
X017532Y020878D01*
X017532Y020977D02*
X014574Y020977D01*
X014673Y021075D02*
X017561Y021075D01*
X017660Y021174D02*
X014771Y021174D01*
X014870Y021272D02*
X017759Y021272D01*
X018279Y021568D02*
X019429Y021568D01*
X019348Y021469D02*
X018377Y021469D01*
X018476Y021371D02*
X019311Y021371D01*
X019311Y021272D02*
X018574Y021272D01*
X018673Y021174D02*
X019341Y021174D01*
X019412Y021075D02*
X018723Y021075D01*
X018723Y020977D02*
X019693Y020977D01*
X019791Y020878D02*
X018651Y020878D01*
X018705Y020780D02*
X018553Y020780D01*
X018606Y020681D02*
X018454Y020681D01*
X018508Y020583D02*
X018356Y020583D01*
X018344Y020484D02*
X018409Y020484D01*
X019096Y020484D02*
X020185Y020484D01*
X020087Y020583D02*
X019096Y020583D01*
X019096Y020681D02*
X019988Y020681D01*
X019890Y020780D02*
X019067Y020780D01*
X019448Y020398D02*
X019448Y020398D01*
X019461Y020385D02*
X020284Y020385D01*
X020382Y020287D02*
X019560Y020287D01*
X019618Y020229D02*
X019618Y020229D01*
X019658Y020188D02*
X020481Y020188D01*
X020579Y020090D02*
X019741Y020090D01*
X019741Y020106D02*
X019741Y020106D01*
X019741Y019991D02*
X020678Y019991D01*
X020776Y019893D02*
X019741Y019893D01*
X020067Y019794D02*
X020875Y019794D01*
X020974Y019696D02*
X020165Y019696D01*
X020264Y019597D02*
X021072Y019597D01*
X020672Y019203D02*
X021828Y019203D01*
X021788Y019301D02*
X020307Y019301D01*
X020307Y019400D02*
X021788Y019400D01*
X021817Y019499D02*
X020307Y019499D01*
X020771Y019104D02*
X021912Y019104D01*
X022117Y019364D02*
X023258Y019364D01*
X026181Y016441D01*
X026331Y016148D02*
X026585Y016148D01*
X026549Y016247D02*
X026451Y016247D01*
X026497Y016345D02*
X026549Y016345D01*
X024812Y017528D02*
X023057Y017528D01*
X023235Y017626D02*
X024713Y017626D01*
X024615Y017725D02*
X023334Y017725D01*
X023395Y017823D02*
X024516Y017823D01*
X024418Y017922D02*
X023436Y017922D01*
X023463Y018020D02*
X024319Y018020D01*
X024221Y018119D02*
X023463Y018119D01*
X023463Y018218D02*
X024122Y018218D01*
X024024Y018316D02*
X023429Y018316D01*
X023389Y018415D02*
X023925Y018415D01*
X023826Y018513D02*
X023319Y018513D01*
X023221Y018612D02*
X023728Y018612D01*
X023629Y018710D02*
X023022Y018710D01*
X022659Y018710D02*
X021165Y018710D01*
X021263Y018612D02*
X022460Y018612D01*
X022362Y018513D02*
X021276Y018513D01*
X021276Y018415D02*
X022292Y018415D01*
X022251Y018316D02*
X021276Y018316D01*
X021237Y018218D02*
X022218Y018218D01*
X022218Y018119D02*
X021139Y018119D01*
X021040Y018020D02*
X022218Y018020D01*
X022245Y017922D02*
X020837Y017922D01*
X020835Y017823D02*
X022286Y017823D01*
X022347Y017725D02*
X020743Y017725D01*
X021066Y018809D02*
X023531Y018809D01*
X023432Y018907D02*
X020968Y018907D01*
X020869Y019006D02*
X023334Y019006D01*
X023235Y019104D02*
X022321Y019104D01*
X021942Y020090D02*
X023920Y020090D01*
X024835Y021272D02*
X021630Y021272D01*
X021281Y021174D02*
X025107Y021174D01*
X025371Y021075D02*
X021013Y021075D01*
X021027Y022061D02*
X016675Y022061D01*
X016740Y022159D02*
X021051Y022159D01*
X021075Y022258D02*
X016766Y022258D01*
X016764Y022356D02*
X021099Y022356D01*
X021123Y022455D02*
X016724Y022455D01*
X016636Y022553D02*
X017577Y022553D01*
X017477Y022595D02*
X017302Y022770D01*
X017207Y022999D01*
X017207Y023246D01*
X017302Y023475D01*
X017477Y023650D01*
X017706Y023745D01*
X017953Y023745D01*
X018182Y023650D01*
X018357Y023475D01*
X018452Y023246D01*
X018452Y022999D01*
X018357Y022770D01*
X018182Y022595D01*
X017953Y022500D01*
X017706Y022500D01*
X017477Y022595D01*
X017420Y022652D02*
X015693Y022652D01*
X015791Y022751D02*
X017321Y022751D01*
X017269Y022849D02*
X015890Y022849D01*
X015988Y022948D02*
X017228Y022948D01*
X017207Y023046D02*
X016087Y023046D01*
X016186Y023145D02*
X017207Y023145D01*
X017207Y023243D02*
X016284Y023243D01*
X016383Y023342D02*
X017246Y023342D01*
X017287Y023440D02*
X016663Y023440D01*
X016735Y023539D02*
X017365Y023539D01*
X017464Y023637D02*
X016766Y023637D01*
X016766Y023736D02*
X017684Y023736D01*
X017975Y023736D02*
X021200Y023736D01*
X021194Y023834D02*
X016729Y023834D01*
X016648Y023933D02*
X021188Y023933D01*
X021182Y024032D02*
X015124Y024032D01*
X015106Y023933D02*
X016227Y023933D01*
X016146Y023834D02*
X015106Y023834D01*
X015106Y023736D02*
X016109Y023736D01*
X016109Y023637D02*
X015106Y023637D01*
X015106Y023539D02*
X016014Y023539D01*
X015916Y023440D02*
X015188Y023440D01*
X015229Y023342D02*
X015817Y023342D01*
X015719Y023243D02*
X015235Y023243D01*
X015213Y023145D02*
X015620Y023145D01*
X015521Y023046D02*
X015155Y023046D01*
X015106Y022948D02*
X015423Y022948D01*
X015324Y022849D02*
X015106Y022849D01*
X015106Y022751D02*
X015226Y022751D01*
X015127Y022652D02*
X015106Y022652D01*
X014906Y022705D02*
X014906Y023262D01*
X014906Y024097D01*
X017273Y026463D01*
X017969Y027159D01*
X018273Y027284D02*
X018675Y027284D01*
X018577Y027382D02*
X018210Y027382D01*
X018051Y027481D02*
X018478Y027481D01*
X018380Y027579D02*
X014774Y027579D01*
X014872Y027678D02*
X018281Y027678D01*
X018182Y027776D02*
X014971Y027776D01*
X015251Y027875D02*
X018084Y027875D01*
X018108Y028134D02*
X016994Y028134D01*
X016298Y028830D01*
X014350Y028830D01*
X011844Y026324D01*
X012262Y025907D01*
X011933Y025904D02*
X009974Y025904D01*
X009930Y025805D02*
X011948Y025805D01*
X011997Y025707D02*
X009906Y025707D01*
X009906Y025608D02*
X012124Y025608D01*
X012139Y025510D02*
X009906Y025510D01*
X009906Y025214D02*
X011843Y025214D01*
X011745Y025116D02*
X009906Y025116D01*
X009906Y025017D02*
X011646Y025017D01*
X011548Y024918D02*
X009906Y024918D01*
X009906Y024820D02*
X011449Y024820D01*
X011350Y024721D02*
X009906Y024721D01*
X009906Y024623D02*
X011252Y024623D01*
X011153Y024524D02*
X009906Y024524D01*
X009906Y024426D02*
X011055Y024426D01*
X010956Y024327D02*
X009906Y024327D01*
X009906Y024229D02*
X010858Y024229D01*
X010759Y024130D02*
X009906Y024130D01*
X009906Y024032D02*
X010661Y024032D01*
X010562Y023933D02*
X009906Y023933D01*
X009906Y023834D02*
X010464Y023834D01*
X010365Y023736D02*
X009906Y023736D01*
X009906Y023637D02*
X010266Y023637D01*
X010252Y023539D02*
X009906Y023539D01*
X009906Y023440D02*
X010252Y023440D01*
X010252Y023342D02*
X009906Y023342D01*
X009906Y023243D02*
X010252Y023243D01*
X010252Y023145D02*
X009906Y023145D01*
X009906Y023046D02*
X010252Y023046D01*
X010252Y022948D02*
X009906Y022948D01*
X009906Y022849D02*
X010252Y022849D01*
X010252Y022751D02*
X009906Y022751D01*
X009906Y022652D02*
X010252Y022652D01*
X010252Y022553D02*
X009906Y022553D01*
X009906Y022455D02*
X010252Y022455D01*
X010252Y022356D02*
X009906Y022356D01*
X009906Y022258D02*
X010252Y022258D01*
X010252Y022159D02*
X009906Y022159D01*
X009906Y022061D02*
X010252Y022061D01*
X010252Y021962D02*
X009906Y021962D01*
X009906Y021864D02*
X010252Y021864D01*
X010252Y021765D02*
X009906Y021765D01*
X009906Y021667D02*
X010252Y021667D01*
X010252Y021568D02*
X009906Y021568D01*
X009906Y021469D02*
X010252Y021469D01*
X010252Y021371D02*
X009906Y021371D01*
X009906Y021272D02*
X010252Y021272D01*
X010252Y021174D02*
X009906Y021174D01*
X009906Y021075D02*
X010252Y021075D01*
X010252Y020977D02*
X009906Y020977D01*
X009906Y020878D02*
X010252Y020878D01*
X010252Y020780D02*
X009906Y020780D01*
X009906Y020681D02*
X010252Y020681D01*
X010343Y020583D02*
X009906Y020583D01*
X009906Y020484D02*
X010442Y020484D01*
X010540Y020385D02*
X009906Y020385D01*
X009906Y020287D02*
X010541Y020287D01*
X010577Y020188D02*
X009906Y020188D01*
X009906Y020090D02*
X010654Y020090D01*
X010870Y020339D02*
X010452Y020756D01*
X010452Y023540D01*
X012123Y025211D01*
X014489Y022844D01*
X014578Y023243D02*
X014373Y023243D01*
X014274Y023342D02*
X014584Y023342D01*
X014625Y023440D02*
X014176Y023440D01*
X014077Y023539D02*
X014706Y023539D01*
X014706Y023637D02*
X013979Y023637D01*
X013880Y023736D02*
X014706Y023736D01*
X014706Y023834D02*
X013781Y023834D01*
X013683Y023933D02*
X014706Y023933D01*
X014706Y024032D02*
X013584Y024032D01*
X013486Y024130D02*
X014706Y024130D01*
X014755Y024229D02*
X013387Y024229D01*
X013289Y024327D02*
X014854Y024327D01*
X014952Y024426D02*
X013190Y024426D01*
X013092Y024524D02*
X015051Y024524D01*
X015149Y024623D02*
X012993Y024623D01*
X012895Y024721D02*
X015248Y024721D01*
X015232Y024793D02*
X015324Y024885D01*
X015374Y025006D01*
X015374Y025117D01*
X016114Y025856D01*
X016224Y025856D01*
X016345Y025906D01*
X016438Y025999D01*
X016488Y026120D01*
X016488Y026250D01*
X016438Y026371D01*
X016345Y026463D01*
X016224Y026513D01*
X016094Y026513D01*
X015973Y026463D01*
X015881Y026371D01*
X015831Y026250D01*
X015831Y026139D01*
X015091Y025400D01*
X014980Y025400D01*
X014860Y025350D01*
X014767Y025257D01*
X014717Y025137D01*
X014717Y025006D01*
X014767Y024885D01*
X014860Y024793D01*
X014980Y024743D01*
X015111Y024743D01*
X015232Y024793D01*
X015259Y024820D02*
X015346Y024820D01*
X015338Y024918D02*
X015445Y024918D01*
X015374Y025017D02*
X015544Y025017D01*
X015642Y025116D02*
X015374Y025116D01*
X015471Y025214D02*
X015741Y025214D01*
X015839Y025313D02*
X015570Y025313D01*
X015668Y025411D02*
X015938Y025411D01*
X016036Y025510D02*
X015767Y025510D01*
X015865Y025608D02*
X016135Y025608D01*
X016233Y025707D02*
X015964Y025707D01*
X016062Y025805D02*
X016332Y025805D01*
X016339Y025904D02*
X016430Y025904D01*
X016439Y026002D02*
X016529Y026002D01*
X016480Y026101D02*
X016628Y026101D01*
X016726Y026200D02*
X016488Y026200D01*
X016468Y026298D02*
X016825Y026298D01*
X016923Y026397D02*
X016412Y026397D01*
X016268Y026495D02*
X016944Y026495D01*
X016971Y026594D02*
X013788Y026594D01*
X013690Y026495D02*
X016050Y026495D01*
X015906Y026397D02*
X013591Y026397D01*
X013493Y026298D02*
X015851Y026298D01*
X015831Y026200D02*
X013394Y026200D01*
X013296Y026101D02*
X015792Y026101D01*
X015694Y026002D02*
X013197Y026002D01*
X013099Y025904D02*
X015595Y025904D01*
X015497Y025805D02*
X013000Y025805D01*
X012902Y025707D02*
X015398Y025707D01*
X015300Y025608D02*
X012803Y025608D01*
X012704Y025510D02*
X015201Y025510D01*
X015103Y025411D02*
X012606Y025411D01*
X012507Y025313D02*
X014822Y025313D01*
X014749Y025214D02*
X012409Y025214D01*
X012500Y025116D02*
X014717Y025116D01*
X014717Y025017D02*
X012599Y025017D01*
X012697Y024918D02*
X014753Y024918D01*
X014833Y024820D02*
X012796Y024820D01*
X012123Y025211D02*
X015046Y028134D01*
X015276Y028367D02*
X016478Y028367D01*
X016576Y028269D02*
X015345Y028269D01*
X015374Y028170D02*
X016675Y028170D01*
X016773Y028072D02*
X015374Y028072D01*
X015335Y027973D02*
X016872Y027973D01*
X016794Y028051D02*
X016794Y028051D01*
X017043Y028367D02*
X018605Y028367D01*
X018745Y028269D02*
X018255Y028269D01*
X018354Y028170D02*
X018885Y028170D01*
X019024Y028072D02*
X018452Y028072D01*
X018551Y027973D02*
X019141Y027973D01*
X019244Y027875D02*
X018650Y027875D01*
X018748Y027776D02*
X019347Y027776D01*
X019450Y027678D02*
X018847Y027678D01*
X018945Y027579D02*
X019553Y027579D01*
X019656Y027481D02*
X019044Y027481D01*
X019142Y027382D02*
X019747Y027382D01*
X019823Y027284D02*
X019241Y027284D01*
X019339Y027185D02*
X019899Y027185D01*
X019975Y027086D02*
X019421Y027086D01*
X019421Y026988D02*
X020051Y026988D01*
X020127Y026889D02*
X019421Y026889D01*
X019421Y026791D02*
X020203Y026791D01*
X020271Y026692D02*
X019421Y026692D01*
X019421Y026594D02*
X020326Y026594D01*
X020381Y026495D02*
X019421Y026495D01*
X019421Y026397D02*
X020436Y026397D01*
X020490Y026298D02*
X019421Y026298D01*
X019421Y026200D02*
X020545Y026200D01*
X020600Y026101D02*
X019421Y026101D01*
X019421Y026002D02*
X020655Y026002D01*
X020699Y025904D02*
X019421Y025904D01*
X019421Y025805D02*
X020736Y025805D01*
X020773Y025707D02*
X019421Y025707D01*
X019421Y025608D02*
X020810Y025608D01*
X020847Y025510D02*
X019421Y025510D01*
X019443Y025411D02*
X020884Y025411D01*
X020920Y025313D02*
X019541Y025313D01*
X019817Y025214D02*
X020957Y025214D01*
X020991Y025116D02*
X019919Y025116D01*
X019959Y025017D02*
X021011Y025017D01*
X021032Y024918D02*
X019967Y024918D01*
X019948Y024820D02*
X021053Y024820D01*
X021074Y024721D02*
X019893Y024721D01*
X019750Y024623D02*
X021095Y024623D01*
X021116Y024524D02*
X015616Y024524D01*
X015518Y024426D02*
X021136Y024426D01*
X021157Y024327D02*
X015419Y024327D01*
X015321Y024229D02*
X021171Y024229D01*
X021177Y024130D02*
X015222Y024130D01*
X015715Y024623D02*
X019528Y024623D01*
X019385Y024721D02*
X015814Y024721D01*
X015912Y024820D02*
X019330Y024820D01*
X019311Y024918D02*
X016011Y024918D01*
X016109Y025017D02*
X019271Y025017D01*
X019173Y025116D02*
X016208Y025116D01*
X016306Y025214D02*
X019074Y025214D01*
X019021Y025313D02*
X016405Y025313D01*
X016503Y025411D02*
X019021Y025411D01*
X019021Y025510D02*
X016602Y025510D01*
X016700Y025608D02*
X019021Y025608D01*
X019021Y025707D02*
X016799Y025707D01*
X016898Y025805D02*
X019021Y025805D01*
X019021Y025904D02*
X016996Y025904D01*
X017095Y026002D02*
X019021Y026002D01*
X019021Y026101D02*
X017193Y026101D01*
X017473Y026200D02*
X019021Y026200D01*
X019021Y026298D02*
X017560Y026298D01*
X017600Y026397D02*
X019021Y026397D01*
X019021Y026495D02*
X017601Y026495D01*
X017686Y026594D02*
X019021Y026594D01*
X019021Y026692D02*
X017784Y026692D01*
X017883Y026791D02*
X019021Y026791D01*
X019021Y026889D02*
X018163Y026889D01*
X018253Y026988D02*
X018971Y026988D01*
X018872Y027086D02*
X018294Y027086D01*
X018297Y027185D02*
X018774Y027185D01*
X019221Y027020D02*
X018108Y028134D01*
X018466Y028466D02*
X016945Y028466D01*
X016846Y028565D02*
X018312Y028565D01*
X018116Y028663D02*
X016748Y028663D01*
X016649Y028762D02*
X017919Y028762D01*
X017723Y028860D02*
X016551Y028860D01*
X016452Y028959D02*
X017501Y028959D01*
X017198Y029057D02*
X013460Y029057D01*
X013178Y028959D02*
X014196Y028959D01*
X014097Y028860D02*
X012965Y028860D01*
X012752Y028762D02*
X013999Y028762D01*
X013900Y028663D02*
X012538Y028663D01*
X012370Y028565D02*
X013802Y028565D01*
X013703Y028466D02*
X012221Y028466D01*
X012071Y028367D02*
X013605Y028367D01*
X013506Y028269D02*
X011922Y028269D01*
X011772Y028170D02*
X013408Y028170D01*
X013309Y028072D02*
X011654Y028072D01*
X011545Y027973D02*
X013210Y027973D01*
X013112Y027875D02*
X011435Y027875D01*
X011325Y027776D02*
X013013Y027776D01*
X012915Y027678D02*
X011216Y027678D01*
X011106Y027579D02*
X012816Y027579D01*
X012718Y027481D02*
X011020Y027481D01*
X010939Y027382D02*
X012619Y027382D01*
X012521Y027284D02*
X010858Y027284D01*
X010777Y027185D02*
X012422Y027185D01*
X012324Y027086D02*
X010696Y027086D01*
X010614Y026988D02*
X011208Y026988D01*
X011132Y026889D02*
X010533Y026889D01*
X010473Y026791D02*
X011098Y026791D01*
X011098Y026692D02*
X010414Y026692D01*
X010355Y026594D02*
X011132Y026594D01*
X011209Y026495D02*
X010296Y026495D01*
X010237Y026397D02*
X011489Y026397D01*
X011587Y026298D02*
X010178Y026298D01*
X010119Y026200D02*
X011686Y026200D01*
X011644Y026241D02*
X011644Y026241D01*
X011784Y026101D02*
X010064Y026101D01*
X010019Y026002D02*
X011883Y026002D01*
X011844Y026324D02*
X011427Y026742D01*
X011645Y026988D02*
X012225Y026988D01*
X012126Y026889D02*
X011721Y026889D01*
X011755Y026791D02*
X012028Y026791D01*
X011929Y026692D02*
X011759Y026692D01*
X012199Y026397D02*
X013026Y026397D01*
X013124Y026495D02*
X012298Y026495D01*
X012396Y026594D02*
X013223Y026594D01*
X013321Y026692D02*
X012495Y026692D01*
X012594Y026791D02*
X013420Y026791D01*
X013518Y026889D02*
X012692Y026889D01*
X012791Y026988D02*
X013617Y026988D01*
X013716Y027086D02*
X012889Y027086D01*
X012988Y027185D02*
X013814Y027185D01*
X013913Y027284D02*
X013086Y027284D01*
X013185Y027382D02*
X014011Y027382D01*
X014110Y027481D02*
X013283Y027481D01*
X013382Y027579D02*
X014208Y027579D01*
X014307Y027678D02*
X013480Y027678D01*
X013579Y027776D02*
X014405Y027776D01*
X014504Y027875D02*
X013678Y027875D01*
X013776Y027973D02*
X014602Y027973D01*
X014701Y028072D02*
X013875Y028072D01*
X013973Y028170D02*
X014717Y028170D01*
X014746Y028269D02*
X014072Y028269D01*
X014170Y028367D02*
X014815Y028367D01*
X014367Y028565D02*
X016281Y028565D01*
X016379Y028466D02*
X014269Y028466D01*
X014157Y029254D02*
X016457Y029254D01*
X016896Y029156D02*
X013798Y029156D01*
X014890Y029353D02*
X015843Y029353D01*
X014675Y027481D02*
X017886Y027481D01*
X017727Y027382D02*
X014577Y027382D01*
X014478Y027284D02*
X017665Y027284D01*
X017640Y027185D02*
X014380Y027185D01*
X014281Y027086D02*
X017613Y027086D01*
X017514Y026988D02*
X014183Y026988D01*
X014084Y026889D02*
X017416Y026889D01*
X017205Y026791D02*
X013986Y026791D01*
X013887Y026692D02*
X017037Y026692D01*
X016159Y026185D02*
X015046Y025071D01*
X016438Y023679D02*
X014350Y021592D01*
X012874Y021592D01*
X011942Y020659D01*
X011296Y020090D02*
X011085Y020090D01*
X011163Y020188D02*
X011198Y020188D01*
X011395Y019991D02*
X009906Y019991D01*
X009906Y019893D02*
X011493Y019893D01*
X011592Y019794D02*
X009906Y019794D01*
X009906Y019696D02*
X011690Y019696D01*
X011789Y019597D02*
X009906Y019597D01*
X009906Y019499D02*
X011974Y019499D01*
X011875Y019400D02*
X009906Y019400D01*
X009906Y019301D02*
X011777Y019301D01*
X011678Y019203D02*
X009906Y019203D01*
X009906Y019104D02*
X011580Y019104D01*
X011481Y019006D02*
X009906Y019006D01*
X009906Y018907D02*
X011383Y018907D01*
X011284Y018809D02*
X009906Y018809D01*
X009906Y018710D02*
X011186Y018710D01*
X011087Y018612D02*
X009906Y018612D01*
X009906Y018513D02*
X010988Y018513D01*
X010890Y018415D02*
X009906Y018415D01*
X009906Y018316D02*
X010791Y018316D01*
X010693Y018218D02*
X009906Y018218D01*
X009906Y018119D02*
X010423Y018119D01*
X010314Y018020D02*
X009906Y018020D01*
X009906Y017922D02*
X010273Y017922D01*
X010263Y017823D02*
X009906Y017823D01*
X009906Y017725D02*
X010281Y017725D01*
X010334Y017626D02*
X009906Y017626D01*
X009906Y017528D02*
X010471Y017528D01*
X010461Y017429D02*
X009906Y017429D01*
X009906Y017331D02*
X010363Y017331D01*
X010264Y017232D02*
X009906Y017232D01*
X009906Y017134D02*
X010166Y017134D01*
X010067Y017035D02*
X009906Y017035D01*
X009906Y016936D02*
X009974Y016936D01*
X009967Y016838D02*
X009906Y016838D01*
X009906Y016345D02*
X009945Y016345D01*
X009906Y016247D02*
X010225Y016247D01*
X010323Y016148D02*
X009906Y016148D01*
X009906Y016050D02*
X010422Y016050D01*
X010520Y015951D02*
X009906Y015951D01*
X009906Y015852D02*
X010619Y015852D01*
X010718Y015754D02*
X009906Y015754D01*
X010870Y015328D02*
X014071Y012126D01*
X014071Y011848D01*
X014906Y011013D01*
X018386Y011987D02*
X020057Y013657D01*
X021727Y013657D01*
X022562Y012822D01*
X022304Y012798D02*
X020880Y012798D01*
X020919Y012896D02*
X022205Y012896D01*
X022107Y012995D02*
X020820Y012995D01*
X020721Y013093D02*
X022008Y013093D01*
X021910Y013192D02*
X020623Y013192D01*
X020524Y013290D02*
X021811Y013290D01*
X021713Y013389D02*
X020071Y013389D01*
X019972Y013290D02*
X020229Y013290D01*
X020131Y013192D02*
X019874Y013192D01*
X019775Y013093D02*
X020032Y013093D01*
X019933Y012995D02*
X019677Y012995D01*
X019578Y012896D02*
X019835Y012896D01*
X019873Y012798D02*
X019480Y012798D01*
X019381Y012699D02*
X019638Y012699D01*
X019539Y012601D02*
X019283Y012601D01*
X019184Y012502D02*
X019441Y012502D01*
X019342Y012403D02*
X019085Y012403D01*
X018987Y012305D02*
X019248Y012305D01*
X019225Y012206D02*
X018888Y012206D01*
X018790Y012108D02*
X019278Y012108D01*
X019377Y012009D02*
X018715Y012009D01*
X018710Y011911D02*
X019475Y011911D01*
X019574Y011812D02*
X018669Y011812D01*
X018577Y011714D02*
X019672Y011714D01*
X020289Y012206D02*
X020323Y012206D01*
X020430Y012206D02*
X020465Y012206D01*
X020529Y012305D02*
X020387Y012305D01*
X020366Y012305D02*
X020225Y012305D01*
X020268Y012403D02*
X020126Y012403D01*
X020169Y012502D02*
X020028Y012502D01*
X020070Y012601D02*
X019929Y012601D01*
X019972Y012699D02*
X019831Y012699D01*
X020486Y012403D02*
X020627Y012403D01*
X020584Y012502D02*
X020726Y012502D01*
X020683Y012601D02*
X020824Y012601D01*
X020781Y012699D02*
X020923Y012699D01*
X020915Y011615D02*
X021350Y011615D01*
X021252Y011517D02*
X020884Y011517D01*
X020785Y011418D02*
X021153Y011418D01*
X021055Y011319D02*
X020687Y011319D01*
X020588Y011221D02*
X020956Y011221D01*
X021449Y010595D02*
X021727Y010874D01*
X013236Y020478D02*
X010591Y017833D01*
X011983Y022287D02*
X014489Y022287D01*
X014906Y022705D01*
X015594Y022553D02*
X016239Y022553D01*
X018082Y022553D02*
X021143Y022553D01*
X021152Y022652D02*
X018239Y022652D01*
X018338Y022751D02*
X021161Y022751D01*
X021170Y022849D02*
X018390Y022849D01*
X018431Y022948D02*
X021179Y022948D01*
X021188Y023046D02*
X018452Y023046D01*
X018452Y023145D02*
X021197Y023145D01*
X021205Y023243D02*
X018452Y023243D01*
X018412Y023342D02*
X021214Y023342D01*
X021217Y023440D02*
X018372Y023440D01*
X018293Y023539D02*
X021211Y023539D01*
X021206Y023637D02*
X018195Y023637D01*
X019639Y024932D02*
X019221Y025350D01*
X019221Y027020D01*
X022032Y021371D02*
X024370Y021371D01*
X023667Y021469D02*
X022761Y021469D01*
X012927Y026298D02*
X012153Y026298D01*
X012412Y026200D02*
X012829Y026200D01*
X012730Y026101D02*
X012532Y026101D01*
X012577Y026002D02*
X012632Y026002D01*
X012040Y025411D02*
X012040Y025411D01*
X010870Y023401D02*
X011983Y022287D01*
D14*
X010870Y023401D03*
X011844Y025489D03*
X012262Y025907D03*
X011427Y026742D03*
X015046Y028134D03*
X016159Y026185D03*
X016577Y025211D03*
X016994Y024793D03*
X015918Y024199D03*
X016438Y023679D03*
X016438Y022287D03*
X014906Y023262D03*
X014489Y022844D03*
X015046Y025071D03*
X017273Y026463D03*
X017969Y027159D03*
X019639Y024932D03*
X019639Y021313D03*
X021727Y020339D03*
X022117Y019364D03*
X026181Y016441D03*
X026877Y016302D03*
X027434Y016859D03*
X027295Y017555D03*
X025764Y014910D03*
X025346Y014493D03*
X026181Y013657D03*
X025764Y013240D03*
X025346Y012822D03*
X024511Y011987D03*
X026042Y011291D03*
X026599Y014075D03*
X021727Y010874D03*
X018386Y011987D03*
X015324Y011430D03*
X014628Y010456D03*
X014071Y011848D03*
X011705Y010595D03*
X011427Y014214D03*
X010870Y015328D03*
X010313Y015328D03*
X010174Y016581D03*
X010591Y017833D03*
X010870Y020339D03*
X013236Y020478D03*
M02*
