G75*
G70*
%OFA0B0*%
%FSLAX24Y24*%
%IPPOS*%
%LPD*%
%AMOC8*
5,1,8,0,0,1.08239X$1,22.5*
%
%ADD10C,0.0000*%
%ADD11C,0.0104*%
%ADD12C,0.0520*%
%ADD13C,0.0600*%
%ADD14C,0.0300*%
%ADD15C,0.0100*%
%ADD16C,0.0357*%
%ADD17C,0.0160*%
D10*
X009756Y010038D02*
X009756Y025786D01*
X009873Y026053D01*
X010003Y026314D01*
X010146Y026569D01*
X010300Y026816D01*
X010467Y027055D01*
X010645Y027287D01*
X010833Y027509D01*
X011033Y027722D01*
X011242Y027925D01*
X011461Y028117D01*
X011689Y028299D01*
X011925Y028470D01*
X012170Y028629D01*
X012422Y028776D01*
X012680Y028911D01*
X012945Y029033D01*
X013216Y029142D01*
X013491Y029238D01*
X013771Y029320D01*
X014054Y029389D01*
X014340Y029444D01*
X014629Y029485D01*
X014919Y029513D01*
X015211Y029526D01*
X015502Y029525D01*
X015794Y029510D01*
X016084Y029481D01*
X016372Y029438D01*
X016658Y029381D01*
X016941Y029310D01*
X017220Y029226D01*
X017495Y029128D01*
X017765Y029017D01*
X018029Y028893D01*
X018286Y028757D01*
X018537Y028608D01*
X018781Y028448D01*
X019016Y028276D01*
X019243Y028092D01*
X019461Y027898D01*
X019669Y027694D01*
X019866Y027480D01*
X020054Y027256D01*
X020230Y027024D01*
X020395Y026783D01*
X020548Y026535D01*
X020689Y026280D01*
X020817Y026018D01*
X020933Y025750D01*
X021035Y025477D01*
X021125Y025200D01*
X021200Y024918D01*
X021262Y024633D01*
X021310Y024345D01*
X021345Y024056D01*
X021365Y023765D01*
X021371Y023473D01*
X021363Y023182D01*
X021341Y022891D01*
X021305Y022602D01*
X021255Y022314D01*
X021191Y022030D01*
X021113Y021749D01*
X021022Y021472D01*
X020918Y021199D01*
X022368Y018112D02*
X022370Y018155D01*
X022376Y018197D01*
X022386Y018239D01*
X022399Y018280D01*
X022416Y018320D01*
X022437Y018357D01*
X022461Y018393D01*
X022488Y018426D01*
X022518Y018457D01*
X022551Y018485D01*
X022586Y018510D01*
X022623Y018531D01*
X022662Y018549D01*
X022702Y018563D01*
X022744Y018574D01*
X022786Y018581D01*
X022829Y018584D01*
X022872Y018583D01*
X022915Y018578D01*
X022957Y018569D01*
X022998Y018557D01*
X023038Y018541D01*
X023076Y018521D01*
X023112Y018498D01*
X023146Y018471D01*
X023178Y018442D01*
X023206Y018410D01*
X023232Y018375D01*
X023254Y018339D01*
X023273Y018300D01*
X023288Y018260D01*
X023300Y018219D01*
X023308Y018176D01*
X023312Y018133D01*
X023312Y018091D01*
X023308Y018048D01*
X023300Y018005D01*
X023288Y017964D01*
X023273Y017924D01*
X023254Y017885D01*
X023232Y017849D01*
X023206Y017814D01*
X023178Y017782D01*
X023146Y017753D01*
X023112Y017726D01*
X023076Y017703D01*
X023038Y017683D01*
X022998Y017667D01*
X022957Y017655D01*
X022915Y017646D01*
X022872Y017641D01*
X022829Y017640D01*
X022786Y017643D01*
X022744Y017650D01*
X022702Y017661D01*
X022662Y017675D01*
X022623Y017693D01*
X022586Y017714D01*
X022551Y017739D01*
X022518Y017767D01*
X022488Y017798D01*
X022461Y017831D01*
X022437Y017867D01*
X022416Y017904D01*
X022399Y017944D01*
X022386Y017985D01*
X022376Y018027D01*
X022370Y018069D01*
X022368Y018112D01*
X020918Y021200D02*
X021190Y021304D01*
X021467Y021395D01*
X021748Y021473D01*
X022033Y021537D01*
X022320Y021587D01*
X022609Y021623D01*
X022900Y021645D01*
X023191Y021653D01*
X023483Y021647D01*
X023774Y021627D01*
X024063Y021592D01*
X024351Y021544D01*
X024636Y021482D01*
X024918Y021407D01*
X025195Y021317D01*
X025468Y021215D01*
X025736Y021099D01*
X025998Y020971D01*
X026253Y020830D01*
X026501Y020677D01*
X026742Y020512D01*
X026974Y020336D01*
X027198Y020148D01*
X027412Y019951D01*
X027616Y019743D01*
X027810Y019525D01*
X027994Y019298D01*
X028166Y019063D01*
X028326Y018819D01*
X028475Y018568D01*
X028611Y018311D01*
X028735Y018047D01*
X028846Y017777D01*
X028944Y017502D01*
X029028Y017223D01*
X029099Y016940D01*
X029156Y016654D01*
X029199Y016366D01*
X029228Y016076D01*
X029243Y015784D01*
X029244Y015493D01*
X029231Y015201D01*
X029203Y014911D01*
X029162Y014622D01*
X029107Y014336D01*
X029038Y014053D01*
X028956Y013773D01*
X028860Y013498D01*
X028751Y013227D01*
X028629Y012962D01*
X028494Y012704D01*
X028347Y012452D01*
X028188Y012207D01*
X028017Y011971D01*
X027835Y011743D01*
X027643Y011524D01*
X027440Y011315D01*
X027227Y011115D01*
X027005Y010927D01*
X026773Y010749D01*
X026534Y010582D01*
X026287Y010428D01*
X026032Y010285D01*
X025771Y010155D01*
X025504Y010038D01*
X009756Y010038D01*
X017357Y023123D02*
X017359Y023166D01*
X017365Y023208D01*
X017375Y023250D01*
X017388Y023291D01*
X017405Y023331D01*
X017426Y023368D01*
X017450Y023404D01*
X017477Y023437D01*
X017507Y023468D01*
X017540Y023496D01*
X017575Y023521D01*
X017612Y023542D01*
X017651Y023560D01*
X017691Y023574D01*
X017733Y023585D01*
X017775Y023592D01*
X017818Y023595D01*
X017861Y023594D01*
X017904Y023589D01*
X017946Y023580D01*
X017987Y023568D01*
X018027Y023552D01*
X018065Y023532D01*
X018101Y023509D01*
X018135Y023482D01*
X018167Y023453D01*
X018195Y023421D01*
X018221Y023386D01*
X018243Y023350D01*
X018262Y023311D01*
X018277Y023271D01*
X018289Y023230D01*
X018297Y023187D01*
X018301Y023144D01*
X018301Y023102D01*
X018297Y023059D01*
X018289Y023016D01*
X018277Y022975D01*
X018262Y022935D01*
X018243Y022896D01*
X018221Y022860D01*
X018195Y022825D01*
X018167Y022793D01*
X018135Y022764D01*
X018101Y022737D01*
X018065Y022714D01*
X018027Y022694D01*
X017987Y022678D01*
X017946Y022666D01*
X017904Y022657D01*
X017861Y022652D01*
X017818Y022651D01*
X017775Y022654D01*
X017733Y022661D01*
X017691Y022672D01*
X017651Y022686D01*
X017612Y022704D01*
X017575Y022725D01*
X017540Y022750D01*
X017507Y022778D01*
X017477Y022809D01*
X017450Y022842D01*
X017426Y022878D01*
X017405Y022915D01*
X017388Y022955D01*
X017375Y022996D01*
X017365Y023038D01*
X017359Y023080D01*
X017357Y023123D01*
D11*
X016554Y025633D02*
X016502Y025685D01*
X016674Y025685D01*
X016795Y025564D01*
X016795Y025392D01*
X016674Y025271D01*
X016502Y025271D01*
X016381Y025392D01*
X016381Y025564D01*
X016502Y025685D01*
X016534Y025607D01*
X016642Y025607D01*
X016717Y025532D01*
X016717Y025424D01*
X016642Y025349D01*
X016534Y025349D01*
X016459Y025424D01*
X016459Y025532D01*
X016534Y025607D01*
X016567Y025529D01*
X016609Y025529D01*
X016639Y025499D01*
X016639Y025457D01*
X016609Y025427D01*
X016567Y025427D01*
X016537Y025457D01*
X016537Y025499D01*
X016567Y025529D01*
X015140Y027047D02*
X015088Y027099D01*
X015260Y027099D01*
X015381Y026978D01*
X015381Y026806D01*
X015260Y026685D01*
X015088Y026685D01*
X014967Y026806D01*
X014967Y026978D01*
X015088Y027099D01*
X015120Y027021D01*
X015228Y027021D01*
X015303Y026946D01*
X015303Y026838D01*
X015228Y026763D01*
X015120Y026763D01*
X015045Y026838D01*
X015045Y026946D01*
X015120Y027021D01*
X015153Y026943D01*
X015195Y026943D01*
X015225Y026913D01*
X015225Y026871D01*
X015195Y026841D01*
X015153Y026841D01*
X015123Y026871D01*
X015123Y026913D01*
X015153Y026943D01*
X015233Y028164D02*
X015181Y028112D01*
X015181Y028284D01*
X015302Y028405D01*
X015474Y028405D01*
X015595Y028284D01*
X015595Y028112D01*
X015474Y027991D01*
X015302Y027991D01*
X015181Y028112D01*
X015259Y028144D01*
X015259Y028252D01*
X015334Y028327D01*
X015442Y028327D01*
X015517Y028252D01*
X015517Y028144D01*
X015442Y028069D01*
X015334Y028069D01*
X015259Y028144D01*
X015337Y028177D01*
X015337Y028219D01*
X015367Y028249D01*
X015409Y028249D01*
X015439Y028219D01*
X015439Y028177D01*
X015409Y028147D01*
X015367Y028147D01*
X015337Y028177D01*
X015940Y028871D02*
X015888Y028819D01*
X015888Y028991D01*
X016009Y029112D01*
X016181Y029112D01*
X016302Y028991D01*
X016302Y028819D01*
X016181Y028698D01*
X016009Y028698D01*
X015888Y028819D01*
X015966Y028851D01*
X015966Y028959D01*
X016041Y029034D01*
X016149Y029034D01*
X016224Y028959D01*
X016224Y028851D01*
X016149Y028776D01*
X016041Y028776D01*
X015966Y028851D01*
X016044Y028884D01*
X016044Y028926D01*
X016074Y028956D01*
X016116Y028956D01*
X016146Y028926D01*
X016146Y028884D01*
X016116Y028854D01*
X016074Y028854D01*
X016044Y028884D01*
X018156Y026911D02*
X018104Y026859D01*
X018104Y027031D01*
X018225Y027152D01*
X018397Y027152D01*
X018518Y027031D01*
X018518Y026859D01*
X018397Y026738D01*
X018225Y026738D01*
X018104Y026859D01*
X018182Y026891D01*
X018182Y026999D01*
X018257Y027074D01*
X018365Y027074D01*
X018440Y026999D01*
X018440Y026891D01*
X018365Y026816D01*
X018257Y026816D01*
X018182Y026891D01*
X018260Y026924D01*
X018260Y026966D01*
X018290Y026996D01*
X018332Y026996D01*
X018362Y026966D01*
X018362Y026924D01*
X018332Y026894D01*
X018290Y026894D01*
X018260Y026924D01*
X018863Y027618D02*
X018811Y027566D01*
X018811Y027738D01*
X018932Y027859D01*
X019104Y027859D01*
X019225Y027738D01*
X019225Y027566D01*
X019104Y027445D01*
X018932Y027445D01*
X018811Y027566D01*
X018889Y027598D01*
X018889Y027706D01*
X018964Y027781D01*
X019072Y027781D01*
X019147Y027706D01*
X019147Y027598D01*
X019072Y027523D01*
X018964Y027523D01*
X018889Y027598D01*
X018967Y027631D01*
X018967Y027673D01*
X018997Y027703D01*
X019039Y027703D01*
X019069Y027673D01*
X019069Y027631D01*
X019039Y027601D01*
X018997Y027601D01*
X018967Y027631D01*
X020534Y024556D02*
X020482Y024504D01*
X020482Y024676D01*
X020603Y024797D01*
X020775Y024797D01*
X020896Y024676D01*
X020896Y024504D01*
X020775Y024383D01*
X020603Y024383D01*
X020482Y024504D01*
X020560Y024536D01*
X020560Y024644D01*
X020635Y024719D01*
X020743Y024719D01*
X020818Y024644D01*
X020818Y024536D01*
X020743Y024461D01*
X020635Y024461D01*
X020560Y024536D01*
X020638Y024569D01*
X020638Y024611D01*
X020668Y024641D01*
X020710Y024641D01*
X020740Y024611D01*
X020740Y024569D01*
X020710Y024539D01*
X020668Y024539D01*
X020638Y024569D01*
X019826Y023849D02*
X019774Y023797D01*
X019774Y023969D01*
X019895Y024090D01*
X020067Y024090D01*
X020188Y023969D01*
X020188Y023797D01*
X020067Y023676D01*
X019895Y023676D01*
X019774Y023797D01*
X019852Y023829D01*
X019852Y023937D01*
X019927Y024012D01*
X020035Y024012D01*
X020110Y023937D01*
X020110Y023829D01*
X020035Y023754D01*
X019927Y023754D01*
X019852Y023829D01*
X019930Y023862D01*
X019930Y023904D01*
X019960Y023934D01*
X020002Y023934D01*
X020032Y023904D01*
X020032Y023862D01*
X020002Y023832D01*
X019960Y023832D01*
X019930Y023862D01*
X020015Y020816D02*
X020067Y020764D01*
X019895Y020764D01*
X019774Y020885D01*
X019774Y021057D01*
X019895Y021178D01*
X020067Y021178D01*
X020188Y021057D01*
X020188Y020885D01*
X020067Y020764D01*
X020035Y020842D01*
X019927Y020842D01*
X019852Y020917D01*
X019852Y021025D01*
X019927Y021100D01*
X020035Y021100D01*
X020110Y021025D01*
X020110Y020917D01*
X020035Y020842D01*
X020002Y020920D01*
X019960Y020920D01*
X019930Y020950D01*
X019930Y020992D01*
X019960Y021022D01*
X020002Y021022D01*
X020032Y020992D01*
X020032Y020950D01*
X020002Y020920D01*
X020723Y020109D02*
X020775Y020057D01*
X020603Y020057D01*
X020482Y020178D01*
X020482Y020350D01*
X020603Y020471D01*
X020775Y020471D01*
X020896Y020350D01*
X020896Y020178D01*
X020775Y020057D01*
X020743Y020135D01*
X020635Y020135D01*
X020560Y020210D01*
X020560Y020318D01*
X020635Y020393D01*
X020743Y020393D01*
X020818Y020318D01*
X020818Y020210D01*
X020743Y020135D01*
X020710Y020213D01*
X020668Y020213D01*
X020638Y020243D01*
X020638Y020285D01*
X020668Y020315D01*
X020710Y020315D01*
X020740Y020285D01*
X020740Y020243D01*
X020710Y020213D01*
X023445Y020230D02*
X023393Y020178D01*
X023393Y020350D01*
X023514Y020471D01*
X023686Y020471D01*
X023807Y020350D01*
X023807Y020178D01*
X023686Y020057D01*
X023514Y020057D01*
X023393Y020178D01*
X023471Y020210D01*
X023471Y020318D01*
X023546Y020393D01*
X023654Y020393D01*
X023729Y020318D01*
X023729Y020210D01*
X023654Y020135D01*
X023546Y020135D01*
X023471Y020210D01*
X023549Y020243D01*
X023549Y020285D01*
X023579Y020315D01*
X023621Y020315D01*
X023651Y020285D01*
X023651Y020243D01*
X023621Y020213D01*
X023579Y020213D01*
X023549Y020243D01*
X024153Y020937D02*
X024101Y020885D01*
X024101Y021057D01*
X024222Y021178D01*
X024394Y021178D01*
X024515Y021057D01*
X024515Y020885D01*
X024394Y020764D01*
X024222Y020764D01*
X024101Y020885D01*
X024179Y020917D01*
X024179Y021025D01*
X024254Y021100D01*
X024362Y021100D01*
X024437Y021025D01*
X024437Y020917D01*
X024362Y020842D01*
X024254Y020842D01*
X024179Y020917D01*
X024257Y020950D01*
X024257Y020992D01*
X024287Y021022D01*
X024329Y021022D01*
X024359Y020992D01*
X024359Y020950D01*
X024329Y020920D01*
X024287Y020920D01*
X024257Y020950D01*
X026508Y018559D02*
X026456Y018507D01*
X026456Y018679D01*
X026577Y018800D01*
X026749Y018800D01*
X026870Y018679D01*
X026870Y018507D01*
X026749Y018386D01*
X026577Y018386D01*
X026456Y018507D01*
X026534Y018539D01*
X026534Y018647D01*
X026609Y018722D01*
X026717Y018722D01*
X026792Y018647D01*
X026792Y018539D01*
X026717Y018464D01*
X026609Y018464D01*
X026534Y018539D01*
X026612Y018572D01*
X026612Y018614D01*
X026642Y018644D01*
X026684Y018644D01*
X026714Y018614D01*
X026714Y018572D01*
X026684Y018542D01*
X026642Y018542D01*
X026612Y018572D01*
X027215Y019266D02*
X027163Y019214D01*
X027163Y019386D01*
X027284Y019507D01*
X027456Y019507D01*
X027577Y019386D01*
X027577Y019214D01*
X027456Y019093D01*
X027284Y019093D01*
X027163Y019214D01*
X027241Y019246D01*
X027241Y019354D01*
X027316Y019429D01*
X027424Y019429D01*
X027499Y019354D01*
X027499Y019246D01*
X027424Y019171D01*
X027316Y019171D01*
X027241Y019246D01*
X027319Y019279D01*
X027319Y019321D01*
X027349Y019351D01*
X027391Y019351D01*
X027421Y019321D01*
X027421Y019279D01*
X027391Y019249D01*
X027349Y019249D01*
X027319Y019279D01*
X028468Y016343D02*
X028416Y016291D01*
X028416Y016463D01*
X028537Y016584D01*
X028709Y016584D01*
X028830Y016463D01*
X028830Y016291D01*
X028709Y016170D01*
X028537Y016170D01*
X028416Y016291D01*
X028494Y016323D01*
X028494Y016431D01*
X028569Y016506D01*
X028677Y016506D01*
X028752Y016431D01*
X028752Y016323D01*
X028677Y016248D01*
X028569Y016248D01*
X028494Y016323D01*
X028572Y016356D01*
X028572Y016398D01*
X028602Y016428D01*
X028644Y016428D01*
X028674Y016398D01*
X028674Y016356D01*
X028644Y016326D01*
X028602Y016326D01*
X028572Y016356D01*
X027760Y015636D02*
X027708Y015584D01*
X027708Y015756D01*
X027829Y015877D01*
X028001Y015877D01*
X028122Y015756D01*
X028122Y015584D01*
X028001Y015463D01*
X027829Y015463D01*
X027708Y015584D01*
X027786Y015616D01*
X027786Y015724D01*
X027861Y015799D01*
X027969Y015799D01*
X028044Y015724D01*
X028044Y015616D01*
X027969Y015541D01*
X027861Y015541D01*
X027786Y015616D01*
X027864Y015649D01*
X027864Y015691D01*
X027894Y015721D01*
X027936Y015721D01*
X027966Y015691D01*
X027966Y015649D01*
X027936Y015619D01*
X027894Y015619D01*
X027864Y015649D01*
X027772Y013420D02*
X027720Y013368D01*
X027720Y013540D01*
X027841Y013661D01*
X028013Y013661D01*
X028134Y013540D01*
X028134Y013368D01*
X028013Y013247D01*
X027841Y013247D01*
X027720Y013368D01*
X027798Y013400D01*
X027798Y013508D01*
X027873Y013583D01*
X027981Y013583D01*
X028056Y013508D01*
X028056Y013400D01*
X027981Y013325D01*
X027873Y013325D01*
X027798Y013400D01*
X027876Y013433D01*
X027876Y013475D01*
X027906Y013505D01*
X027948Y013505D01*
X027978Y013475D01*
X027978Y013433D01*
X027948Y013403D01*
X027906Y013403D01*
X027876Y013433D01*
X027064Y012713D02*
X027012Y012661D01*
X027012Y012833D01*
X027133Y012954D01*
X027305Y012954D01*
X027426Y012833D01*
X027426Y012661D01*
X027305Y012540D01*
X027133Y012540D01*
X027012Y012661D01*
X027090Y012693D01*
X027090Y012801D01*
X027165Y012876D01*
X027273Y012876D01*
X027348Y012801D01*
X027348Y012693D01*
X027273Y012618D01*
X027165Y012618D01*
X027090Y012693D01*
X027168Y012726D01*
X027168Y012768D01*
X027198Y012798D01*
X027240Y012798D01*
X027270Y012768D01*
X027270Y012726D01*
X027240Y012696D01*
X027198Y012696D01*
X027168Y012726D01*
X025544Y011472D02*
X025492Y011420D01*
X025492Y011592D01*
X025613Y011713D01*
X025785Y011713D01*
X025906Y011592D01*
X025906Y011420D01*
X025785Y011299D01*
X025613Y011299D01*
X025492Y011420D01*
X025570Y011452D01*
X025570Y011560D01*
X025645Y011635D01*
X025753Y011635D01*
X025828Y011560D01*
X025828Y011452D01*
X025753Y011377D01*
X025645Y011377D01*
X025570Y011452D01*
X025648Y011485D01*
X025648Y011527D01*
X025678Y011557D01*
X025720Y011557D01*
X025750Y011527D01*
X025750Y011485D01*
X025720Y011455D01*
X025678Y011455D01*
X025648Y011485D01*
X024837Y010764D02*
X024785Y010712D01*
X024785Y010884D01*
X024906Y011005D01*
X025078Y011005D01*
X025199Y010884D01*
X025199Y010712D01*
X025078Y010591D01*
X024906Y010591D01*
X024785Y010712D01*
X024863Y010744D01*
X024863Y010852D01*
X024938Y010927D01*
X025046Y010927D01*
X025121Y010852D01*
X025121Y010744D01*
X025046Y010669D01*
X024938Y010669D01*
X024863Y010744D01*
X024941Y010777D01*
X024941Y010819D01*
X024971Y010849D01*
X025013Y010849D01*
X025043Y010819D01*
X025043Y010777D01*
X025013Y010747D01*
X024971Y010747D01*
X024941Y010777D01*
X022621Y011332D02*
X022569Y011280D01*
X022569Y011452D01*
X022690Y011573D01*
X022862Y011573D01*
X022983Y011452D01*
X022983Y011280D01*
X022862Y011159D01*
X022690Y011159D01*
X022569Y011280D01*
X022647Y011312D01*
X022647Y011420D01*
X022722Y011495D01*
X022830Y011495D01*
X022905Y011420D01*
X022905Y011312D01*
X022830Y011237D01*
X022722Y011237D01*
X022647Y011312D01*
X022725Y011345D01*
X022725Y011387D01*
X022755Y011417D01*
X022797Y011417D01*
X022827Y011387D01*
X022827Y011345D01*
X022797Y011315D01*
X022755Y011315D01*
X022725Y011345D01*
X021914Y010625D02*
X021862Y010573D01*
X021862Y010745D01*
X021983Y010866D01*
X022155Y010866D01*
X022276Y010745D01*
X022276Y010573D01*
X022155Y010452D01*
X021983Y010452D01*
X021862Y010573D01*
X021940Y010605D01*
X021940Y010713D01*
X022015Y010788D01*
X022123Y010788D01*
X022198Y010713D01*
X022198Y010605D01*
X022123Y010530D01*
X022015Y010530D01*
X021940Y010605D01*
X022018Y010638D01*
X022018Y010680D01*
X022048Y010710D01*
X022090Y010710D01*
X022120Y010680D01*
X022120Y010638D01*
X022090Y010608D01*
X022048Y010608D01*
X022018Y010638D01*
X019559Y011332D02*
X019507Y011280D01*
X019507Y011452D01*
X019628Y011573D01*
X019800Y011573D01*
X019921Y011452D01*
X019921Y011280D01*
X019800Y011159D01*
X019628Y011159D01*
X019507Y011280D01*
X019585Y011312D01*
X019585Y011420D01*
X019660Y011495D01*
X019768Y011495D01*
X019843Y011420D01*
X019843Y011312D01*
X019768Y011237D01*
X019660Y011237D01*
X019585Y011312D01*
X019663Y011345D01*
X019663Y011387D01*
X019693Y011417D01*
X019735Y011417D01*
X019765Y011387D01*
X019765Y011345D01*
X019735Y011315D01*
X019693Y011315D01*
X019663Y011345D01*
X018852Y010625D02*
X018800Y010573D01*
X018800Y010745D01*
X018921Y010866D01*
X019093Y010866D01*
X019214Y010745D01*
X019214Y010573D01*
X019093Y010452D01*
X018921Y010452D01*
X018800Y010573D01*
X018878Y010605D01*
X018878Y010713D01*
X018953Y010788D01*
X019061Y010788D01*
X019136Y010713D01*
X019136Y010605D01*
X019061Y010530D01*
X018953Y010530D01*
X018878Y010605D01*
X018956Y010638D01*
X018956Y010680D01*
X018986Y010710D01*
X019028Y010710D01*
X019058Y010680D01*
X019058Y010638D01*
X019028Y010608D01*
X018986Y010608D01*
X018956Y010638D01*
X016775Y011332D02*
X016723Y011280D01*
X016723Y011452D01*
X016844Y011573D01*
X017016Y011573D01*
X017137Y011452D01*
X017137Y011280D01*
X017016Y011159D01*
X016844Y011159D01*
X016723Y011280D01*
X016801Y011312D01*
X016801Y011420D01*
X016876Y011495D01*
X016984Y011495D01*
X017059Y011420D01*
X017059Y011312D01*
X016984Y011237D01*
X016876Y011237D01*
X016801Y011312D01*
X016879Y011345D01*
X016879Y011387D01*
X016909Y011417D01*
X016951Y011417D01*
X016981Y011387D01*
X016981Y011345D01*
X016951Y011315D01*
X016909Y011315D01*
X016879Y011345D01*
X016068Y010625D02*
X016016Y010573D01*
X016016Y010745D01*
X016137Y010866D01*
X016309Y010866D01*
X016430Y010745D01*
X016430Y010573D01*
X016309Y010452D01*
X016137Y010452D01*
X016016Y010573D01*
X016094Y010605D01*
X016094Y010713D01*
X016169Y010788D01*
X016277Y010788D01*
X016352Y010713D01*
X016352Y010605D01*
X016277Y010530D01*
X016169Y010530D01*
X016094Y010605D01*
X016172Y010638D01*
X016172Y010680D01*
X016202Y010710D01*
X016244Y010710D01*
X016274Y010680D01*
X016274Y010638D01*
X016244Y010608D01*
X016202Y010608D01*
X016172Y010638D01*
X013991Y011332D02*
X013939Y011280D01*
X013939Y011452D01*
X014060Y011573D01*
X014232Y011573D01*
X014353Y011452D01*
X014353Y011280D01*
X014232Y011159D01*
X014060Y011159D01*
X013939Y011280D01*
X014017Y011312D01*
X014017Y011420D01*
X014092Y011495D01*
X014200Y011495D01*
X014275Y011420D01*
X014275Y011312D01*
X014200Y011237D01*
X014092Y011237D01*
X014017Y011312D01*
X014095Y011345D01*
X014095Y011387D01*
X014125Y011417D01*
X014167Y011417D01*
X014197Y011387D01*
X014197Y011345D01*
X014167Y011315D01*
X014125Y011315D01*
X014095Y011345D01*
X013284Y010625D02*
X013232Y010573D01*
X013232Y010745D01*
X013353Y010866D01*
X013525Y010866D01*
X013646Y010745D01*
X013646Y010573D01*
X013525Y010452D01*
X013353Y010452D01*
X013232Y010573D01*
X013310Y010605D01*
X013310Y010713D01*
X013385Y010788D01*
X013493Y010788D01*
X013568Y010713D01*
X013568Y010605D01*
X013493Y010530D01*
X013385Y010530D01*
X013310Y010605D01*
X013388Y010638D01*
X013388Y010680D01*
X013418Y010710D01*
X013460Y010710D01*
X013490Y010680D01*
X013490Y010638D01*
X013460Y010608D01*
X013418Y010608D01*
X013388Y010638D01*
X010929Y011332D02*
X010877Y011280D01*
X010877Y011452D01*
X010998Y011573D01*
X011170Y011573D01*
X011291Y011452D01*
X011291Y011280D01*
X011170Y011159D01*
X010998Y011159D01*
X010877Y011280D01*
X010955Y011312D01*
X010955Y011420D01*
X011030Y011495D01*
X011138Y011495D01*
X011213Y011420D01*
X011213Y011312D01*
X011138Y011237D01*
X011030Y011237D01*
X010955Y011312D01*
X011033Y011345D01*
X011033Y011387D01*
X011063Y011417D01*
X011105Y011417D01*
X011135Y011387D01*
X011135Y011345D01*
X011105Y011315D01*
X011063Y011315D01*
X011033Y011345D01*
X010222Y010625D02*
X010170Y010573D01*
X010170Y010745D01*
X010291Y010866D01*
X010463Y010866D01*
X010584Y010745D01*
X010584Y010573D01*
X010463Y010452D01*
X010291Y010452D01*
X010170Y010573D01*
X010248Y010605D01*
X010248Y010713D01*
X010323Y010788D01*
X010431Y010788D01*
X010506Y010713D01*
X010506Y010605D01*
X010431Y010530D01*
X010323Y010530D01*
X010248Y010605D01*
X010326Y010638D01*
X010326Y010680D01*
X010356Y010710D01*
X010398Y010710D01*
X010428Y010680D01*
X010428Y010638D01*
X010398Y010608D01*
X010356Y010608D01*
X010326Y010638D01*
X010222Y013687D02*
X010170Y013635D01*
X010170Y013807D01*
X010291Y013928D01*
X010463Y013928D01*
X010584Y013807D01*
X010584Y013635D01*
X010463Y013514D01*
X010291Y013514D01*
X010170Y013635D01*
X010248Y013667D01*
X010248Y013775D01*
X010323Y013850D01*
X010431Y013850D01*
X010506Y013775D01*
X010506Y013667D01*
X010431Y013592D01*
X010323Y013592D01*
X010248Y013667D01*
X010326Y013700D01*
X010326Y013742D01*
X010356Y013772D01*
X010398Y013772D01*
X010428Y013742D01*
X010428Y013700D01*
X010398Y013670D01*
X010356Y013670D01*
X010326Y013700D01*
X010929Y014395D02*
X010877Y014343D01*
X010877Y014515D01*
X010998Y014636D01*
X011170Y014636D01*
X011291Y014515D01*
X011291Y014343D01*
X011170Y014222D01*
X010998Y014222D01*
X010877Y014343D01*
X010955Y014375D01*
X010955Y014483D01*
X011030Y014558D01*
X011138Y014558D01*
X011213Y014483D01*
X011213Y014375D01*
X011138Y014300D01*
X011030Y014300D01*
X010955Y014375D01*
X011033Y014408D01*
X011033Y014450D01*
X011063Y014480D01*
X011105Y014480D01*
X011135Y014450D01*
X011135Y014408D01*
X011105Y014378D01*
X011063Y014378D01*
X011033Y014408D01*
X010222Y016471D02*
X010170Y016419D01*
X010170Y016591D01*
X010291Y016712D01*
X010463Y016712D01*
X010584Y016591D01*
X010584Y016419D01*
X010463Y016298D01*
X010291Y016298D01*
X010170Y016419D01*
X010248Y016451D01*
X010248Y016559D01*
X010323Y016634D01*
X010431Y016634D01*
X010506Y016559D01*
X010506Y016451D01*
X010431Y016376D01*
X010323Y016376D01*
X010248Y016451D01*
X010326Y016484D01*
X010326Y016526D01*
X010356Y016556D01*
X010398Y016556D01*
X010428Y016526D01*
X010428Y016484D01*
X010398Y016454D01*
X010356Y016454D01*
X010326Y016484D01*
X010929Y017178D02*
X010877Y017126D01*
X010877Y017298D01*
X010998Y017419D01*
X011170Y017419D01*
X011291Y017298D01*
X011291Y017126D01*
X011170Y017005D01*
X010998Y017005D01*
X010877Y017126D01*
X010955Y017158D01*
X010955Y017266D01*
X011030Y017341D01*
X011138Y017341D01*
X011213Y017266D01*
X011213Y017158D01*
X011138Y017083D01*
X011030Y017083D01*
X010955Y017158D01*
X011033Y017191D01*
X011033Y017233D01*
X011063Y017263D01*
X011105Y017263D01*
X011135Y017233D01*
X011135Y017191D01*
X011105Y017161D01*
X011063Y017161D01*
X011033Y017191D01*
X010222Y019255D02*
X010170Y019203D01*
X010170Y019375D01*
X010291Y019496D01*
X010463Y019496D01*
X010584Y019375D01*
X010584Y019203D01*
X010463Y019082D01*
X010291Y019082D01*
X010170Y019203D01*
X010248Y019235D01*
X010248Y019343D01*
X010323Y019418D01*
X010431Y019418D01*
X010506Y019343D01*
X010506Y019235D01*
X010431Y019160D01*
X010323Y019160D01*
X010248Y019235D01*
X010326Y019268D01*
X010326Y019310D01*
X010356Y019340D01*
X010398Y019340D01*
X010428Y019310D01*
X010428Y019268D01*
X010398Y019238D01*
X010356Y019238D01*
X010326Y019268D01*
X010929Y019962D02*
X010877Y019910D01*
X010877Y020082D01*
X010998Y020203D01*
X011170Y020203D01*
X011291Y020082D01*
X011291Y019910D01*
X011170Y019789D01*
X010998Y019789D01*
X010877Y019910D01*
X010955Y019942D01*
X010955Y020050D01*
X011030Y020125D01*
X011138Y020125D01*
X011213Y020050D01*
X011213Y019942D01*
X011138Y019867D01*
X011030Y019867D01*
X010955Y019942D01*
X011033Y019975D01*
X011033Y020017D01*
X011063Y020047D01*
X011105Y020047D01*
X011135Y020017D01*
X011135Y019975D01*
X011105Y019945D01*
X011063Y019945D01*
X011033Y019975D01*
X010222Y022317D02*
X010170Y022265D01*
X010170Y022437D01*
X010291Y022558D01*
X010463Y022558D01*
X010584Y022437D01*
X010584Y022265D01*
X010463Y022144D01*
X010291Y022144D01*
X010170Y022265D01*
X010248Y022297D01*
X010248Y022405D01*
X010323Y022480D01*
X010431Y022480D01*
X010506Y022405D01*
X010506Y022297D01*
X010431Y022222D01*
X010323Y022222D01*
X010248Y022297D01*
X010326Y022330D01*
X010326Y022372D01*
X010356Y022402D01*
X010398Y022402D01*
X010428Y022372D01*
X010428Y022330D01*
X010398Y022300D01*
X010356Y022300D01*
X010326Y022330D01*
X010929Y023025D02*
X010877Y022973D01*
X010877Y023145D01*
X010998Y023266D01*
X011170Y023266D01*
X011291Y023145D01*
X011291Y022973D01*
X011170Y022852D01*
X010998Y022852D01*
X010877Y022973D01*
X010955Y023005D01*
X010955Y023113D01*
X011030Y023188D01*
X011138Y023188D01*
X011213Y023113D01*
X011213Y023005D01*
X011138Y022930D01*
X011030Y022930D01*
X010955Y023005D01*
X011033Y023038D01*
X011033Y023080D01*
X011063Y023110D01*
X011105Y023110D01*
X011135Y023080D01*
X011135Y023038D01*
X011105Y023008D01*
X011063Y023008D01*
X011033Y023038D01*
X010361Y025241D02*
X010309Y025189D01*
X010309Y025361D01*
X010430Y025482D01*
X010602Y025482D01*
X010723Y025361D01*
X010723Y025189D01*
X010602Y025068D01*
X010430Y025068D01*
X010309Y025189D01*
X010387Y025221D01*
X010387Y025329D01*
X010462Y025404D01*
X010570Y025404D01*
X010645Y025329D01*
X010645Y025221D01*
X010570Y025146D01*
X010462Y025146D01*
X010387Y025221D01*
X010465Y025254D01*
X010465Y025296D01*
X010495Y025326D01*
X010537Y025326D01*
X010567Y025296D01*
X010567Y025254D01*
X010537Y025224D01*
X010495Y025224D01*
X010465Y025254D01*
X011068Y025948D02*
X011016Y025896D01*
X011016Y026068D01*
X011137Y026189D01*
X011309Y026189D01*
X011430Y026068D01*
X011430Y025896D01*
X011309Y025775D01*
X011137Y025775D01*
X011016Y025896D01*
X011094Y025928D01*
X011094Y026036D01*
X011169Y026111D01*
X011277Y026111D01*
X011352Y026036D01*
X011352Y025928D01*
X011277Y025853D01*
X011169Y025853D01*
X011094Y025928D01*
X011172Y025961D01*
X011172Y026003D01*
X011202Y026033D01*
X011244Y026033D01*
X011274Y026003D01*
X011274Y025961D01*
X011244Y025931D01*
X011202Y025931D01*
X011172Y025961D01*
X012310Y027468D02*
X012258Y027416D01*
X012258Y027588D01*
X012379Y027709D01*
X012551Y027709D01*
X012672Y027588D01*
X012672Y027416D01*
X012551Y027295D01*
X012379Y027295D01*
X012258Y027416D01*
X012336Y027448D01*
X012336Y027556D01*
X012411Y027631D01*
X012519Y027631D01*
X012594Y027556D01*
X012594Y027448D01*
X012519Y027373D01*
X012411Y027373D01*
X012336Y027448D01*
X012414Y027481D01*
X012414Y027523D01*
X012444Y027553D01*
X012486Y027553D01*
X012516Y027523D01*
X012516Y027481D01*
X012486Y027451D01*
X012444Y027451D01*
X012414Y027481D01*
X013017Y028175D02*
X012965Y028123D01*
X012965Y028295D01*
X013086Y028416D01*
X013258Y028416D01*
X013379Y028295D01*
X013379Y028123D01*
X013258Y028002D01*
X013086Y028002D01*
X012965Y028123D01*
X013043Y028155D01*
X013043Y028263D01*
X013118Y028338D01*
X013226Y028338D01*
X013301Y028263D01*
X013301Y028155D01*
X013226Y028080D01*
X013118Y028080D01*
X013043Y028155D01*
X013121Y028188D01*
X013121Y028230D01*
X013151Y028260D01*
X013193Y028260D01*
X013223Y028230D01*
X013223Y028188D01*
X013193Y028158D01*
X013151Y028158D01*
X013121Y028188D01*
D12*
X013609Y026402D02*
X013977Y026034D01*
X013270Y025327D02*
X012902Y025695D01*
X012195Y024988D02*
X012562Y024620D01*
X011855Y023913D02*
X011488Y024281D01*
X013609Y022159D02*
X013977Y021792D01*
X014684Y022499D02*
X014316Y022867D01*
X015023Y023574D02*
X015391Y023206D01*
X016098Y023913D02*
X015730Y024281D01*
D13*
X024296Y015815D02*
X024720Y016239D01*
X025979Y014981D02*
X025555Y014556D01*
X024169Y013170D02*
X023744Y012746D01*
X022486Y014005D02*
X022910Y014429D01*
D14*
X020062Y013858D02*
X020212Y013708D01*
X019716Y013708D01*
X019365Y014059D01*
X019365Y014555D01*
X019716Y014906D01*
X020212Y014906D01*
X020563Y014555D01*
X020563Y014059D01*
X020212Y013708D01*
X020119Y013933D01*
X019809Y013933D01*
X019590Y014152D01*
X019590Y014462D01*
X019809Y014681D01*
X020119Y014681D01*
X020338Y014462D01*
X020338Y014152D01*
X020119Y013933D01*
X020026Y014158D01*
X019902Y014158D01*
X019815Y014245D01*
X019815Y014369D01*
X019902Y014456D01*
X020026Y014456D01*
X020113Y014369D01*
X020113Y014245D01*
X020026Y014158D01*
X014122Y019797D02*
X014272Y019647D01*
X013776Y019647D01*
X013425Y019998D01*
X013425Y020494D01*
X013776Y020845D01*
X014272Y020845D01*
X014623Y020494D01*
X014623Y019998D01*
X014272Y019647D01*
X014179Y019872D01*
X013869Y019872D01*
X013650Y020091D01*
X013650Y020401D01*
X013869Y020620D01*
X014179Y020620D01*
X014398Y020401D01*
X014398Y020091D01*
X014179Y019872D01*
X014086Y020097D01*
X013962Y020097D01*
X013875Y020184D01*
X013875Y020308D01*
X013962Y020395D01*
X014086Y020395D01*
X014173Y020308D01*
X014173Y020184D01*
X014086Y020097D01*
D15*
X014648Y019597D02*
X016297Y019597D01*
X016199Y019696D02*
X014746Y019696D01*
X014845Y019794D02*
X016100Y019794D01*
X016001Y019893D02*
X014924Y019893D01*
X014924Y019874D02*
X014924Y020387D01*
X015507Y020387D01*
X020105Y015789D01*
X020105Y015207D01*
X019591Y015207D01*
X019064Y014679D01*
X019064Y013934D01*
X019591Y013407D01*
X020337Y013407D01*
X020864Y013934D01*
X020864Y014679D01*
X020565Y014979D01*
X020565Y015980D01*
X020430Y016115D01*
X017549Y018995D01*
X017646Y018995D01*
X022328Y018995D01*
X022376Y018947D01*
X022497Y018897D01*
X022627Y018897D01*
X022748Y018947D01*
X022840Y019039D01*
X022890Y019160D01*
X022890Y019291D01*
X022840Y019411D01*
X022748Y019504D01*
X022627Y019554D01*
X022497Y019554D01*
X022376Y019504D01*
X022328Y019455D01*
X017646Y019455D01*
X017271Y019830D01*
X019683Y019830D01*
X019873Y019830D01*
X020279Y020236D01*
X020279Y020094D01*
X020519Y019854D01*
X020858Y019854D01*
X021098Y020094D01*
X021098Y020433D01*
X021005Y020526D01*
X021126Y020526D01*
X021450Y020526D01*
X021448Y020525D01*
X021398Y020404D01*
X021398Y020273D01*
X021448Y020153D01*
X021541Y020060D01*
X021662Y020010D01*
X021792Y020010D01*
X021913Y020060D01*
X021961Y020109D01*
X022467Y020109D01*
X025812Y016764D01*
X025812Y016397D01*
X022148Y012733D01*
X022079Y012733D01*
X021958Y012683D01*
X021866Y012591D01*
X021816Y012470D01*
X021816Y012339D01*
X021866Y012219D01*
X021958Y012126D01*
X022079Y012076D01*
X022210Y012076D01*
X022331Y012126D01*
X022423Y012219D01*
X022473Y012339D01*
X022473Y012408D01*
X026272Y016207D01*
X026272Y016397D01*
X026272Y016954D01*
X026137Y017089D01*
X022700Y020526D01*
X023284Y020526D01*
X023190Y020433D01*
X023190Y020094D01*
X023431Y019854D01*
X023770Y019854D01*
X024010Y020094D01*
X024010Y020236D01*
X024137Y020109D01*
X024328Y020109D01*
X026236Y020109D01*
X026960Y019385D01*
X026960Y019131D01*
X027200Y018890D01*
X027455Y018890D01*
X027761Y018584D01*
X027761Y016397D01*
X027761Y016207D01*
X027887Y016080D01*
X027746Y016080D01*
X027506Y015840D01*
X027506Y015500D01*
X027746Y015260D01*
X028015Y015260D01*
X024972Y012217D01*
X023492Y012217D01*
X023302Y012217D01*
X022861Y011776D01*
X022607Y011776D01*
X022366Y011536D01*
X022366Y011394D01*
X021555Y012206D01*
X021544Y012217D01*
X021265Y012217D01*
X021075Y012217D01*
X020124Y011266D01*
X020124Y011536D01*
X019884Y011776D01*
X019544Y011776D01*
X019304Y011536D01*
X019304Y011394D01*
X019107Y011592D01*
X019102Y011596D01*
X017280Y011596D01*
X017100Y011776D01*
X016760Y011776D01*
X016520Y011536D01*
X016520Y011196D01*
X016760Y010956D01*
X017100Y010956D01*
X017280Y011136D01*
X018912Y011136D01*
X018979Y011069D01*
X018837Y011069D01*
X018597Y010829D01*
X018597Y010489D01*
X018837Y010249D01*
X019177Y010249D01*
X019417Y010489D01*
X019417Y010644D01*
X019595Y010644D01*
X020152Y010644D01*
X020287Y010778D01*
X020990Y011482D01*
X021031Y011383D01*
X021123Y011291D01*
X021244Y011241D01*
X021312Y011241D01*
X021692Y010862D01*
X021659Y010829D01*
X021659Y010489D01*
X021899Y010249D01*
X022239Y010249D01*
X022479Y010489D01*
X022479Y010631D01*
X022745Y010365D01*
X022936Y010365D01*
X023492Y010365D01*
X023627Y010500D01*
X024328Y011200D01*
X024815Y011200D01*
X024582Y010968D01*
X024582Y010629D01*
X024823Y010388D01*
X025162Y010388D01*
X025402Y010629D01*
X025402Y010770D01*
X025668Y010504D01*
X025859Y010504D01*
X026090Y010504D01*
X025848Y010359D01*
X025472Y010188D01*
X009906Y010188D01*
X009906Y025754D01*
X010077Y026130D01*
X010529Y026884D01*
X011088Y027563D01*
X011742Y028151D01*
X012476Y028635D01*
X013275Y029003D01*
X014119Y029249D01*
X014991Y029366D01*
X015870Y029352D01*
X016096Y029315D01*
X015925Y029315D01*
X015809Y029199D01*
X015141Y029199D01*
X014950Y029199D01*
X011633Y025882D01*
X011633Y026151D01*
X011393Y026392D01*
X011053Y026392D01*
X010813Y026151D01*
X010813Y025812D01*
X010993Y025632D01*
X010993Y024963D01*
X010222Y024192D01*
X010222Y024002D01*
X010222Y022888D01*
X010349Y022761D01*
X010207Y022761D01*
X009967Y022521D01*
X009967Y022182D01*
X010207Y021942D01*
X010547Y021942D01*
X010779Y022174D01*
X010779Y021687D01*
X010083Y020991D01*
X010083Y020800D01*
X010083Y019965D01*
X010089Y019959D01*
X010349Y019699D01*
X010207Y019699D01*
X009967Y019459D01*
X009967Y019119D01*
X010207Y018879D01*
X010547Y018879D01*
X010779Y019111D01*
X010779Y018624D01*
X010083Y017929D01*
X010083Y017738D01*
X010083Y016791D01*
X009967Y016675D01*
X009967Y016421D01*
X009944Y016397D01*
X009944Y013753D01*
X009944Y010767D01*
X009967Y010744D01*
X009967Y010489D01*
X010207Y010249D01*
X010462Y010249D01*
X010485Y010226D01*
X013331Y010226D01*
X013355Y010249D01*
X013609Y010249D01*
X013849Y010489D01*
X013849Y010829D01*
X013609Y011069D01*
X013269Y011069D01*
X013029Y010829D01*
X013029Y010686D01*
X010787Y010686D01*
X010787Y010829D01*
X010547Y011069D01*
X010404Y011069D01*
X010404Y013311D01*
X010547Y013311D01*
X010787Y013552D01*
X010787Y013891D01*
X010547Y014131D01*
X010404Y014131D01*
X010404Y016095D01*
X010547Y016095D01*
X010787Y016336D01*
X010787Y016675D01*
X010547Y016915D01*
X010543Y016915D01*
X010543Y017738D01*
X011233Y018428D01*
X011239Y018434D01*
X011239Y019269D01*
X011239Y019460D01*
X011112Y019586D01*
X011169Y019586D01*
X011475Y019280D01*
X011475Y017401D01*
X011254Y017622D01*
X010914Y017622D01*
X010674Y017382D01*
X010674Y017043D01*
X010914Y016803D01*
X011254Y016803D01*
X011475Y017024D01*
X011475Y014617D01*
X011254Y014839D01*
X010914Y014839D01*
X010674Y014598D01*
X010674Y014259D01*
X010914Y014019D01*
X011254Y014019D01*
X011475Y014240D01*
X011475Y013713D01*
X011550Y013638D01*
X013736Y011451D01*
X013736Y011196D01*
X013977Y010956D01*
X014316Y010956D01*
X014556Y011196D01*
X014556Y011536D01*
X014316Y011776D01*
X014062Y011776D01*
X011935Y013903D01*
X011935Y019471D01*
X011494Y019912D01*
X011494Y020166D01*
X011254Y020406D01*
X010914Y020406D01*
X010674Y020166D01*
X010674Y020024D01*
X010543Y020156D01*
X010543Y020800D01*
X011233Y021490D01*
X011239Y021496D01*
X011239Y022522D01*
X011112Y022649D01*
X011254Y022649D01*
X011494Y022889D01*
X011494Y023228D01*
X011254Y023469D01*
X010914Y023469D01*
X010682Y023236D01*
X010682Y024002D01*
X011103Y024422D01*
X011088Y024377D01*
X011078Y024313D01*
X011078Y024249D01*
X011088Y024185D01*
X011108Y024123D01*
X011137Y024066D01*
X011175Y024014D01*
X011360Y023828D01*
X011629Y024097D01*
X011671Y024054D01*
X011403Y023786D01*
X011588Y023600D01*
X011640Y023563D01*
X011698Y023533D01*
X011759Y023513D01*
X011823Y023503D01*
X011888Y023503D01*
X011951Y023513D01*
X012013Y023533D01*
X012070Y023563D01*
X012122Y023600D01*
X012124Y023602D01*
X011672Y024054D01*
X011714Y024097D01*
X012166Y023644D01*
X012168Y023646D01*
X012206Y023698D01*
X012235Y023756D01*
X012255Y023817D01*
X012265Y023881D01*
X012265Y023907D01*
X012588Y023584D01*
X012588Y022855D01*
X012597Y022847D01*
X013200Y022243D01*
X013199Y022241D01*
X013199Y022078D01*
X013261Y021927D01*
X013744Y021444D01*
X013895Y021382D01*
X014058Y021382D01*
X014060Y021383D01*
X014297Y021146D01*
X013652Y021146D01*
X013124Y020619D01*
X013124Y019874D01*
X013652Y019346D01*
X014397Y019346D01*
X014924Y019874D01*
X014924Y019991D02*
X015903Y019991D01*
X015804Y020090D02*
X014924Y020090D01*
X014924Y020188D02*
X015706Y020188D01*
X015607Y020287D02*
X014924Y020287D01*
X014924Y020385D02*
X015509Y020385D01*
X016396Y019499D02*
X014549Y019499D01*
X014451Y019400D02*
X016494Y019400D01*
X016593Y019301D02*
X011935Y019301D01*
X011935Y019203D02*
X016691Y019203D01*
X016790Y019104D02*
X011935Y019104D01*
X011935Y019006D02*
X016888Y019006D01*
X016987Y018907D02*
X011935Y018907D01*
X011935Y018809D02*
X017085Y018809D01*
X017184Y018710D02*
X011935Y018710D01*
X011935Y018612D02*
X017283Y018612D01*
X017381Y018513D02*
X011935Y018513D01*
X011935Y018415D02*
X017480Y018415D01*
X017578Y018316D02*
X011935Y018316D01*
X011935Y018218D02*
X017677Y018218D01*
X017775Y018119D02*
X011935Y018119D01*
X011935Y018020D02*
X017874Y018020D01*
X017972Y017922D02*
X011935Y017922D01*
X011935Y017823D02*
X018071Y017823D01*
X018169Y017725D02*
X011935Y017725D01*
X011935Y017626D02*
X018268Y017626D01*
X018367Y017528D02*
X011935Y017528D01*
X011935Y017429D02*
X018465Y017429D01*
X018564Y017331D02*
X011935Y017331D01*
X011935Y017232D02*
X018662Y017232D01*
X018761Y017134D02*
X011935Y017134D01*
X011935Y017035D02*
X018859Y017035D01*
X018958Y016936D02*
X011935Y016936D01*
X011935Y016838D02*
X019056Y016838D01*
X019155Y016739D02*
X011935Y016739D01*
X011935Y016641D02*
X019253Y016641D01*
X019352Y016542D02*
X011935Y016542D01*
X011935Y016444D02*
X019451Y016444D01*
X019549Y016345D02*
X011935Y016345D01*
X011935Y016247D02*
X019648Y016247D01*
X019746Y016148D02*
X011935Y016148D01*
X011935Y016050D02*
X019845Y016050D01*
X019943Y015951D02*
X011935Y015951D01*
X011935Y015852D02*
X020042Y015852D01*
X020105Y015754D02*
X011935Y015754D01*
X011935Y015655D02*
X020105Y015655D01*
X020105Y015557D02*
X011935Y015557D01*
X011935Y015458D02*
X020105Y015458D01*
X020105Y015360D02*
X011935Y015360D01*
X011935Y015261D02*
X020105Y015261D01*
X020565Y015261D02*
X024676Y015261D01*
X024774Y015360D02*
X020565Y015360D01*
X020565Y015458D02*
X024016Y015458D01*
X024041Y015433D02*
X024206Y015365D01*
X024386Y015365D01*
X024551Y015433D01*
X025102Y015984D01*
X025170Y016150D01*
X025170Y016329D01*
X025102Y016494D01*
X024975Y016621D01*
X024810Y016689D01*
X024631Y016689D01*
X024465Y016621D01*
X023915Y016070D01*
X023846Y015904D01*
X023846Y015725D01*
X023915Y015560D01*
X024041Y015433D01*
X023918Y015557D02*
X020565Y015557D01*
X020565Y015655D02*
X023875Y015655D01*
X023846Y015754D02*
X020565Y015754D01*
X020565Y015852D02*
X023846Y015852D01*
X023865Y015951D02*
X020565Y015951D01*
X020495Y016050D02*
X023906Y016050D01*
X023993Y016148D02*
X020397Y016148D01*
X020430Y016115D02*
X020430Y016115D01*
X020298Y016247D02*
X024091Y016247D01*
X024190Y016345D02*
X020199Y016345D01*
X020101Y016444D02*
X024288Y016444D01*
X024387Y016542D02*
X020002Y016542D01*
X019904Y016641D02*
X024514Y016641D01*
X024926Y016641D02*
X025812Y016641D01*
X025812Y016739D02*
X019805Y016739D01*
X019707Y016838D02*
X025738Y016838D01*
X025639Y016936D02*
X019608Y016936D01*
X019510Y017035D02*
X025541Y017035D01*
X025442Y017134D02*
X019411Y017134D01*
X019313Y017232D02*
X025344Y017232D01*
X025245Y017331D02*
X019214Y017331D01*
X019116Y017429D02*
X025146Y017429D01*
X025048Y017528D02*
X023057Y017528D01*
X022964Y017489D02*
X023193Y017584D01*
X023368Y017759D01*
X023463Y017988D01*
X023463Y018235D01*
X023368Y018464D01*
X023193Y018639D01*
X022964Y018734D01*
X022717Y018734D01*
X022488Y018639D01*
X022313Y018464D01*
X022218Y018235D01*
X022218Y017988D01*
X022313Y017759D01*
X022488Y017584D01*
X022717Y017489D01*
X022964Y017489D01*
X023235Y017626D02*
X024949Y017626D01*
X024851Y017725D02*
X023334Y017725D01*
X023395Y017823D02*
X024752Y017823D01*
X024654Y017922D02*
X023436Y017922D01*
X023463Y018020D02*
X024555Y018020D01*
X024457Y018119D02*
X023463Y018119D01*
X023463Y018218D02*
X024358Y018218D01*
X024260Y018316D02*
X023429Y018316D01*
X023389Y018415D02*
X024161Y018415D01*
X024062Y018513D02*
X023319Y018513D01*
X023221Y018612D02*
X023964Y018612D01*
X023865Y018710D02*
X023022Y018710D01*
X022659Y018710D02*
X017834Y018710D01*
X017736Y018809D02*
X023767Y018809D01*
X023668Y018907D02*
X022653Y018907D01*
X022471Y018907D02*
X017637Y018907D01*
X017933Y018612D02*
X022460Y018612D01*
X022362Y018513D02*
X018032Y018513D01*
X018130Y018415D02*
X022292Y018415D01*
X022251Y018316D02*
X018229Y018316D01*
X018327Y018218D02*
X022218Y018218D01*
X022218Y018119D02*
X018426Y018119D01*
X018524Y018020D02*
X022218Y018020D01*
X022245Y017922D02*
X018623Y017922D01*
X018721Y017823D02*
X022286Y017823D01*
X022347Y017725D02*
X018820Y017725D01*
X018918Y017626D02*
X022446Y017626D01*
X022624Y017528D02*
X019017Y017528D01*
X017603Y019499D02*
X022371Y019499D01*
X022753Y019499D02*
X023077Y019499D01*
X022978Y019597D02*
X017504Y019597D01*
X017406Y019696D02*
X022880Y019696D01*
X022781Y019794D02*
X017307Y019794D01*
X017014Y021201D02*
X015419Y022796D01*
X015472Y022796D01*
X015623Y022858D01*
X015738Y022974D01*
X015801Y023124D01*
X015801Y023156D01*
X016805Y022151D01*
X016805Y022083D01*
X016855Y021962D01*
X016253Y021962D01*
X016351Y021864D02*
X016963Y021864D01*
X016947Y021870D02*
X017068Y021820D01*
X017199Y021820D01*
X017320Y021870D01*
X017412Y021962D01*
X020244Y021962D01*
X020244Y021864D02*
X017304Y021864D01*
X017412Y021962D02*
X017462Y022083D01*
X017462Y022214D01*
X017412Y022334D01*
X017320Y022427D01*
X017199Y022477D01*
X017130Y022477D01*
X016104Y023503D01*
X016179Y023503D01*
X016330Y023566D01*
X016446Y023681D01*
X016508Y023832D01*
X016508Y023995D01*
X016446Y024145D01*
X015963Y024628D01*
X015812Y024691D01*
X015649Y024691D01*
X015498Y024628D01*
X015383Y024513D01*
X015320Y024362D01*
X015320Y024287D01*
X014719Y024888D01*
X014719Y025618D01*
X014386Y025951D01*
X014387Y025953D01*
X014387Y026116D01*
X014324Y026267D01*
X013841Y026750D01*
X013691Y026812D01*
X013527Y026812D01*
X013377Y026750D01*
X013261Y026634D01*
X013199Y026484D01*
X013199Y026321D01*
X013261Y026170D01*
X013744Y025687D01*
X013895Y025624D01*
X014058Y025624D01*
X014060Y025625D01*
X014259Y025427D01*
X014259Y024888D01*
X014259Y024698D01*
X014973Y023984D01*
X014942Y023984D01*
X014791Y023921D01*
X014676Y023806D01*
X014613Y023655D01*
X014613Y023602D01*
X013744Y024471D01*
X013744Y025178D01*
X013679Y025244D01*
X013679Y025246D01*
X013679Y025409D01*
X013617Y025560D01*
X013134Y026043D01*
X012983Y026105D01*
X012820Y026105D01*
X012670Y026043D01*
X012554Y025927D01*
X012492Y025777D01*
X012492Y025613D01*
X012554Y025463D01*
X013037Y024980D01*
X013188Y024917D01*
X013284Y024917D01*
X013284Y024471D01*
X013284Y024280D01*
X014288Y023277D01*
X014235Y023277D01*
X014084Y023214D01*
X013969Y023099D01*
X013906Y022948D01*
X013906Y022917D01*
X013466Y023357D01*
X013466Y024042D01*
X012971Y024536D01*
X012972Y024539D01*
X012972Y024702D01*
X012910Y024852D01*
X012427Y025335D01*
X012276Y025398D01*
X012113Y025398D01*
X011963Y025335D01*
X011935Y025308D01*
X011935Y025533D01*
X015141Y028739D01*
X015685Y028739D01*
X015685Y028735D01*
X015925Y028495D01*
X016265Y028495D01*
X016505Y028735D01*
X016505Y029075D01*
X016299Y029281D01*
X016737Y029208D01*
X017573Y028935D01*
X018359Y028541D01*
X018414Y028503D01*
X018064Y028503D01*
X017873Y028503D01*
X016441Y027070D01*
X016372Y027070D01*
X016251Y027020D01*
X016159Y026928D01*
X016109Y026807D01*
X016109Y026676D01*
X016159Y026556D01*
X016251Y026463D01*
X016372Y026413D01*
X016503Y026413D01*
X016624Y026463D01*
X016716Y026556D01*
X016766Y026676D01*
X016766Y026745D01*
X018064Y028043D01*
X018302Y028043D01*
X018608Y027737D01*
X018608Y027482D01*
X018848Y027242D01*
X019188Y027242D01*
X019428Y027482D01*
X019428Y027699D01*
X019713Y027426D01*
X020250Y026730D01*
X020678Y025961D01*
X020986Y025138D01*
X021057Y024801D01*
X020858Y025000D01*
X020519Y025000D01*
X020279Y024760D01*
X020279Y024420D01*
X020519Y024180D01*
X020523Y024180D01*
X020523Y022800D01*
X020379Y022657D01*
X020244Y022522D01*
X020244Y021408D01*
X020244Y021288D01*
X020151Y021381D01*
X019812Y021381D01*
X019632Y021201D01*
X017014Y021201D01*
X016943Y021272D02*
X019703Y021272D01*
X019802Y021371D02*
X016844Y021371D01*
X016746Y021469D02*
X020244Y021469D01*
X020244Y021371D02*
X020161Y021371D01*
X020244Y021568D02*
X016647Y021568D01*
X016549Y021667D02*
X020244Y021667D01*
X020244Y021765D02*
X016450Y021765D01*
X016154Y022061D02*
X016814Y022061D01*
X016797Y022159D02*
X016056Y022159D01*
X015957Y022258D02*
X016699Y022258D01*
X016600Y022356D02*
X015859Y022356D01*
X015760Y022455D02*
X016502Y022455D01*
X016403Y022553D02*
X015662Y022553D01*
X015563Y022652D02*
X016305Y022652D01*
X016206Y022751D02*
X015465Y022751D01*
X015600Y022849D02*
X016107Y022849D01*
X016009Y022948D02*
X015712Y022948D01*
X015768Y023046D02*
X015910Y023046D01*
X015812Y023145D02*
X015801Y023145D01*
X016167Y023440D02*
X017287Y023440D01*
X017302Y023475D02*
X017207Y023246D01*
X017207Y022999D01*
X017302Y022770D01*
X017477Y022595D01*
X017706Y022500D01*
X017953Y022500D01*
X018182Y022595D01*
X018357Y022770D01*
X018452Y022999D01*
X018452Y023246D01*
X018357Y023475D01*
X018182Y023650D01*
X017953Y023745D01*
X017706Y023745D01*
X017477Y023650D01*
X017302Y023475D01*
X017365Y023539D02*
X016266Y023539D01*
X016402Y023637D02*
X017464Y023637D01*
X017684Y023736D02*
X016468Y023736D01*
X016508Y023834D02*
X019571Y023834D01*
X019571Y023736D02*
X017975Y023736D01*
X018195Y023637D02*
X019647Y023637D01*
X019571Y023713D02*
X019571Y024052D01*
X019812Y024293D01*
X020151Y024293D01*
X020391Y024052D01*
X020391Y023713D01*
X020151Y023473D01*
X019812Y023473D01*
X019571Y023713D01*
X019571Y023933D02*
X016508Y023933D01*
X016493Y024032D02*
X019571Y024032D01*
X019649Y024130D02*
X016452Y024130D01*
X016362Y024229D02*
X019748Y024229D01*
X020215Y024229D02*
X020470Y024229D01*
X020523Y024130D02*
X020314Y024130D01*
X020391Y024032D02*
X020523Y024032D01*
X020523Y023933D02*
X020391Y023933D01*
X020391Y023834D02*
X020523Y023834D01*
X020523Y023736D02*
X020391Y023736D01*
X020316Y023637D02*
X020523Y023637D01*
X020523Y023539D02*
X020217Y023539D01*
X020523Y023440D02*
X018372Y023440D01*
X018412Y023342D02*
X020523Y023342D01*
X020523Y023243D02*
X018452Y023243D01*
X018452Y023145D02*
X020523Y023145D01*
X020523Y023046D02*
X018452Y023046D01*
X018431Y022948D02*
X020523Y022948D01*
X020523Y022849D02*
X018390Y022849D01*
X018338Y022751D02*
X020473Y022751D01*
X020374Y022652D02*
X018239Y022652D01*
X018082Y022553D02*
X020276Y022553D01*
X020244Y022455D02*
X017251Y022455D01*
X017390Y022356D02*
X020244Y022356D01*
X020244Y022258D02*
X017444Y022258D01*
X017462Y022159D02*
X020244Y022159D01*
X020244Y022061D02*
X017453Y022061D01*
X017577Y022553D02*
X017054Y022553D01*
X016955Y022652D02*
X017420Y022652D01*
X017321Y022751D02*
X016856Y022751D01*
X016758Y022849D02*
X017269Y022849D01*
X017228Y022948D02*
X016659Y022948D01*
X016561Y023046D02*
X017207Y023046D01*
X017207Y023145D02*
X016462Y023145D01*
X016364Y023243D02*
X017207Y023243D01*
X017246Y023342D02*
X016265Y023342D01*
X016264Y024327D02*
X020371Y024327D01*
X020279Y024426D02*
X016165Y024426D01*
X016067Y024524D02*
X020279Y024524D01*
X020279Y024623D02*
X015968Y024623D01*
X015493Y024623D02*
X014984Y024623D01*
X014886Y024721D02*
X020279Y024721D01*
X020339Y024820D02*
X014787Y024820D01*
X014719Y024918D02*
X020437Y024918D01*
X020940Y024918D02*
X021032Y024918D01*
X021038Y024820D02*
X021053Y024820D01*
X021011Y025017D02*
X014719Y025017D01*
X014719Y025116D02*
X016370Y025116D01*
X016418Y025068D02*
X016758Y025068D01*
X016998Y025308D01*
X016998Y025648D01*
X016758Y025888D01*
X016418Y025888D01*
X016178Y025648D01*
X016178Y025308D01*
X016418Y025068D01*
X016272Y025214D02*
X014719Y025214D01*
X014719Y025313D02*
X016178Y025313D01*
X016178Y025411D02*
X014719Y025411D01*
X014719Y025510D02*
X016178Y025510D01*
X016178Y025608D02*
X014719Y025608D01*
X014719Y025618D02*
X014719Y025618D01*
X014630Y025707D02*
X016237Y025707D01*
X016336Y025805D02*
X014531Y025805D01*
X014432Y025904D02*
X020699Y025904D01*
X020736Y025805D02*
X016840Y025805D01*
X016939Y025707D02*
X020773Y025707D01*
X020810Y025608D02*
X016998Y025608D01*
X016998Y025510D02*
X020847Y025510D01*
X020884Y025411D02*
X016998Y025411D01*
X016998Y025313D02*
X020920Y025313D01*
X020957Y025214D02*
X016904Y025214D01*
X016805Y025116D02*
X020991Y025116D01*
X020655Y026002D02*
X014387Y026002D01*
X014387Y026101D02*
X020600Y026101D01*
X020545Y026200D02*
X014352Y026200D01*
X014293Y026298D02*
X020490Y026298D01*
X020436Y026397D02*
X014194Y026397D01*
X014096Y026495D02*
X014991Y026495D01*
X015004Y026482D02*
X015343Y026482D01*
X015442Y026581D01*
X015174Y026849D01*
X015216Y026892D01*
X015174Y026935D01*
X015442Y027203D01*
X015343Y027302D01*
X015004Y027302D01*
X014905Y027203D01*
X015173Y026935D01*
X015131Y026892D01*
X014862Y027161D01*
X014764Y027062D01*
X014764Y026722D01*
X014862Y026623D01*
X015131Y026892D01*
X015173Y026849D01*
X014905Y026581D01*
X015004Y026482D01*
X014918Y026594D02*
X013997Y026594D01*
X013899Y026692D02*
X014794Y026692D01*
X014764Y026791D02*
X013742Y026791D01*
X013476Y026791D02*
X013193Y026791D01*
X013291Y026889D02*
X014764Y026889D01*
X014764Y026988D02*
X013390Y026988D01*
X013488Y027086D02*
X014788Y027086D01*
X014937Y027086D02*
X015022Y027086D01*
X015035Y026988D02*
X015120Y026988D01*
X015128Y026889D02*
X015134Y026889D01*
X015214Y026889D02*
X015219Y026889D01*
X015216Y026892D02*
X015485Y026623D01*
X015584Y026722D01*
X015584Y027062D01*
X015485Y027161D01*
X015216Y026892D01*
X015227Y026988D02*
X015312Y026988D01*
X015326Y027086D02*
X015411Y027086D01*
X015424Y027185D02*
X016556Y027185D01*
X016654Y027284D02*
X015362Y027284D01*
X015559Y027086D02*
X016457Y027086D01*
X016219Y026988D02*
X015584Y026988D01*
X015584Y026889D02*
X016143Y026889D01*
X016109Y026791D02*
X015584Y026791D01*
X015554Y026692D02*
X016109Y026692D01*
X016143Y026594D02*
X015429Y026594D01*
X015416Y026692D02*
X015331Y026692D01*
X015317Y026791D02*
X015232Y026791D01*
X015115Y026791D02*
X015030Y026791D01*
X015016Y026692D02*
X014931Y026692D01*
X015356Y026495D02*
X016220Y026495D01*
X016655Y026495D02*
X020381Y026495D01*
X020326Y026594D02*
X018540Y026594D01*
X018481Y026535D02*
X018721Y026775D01*
X018721Y027115D01*
X018481Y027355D01*
X018141Y027355D01*
X017901Y027115D01*
X017901Y026775D01*
X018141Y026535D01*
X018481Y026535D01*
X018638Y026692D02*
X020271Y026692D01*
X020203Y026791D02*
X018721Y026791D01*
X018721Y026889D02*
X020127Y026889D01*
X020051Y026988D02*
X018721Y026988D01*
X018721Y027086D02*
X019975Y027086D01*
X019899Y027185D02*
X018651Y027185D01*
X018552Y027284D02*
X018807Y027284D01*
X018708Y027382D02*
X017403Y027382D01*
X017305Y027284D02*
X018070Y027284D01*
X017971Y027185D02*
X017206Y027185D01*
X017107Y027086D02*
X017901Y027086D01*
X017901Y026988D02*
X017009Y026988D01*
X016910Y026889D02*
X017901Y026889D01*
X017901Y026791D02*
X016812Y026791D01*
X016766Y026692D02*
X017984Y026692D01*
X018082Y026594D02*
X016732Y026594D01*
X016753Y027382D02*
X013784Y027382D01*
X013686Y027284D02*
X014985Y027284D01*
X014923Y027185D02*
X013587Y027185D01*
X013883Y027481D02*
X016851Y027481D01*
X016950Y027579D02*
X013981Y027579D01*
X014080Y027678D02*
X017048Y027678D01*
X017147Y027776D02*
X014178Y027776D01*
X014277Y027875D02*
X015131Y027875D01*
X015218Y027788D02*
X015558Y027788D01*
X015798Y028028D01*
X015798Y028367D01*
X017738Y028367D01*
X017640Y028269D02*
X015798Y028269D01*
X015798Y028367D02*
X015558Y028608D01*
X015218Y028608D01*
X014978Y028367D01*
X014769Y028367D01*
X014671Y028269D02*
X014978Y028269D01*
X014978Y028367D02*
X014978Y028028D01*
X015218Y027788D01*
X015033Y027973D02*
X014375Y027973D01*
X014474Y028072D02*
X014978Y028072D01*
X014978Y028170D02*
X014572Y028170D01*
X014868Y028466D02*
X015077Y028466D01*
X015175Y028565D02*
X014967Y028565D01*
X015065Y028663D02*
X015757Y028663D01*
X015856Y028565D02*
X015601Y028565D01*
X015699Y028466D02*
X017837Y028466D01*
X017919Y028762D02*
X016505Y028762D01*
X016505Y028860D02*
X017723Y028860D01*
X017501Y028959D02*
X016505Y028959D01*
X016505Y029057D02*
X017198Y029057D01*
X016896Y029156D02*
X016424Y029156D01*
X016457Y029254D02*
X016325Y029254D01*
X015865Y029254D02*
X014157Y029254D01*
X013798Y029156D02*
X014907Y029156D01*
X014809Y029057D02*
X013460Y029057D01*
X013178Y028959D02*
X014710Y028959D01*
X014612Y028860D02*
X012965Y028860D01*
X012752Y028762D02*
X014513Y028762D01*
X014415Y028663D02*
X012538Y028663D01*
X012370Y028565D02*
X012948Y028565D01*
X013002Y028619D02*
X012762Y028379D01*
X012762Y028039D01*
X013002Y027799D01*
X013342Y027799D01*
X013582Y028039D01*
X013582Y028379D01*
X013342Y028619D01*
X013002Y028619D01*
X012849Y028466D02*
X012221Y028466D01*
X012071Y028367D02*
X012762Y028367D01*
X012762Y028269D02*
X011922Y028269D01*
X011772Y028170D02*
X012762Y028170D01*
X012762Y028072D02*
X011654Y028072D01*
X011545Y027973D02*
X012828Y027973D01*
X012926Y027875D02*
X012672Y027875D01*
X012635Y027912D02*
X012295Y027912D01*
X012055Y027671D01*
X012055Y027332D01*
X012295Y027092D01*
X012635Y027092D01*
X012875Y027332D01*
X012875Y027671D01*
X012635Y027912D01*
X012770Y027776D02*
X013528Y027776D01*
X013429Y027678D02*
X012869Y027678D01*
X012875Y027579D02*
X013331Y027579D01*
X013232Y027481D02*
X012875Y027481D01*
X012875Y027382D02*
X013134Y027382D01*
X013035Y027284D02*
X012826Y027284D01*
X012728Y027185D02*
X012937Y027185D01*
X012838Y027086D02*
X010696Y027086D01*
X010614Y026988D02*
X012739Y026988D01*
X012641Y026889D02*
X010533Y026889D01*
X010473Y026791D02*
X012542Y026791D01*
X012444Y026692D02*
X010414Y026692D01*
X010355Y026594D02*
X012345Y026594D01*
X012247Y026495D02*
X010296Y026495D01*
X010237Y026397D02*
X012148Y026397D01*
X012050Y026298D02*
X011487Y026298D01*
X011585Y026200D02*
X011951Y026200D01*
X011853Y026101D02*
X011633Y026101D01*
X011633Y026002D02*
X011754Y026002D01*
X011655Y025904D02*
X011633Y025904D01*
X012010Y025608D02*
X012494Y025608D01*
X012492Y025707D02*
X012109Y025707D01*
X012207Y025805D02*
X012504Y025805D01*
X012545Y025904D02*
X012306Y025904D01*
X012404Y026002D02*
X012629Y026002D01*
X012503Y026101D02*
X012811Y026101D01*
X012993Y026101D02*
X013330Y026101D01*
X013249Y026200D02*
X012602Y026200D01*
X012700Y026298D02*
X013208Y026298D01*
X013199Y026397D02*
X012799Y026397D01*
X012897Y026495D02*
X013204Y026495D01*
X013245Y026594D02*
X012996Y026594D01*
X013094Y026692D02*
X013319Y026692D01*
X013429Y026002D02*
X013174Y026002D01*
X013273Y025904D02*
X013527Y025904D01*
X013626Y025805D02*
X013371Y025805D01*
X013470Y025707D02*
X013724Y025707D01*
X013568Y025608D02*
X014078Y025608D01*
X014176Y025510D02*
X013638Y025510D01*
X013679Y025411D02*
X014259Y025411D01*
X014259Y025313D02*
X013679Y025313D01*
X013708Y025214D02*
X014259Y025214D01*
X014259Y025116D02*
X013744Y025116D01*
X013744Y025178D02*
X013744Y025178D01*
X013744Y025017D02*
X014259Y025017D01*
X014259Y024918D02*
X013744Y024918D01*
X013744Y024820D02*
X014259Y024820D01*
X014259Y024721D02*
X013744Y024721D01*
X013744Y024623D02*
X014334Y024623D01*
X014432Y024524D02*
X013744Y024524D01*
X013789Y024426D02*
X014531Y024426D01*
X014629Y024327D02*
X013888Y024327D01*
X013986Y024229D02*
X014728Y024229D01*
X014826Y024130D02*
X014085Y024130D01*
X014183Y024032D02*
X014925Y024032D01*
X014819Y023933D02*
X014282Y023933D01*
X014381Y023834D02*
X014704Y023834D01*
X014647Y023736D02*
X014479Y023736D01*
X014578Y023637D02*
X014613Y023637D01*
X014223Y023342D02*
X013481Y023342D01*
X013466Y023440D02*
X014124Y023440D01*
X014026Y023539D02*
X013466Y023539D01*
X013466Y023637D02*
X013927Y023637D01*
X013829Y023736D02*
X013466Y023736D01*
X013466Y023834D02*
X013730Y023834D01*
X013632Y023933D02*
X013466Y023933D01*
X013466Y024032D02*
X013533Y024032D01*
X013466Y024042D02*
X013466Y024042D01*
X013434Y024130D02*
X013378Y024130D01*
X013336Y024229D02*
X013279Y024229D01*
X013284Y024327D02*
X013181Y024327D01*
X013082Y024426D02*
X013284Y024426D01*
X013284Y024524D02*
X012984Y024524D01*
X012972Y024623D02*
X013284Y024623D01*
X013284Y024721D02*
X012964Y024721D01*
X012923Y024820D02*
X013284Y024820D01*
X013185Y024918D02*
X012844Y024918D01*
X012745Y025017D02*
X013000Y025017D01*
X012902Y025116D02*
X012647Y025116D01*
X012548Y025214D02*
X012803Y025214D01*
X012704Y025313D02*
X012450Y025313D01*
X012606Y025411D02*
X011935Y025411D01*
X011935Y025313D02*
X011940Y025313D01*
X011935Y025510D02*
X012535Y025510D01*
X011779Y024032D02*
X011694Y024032D01*
X011649Y024032D02*
X011564Y024032D01*
X011550Y023933D02*
X011465Y023933D01*
X011451Y023834D02*
X011366Y023834D01*
X011354Y023834D02*
X010682Y023834D01*
X010682Y023736D02*
X011453Y023736D01*
X011551Y023637D02*
X010682Y023637D01*
X010682Y023539D02*
X011687Y023539D01*
X012024Y023539D02*
X012588Y023539D01*
X012588Y023440D02*
X011282Y023440D01*
X011381Y023342D02*
X012588Y023342D01*
X012588Y023243D02*
X011479Y023243D01*
X011494Y023145D02*
X012588Y023145D01*
X012588Y023046D02*
X011494Y023046D01*
X011494Y022948D02*
X012588Y022948D01*
X012594Y022849D02*
X011454Y022849D01*
X011356Y022751D02*
X012693Y022751D01*
X012791Y022652D02*
X011257Y022652D01*
X011207Y022553D02*
X012890Y022553D01*
X012988Y022455D02*
X011239Y022455D01*
X011239Y022356D02*
X013087Y022356D01*
X013185Y022258D02*
X011239Y022258D01*
X011239Y022159D02*
X013199Y022159D01*
X013206Y022061D02*
X011239Y022061D01*
X011239Y021962D02*
X013247Y021962D01*
X013325Y021864D02*
X011239Y021864D01*
X011239Y021765D02*
X013424Y021765D01*
X013522Y021667D02*
X011239Y021667D01*
X011239Y021568D02*
X013621Y021568D01*
X013719Y021469D02*
X011212Y021469D01*
X011114Y021371D02*
X014072Y021371D01*
X014171Y021272D02*
X011015Y021272D01*
X010916Y021174D02*
X014269Y021174D01*
X013581Y021075D02*
X010818Y021075D01*
X010719Y020977D02*
X013482Y020977D01*
X013384Y020878D02*
X010621Y020878D01*
X010543Y020780D02*
X013285Y020780D01*
X013186Y020681D02*
X010543Y020681D01*
X010543Y020583D02*
X013124Y020583D01*
X013124Y020484D02*
X010543Y020484D01*
X010543Y020385D02*
X010893Y020385D01*
X010795Y020287D02*
X010543Y020287D01*
X010543Y020188D02*
X010696Y020188D01*
X010674Y020090D02*
X010609Y020090D01*
X010254Y019794D02*
X009906Y019794D01*
X009906Y019696D02*
X010204Y019696D01*
X010105Y019597D02*
X009906Y019597D01*
X009906Y019499D02*
X010007Y019499D01*
X009967Y019400D02*
X009906Y019400D01*
X009906Y019301D02*
X009967Y019301D01*
X009967Y019203D02*
X009906Y019203D01*
X009906Y019104D02*
X009982Y019104D01*
X009906Y019006D02*
X010081Y019006D01*
X010179Y018907D02*
X009906Y018907D01*
X009906Y018809D02*
X010779Y018809D01*
X010779Y018907D02*
X010575Y018907D01*
X010673Y019006D02*
X010779Y019006D01*
X010772Y019104D02*
X010779Y019104D01*
X010779Y018710D02*
X009906Y018710D01*
X009906Y018612D02*
X010766Y018612D01*
X010668Y018513D02*
X009906Y018513D01*
X009906Y018415D02*
X010569Y018415D01*
X010471Y018316D02*
X009906Y018316D01*
X009906Y018218D02*
X010372Y018218D01*
X010273Y018119D02*
X009906Y018119D01*
X009906Y018020D02*
X010175Y018020D01*
X010083Y017922D02*
X009906Y017922D01*
X009906Y017823D02*
X010083Y017823D01*
X010083Y017725D02*
X009906Y017725D01*
X009906Y017626D02*
X010083Y017626D01*
X010083Y017528D02*
X009906Y017528D01*
X009906Y017429D02*
X010083Y017429D01*
X010083Y017331D02*
X009906Y017331D01*
X009906Y017232D02*
X010083Y017232D01*
X010083Y017134D02*
X009906Y017134D01*
X009906Y017035D02*
X010083Y017035D01*
X010083Y016936D02*
X009906Y016936D01*
X009906Y016838D02*
X010083Y016838D01*
X010031Y016739D02*
X009906Y016739D01*
X009906Y016641D02*
X009967Y016641D01*
X009967Y016542D02*
X009906Y016542D01*
X009906Y016444D02*
X009967Y016444D01*
X009944Y016345D02*
X009906Y016345D01*
X009906Y016247D02*
X009944Y016247D01*
X009944Y016148D02*
X009906Y016148D01*
X009906Y016050D02*
X009944Y016050D01*
X009944Y015951D02*
X009906Y015951D01*
X009906Y015852D02*
X009944Y015852D01*
X009944Y015754D02*
X009906Y015754D01*
X009906Y015655D02*
X009944Y015655D01*
X009944Y015557D02*
X009906Y015557D01*
X009906Y015458D02*
X009944Y015458D01*
X009944Y015360D02*
X009906Y015360D01*
X009906Y015261D02*
X009944Y015261D01*
X009944Y015163D02*
X009906Y015163D01*
X009906Y015064D02*
X009944Y015064D01*
X009944Y014966D02*
X009906Y014966D01*
X009906Y014867D02*
X009944Y014867D01*
X009944Y014769D02*
X009906Y014769D01*
X009906Y014670D02*
X009944Y014670D01*
X009944Y014571D02*
X009906Y014571D01*
X009906Y014473D02*
X009944Y014473D01*
X009944Y014374D02*
X009906Y014374D01*
X009906Y014276D02*
X009944Y014276D01*
X009944Y014177D02*
X009906Y014177D01*
X009906Y014079D02*
X009944Y014079D01*
X009944Y013980D02*
X009906Y013980D01*
X009906Y013882D02*
X009944Y013882D01*
X009944Y013783D02*
X009906Y013783D01*
X009906Y013685D02*
X009944Y013685D01*
X009944Y013586D02*
X009906Y013586D01*
X009906Y013487D02*
X009944Y013487D01*
X009944Y013389D02*
X009906Y013389D01*
X009906Y013290D02*
X009944Y013290D01*
X009944Y013192D02*
X009906Y013192D01*
X009906Y013093D02*
X009944Y013093D01*
X009944Y012995D02*
X009906Y012995D01*
X009906Y012896D02*
X009944Y012896D01*
X009944Y012798D02*
X009906Y012798D01*
X009906Y012699D02*
X009944Y012699D01*
X009944Y012601D02*
X009906Y012601D01*
X009906Y012502D02*
X009944Y012502D01*
X009944Y012403D02*
X009906Y012403D01*
X009906Y012305D02*
X009944Y012305D01*
X009944Y012206D02*
X009906Y012206D01*
X009906Y012108D02*
X009944Y012108D01*
X009944Y012009D02*
X009906Y012009D01*
X009906Y011911D02*
X009944Y011911D01*
X009944Y011812D02*
X009906Y011812D01*
X009906Y011714D02*
X009944Y011714D01*
X009944Y011615D02*
X009906Y011615D01*
X009906Y011517D02*
X009944Y011517D01*
X009944Y011418D02*
X009906Y011418D01*
X009906Y011319D02*
X009944Y011319D01*
X009944Y011221D02*
X009906Y011221D01*
X009906Y011122D02*
X009944Y011122D01*
X009944Y011024D02*
X009906Y011024D01*
X009906Y010925D02*
X009944Y010925D01*
X009944Y010827D02*
X009906Y010827D01*
X009906Y010728D02*
X009967Y010728D01*
X009967Y010630D02*
X009906Y010630D01*
X009906Y010531D02*
X009967Y010531D01*
X010024Y010433D02*
X009906Y010433D01*
X009906Y010334D02*
X010122Y010334D01*
X009906Y010236D02*
X010475Y010236D01*
X010787Y010728D02*
X013029Y010728D01*
X013029Y010827D02*
X010787Y010827D01*
X010691Y010925D02*
X013126Y010925D01*
X013224Y011024D02*
X011321Y011024D01*
X011254Y010956D02*
X011494Y011196D01*
X011494Y011536D01*
X011254Y011776D01*
X010914Y011776D01*
X010674Y011536D01*
X010674Y011196D01*
X010914Y010956D01*
X011254Y010956D01*
X011420Y011122D02*
X013810Y011122D01*
X013736Y011221D02*
X011494Y011221D01*
X011494Y011319D02*
X013736Y011319D01*
X013736Y011418D02*
X011494Y011418D01*
X011494Y011517D02*
X013671Y011517D01*
X013572Y011615D02*
X011415Y011615D01*
X011316Y011714D02*
X013474Y011714D01*
X013375Y011812D02*
X010404Y011812D01*
X010404Y011714D02*
X010852Y011714D01*
X010753Y011615D02*
X010404Y011615D01*
X010404Y011517D02*
X010674Y011517D01*
X010674Y011418D02*
X010404Y011418D01*
X010404Y011319D02*
X010674Y011319D01*
X010674Y011221D02*
X010404Y011221D01*
X010404Y011122D02*
X010748Y011122D01*
X010847Y011024D02*
X010592Y011024D01*
X010404Y011911D02*
X013277Y011911D01*
X013178Y012009D02*
X010404Y012009D01*
X010404Y012108D02*
X013080Y012108D01*
X012981Y012206D02*
X010404Y012206D01*
X010404Y012305D02*
X012883Y012305D01*
X012784Y012403D02*
X010404Y012403D01*
X010404Y012502D02*
X012685Y012502D01*
X012587Y012601D02*
X010404Y012601D01*
X010404Y012699D02*
X012488Y012699D01*
X012390Y012798D02*
X010404Y012798D01*
X010404Y012896D02*
X012291Y012896D01*
X012193Y012995D02*
X010404Y012995D01*
X010404Y013093D02*
X012094Y013093D01*
X011996Y013192D02*
X010404Y013192D01*
X010404Y013290D02*
X011897Y013290D01*
X011799Y013389D02*
X010624Y013389D01*
X010723Y013487D02*
X011700Y013487D01*
X011601Y013586D02*
X010787Y013586D01*
X010787Y013685D02*
X011503Y013685D01*
X011475Y013783D02*
X010787Y013783D01*
X010787Y013882D02*
X011475Y013882D01*
X011475Y013980D02*
X010698Y013980D01*
X010599Y014079D02*
X010854Y014079D01*
X010756Y014177D02*
X010404Y014177D01*
X010404Y014276D02*
X010674Y014276D01*
X010674Y014374D02*
X010404Y014374D01*
X010404Y014473D02*
X010674Y014473D01*
X010674Y014571D02*
X010404Y014571D01*
X010404Y014670D02*
X010746Y014670D01*
X010844Y014769D02*
X010404Y014769D01*
X010404Y014867D02*
X011475Y014867D01*
X011475Y014769D02*
X011324Y014769D01*
X011422Y014670D02*
X011475Y014670D01*
X011475Y014966D02*
X010404Y014966D01*
X010404Y015064D02*
X011475Y015064D01*
X011475Y015163D02*
X010404Y015163D01*
X010404Y015261D02*
X011475Y015261D01*
X011475Y015360D02*
X010404Y015360D01*
X010404Y015458D02*
X011475Y015458D01*
X011475Y015557D02*
X010404Y015557D01*
X010404Y015655D02*
X011475Y015655D01*
X011475Y015754D02*
X010404Y015754D01*
X010404Y015852D02*
X011475Y015852D01*
X011475Y015951D02*
X010404Y015951D01*
X010404Y016050D02*
X011475Y016050D01*
X011475Y016148D02*
X010599Y016148D01*
X010698Y016247D02*
X011475Y016247D01*
X011475Y016345D02*
X010787Y016345D01*
X010787Y016444D02*
X011475Y016444D01*
X011475Y016542D02*
X010787Y016542D01*
X010787Y016641D02*
X011475Y016641D01*
X011475Y016739D02*
X010723Y016739D01*
X010624Y016838D02*
X010879Y016838D01*
X010780Y016936D02*
X010543Y016936D01*
X010543Y017035D02*
X010682Y017035D01*
X010674Y017134D02*
X010543Y017134D01*
X010543Y017232D02*
X010674Y017232D01*
X010674Y017331D02*
X010543Y017331D01*
X010543Y017429D02*
X010721Y017429D01*
X010820Y017528D02*
X010543Y017528D01*
X010543Y017626D02*
X011475Y017626D01*
X011475Y017528D02*
X011349Y017528D01*
X011447Y017429D02*
X011475Y017429D01*
X011475Y017725D02*
X010543Y017725D01*
X010628Y017823D02*
X011475Y017823D01*
X011475Y017922D02*
X010727Y017922D01*
X010825Y018020D02*
X011475Y018020D01*
X011475Y018119D02*
X010924Y018119D01*
X011022Y018218D02*
X011475Y018218D01*
X011475Y018316D02*
X011121Y018316D01*
X011220Y018415D02*
X011475Y018415D01*
X011475Y018513D02*
X011239Y018513D01*
X011239Y018612D02*
X011475Y018612D01*
X011475Y018710D02*
X011239Y018710D01*
X011239Y018809D02*
X011475Y018809D01*
X011475Y018907D02*
X011239Y018907D01*
X011239Y019006D02*
X011475Y019006D01*
X011475Y019104D02*
X011239Y019104D01*
X011239Y019203D02*
X011475Y019203D01*
X011454Y019301D02*
X011239Y019301D01*
X011239Y019400D02*
X011355Y019400D01*
X011257Y019499D02*
X011200Y019499D01*
X011513Y019893D02*
X013124Y019893D01*
X013124Y019991D02*
X011494Y019991D01*
X011494Y020090D02*
X013124Y020090D01*
X013124Y020188D02*
X011472Y020188D01*
X011373Y020287D02*
X013124Y020287D01*
X013124Y020385D02*
X011275Y020385D01*
X011611Y019794D02*
X013204Y019794D01*
X013302Y019696D02*
X011710Y019696D01*
X011809Y019597D02*
X013401Y019597D01*
X013499Y019499D02*
X011907Y019499D01*
X011935Y019471D02*
X011935Y019471D01*
X011935Y019400D02*
X013598Y019400D01*
X011475Y016936D02*
X011388Y016936D01*
X011475Y016838D02*
X011289Y016838D01*
X011935Y015163D02*
X019548Y015163D01*
X019449Y015064D02*
X011935Y015064D01*
X011935Y014966D02*
X019350Y014966D01*
X019252Y014867D02*
X011935Y014867D01*
X011935Y014769D02*
X019153Y014769D01*
X019064Y014670D02*
X011935Y014670D01*
X011935Y014571D02*
X019064Y014571D01*
X019064Y014473D02*
X011935Y014473D01*
X011935Y014374D02*
X019064Y014374D01*
X019064Y014276D02*
X011935Y014276D01*
X011935Y014177D02*
X019064Y014177D01*
X019064Y014079D02*
X011935Y014079D01*
X011935Y013980D02*
X019064Y013980D01*
X019116Y013882D02*
X011956Y013882D01*
X012055Y013783D02*
X019215Y013783D01*
X019314Y013685D02*
X012153Y013685D01*
X012252Y013586D02*
X019412Y013586D01*
X019511Y013487D02*
X012350Y013487D01*
X012449Y013389D02*
X022803Y013389D01*
X022705Y013290D02*
X012548Y013290D01*
X012646Y013192D02*
X022606Y013192D01*
X022508Y013093D02*
X012745Y013093D01*
X012843Y012995D02*
X022409Y012995D01*
X022311Y012896D02*
X012942Y012896D01*
X013040Y012798D02*
X022212Y012798D01*
X021997Y012699D02*
X013139Y012699D01*
X013237Y012601D02*
X021876Y012601D01*
X021829Y012502D02*
X013336Y012502D01*
X013434Y012403D02*
X021816Y012403D01*
X021830Y012305D02*
X013533Y012305D01*
X013631Y012206D02*
X021064Y012206D01*
X020966Y012108D02*
X013730Y012108D01*
X013829Y012009D02*
X020867Y012009D01*
X020769Y011911D02*
X013927Y011911D01*
X014026Y011812D02*
X020670Y011812D01*
X020571Y011714D02*
X019946Y011714D01*
X020045Y011615D02*
X020473Y011615D01*
X020374Y011517D02*
X020124Y011517D01*
X020124Y011418D02*
X020276Y011418D01*
X020177Y011319D02*
X020124Y011319D01*
X020434Y010925D02*
X021628Y010925D01*
X021659Y010827D02*
X020335Y010827D01*
X020236Y010728D02*
X021659Y010728D01*
X021659Y010630D02*
X019417Y010630D01*
X019417Y010531D02*
X021659Y010531D01*
X021716Y010433D02*
X019360Y010433D01*
X019262Y010334D02*
X021815Y010334D01*
X022324Y010334D02*
X025792Y010334D01*
X025970Y010433D02*
X025206Y010433D01*
X025305Y010531D02*
X025641Y010531D01*
X025543Y010630D02*
X025402Y010630D01*
X025402Y010728D02*
X025444Y010728D01*
X025799Y011024D02*
X026285Y011024D01*
X026225Y010964D02*
X025859Y010964D01*
X025728Y011096D01*
X025869Y011096D01*
X026109Y011336D01*
X026109Y011675D01*
X025869Y011915D01*
X025530Y011915D01*
X025290Y011675D01*
X025290Y011534D01*
X025163Y011660D01*
X024328Y011660D01*
X024137Y011660D01*
X023302Y010825D01*
X022936Y010825D01*
X022805Y010956D01*
X022946Y010956D01*
X023186Y011196D01*
X023186Y011451D01*
X023492Y011757D01*
X025163Y011757D01*
X025298Y011892D01*
X028638Y015233D01*
X028638Y015423D01*
X028638Y015967D01*
X028792Y015967D01*
X029033Y016207D01*
X029033Y016378D01*
X029070Y016152D01*
X029084Y015273D01*
X028967Y014401D01*
X028721Y013557D01*
X028352Y012759D01*
X028221Y012559D01*
X028221Y013168D01*
X028337Y013284D01*
X028337Y013624D01*
X028096Y013864D01*
X027757Y013864D01*
X027517Y013624D01*
X027517Y013284D01*
X027757Y013044D01*
X027761Y013044D01*
X027761Y012500D01*
X026225Y010964D01*
X026383Y011122D02*
X025896Y011122D01*
X025995Y011221D02*
X026482Y011221D01*
X026580Y011319D02*
X026093Y011319D01*
X026109Y011418D02*
X026679Y011418D01*
X026777Y011517D02*
X026109Y011517D01*
X026109Y011615D02*
X026876Y011615D01*
X026974Y011714D02*
X026071Y011714D01*
X025973Y011812D02*
X027073Y011812D01*
X027171Y011911D02*
X025874Y011911D01*
X025612Y012206D02*
X027467Y012206D01*
X027369Y012108D02*
X025514Y012108D01*
X025415Y012009D02*
X027270Y012009D01*
X027389Y012337D02*
X027050Y012337D01*
X026810Y012577D01*
X026810Y012917D01*
X027050Y013157D01*
X027389Y013157D01*
X027629Y012917D01*
X027629Y012577D01*
X027389Y012337D01*
X027456Y012403D02*
X027664Y012403D01*
X027761Y012502D02*
X027554Y012502D01*
X027629Y012601D02*
X027761Y012601D01*
X027761Y012699D02*
X027629Y012699D01*
X027629Y012798D02*
X027761Y012798D01*
X027761Y012896D02*
X027629Y012896D01*
X027552Y012995D02*
X027761Y012995D01*
X027708Y013093D02*
X027453Y013093D01*
X027609Y013192D02*
X026597Y013192D01*
X026499Y013093D02*
X026986Y013093D01*
X026887Y012995D02*
X026400Y012995D01*
X026302Y012896D02*
X026810Y012896D01*
X026810Y012798D02*
X026203Y012798D01*
X026105Y012699D02*
X026810Y012699D01*
X026810Y012601D02*
X026006Y012601D01*
X025908Y012502D02*
X026885Y012502D01*
X026983Y012403D02*
X025809Y012403D01*
X025711Y012305D02*
X027566Y012305D01*
X028221Y012601D02*
X028248Y012601D01*
X028221Y012699D02*
X028313Y012699D01*
X028370Y012798D02*
X028221Y012798D01*
X028221Y012896D02*
X028416Y012896D01*
X028461Y012995D02*
X028221Y012995D01*
X028221Y013093D02*
X028507Y013093D01*
X028552Y013192D02*
X028244Y013192D01*
X028337Y013290D02*
X028598Y013290D01*
X028644Y013389D02*
X028337Y013389D01*
X028337Y013487D02*
X028689Y013487D01*
X028730Y013586D02*
X028337Y013586D01*
X028276Y013685D02*
X028758Y013685D01*
X028787Y013783D02*
X028177Y013783D01*
X027676Y013783D02*
X027189Y013783D01*
X027287Y013882D02*
X028816Y013882D01*
X028844Y013980D02*
X027386Y013980D01*
X027484Y014079D02*
X028873Y014079D01*
X028902Y014177D02*
X027583Y014177D01*
X027681Y014276D02*
X028930Y014276D01*
X028959Y014374D02*
X027780Y014374D01*
X027879Y014473D02*
X028977Y014473D01*
X028990Y014571D02*
X027977Y014571D01*
X028076Y014670D02*
X029003Y014670D01*
X029016Y014769D02*
X028174Y014769D01*
X028273Y014867D02*
X029030Y014867D01*
X029043Y014966D02*
X028371Y014966D01*
X028470Y015064D02*
X029056Y015064D01*
X029069Y015163D02*
X028568Y015163D01*
X028638Y015261D02*
X029083Y015261D01*
X029083Y015360D02*
X028638Y015360D01*
X028638Y015458D02*
X029081Y015458D01*
X029080Y015557D02*
X028638Y015557D01*
X028638Y015655D02*
X029078Y015655D01*
X029077Y015754D02*
X028638Y015754D01*
X028638Y015852D02*
X029075Y015852D01*
X029073Y015951D02*
X028638Y015951D01*
X028875Y016050D02*
X029072Y016050D01*
X029070Y016148D02*
X028973Y016148D01*
X029033Y016247D02*
X029054Y016247D01*
X029038Y016345D02*
X029033Y016345D01*
X027918Y015163D02*
X026391Y015163D01*
X026396Y015153D02*
X026364Y015216D01*
X026331Y015262D01*
X025838Y014768D01*
X026120Y014486D01*
X026322Y014687D01*
X026364Y014745D01*
X026396Y014808D01*
X026418Y014875D01*
X026429Y014945D01*
X026429Y015016D01*
X026418Y015086D01*
X026396Y015153D01*
X026421Y015064D02*
X027819Y015064D01*
X027721Y014966D02*
X026429Y014966D01*
X026415Y014867D02*
X027622Y014867D01*
X027524Y014769D02*
X026376Y014769D01*
X026305Y014670D02*
X027425Y014670D01*
X027327Y014571D02*
X026206Y014571D01*
X026034Y014571D02*
X025893Y014571D01*
X025936Y014670D02*
X025794Y014670D01*
X025767Y014698D02*
X025838Y014768D01*
X025838Y014769D02*
X025838Y014769D01*
X025838Y014768D02*
X025767Y014839D01*
X026260Y015332D01*
X026215Y015365D01*
X026152Y015398D01*
X026084Y015419D01*
X026014Y015430D01*
X025944Y015430D01*
X025874Y015419D01*
X025806Y015398D01*
X025743Y015365D01*
X025686Y015324D01*
X025484Y015122D01*
X025767Y014839D01*
X025696Y014768D01*
X025767Y014698D01*
X026050Y014415D01*
X025848Y014213D01*
X025791Y014171D01*
X025727Y014139D01*
X025660Y014117D01*
X025590Y014106D01*
X025519Y014106D01*
X025449Y014117D01*
X025382Y014139D01*
X025319Y014171D01*
X025273Y014204D01*
X025767Y014698D01*
X025739Y014670D02*
X025598Y014670D01*
X025641Y014571D02*
X025499Y014571D01*
X025542Y014473D02*
X025401Y014473D01*
X025443Y014374D02*
X025302Y014374D01*
X025345Y014276D02*
X025204Y014276D01*
X025203Y014275D02*
X025696Y014768D01*
X025413Y015051D01*
X025211Y014849D01*
X025170Y014792D01*
X025138Y014729D01*
X025116Y014662D01*
X025105Y014592D01*
X025105Y014521D01*
X025116Y014451D01*
X025138Y014384D01*
X025170Y014320D01*
X025203Y014275D01*
X025202Y014276D02*
X024341Y014276D01*
X024439Y014374D02*
X025142Y014374D01*
X025112Y014473D02*
X024538Y014473D01*
X024636Y014571D02*
X025105Y014571D01*
X025118Y014670D02*
X024735Y014670D01*
X024834Y014769D02*
X025158Y014769D01*
X025229Y014867D02*
X024932Y014867D01*
X025031Y014966D02*
X025328Y014966D01*
X025499Y014966D02*
X025640Y014966D01*
X025597Y014867D02*
X025739Y014867D01*
X025795Y014867D02*
X025936Y014867D01*
X025893Y014966D02*
X026035Y014966D01*
X025992Y015064D02*
X026133Y015064D01*
X026090Y015163D02*
X026232Y015163D01*
X026189Y015261D02*
X026330Y015261D01*
X026331Y015261D02*
X027745Y015261D01*
X027646Y015360D02*
X026222Y015360D01*
X025735Y015360D02*
X025425Y015360D01*
X025523Y015458D02*
X027548Y015458D01*
X027506Y015557D02*
X025622Y015557D01*
X025720Y015655D02*
X027506Y015655D01*
X027506Y015754D02*
X025819Y015754D01*
X025917Y015852D02*
X027518Y015852D01*
X027617Y015951D02*
X026016Y015951D01*
X026115Y016050D02*
X027715Y016050D01*
X027819Y016148D02*
X026213Y016148D01*
X026272Y016247D02*
X027761Y016247D01*
X027761Y016345D02*
X026272Y016345D01*
X026272Y016444D02*
X027761Y016444D01*
X027761Y016542D02*
X026272Y016542D01*
X026272Y016641D02*
X027761Y016641D01*
X027761Y016739D02*
X026272Y016739D01*
X026272Y016838D02*
X027761Y016838D01*
X027761Y016936D02*
X026272Y016936D01*
X026191Y017035D02*
X027761Y017035D01*
X027761Y017134D02*
X026093Y017134D01*
X025994Y017232D02*
X027761Y017232D01*
X027761Y017331D02*
X025895Y017331D01*
X025797Y017429D02*
X027761Y017429D01*
X027761Y017528D02*
X025698Y017528D01*
X025600Y017626D02*
X027761Y017626D01*
X027761Y017725D02*
X025501Y017725D01*
X025403Y017823D02*
X027761Y017823D01*
X027761Y017922D02*
X025304Y017922D01*
X025206Y018020D02*
X027761Y018020D01*
X027761Y018119D02*
X025107Y018119D01*
X025009Y018218D02*
X026459Y018218D01*
X026493Y018183D02*
X026833Y018183D01*
X027073Y018423D01*
X027073Y018763D01*
X026833Y019003D01*
X026493Y019003D01*
X026253Y018763D01*
X026253Y018423D01*
X026493Y018183D01*
X026360Y018316D02*
X024910Y018316D01*
X024811Y018415D02*
X026262Y018415D01*
X026253Y018513D02*
X024713Y018513D01*
X024614Y018612D02*
X026253Y018612D01*
X026253Y018710D02*
X024516Y018710D01*
X024417Y018809D02*
X026298Y018809D01*
X026397Y018907D02*
X024319Y018907D01*
X024220Y019006D02*
X027085Y019006D01*
X027183Y018907D02*
X026928Y018907D01*
X027027Y018809D02*
X027536Y018809D01*
X027635Y018710D02*
X027073Y018710D01*
X027073Y018612D02*
X027733Y018612D01*
X027761Y018513D02*
X027073Y018513D01*
X027064Y018415D02*
X027761Y018415D01*
X027761Y018316D02*
X026965Y018316D01*
X026867Y018218D02*
X027761Y018218D01*
X026986Y019104D02*
X024122Y019104D01*
X024023Y019203D02*
X026960Y019203D01*
X026960Y019301D02*
X023925Y019301D01*
X023826Y019400D02*
X026945Y019400D01*
X026846Y019499D02*
X023727Y019499D01*
X023629Y019597D02*
X026748Y019597D01*
X026649Y019696D02*
X023530Y019696D01*
X023432Y019794D02*
X026551Y019794D01*
X026452Y019893D02*
X023809Y019893D01*
X023908Y019991D02*
X026354Y019991D01*
X026255Y020090D02*
X024006Y020090D01*
X024010Y020188D02*
X024058Y020188D01*
X024485Y020569D02*
X024717Y020801D01*
X024717Y021141D01*
X024519Y021339D01*
X024856Y021268D01*
X025679Y020960D01*
X026382Y020569D01*
X024485Y020569D01*
X024499Y020583D02*
X026357Y020583D01*
X026180Y020681D02*
X024598Y020681D01*
X024696Y020780D02*
X026003Y020780D01*
X025826Y020878D02*
X024717Y020878D01*
X024717Y020977D02*
X025634Y020977D01*
X025371Y021075D02*
X024717Y021075D01*
X024684Y021174D02*
X025107Y021174D01*
X024835Y021272D02*
X024586Y021272D01*
X023241Y020484D02*
X022742Y020484D01*
X022841Y020385D02*
X023190Y020385D01*
X023190Y020287D02*
X022939Y020287D01*
X023038Y020188D02*
X023190Y020188D01*
X023194Y020090D02*
X023136Y020090D01*
X023235Y019991D02*
X023293Y019991D01*
X023333Y019893D02*
X023391Y019893D01*
X023176Y019400D02*
X022845Y019400D01*
X022886Y019301D02*
X023274Y019301D01*
X023373Y019203D02*
X022890Y019203D01*
X022867Y019104D02*
X023471Y019104D01*
X023570Y019006D02*
X022807Y019006D01*
X022683Y019893D02*
X020897Y019893D01*
X020996Y019991D02*
X022584Y019991D01*
X022486Y020090D02*
X021942Y020090D01*
X021511Y020090D02*
X021095Y020090D01*
X021098Y020188D02*
X021434Y020188D01*
X021398Y020287D02*
X021098Y020287D01*
X021098Y020385D02*
X021398Y020385D01*
X021432Y020484D02*
X021048Y020484D01*
X020480Y019893D02*
X019936Y019893D01*
X020034Y019991D02*
X020381Y019991D01*
X020282Y020090D02*
X020133Y020090D01*
X020231Y020188D02*
X020279Y020188D01*
X019745Y023539D02*
X018293Y023539D01*
X016855Y021962D02*
X016947Y021870D01*
X015320Y024327D02*
X015280Y024327D01*
X015347Y024426D02*
X015181Y024426D01*
X015083Y024524D02*
X015394Y024524D01*
X014154Y023243D02*
X013580Y023243D01*
X013678Y023145D02*
X014014Y023145D01*
X013947Y023046D02*
X013777Y023046D01*
X013876Y022948D02*
X013906Y022948D01*
X012535Y023637D02*
X012089Y023637D01*
X012075Y023736D02*
X011990Y023736D01*
X011976Y023834D02*
X011891Y023834D01*
X011878Y023933D02*
X011793Y023933D01*
X012225Y023736D02*
X012437Y023736D01*
X012338Y023834D02*
X012258Y023834D01*
X011256Y023933D02*
X010682Y023933D01*
X010712Y024032D02*
X011162Y024032D01*
X011106Y024130D02*
X010810Y024130D01*
X010909Y024229D02*
X011081Y024229D01*
X011080Y024327D02*
X011008Y024327D01*
X010653Y024623D02*
X009906Y024623D01*
X009906Y024721D02*
X010751Y024721D01*
X010850Y024820D02*
X009906Y024820D01*
X009906Y024918D02*
X010292Y024918D01*
X010346Y024865D02*
X010686Y024865D01*
X010926Y025105D01*
X010926Y025444D01*
X010686Y025684D01*
X010346Y025684D01*
X010106Y025444D01*
X010106Y025105D01*
X010346Y024865D01*
X010194Y025017D02*
X009906Y025017D01*
X009906Y025116D02*
X010106Y025116D01*
X010106Y025214D02*
X009906Y025214D01*
X009906Y025313D02*
X010106Y025313D01*
X010106Y025411D02*
X009906Y025411D01*
X009906Y025510D02*
X010172Y025510D01*
X010270Y025608D02*
X009906Y025608D01*
X009906Y025707D02*
X010918Y025707D01*
X010993Y025608D02*
X010762Y025608D01*
X010861Y025510D02*
X010993Y025510D01*
X010993Y025411D02*
X010926Y025411D01*
X010926Y025313D02*
X010993Y025313D01*
X010993Y025214D02*
X010926Y025214D01*
X010926Y025116D02*
X010993Y025116D01*
X010993Y025017D02*
X010838Y025017D01*
X010740Y024918D02*
X010948Y024918D01*
X010554Y024524D02*
X009906Y024524D01*
X009906Y024426D02*
X010456Y024426D01*
X010357Y024327D02*
X009906Y024327D01*
X009906Y024229D02*
X010259Y024229D01*
X010222Y024130D02*
X009906Y024130D01*
X009906Y024032D02*
X010222Y024032D01*
X010222Y023933D02*
X009906Y023933D01*
X009906Y023834D02*
X010222Y023834D01*
X010222Y023736D02*
X009906Y023736D01*
X009906Y023637D02*
X010222Y023637D01*
X010222Y023539D02*
X009906Y023539D01*
X009906Y023440D02*
X010222Y023440D01*
X010222Y023342D02*
X009906Y023342D01*
X009906Y023243D02*
X010222Y023243D01*
X010222Y023145D02*
X009906Y023145D01*
X009906Y023046D02*
X010222Y023046D01*
X010222Y022948D02*
X009906Y022948D01*
X009906Y022849D02*
X010261Y022849D01*
X010196Y022751D02*
X009906Y022751D01*
X009906Y022652D02*
X010098Y022652D01*
X009999Y022553D02*
X009906Y022553D01*
X009906Y022455D02*
X009967Y022455D01*
X009967Y022356D02*
X009906Y022356D01*
X009906Y022258D02*
X009967Y022258D01*
X009989Y022159D02*
X009906Y022159D01*
X009906Y022061D02*
X010088Y022061D01*
X010186Y021962D02*
X009906Y021962D01*
X009906Y021864D02*
X010779Y021864D01*
X010779Y021962D02*
X010567Y021962D01*
X010666Y022061D02*
X010779Y022061D01*
X010779Y022159D02*
X010764Y022159D01*
X010779Y021765D02*
X009906Y021765D01*
X009906Y021667D02*
X010759Y021667D01*
X010660Y021568D02*
X009906Y021568D01*
X009906Y021469D02*
X010562Y021469D01*
X010463Y021371D02*
X009906Y021371D01*
X009906Y021272D02*
X010365Y021272D01*
X010266Y021174D02*
X009906Y021174D01*
X009906Y021075D02*
X010167Y021075D01*
X010083Y020977D02*
X009906Y020977D01*
X009906Y020878D02*
X010083Y020878D01*
X010083Y020780D02*
X009906Y020780D01*
X009906Y020681D02*
X010083Y020681D01*
X010083Y020583D02*
X009906Y020583D01*
X009906Y020484D02*
X010083Y020484D01*
X010083Y020385D02*
X009906Y020385D01*
X009906Y020287D02*
X010083Y020287D01*
X010083Y020188D02*
X009906Y020188D01*
X009906Y020090D02*
X010083Y020090D01*
X010083Y019991D02*
X009906Y019991D01*
X009906Y019893D02*
X010155Y019893D01*
X010682Y023243D02*
X010689Y023243D01*
X010682Y023342D02*
X010788Y023342D01*
X010886Y023440D02*
X010682Y023440D01*
X010820Y025805D02*
X009930Y025805D01*
X009974Y025904D02*
X010813Y025904D01*
X010813Y026002D02*
X010019Y026002D01*
X010064Y026101D02*
X010813Y026101D01*
X010861Y026200D02*
X010119Y026200D01*
X010178Y026298D02*
X010960Y026298D01*
X010777Y027185D02*
X012202Y027185D01*
X012103Y027284D02*
X010858Y027284D01*
X010939Y027382D02*
X012055Y027382D01*
X012055Y027481D02*
X011020Y027481D01*
X011106Y027579D02*
X012055Y027579D01*
X012061Y027678D02*
X011216Y027678D01*
X011325Y027776D02*
X012160Y027776D01*
X012258Y027875D02*
X011435Y027875D01*
X013418Y027875D02*
X013626Y027875D01*
X013725Y027973D02*
X013516Y027973D01*
X013582Y028072D02*
X013823Y028072D01*
X013922Y028170D02*
X013582Y028170D01*
X013582Y028269D02*
X014021Y028269D01*
X014119Y028367D02*
X013582Y028367D01*
X013495Y028466D02*
X014218Y028466D01*
X014316Y028565D02*
X013396Y028565D01*
X014890Y029353D02*
X015843Y029353D01*
X016433Y028663D02*
X018116Y028663D01*
X018312Y028565D02*
X016335Y028565D01*
X015798Y028170D02*
X017541Y028170D01*
X017442Y028072D02*
X015798Y028072D01*
X015743Y027973D02*
X017344Y027973D01*
X017245Y027875D02*
X015645Y027875D01*
X017502Y027481D02*
X018610Y027481D01*
X018608Y027579D02*
X017600Y027579D01*
X017699Y027678D02*
X018608Y027678D01*
X018569Y027776D02*
X017797Y027776D01*
X017896Y027875D02*
X018470Y027875D01*
X018372Y027973D02*
X017994Y027973D01*
X019229Y027284D02*
X019823Y027284D01*
X019747Y027382D02*
X019328Y027382D01*
X019426Y027481D02*
X019656Y027481D01*
X019553Y027579D02*
X019428Y027579D01*
X019428Y027678D02*
X019450Y027678D01*
X025054Y016542D02*
X025812Y016542D01*
X025812Y016444D02*
X025123Y016444D01*
X025163Y016345D02*
X025760Y016345D01*
X025661Y016247D02*
X025170Y016247D01*
X025170Y016148D02*
X025563Y016148D01*
X025464Y016050D02*
X025129Y016050D01*
X025069Y015951D02*
X025366Y015951D01*
X025267Y015852D02*
X024970Y015852D01*
X024871Y015754D02*
X025168Y015754D01*
X025070Y015655D02*
X024773Y015655D01*
X024674Y015557D02*
X024971Y015557D01*
X024873Y015458D02*
X024576Y015458D01*
X024577Y015163D02*
X020565Y015163D01*
X020565Y015064D02*
X024479Y015064D01*
X024380Y014966D02*
X020578Y014966D01*
X020676Y014867D02*
X022792Y014867D01*
X022821Y014879D02*
X022655Y014810D01*
X022104Y014260D01*
X022036Y014094D01*
X022036Y013915D01*
X022104Y013750D01*
X022231Y013623D01*
X022396Y013555D01*
X022575Y013555D01*
X022741Y013623D01*
X023292Y014174D01*
X023360Y014339D01*
X023360Y014518D01*
X023292Y014684D01*
X023165Y014810D01*
X023000Y014879D01*
X022821Y014879D01*
X023028Y014867D02*
X024282Y014867D01*
X024183Y014769D02*
X023207Y014769D01*
X023297Y014670D02*
X024084Y014670D01*
X023986Y014571D02*
X023338Y014571D01*
X023360Y014473D02*
X023887Y014473D01*
X023789Y014374D02*
X023360Y014374D01*
X023334Y014276D02*
X023690Y014276D01*
X023592Y014177D02*
X023293Y014177D01*
X023196Y014079D02*
X023493Y014079D01*
X023395Y013980D02*
X023098Y013980D01*
X022999Y013882D02*
X023296Y013882D01*
X023198Y013783D02*
X022901Y013783D01*
X022802Y013685D02*
X023099Y013685D01*
X023001Y013586D02*
X022651Y013586D01*
X022902Y013487D02*
X020418Y013487D01*
X020516Y013586D02*
X022321Y013586D01*
X022170Y013685D02*
X020615Y013685D01*
X020713Y013783D02*
X022091Y013783D01*
X022050Y013882D02*
X020812Y013882D01*
X020864Y013980D02*
X022036Y013980D01*
X022036Y014079D02*
X020864Y014079D01*
X020864Y014177D02*
X022070Y014177D01*
X022121Y014276D02*
X020864Y014276D01*
X020864Y014374D02*
X022219Y014374D01*
X022318Y014473D02*
X020864Y014473D01*
X020864Y014571D02*
X022416Y014571D01*
X022515Y014670D02*
X020864Y014670D01*
X020775Y014769D02*
X022613Y014769D01*
X023848Y013783D02*
X026538Y013783D01*
X026440Y013685D02*
X023750Y013685D01*
X023651Y013586D02*
X023993Y013586D01*
X023996Y013587D02*
X023933Y013555D01*
X023876Y013514D01*
X023674Y013312D01*
X023956Y013029D01*
X023886Y012958D01*
X023956Y012887D01*
X023463Y012394D01*
X023509Y012361D01*
X023572Y012329D01*
X023639Y012307D01*
X023709Y012296D01*
X023780Y012296D01*
X023850Y012307D01*
X023917Y012329D01*
X023980Y012361D01*
X024038Y012403D01*
X024239Y012605D01*
X023957Y012887D01*
X024027Y012958D01*
X024310Y012675D01*
X024512Y012877D01*
X024554Y012934D01*
X024586Y012998D01*
X024608Y013065D01*
X024619Y013135D01*
X024619Y013206D01*
X024608Y013276D01*
X024586Y013343D01*
X024554Y013406D01*
X024521Y013451D01*
X024027Y012958D01*
X023957Y013029D01*
X024450Y013522D01*
X024405Y013555D01*
X024341Y013587D01*
X024274Y013609D01*
X024204Y013620D01*
X024133Y013620D01*
X024063Y013609D01*
X023996Y013587D01*
X023849Y013487D02*
X023552Y013487D01*
X023454Y013389D02*
X023751Y013389D01*
X023695Y013290D02*
X023355Y013290D01*
X023257Y013192D02*
X023554Y013192D01*
X023603Y013241D02*
X023401Y013039D01*
X023360Y012982D01*
X023327Y012919D01*
X023306Y012851D01*
X023294Y012781D01*
X023294Y012711D01*
X023306Y012641D01*
X023327Y012573D01*
X023360Y012510D01*
X023393Y012465D01*
X023886Y012958D01*
X023603Y013241D01*
X023652Y013192D02*
X023794Y013192D01*
X023751Y013093D02*
X023892Y013093D01*
X023922Y012995D02*
X023849Y012995D01*
X023824Y012896D02*
X023948Y012896D01*
X023966Y012896D02*
X024089Y012896D01*
X024064Y012995D02*
X023991Y012995D01*
X024021Y013093D02*
X024162Y013093D01*
X024120Y013192D02*
X024261Y013192D01*
X024218Y013290D02*
X024359Y013290D01*
X024317Y013389D02*
X024458Y013389D01*
X024562Y013389D02*
X026144Y013389D01*
X026046Y013290D02*
X024603Y013290D01*
X024619Y013192D02*
X025947Y013192D01*
X025849Y013093D02*
X024612Y013093D01*
X024584Y012995D02*
X025750Y012995D01*
X025651Y012896D02*
X024526Y012896D01*
X024432Y012798D02*
X025553Y012798D01*
X025454Y012699D02*
X024334Y012699D01*
X024286Y012699D02*
X024145Y012699D01*
X024188Y012798D02*
X024046Y012798D01*
X023867Y012798D02*
X023725Y012798D01*
X023768Y012699D02*
X023627Y012699D01*
X023670Y012601D02*
X023528Y012601D01*
X023571Y012502D02*
X023430Y012502D01*
X023366Y012502D02*
X022567Y012502D01*
X022473Y012403D02*
X023473Y012403D01*
X023653Y012305D02*
X022459Y012305D01*
X022411Y012206D02*
X023291Y012206D01*
X023193Y012108D02*
X022286Y012108D01*
X022003Y012108D02*
X021653Y012108D01*
X021554Y012206D02*
X021878Y012206D01*
X021752Y012009D02*
X023094Y012009D01*
X022996Y011911D02*
X021850Y011911D01*
X021949Y011812D02*
X022897Y011812D01*
X022544Y011714D02*
X022047Y011714D01*
X022146Y011615D02*
X022445Y011615D01*
X022366Y011517D02*
X022244Y011517D01*
X022343Y011418D02*
X022366Y011418D01*
X022836Y010925D02*
X023402Y010925D01*
X023304Y010827D02*
X022934Y010827D01*
X023014Y011024D02*
X023501Y011024D01*
X023599Y011122D02*
X023112Y011122D01*
X023186Y011221D02*
X023698Y011221D01*
X023796Y011319D02*
X023186Y011319D01*
X023186Y011418D02*
X023895Y011418D01*
X023993Y011517D02*
X023252Y011517D01*
X023350Y011615D02*
X024092Y011615D01*
X024250Y011122D02*
X024737Y011122D01*
X024638Y011024D02*
X024151Y011024D01*
X024053Y010925D02*
X024582Y010925D01*
X024582Y010827D02*
X023954Y010827D01*
X023856Y010728D02*
X024582Y010728D01*
X024582Y010630D02*
X023757Y010630D01*
X023658Y010531D02*
X024680Y010531D01*
X024778Y010433D02*
X023560Y010433D01*
X022678Y010433D02*
X022422Y010433D01*
X022479Y010531D02*
X022579Y010531D01*
X022481Y010630D02*
X022479Y010630D01*
X021530Y011024D02*
X020532Y011024D01*
X020631Y011122D02*
X021431Y011122D01*
X021333Y011221D02*
X020729Y011221D01*
X020828Y011319D02*
X021095Y011319D01*
X021017Y011418D02*
X020926Y011418D01*
X019482Y011714D02*
X017163Y011714D01*
X017261Y011615D02*
X019383Y011615D01*
X019304Y011517D02*
X019182Y011517D01*
X019281Y011418D02*
X019304Y011418D01*
X018926Y011122D02*
X017266Y011122D01*
X017168Y011024D02*
X018792Y011024D01*
X018693Y010925D02*
X016537Y010925D01*
X016633Y010829D02*
X016393Y011069D01*
X016053Y011069D01*
X015813Y010829D01*
X015813Y010489D01*
X016053Y010249D01*
X016393Y010249D01*
X016633Y010489D01*
X016633Y010829D01*
X016633Y010827D02*
X018597Y010827D01*
X018597Y010728D02*
X016633Y010728D01*
X016633Y010630D02*
X018597Y010630D01*
X018597Y010531D02*
X016633Y010531D01*
X016576Y010433D02*
X018654Y010433D01*
X018752Y010334D02*
X016478Y010334D01*
X015968Y010334D02*
X013694Y010334D01*
X013792Y010433D02*
X015870Y010433D01*
X015813Y010531D02*
X013849Y010531D01*
X013849Y010630D02*
X015813Y010630D01*
X015813Y010728D02*
X013849Y010728D01*
X013849Y010827D02*
X015813Y010827D01*
X015910Y010925D02*
X013753Y010925D01*
X013654Y011024D02*
X013909Y011024D01*
X014384Y011024D02*
X016008Y011024D01*
X016438Y011024D02*
X016693Y011024D01*
X016594Y011122D02*
X014482Y011122D01*
X014556Y011221D02*
X016520Y011221D01*
X016520Y011319D02*
X014556Y011319D01*
X014556Y011418D02*
X016520Y011418D01*
X016520Y011517D02*
X014556Y011517D01*
X014477Y011615D02*
X016599Y011615D01*
X016698Y011714D02*
X014379Y011714D01*
X013341Y010236D02*
X025575Y010236D01*
X025290Y011615D02*
X025208Y011615D01*
X025328Y011714D02*
X023449Y011714D01*
X023836Y012305D02*
X025060Y012305D01*
X025159Y012403D02*
X024038Y012403D01*
X024137Y012502D02*
X025257Y012502D01*
X025356Y012601D02*
X024235Y012601D01*
X024415Y013487D02*
X026243Y013487D01*
X026341Y013586D02*
X024344Y013586D01*
X024045Y013980D02*
X026735Y013980D01*
X026637Y013882D02*
X023947Y013882D01*
X024144Y014079D02*
X026834Y014079D01*
X026932Y014177D02*
X025799Y014177D01*
X025911Y014276D02*
X027031Y014276D01*
X027130Y014374D02*
X026009Y014374D01*
X025992Y014473D02*
X027228Y014473D01*
X027090Y013685D02*
X027577Y013685D01*
X027517Y013586D02*
X026992Y013586D01*
X026893Y013487D02*
X027517Y013487D01*
X027517Y013389D02*
X026795Y013389D01*
X026696Y013290D02*
X027517Y013290D01*
X025696Y014769D02*
X025696Y014769D01*
X025542Y015064D02*
X025129Y015064D01*
X025228Y015163D02*
X025525Y015163D01*
X025623Y015261D02*
X025326Y015261D01*
X025311Y014177D02*
X024242Y014177D01*
X023455Y013093D02*
X023158Y013093D01*
X023060Y012995D02*
X023369Y012995D01*
X023320Y012896D02*
X022961Y012896D01*
X022863Y012798D02*
X023297Y012798D01*
X023296Y012699D02*
X022764Y012699D01*
X022666Y012601D02*
X023319Y012601D01*
X025218Y011812D02*
X025426Y011812D01*
X025525Y011911D02*
X025316Y011911D01*
X011475Y014079D02*
X011314Y014079D01*
X011412Y014177D02*
X011475Y014177D01*
D16*
X011566Y012405D03*
X012123Y011848D03*
X019778Y012266D03*
X020196Y011848D03*
X021309Y011570D03*
X022144Y012405D03*
X026599Y012961D03*
X025903Y018947D03*
X026181Y019782D03*
X025207Y020756D03*
X022562Y019225D03*
X021727Y020339D03*
X017134Y022148D03*
X020196Y026324D03*
X016438Y026742D03*
D17*
X017969Y028273D01*
X018397Y028273D01*
X019018Y027652D01*
X016095Y028905D02*
X016031Y028969D01*
X015046Y028969D01*
X011705Y025628D01*
X011705Y024793D01*
X012818Y023679D01*
X012818Y022950D01*
X013793Y021976D01*
X014455Y021313D01*
X015463Y021313D01*
X017551Y019225D01*
X022562Y019225D01*
X022562Y020339D02*
X021727Y020339D01*
X021031Y020756D02*
X020753Y021035D01*
X019778Y020060D01*
X017273Y020060D01*
X015463Y021870D01*
X014628Y021870D01*
X013236Y023262D01*
X013236Y023947D01*
X012379Y024804D01*
X013086Y025511D02*
X013514Y025083D01*
X013514Y024375D01*
X016919Y020971D01*
X019981Y020971D01*
X020474Y021313D02*
X020753Y021035D01*
X021031Y020756D02*
X023815Y020756D01*
X024232Y020339D01*
X026331Y020339D01*
X027370Y019300D01*
X027991Y018680D01*
X027991Y016302D01*
X028408Y015885D01*
X028408Y015328D01*
X025068Y011987D01*
X023397Y011987D01*
X022776Y011366D01*
X022840Y010595D02*
X021449Y011987D01*
X021170Y011987D01*
X020057Y010874D01*
X019500Y010874D01*
X019007Y011366D01*
X016930Y011366D01*
X014146Y011366D02*
X011705Y013808D01*
X011705Y019376D01*
X011084Y019996D01*
X011009Y019364D02*
X010313Y020060D01*
X010313Y020896D01*
X011009Y021592D01*
X011009Y022427D01*
X010452Y022983D01*
X010452Y024097D01*
X011223Y024868D01*
X011223Y025982D01*
X013793Y026218D02*
X014489Y025522D01*
X014489Y024793D01*
X017134Y022148D01*
X015602Y020617D02*
X020335Y015885D01*
X020335Y014677D01*
X019964Y014307D01*
X022144Y012405D02*
X026042Y016302D01*
X026042Y016859D01*
X022562Y020339D01*
X020474Y021313D02*
X020474Y022427D01*
X020753Y022705D01*
X020753Y024526D01*
X020689Y024590D01*
X015602Y020617D02*
X014395Y020617D01*
X014024Y020246D01*
X011009Y019364D02*
X011009Y018529D01*
X010313Y017833D01*
X010313Y016569D01*
X010377Y016505D01*
X010174Y016302D01*
X010174Y013657D01*
X010174Y010862D01*
X010377Y010659D01*
X010580Y010456D01*
X013236Y010456D01*
X013439Y010659D01*
X010377Y013721D02*
X010313Y013657D01*
X010174Y013657D01*
X021309Y011570D02*
X022069Y010810D01*
X022069Y010659D01*
X022840Y010595D02*
X023397Y010595D01*
X024232Y011430D01*
X025068Y011430D01*
X025764Y010734D01*
X026320Y010734D01*
X027991Y012405D01*
X027991Y013390D01*
X027927Y013454D01*
M02*
