%
M48
M72
T01C0.0197
T02C0.0945
%
T01
X26320Y11570
X25485Y12405
X23119Y11152
X20335Y10874
X20196Y13518
X22562Y14771
X22980Y15189
X21727Y20060
X22423Y19921
X21866Y16859
X23397Y16720
X23536Y15745
X26320Y18251
X26877Y18251
X25068Y19504
X27712Y15189
X19361Y21592
X10870Y11987
X11844Y14075
X11148Y15606
X10174Y15189
X11983Y18390
X12262Y19504
X12679Y19921
X12679Y21592
X12262Y22009
X10591Y22009
X11983Y24515
X11148Y26463
X16298Y26324
X16298Y26881
X16855Y27438
X17412Y27438
X20613Y24515
X13654Y11987
X14906Y11291
X14906Y10734
X16298Y10456
X17551Y10874
T02
X17829Y23123
X22840Y18112
M30
