G75*
G70*
%OFA0B0*%
%FSLAX24Y24*%
%IPPOS*%
%LPD*%
%AMOC8*
5,1,8,0,0,1.08239X$1,22.5*
%
%ADD10C,0.0000*%
%ADD11R,0.0128X0.0167*%
%ADD12R,0.0138X0.0138*%
%ADD13C,0.0100*%
%ADD14C,0.0080*%
%ADD15C,0.0060*%
D10*
X009756Y010038D02*
X025504Y010038D01*
X025771Y010155D01*
X026032Y010285D01*
X026287Y010428D01*
X026534Y010582D01*
X026773Y010749D01*
X027005Y010927D01*
X027227Y011115D01*
X027440Y011315D01*
X027643Y011524D01*
X027835Y011743D01*
X028017Y011971D01*
X028188Y012207D01*
X028347Y012452D01*
X028494Y012704D01*
X028629Y012962D01*
X028751Y013227D01*
X028860Y013498D01*
X028956Y013773D01*
X029038Y014053D01*
X029107Y014336D01*
X029162Y014622D01*
X029203Y014911D01*
X029231Y015201D01*
X029244Y015493D01*
X029243Y015784D01*
X029228Y016076D01*
X029199Y016366D01*
X029156Y016654D01*
X029099Y016940D01*
X029028Y017223D01*
X028944Y017502D01*
X028846Y017777D01*
X028735Y018047D01*
X028611Y018311D01*
X028475Y018568D01*
X028326Y018819D01*
X028166Y019063D01*
X027994Y019298D01*
X027810Y019525D01*
X027616Y019743D01*
X027412Y019951D01*
X027198Y020148D01*
X026974Y020336D01*
X026742Y020512D01*
X026501Y020677D01*
X026253Y020830D01*
X025998Y020971D01*
X025736Y021099D01*
X025468Y021215D01*
X025195Y021317D01*
X024918Y021407D01*
X024636Y021482D01*
X024351Y021544D01*
X024063Y021592D01*
X023774Y021627D01*
X023483Y021647D01*
X023191Y021653D01*
X022900Y021645D01*
X022609Y021623D01*
X022320Y021587D01*
X022032Y021537D01*
X021748Y021473D01*
X021467Y021395D01*
X021190Y021304D01*
X020917Y021200D01*
X017357Y023123D02*
X017359Y023166D01*
X017365Y023208D01*
X017375Y023250D01*
X017388Y023291D01*
X017405Y023331D01*
X017426Y023368D01*
X017450Y023404D01*
X017477Y023437D01*
X017507Y023468D01*
X017540Y023496D01*
X017575Y023521D01*
X017612Y023542D01*
X017651Y023560D01*
X017691Y023574D01*
X017733Y023585D01*
X017775Y023592D01*
X017818Y023595D01*
X017861Y023594D01*
X017904Y023589D01*
X017946Y023580D01*
X017987Y023568D01*
X018027Y023552D01*
X018065Y023532D01*
X018101Y023509D01*
X018135Y023482D01*
X018167Y023453D01*
X018195Y023421D01*
X018221Y023386D01*
X018243Y023350D01*
X018262Y023311D01*
X018277Y023271D01*
X018289Y023230D01*
X018297Y023187D01*
X018301Y023144D01*
X018301Y023102D01*
X018297Y023059D01*
X018289Y023016D01*
X018277Y022975D01*
X018262Y022935D01*
X018243Y022896D01*
X018221Y022860D01*
X018195Y022825D01*
X018167Y022793D01*
X018135Y022764D01*
X018101Y022737D01*
X018065Y022714D01*
X018027Y022694D01*
X017987Y022678D01*
X017946Y022666D01*
X017904Y022657D01*
X017861Y022652D01*
X017818Y022651D01*
X017775Y022654D01*
X017733Y022661D01*
X017691Y022672D01*
X017651Y022686D01*
X017612Y022704D01*
X017575Y022725D01*
X017540Y022750D01*
X017507Y022778D01*
X017477Y022809D01*
X017450Y022842D01*
X017426Y022878D01*
X017405Y022915D01*
X017388Y022955D01*
X017375Y022996D01*
X017365Y023038D01*
X017359Y023080D01*
X017357Y023123D01*
X020918Y021199D02*
X021022Y021472D01*
X021113Y021749D01*
X021191Y022030D01*
X021255Y022314D01*
X021305Y022602D01*
X021341Y022891D01*
X021363Y023182D01*
X021371Y023473D01*
X021365Y023765D01*
X021345Y024056D01*
X021310Y024345D01*
X021262Y024633D01*
X021200Y024918D01*
X021125Y025200D01*
X021035Y025477D01*
X020933Y025750D01*
X020817Y026018D01*
X020689Y026280D01*
X020548Y026535D01*
X020395Y026783D01*
X020230Y027024D01*
X020054Y027256D01*
X019866Y027480D01*
X019669Y027694D01*
X019461Y027898D01*
X019243Y028092D01*
X019016Y028276D01*
X018781Y028448D01*
X018537Y028608D01*
X018286Y028757D01*
X018029Y028893D01*
X017765Y029017D01*
X017495Y029128D01*
X017220Y029226D01*
X016941Y029310D01*
X016658Y029381D01*
X016372Y029438D01*
X016084Y029481D01*
X015794Y029510D01*
X015502Y029525D01*
X015211Y029526D01*
X014919Y029513D01*
X014629Y029485D01*
X014340Y029444D01*
X014054Y029389D01*
X013771Y029320D01*
X013491Y029238D01*
X013216Y029142D01*
X012945Y029033D01*
X012680Y028911D01*
X012422Y028776D01*
X012170Y028629D01*
X011925Y028470D01*
X011689Y028299D01*
X011461Y028117D01*
X011242Y027925D01*
X011033Y027722D01*
X010833Y027509D01*
X010645Y027287D01*
X010467Y027055D01*
X010300Y026816D01*
X010146Y026569D01*
X010003Y026314D01*
X009873Y026053D01*
X009756Y025786D01*
X009756Y010038D01*
X022368Y018112D02*
X022370Y018155D01*
X022376Y018197D01*
X022386Y018239D01*
X022399Y018280D01*
X022416Y018320D01*
X022437Y018357D01*
X022461Y018393D01*
X022488Y018426D01*
X022518Y018457D01*
X022551Y018485D01*
X022586Y018510D01*
X022623Y018531D01*
X022662Y018549D01*
X022702Y018563D01*
X022744Y018574D01*
X022786Y018581D01*
X022829Y018584D01*
X022872Y018583D01*
X022915Y018578D01*
X022957Y018569D01*
X022998Y018557D01*
X023038Y018541D01*
X023076Y018521D01*
X023112Y018498D01*
X023146Y018471D01*
X023178Y018442D01*
X023206Y018410D01*
X023232Y018375D01*
X023254Y018339D01*
X023273Y018300D01*
X023288Y018260D01*
X023300Y018219D01*
X023308Y018176D01*
X023312Y018133D01*
X023312Y018091D01*
X023308Y018048D01*
X023300Y018005D01*
X023288Y017964D01*
X023273Y017924D01*
X023254Y017885D01*
X023232Y017849D01*
X023206Y017814D01*
X023178Y017782D01*
X023146Y017753D01*
X023112Y017726D01*
X023076Y017703D01*
X023038Y017683D01*
X022998Y017667D01*
X022957Y017655D01*
X022915Y017646D01*
X022872Y017641D01*
X022829Y017640D01*
X022786Y017643D01*
X022744Y017650D01*
X022702Y017661D01*
X022662Y017675D01*
X022623Y017693D01*
X022586Y017714D01*
X022551Y017739D01*
X022518Y017767D01*
X022488Y017798D01*
X022461Y017831D01*
X022437Y017867D01*
X022416Y017904D01*
X022399Y017944D01*
X022386Y017985D01*
X022376Y018027D01*
X022370Y018069D01*
X022368Y018112D01*
D11*
G36*
X023503Y020317D02*
X023593Y020407D01*
X023709Y020291D01*
X023619Y020201D01*
X023503Y020317D01*
G37*
G36*
X023886Y020700D02*
X023976Y020790D01*
X024092Y020674D01*
X024002Y020584D01*
X023886Y020700D01*
G37*
G36*
X026565Y018925D02*
X026655Y019015D01*
X026771Y018899D01*
X026681Y018809D01*
X026565Y018925D01*
G37*
G36*
X026948Y019308D02*
X027038Y019398D01*
X027154Y019282D01*
X027064Y019192D01*
X026948Y019308D01*
G37*
G36*
X027922Y016385D02*
X028012Y016475D01*
X028128Y016359D01*
X028038Y016269D01*
X027922Y016385D01*
G37*
G36*
X027540Y016002D02*
X027630Y016092D01*
X027746Y015976D01*
X027656Y015886D01*
X027540Y016002D01*
G37*
G36*
X027226Y013740D02*
X027316Y013830D01*
X027432Y013714D01*
X027342Y013624D01*
X027226Y013740D01*
G37*
G36*
X026844Y013357D02*
X026934Y013447D01*
X027050Y013331D01*
X026960Y013241D01*
X026844Y013357D01*
G37*
G36*
X025139Y011652D02*
X025229Y011742D01*
X025345Y011626D01*
X025255Y011536D01*
X025139Y011652D01*
G37*
G36*
X024756Y011269D02*
X024846Y011359D01*
X024962Y011243D01*
X024872Y011153D01*
X024756Y011269D01*
G37*
G36*
X022216Y011513D02*
X022306Y011603D01*
X022422Y011487D01*
X022332Y011397D01*
X022216Y011513D01*
G37*
G36*
X021833Y011130D02*
X021923Y011220D01*
X022039Y011104D01*
X021949Y011014D01*
X021833Y011130D01*
G37*
G36*
X019153Y011513D02*
X019243Y011603D01*
X019359Y011487D01*
X019269Y011397D01*
X019153Y011513D01*
G37*
G36*
X018770Y011130D02*
X018860Y011220D01*
X018976Y011104D01*
X018886Y011014D01*
X018770Y011130D01*
G37*
G36*
X016369Y011513D02*
X016459Y011603D01*
X016575Y011487D01*
X016485Y011397D01*
X016369Y011513D01*
G37*
G36*
X015987Y011130D02*
X016077Y011220D01*
X016193Y011104D01*
X016103Y011014D01*
X015987Y011130D01*
G37*
G36*
X013585Y011513D02*
X013675Y011603D01*
X013791Y011487D01*
X013701Y011397D01*
X013585Y011513D01*
G37*
G36*
X013203Y011130D02*
X013293Y011220D01*
X013409Y011104D01*
X013319Y011014D01*
X013203Y011130D01*
G37*
G36*
X010802Y011513D02*
X010892Y011603D01*
X011008Y011487D01*
X010918Y011397D01*
X010802Y011513D01*
G37*
G36*
X010419Y011130D02*
X010509Y011220D01*
X010625Y011104D01*
X010535Y011014D01*
X010419Y011130D01*
G37*
G36*
X010419Y013914D02*
X010509Y014004D01*
X010625Y013888D01*
X010535Y013798D01*
X010419Y013914D01*
G37*
G36*
X010802Y014297D02*
X010892Y014387D01*
X011008Y014271D01*
X010918Y014181D01*
X010802Y014297D01*
G37*
G36*
X010419Y016698D02*
X010509Y016788D01*
X010625Y016672D01*
X010535Y016582D01*
X010419Y016698D01*
G37*
G36*
X010802Y017081D02*
X010892Y017171D01*
X011008Y017055D01*
X010918Y016965D01*
X010802Y017081D01*
G37*
G36*
X010419Y019482D02*
X010509Y019572D01*
X010625Y019456D01*
X010535Y019366D01*
X010419Y019482D01*
G37*
G36*
X010802Y019865D02*
X010892Y019955D01*
X011008Y019839D01*
X010918Y019749D01*
X010802Y019865D01*
G37*
G36*
X010419Y022544D02*
X010509Y022634D01*
X010625Y022518D01*
X010535Y022428D01*
X010419Y022544D01*
G37*
G36*
X010802Y022927D02*
X010892Y023017D01*
X011008Y022901D01*
X010918Y022811D01*
X010802Y022927D01*
G37*
G36*
X010558Y025467D02*
X010648Y025557D01*
X010764Y025441D01*
X010674Y025351D01*
X010558Y025467D01*
G37*
G36*
X010941Y025850D02*
X011031Y025940D01*
X011147Y025824D01*
X011057Y025734D01*
X010941Y025850D01*
G37*
G36*
X012646Y027555D02*
X012736Y027645D01*
X012852Y027529D01*
X012762Y027439D01*
X012646Y027555D01*
G37*
G36*
X013029Y027938D02*
X013119Y028028D01*
X013235Y027912D01*
X013145Y027822D01*
X013029Y027938D01*
G37*
G36*
X015291Y028251D02*
X015381Y028341D01*
X015497Y028225D01*
X015407Y028135D01*
X015291Y028251D01*
G37*
G36*
X015673Y028634D02*
X015763Y028724D01*
X015879Y028608D01*
X015789Y028518D01*
X015673Y028634D01*
G37*
G36*
X018214Y027277D02*
X018304Y027367D01*
X018420Y027251D01*
X018330Y027161D01*
X018214Y027277D01*
G37*
G36*
X018596Y027659D02*
X018686Y027749D01*
X018802Y027633D01*
X018712Y027543D01*
X018596Y027659D01*
G37*
G36*
X019988Y024597D02*
X020078Y024687D01*
X020194Y024571D01*
X020104Y024481D01*
X019988Y024597D01*
G37*
G36*
X019606Y024214D02*
X019696Y024304D01*
X019812Y024188D01*
X019722Y024098D01*
X019606Y024214D01*
G37*
G36*
X020267Y020978D02*
X020357Y021068D01*
X020473Y020952D01*
X020383Y020862D01*
X020267Y020978D01*
G37*
G36*
X019884Y020595D02*
X019974Y020685D01*
X020090Y020569D01*
X020000Y020479D01*
X019884Y020595D01*
G37*
D12*
G36*
X020189Y020666D02*
X020286Y020763D01*
X020383Y020666D01*
X020286Y020569D01*
X020189Y020666D01*
G37*
G36*
X019911Y024285D02*
X020008Y024382D01*
X020105Y024285D01*
X020008Y024188D01*
X019911Y024285D01*
G37*
G36*
X018519Y027347D02*
X018616Y027444D01*
X018713Y027347D01*
X018616Y027250D01*
X018519Y027347D01*
G37*
G36*
X015596Y028322D02*
X015693Y028419D01*
X015790Y028322D01*
X015693Y028225D01*
X015596Y028322D01*
G37*
G36*
X012951Y027626D02*
X013048Y027723D01*
X013145Y027626D01*
X013048Y027529D01*
X012951Y027626D01*
G37*
G36*
X010863Y025538D02*
X010960Y025635D01*
X011057Y025538D01*
X010960Y025441D01*
X010863Y025538D01*
G37*
G36*
X010724Y022615D02*
X010821Y022712D01*
X010918Y022615D01*
X010821Y022518D01*
X010724Y022615D01*
G37*
G36*
X010724Y019552D02*
X010821Y019649D01*
X010918Y019552D01*
X010821Y019455D01*
X010724Y019552D01*
G37*
G36*
X010724Y016768D02*
X010821Y016865D01*
X010918Y016768D01*
X010821Y016671D01*
X010724Y016768D01*
G37*
G36*
X010724Y013985D02*
X010821Y014082D01*
X010918Y013985D01*
X010821Y013888D01*
X010724Y013985D01*
G37*
G36*
X010724Y011201D02*
X010821Y011298D01*
X010918Y011201D01*
X010821Y011104D01*
X010724Y011201D01*
G37*
G36*
X013508Y011201D02*
X013605Y011298D01*
X013702Y011201D01*
X013605Y011104D01*
X013508Y011201D01*
G37*
G36*
X016292Y011201D02*
X016389Y011298D01*
X016486Y011201D01*
X016389Y011104D01*
X016292Y011201D01*
G37*
G36*
X019076Y011201D02*
X019173Y011298D01*
X019270Y011201D01*
X019173Y011104D01*
X019076Y011201D01*
G37*
G36*
X022138Y011201D02*
X022235Y011298D01*
X022332Y011201D01*
X022235Y011104D01*
X022138Y011201D01*
G37*
G36*
X025061Y011340D02*
X025158Y011437D01*
X025255Y011340D01*
X025158Y011243D01*
X025061Y011340D01*
G37*
G36*
X027149Y013428D02*
X027246Y013525D01*
X027343Y013428D01*
X027246Y013331D01*
X027149Y013428D01*
G37*
G36*
X027845Y016072D02*
X027942Y016169D01*
X028039Y016072D01*
X027942Y015975D01*
X027845Y016072D01*
G37*
G36*
X026871Y018996D02*
X026968Y019093D01*
X027065Y018996D01*
X026968Y018899D01*
X026871Y018996D01*
G37*
G36*
X023808Y020387D02*
X023905Y020484D01*
X024002Y020387D01*
X023905Y020290D01*
X023808Y020387D01*
G37*
D13*
X016243Y023206D02*
X014572Y024876D01*
X013570Y023874D01*
X015240Y022204D01*
X016243Y023206D01*
X015449Y023359D02*
X015087Y022997D01*
X014364Y023721D01*
X014725Y024083D01*
X015449Y023359D01*
D14*
X024191Y015203D02*
X024193Y015218D01*
X024199Y015231D01*
X024208Y015243D01*
X024219Y015252D01*
X024233Y015258D01*
X024248Y015260D01*
X024263Y015258D01*
X024276Y015252D01*
X024288Y015243D01*
X024297Y015232D01*
X024303Y015218D01*
X024305Y015203D01*
X024303Y015188D01*
X024297Y015175D01*
X024288Y015163D01*
X024277Y015154D01*
X024263Y015148D01*
X024248Y015146D01*
X024233Y015148D01*
X024220Y015154D01*
X024208Y015163D01*
X024199Y015174D01*
X024193Y015188D01*
X024191Y015203D01*
D15*
X024630Y015132D02*
X023209Y016553D01*
X021894Y015238D02*
X023315Y013817D01*
M02*
