%
M48
M72
T01C0.0197
T02C0.0320
T03C0.0400
T04C0.0787
T05C0.0945
%
T01
X26599Y12961
X21727Y20339
X22562Y19225
X25207Y20756
X26181Y19782
X25903Y18947
X22144Y12405
X21309Y11570
X20196Y11848
X19778Y12266
X12123Y11848
X11566Y12405
X17134Y22148
X16438Y26742
X20196Y26324
T02
X24992Y10798
X25699Y11506
X27219Y12747
X27927Y13454
X27915Y15670
X28623Y16377
X26663Y18593
X27370Y19300
X24308Y20971
X23600Y20264
X20689Y20264
X19981Y20971
X15914Y24097
X10516Y25275
X11223Y25982
X12379Y24804
X13086Y25511
X13793Y26218
X15174Y26892
X15388Y28198
X16095Y28905
X18311Y26945
X19018Y27652
X16588Y25478
X15207Y23390
X14500Y22683
X13793Y21976
X11671Y24097
X11084Y23059
X10377Y22351
X11084Y19996
X10377Y19289
X11084Y17212
X10377Y16505
X11084Y14429
X10377Y13721
X11084Y11366
X10377Y10659
X13439Y10659
X14146Y11366
X16223Y10659
X16930Y11366
X19007Y10659
X19714Y11366
X22069Y10659
X22776Y11366
X19981Y23883
X20689Y24590
X13172Y28209
X12465Y27502
T03
X23957Y12958
X22698Y14217
X24508Y16027
X25767Y14768
T04
X19964Y14307
X14024Y20246
T05
X22840Y18112
X17829Y23123
M30
