%
M48
M72
T01C0.0197
T02C0.0945
%
T01
X26042Y11291
X24511Y11987
X25346Y12822
X25764Y13240
X26181Y13657
X26599Y14075
X25764Y14910
X25346Y14493
X26877Y16302
X27434Y16859
X27295Y17555
X26181Y16441
X21727Y20339
X22117Y19364
X19639Y21313
X16438Y23679
X15918Y24199
X11427Y26742
X12262Y25907
X11844Y25489
X10870Y23401
X10870Y20339
X13236Y20478
X14489Y22844
X14906Y23262
X15046Y25071
X16159Y26185
X16577Y25211
X16994Y24793
X17273Y26463
X17969Y27159
X19639Y24932
X16438Y22287
X15046Y28134
X10591Y17833
X10174Y16581
X10313Y15328
X10870Y15328
X11427Y14214
X14071Y11848
X15324Y11430
X14628Y10456
X11705Y10595
X18386Y11987
X21727Y10874
T02
X22840Y18112
X17829Y23123
M30
