G75*
G70*
%OFA0B0*%
%FSLAX24Y24*%
%IPPOS*%
%LPD*%
%AMOC8*
5,1,8,0,0,1.08239X$1,22.5*
%
%ADD10C,0.0000*%
%ADD11C,0.1025*%
%ADD12C,0.0120*%
%ADD13C,0.0600*%
%ADD14C,0.0680*%
%ADD15C,0.0316*%
%ADD16C,0.0437*%
D10*
X009756Y010038D02*
X009756Y025786D01*
X009873Y026053D01*
X010003Y026314D01*
X010146Y026569D01*
X010300Y026816D01*
X010467Y027055D01*
X010645Y027287D01*
X010833Y027509D01*
X011033Y027722D01*
X011242Y027925D01*
X011461Y028117D01*
X011689Y028299D01*
X011925Y028470D01*
X012170Y028629D01*
X012422Y028776D01*
X012680Y028911D01*
X012945Y029033D01*
X013216Y029142D01*
X013491Y029238D01*
X013771Y029320D01*
X014054Y029389D01*
X014340Y029444D01*
X014629Y029485D01*
X014919Y029513D01*
X015211Y029526D01*
X015502Y029525D01*
X015794Y029510D01*
X016084Y029481D01*
X016372Y029438D01*
X016658Y029381D01*
X016941Y029310D01*
X017220Y029226D01*
X017495Y029128D01*
X017765Y029017D01*
X018029Y028893D01*
X018286Y028757D01*
X018537Y028608D01*
X018781Y028448D01*
X019016Y028276D01*
X019243Y028092D01*
X019461Y027898D01*
X019669Y027694D01*
X019866Y027480D01*
X020054Y027256D01*
X020230Y027024D01*
X020395Y026783D01*
X020548Y026535D01*
X020689Y026280D01*
X020817Y026018D01*
X020933Y025750D01*
X021035Y025477D01*
X021125Y025200D01*
X021200Y024918D01*
X021262Y024633D01*
X021310Y024345D01*
X021345Y024056D01*
X021365Y023765D01*
X021371Y023473D01*
X021363Y023182D01*
X021341Y022891D01*
X021305Y022602D01*
X021255Y022314D01*
X021191Y022030D01*
X021113Y021749D01*
X021022Y021472D01*
X020918Y021199D01*
X022368Y018112D02*
X022370Y018155D01*
X022376Y018197D01*
X022386Y018239D01*
X022399Y018280D01*
X022416Y018320D01*
X022437Y018357D01*
X022461Y018393D01*
X022488Y018426D01*
X022518Y018457D01*
X022551Y018485D01*
X022586Y018510D01*
X022623Y018531D01*
X022662Y018549D01*
X022702Y018563D01*
X022744Y018574D01*
X022786Y018581D01*
X022829Y018584D01*
X022872Y018583D01*
X022915Y018578D01*
X022957Y018569D01*
X022998Y018557D01*
X023038Y018541D01*
X023076Y018521D01*
X023112Y018498D01*
X023146Y018471D01*
X023178Y018442D01*
X023206Y018410D01*
X023232Y018375D01*
X023254Y018339D01*
X023273Y018300D01*
X023288Y018260D01*
X023300Y018219D01*
X023308Y018176D01*
X023312Y018133D01*
X023312Y018091D01*
X023308Y018048D01*
X023300Y018005D01*
X023288Y017964D01*
X023273Y017924D01*
X023254Y017885D01*
X023232Y017849D01*
X023206Y017814D01*
X023178Y017782D01*
X023146Y017753D01*
X023112Y017726D01*
X023076Y017703D01*
X023038Y017683D01*
X022998Y017667D01*
X022957Y017655D01*
X022915Y017646D01*
X022872Y017641D01*
X022829Y017640D01*
X022786Y017643D01*
X022744Y017650D01*
X022702Y017661D01*
X022662Y017675D01*
X022623Y017693D01*
X022586Y017714D01*
X022551Y017739D01*
X022518Y017767D01*
X022488Y017798D01*
X022461Y017831D01*
X022437Y017867D01*
X022416Y017904D01*
X022399Y017944D01*
X022386Y017985D01*
X022376Y018027D01*
X022370Y018069D01*
X022368Y018112D01*
X020918Y021200D02*
X021190Y021304D01*
X021467Y021395D01*
X021748Y021473D01*
X022033Y021537D01*
X022320Y021587D01*
X022609Y021623D01*
X022900Y021645D01*
X023191Y021653D01*
X023483Y021647D01*
X023774Y021627D01*
X024063Y021592D01*
X024351Y021544D01*
X024636Y021482D01*
X024918Y021407D01*
X025195Y021317D01*
X025468Y021215D01*
X025736Y021099D01*
X025998Y020971D01*
X026253Y020830D01*
X026501Y020677D01*
X026742Y020512D01*
X026974Y020336D01*
X027198Y020148D01*
X027412Y019951D01*
X027616Y019743D01*
X027810Y019525D01*
X027994Y019298D01*
X028166Y019063D01*
X028326Y018819D01*
X028475Y018568D01*
X028611Y018311D01*
X028735Y018047D01*
X028846Y017777D01*
X028944Y017502D01*
X029028Y017223D01*
X029099Y016940D01*
X029156Y016654D01*
X029199Y016366D01*
X029228Y016076D01*
X029243Y015784D01*
X029244Y015493D01*
X029231Y015201D01*
X029203Y014911D01*
X029162Y014622D01*
X029107Y014336D01*
X029038Y014053D01*
X028956Y013773D01*
X028860Y013498D01*
X028751Y013227D01*
X028629Y012962D01*
X028494Y012704D01*
X028347Y012452D01*
X028188Y012207D01*
X028017Y011971D01*
X027835Y011743D01*
X027643Y011524D01*
X027440Y011315D01*
X027227Y011115D01*
X027005Y010927D01*
X026773Y010749D01*
X026534Y010582D01*
X026287Y010428D01*
X026032Y010285D01*
X025771Y010155D01*
X025504Y010038D01*
X009756Y010038D01*
X017357Y023123D02*
X017359Y023166D01*
X017365Y023208D01*
X017375Y023250D01*
X017388Y023291D01*
X017405Y023331D01*
X017426Y023368D01*
X017450Y023404D01*
X017477Y023437D01*
X017507Y023468D01*
X017540Y023496D01*
X017575Y023521D01*
X017612Y023542D01*
X017651Y023560D01*
X017691Y023574D01*
X017733Y023585D01*
X017775Y023592D01*
X017818Y023595D01*
X017861Y023594D01*
X017904Y023589D01*
X017946Y023580D01*
X017987Y023568D01*
X018027Y023552D01*
X018065Y023532D01*
X018101Y023509D01*
X018135Y023482D01*
X018167Y023453D01*
X018195Y023421D01*
X018221Y023386D01*
X018243Y023350D01*
X018262Y023311D01*
X018277Y023271D01*
X018289Y023230D01*
X018297Y023187D01*
X018301Y023144D01*
X018301Y023102D01*
X018297Y023059D01*
X018289Y023016D01*
X018277Y022975D01*
X018262Y022935D01*
X018243Y022896D01*
X018221Y022860D01*
X018195Y022825D01*
X018167Y022793D01*
X018135Y022764D01*
X018101Y022737D01*
X018065Y022714D01*
X018027Y022694D01*
X017987Y022678D01*
X017946Y022666D01*
X017904Y022657D01*
X017861Y022652D01*
X017818Y022651D01*
X017775Y022654D01*
X017733Y022661D01*
X017691Y022672D01*
X017651Y022686D01*
X017612Y022704D01*
X017575Y022725D01*
X017540Y022750D01*
X017507Y022778D01*
X017477Y022809D01*
X017450Y022842D01*
X017426Y022878D01*
X017405Y022915D01*
X017388Y022955D01*
X017375Y022996D01*
X017365Y023038D01*
X017359Y023080D01*
X017357Y023123D01*
D11*
X017829Y023123D03*
X022840Y018112D03*
D12*
X023421Y020225D02*
X023361Y020165D01*
X023361Y020363D01*
X023501Y020503D01*
X023699Y020503D01*
X023839Y020363D01*
X023839Y020165D01*
X023699Y020025D01*
X023501Y020025D01*
X023361Y020165D01*
X023451Y020202D01*
X023451Y020326D01*
X023538Y020413D01*
X023662Y020413D01*
X023749Y020326D01*
X023749Y020202D01*
X023662Y020115D01*
X023538Y020115D01*
X023451Y020202D01*
X023541Y020239D01*
X023541Y020289D01*
X023575Y020323D01*
X023625Y020323D01*
X023659Y020289D01*
X023659Y020239D01*
X023625Y020205D01*
X023575Y020205D01*
X023541Y020239D01*
X024129Y020932D02*
X024069Y020872D01*
X024069Y021070D01*
X024209Y021210D01*
X024407Y021210D01*
X024547Y021070D01*
X024547Y020872D01*
X024407Y020732D01*
X024209Y020732D01*
X024069Y020872D01*
X024159Y020909D01*
X024159Y021033D01*
X024246Y021120D01*
X024370Y021120D01*
X024457Y021033D01*
X024457Y020909D01*
X024370Y020822D01*
X024246Y020822D01*
X024159Y020909D01*
X024249Y020946D01*
X024249Y020996D01*
X024283Y021030D01*
X024333Y021030D01*
X024367Y020996D01*
X024367Y020946D01*
X024333Y020912D01*
X024283Y020912D01*
X024249Y020946D01*
X026484Y018554D02*
X026424Y018494D01*
X026424Y018692D01*
X026564Y018832D01*
X026762Y018832D01*
X026902Y018692D01*
X026902Y018494D01*
X026762Y018354D01*
X026564Y018354D01*
X026424Y018494D01*
X026514Y018531D01*
X026514Y018655D01*
X026601Y018742D01*
X026725Y018742D01*
X026812Y018655D01*
X026812Y018531D01*
X026725Y018444D01*
X026601Y018444D01*
X026514Y018531D01*
X026604Y018568D01*
X026604Y018618D01*
X026638Y018652D01*
X026688Y018652D01*
X026722Y018618D01*
X026722Y018568D01*
X026688Y018534D01*
X026638Y018534D01*
X026604Y018568D01*
X027191Y019261D02*
X027131Y019201D01*
X027131Y019399D01*
X027271Y019539D01*
X027469Y019539D01*
X027609Y019399D01*
X027609Y019201D01*
X027469Y019061D01*
X027271Y019061D01*
X027131Y019201D01*
X027221Y019238D01*
X027221Y019362D01*
X027308Y019449D01*
X027432Y019449D01*
X027519Y019362D01*
X027519Y019238D01*
X027432Y019151D01*
X027308Y019151D01*
X027221Y019238D01*
X027311Y019275D01*
X027311Y019325D01*
X027345Y019359D01*
X027395Y019359D01*
X027429Y019325D01*
X027429Y019275D01*
X027395Y019241D01*
X027345Y019241D01*
X027311Y019275D01*
X028444Y016338D02*
X028384Y016278D01*
X028384Y016476D01*
X028524Y016616D01*
X028722Y016616D01*
X028862Y016476D01*
X028862Y016278D01*
X028722Y016138D01*
X028524Y016138D01*
X028384Y016278D01*
X028474Y016315D01*
X028474Y016439D01*
X028561Y016526D01*
X028685Y016526D01*
X028772Y016439D01*
X028772Y016315D01*
X028685Y016228D01*
X028561Y016228D01*
X028474Y016315D01*
X028564Y016352D01*
X028564Y016402D01*
X028598Y016436D01*
X028648Y016436D01*
X028682Y016402D01*
X028682Y016352D01*
X028648Y016318D01*
X028598Y016318D01*
X028564Y016352D01*
X027736Y015631D02*
X027676Y015571D01*
X027676Y015769D01*
X027816Y015909D01*
X028014Y015909D01*
X028154Y015769D01*
X028154Y015571D01*
X028014Y015431D01*
X027816Y015431D01*
X027676Y015571D01*
X027766Y015608D01*
X027766Y015732D01*
X027853Y015819D01*
X027977Y015819D01*
X028064Y015732D01*
X028064Y015608D01*
X027977Y015521D01*
X027853Y015521D01*
X027766Y015608D01*
X027856Y015645D01*
X027856Y015695D01*
X027890Y015729D01*
X027940Y015729D01*
X027974Y015695D01*
X027974Y015645D01*
X027940Y015611D01*
X027890Y015611D01*
X027856Y015645D01*
X027748Y013415D02*
X027688Y013355D01*
X027688Y013553D01*
X027828Y013693D01*
X028026Y013693D01*
X028166Y013553D01*
X028166Y013355D01*
X028026Y013215D01*
X027828Y013215D01*
X027688Y013355D01*
X027778Y013392D01*
X027778Y013516D01*
X027865Y013603D01*
X027989Y013603D01*
X028076Y013516D01*
X028076Y013392D01*
X027989Y013305D01*
X027865Y013305D01*
X027778Y013392D01*
X027868Y013429D01*
X027868Y013479D01*
X027902Y013513D01*
X027952Y013513D01*
X027986Y013479D01*
X027986Y013429D01*
X027952Y013395D01*
X027902Y013395D01*
X027868Y013429D01*
X027040Y012708D02*
X026980Y012648D01*
X026980Y012846D01*
X027120Y012986D01*
X027318Y012986D01*
X027458Y012846D01*
X027458Y012648D01*
X027318Y012508D01*
X027120Y012508D01*
X026980Y012648D01*
X027070Y012685D01*
X027070Y012809D01*
X027157Y012896D01*
X027281Y012896D01*
X027368Y012809D01*
X027368Y012685D01*
X027281Y012598D01*
X027157Y012598D01*
X027070Y012685D01*
X027160Y012722D01*
X027160Y012772D01*
X027194Y012806D01*
X027244Y012806D01*
X027278Y012772D01*
X027278Y012722D01*
X027244Y012688D01*
X027194Y012688D01*
X027160Y012722D01*
X025520Y011467D02*
X025460Y011407D01*
X025460Y011605D01*
X025600Y011745D01*
X025798Y011745D01*
X025938Y011605D01*
X025938Y011407D01*
X025798Y011267D01*
X025600Y011267D01*
X025460Y011407D01*
X025550Y011444D01*
X025550Y011568D01*
X025637Y011655D01*
X025761Y011655D01*
X025848Y011568D01*
X025848Y011444D01*
X025761Y011357D01*
X025637Y011357D01*
X025550Y011444D01*
X025640Y011481D01*
X025640Y011531D01*
X025674Y011565D01*
X025724Y011565D01*
X025758Y011531D01*
X025758Y011481D01*
X025724Y011447D01*
X025674Y011447D01*
X025640Y011481D01*
X024813Y010759D02*
X024753Y010699D01*
X024753Y010897D01*
X024893Y011037D01*
X025091Y011037D01*
X025231Y010897D01*
X025231Y010699D01*
X025091Y010559D01*
X024893Y010559D01*
X024753Y010699D01*
X024843Y010736D01*
X024843Y010860D01*
X024930Y010947D01*
X025054Y010947D01*
X025141Y010860D01*
X025141Y010736D01*
X025054Y010649D01*
X024930Y010649D01*
X024843Y010736D01*
X024933Y010773D01*
X024933Y010823D01*
X024967Y010857D01*
X025017Y010857D01*
X025051Y010823D01*
X025051Y010773D01*
X025017Y010739D01*
X024967Y010739D01*
X024933Y010773D01*
X022597Y011327D02*
X022537Y011267D01*
X022537Y011465D01*
X022677Y011605D01*
X022875Y011605D01*
X023015Y011465D01*
X023015Y011267D01*
X022875Y011127D01*
X022677Y011127D01*
X022537Y011267D01*
X022627Y011304D01*
X022627Y011428D01*
X022714Y011515D01*
X022838Y011515D01*
X022925Y011428D01*
X022925Y011304D01*
X022838Y011217D01*
X022714Y011217D01*
X022627Y011304D01*
X022717Y011341D01*
X022717Y011391D01*
X022751Y011425D01*
X022801Y011425D01*
X022835Y011391D01*
X022835Y011341D01*
X022801Y011307D01*
X022751Y011307D01*
X022717Y011341D01*
X021890Y010620D02*
X021830Y010560D01*
X021830Y010758D01*
X021970Y010898D01*
X022168Y010898D01*
X022308Y010758D01*
X022308Y010560D01*
X022168Y010420D01*
X021970Y010420D01*
X021830Y010560D01*
X021920Y010597D01*
X021920Y010721D01*
X022007Y010808D01*
X022131Y010808D01*
X022218Y010721D01*
X022218Y010597D01*
X022131Y010510D01*
X022007Y010510D01*
X021920Y010597D01*
X022010Y010634D01*
X022010Y010684D01*
X022044Y010718D01*
X022094Y010718D01*
X022128Y010684D01*
X022128Y010634D01*
X022094Y010600D01*
X022044Y010600D01*
X022010Y010634D01*
X019535Y011327D02*
X019475Y011267D01*
X019475Y011465D01*
X019615Y011605D01*
X019813Y011605D01*
X019953Y011465D01*
X019953Y011267D01*
X019813Y011127D01*
X019615Y011127D01*
X019475Y011267D01*
X019565Y011304D01*
X019565Y011428D01*
X019652Y011515D01*
X019776Y011515D01*
X019863Y011428D01*
X019863Y011304D01*
X019776Y011217D01*
X019652Y011217D01*
X019565Y011304D01*
X019655Y011341D01*
X019655Y011391D01*
X019689Y011425D01*
X019739Y011425D01*
X019773Y011391D01*
X019773Y011341D01*
X019739Y011307D01*
X019689Y011307D01*
X019655Y011341D01*
X018828Y010620D02*
X018768Y010560D01*
X018768Y010758D01*
X018908Y010898D01*
X019106Y010898D01*
X019246Y010758D01*
X019246Y010560D01*
X019106Y010420D01*
X018908Y010420D01*
X018768Y010560D01*
X018858Y010597D01*
X018858Y010721D01*
X018945Y010808D01*
X019069Y010808D01*
X019156Y010721D01*
X019156Y010597D01*
X019069Y010510D01*
X018945Y010510D01*
X018858Y010597D01*
X018948Y010634D01*
X018948Y010684D01*
X018982Y010718D01*
X019032Y010718D01*
X019066Y010684D01*
X019066Y010634D01*
X019032Y010600D01*
X018982Y010600D01*
X018948Y010634D01*
X016751Y011327D02*
X016691Y011267D01*
X016691Y011465D01*
X016831Y011605D01*
X017029Y011605D01*
X017169Y011465D01*
X017169Y011267D01*
X017029Y011127D01*
X016831Y011127D01*
X016691Y011267D01*
X016781Y011304D01*
X016781Y011428D01*
X016868Y011515D01*
X016992Y011515D01*
X017079Y011428D01*
X017079Y011304D01*
X016992Y011217D01*
X016868Y011217D01*
X016781Y011304D01*
X016871Y011341D01*
X016871Y011391D01*
X016905Y011425D01*
X016955Y011425D01*
X016989Y011391D01*
X016989Y011341D01*
X016955Y011307D01*
X016905Y011307D01*
X016871Y011341D01*
X016044Y010620D02*
X015984Y010560D01*
X015984Y010758D01*
X016124Y010898D01*
X016322Y010898D01*
X016462Y010758D01*
X016462Y010560D01*
X016322Y010420D01*
X016124Y010420D01*
X015984Y010560D01*
X016074Y010597D01*
X016074Y010721D01*
X016161Y010808D01*
X016285Y010808D01*
X016372Y010721D01*
X016372Y010597D01*
X016285Y010510D01*
X016161Y010510D01*
X016074Y010597D01*
X016164Y010634D01*
X016164Y010684D01*
X016198Y010718D01*
X016248Y010718D01*
X016282Y010684D01*
X016282Y010634D01*
X016248Y010600D01*
X016198Y010600D01*
X016164Y010634D01*
X013967Y011327D02*
X013907Y011267D01*
X013907Y011465D01*
X014047Y011605D01*
X014245Y011605D01*
X014385Y011465D01*
X014385Y011267D01*
X014245Y011127D01*
X014047Y011127D01*
X013907Y011267D01*
X013997Y011304D01*
X013997Y011428D01*
X014084Y011515D01*
X014208Y011515D01*
X014295Y011428D01*
X014295Y011304D01*
X014208Y011217D01*
X014084Y011217D01*
X013997Y011304D01*
X014087Y011341D01*
X014087Y011391D01*
X014121Y011425D01*
X014171Y011425D01*
X014205Y011391D01*
X014205Y011341D01*
X014171Y011307D01*
X014121Y011307D01*
X014087Y011341D01*
X013260Y010620D02*
X013200Y010560D01*
X013200Y010758D01*
X013340Y010898D01*
X013538Y010898D01*
X013678Y010758D01*
X013678Y010560D01*
X013538Y010420D01*
X013340Y010420D01*
X013200Y010560D01*
X013290Y010597D01*
X013290Y010721D01*
X013377Y010808D01*
X013501Y010808D01*
X013588Y010721D01*
X013588Y010597D01*
X013501Y010510D01*
X013377Y010510D01*
X013290Y010597D01*
X013380Y010634D01*
X013380Y010684D01*
X013414Y010718D01*
X013464Y010718D01*
X013498Y010684D01*
X013498Y010634D01*
X013464Y010600D01*
X013414Y010600D01*
X013380Y010634D01*
X010905Y011327D02*
X010845Y011267D01*
X010845Y011465D01*
X010985Y011605D01*
X011183Y011605D01*
X011323Y011465D01*
X011323Y011267D01*
X011183Y011127D01*
X010985Y011127D01*
X010845Y011267D01*
X010935Y011304D01*
X010935Y011428D01*
X011022Y011515D01*
X011146Y011515D01*
X011233Y011428D01*
X011233Y011304D01*
X011146Y011217D01*
X011022Y011217D01*
X010935Y011304D01*
X011025Y011341D01*
X011025Y011391D01*
X011059Y011425D01*
X011109Y011425D01*
X011143Y011391D01*
X011143Y011341D01*
X011109Y011307D01*
X011059Y011307D01*
X011025Y011341D01*
X010198Y010620D02*
X010138Y010560D01*
X010138Y010758D01*
X010278Y010898D01*
X010476Y010898D01*
X010616Y010758D01*
X010616Y010560D01*
X010476Y010420D01*
X010278Y010420D01*
X010138Y010560D01*
X010228Y010597D01*
X010228Y010721D01*
X010315Y010808D01*
X010439Y010808D01*
X010526Y010721D01*
X010526Y010597D01*
X010439Y010510D01*
X010315Y010510D01*
X010228Y010597D01*
X010318Y010634D01*
X010318Y010684D01*
X010352Y010718D01*
X010402Y010718D01*
X010436Y010684D01*
X010436Y010634D01*
X010402Y010600D01*
X010352Y010600D01*
X010318Y010634D01*
X010198Y013682D02*
X010138Y013622D01*
X010138Y013820D01*
X010278Y013960D01*
X010476Y013960D01*
X010616Y013820D01*
X010616Y013622D01*
X010476Y013482D01*
X010278Y013482D01*
X010138Y013622D01*
X010228Y013659D01*
X010228Y013783D01*
X010315Y013870D01*
X010439Y013870D01*
X010526Y013783D01*
X010526Y013659D01*
X010439Y013572D01*
X010315Y013572D01*
X010228Y013659D01*
X010318Y013696D01*
X010318Y013746D01*
X010352Y013780D01*
X010402Y013780D01*
X010436Y013746D01*
X010436Y013696D01*
X010402Y013662D01*
X010352Y013662D01*
X010318Y013696D01*
X010905Y014390D02*
X010845Y014330D01*
X010845Y014528D01*
X010985Y014668D01*
X011183Y014668D01*
X011323Y014528D01*
X011323Y014330D01*
X011183Y014190D01*
X010985Y014190D01*
X010845Y014330D01*
X010935Y014367D01*
X010935Y014491D01*
X011022Y014578D01*
X011146Y014578D01*
X011233Y014491D01*
X011233Y014367D01*
X011146Y014280D01*
X011022Y014280D01*
X010935Y014367D01*
X011025Y014404D01*
X011025Y014454D01*
X011059Y014488D01*
X011109Y014488D01*
X011143Y014454D01*
X011143Y014404D01*
X011109Y014370D01*
X011059Y014370D01*
X011025Y014404D01*
X010198Y016466D02*
X010138Y016406D01*
X010138Y016604D01*
X010278Y016744D01*
X010476Y016744D01*
X010616Y016604D01*
X010616Y016406D01*
X010476Y016266D01*
X010278Y016266D01*
X010138Y016406D01*
X010228Y016443D01*
X010228Y016567D01*
X010315Y016654D01*
X010439Y016654D01*
X010526Y016567D01*
X010526Y016443D01*
X010439Y016356D01*
X010315Y016356D01*
X010228Y016443D01*
X010318Y016480D01*
X010318Y016530D01*
X010352Y016564D01*
X010402Y016564D01*
X010436Y016530D01*
X010436Y016480D01*
X010402Y016446D01*
X010352Y016446D01*
X010318Y016480D01*
X010905Y017173D02*
X010845Y017113D01*
X010845Y017311D01*
X010985Y017451D01*
X011183Y017451D01*
X011323Y017311D01*
X011323Y017113D01*
X011183Y016973D01*
X010985Y016973D01*
X010845Y017113D01*
X010935Y017150D01*
X010935Y017274D01*
X011022Y017361D01*
X011146Y017361D01*
X011233Y017274D01*
X011233Y017150D01*
X011146Y017063D01*
X011022Y017063D01*
X010935Y017150D01*
X011025Y017187D01*
X011025Y017237D01*
X011059Y017271D01*
X011109Y017271D01*
X011143Y017237D01*
X011143Y017187D01*
X011109Y017153D01*
X011059Y017153D01*
X011025Y017187D01*
X010198Y019250D02*
X010138Y019190D01*
X010138Y019388D01*
X010278Y019528D01*
X010476Y019528D01*
X010616Y019388D01*
X010616Y019190D01*
X010476Y019050D01*
X010278Y019050D01*
X010138Y019190D01*
X010228Y019227D01*
X010228Y019351D01*
X010315Y019438D01*
X010439Y019438D01*
X010526Y019351D01*
X010526Y019227D01*
X010439Y019140D01*
X010315Y019140D01*
X010228Y019227D01*
X010318Y019264D01*
X010318Y019314D01*
X010352Y019348D01*
X010402Y019348D01*
X010436Y019314D01*
X010436Y019264D01*
X010402Y019230D01*
X010352Y019230D01*
X010318Y019264D01*
X010905Y019957D02*
X010845Y019897D01*
X010845Y020095D01*
X010985Y020235D01*
X011183Y020235D01*
X011323Y020095D01*
X011323Y019897D01*
X011183Y019757D01*
X010985Y019757D01*
X010845Y019897D01*
X010935Y019934D01*
X010935Y020058D01*
X011022Y020145D01*
X011146Y020145D01*
X011233Y020058D01*
X011233Y019934D01*
X011146Y019847D01*
X011022Y019847D01*
X010935Y019934D01*
X011025Y019971D01*
X011025Y020021D01*
X011059Y020055D01*
X011109Y020055D01*
X011143Y020021D01*
X011143Y019971D01*
X011109Y019937D01*
X011059Y019937D01*
X011025Y019971D01*
X010198Y022312D02*
X010138Y022252D01*
X010138Y022450D01*
X010278Y022590D01*
X010476Y022590D01*
X010616Y022450D01*
X010616Y022252D01*
X010476Y022112D01*
X010278Y022112D01*
X010138Y022252D01*
X010228Y022289D01*
X010228Y022413D01*
X010315Y022500D01*
X010439Y022500D01*
X010526Y022413D01*
X010526Y022289D01*
X010439Y022202D01*
X010315Y022202D01*
X010228Y022289D01*
X010318Y022326D01*
X010318Y022376D01*
X010352Y022410D01*
X010402Y022410D01*
X010436Y022376D01*
X010436Y022326D01*
X010402Y022292D01*
X010352Y022292D01*
X010318Y022326D01*
X010905Y023020D02*
X010845Y022960D01*
X010845Y023158D01*
X010985Y023298D01*
X011183Y023298D01*
X011323Y023158D01*
X011323Y022960D01*
X011183Y022820D01*
X010985Y022820D01*
X010845Y022960D01*
X010935Y022997D01*
X010935Y023121D01*
X011022Y023208D01*
X011146Y023208D01*
X011233Y023121D01*
X011233Y022997D01*
X011146Y022910D01*
X011022Y022910D01*
X010935Y022997D01*
X011025Y023034D01*
X011025Y023084D01*
X011059Y023118D01*
X011109Y023118D01*
X011143Y023084D01*
X011143Y023034D01*
X011109Y023000D01*
X011059Y023000D01*
X011025Y023034D01*
X010337Y025236D02*
X010277Y025176D01*
X010277Y025374D01*
X010417Y025514D01*
X010615Y025514D01*
X010755Y025374D01*
X010755Y025176D01*
X010615Y025036D01*
X010417Y025036D01*
X010277Y025176D01*
X010367Y025213D01*
X010367Y025337D01*
X010454Y025424D01*
X010578Y025424D01*
X010665Y025337D01*
X010665Y025213D01*
X010578Y025126D01*
X010454Y025126D01*
X010367Y025213D01*
X010457Y025250D01*
X010457Y025300D01*
X010491Y025334D01*
X010541Y025334D01*
X010575Y025300D01*
X010575Y025250D01*
X010541Y025216D01*
X010491Y025216D01*
X010457Y025250D01*
X011044Y025943D02*
X010984Y025883D01*
X010984Y026081D01*
X011124Y026221D01*
X011322Y026221D01*
X011462Y026081D01*
X011462Y025883D01*
X011322Y025743D01*
X011124Y025743D01*
X010984Y025883D01*
X011074Y025920D01*
X011074Y026044D01*
X011161Y026131D01*
X011285Y026131D01*
X011372Y026044D01*
X011372Y025920D01*
X011285Y025833D01*
X011161Y025833D01*
X011074Y025920D01*
X011164Y025957D01*
X011164Y026007D01*
X011198Y026041D01*
X011248Y026041D01*
X011282Y026007D01*
X011282Y025957D01*
X011248Y025923D01*
X011198Y025923D01*
X011164Y025957D01*
X012286Y027463D02*
X012226Y027403D01*
X012226Y027601D01*
X012366Y027741D01*
X012564Y027741D01*
X012704Y027601D01*
X012704Y027403D01*
X012564Y027263D01*
X012366Y027263D01*
X012226Y027403D01*
X012316Y027440D01*
X012316Y027564D01*
X012403Y027651D01*
X012527Y027651D01*
X012614Y027564D01*
X012614Y027440D01*
X012527Y027353D01*
X012403Y027353D01*
X012316Y027440D01*
X012406Y027477D01*
X012406Y027527D01*
X012440Y027561D01*
X012490Y027561D01*
X012524Y027527D01*
X012524Y027477D01*
X012490Y027443D01*
X012440Y027443D01*
X012406Y027477D01*
X012993Y028170D02*
X012933Y028110D01*
X012933Y028308D01*
X013073Y028448D01*
X013271Y028448D01*
X013411Y028308D01*
X013411Y028110D01*
X013271Y027970D01*
X013073Y027970D01*
X012933Y028110D01*
X013023Y028147D01*
X013023Y028271D01*
X013110Y028358D01*
X013234Y028358D01*
X013321Y028271D01*
X013321Y028147D01*
X013234Y028060D01*
X013110Y028060D01*
X013023Y028147D01*
X013113Y028184D01*
X013113Y028234D01*
X013147Y028268D01*
X013197Y028268D01*
X013231Y028234D01*
X013231Y028184D01*
X013197Y028150D01*
X013147Y028150D01*
X013113Y028184D01*
X015135Y027071D02*
X015075Y027131D01*
X015273Y027131D01*
X015413Y026991D01*
X015413Y026793D01*
X015273Y026653D01*
X015075Y026653D01*
X014935Y026793D01*
X014935Y026991D01*
X015075Y027131D01*
X015112Y027041D01*
X015236Y027041D01*
X015323Y026954D01*
X015323Y026830D01*
X015236Y026743D01*
X015112Y026743D01*
X015025Y026830D01*
X015025Y026954D01*
X015112Y027041D01*
X015149Y026951D01*
X015199Y026951D01*
X015233Y026917D01*
X015233Y026867D01*
X015199Y026833D01*
X015149Y026833D01*
X015115Y026867D01*
X015115Y026917D01*
X015149Y026951D01*
X015209Y028159D02*
X015149Y028099D01*
X015149Y028297D01*
X015289Y028437D01*
X015487Y028437D01*
X015627Y028297D01*
X015627Y028099D01*
X015487Y027959D01*
X015289Y027959D01*
X015149Y028099D01*
X015239Y028136D01*
X015239Y028260D01*
X015326Y028347D01*
X015450Y028347D01*
X015537Y028260D01*
X015537Y028136D01*
X015450Y028049D01*
X015326Y028049D01*
X015239Y028136D01*
X015329Y028173D01*
X015329Y028223D01*
X015363Y028257D01*
X015413Y028257D01*
X015447Y028223D01*
X015447Y028173D01*
X015413Y028139D01*
X015363Y028139D01*
X015329Y028173D01*
X015916Y028866D02*
X015856Y028806D01*
X015856Y029004D01*
X015996Y029144D01*
X016194Y029144D01*
X016334Y029004D01*
X016334Y028806D01*
X016194Y028666D01*
X015996Y028666D01*
X015856Y028806D01*
X015946Y028843D01*
X015946Y028967D01*
X016033Y029054D01*
X016157Y029054D01*
X016244Y028967D01*
X016244Y028843D01*
X016157Y028756D01*
X016033Y028756D01*
X015946Y028843D01*
X016036Y028880D01*
X016036Y028930D01*
X016070Y028964D01*
X016120Y028964D01*
X016154Y028930D01*
X016154Y028880D01*
X016120Y028846D01*
X016070Y028846D01*
X016036Y028880D01*
X018132Y026906D02*
X018072Y026846D01*
X018072Y027044D01*
X018212Y027184D01*
X018410Y027184D01*
X018550Y027044D01*
X018550Y026846D01*
X018410Y026706D01*
X018212Y026706D01*
X018072Y026846D01*
X018162Y026883D01*
X018162Y027007D01*
X018249Y027094D01*
X018373Y027094D01*
X018460Y027007D01*
X018460Y026883D01*
X018373Y026796D01*
X018249Y026796D01*
X018162Y026883D01*
X018252Y026920D01*
X018252Y026970D01*
X018286Y027004D01*
X018336Y027004D01*
X018370Y026970D01*
X018370Y026920D01*
X018336Y026886D01*
X018286Y026886D01*
X018252Y026920D01*
X018839Y027613D02*
X018779Y027553D01*
X018779Y027751D01*
X018919Y027891D01*
X019117Y027891D01*
X019257Y027751D01*
X019257Y027553D01*
X019117Y027413D01*
X018919Y027413D01*
X018779Y027553D01*
X018869Y027590D01*
X018869Y027714D01*
X018956Y027801D01*
X019080Y027801D01*
X019167Y027714D01*
X019167Y027590D01*
X019080Y027503D01*
X018956Y027503D01*
X018869Y027590D01*
X018959Y027627D01*
X018959Y027677D01*
X018993Y027711D01*
X019043Y027711D01*
X019077Y027677D01*
X019077Y027627D01*
X019043Y027593D01*
X018993Y027593D01*
X018959Y027627D01*
X016549Y025657D02*
X016489Y025717D01*
X016687Y025717D01*
X016827Y025577D01*
X016827Y025379D01*
X016687Y025239D01*
X016489Y025239D01*
X016349Y025379D01*
X016349Y025577D01*
X016489Y025717D01*
X016526Y025627D01*
X016650Y025627D01*
X016737Y025540D01*
X016737Y025416D01*
X016650Y025329D01*
X016526Y025329D01*
X016439Y025416D01*
X016439Y025540D01*
X016526Y025627D01*
X016563Y025537D01*
X016613Y025537D01*
X016647Y025503D01*
X016647Y025453D01*
X016613Y025419D01*
X016563Y025419D01*
X016529Y025453D01*
X016529Y025503D01*
X016563Y025537D01*
X019802Y023844D02*
X019742Y023784D01*
X019742Y023982D01*
X019882Y024122D01*
X020080Y024122D01*
X020220Y023982D01*
X020220Y023784D01*
X020080Y023644D01*
X019882Y023644D01*
X019742Y023784D01*
X019832Y023821D01*
X019832Y023945D01*
X019919Y024032D01*
X020043Y024032D01*
X020130Y023945D01*
X020130Y023821D01*
X020043Y023734D01*
X019919Y023734D01*
X019832Y023821D01*
X019922Y023858D01*
X019922Y023908D01*
X019956Y023942D01*
X020006Y023942D01*
X020040Y023908D01*
X020040Y023858D01*
X020006Y023824D01*
X019956Y023824D01*
X019922Y023858D01*
X020510Y024551D02*
X020450Y024491D01*
X020450Y024689D01*
X020590Y024829D01*
X020788Y024829D01*
X020928Y024689D01*
X020928Y024491D01*
X020788Y024351D01*
X020590Y024351D01*
X020450Y024491D01*
X020540Y024528D01*
X020540Y024652D01*
X020627Y024739D01*
X020751Y024739D01*
X020838Y024652D01*
X020838Y024528D01*
X020751Y024441D01*
X020627Y024441D01*
X020540Y024528D01*
X020630Y024565D01*
X020630Y024615D01*
X020664Y024649D01*
X020714Y024649D01*
X020748Y024615D01*
X020748Y024565D01*
X020714Y024531D01*
X020664Y024531D01*
X020630Y024565D01*
X020020Y020792D02*
X020080Y020732D01*
X019882Y020732D01*
X019742Y020872D01*
X019742Y021070D01*
X019882Y021210D01*
X020080Y021210D01*
X020220Y021070D01*
X020220Y020872D01*
X020080Y020732D01*
X020043Y020822D01*
X019919Y020822D01*
X019832Y020909D01*
X019832Y021033D01*
X019919Y021120D01*
X020043Y021120D01*
X020130Y021033D01*
X020130Y020909D01*
X020043Y020822D01*
X020006Y020912D01*
X019956Y020912D01*
X019922Y020946D01*
X019922Y020996D01*
X019956Y021030D01*
X020006Y021030D01*
X020040Y020996D01*
X020040Y020946D01*
X020006Y020912D01*
X020728Y020085D02*
X020788Y020025D01*
X020590Y020025D01*
X020450Y020165D01*
X020450Y020363D01*
X020590Y020503D01*
X020788Y020503D01*
X020928Y020363D01*
X020928Y020165D01*
X020788Y020025D01*
X020751Y020115D01*
X020627Y020115D01*
X020540Y020202D01*
X020540Y020326D01*
X020627Y020413D01*
X020751Y020413D01*
X020838Y020326D01*
X020838Y020202D01*
X020751Y020115D01*
X020714Y020205D01*
X020664Y020205D01*
X020630Y020239D01*
X020630Y020289D01*
X020664Y020323D01*
X020714Y020323D01*
X020748Y020289D01*
X020748Y020239D01*
X020714Y020205D01*
D13*
X016098Y023913D02*
X015730Y024281D01*
X015023Y023574D02*
X015391Y023206D01*
X014684Y022499D02*
X014316Y022867D01*
X013609Y022159D02*
X013977Y021792D01*
X011855Y023913D02*
X011488Y024281D01*
X012195Y024988D02*
X012562Y024620D01*
X013270Y025327D02*
X012902Y025695D01*
X013609Y026402D02*
X013977Y026034D01*
D14*
X024296Y015815D02*
X024720Y016239D01*
X025979Y014981D02*
X025555Y014556D01*
X024169Y013170D02*
X023744Y012746D01*
X022486Y014005D02*
X022910Y014429D01*
D15*
X020068Y013834D02*
X020226Y013676D01*
X019702Y013676D01*
X019333Y014045D01*
X019333Y014569D01*
X019702Y014938D01*
X020226Y014938D01*
X020595Y014569D01*
X020595Y014045D01*
X020226Y013676D01*
X020128Y013913D01*
X019800Y013913D01*
X019570Y014143D01*
X019570Y014471D01*
X019800Y014701D01*
X020128Y014701D01*
X020358Y014471D01*
X020358Y014143D01*
X020128Y013913D01*
X020029Y014150D01*
X019899Y014150D01*
X019807Y014242D01*
X019807Y014372D01*
X019899Y014464D01*
X020029Y014464D01*
X020121Y014372D01*
X020121Y014242D01*
X020029Y014150D01*
X014128Y019773D02*
X014286Y019615D01*
X013762Y019615D01*
X013393Y019984D01*
X013393Y020508D01*
X013762Y020877D01*
X014286Y020877D01*
X014655Y020508D01*
X014655Y019984D01*
X014286Y019615D01*
X014188Y019852D01*
X013860Y019852D01*
X013630Y020082D01*
X013630Y020410D01*
X013860Y020640D01*
X014188Y020640D01*
X014418Y020410D01*
X014418Y020082D01*
X014188Y019852D01*
X014089Y020089D01*
X013959Y020089D01*
X013867Y020181D01*
X013867Y020311D01*
X013959Y020403D01*
X014089Y020403D01*
X014181Y020311D01*
X014181Y020181D01*
X014089Y020089D01*
D16*
X017134Y022148D03*
X020196Y026324D03*
X016438Y026742D03*
X021727Y020339D03*
X022562Y019225D03*
X025207Y020756D03*
X026181Y019782D03*
X025903Y018947D03*
X027573Y017555D03*
X028408Y017555D03*
X026599Y012961D03*
X022144Y012405D03*
X021309Y011570D03*
X020196Y011848D03*
X019778Y012266D03*
X012123Y011848D03*
X011566Y012405D03*
M02*
