G75*
G70*
%OFA0B0*%
%FSLAX24Y24*%
%IPPOS*%
%LPD*%
%AMOC8*
5,1,8,0,0,1.08239X$1,22.5*
%
%ADD10C,0.0000*%
%ADD11C,0.0060*%
%ADD12C,0.0100*%
%ADD13C,0.0080*%
%ADD14C,0.0020*%
%ADD15C,0.0120*%
D10*
X009756Y010038D02*
X009756Y025786D01*
X009873Y026053D01*
X010003Y026314D01*
X010146Y026569D01*
X010300Y026816D01*
X010467Y027055D01*
X010645Y027287D01*
X010833Y027509D01*
X011033Y027722D01*
X011242Y027925D01*
X011461Y028117D01*
X011689Y028299D01*
X011925Y028470D01*
X012170Y028629D01*
X012422Y028776D01*
X012680Y028911D01*
X012945Y029033D01*
X013216Y029142D01*
X013491Y029238D01*
X013771Y029320D01*
X014054Y029389D01*
X014340Y029444D01*
X014629Y029485D01*
X014919Y029513D01*
X015211Y029526D01*
X015502Y029525D01*
X015794Y029510D01*
X016084Y029481D01*
X016372Y029438D01*
X016658Y029381D01*
X016941Y029310D01*
X017220Y029226D01*
X017495Y029128D01*
X017765Y029017D01*
X018029Y028893D01*
X018286Y028757D01*
X018537Y028608D01*
X018781Y028448D01*
X019016Y028276D01*
X019243Y028092D01*
X019461Y027898D01*
X019669Y027694D01*
X019866Y027480D01*
X020054Y027256D01*
X020230Y027024D01*
X020395Y026783D01*
X020548Y026535D01*
X020689Y026280D01*
X020817Y026018D01*
X020933Y025750D01*
X021035Y025477D01*
X021125Y025200D01*
X021200Y024918D01*
X021262Y024633D01*
X021310Y024345D01*
X021345Y024056D01*
X021365Y023765D01*
X021371Y023473D01*
X021363Y023182D01*
X021341Y022891D01*
X021305Y022602D01*
X021255Y022314D01*
X021191Y022030D01*
X021113Y021749D01*
X021022Y021472D01*
X020918Y021199D01*
X022368Y018112D02*
X022370Y018155D01*
X022376Y018197D01*
X022386Y018239D01*
X022399Y018280D01*
X022416Y018320D01*
X022437Y018357D01*
X022461Y018393D01*
X022488Y018426D01*
X022518Y018457D01*
X022551Y018485D01*
X022586Y018510D01*
X022623Y018531D01*
X022662Y018549D01*
X022702Y018563D01*
X022744Y018574D01*
X022786Y018581D01*
X022829Y018584D01*
X022872Y018583D01*
X022915Y018578D01*
X022957Y018569D01*
X022998Y018557D01*
X023038Y018541D01*
X023076Y018521D01*
X023112Y018498D01*
X023146Y018471D01*
X023178Y018442D01*
X023206Y018410D01*
X023232Y018375D01*
X023254Y018339D01*
X023273Y018300D01*
X023288Y018260D01*
X023300Y018219D01*
X023308Y018176D01*
X023312Y018133D01*
X023312Y018091D01*
X023308Y018048D01*
X023300Y018005D01*
X023288Y017964D01*
X023273Y017924D01*
X023254Y017885D01*
X023232Y017849D01*
X023206Y017814D01*
X023178Y017782D01*
X023146Y017753D01*
X023112Y017726D01*
X023076Y017703D01*
X023038Y017683D01*
X022998Y017667D01*
X022957Y017655D01*
X022915Y017646D01*
X022872Y017641D01*
X022829Y017640D01*
X022786Y017643D01*
X022744Y017650D01*
X022702Y017661D01*
X022662Y017675D01*
X022623Y017693D01*
X022586Y017714D01*
X022551Y017739D01*
X022518Y017767D01*
X022488Y017798D01*
X022461Y017831D01*
X022437Y017867D01*
X022416Y017904D01*
X022399Y017944D01*
X022386Y017985D01*
X022376Y018027D01*
X022370Y018069D01*
X022368Y018112D01*
X020918Y021200D02*
X021190Y021304D01*
X021467Y021395D01*
X021748Y021473D01*
X022033Y021537D01*
X022320Y021587D01*
X022609Y021623D01*
X022900Y021645D01*
X023191Y021653D01*
X023483Y021647D01*
X023774Y021627D01*
X024063Y021592D01*
X024351Y021544D01*
X024636Y021482D01*
X024918Y021407D01*
X025195Y021317D01*
X025468Y021215D01*
X025736Y021099D01*
X025998Y020971D01*
X026253Y020830D01*
X026501Y020677D01*
X026742Y020512D01*
X026974Y020336D01*
X027198Y020148D01*
X027412Y019951D01*
X027616Y019743D01*
X027810Y019525D01*
X027994Y019298D01*
X028166Y019063D01*
X028326Y018819D01*
X028475Y018568D01*
X028611Y018311D01*
X028735Y018047D01*
X028846Y017777D01*
X028944Y017502D01*
X029028Y017223D01*
X029099Y016940D01*
X029156Y016654D01*
X029199Y016366D01*
X029228Y016076D01*
X029243Y015784D01*
X029244Y015493D01*
X029231Y015201D01*
X029203Y014911D01*
X029162Y014622D01*
X029107Y014336D01*
X029038Y014053D01*
X028956Y013773D01*
X028860Y013498D01*
X028751Y013227D01*
X028629Y012962D01*
X028494Y012704D01*
X028347Y012452D01*
X028188Y012207D01*
X028017Y011971D01*
X027835Y011743D01*
X027643Y011524D01*
X027440Y011315D01*
X027227Y011115D01*
X027005Y010927D01*
X026773Y010749D01*
X026534Y010582D01*
X026287Y010428D01*
X026032Y010285D01*
X025771Y010155D01*
X025504Y010038D01*
X009756Y010038D01*
X017357Y023123D02*
X017359Y023166D01*
X017365Y023208D01*
X017375Y023250D01*
X017388Y023291D01*
X017405Y023331D01*
X017426Y023368D01*
X017450Y023404D01*
X017477Y023437D01*
X017507Y023468D01*
X017540Y023496D01*
X017575Y023521D01*
X017612Y023542D01*
X017651Y023560D01*
X017691Y023574D01*
X017733Y023585D01*
X017775Y023592D01*
X017818Y023595D01*
X017861Y023594D01*
X017904Y023589D01*
X017946Y023580D01*
X017987Y023568D01*
X018027Y023552D01*
X018065Y023532D01*
X018101Y023509D01*
X018135Y023482D01*
X018167Y023453D01*
X018195Y023421D01*
X018221Y023386D01*
X018243Y023350D01*
X018262Y023311D01*
X018277Y023271D01*
X018289Y023230D01*
X018297Y023187D01*
X018301Y023144D01*
X018301Y023102D01*
X018297Y023059D01*
X018289Y023016D01*
X018277Y022975D01*
X018262Y022935D01*
X018243Y022896D01*
X018221Y022860D01*
X018195Y022825D01*
X018167Y022793D01*
X018135Y022764D01*
X018101Y022737D01*
X018065Y022714D01*
X018027Y022694D01*
X017987Y022678D01*
X017946Y022666D01*
X017904Y022657D01*
X017861Y022652D01*
X017818Y022651D01*
X017775Y022654D01*
X017733Y022661D01*
X017691Y022672D01*
X017651Y022686D01*
X017612Y022704D01*
X017575Y022725D01*
X017540Y022750D01*
X017507Y022778D01*
X017477Y022809D01*
X017450Y022842D01*
X017426Y022878D01*
X017405Y022915D01*
X017388Y022955D01*
X017375Y022996D01*
X017365Y023038D01*
X017359Y023080D01*
X017357Y023123D01*
D11*
X016623Y024877D02*
X017189Y025442D01*
X017200Y025456D01*
X017209Y025471D01*
X017215Y025487D01*
X017218Y025504D01*
X017218Y025522D01*
X017215Y025539D01*
X017209Y025555D01*
X017200Y025570D01*
X017189Y025584D01*
X015280Y027493D01*
X015266Y027504D01*
X015251Y027513D01*
X015235Y027519D01*
X015218Y027522D01*
X015200Y027522D01*
X015183Y027519D01*
X015167Y027513D01*
X015152Y027504D01*
X015138Y027493D01*
X014573Y026927D01*
X014572Y026928D02*
X014561Y026914D01*
X014552Y026899D01*
X014546Y026883D01*
X014543Y026866D01*
X014543Y026848D01*
X014546Y026831D01*
X014552Y026815D01*
X014561Y026800D01*
X014572Y026786D01*
X014573Y026786D02*
X016482Y024877D01*
X016481Y024876D02*
X016495Y024865D01*
X016510Y024856D01*
X016526Y024850D01*
X016543Y024847D01*
X016561Y024847D01*
X016578Y024850D01*
X016594Y024856D01*
X016609Y024865D01*
X016623Y024876D01*
X015985Y024733D02*
X015384Y025334D01*
X015360Y025313D01*
X015334Y025296D01*
X015306Y025282D01*
X015277Y025271D01*
X015246Y025264D01*
X015215Y025261D01*
X015183Y025262D01*
X015152Y025267D01*
X015122Y025276D01*
X015093Y025288D01*
X015066Y025304D01*
X015042Y025323D01*
X015019Y025346D01*
X015000Y025370D01*
X014984Y025397D01*
X014972Y025426D01*
X014963Y025456D01*
X014958Y025487D01*
X014957Y025519D01*
X014960Y025550D01*
X014967Y025581D01*
X014978Y025610D01*
X014992Y025638D01*
X015009Y025664D01*
X015030Y025688D01*
X014429Y026289D01*
X011601Y023461D01*
X013156Y021905D01*
X015985Y024733D01*
X016305Y025761D02*
X015966Y026100D01*
X015789Y026277D02*
X015456Y026609D01*
X015147Y028477D02*
X015143Y028522D01*
X015142Y028567D01*
X015145Y028613D01*
X015152Y028658D01*
X015161Y028702D01*
X015174Y028746D01*
X015191Y028788D01*
X015210Y028829D01*
X015233Y028869D01*
X015259Y028906D01*
X015287Y028942D01*
X015318Y028975D01*
X015317Y028975D02*
X015350Y029006D01*
X015386Y029034D01*
X015423Y029060D01*
X015463Y029083D01*
X015504Y029102D01*
X015546Y029119D01*
X015590Y029132D01*
X015634Y029141D01*
X015679Y029148D01*
X015725Y029151D01*
X015770Y029150D01*
X015815Y029146D01*
X016166Y028127D02*
X016131Y028094D01*
X016094Y028065D01*
X016054Y028039D01*
X016013Y028016D01*
X015970Y027996D01*
X015925Y027980D01*
X015879Y027967D01*
X015833Y027958D01*
X015785Y027953D01*
X015738Y027951D01*
X015690Y027953D01*
X015643Y027959D01*
X016166Y028127D02*
X016198Y028161D01*
X016227Y028197D01*
X016252Y028236D01*
X016275Y028276D01*
X016295Y028318D01*
X016311Y028361D01*
X016324Y028406D01*
X016334Y028451D01*
X016340Y028497D01*
X016342Y028543D01*
X016341Y028590D01*
X016336Y028636D01*
X018241Y027723D02*
X018274Y027754D01*
X018310Y027782D01*
X018347Y027808D01*
X018387Y027831D01*
X018428Y027850D01*
X018470Y027867D01*
X018514Y027880D01*
X018558Y027889D01*
X018603Y027896D01*
X018649Y027899D01*
X018694Y027898D01*
X018739Y027894D01*
X019089Y026875D02*
X019054Y026842D01*
X019017Y026813D01*
X018977Y026787D01*
X018936Y026764D01*
X018893Y026744D01*
X018848Y026728D01*
X018802Y026715D01*
X018756Y026706D01*
X018708Y026701D01*
X018661Y026699D01*
X018613Y026701D01*
X018566Y026707D01*
X018070Y027224D02*
X018066Y027269D01*
X018065Y027314D01*
X018068Y027360D01*
X018075Y027405D01*
X018084Y027449D01*
X018097Y027493D01*
X018114Y027535D01*
X018133Y027576D01*
X018156Y027616D01*
X018182Y027653D01*
X018210Y027689D01*
X018241Y027722D01*
X019259Y027383D02*
X019264Y027337D01*
X019265Y027290D01*
X019263Y027244D01*
X019257Y027198D01*
X019247Y027153D01*
X019234Y027108D01*
X019218Y027065D01*
X019198Y027023D01*
X019175Y026983D01*
X019150Y026944D01*
X019121Y026908D01*
X019089Y026874D01*
X019911Y024660D02*
X019944Y024691D01*
X019980Y024719D01*
X020017Y024745D01*
X020057Y024768D01*
X020098Y024787D01*
X020140Y024804D01*
X020184Y024817D01*
X020228Y024826D01*
X020273Y024833D01*
X020319Y024836D01*
X020364Y024835D01*
X020409Y024831D01*
X020759Y023812D02*
X020724Y023779D01*
X020687Y023750D01*
X020647Y023724D01*
X020606Y023701D01*
X020563Y023681D01*
X020518Y023665D01*
X020472Y023652D01*
X020426Y023643D01*
X020378Y023638D01*
X020331Y023636D01*
X020283Y023638D01*
X020236Y023644D01*
X019740Y024162D02*
X019736Y024207D01*
X019735Y024252D01*
X019738Y024298D01*
X019745Y024343D01*
X019754Y024387D01*
X019767Y024431D01*
X019784Y024473D01*
X019803Y024514D01*
X019826Y024554D01*
X019852Y024591D01*
X019880Y024627D01*
X019911Y024660D01*
X020929Y024321D02*
X020934Y024275D01*
X020935Y024228D01*
X020933Y024182D01*
X020927Y024136D01*
X020917Y024091D01*
X020904Y024046D01*
X020888Y024003D01*
X020868Y023961D01*
X020845Y023921D01*
X020820Y023882D01*
X020791Y023846D01*
X020759Y023812D01*
X019740Y020691D02*
X019736Y020646D01*
X019735Y020601D01*
X019738Y020555D01*
X019745Y020510D01*
X019754Y020466D01*
X019767Y020422D01*
X019784Y020380D01*
X019803Y020339D01*
X019826Y020299D01*
X019852Y020262D01*
X019880Y020226D01*
X019911Y020193D01*
X019944Y020162D01*
X019980Y020134D01*
X020017Y020108D01*
X020057Y020085D01*
X020098Y020066D01*
X020140Y020049D01*
X020184Y020036D01*
X020228Y020027D01*
X020273Y020020D01*
X020319Y020017D01*
X020364Y020018D01*
X020409Y020022D01*
X020759Y021041D02*
X020725Y021073D01*
X020689Y021102D01*
X020650Y021127D01*
X020610Y021150D01*
X020568Y021170D01*
X020525Y021186D01*
X020480Y021199D01*
X020435Y021209D01*
X020389Y021215D01*
X020343Y021217D01*
X020296Y021216D01*
X020250Y021211D01*
X020759Y021041D02*
X020792Y021006D01*
X020821Y020969D01*
X020847Y020929D01*
X020870Y020888D01*
X020890Y020845D01*
X020906Y020800D01*
X020919Y020754D01*
X020928Y020708D01*
X020933Y020660D01*
X020935Y020613D01*
X020933Y020565D01*
X020927Y020518D01*
X023530Y021041D02*
X023563Y021072D01*
X023599Y021100D01*
X023636Y021126D01*
X023676Y021149D01*
X023717Y021168D01*
X023759Y021185D01*
X023803Y021198D01*
X023847Y021207D01*
X023892Y021214D01*
X023938Y021217D01*
X023983Y021216D01*
X024028Y021212D01*
X024378Y020193D02*
X024343Y020160D01*
X024306Y020131D01*
X024266Y020105D01*
X024225Y020082D01*
X024182Y020062D01*
X024137Y020046D01*
X024091Y020033D01*
X024045Y020024D01*
X023997Y020019D01*
X023950Y020017D01*
X023902Y020019D01*
X023855Y020025D01*
X023359Y020543D02*
X023355Y020588D01*
X023354Y020633D01*
X023357Y020679D01*
X023364Y020724D01*
X023373Y020768D01*
X023386Y020812D01*
X023403Y020854D01*
X023422Y020895D01*
X023445Y020935D01*
X023471Y020972D01*
X023499Y021008D01*
X023530Y021041D01*
X024548Y020702D02*
X024553Y020656D01*
X024554Y020609D01*
X024552Y020563D01*
X024546Y020517D01*
X024536Y020472D01*
X024523Y020427D01*
X024507Y020384D01*
X024487Y020342D01*
X024464Y020302D01*
X024439Y020263D01*
X024410Y020227D01*
X024378Y020193D01*
X026592Y019371D02*
X026625Y019402D01*
X026661Y019430D01*
X026698Y019456D01*
X026738Y019479D01*
X026779Y019498D01*
X026821Y019515D01*
X026865Y019528D01*
X026909Y019537D01*
X026954Y019544D01*
X027000Y019547D01*
X027045Y019546D01*
X027090Y019542D01*
X027440Y018523D02*
X027405Y018490D01*
X027368Y018461D01*
X027328Y018435D01*
X027287Y018412D01*
X027244Y018392D01*
X027199Y018376D01*
X027153Y018363D01*
X027107Y018354D01*
X027059Y018349D01*
X027012Y018347D01*
X026964Y018349D01*
X026917Y018355D01*
X026421Y018873D02*
X026417Y018918D01*
X026416Y018963D01*
X026419Y019009D01*
X026426Y019054D01*
X026435Y019098D01*
X026448Y019142D01*
X026465Y019184D01*
X026484Y019225D01*
X026507Y019265D01*
X026533Y019302D01*
X026561Y019338D01*
X026592Y019371D01*
X027610Y019032D02*
X027615Y018986D01*
X027616Y018939D01*
X027614Y018893D01*
X027608Y018847D01*
X027598Y018802D01*
X027585Y018757D01*
X027569Y018714D01*
X027549Y018672D01*
X027526Y018632D01*
X027501Y018593D01*
X027472Y018557D01*
X027440Y018523D01*
X028343Y016619D02*
X028298Y016623D01*
X028253Y016624D01*
X028207Y016621D01*
X028162Y016614D01*
X028118Y016605D01*
X028074Y016592D01*
X028032Y016575D01*
X027991Y016556D01*
X027951Y016533D01*
X027914Y016507D01*
X027878Y016479D01*
X027845Y016448D01*
X027814Y016415D01*
X027786Y016379D01*
X027760Y016342D01*
X027737Y016302D01*
X027718Y016261D01*
X027701Y016219D01*
X027688Y016175D01*
X027679Y016131D01*
X027672Y016086D01*
X027669Y016040D01*
X027670Y015995D01*
X027674Y015950D01*
X028693Y015600D02*
X028725Y015634D01*
X028754Y015670D01*
X028779Y015709D01*
X028802Y015749D01*
X028822Y015791D01*
X028838Y015834D01*
X028851Y015879D01*
X028861Y015924D01*
X028867Y015970D01*
X028869Y016016D01*
X028868Y016063D01*
X028863Y016109D01*
X028693Y015600D02*
X028658Y015567D01*
X028621Y015538D01*
X028581Y015512D01*
X028540Y015489D01*
X028497Y015469D01*
X028452Y015453D01*
X028406Y015440D01*
X028360Y015431D01*
X028312Y015426D01*
X028265Y015424D01*
X028217Y015426D01*
X028170Y015432D01*
X027647Y013696D02*
X027602Y013700D01*
X027557Y013701D01*
X027511Y013698D01*
X027466Y013691D01*
X027422Y013682D01*
X027378Y013669D01*
X027336Y013652D01*
X027295Y013633D01*
X027255Y013610D01*
X027218Y013584D01*
X027182Y013556D01*
X027149Y013525D01*
X027474Y012509D02*
X027521Y012503D01*
X027569Y012501D01*
X027616Y012503D01*
X027664Y012508D01*
X027710Y012517D01*
X027756Y012530D01*
X027801Y012546D01*
X027844Y012566D01*
X027885Y012589D01*
X027925Y012615D01*
X027962Y012644D01*
X027997Y012677D01*
X026978Y013027D02*
X026974Y013072D01*
X026973Y013117D01*
X026976Y013163D01*
X026983Y013208D01*
X026992Y013252D01*
X027005Y013296D01*
X027022Y013338D01*
X027041Y013379D01*
X027064Y013419D01*
X027090Y013456D01*
X027118Y013492D01*
X027149Y013525D01*
X028167Y013186D02*
X028172Y013140D01*
X028173Y013093D01*
X028171Y013047D01*
X028165Y013001D01*
X028155Y012956D01*
X028142Y012911D01*
X028126Y012868D01*
X028106Y012826D01*
X028083Y012786D01*
X028058Y012747D01*
X028029Y012711D01*
X027997Y012677D01*
X025682Y014245D02*
X025399Y013962D01*
X024727Y013291D01*
X024480Y013043D01*
X023667Y013361D02*
X023596Y013432D01*
X023525Y013361D01*
X023101Y013786D01*
X023172Y013856D01*
X023101Y013927D01*
X022783Y014740D02*
X023030Y014988D01*
X023737Y015695D01*
X023985Y015942D01*
X024798Y015624D02*
X024869Y015553D01*
X024939Y015624D01*
X025364Y015200D01*
X025293Y015129D01*
X025364Y015058D01*
X024132Y014493D02*
X024134Y014513D01*
X024140Y014531D01*
X024149Y014549D01*
X024161Y014564D01*
X024176Y014576D01*
X024194Y014585D01*
X024212Y014591D01*
X024232Y014593D01*
X024252Y014591D01*
X024270Y014585D01*
X024288Y014576D01*
X024303Y014564D01*
X024315Y014549D01*
X024324Y014531D01*
X024330Y014513D01*
X024332Y014493D01*
X024330Y014473D01*
X024324Y014455D01*
X024315Y014437D01*
X024303Y014422D01*
X024288Y014410D01*
X024270Y014401D01*
X024252Y014395D01*
X024232Y014393D01*
X024212Y014395D01*
X024194Y014401D01*
X024176Y014410D01*
X024161Y014422D01*
X024149Y014437D01*
X024140Y014455D01*
X024134Y014473D01*
X024132Y014493D01*
X023532Y014493D02*
X023534Y014545D01*
X023540Y014597D01*
X023550Y014649D01*
X023563Y014699D01*
X023580Y014749D01*
X023601Y014797D01*
X023626Y014843D01*
X023654Y014887D01*
X023685Y014929D01*
X023719Y014969D01*
X023756Y015006D01*
X023796Y015040D01*
X023838Y015071D01*
X023882Y015099D01*
X023928Y015124D01*
X023976Y015145D01*
X024026Y015162D01*
X024076Y015175D01*
X024128Y015185D01*
X024180Y015191D01*
X024232Y015193D01*
X024284Y015191D01*
X024336Y015185D01*
X024388Y015175D01*
X024438Y015162D01*
X024488Y015145D01*
X024536Y015124D01*
X024582Y015099D01*
X024626Y015071D01*
X024668Y015040D01*
X024708Y015006D01*
X024745Y014969D01*
X024779Y014929D01*
X024810Y014887D01*
X024838Y014843D01*
X024863Y014797D01*
X024884Y014749D01*
X024901Y014699D01*
X024914Y014649D01*
X024924Y014597D01*
X024930Y014545D01*
X024932Y014493D01*
X024930Y014441D01*
X024924Y014389D01*
X024914Y014337D01*
X024901Y014287D01*
X024884Y014237D01*
X024863Y014189D01*
X024838Y014143D01*
X024810Y014099D01*
X024779Y014057D01*
X024745Y014017D01*
X024708Y013980D01*
X024668Y013946D01*
X024626Y013915D01*
X024582Y013887D01*
X024536Y013862D01*
X024488Y013841D01*
X024438Y013824D01*
X024388Y013811D01*
X024336Y013801D01*
X024284Y013795D01*
X024232Y013793D01*
X024180Y013795D01*
X024128Y013801D01*
X024076Y013811D01*
X024026Y013824D01*
X023976Y013841D01*
X023928Y013862D01*
X023882Y013887D01*
X023838Y013915D01*
X023796Y013946D01*
X023756Y013980D01*
X023719Y014017D01*
X023685Y014057D01*
X023654Y014099D01*
X023626Y014143D01*
X023601Y014189D01*
X023580Y014237D01*
X023563Y014287D01*
X023550Y014337D01*
X023540Y014389D01*
X023534Y014441D01*
X023532Y014493D01*
X024922Y011576D02*
X024955Y011607D01*
X024991Y011635D01*
X025028Y011661D01*
X025068Y011684D01*
X025109Y011703D01*
X025151Y011720D01*
X025195Y011733D01*
X025239Y011742D01*
X025284Y011749D01*
X025330Y011752D01*
X025375Y011751D01*
X025420Y011747D01*
X025770Y010728D02*
X025735Y010695D01*
X025698Y010666D01*
X025658Y010640D01*
X025617Y010617D01*
X025574Y010597D01*
X025529Y010581D01*
X025483Y010568D01*
X025437Y010559D01*
X025389Y010554D01*
X025342Y010552D01*
X025294Y010554D01*
X025247Y010560D01*
X024751Y011078D02*
X024747Y011123D01*
X024746Y011168D01*
X024749Y011214D01*
X024756Y011259D01*
X024765Y011303D01*
X024778Y011347D01*
X024795Y011389D01*
X024814Y011430D01*
X024837Y011470D01*
X024863Y011507D01*
X024891Y011543D01*
X024922Y011576D01*
X025940Y011237D02*
X025945Y011191D01*
X025946Y011144D01*
X025944Y011098D01*
X025938Y011052D01*
X025928Y011007D01*
X025915Y010962D01*
X025899Y010919D01*
X025879Y010877D01*
X025856Y010837D01*
X025831Y010798D01*
X025802Y010762D01*
X025770Y010728D01*
X021999Y011437D02*
X021968Y011404D01*
X021940Y011368D01*
X021914Y011331D01*
X021891Y011291D01*
X021872Y011250D01*
X021855Y011208D01*
X021842Y011164D01*
X021833Y011120D01*
X021826Y011075D01*
X021823Y011029D01*
X021824Y010984D01*
X021828Y010939D01*
X021999Y011437D02*
X022032Y011468D01*
X022068Y011496D01*
X022105Y011522D01*
X022145Y011545D01*
X022186Y011564D01*
X022228Y011581D01*
X022272Y011594D01*
X022316Y011603D01*
X022361Y011610D01*
X022407Y011613D01*
X022452Y011612D01*
X022497Y011608D01*
X022847Y010589D02*
X022812Y010556D01*
X022775Y010527D01*
X022735Y010501D01*
X022694Y010478D01*
X022651Y010458D01*
X022606Y010442D01*
X022560Y010429D01*
X022514Y010420D01*
X022466Y010415D01*
X022419Y010413D01*
X022371Y010415D01*
X022324Y010421D01*
X022847Y010589D02*
X022879Y010623D01*
X022908Y010659D01*
X022933Y010698D01*
X022956Y010738D01*
X022976Y010780D01*
X022992Y010823D01*
X023005Y010868D01*
X023015Y010913D01*
X023021Y010959D01*
X023023Y011005D01*
X023022Y011052D01*
X023017Y011098D01*
X018937Y011437D02*
X018906Y011404D01*
X018878Y011368D01*
X018852Y011331D01*
X018829Y011291D01*
X018810Y011250D01*
X018793Y011208D01*
X018780Y011164D01*
X018771Y011120D01*
X018764Y011075D01*
X018761Y011029D01*
X018762Y010984D01*
X018766Y010939D01*
X018937Y011437D02*
X018970Y011468D01*
X019006Y011496D01*
X019043Y011522D01*
X019083Y011545D01*
X019124Y011564D01*
X019166Y011581D01*
X019210Y011594D01*
X019254Y011603D01*
X019299Y011610D01*
X019345Y011613D01*
X019390Y011612D01*
X019435Y011608D01*
X019785Y010589D02*
X019750Y010556D01*
X019713Y010527D01*
X019673Y010501D01*
X019632Y010478D01*
X019589Y010458D01*
X019544Y010442D01*
X019498Y010429D01*
X019452Y010420D01*
X019404Y010415D01*
X019357Y010413D01*
X019309Y010415D01*
X019262Y010421D01*
X019785Y010589D02*
X019817Y010623D01*
X019846Y010659D01*
X019871Y010698D01*
X019894Y010738D01*
X019914Y010780D01*
X019930Y010823D01*
X019943Y010868D01*
X019953Y010913D01*
X019959Y010959D01*
X019961Y011005D01*
X019960Y011052D01*
X019955Y011098D01*
X016153Y011437D02*
X016122Y011404D01*
X016094Y011368D01*
X016068Y011331D01*
X016045Y011291D01*
X016026Y011250D01*
X016009Y011208D01*
X015996Y011164D01*
X015987Y011120D01*
X015980Y011075D01*
X015977Y011029D01*
X015978Y010984D01*
X015982Y010939D01*
X016153Y011437D02*
X016186Y011468D01*
X016222Y011496D01*
X016259Y011522D01*
X016299Y011545D01*
X016340Y011564D01*
X016382Y011581D01*
X016426Y011594D01*
X016470Y011603D01*
X016515Y011610D01*
X016561Y011613D01*
X016606Y011612D01*
X016651Y011608D01*
X017001Y010589D02*
X016966Y010556D01*
X016929Y010527D01*
X016889Y010501D01*
X016848Y010478D01*
X016805Y010458D01*
X016760Y010442D01*
X016714Y010429D01*
X016668Y010420D01*
X016620Y010415D01*
X016573Y010413D01*
X016525Y010415D01*
X016478Y010421D01*
X017001Y010589D02*
X017033Y010623D01*
X017062Y010659D01*
X017087Y010698D01*
X017110Y010738D01*
X017130Y010780D01*
X017146Y010823D01*
X017159Y010868D01*
X017169Y010913D01*
X017175Y010959D01*
X017177Y011005D01*
X017176Y011052D01*
X017171Y011098D01*
X013369Y011437D02*
X013338Y011404D01*
X013310Y011368D01*
X013284Y011331D01*
X013261Y011291D01*
X013242Y011250D01*
X013225Y011208D01*
X013212Y011164D01*
X013203Y011120D01*
X013196Y011075D01*
X013193Y011029D01*
X013194Y010984D01*
X013198Y010939D01*
X013369Y011437D02*
X013402Y011468D01*
X013438Y011496D01*
X013475Y011522D01*
X013515Y011545D01*
X013556Y011564D01*
X013598Y011581D01*
X013642Y011594D01*
X013686Y011603D01*
X013731Y011610D01*
X013777Y011613D01*
X013822Y011612D01*
X013867Y011608D01*
X014217Y010589D02*
X014182Y010556D01*
X014145Y010527D01*
X014105Y010501D01*
X014064Y010478D01*
X014021Y010458D01*
X013976Y010442D01*
X013930Y010429D01*
X013884Y010420D01*
X013836Y010415D01*
X013789Y010413D01*
X013741Y010415D01*
X013694Y010421D01*
X014217Y010589D02*
X014249Y010623D01*
X014278Y010659D01*
X014303Y010698D01*
X014326Y010738D01*
X014346Y010780D01*
X014362Y010823D01*
X014375Y010868D01*
X014385Y010913D01*
X014391Y010959D01*
X014393Y011005D01*
X014392Y011052D01*
X014387Y011098D01*
X010307Y011437D02*
X010276Y011404D01*
X010248Y011368D01*
X010222Y011331D01*
X010199Y011291D01*
X010180Y011250D01*
X010163Y011208D01*
X010150Y011164D01*
X010141Y011120D01*
X010134Y011075D01*
X010131Y011029D01*
X010132Y010984D01*
X010136Y010939D01*
X010307Y011437D02*
X010340Y011468D01*
X010376Y011496D01*
X010413Y011522D01*
X010453Y011545D01*
X010494Y011564D01*
X010536Y011581D01*
X010580Y011594D01*
X010624Y011603D01*
X010669Y011610D01*
X010715Y011613D01*
X010760Y011612D01*
X010805Y011608D01*
X011155Y010589D02*
X011120Y010556D01*
X011083Y010527D01*
X011043Y010501D01*
X011002Y010478D01*
X010959Y010458D01*
X010914Y010442D01*
X010868Y010429D01*
X010822Y010420D01*
X010774Y010415D01*
X010727Y010413D01*
X010679Y010415D01*
X010632Y010421D01*
X011155Y010589D02*
X011187Y010623D01*
X011216Y010659D01*
X011241Y010698D01*
X011264Y010738D01*
X011284Y010780D01*
X011300Y010823D01*
X011313Y010868D01*
X011323Y010913D01*
X011329Y010959D01*
X011331Y011005D01*
X011330Y011052D01*
X011325Y011098D01*
X010136Y014001D02*
X010132Y014046D01*
X010131Y014091D01*
X010134Y014137D01*
X010141Y014182D01*
X010150Y014226D01*
X010163Y014270D01*
X010180Y014312D01*
X010199Y014353D01*
X010222Y014393D01*
X010248Y014430D01*
X010276Y014466D01*
X010307Y014499D01*
X010340Y014530D01*
X010376Y014558D01*
X010413Y014584D01*
X010453Y014607D01*
X010494Y014626D01*
X010536Y014643D01*
X010580Y014656D01*
X010624Y014665D01*
X010669Y014672D01*
X010715Y014675D01*
X010760Y014674D01*
X010805Y014670D01*
X011155Y013651D02*
X011120Y013618D01*
X011083Y013589D01*
X011043Y013563D01*
X011002Y013540D01*
X010959Y013520D01*
X010914Y013504D01*
X010868Y013491D01*
X010822Y013482D01*
X010774Y013477D01*
X010727Y013475D01*
X010679Y013477D01*
X010632Y013483D01*
X011155Y013651D02*
X011187Y013685D01*
X011216Y013721D01*
X011241Y013760D01*
X011264Y013800D01*
X011284Y013842D01*
X011300Y013885D01*
X011313Y013930D01*
X011323Y013975D01*
X011329Y014021D01*
X011331Y014067D01*
X011330Y014114D01*
X011325Y014160D01*
X010136Y016785D02*
X010132Y016830D01*
X010131Y016875D01*
X010134Y016921D01*
X010141Y016966D01*
X010150Y017010D01*
X010163Y017054D01*
X010180Y017096D01*
X010199Y017137D01*
X010222Y017177D01*
X010248Y017214D01*
X010276Y017250D01*
X010307Y017283D01*
X010340Y017314D01*
X010376Y017342D01*
X010413Y017368D01*
X010453Y017391D01*
X010494Y017410D01*
X010536Y017427D01*
X010580Y017440D01*
X010624Y017449D01*
X010669Y017456D01*
X010715Y017459D01*
X010760Y017458D01*
X010805Y017454D01*
X011155Y016435D02*
X011120Y016402D01*
X011083Y016373D01*
X011043Y016347D01*
X011002Y016324D01*
X010959Y016304D01*
X010914Y016288D01*
X010868Y016275D01*
X010822Y016266D01*
X010774Y016261D01*
X010727Y016259D01*
X010679Y016261D01*
X010632Y016267D01*
X011155Y016435D02*
X011187Y016469D01*
X011216Y016505D01*
X011241Y016544D01*
X011264Y016584D01*
X011284Y016626D01*
X011300Y016669D01*
X011313Y016714D01*
X011323Y016759D01*
X011329Y016805D01*
X011331Y016851D01*
X011330Y016898D01*
X011325Y016944D01*
X010136Y019569D02*
X010132Y019614D01*
X010131Y019659D01*
X010134Y019705D01*
X010141Y019750D01*
X010150Y019794D01*
X010163Y019838D01*
X010180Y019880D01*
X010199Y019921D01*
X010222Y019961D01*
X010248Y019998D01*
X010276Y020034D01*
X010307Y020067D01*
X010340Y020098D01*
X010376Y020126D01*
X010413Y020152D01*
X010453Y020175D01*
X010494Y020194D01*
X010536Y020211D01*
X010580Y020224D01*
X010624Y020233D01*
X010669Y020240D01*
X010715Y020243D01*
X010760Y020242D01*
X010805Y020238D01*
X011155Y019219D02*
X011120Y019186D01*
X011083Y019157D01*
X011043Y019131D01*
X011002Y019108D01*
X010959Y019088D01*
X010914Y019072D01*
X010868Y019059D01*
X010822Y019050D01*
X010774Y019045D01*
X010727Y019043D01*
X010679Y019045D01*
X010632Y019051D01*
X011155Y019219D02*
X011187Y019253D01*
X011216Y019289D01*
X011241Y019328D01*
X011264Y019368D01*
X011284Y019410D01*
X011300Y019453D01*
X011313Y019498D01*
X011323Y019543D01*
X011329Y019589D01*
X011331Y019635D01*
X011330Y019682D01*
X011325Y019728D01*
X010136Y022631D02*
X010132Y022676D01*
X010131Y022721D01*
X010134Y022767D01*
X010141Y022812D01*
X010150Y022856D01*
X010163Y022900D01*
X010180Y022942D01*
X010199Y022983D01*
X010222Y023023D01*
X010248Y023060D01*
X010276Y023096D01*
X010307Y023129D01*
X010340Y023160D01*
X010376Y023188D01*
X010413Y023214D01*
X010453Y023237D01*
X010494Y023256D01*
X010536Y023273D01*
X010580Y023286D01*
X010624Y023295D01*
X010669Y023302D01*
X010715Y023305D01*
X010760Y023304D01*
X010805Y023300D01*
X011155Y022281D02*
X011120Y022248D01*
X011083Y022219D01*
X011043Y022193D01*
X011002Y022170D01*
X010959Y022150D01*
X010914Y022134D01*
X010868Y022121D01*
X010822Y022112D01*
X010774Y022107D01*
X010727Y022105D01*
X010679Y022107D01*
X010632Y022113D01*
X011155Y022281D02*
X011187Y022315D01*
X011216Y022351D01*
X011241Y022390D01*
X011264Y022430D01*
X011284Y022472D01*
X011300Y022515D01*
X011313Y022560D01*
X011323Y022605D01*
X011329Y022651D01*
X011331Y022697D01*
X011330Y022744D01*
X011325Y022790D01*
X010275Y025554D02*
X010271Y025599D01*
X010270Y025644D01*
X010273Y025690D01*
X010280Y025735D01*
X010289Y025779D01*
X010302Y025823D01*
X010319Y025865D01*
X010338Y025906D01*
X010361Y025946D01*
X010387Y025983D01*
X010415Y026019D01*
X010446Y026052D01*
X010479Y026083D01*
X010515Y026111D01*
X010552Y026137D01*
X010592Y026160D01*
X010633Y026179D01*
X010675Y026196D01*
X010719Y026209D01*
X010763Y026218D01*
X010808Y026225D01*
X010854Y026228D01*
X010899Y026227D01*
X010944Y026223D01*
X011294Y025204D02*
X011259Y025171D01*
X011222Y025142D01*
X011182Y025116D01*
X011141Y025093D01*
X011098Y025073D01*
X011053Y025057D01*
X011007Y025044D01*
X010961Y025035D01*
X010913Y025030D01*
X010866Y025028D01*
X010818Y025030D01*
X010771Y025036D01*
X011294Y025204D02*
X011326Y025238D01*
X011355Y025274D01*
X011380Y025313D01*
X011403Y025353D01*
X011423Y025395D01*
X011439Y025438D01*
X011452Y025483D01*
X011462Y025528D01*
X011468Y025574D01*
X011470Y025620D01*
X011469Y025667D01*
X011464Y025713D01*
X012394Y028279D02*
X012427Y028310D01*
X012463Y028338D01*
X012500Y028364D01*
X012540Y028387D01*
X012581Y028406D01*
X012623Y028423D01*
X012667Y028436D01*
X012711Y028445D01*
X012756Y028452D01*
X012802Y028455D01*
X012847Y028454D01*
X012892Y028450D01*
X013242Y027431D02*
X013207Y027398D01*
X013170Y027369D01*
X013130Y027343D01*
X013089Y027320D01*
X013046Y027300D01*
X013001Y027284D01*
X012955Y027271D01*
X012909Y027262D01*
X012861Y027257D01*
X012814Y027255D01*
X012766Y027257D01*
X012719Y027263D01*
X012223Y027781D02*
X012219Y027826D01*
X012218Y027871D01*
X012221Y027917D01*
X012228Y027962D01*
X012237Y028006D01*
X012250Y028050D01*
X012267Y028092D01*
X012286Y028133D01*
X012309Y028173D01*
X012335Y028210D01*
X012363Y028246D01*
X012394Y028279D01*
X013412Y027940D02*
X013417Y027894D01*
X013418Y027847D01*
X013416Y027801D01*
X013410Y027755D01*
X013400Y027710D01*
X013387Y027665D01*
X013371Y027622D01*
X013351Y027580D01*
X013328Y027540D01*
X013303Y027501D01*
X013274Y027465D01*
X013242Y027431D01*
X016970Y017862D02*
X017097Y017862D01*
X017125Y017706D01*
X017245Y017657D01*
X017380Y017748D01*
X017472Y017657D01*
X017380Y017522D01*
X017429Y017402D01*
X017592Y017367D01*
X017592Y017239D01*
X017436Y017211D01*
X017387Y017091D01*
X017472Y016964D01*
X017380Y016872D01*
X017260Y016949D01*
X017125Y016900D01*
X017097Y016744D01*
X016970Y016744D01*
X016941Y016886D01*
X016878Y016907D01*
X016977Y017133D01*
X016998Y017070D02*
X017210Y017140D01*
X017245Y017317D01*
X017175Y017459D01*
X017033Y017529D01*
X016892Y017459D01*
X016821Y017317D01*
X016821Y017246D01*
X016644Y017211D01*
X016503Y017282D01*
X016503Y017352D01*
X016680Y017388D01*
X016715Y017565D01*
X016644Y017635D01*
X016715Y017706D01*
X016821Y017600D01*
X016963Y017671D01*
X016998Y017847D01*
X017069Y017847D01*
X017104Y017671D01*
X017281Y017635D01*
X017351Y017706D01*
X017422Y017635D01*
X017351Y017494D01*
X017422Y017352D01*
X017564Y017352D01*
X017564Y017282D01*
X017422Y017211D01*
X017351Y017070D01*
X017458Y016964D01*
X017351Y016928D01*
X017210Y016999D01*
X017104Y016893D01*
X017069Y016787D01*
X016998Y016787D01*
X016963Y016893D01*
X016927Y016928D01*
X016998Y017070D01*
X016995Y017064D02*
X017357Y017064D01*
X017378Y017122D02*
X017155Y017122D01*
X017218Y017181D02*
X017407Y017181D01*
X017479Y017239D02*
X017230Y017239D01*
X017241Y017298D02*
X017564Y017298D01*
X017420Y017356D02*
X017226Y017356D01*
X017197Y017415D02*
X017391Y017415D01*
X017362Y017473D02*
X017145Y017473D01*
X017212Y017649D02*
X016919Y017649D01*
X016941Y017706D02*
X016807Y017657D01*
X016687Y017748D01*
X016595Y017657D01*
X016680Y017529D01*
X016623Y017402D01*
X016475Y017367D01*
X016475Y017239D01*
X016616Y017211D01*
X016630Y017155D01*
X016864Y017246D01*
X016821Y017298D02*
X016503Y017298D01*
X016522Y017356D02*
X016841Y017356D01*
X016870Y017415D02*
X016685Y017415D01*
X016697Y017473D02*
X016922Y017473D01*
X016863Y017246D02*
X016857Y017271D01*
X016854Y017297D01*
X016855Y017323D01*
X016860Y017349D01*
X016868Y017373D01*
X016880Y017396D01*
X016895Y017417D01*
X016913Y017436D01*
X016933Y017452D01*
X016956Y017465D01*
X016980Y017474D01*
X017005Y017480D01*
X017031Y017482D01*
X017057Y017480D01*
X017082Y017475D01*
X017107Y017466D01*
X017129Y017454D01*
X017150Y017438D01*
X017168Y017420D01*
X017184Y017399D01*
X017196Y017377D01*
X017205Y017352D01*
X017210Y017327D01*
X017212Y017301D01*
X017210Y017275D01*
X017204Y017250D01*
X017195Y017226D01*
X017182Y017203D01*
X017166Y017183D01*
X017147Y017165D01*
X017126Y017150D01*
X017103Y017138D01*
X017079Y017130D01*
X017053Y017125D01*
X017027Y017124D01*
X017002Y017127D01*
X016976Y017133D01*
X016966Y017005D02*
X017416Y017005D01*
X017406Y016947D02*
X017315Y016947D01*
X017158Y016947D02*
X016936Y016947D01*
X016964Y016888D02*
X017102Y016888D01*
X017083Y016829D02*
X016984Y016829D01*
X016785Y017239D02*
X016588Y017239D01*
X016709Y017532D02*
X017370Y017532D01*
X017400Y017591D02*
X016689Y017591D01*
X016658Y017649D02*
X016772Y017649D01*
X016941Y017706D02*
X016970Y017862D01*
X016993Y017825D02*
X017073Y017825D01*
X017085Y017766D02*
X016982Y017766D01*
X016970Y017708D02*
X017097Y017708D01*
X017294Y017649D02*
X017408Y017649D01*
D12*
X019769Y020051D02*
X019731Y020092D01*
X019696Y020136D01*
X019664Y020182D01*
X019635Y020230D01*
X019609Y020280D01*
X019588Y020332D01*
X019569Y020385D01*
X019555Y020439D01*
X019545Y020494D01*
X019538Y020550D01*
X019535Y020606D01*
X019536Y020662D01*
X019541Y020718D01*
X019550Y020773D01*
X019563Y020827D01*
X019769Y020051D02*
X019808Y020015D01*
X019850Y019981D01*
X019893Y019950D01*
X019939Y019922D01*
X019986Y019897D01*
X020035Y019875D01*
X020085Y019857D01*
X020136Y019842D01*
X020189Y019831D01*
X020241Y019822D01*
X020295Y019818D01*
X020348Y019817D01*
X020401Y019820D01*
X020901Y021183D02*
X020861Y021220D01*
X020819Y021254D01*
X020775Y021285D01*
X020729Y021313D01*
X020681Y021338D01*
X020632Y021360D01*
X020581Y021378D01*
X020529Y021393D01*
X020476Y021404D01*
X020423Y021412D01*
X020369Y021416D01*
X020315Y021417D01*
X020261Y021414D01*
X020207Y021407D01*
X020154Y021396D01*
X020102Y021382D01*
X020901Y021183D02*
X020937Y021143D01*
X020972Y021102D01*
X021003Y021058D01*
X021031Y021012D01*
X021056Y020964D01*
X021078Y020915D01*
X021096Y020864D01*
X021111Y020812D01*
X021122Y020759D01*
X021130Y020706D01*
X021134Y020652D01*
X021135Y020598D01*
X021132Y020545D01*
X024520Y020051D02*
X024557Y020091D01*
X024591Y020133D01*
X024622Y020177D01*
X024650Y020223D01*
X024675Y020271D01*
X024697Y020320D01*
X024715Y020371D01*
X024730Y020423D01*
X024741Y020476D01*
X024749Y020529D01*
X024753Y020583D01*
X024754Y020637D01*
X024751Y020691D01*
X024744Y020745D01*
X024733Y020798D01*
X024719Y020850D01*
X024164Y021389D02*
X024110Y021402D01*
X024055Y021411D01*
X023999Y021416D01*
X023943Y021417D01*
X023887Y021414D01*
X023831Y021407D01*
X023776Y021397D01*
X023722Y021383D01*
X023669Y021364D01*
X023617Y021343D01*
X023567Y021317D01*
X023519Y021288D01*
X023473Y021256D01*
X023429Y021221D01*
X023388Y021183D01*
X023882Y019820D02*
X023935Y019817D01*
X023989Y019818D01*
X024043Y019822D01*
X024096Y019830D01*
X024149Y019841D01*
X024201Y019856D01*
X024252Y019874D01*
X024301Y019896D01*
X024349Y019921D01*
X024395Y019949D01*
X024439Y019980D01*
X024480Y020014D01*
X024520Y020051D01*
X023157Y020551D02*
X023154Y020604D01*
X023155Y020657D01*
X023159Y020711D01*
X023168Y020763D01*
X023179Y020816D01*
X023194Y020867D01*
X023212Y020917D01*
X023234Y020966D01*
X023259Y021013D01*
X023287Y021059D01*
X023318Y021102D01*
X023352Y021144D01*
X023388Y021183D01*
X019538Y024170D02*
X019535Y024223D01*
X019536Y024276D01*
X019540Y024330D01*
X019549Y024382D01*
X019560Y024435D01*
X019575Y024486D01*
X019593Y024536D01*
X019615Y024585D01*
X019640Y024632D01*
X019668Y024678D01*
X019699Y024721D01*
X019733Y024763D01*
X019769Y024802D01*
X019810Y024840D01*
X019854Y024875D01*
X019900Y024907D01*
X019948Y024936D01*
X019998Y024962D01*
X020050Y024983D01*
X020103Y025002D01*
X020157Y025016D01*
X020212Y025026D01*
X020268Y025033D01*
X020324Y025036D01*
X020380Y025035D01*
X020436Y025030D01*
X020491Y025021D01*
X020545Y025008D01*
X020901Y023670D02*
X020861Y023633D01*
X020820Y023599D01*
X020776Y023568D01*
X020730Y023540D01*
X020682Y023515D01*
X020633Y023493D01*
X020582Y023475D01*
X020530Y023460D01*
X020477Y023449D01*
X020424Y023441D01*
X020370Y023437D01*
X020316Y023436D01*
X020263Y023439D01*
X020901Y023670D02*
X020938Y023710D01*
X020972Y023752D01*
X021003Y023796D01*
X021031Y023842D01*
X021056Y023890D01*
X021078Y023939D01*
X021096Y023990D01*
X021111Y024042D01*
X021122Y024095D01*
X021130Y024148D01*
X021134Y024202D01*
X021135Y024256D01*
X021132Y024310D01*
X021125Y024364D01*
X021114Y024417D01*
X021100Y024469D01*
X018875Y028071D02*
X018821Y028084D01*
X018766Y028093D01*
X018710Y028098D01*
X018654Y028099D01*
X018598Y028096D01*
X018542Y028089D01*
X018487Y028079D01*
X018433Y028065D01*
X018380Y028046D01*
X018328Y028025D01*
X018278Y027999D01*
X018230Y027970D01*
X018184Y027938D01*
X018140Y027903D01*
X018099Y027865D01*
X019430Y027531D02*
X019444Y027479D01*
X019455Y027426D01*
X019462Y027372D01*
X019465Y027318D01*
X019464Y027264D01*
X019460Y027210D01*
X019452Y027157D01*
X019441Y027104D01*
X019426Y027052D01*
X019408Y027001D01*
X019386Y026952D01*
X019361Y026904D01*
X019333Y026858D01*
X019302Y026814D01*
X019268Y026772D01*
X019231Y026732D01*
X017868Y027232D02*
X017865Y027285D01*
X017866Y027338D01*
X017870Y027392D01*
X017879Y027444D01*
X017890Y027497D01*
X017905Y027548D01*
X017923Y027598D01*
X017945Y027647D01*
X017970Y027694D01*
X017998Y027740D01*
X018029Y027783D01*
X018063Y027825D01*
X018099Y027864D01*
X018593Y026502D02*
X018646Y026499D01*
X018700Y026500D01*
X018754Y026504D01*
X018807Y026512D01*
X018860Y026523D01*
X018912Y026538D01*
X018963Y026556D01*
X019012Y026578D01*
X019060Y026603D01*
X019106Y026631D01*
X019150Y026662D01*
X019191Y026696D01*
X019231Y026733D01*
X015952Y029323D02*
X015898Y029336D01*
X015843Y029345D01*
X015787Y029350D01*
X015731Y029351D01*
X015675Y029348D01*
X015619Y029341D01*
X015564Y029331D01*
X015510Y029317D01*
X015457Y029298D01*
X015405Y029277D01*
X015355Y029251D01*
X015307Y029222D01*
X015261Y029190D01*
X015217Y029155D01*
X015176Y029117D01*
X016506Y028784D02*
X016520Y028732D01*
X016531Y028679D01*
X016538Y028625D01*
X016541Y028571D01*
X016540Y028517D01*
X016536Y028463D01*
X016528Y028410D01*
X016517Y028357D01*
X016502Y028305D01*
X016484Y028254D01*
X016462Y028205D01*
X016437Y028157D01*
X016409Y028111D01*
X016378Y028067D01*
X016344Y028025D01*
X016307Y027985D01*
X014945Y028485D02*
X014942Y028538D01*
X014943Y028591D01*
X014947Y028645D01*
X014956Y028697D01*
X014967Y028750D01*
X014982Y028801D01*
X015000Y028851D01*
X015022Y028900D01*
X015047Y028947D01*
X015075Y028993D01*
X015106Y029036D01*
X015140Y029078D01*
X015176Y029117D01*
X015670Y027754D02*
X015723Y027751D01*
X015777Y027752D01*
X015831Y027756D01*
X015884Y027764D01*
X015937Y027775D01*
X015989Y027790D01*
X016040Y027808D01*
X016089Y027830D01*
X016137Y027855D01*
X016183Y027883D01*
X016227Y027914D01*
X016268Y027948D01*
X016308Y027985D01*
X013028Y028627D02*
X012974Y028640D01*
X012919Y028649D01*
X012863Y028654D01*
X012807Y028655D01*
X012751Y028652D01*
X012695Y028645D01*
X012640Y028635D01*
X012586Y028621D01*
X012533Y028602D01*
X012481Y028581D01*
X012431Y028555D01*
X012383Y028526D01*
X012337Y028494D01*
X012293Y028459D01*
X012252Y028421D01*
X012216Y028382D01*
X012182Y028340D01*
X012151Y028297D01*
X012123Y028251D01*
X012098Y028204D01*
X012076Y028155D01*
X012058Y028105D01*
X012043Y028054D01*
X012032Y028001D01*
X012023Y027949D01*
X012019Y027895D01*
X012018Y027842D01*
X012021Y027789D01*
X013384Y027289D02*
X013421Y027329D01*
X013455Y027371D01*
X013486Y027415D01*
X013514Y027461D01*
X013539Y027509D01*
X013561Y027558D01*
X013579Y027609D01*
X013594Y027661D01*
X013605Y027714D01*
X013613Y027767D01*
X013617Y027821D01*
X013618Y027875D01*
X013615Y027929D01*
X013608Y027983D01*
X013597Y028036D01*
X013583Y028088D01*
X013384Y027289D02*
X013344Y027252D01*
X013303Y027218D01*
X013259Y027187D01*
X013213Y027159D01*
X013165Y027134D01*
X013116Y027112D01*
X013065Y027094D01*
X013013Y027079D01*
X012960Y027068D01*
X012907Y027060D01*
X012853Y027056D01*
X012799Y027055D01*
X012746Y027058D01*
X011080Y026400D02*
X011026Y026413D01*
X010971Y026422D01*
X010915Y026427D01*
X010859Y026428D01*
X010803Y026425D01*
X010747Y026418D01*
X010692Y026408D01*
X010638Y026394D01*
X010585Y026375D01*
X010533Y026354D01*
X010483Y026328D01*
X010435Y026299D01*
X010389Y026267D01*
X010345Y026232D01*
X010304Y026194D01*
X011635Y025861D02*
X011649Y025809D01*
X011660Y025756D01*
X011667Y025702D01*
X011670Y025648D01*
X011669Y025594D01*
X011665Y025540D01*
X011657Y025487D01*
X011646Y025434D01*
X011631Y025382D01*
X011613Y025331D01*
X011591Y025282D01*
X011566Y025234D01*
X011538Y025188D01*
X011507Y025144D01*
X011473Y025102D01*
X011436Y025062D01*
X010073Y025562D02*
X010070Y025615D01*
X010071Y025668D01*
X010075Y025722D01*
X010084Y025774D01*
X010095Y025827D01*
X010110Y025878D01*
X010128Y025928D01*
X010150Y025977D01*
X010175Y026024D01*
X010203Y026070D01*
X010234Y026113D01*
X010268Y026155D01*
X010304Y026194D01*
X010798Y024831D02*
X010851Y024828D01*
X010905Y024829D01*
X010959Y024833D01*
X011012Y024841D01*
X011065Y024852D01*
X011117Y024867D01*
X011168Y024885D01*
X011217Y024907D01*
X011265Y024932D01*
X011311Y024960D01*
X011355Y024991D01*
X011396Y025025D01*
X011436Y025062D01*
X010941Y023477D02*
X010887Y023490D01*
X010832Y023499D01*
X010776Y023504D01*
X010720Y023505D01*
X010664Y023502D01*
X010608Y023495D01*
X010553Y023485D01*
X010499Y023471D01*
X010446Y023452D01*
X010394Y023431D01*
X010344Y023405D01*
X010296Y023376D01*
X010250Y023344D01*
X010206Y023309D01*
X010165Y023271D01*
X011496Y022938D02*
X011510Y022886D01*
X011521Y022833D01*
X011528Y022779D01*
X011531Y022725D01*
X011530Y022671D01*
X011526Y022617D01*
X011518Y022564D01*
X011507Y022511D01*
X011492Y022459D01*
X011474Y022408D01*
X011452Y022359D01*
X011427Y022311D01*
X011399Y022265D01*
X011368Y022221D01*
X011334Y022179D01*
X011297Y022139D01*
X009934Y022639D02*
X009931Y022692D01*
X009932Y022745D01*
X009936Y022799D01*
X009945Y022851D01*
X009956Y022904D01*
X009971Y022955D01*
X009989Y023005D01*
X010011Y023054D01*
X010036Y023101D01*
X010064Y023147D01*
X010095Y023190D01*
X010129Y023232D01*
X010165Y023271D01*
X010659Y021908D02*
X010712Y021905D01*
X010766Y021906D01*
X010820Y021910D01*
X010873Y021918D01*
X010926Y021929D01*
X010978Y021944D01*
X011029Y021962D01*
X011078Y021984D01*
X011126Y022009D01*
X011172Y022037D01*
X011216Y022068D01*
X011257Y022102D01*
X011297Y022139D01*
X010941Y020415D02*
X010887Y020428D01*
X010832Y020437D01*
X010776Y020442D01*
X010720Y020443D01*
X010664Y020440D01*
X010608Y020433D01*
X010553Y020423D01*
X010499Y020409D01*
X010446Y020390D01*
X010394Y020369D01*
X010344Y020343D01*
X010296Y020314D01*
X010250Y020282D01*
X010206Y020247D01*
X010165Y020209D01*
X010129Y020170D01*
X010095Y020128D01*
X010064Y020085D01*
X010036Y020039D01*
X010011Y019992D01*
X009989Y019943D01*
X009971Y019893D01*
X009956Y019842D01*
X009945Y019789D01*
X009936Y019737D01*
X009932Y019683D01*
X009931Y019630D01*
X009934Y019577D01*
X011297Y019077D02*
X011334Y019117D01*
X011368Y019159D01*
X011399Y019203D01*
X011427Y019249D01*
X011452Y019297D01*
X011474Y019346D01*
X011492Y019397D01*
X011507Y019449D01*
X011518Y019502D01*
X011526Y019555D01*
X011530Y019609D01*
X011531Y019663D01*
X011528Y019717D01*
X011521Y019771D01*
X011510Y019824D01*
X011496Y019876D01*
X011297Y019077D02*
X011257Y019040D01*
X011216Y019006D01*
X011172Y018975D01*
X011126Y018947D01*
X011078Y018922D01*
X011029Y018900D01*
X010978Y018882D01*
X010926Y018867D01*
X010873Y018856D01*
X010820Y018848D01*
X010766Y018844D01*
X010712Y018843D01*
X010659Y018846D01*
X010941Y017631D02*
X010887Y017644D01*
X010832Y017653D01*
X010776Y017658D01*
X010720Y017659D01*
X010664Y017656D01*
X010608Y017649D01*
X010553Y017639D01*
X010499Y017625D01*
X010446Y017606D01*
X010394Y017585D01*
X010344Y017559D01*
X010296Y017530D01*
X010250Y017498D01*
X010206Y017463D01*
X010165Y017425D01*
X011496Y017092D02*
X011510Y017040D01*
X011521Y016987D01*
X011528Y016933D01*
X011531Y016879D01*
X011530Y016825D01*
X011526Y016771D01*
X011518Y016718D01*
X011507Y016665D01*
X011492Y016613D01*
X011474Y016562D01*
X011452Y016513D01*
X011427Y016465D01*
X011399Y016419D01*
X011368Y016375D01*
X011334Y016333D01*
X011297Y016293D01*
X009934Y016793D02*
X009931Y016846D01*
X009932Y016899D01*
X009936Y016953D01*
X009945Y017005D01*
X009956Y017058D01*
X009971Y017109D01*
X009989Y017159D01*
X010011Y017208D01*
X010036Y017255D01*
X010064Y017301D01*
X010095Y017344D01*
X010129Y017386D01*
X010165Y017425D01*
X010659Y016062D02*
X010712Y016059D01*
X010766Y016060D01*
X010820Y016064D01*
X010873Y016072D01*
X010926Y016083D01*
X010978Y016098D01*
X011029Y016116D01*
X011078Y016138D01*
X011126Y016163D01*
X011172Y016191D01*
X011216Y016222D01*
X011257Y016256D01*
X011297Y016293D01*
X010941Y014847D02*
X010887Y014860D01*
X010832Y014869D01*
X010776Y014874D01*
X010720Y014875D01*
X010664Y014872D01*
X010608Y014865D01*
X010553Y014855D01*
X010499Y014841D01*
X010446Y014822D01*
X010394Y014801D01*
X010344Y014775D01*
X010296Y014746D01*
X010250Y014714D01*
X010206Y014679D01*
X010165Y014641D01*
X010129Y014602D01*
X010095Y014560D01*
X010064Y014517D01*
X010036Y014471D01*
X010011Y014424D01*
X009989Y014375D01*
X009971Y014325D01*
X009956Y014274D01*
X009945Y014221D01*
X009936Y014169D01*
X009932Y014115D01*
X009931Y014062D01*
X009934Y014009D01*
X011297Y013509D02*
X011334Y013549D01*
X011368Y013591D01*
X011399Y013635D01*
X011427Y013681D01*
X011452Y013729D01*
X011474Y013778D01*
X011492Y013829D01*
X011507Y013881D01*
X011518Y013934D01*
X011526Y013987D01*
X011530Y014041D01*
X011531Y014095D01*
X011528Y014149D01*
X011521Y014203D01*
X011510Y014256D01*
X011496Y014308D01*
X011297Y013509D02*
X011257Y013472D01*
X011216Y013438D01*
X011172Y013407D01*
X011126Y013379D01*
X011078Y013354D01*
X011029Y013332D01*
X010978Y013314D01*
X010926Y013299D01*
X010873Y013288D01*
X010820Y013280D01*
X010766Y013276D01*
X010712Y013275D01*
X010659Y013278D01*
X010941Y011785D02*
X010887Y011798D01*
X010832Y011807D01*
X010776Y011812D01*
X010720Y011813D01*
X010664Y011810D01*
X010608Y011803D01*
X010553Y011793D01*
X010499Y011779D01*
X010446Y011760D01*
X010394Y011739D01*
X010344Y011713D01*
X010296Y011684D01*
X010250Y011652D01*
X010206Y011617D01*
X010165Y011579D01*
X011496Y011246D02*
X011510Y011194D01*
X011521Y011141D01*
X011528Y011087D01*
X011531Y011033D01*
X011530Y010979D01*
X011526Y010925D01*
X011518Y010872D01*
X011507Y010819D01*
X011492Y010767D01*
X011474Y010716D01*
X011452Y010667D01*
X011427Y010619D01*
X011399Y010573D01*
X011368Y010529D01*
X011334Y010487D01*
X011297Y010447D01*
X009934Y010947D02*
X009931Y011000D01*
X009932Y011053D01*
X009936Y011107D01*
X009945Y011159D01*
X009956Y011212D01*
X009971Y011263D01*
X009989Y011313D01*
X010011Y011362D01*
X010036Y011409D01*
X010064Y011455D01*
X010095Y011498D01*
X010129Y011540D01*
X010165Y011579D01*
X010659Y010216D02*
X010712Y010213D01*
X010766Y010214D01*
X010820Y010218D01*
X010873Y010226D01*
X010926Y010237D01*
X010978Y010252D01*
X011029Y010270D01*
X011078Y010292D01*
X011126Y010317D01*
X011172Y010345D01*
X011216Y010376D01*
X011257Y010410D01*
X011297Y010447D01*
X014359Y010447D02*
X014396Y010487D01*
X014430Y010529D01*
X014461Y010573D01*
X014489Y010619D01*
X014514Y010667D01*
X014536Y010716D01*
X014554Y010767D01*
X014569Y010819D01*
X014580Y010872D01*
X014588Y010925D01*
X014592Y010979D01*
X014593Y011033D01*
X014590Y011087D01*
X014583Y011141D01*
X014572Y011194D01*
X014558Y011246D01*
X014003Y011785D02*
X013949Y011798D01*
X013894Y011807D01*
X013838Y011812D01*
X013782Y011813D01*
X013726Y011810D01*
X013670Y011803D01*
X013615Y011793D01*
X013561Y011779D01*
X013508Y011760D01*
X013456Y011739D01*
X013406Y011713D01*
X013358Y011684D01*
X013312Y011652D01*
X013268Y011617D01*
X013227Y011579D01*
X013721Y010216D02*
X013774Y010213D01*
X013828Y010214D01*
X013882Y010218D01*
X013935Y010226D01*
X013988Y010237D01*
X014040Y010252D01*
X014091Y010270D01*
X014140Y010292D01*
X014188Y010317D01*
X014234Y010345D01*
X014278Y010376D01*
X014319Y010410D01*
X014359Y010447D01*
X012996Y010947D02*
X012993Y011000D01*
X012994Y011053D01*
X012998Y011107D01*
X013007Y011159D01*
X013018Y011212D01*
X013033Y011263D01*
X013051Y011313D01*
X013073Y011362D01*
X013098Y011409D01*
X013126Y011455D01*
X013157Y011498D01*
X013191Y011540D01*
X013227Y011579D01*
X017143Y010447D02*
X017180Y010487D01*
X017214Y010529D01*
X017245Y010573D01*
X017273Y010619D01*
X017298Y010667D01*
X017320Y010716D01*
X017338Y010767D01*
X017353Y010819D01*
X017364Y010872D01*
X017372Y010925D01*
X017376Y010979D01*
X017377Y011033D01*
X017374Y011087D01*
X017367Y011141D01*
X017356Y011194D01*
X017342Y011246D01*
X016787Y011785D02*
X016733Y011798D01*
X016678Y011807D01*
X016622Y011812D01*
X016566Y011813D01*
X016510Y011810D01*
X016454Y011803D01*
X016399Y011793D01*
X016345Y011779D01*
X016292Y011760D01*
X016240Y011739D01*
X016190Y011713D01*
X016142Y011684D01*
X016096Y011652D01*
X016052Y011617D01*
X016011Y011579D01*
X016505Y010216D02*
X016558Y010213D01*
X016612Y010214D01*
X016666Y010218D01*
X016719Y010226D01*
X016772Y010237D01*
X016824Y010252D01*
X016875Y010270D01*
X016924Y010292D01*
X016972Y010317D01*
X017018Y010345D01*
X017062Y010376D01*
X017103Y010410D01*
X017143Y010447D01*
X015780Y010947D02*
X015777Y011000D01*
X015778Y011053D01*
X015782Y011107D01*
X015791Y011159D01*
X015802Y011212D01*
X015817Y011263D01*
X015835Y011313D01*
X015857Y011362D01*
X015882Y011409D01*
X015910Y011455D01*
X015941Y011498D01*
X015975Y011540D01*
X016011Y011579D01*
X019927Y010447D02*
X019964Y010487D01*
X019998Y010529D01*
X020029Y010573D01*
X020057Y010619D01*
X020082Y010667D01*
X020104Y010716D01*
X020122Y010767D01*
X020137Y010819D01*
X020148Y010872D01*
X020156Y010925D01*
X020160Y010979D01*
X020161Y011033D01*
X020158Y011087D01*
X020151Y011141D01*
X020140Y011194D01*
X020126Y011246D01*
X019571Y011785D02*
X019517Y011798D01*
X019462Y011807D01*
X019406Y011812D01*
X019350Y011813D01*
X019294Y011810D01*
X019238Y011803D01*
X019183Y011793D01*
X019129Y011779D01*
X019076Y011760D01*
X019024Y011739D01*
X018974Y011713D01*
X018926Y011684D01*
X018880Y011652D01*
X018836Y011617D01*
X018795Y011579D01*
X019289Y010216D02*
X019342Y010213D01*
X019396Y010214D01*
X019450Y010218D01*
X019503Y010226D01*
X019556Y010237D01*
X019608Y010252D01*
X019659Y010270D01*
X019708Y010292D01*
X019756Y010317D01*
X019802Y010345D01*
X019846Y010376D01*
X019887Y010410D01*
X019927Y010447D01*
X018564Y010947D02*
X018561Y011000D01*
X018562Y011053D01*
X018566Y011107D01*
X018575Y011159D01*
X018586Y011212D01*
X018601Y011263D01*
X018619Y011313D01*
X018641Y011362D01*
X018666Y011409D01*
X018694Y011455D01*
X018725Y011498D01*
X018759Y011540D01*
X018795Y011579D01*
X022989Y010447D02*
X023026Y010487D01*
X023060Y010529D01*
X023091Y010573D01*
X023119Y010619D01*
X023144Y010667D01*
X023166Y010716D01*
X023184Y010767D01*
X023199Y010819D01*
X023210Y010872D01*
X023218Y010925D01*
X023222Y010979D01*
X023223Y011033D01*
X023220Y011087D01*
X023213Y011141D01*
X023202Y011194D01*
X023188Y011246D01*
X022633Y011785D02*
X022579Y011798D01*
X022524Y011807D01*
X022468Y011812D01*
X022412Y011813D01*
X022356Y011810D01*
X022300Y011803D01*
X022245Y011793D01*
X022191Y011779D01*
X022138Y011760D01*
X022086Y011739D01*
X022036Y011713D01*
X021988Y011684D01*
X021942Y011652D01*
X021898Y011617D01*
X021857Y011579D01*
X022351Y010216D02*
X022404Y010213D01*
X022458Y010214D01*
X022512Y010218D01*
X022565Y010226D01*
X022618Y010237D01*
X022670Y010252D01*
X022721Y010270D01*
X022770Y010292D01*
X022818Y010317D01*
X022864Y010345D01*
X022908Y010376D01*
X022949Y010410D01*
X022989Y010447D01*
X021626Y010947D02*
X021623Y011000D01*
X021624Y011053D01*
X021628Y011107D01*
X021637Y011159D01*
X021648Y011212D01*
X021663Y011263D01*
X021681Y011313D01*
X021703Y011362D01*
X021728Y011409D01*
X021756Y011455D01*
X021787Y011498D01*
X021821Y011540D01*
X021857Y011579D01*
X025912Y010586D02*
X025949Y010626D01*
X025983Y010668D01*
X026014Y010712D01*
X026042Y010758D01*
X026067Y010806D01*
X026089Y010855D01*
X026107Y010906D01*
X026122Y010958D01*
X026133Y011011D01*
X026141Y011064D01*
X026145Y011118D01*
X026146Y011172D01*
X026143Y011226D01*
X026136Y011280D01*
X026125Y011333D01*
X026111Y011385D01*
X025556Y011924D02*
X025502Y011937D01*
X025447Y011946D01*
X025391Y011951D01*
X025335Y011952D01*
X025279Y011949D01*
X025223Y011942D01*
X025168Y011932D01*
X025114Y011918D01*
X025061Y011899D01*
X025009Y011878D01*
X024959Y011852D01*
X024911Y011823D01*
X024865Y011791D01*
X024821Y011756D01*
X024780Y011718D01*
X025274Y010355D02*
X025327Y010352D01*
X025381Y010353D01*
X025435Y010357D01*
X025488Y010365D01*
X025541Y010376D01*
X025593Y010391D01*
X025644Y010409D01*
X025693Y010431D01*
X025741Y010456D01*
X025787Y010484D01*
X025831Y010515D01*
X025872Y010549D01*
X025912Y010586D01*
X024549Y011086D02*
X024546Y011139D01*
X024547Y011192D01*
X024551Y011246D01*
X024560Y011298D01*
X024571Y011351D01*
X024586Y011402D01*
X024604Y011452D01*
X024626Y011501D01*
X024651Y011548D01*
X024679Y011594D01*
X024710Y011637D01*
X024744Y011679D01*
X024780Y011718D01*
X028139Y012535D02*
X028176Y012575D01*
X028210Y012617D01*
X028241Y012661D01*
X028269Y012707D01*
X028294Y012755D01*
X028316Y012804D01*
X028334Y012855D01*
X028349Y012907D01*
X028360Y012960D01*
X028368Y013013D01*
X028372Y013067D01*
X028373Y013121D01*
X028370Y013175D01*
X028363Y013229D01*
X028352Y013282D01*
X028338Y013334D01*
X027783Y013873D02*
X027729Y013886D01*
X027674Y013895D01*
X027618Y013900D01*
X027562Y013901D01*
X027506Y013898D01*
X027450Y013891D01*
X027395Y013881D01*
X027341Y013867D01*
X027288Y013848D01*
X027236Y013827D01*
X027186Y013801D01*
X027138Y013772D01*
X027092Y013740D01*
X027048Y013705D01*
X027007Y013667D01*
X027501Y012304D02*
X027554Y012301D01*
X027608Y012302D01*
X027662Y012306D01*
X027715Y012314D01*
X027768Y012325D01*
X027820Y012340D01*
X027871Y012358D01*
X027920Y012380D01*
X027968Y012405D01*
X028014Y012433D01*
X028058Y012464D01*
X028099Y012498D01*
X028139Y012535D01*
X026776Y013035D02*
X026773Y013088D01*
X026774Y013141D01*
X026778Y013195D01*
X026787Y013247D01*
X026798Y013300D01*
X026813Y013351D01*
X026831Y013401D01*
X026853Y013450D01*
X026878Y013497D01*
X026906Y013543D01*
X026937Y013586D01*
X026971Y013628D01*
X027007Y013667D01*
X027472Y015958D02*
X027469Y016011D01*
X027470Y016064D01*
X027474Y016118D01*
X027483Y016170D01*
X027494Y016223D01*
X027509Y016274D01*
X027527Y016324D01*
X027549Y016373D01*
X027574Y016420D01*
X027602Y016466D01*
X027633Y016509D01*
X027667Y016551D01*
X027703Y016590D01*
X027744Y016628D01*
X027788Y016663D01*
X027834Y016695D01*
X027882Y016724D01*
X027932Y016750D01*
X027984Y016771D01*
X028037Y016790D01*
X028091Y016804D01*
X028146Y016814D01*
X028202Y016821D01*
X028258Y016824D01*
X028314Y016823D01*
X028370Y016818D01*
X028425Y016809D01*
X028479Y016796D01*
X028835Y015458D02*
X028795Y015421D01*
X028754Y015387D01*
X028710Y015356D01*
X028664Y015328D01*
X028616Y015303D01*
X028567Y015281D01*
X028516Y015263D01*
X028464Y015248D01*
X028411Y015237D01*
X028358Y015229D01*
X028304Y015225D01*
X028250Y015224D01*
X028197Y015227D01*
X028835Y015458D02*
X028872Y015498D01*
X028906Y015540D01*
X028937Y015584D01*
X028965Y015630D01*
X028990Y015678D01*
X029012Y015727D01*
X029030Y015778D01*
X029045Y015830D01*
X029056Y015883D01*
X029064Y015936D01*
X029068Y015990D01*
X029069Y016044D01*
X029066Y016098D01*
X029059Y016152D01*
X029048Y016205D01*
X029034Y016257D01*
X026219Y018881D02*
X026216Y018934D01*
X026217Y018987D01*
X026221Y019041D01*
X026230Y019093D01*
X026241Y019146D01*
X026256Y019197D01*
X026274Y019247D01*
X026296Y019296D01*
X026321Y019343D01*
X026349Y019389D01*
X026380Y019432D01*
X026414Y019474D01*
X026450Y019513D01*
X026491Y019551D01*
X026535Y019586D01*
X026581Y019618D01*
X026629Y019647D01*
X026679Y019673D01*
X026731Y019694D01*
X026784Y019713D01*
X026838Y019727D01*
X026893Y019737D01*
X026949Y019744D01*
X027005Y019747D01*
X027061Y019746D01*
X027117Y019741D01*
X027172Y019732D01*
X027226Y019719D01*
X027582Y018381D02*
X027542Y018344D01*
X027501Y018310D01*
X027457Y018279D01*
X027411Y018251D01*
X027363Y018226D01*
X027314Y018204D01*
X027263Y018186D01*
X027211Y018171D01*
X027158Y018160D01*
X027105Y018152D01*
X027051Y018148D01*
X026997Y018147D01*
X026944Y018150D01*
X027582Y018381D02*
X027619Y018421D01*
X027653Y018463D01*
X027684Y018507D01*
X027712Y018553D01*
X027737Y018601D01*
X027759Y018650D01*
X027777Y018701D01*
X027792Y018753D01*
X027803Y018806D01*
X027811Y018859D01*
X027815Y018913D01*
X027816Y018967D01*
X027813Y019021D01*
X027806Y019075D01*
X027795Y019128D01*
X027781Y019180D01*
D13*
X026663Y017918D02*
X026465Y017918D01*
X026387Y018095D02*
X026189Y017897D01*
X026090Y017897D01*
X025941Y018045D01*
X026239Y018343D01*
X026387Y018194D01*
X026387Y018095D01*
X026663Y017918D02*
X026366Y017621D01*
X026267Y017720D02*
X026465Y017522D01*
X026642Y017444D02*
X026642Y017345D01*
X026741Y017246D01*
X026840Y017246D01*
X027038Y017444D01*
X027038Y017543D01*
X026939Y017642D01*
X026840Y017642D01*
X026790Y017592D01*
X026790Y017493D01*
X026939Y017345D01*
X026840Y016071D02*
X026543Y015773D01*
X026741Y015575D01*
X026869Y015448D02*
X027067Y015250D01*
X027194Y015122D02*
X027343Y014974D01*
X027442Y014974D01*
X027640Y015172D01*
X027640Y015271D01*
X027491Y015420D01*
X027194Y015122D01*
X027116Y015497D02*
X027017Y015596D01*
X026869Y015448D02*
X027166Y015745D01*
X027364Y015547D01*
X027718Y014995D02*
X027916Y014995D01*
X027619Y014698D01*
X027520Y014797D02*
X027718Y014599D01*
X027895Y014521D02*
X027944Y014570D01*
X028043Y014570D01*
X028142Y014471D01*
X028142Y014372D01*
X028093Y014323D01*
X027994Y014323D01*
X027895Y014422D01*
X027895Y014521D01*
X028043Y014570D02*
X028043Y014669D01*
X028093Y014719D01*
X028192Y014719D01*
X028291Y014620D01*
X028291Y014521D01*
X028241Y014471D01*
X028142Y014471D01*
X026529Y012763D02*
X026331Y012961D01*
X026033Y012664D01*
X026232Y012466D01*
X026359Y012338D02*
X026507Y012190D01*
X026607Y012190D01*
X026805Y012388D01*
X026805Y012487D01*
X026656Y012636D01*
X026359Y012338D01*
X026281Y012714D02*
X026182Y012813D01*
X025906Y012791D02*
X025708Y012990D01*
X026005Y013287D01*
X026883Y012211D02*
X027081Y012211D01*
X026783Y011914D01*
X026684Y012013D02*
X026883Y011815D01*
X027010Y011687D02*
X027059Y011737D01*
X027456Y011737D01*
X027505Y011786D01*
X027307Y011985D01*
X024582Y010812D02*
X024434Y010862D01*
X024235Y010862D01*
X024384Y010713D01*
X024384Y010614D01*
X024335Y010564D01*
X024235Y010564D01*
X024136Y010663D01*
X024136Y010762D01*
X024235Y010862D01*
X023959Y010840D02*
X023761Y011039D01*
X023860Y010939D02*
X024158Y011237D01*
X023959Y011237D01*
X023882Y011414D02*
X023882Y011513D01*
X023733Y011661D01*
X023436Y011364D01*
X023584Y011215D01*
X023684Y011215D01*
X023882Y011414D01*
X023308Y011491D02*
X023110Y011690D01*
X023408Y011987D01*
X023606Y011789D01*
X023358Y011739D02*
X023259Y011838D01*
X022983Y011817D02*
X022785Y012015D01*
X023082Y012312D01*
X021659Y012065D02*
X021461Y012263D01*
X021312Y012114D01*
X021461Y012065D01*
X021511Y012015D01*
X021511Y011916D01*
X021411Y011817D01*
X021312Y011817D01*
X021213Y011916D01*
X021213Y012015D01*
X021036Y012093D02*
X020838Y012291D01*
X020937Y012192D02*
X021235Y012489D01*
X021036Y012489D01*
X020959Y012666D02*
X020959Y012765D01*
X020810Y012914D01*
X020513Y012617D01*
X020661Y012468D01*
X020760Y012468D01*
X020959Y012666D01*
X020683Y013041D02*
X020484Y013240D01*
X020187Y012942D01*
X020385Y012744D01*
X020435Y012992D02*
X020336Y013091D01*
X020060Y013070D02*
X019862Y013268D01*
X020159Y013565D01*
X018547Y012114D02*
X018250Y012114D01*
X018448Y011916D01*
X018250Y011817D02*
X018547Y012114D01*
X018172Y012489D02*
X017974Y012489D01*
X017896Y012666D02*
X017896Y012765D01*
X017748Y012914D01*
X017450Y012617D01*
X017599Y012468D01*
X017698Y012468D01*
X017896Y012666D01*
X018172Y012489D02*
X017875Y012192D01*
X017776Y012291D02*
X017974Y012093D01*
X017323Y012744D02*
X017125Y012942D01*
X017422Y013240D01*
X017620Y013041D01*
X017373Y012992D02*
X017274Y013091D01*
X016998Y013070D02*
X016799Y013268D01*
X017097Y013565D01*
X015664Y012213D02*
X015763Y012114D01*
X015763Y012015D01*
X015714Y011966D01*
X015615Y011966D01*
X015615Y011867D01*
X015565Y011817D01*
X015466Y011817D01*
X015367Y011916D01*
X015367Y012015D01*
X015190Y012093D02*
X014992Y012291D01*
X015091Y012192D02*
X015388Y012489D01*
X015190Y012489D01*
X015112Y012666D02*
X015112Y012765D01*
X014964Y012914D01*
X014667Y012617D01*
X014815Y012468D01*
X014914Y012468D01*
X015112Y012666D01*
X014836Y013041D02*
X014638Y013240D01*
X014341Y012942D01*
X014539Y012744D01*
X014589Y012992D02*
X014490Y013091D01*
X014214Y013070D02*
X014016Y013268D01*
X014313Y013565D01*
X014087Y012695D02*
X013790Y012398D01*
X013988Y012200D01*
X014115Y012072D02*
X014313Y011874D01*
X014441Y011747D02*
X014589Y011598D01*
X014689Y011598D01*
X014887Y011796D01*
X014887Y011896D01*
X014738Y012044D01*
X014441Y011747D01*
X014766Y011421D02*
X014964Y011223D01*
X014865Y011322D02*
X015163Y011620D01*
X014964Y011620D01*
X015340Y011344D02*
X015439Y011344D01*
X015538Y011244D01*
X015538Y011145D01*
X015488Y011096D01*
X015092Y011096D01*
X015290Y010898D01*
X015615Y011966D02*
X015565Y012015D01*
X015565Y012213D02*
X015664Y012213D01*
X014611Y012172D02*
X014413Y012370D01*
X014115Y012072D01*
X014264Y012221D02*
X014363Y012122D01*
X012426Y011294D02*
X012129Y010997D01*
X012030Y011096D02*
X012228Y010898D01*
X012228Y011294D02*
X012426Y011294D01*
X012100Y011620D02*
X011803Y011322D01*
X011704Y011421D02*
X011902Y011223D01*
X011902Y011620D02*
X012100Y011620D01*
X011824Y011796D02*
X011824Y011896D01*
X011676Y012044D01*
X011379Y011747D01*
X011527Y011598D01*
X011626Y011598D01*
X011824Y011796D01*
X011548Y012172D02*
X011350Y012370D01*
X011053Y012072D01*
X011251Y011874D01*
X011301Y012122D02*
X011202Y012221D01*
X010926Y012200D02*
X010728Y012398D01*
X011025Y012695D01*
X012178Y014009D02*
X012079Y014109D01*
X012079Y014208D01*
X012475Y014208D01*
X012277Y014009D01*
X012178Y014009D01*
X012079Y014208D02*
X012277Y014406D01*
X012376Y014406D01*
X012475Y014307D01*
X012475Y014208D01*
X012549Y014753D02*
X012648Y014753D01*
X012846Y014951D01*
X012846Y015050D01*
X012747Y015149D01*
X012648Y015149D01*
X012598Y015099D01*
X012598Y015000D01*
X012747Y014852D01*
X012549Y014753D02*
X012450Y014852D01*
X012450Y014951D01*
X012322Y015078D02*
X012520Y015276D01*
X012520Y015375D01*
X012372Y015524D01*
X012075Y015227D01*
X012223Y015078D01*
X012322Y015078D01*
X011947Y015354D02*
X011749Y015552D01*
X012046Y015850D01*
X012244Y015651D01*
X011997Y015602D02*
X011898Y015701D01*
X011622Y015680D02*
X011424Y015878D01*
X011721Y016175D01*
X011025Y015758D02*
X010728Y015460D01*
X010926Y015262D01*
X011053Y015135D02*
X011251Y014937D01*
X011379Y014809D02*
X011527Y014661D01*
X011626Y014661D01*
X011824Y014859D01*
X011824Y014958D01*
X011676Y015106D01*
X011379Y014809D01*
X011301Y015184D02*
X011202Y015283D01*
X011350Y015432D02*
X011053Y015135D01*
X011350Y015432D02*
X011548Y015234D01*
X011902Y014682D02*
X012100Y014682D01*
X011803Y014385D01*
X011704Y014484D02*
X011902Y014285D01*
X012549Y017536D02*
X012450Y017636D01*
X012450Y017735D01*
X012499Y017784D01*
X012598Y017784D01*
X012697Y017685D01*
X012697Y017586D01*
X012648Y017536D01*
X012549Y017536D01*
X012697Y017685D02*
X012796Y017685D01*
X012846Y017735D01*
X012846Y017834D01*
X012747Y017933D01*
X012648Y017933D01*
X012598Y017883D01*
X012598Y017784D01*
X012322Y017862D02*
X012520Y018060D01*
X012520Y018159D01*
X012372Y018308D01*
X012075Y018011D01*
X012223Y017862D01*
X012322Y017862D01*
X011947Y018138D02*
X011749Y018336D01*
X012046Y018633D01*
X012244Y018435D01*
X011997Y018386D02*
X011898Y018485D01*
X011622Y018464D02*
X011424Y018662D01*
X011721Y018959D01*
X012400Y020747D02*
X012450Y020797D01*
X012846Y020797D01*
X012895Y020846D01*
X012697Y021045D01*
X012520Y021122D02*
X012520Y021222D01*
X012372Y021370D01*
X012075Y021073D01*
X012223Y020924D01*
X012322Y020924D01*
X012520Y021122D01*
X012723Y021533D02*
X012524Y021731D01*
X012624Y021632D02*
X012921Y021929D01*
X012723Y021929D01*
X012645Y022106D02*
X012645Y022205D01*
X012546Y022304D01*
X012447Y022304D01*
X012248Y022106D01*
X012248Y022007D01*
X012348Y021908D01*
X012447Y021908D01*
X012046Y021696D02*
X012244Y021498D01*
X011997Y021448D02*
X011898Y021547D01*
X012046Y021696D02*
X011749Y021399D01*
X011947Y021200D01*
X011622Y021526D02*
X011424Y021724D01*
X011721Y022021D01*
X011982Y022273D02*
X012081Y022174D01*
X012031Y022224D02*
X012329Y022521D01*
X012279Y022570D02*
X012378Y022471D01*
X011166Y023571D02*
X011166Y023670D01*
X011017Y023819D01*
X010918Y023720D01*
X010918Y023621D01*
X011017Y023522D01*
X011117Y023522D01*
X011166Y023571D01*
X011216Y023819D02*
X011017Y023819D01*
X011216Y023819D02*
X011364Y023770D01*
X010989Y024046D02*
X010989Y024145D01*
X010841Y024293D01*
X010543Y023996D01*
X010692Y023847D01*
X010791Y023847D01*
X010989Y024046D01*
X010713Y024421D02*
X010515Y024619D01*
X010218Y024322D01*
X010416Y024123D01*
X010466Y024371D02*
X010366Y024470D01*
X010091Y024449D02*
X009892Y024647D01*
X010190Y024944D01*
X011930Y026767D02*
X012078Y026619D01*
X012178Y026619D01*
X012376Y026817D01*
X012376Y026916D01*
X012227Y027065D01*
X011930Y026767D01*
X011802Y026895D02*
X011604Y027093D01*
X011902Y027390D01*
X012100Y027192D01*
X011852Y027143D02*
X011753Y027242D01*
X011477Y027220D02*
X011279Y027419D01*
X011576Y027716D01*
X012553Y026739D02*
X012404Y026591D01*
X012553Y026541D01*
X012602Y026491D01*
X012602Y026392D01*
X012503Y026293D01*
X012404Y026293D01*
X012305Y026392D01*
X012305Y026491D01*
X012553Y026739D02*
X012751Y026541D01*
X014296Y028020D02*
X014445Y027872D01*
X014544Y027872D01*
X014742Y028070D01*
X014742Y028169D01*
X014593Y028317D01*
X014296Y028020D01*
X014169Y028148D02*
X013971Y028346D01*
X014268Y028643D01*
X014466Y028445D01*
X014218Y028395D02*
X014119Y028494D01*
X013843Y028473D02*
X013645Y028671D01*
X013942Y028969D01*
X014770Y027843D02*
X014968Y027645D01*
X014770Y027546D02*
X015068Y027843D01*
X014770Y027843D01*
X017125Y026862D02*
X017323Y026664D01*
X017451Y026536D02*
X017649Y026338D01*
X017776Y026211D02*
X017925Y026062D01*
X018024Y026062D01*
X018222Y026260D01*
X018222Y026359D01*
X018073Y026508D01*
X017776Y026211D01*
X017698Y026586D02*
X017599Y026685D01*
X017748Y026833D02*
X017451Y026536D01*
X017748Y026833D02*
X017946Y026635D01*
X017422Y027159D02*
X017125Y026862D01*
X018151Y025935D02*
X018151Y025836D01*
X018250Y025737D01*
X018349Y025736D01*
X018399Y025786D01*
X018399Y025885D01*
X018349Y025935D01*
X018399Y025885D02*
X018498Y025885D01*
X018547Y025935D01*
X018547Y026034D01*
X018448Y026133D01*
X018349Y026133D01*
X017181Y025063D02*
X017082Y025063D01*
X016884Y024865D01*
X016884Y024766D01*
X016983Y024667D01*
X017082Y024667D01*
X017160Y024490D02*
X017358Y024292D01*
X017259Y024391D02*
X017556Y024688D01*
X017358Y024688D01*
X017280Y024865D02*
X017280Y024964D01*
X017181Y025063D01*
X018795Y023800D02*
X018993Y023601D01*
X019121Y023474D02*
X019319Y023276D01*
X019446Y023148D02*
X019595Y023000D01*
X019694Y023000D01*
X019892Y023198D01*
X019892Y023297D01*
X019744Y023446D01*
X019446Y023148D01*
X019369Y023523D02*
X019269Y023623D01*
X019418Y023771D02*
X019121Y023474D01*
X019418Y023771D02*
X019616Y023573D01*
X020020Y023071D02*
X020119Y023071D01*
X020218Y022971D01*
X020218Y022872D01*
X020168Y022823D01*
X019772Y022823D01*
X019970Y022625D01*
X018795Y023800D02*
X019093Y024097D01*
X022525Y020664D02*
X022228Y020367D01*
X022426Y020169D01*
X022554Y020041D02*
X022752Y019843D01*
X022879Y019716D02*
X023028Y019567D01*
X023127Y019567D01*
X023325Y019765D01*
X023325Y019864D01*
X023176Y020013D01*
X022879Y019716D01*
X022801Y020091D02*
X022702Y020190D01*
X022851Y020339D02*
X022554Y020041D01*
X022851Y020339D02*
X023049Y020140D01*
X023452Y019638D02*
X023551Y019638D01*
X023650Y019539D01*
X023650Y019440D01*
X023601Y019390D01*
X023205Y019390D01*
X023403Y019192D01*
X023580Y019114D02*
X023976Y019114D01*
X023778Y018916D01*
X023679Y018916D01*
X023580Y019015D01*
X023580Y019114D01*
X023778Y019312D01*
X023877Y019312D01*
X023976Y019213D01*
X023976Y019114D01*
X025290Y018697D02*
X025488Y018498D01*
X025616Y018371D02*
X025814Y018173D01*
X025863Y018420D02*
X025764Y018520D01*
X025913Y018668D02*
X025616Y018371D01*
X025913Y018668D02*
X026111Y018470D01*
X025587Y018994D02*
X025290Y018697D01*
X025688Y016475D02*
X025638Y016425D01*
X025638Y016326D01*
X025737Y016227D01*
X025737Y016128D01*
X025688Y016079D01*
X025589Y016079D01*
X025490Y016178D01*
X025490Y016277D01*
X025688Y016475D02*
X025787Y016475D01*
X025886Y016376D01*
X025886Y016277D01*
X025964Y016100D02*
X026162Y016100D01*
X025865Y015803D01*
X025766Y015902D02*
X025964Y015704D01*
X020029Y019541D02*
X019732Y019244D01*
X019633Y019343D02*
X019831Y019145D01*
X019831Y019541D02*
X020029Y019541D01*
X019753Y019718D02*
X019753Y019817D01*
X019604Y019966D01*
X019307Y019669D01*
X019456Y019520D01*
X019555Y019520D01*
X019753Y019718D01*
X019477Y020093D02*
X019279Y020291D01*
X018982Y019994D01*
X019180Y019796D01*
X019229Y020044D02*
X019130Y020143D01*
X018854Y020121D02*
X018656Y020320D01*
X018953Y020617D01*
D14*
X023737Y015695D02*
X023808Y015624D01*
X023101Y014917D01*
X023030Y014988D01*
X024657Y013361D02*
X024727Y013291D01*
X024657Y013361D02*
X025328Y014033D01*
X025399Y013962D01*
D15*
X015789Y025923D02*
X015966Y026100D01*
X016142Y026277D01*
X015966Y026454D02*
X015789Y026277D01*
X015612Y026100D01*
M02*
