G75*
G70*
%OFA0B0*%
%FSLAX24Y24*%
%IPPOS*%
%LPD*%
%AMOC8*
5,1,8,0,0,1.08239X$1,22.5*
%
%ADD10C,0.0000*%
%ADD11R,0.1417X0.1417*%
%ADD12C,0.0120*%
%ADD13C,0.0100*%
%ADD14C,0.0357*%
D10*
X009756Y010038D02*
X025504Y010038D01*
X025771Y010155D01*
X026032Y010285D01*
X026287Y010428D01*
X026534Y010582D01*
X026773Y010749D01*
X027005Y010927D01*
X027227Y011115D01*
X027440Y011315D01*
X027643Y011524D01*
X027835Y011743D01*
X028017Y011971D01*
X028188Y012207D01*
X028347Y012452D01*
X028494Y012704D01*
X028629Y012962D01*
X028751Y013227D01*
X028860Y013498D01*
X028956Y013773D01*
X029038Y014053D01*
X029107Y014336D01*
X029162Y014622D01*
X029203Y014911D01*
X029231Y015201D01*
X029244Y015493D01*
X029243Y015784D01*
X029228Y016076D01*
X029199Y016366D01*
X029156Y016654D01*
X029099Y016940D01*
X029028Y017223D01*
X028944Y017502D01*
X028846Y017777D01*
X028735Y018047D01*
X028611Y018311D01*
X028475Y018568D01*
X028326Y018819D01*
X028166Y019063D01*
X027994Y019298D01*
X027810Y019525D01*
X027616Y019743D01*
X027412Y019951D01*
X027198Y020148D01*
X026974Y020336D01*
X026742Y020512D01*
X026501Y020677D01*
X026253Y020830D01*
X025998Y020971D01*
X025736Y021099D01*
X025468Y021215D01*
X025195Y021317D01*
X024918Y021407D01*
X024636Y021482D01*
X024351Y021544D01*
X024063Y021592D01*
X023774Y021627D01*
X023483Y021647D01*
X023191Y021653D01*
X022900Y021645D01*
X022609Y021623D01*
X022320Y021587D01*
X022032Y021537D01*
X021748Y021473D01*
X021467Y021395D01*
X021190Y021304D01*
X020917Y021200D01*
X017357Y023123D02*
X017359Y023166D01*
X017365Y023208D01*
X017375Y023250D01*
X017388Y023291D01*
X017405Y023331D01*
X017426Y023368D01*
X017450Y023404D01*
X017477Y023437D01*
X017507Y023468D01*
X017540Y023496D01*
X017575Y023521D01*
X017612Y023542D01*
X017651Y023560D01*
X017691Y023574D01*
X017733Y023585D01*
X017775Y023592D01*
X017818Y023595D01*
X017861Y023594D01*
X017904Y023589D01*
X017946Y023580D01*
X017987Y023568D01*
X018027Y023552D01*
X018065Y023532D01*
X018101Y023509D01*
X018135Y023482D01*
X018167Y023453D01*
X018195Y023421D01*
X018221Y023386D01*
X018243Y023350D01*
X018262Y023311D01*
X018277Y023271D01*
X018289Y023230D01*
X018297Y023187D01*
X018301Y023144D01*
X018301Y023102D01*
X018297Y023059D01*
X018289Y023016D01*
X018277Y022975D01*
X018262Y022935D01*
X018243Y022896D01*
X018221Y022860D01*
X018195Y022825D01*
X018167Y022793D01*
X018135Y022764D01*
X018101Y022737D01*
X018065Y022714D01*
X018027Y022694D01*
X017987Y022678D01*
X017946Y022666D01*
X017904Y022657D01*
X017861Y022652D01*
X017818Y022651D01*
X017775Y022654D01*
X017733Y022661D01*
X017691Y022672D01*
X017651Y022686D01*
X017612Y022704D01*
X017575Y022725D01*
X017540Y022750D01*
X017507Y022778D01*
X017477Y022809D01*
X017450Y022842D01*
X017426Y022878D01*
X017405Y022915D01*
X017388Y022955D01*
X017375Y022996D01*
X017365Y023038D01*
X017359Y023080D01*
X017357Y023123D01*
X020918Y021199D02*
X021022Y021472D01*
X021113Y021749D01*
X021191Y022030D01*
X021255Y022314D01*
X021305Y022602D01*
X021341Y022891D01*
X021363Y023182D01*
X021371Y023473D01*
X021365Y023765D01*
X021345Y024056D01*
X021310Y024345D01*
X021262Y024633D01*
X021200Y024918D01*
X021125Y025200D01*
X021035Y025477D01*
X020933Y025750D01*
X020817Y026018D01*
X020689Y026280D01*
X020548Y026535D01*
X020395Y026783D01*
X020230Y027024D01*
X020054Y027256D01*
X019866Y027480D01*
X019669Y027694D01*
X019461Y027898D01*
X019243Y028092D01*
X019016Y028276D01*
X018781Y028448D01*
X018537Y028608D01*
X018286Y028757D01*
X018029Y028893D01*
X017765Y029017D01*
X017495Y029128D01*
X017220Y029226D01*
X016941Y029310D01*
X016658Y029381D01*
X016372Y029438D01*
X016084Y029481D01*
X015794Y029510D01*
X015502Y029525D01*
X015211Y029526D01*
X014919Y029513D01*
X014629Y029485D01*
X014340Y029444D01*
X014054Y029389D01*
X013771Y029320D01*
X013491Y029238D01*
X013216Y029142D01*
X012945Y029033D01*
X012680Y028911D01*
X012422Y028776D01*
X012170Y028629D01*
X011925Y028470D01*
X011689Y028299D01*
X011461Y028117D01*
X011242Y027925D01*
X011033Y027722D01*
X010833Y027509D01*
X010645Y027287D01*
X010467Y027055D01*
X010300Y026816D01*
X010146Y026569D01*
X010003Y026314D01*
X009873Y026053D01*
X009756Y025786D01*
X009756Y010038D01*
X022368Y018112D02*
X022370Y018155D01*
X022376Y018197D01*
X022386Y018239D01*
X022399Y018280D01*
X022416Y018320D01*
X022437Y018357D01*
X022461Y018393D01*
X022488Y018426D01*
X022518Y018457D01*
X022551Y018485D01*
X022586Y018510D01*
X022623Y018531D01*
X022662Y018549D01*
X022702Y018563D01*
X022744Y018574D01*
X022786Y018581D01*
X022829Y018584D01*
X022872Y018583D01*
X022915Y018578D01*
X022957Y018569D01*
X022998Y018557D01*
X023038Y018541D01*
X023076Y018521D01*
X023112Y018498D01*
X023146Y018471D01*
X023178Y018442D01*
X023206Y018410D01*
X023232Y018375D01*
X023254Y018339D01*
X023273Y018300D01*
X023288Y018260D01*
X023300Y018219D01*
X023308Y018176D01*
X023312Y018133D01*
X023312Y018091D01*
X023308Y018048D01*
X023300Y018005D01*
X023288Y017964D01*
X023273Y017924D01*
X023254Y017885D01*
X023232Y017849D01*
X023206Y017814D01*
X023178Y017782D01*
X023146Y017753D01*
X023112Y017726D01*
X023076Y017703D01*
X023038Y017683D01*
X022998Y017667D01*
X022957Y017655D01*
X022915Y017646D01*
X022872Y017641D01*
X022829Y017640D01*
X022786Y017643D01*
X022744Y017650D01*
X022702Y017661D01*
X022662Y017675D01*
X022623Y017693D01*
X022586Y017714D01*
X022551Y017739D01*
X022518Y017767D01*
X022488Y017798D01*
X022461Y017831D01*
X022437Y017867D01*
X022416Y017904D01*
X022399Y017944D01*
X022386Y017985D01*
X022376Y018027D01*
X022370Y018069D01*
X022368Y018112D01*
D11*
G36*
X019376Y012224D02*
X020377Y013225D01*
X021378Y012224D01*
X020377Y011223D01*
X019376Y012224D01*
G37*
G36*
X010941Y020659D02*
X011942Y021660D01*
X012943Y020659D01*
X011942Y019658D01*
X010941Y020659D01*
G37*
D12*
X017622Y020909D02*
X017969Y020916D01*
X018145Y020740D01*
X018407Y021001D01*
X018492Y021086D01*
X018230Y021348D01*
X018061Y021348D01*
X017884Y021171D01*
X017884Y021001D01*
X017969Y020916D01*
X018145Y020740D02*
X018054Y020648D01*
X017969Y020563D01*
X018054Y020478D02*
X018054Y020648D01*
X018054Y020478D02*
X018230Y020301D01*
X018407Y020308D01*
X018577Y020478D01*
X018400Y020655D01*
X018407Y021001D02*
X018577Y021001D01*
X018746Y020832D01*
X018746Y020662D01*
X019001Y020379D02*
X019185Y020379D01*
X019355Y020209D01*
X019355Y020040D01*
X019347Y020032D02*
X019263Y019948D01*
X018577Y019955D01*
X018923Y019608D01*
X019227Y019474D02*
X019227Y019304D01*
X019397Y019134D01*
X019567Y019134D01*
X019906Y019474D01*
X019906Y019644D01*
X019736Y019813D01*
X019567Y019813D01*
X019227Y019474D01*
X019899Y019481D01*
X020039Y019168D02*
X020382Y019168D01*
X020376Y019163D02*
X019878Y018664D01*
X020042Y018489D02*
X019699Y018832D01*
X020330Y018371D02*
X020330Y018201D01*
X020507Y018024D01*
X020677Y018024D01*
X020847Y018194D01*
X020854Y018201D02*
X020854Y018357D01*
X020762Y018449D01*
X020500Y018541D01*
X020755Y018795D01*
X021101Y018449D01*
D13*
X021425Y018316D02*
X022100Y018316D01*
X022078Y018263D02*
X022078Y017960D01*
X022194Y017680D01*
X022409Y017465D01*
X022689Y017349D01*
X022992Y017349D01*
X023272Y017465D01*
X023487Y017680D01*
X023603Y017960D01*
X023603Y018263D01*
X023487Y018544D01*
X023284Y018746D01*
X025901Y018746D01*
X026027Y018620D01*
X025923Y018516D01*
X025852Y018344D01*
X025852Y018263D01*
X023752Y016163D01*
X023630Y016214D01*
X023443Y016214D01*
X023322Y016163D01*
X023410Y016251D01*
X023490Y016251D01*
X023663Y016323D01*
X023794Y016454D01*
X023866Y016627D01*
X023866Y016813D01*
X023794Y016985D01*
X023663Y017117D01*
X023490Y017188D01*
X023304Y017188D01*
X023132Y017117D01*
X023000Y016985D01*
X022929Y016813D01*
X022929Y016732D01*
X022206Y016009D01*
X022206Y016536D01*
X022263Y016594D01*
X022334Y016766D01*
X022334Y016952D01*
X022263Y017124D01*
X022131Y017256D01*
X021959Y017327D01*
X021773Y017327D01*
X021601Y017256D01*
X021469Y017124D01*
X021398Y016952D01*
X021398Y016766D01*
X021469Y016594D01*
X021526Y016536D01*
X021526Y015886D01*
X016514Y010874D01*
X016391Y010924D01*
X016311Y010924D01*
X011617Y015619D01*
X011617Y015699D01*
X011545Y015871D01*
X011413Y016003D01*
X011241Y016075D01*
X011071Y016075D01*
X011071Y020316D01*
X011299Y020087D01*
X011871Y020659D01*
X011299Y021231D01*
X011071Y021002D01*
X011071Y021172D01*
X012176Y022278D01*
X012271Y022373D01*
X012323Y022498D01*
X012323Y022580D01*
X013035Y021868D01*
X013035Y020779D01*
X012584Y021231D01*
X012012Y020659D01*
X011942Y020730D01*
X012513Y021301D01*
X012034Y021781D01*
X011999Y021801D01*
X011961Y021811D01*
X011922Y021811D01*
X011884Y021801D01*
X011849Y021781D01*
X011370Y021301D01*
X011941Y020730D01*
X011871Y020659D01*
X011941Y020588D01*
X011370Y020016D01*
X011849Y019537D01*
X011884Y019517D01*
X011922Y019507D01*
X011961Y019507D01*
X011999Y019517D01*
X012034Y019537D01*
X012513Y020016D01*
X011942Y020588D01*
X012012Y020659D01*
X012584Y020087D01*
X013035Y020538D01*
X013035Y019923D01*
X011971Y018858D01*
X011890Y018858D01*
X011718Y018787D01*
X011586Y018655D01*
X011515Y018483D01*
X011515Y018297D01*
X011586Y018125D01*
X011718Y017993D01*
X011890Y017922D01*
X012076Y017922D01*
X012249Y017993D01*
X012380Y018125D01*
X012452Y018297D01*
X012452Y018378D01*
X013568Y019494D01*
X013663Y019589D01*
X013715Y019714D01*
X013715Y021941D01*
X013715Y022077D01*
X013700Y022112D01*
X013663Y022202D01*
X012880Y022985D01*
X012880Y024652D01*
X015882Y027654D01*
X016158Y027654D01*
X016387Y027425D01*
X016387Y027349D01*
X016205Y027349D01*
X016033Y027278D01*
X015901Y027146D01*
X015830Y026974D01*
X015830Y026788D01*
X015901Y026616D01*
X015914Y026603D01*
X015901Y026589D01*
X015830Y026417D01*
X015830Y026231D01*
X015901Y026059D01*
X016033Y025927D01*
X016205Y025856D01*
X016286Y025856D01*
X018603Y023539D01*
X018482Y023539D01*
X018476Y023555D02*
X018261Y023769D01*
X017981Y023885D01*
X017678Y023885D01*
X017398Y023769D01*
X017183Y023555D01*
X017067Y023274D01*
X017067Y022971D01*
X017183Y022691D01*
X017398Y022476D01*
X017678Y022360D01*
X017981Y022360D01*
X018261Y022476D01*
X018476Y022691D01*
X018592Y022971D01*
X018592Y023274D01*
X018476Y023555D01*
X018504Y023637D02*
X018393Y023637D01*
X018406Y023736D02*
X018294Y023736D01*
X018307Y023834D02*
X018103Y023834D01*
X018209Y023933D02*
X012880Y023933D01*
X012880Y023834D02*
X017556Y023834D01*
X017364Y023736D02*
X012880Y023736D01*
X012880Y023637D02*
X017266Y023637D01*
X017177Y023539D02*
X012880Y023539D01*
X012880Y023440D02*
X017136Y023440D01*
X017095Y023342D02*
X012880Y023342D01*
X012880Y023243D02*
X017067Y023243D01*
X017067Y023145D02*
X012880Y023145D01*
X012880Y023046D02*
X017067Y023046D01*
X017077Y022948D02*
X012918Y022948D01*
X013016Y022849D02*
X017117Y022849D01*
X017158Y022751D02*
X013115Y022751D01*
X013213Y022652D02*
X017222Y022652D01*
X017320Y022553D02*
X013312Y022553D01*
X013410Y022455D02*
X017449Y022455D01*
X018210Y022455D02*
X018603Y022455D01*
X018603Y022553D02*
X018338Y022553D01*
X018437Y022652D02*
X018603Y022652D01*
X018603Y022751D02*
X018501Y022751D01*
X018541Y022849D02*
X018603Y022849D01*
X018603Y022948D02*
X018582Y022948D01*
X018592Y023046D02*
X018603Y023046D01*
X018592Y023145D02*
X018603Y023145D01*
X018592Y023243D02*
X018603Y023243D01*
X018603Y023342D02*
X018564Y023342D01*
X018603Y023440D02*
X018523Y023440D01*
X018603Y023539D02*
X018603Y021470D01*
X018527Y021546D01*
X018429Y021644D01*
X018300Y021698D01*
X018130Y021698D01*
X017991Y021698D01*
X017862Y021644D01*
X017587Y021369D01*
X017540Y021255D01*
X017418Y021202D01*
X017321Y021101D01*
X017271Y020972D01*
X017274Y020832D01*
X017330Y020705D01*
X017430Y020609D01*
X017560Y020558D01*
X017619Y020559D01*
X017619Y020493D01*
X017672Y020365D01*
X017770Y020266D01*
X017855Y020181D01*
X017939Y020098D01*
X017942Y020091D01*
X017988Y020049D01*
X018032Y020004D01*
X018039Y020002D01*
X018044Y019997D01*
X018103Y019975D01*
X018161Y019951D01*
X018168Y019951D01*
X018175Y019949D01*
X018227Y019951D01*
X018226Y019889D01*
X018227Y019887D01*
X018227Y019885D01*
X018253Y019822D01*
X018278Y019760D01*
X018279Y019758D01*
X018280Y019756D01*
X018329Y019708D01*
X018375Y019660D01*
X018377Y019659D01*
X018725Y019312D01*
X018854Y019258D01*
X018877Y019258D01*
X018877Y019235D01*
X018877Y019234D01*
X018894Y019193D01*
X018931Y019106D01*
X019029Y019007D01*
X019100Y018936D01*
X019199Y018838D01*
X019327Y018784D01*
X019349Y018784D01*
X019349Y018763D01*
X019403Y018634D01*
X019844Y018193D01*
X019973Y018139D01*
X019980Y018139D01*
X019980Y018131D01*
X020034Y018003D01*
X020132Y017904D01*
X020309Y017728D01*
X020438Y017674D01*
X020577Y017674D01*
X020746Y017674D01*
X020875Y017728D01*
X020974Y017826D01*
X021143Y017996D01*
X021150Y018003D01*
X021194Y018108D01*
X021299Y018152D01*
X021398Y018250D01*
X021451Y018379D01*
X021451Y018518D01*
X021398Y018647D01*
X021299Y018746D01*
X022397Y018746D01*
X022194Y018544D01*
X022078Y018263D01*
X022078Y018218D02*
X021365Y018218D01*
X021220Y018119D02*
X022078Y018119D01*
X022078Y018020D02*
X021158Y018020D01*
X021143Y017996D02*
X021143Y017996D01*
X021069Y017922D02*
X022094Y017922D01*
X022135Y017823D02*
X020971Y017823D01*
X020974Y017826D02*
X020974Y017826D01*
X020868Y017725D02*
X022175Y017725D01*
X022248Y017626D02*
X011071Y017626D01*
X011071Y017528D02*
X022346Y017528D01*
X022496Y017429D02*
X011071Y017429D01*
X011071Y017331D02*
X024919Y017331D01*
X025018Y017429D02*
X023185Y017429D01*
X023335Y017528D02*
X025116Y017528D01*
X025215Y017626D02*
X023433Y017626D01*
X023505Y017725D02*
X025314Y017725D01*
X025412Y017823D02*
X023546Y017823D01*
X023587Y017922D02*
X025511Y017922D01*
X025609Y018020D02*
X023603Y018020D01*
X023603Y018119D02*
X025708Y018119D01*
X025806Y018218D02*
X023603Y018218D01*
X023581Y018316D02*
X025852Y018316D01*
X025881Y018415D02*
X023540Y018415D01*
X023499Y018513D02*
X025922Y018513D01*
X026019Y018612D02*
X023419Y018612D01*
X023320Y018710D02*
X025937Y018710D01*
X026042Y019086D02*
X026877Y018251D01*
X023815Y015189D01*
X022980Y015189D01*
X022423Y015189D01*
X022005Y014771D01*
X022005Y012266D01*
X023119Y011152D01*
X023258Y010734D02*
X025485Y012961D01*
X023676Y014771D01*
X022562Y014771D01*
X021866Y015745D02*
X021866Y016859D01*
X021432Y017035D02*
X011071Y017035D01*
X011071Y017134D02*
X021478Y017134D01*
X021577Y017232D02*
X011071Y017232D01*
X011071Y016936D02*
X021398Y016936D01*
X021398Y016838D02*
X011071Y016838D01*
X011071Y016739D02*
X021409Y016739D01*
X021449Y016641D02*
X011071Y016641D01*
X011071Y016542D02*
X021520Y016542D01*
X021526Y016444D02*
X011071Y016444D01*
X011071Y016345D02*
X021526Y016345D01*
X021526Y016247D02*
X011071Y016247D01*
X011071Y016148D02*
X021526Y016148D01*
X021526Y016050D02*
X011302Y016050D01*
X011466Y015951D02*
X021526Y015951D01*
X021492Y015852D02*
X011553Y015852D01*
X011594Y015754D02*
X021394Y015754D01*
X021295Y015655D02*
X011617Y015655D01*
X011678Y015557D02*
X021197Y015557D01*
X021098Y015458D02*
X011777Y015458D01*
X011875Y015360D02*
X021000Y015360D01*
X020901Y015261D02*
X011974Y015261D01*
X012072Y015163D02*
X020803Y015163D01*
X020704Y015064D02*
X012171Y015064D01*
X012269Y014966D02*
X020606Y014966D01*
X020507Y014867D02*
X012368Y014867D01*
X012467Y014769D02*
X020408Y014769D01*
X020310Y014670D02*
X012565Y014670D01*
X012664Y014571D02*
X020211Y014571D01*
X020113Y014473D02*
X012762Y014473D01*
X012861Y014374D02*
X020014Y014374D01*
X019916Y014276D02*
X012959Y014276D01*
X013058Y014177D02*
X019817Y014177D01*
X019719Y014079D02*
X013156Y014079D01*
X013255Y013980D02*
X019620Y013980D01*
X019522Y013882D02*
X013353Y013882D01*
X013452Y013783D02*
X019423Y013783D01*
X019324Y013685D02*
X013551Y013685D01*
X013649Y013586D02*
X019226Y013586D01*
X019127Y013487D02*
X013748Y013487D01*
X013846Y013389D02*
X019029Y013389D01*
X018930Y013290D02*
X013945Y013290D01*
X014043Y013192D02*
X018832Y013192D01*
X018733Y013093D02*
X014142Y013093D01*
X014240Y012995D02*
X018635Y012995D01*
X018536Y012896D02*
X014339Y012896D01*
X014437Y012798D02*
X018438Y012798D01*
X018339Y012699D02*
X014536Y012699D01*
X014635Y012601D02*
X018241Y012601D01*
X018142Y012502D02*
X014733Y012502D01*
X014832Y012403D02*
X018043Y012403D01*
X017945Y012305D02*
X014930Y012305D01*
X015029Y012206D02*
X017846Y012206D01*
X017748Y012108D02*
X015127Y012108D01*
X015226Y012009D02*
X017649Y012009D01*
X017551Y011911D02*
X015324Y011911D01*
X015423Y011812D02*
X017452Y011812D01*
X017354Y011714D02*
X015521Y011714D01*
X015620Y011615D02*
X017255Y011615D01*
X017157Y011517D02*
X015719Y011517D01*
X015817Y011418D02*
X017058Y011418D01*
X016959Y011319D02*
X015916Y011319D01*
X016014Y011221D02*
X016861Y011221D01*
X016762Y011122D02*
X016113Y011122D01*
X016211Y011024D02*
X016664Y011024D01*
X016565Y010925D02*
X016310Y010925D01*
X016298Y010456D02*
X016577Y010456D01*
X021866Y015745D01*
X022206Y016050D02*
X022246Y016050D01*
X022206Y016148D02*
X022345Y016148D01*
X022443Y016247D02*
X022206Y016247D01*
X022206Y016345D02*
X022542Y016345D01*
X022641Y016444D02*
X022206Y016444D01*
X022212Y016542D02*
X022739Y016542D01*
X022838Y016641D02*
X022283Y016641D01*
X022324Y016739D02*
X022929Y016739D01*
X022939Y016838D02*
X022334Y016838D01*
X022334Y016936D02*
X022980Y016936D01*
X023050Y017035D02*
X022300Y017035D01*
X022254Y017134D02*
X023172Y017134D01*
X023397Y016720D02*
X021309Y014632D01*
X021309Y013156D01*
X020377Y012224D01*
X020196Y013518D02*
X017551Y010874D01*
X016298Y010456D02*
X011148Y015606D01*
X010731Y015189D02*
X010731Y021313D01*
X011983Y022566D01*
X011983Y024515D01*
X012540Y024793D02*
X015742Y027994D01*
X016298Y027994D01*
X016855Y027438D01*
X019778Y024515D01*
X019778Y021731D01*
X021449Y020060D01*
X021727Y020060D01*
X022005Y019504D02*
X021449Y019504D01*
X019361Y021592D01*
X019361Y023819D01*
X016298Y026881D01*
X015830Y026889D02*
X015117Y026889D01*
X015019Y026791D02*
X015830Y026791D01*
X015869Y026692D02*
X014920Y026692D01*
X014822Y026594D02*
X015905Y026594D01*
X015862Y026495D02*
X014723Y026495D01*
X014624Y026397D02*
X015830Y026397D01*
X015830Y026298D02*
X014526Y026298D01*
X014427Y026200D02*
X015843Y026200D01*
X015884Y026101D02*
X014329Y026101D01*
X014230Y026002D02*
X015958Y026002D01*
X016089Y025904D02*
X014132Y025904D01*
X014033Y025805D02*
X016336Y025805D01*
X016435Y025707D02*
X013935Y025707D01*
X013836Y025608D02*
X016533Y025608D01*
X016632Y025510D02*
X013738Y025510D01*
X013639Y025411D02*
X016730Y025411D01*
X016829Y025313D02*
X013541Y025313D01*
X013442Y025214D02*
X016928Y025214D01*
X017026Y025116D02*
X013343Y025116D01*
X013245Y025017D02*
X017125Y025017D01*
X017223Y024918D02*
X013146Y024918D01*
X013048Y024820D02*
X017322Y024820D01*
X017420Y024721D02*
X012949Y024721D01*
X012880Y024623D02*
X017519Y024623D01*
X017617Y024524D02*
X012880Y024524D01*
X012880Y024426D02*
X017716Y024426D01*
X017814Y024327D02*
X012880Y024327D01*
X012880Y024229D02*
X017913Y024229D01*
X018012Y024130D02*
X012880Y024130D01*
X012880Y024032D02*
X018110Y024032D01*
X018943Y023679D02*
X016298Y026324D01*
X015836Y026988D02*
X015216Y026988D01*
X015314Y027086D02*
X015876Y027086D01*
X015940Y027185D02*
X015413Y027185D01*
X015511Y027284D02*
X016046Y027284D01*
X016331Y027481D02*
X015708Y027481D01*
X015610Y027382D02*
X016387Y027382D01*
X016233Y027579D02*
X015807Y027579D01*
X016438Y028412D02*
X013097Y028412D01*
X011148Y026463D01*
X012540Y024793D02*
X012540Y022844D01*
X013375Y022009D01*
X013375Y019782D01*
X011983Y018390D01*
X011548Y018218D02*
X011071Y018218D01*
X011071Y018316D02*
X011515Y018316D01*
X011515Y018415D02*
X011071Y018415D01*
X011071Y018513D02*
X011527Y018513D01*
X011568Y018612D02*
X011071Y018612D01*
X011071Y018710D02*
X011641Y018710D01*
X011770Y018809D02*
X011071Y018809D01*
X011071Y018907D02*
X012020Y018907D01*
X012118Y019006D02*
X011071Y019006D01*
X011071Y019104D02*
X012217Y019104D01*
X012315Y019203D02*
X011071Y019203D01*
X011071Y019301D02*
X012414Y019301D01*
X012513Y019400D02*
X011071Y019400D01*
X011071Y019499D02*
X012611Y019499D01*
X012710Y019597D02*
X012094Y019597D01*
X012193Y019696D02*
X012808Y019696D01*
X012907Y019794D02*
X012291Y019794D01*
X012390Y019893D02*
X013005Y019893D01*
X013035Y019991D02*
X012488Y019991D01*
X012440Y020090D02*
X012581Y020090D01*
X012587Y020090D02*
X013035Y020090D01*
X013035Y020188D02*
X012685Y020188D01*
X012784Y020287D02*
X013035Y020287D01*
X013035Y020385D02*
X012882Y020385D01*
X012981Y020484D02*
X013035Y020484D01*
X013035Y020780D02*
X013035Y020780D01*
X013035Y020878D02*
X012936Y020878D01*
X012838Y020977D02*
X013035Y020977D01*
X013035Y021075D02*
X012739Y021075D01*
X012641Y021174D02*
X013035Y021174D01*
X013035Y021272D02*
X012484Y021272D01*
X012444Y021371D02*
X013035Y021371D01*
X013035Y021469D02*
X012345Y021469D01*
X012247Y021568D02*
X013035Y021568D01*
X013035Y021667D02*
X012148Y021667D01*
X012050Y021765D02*
X013035Y021765D01*
X013035Y021864D02*
X011762Y021864D01*
X011833Y021765D02*
X011663Y021765D01*
X011735Y021667D02*
X011565Y021667D01*
X011636Y021568D02*
X011466Y021568D01*
X011538Y021469D02*
X011368Y021469D01*
X011439Y021371D02*
X011269Y021371D01*
X011171Y021272D02*
X011399Y021272D01*
X011356Y021174D02*
X011497Y021174D01*
X011455Y021075D02*
X011596Y021075D01*
X011553Y020977D02*
X011694Y020977D01*
X011652Y020878D02*
X011793Y020878D01*
X011750Y020780D02*
X011891Y020780D01*
X011893Y020681D02*
X011849Y020681D01*
X011795Y020583D02*
X011936Y020583D01*
X011947Y020583D02*
X012088Y020583D01*
X012046Y020484D02*
X012187Y020484D01*
X012144Y020385D02*
X012285Y020385D01*
X012243Y020287D02*
X012384Y020287D01*
X012341Y020188D02*
X012483Y020188D01*
X012034Y020681D02*
X011990Y020681D01*
X011992Y020780D02*
X012133Y020780D01*
X012090Y020878D02*
X012231Y020878D01*
X012189Y020977D02*
X012330Y020977D01*
X012287Y021075D02*
X012429Y021075D01*
X012386Y021174D02*
X012527Y021174D01*
X011837Y020484D02*
X011696Y020484D01*
X011739Y020385D02*
X011597Y020385D01*
X011640Y020287D02*
X011499Y020287D01*
X011542Y020188D02*
X011400Y020188D01*
X011443Y020090D02*
X011302Y020090D01*
X011296Y020090D02*
X011071Y020090D01*
X011071Y020188D02*
X011198Y020188D01*
X011099Y020287D02*
X011071Y020287D01*
X011071Y019991D02*
X011395Y019991D01*
X011493Y019893D02*
X011071Y019893D01*
X011071Y019794D02*
X011592Y019794D01*
X011690Y019696D02*
X011071Y019696D01*
X011071Y019597D02*
X011789Y019597D01*
X012686Y018612D02*
X019425Y018612D01*
X019371Y018710D02*
X012784Y018710D01*
X012883Y018809D02*
X019269Y018809D01*
X019129Y018907D02*
X012981Y018907D01*
X013080Y019006D02*
X019031Y019006D01*
X019029Y019007D02*
X019029Y019007D01*
X019100Y018936D02*
X019100Y018936D01*
X018932Y019104D02*
X013178Y019104D01*
X013277Y019203D02*
X018890Y019203D01*
X018749Y019301D02*
X013375Y019301D01*
X013474Y019400D02*
X018636Y019400D01*
X018538Y019499D02*
X013573Y019499D01*
X013568Y019494D02*
X013568Y019494D01*
X013667Y019597D02*
X018439Y019597D01*
X018341Y019696D02*
X013707Y019696D01*
X013715Y019794D02*
X018264Y019794D01*
X018226Y019893D02*
X013715Y019893D01*
X013715Y019991D02*
X018059Y019991D01*
X017943Y020090D02*
X013715Y020090D01*
X013715Y020188D02*
X017848Y020188D01*
X017855Y020181D02*
X017855Y020181D01*
X017750Y020287D02*
X013715Y020287D01*
X013715Y020385D02*
X017663Y020385D01*
X017622Y020484D02*
X013715Y020484D01*
X013715Y020583D02*
X017497Y020583D01*
X017354Y020681D02*
X013715Y020681D01*
X013715Y020780D02*
X017297Y020780D01*
X017273Y020878D02*
X013715Y020878D01*
X013715Y020977D02*
X017273Y020977D01*
X017311Y021075D02*
X013715Y021075D01*
X013715Y021174D02*
X017391Y021174D01*
X017547Y021272D02*
X013715Y021272D01*
X013715Y021371D02*
X017589Y021371D01*
X017687Y021469D02*
X013715Y021469D01*
X013715Y021568D02*
X017786Y021568D01*
X017916Y021667D02*
X013715Y021667D01*
X013715Y021765D02*
X018603Y021765D01*
X018603Y021667D02*
X018375Y021667D01*
X018505Y021568D02*
X018603Y021568D01*
X018603Y021864D02*
X013715Y021864D01*
X013715Y021962D02*
X018603Y021962D01*
X018603Y022061D02*
X013715Y022061D01*
X013715Y022077D02*
X013715Y022077D01*
X013681Y022159D02*
X018603Y022159D01*
X018603Y022258D02*
X013607Y022258D01*
X013509Y022356D02*
X018603Y022356D01*
X018943Y021452D02*
X018943Y023679D01*
X020335Y024515D02*
X020613Y024515D01*
X020335Y024515D02*
X017412Y027438D01*
X016438Y028412D01*
X012350Y022553D02*
X012323Y022553D01*
X012305Y022455D02*
X012449Y022455D01*
X012547Y022356D02*
X012255Y022356D01*
X012156Y022258D02*
X012646Y022258D01*
X012744Y022159D02*
X012057Y022159D01*
X011959Y022061D02*
X012843Y022061D01*
X012941Y021962D02*
X011860Y021962D01*
X011242Y021174D02*
X011072Y021174D01*
X011071Y021075D02*
X011144Y021075D01*
X010313Y021731D02*
X010591Y022009D01*
X010313Y021731D02*
X010313Y015328D01*
X010174Y015189D01*
X010731Y015189D02*
X011844Y014075D01*
X012123Y014075D01*
X014906Y011291D01*
X014906Y010734D02*
X013654Y011987D01*
X010870Y011987D01*
X011071Y017725D02*
X020316Y017725D01*
X020213Y017823D02*
X011071Y017823D01*
X011071Y017922D02*
X011890Y017922D01*
X012077Y017922D02*
X020115Y017922D01*
X020026Y018020D02*
X012276Y018020D01*
X012375Y018119D02*
X019986Y018119D01*
X019819Y018218D02*
X012419Y018218D01*
X012452Y018316D02*
X019720Y018316D01*
X019622Y018415D02*
X012489Y018415D01*
X012587Y018513D02*
X019523Y018513D01*
X021334Y018710D02*
X022361Y018710D01*
X022262Y018612D02*
X021412Y018612D01*
X021451Y018513D02*
X022182Y018513D01*
X022141Y018415D02*
X021451Y018415D01*
X021309Y019086D02*
X026042Y019086D01*
X026738Y019504D02*
X027851Y018390D01*
X027851Y017276D01*
X028547Y016581D01*
X028547Y014632D01*
X025903Y011987D01*
X025485Y012405D01*
X025485Y012961D02*
X027712Y015189D01*
X026320Y018251D02*
X023815Y015745D01*
X023536Y015745D01*
X023405Y016247D02*
X023835Y016247D01*
X023934Y016345D02*
X023685Y016345D01*
X023784Y016444D02*
X024032Y016444D01*
X024131Y016542D02*
X023831Y016542D01*
X023866Y016641D02*
X024230Y016641D01*
X024328Y016739D02*
X023866Y016739D01*
X023855Y016838D02*
X024427Y016838D01*
X024525Y016936D02*
X023814Y016936D01*
X023744Y017035D02*
X024624Y017035D01*
X024722Y017134D02*
X023622Y017134D01*
X024821Y017232D02*
X022155Y017232D01*
X021309Y019086D02*
X018943Y021452D01*
X022005Y019504D02*
X022423Y019921D01*
X025068Y019504D02*
X026738Y019504D01*
X025903Y011987D02*
X026320Y011570D01*
X023258Y010734D02*
X020474Y010734D01*
X020335Y010874D01*
X011690Y018020D02*
X011071Y018020D01*
X011071Y018119D02*
X011592Y018119D01*
D14*
X011983Y018390D03*
X012262Y019504D03*
X012679Y019921D03*
X012679Y021592D03*
X012262Y022009D03*
X010591Y022009D03*
X011983Y024515D03*
X011148Y026463D03*
X016298Y026324D03*
X016298Y026881D03*
X016855Y027438D03*
X017412Y027438D03*
X020613Y024515D03*
X019361Y021592D03*
X021727Y020060D03*
X022423Y019921D03*
X025068Y019504D03*
X026320Y018251D03*
X026877Y018251D03*
X027712Y015189D03*
X025485Y012405D03*
X026320Y011570D03*
X023119Y011152D03*
X020335Y010874D03*
X020196Y013518D03*
X022562Y014771D03*
X022980Y015189D03*
X023536Y015745D03*
X023397Y016720D03*
X021866Y016859D03*
X017551Y010874D03*
X016298Y010456D03*
X014906Y010734D03*
X014906Y011291D03*
X013654Y011987D03*
X011844Y014075D03*
X011148Y015606D03*
X010174Y015189D03*
X010870Y011987D03*
M02*
