G75*
G70*
%OFA0B0*%
%FSLAX24Y24*%
%IPPOS*%
%LPD*%
%AMOC8*
5,1,8,0,0,1.08239X$1,22.5*
%
%ADD10C,0.0000*%
%ADD11R,0.0591X0.0591*%
%ADD12R,0.0630X0.0709*%
%ADD13R,0.0240X0.0870*%
D10*
X009756Y010038D02*
X025504Y010038D01*
X025771Y010155D01*
X026032Y010285D01*
X026287Y010428D01*
X026534Y010582D01*
X026773Y010749D01*
X027005Y010927D01*
X027227Y011115D01*
X027440Y011315D01*
X027643Y011524D01*
X027835Y011743D01*
X028017Y011971D01*
X028188Y012207D01*
X028347Y012452D01*
X028494Y012704D01*
X028629Y012962D01*
X028751Y013227D01*
X028860Y013498D01*
X028956Y013773D01*
X029038Y014053D01*
X029107Y014336D01*
X029162Y014622D01*
X029203Y014911D01*
X029231Y015201D01*
X029244Y015493D01*
X029243Y015784D01*
X029228Y016076D01*
X029199Y016366D01*
X029156Y016654D01*
X029099Y016940D01*
X029028Y017223D01*
X028944Y017502D01*
X028846Y017777D01*
X028735Y018047D01*
X028611Y018311D01*
X028475Y018568D01*
X028326Y018819D01*
X028166Y019063D01*
X027994Y019298D01*
X027810Y019525D01*
X027616Y019743D01*
X027412Y019951D01*
X027198Y020148D01*
X026974Y020336D01*
X026742Y020512D01*
X026501Y020677D01*
X026253Y020830D01*
X025998Y020971D01*
X025736Y021099D01*
X025468Y021215D01*
X025195Y021317D01*
X024918Y021407D01*
X024636Y021482D01*
X024351Y021544D01*
X024063Y021592D01*
X023774Y021627D01*
X023483Y021647D01*
X023191Y021653D01*
X022900Y021645D01*
X022609Y021623D01*
X022320Y021587D01*
X022032Y021537D01*
X021748Y021473D01*
X021467Y021395D01*
X021190Y021304D01*
X020917Y021200D01*
X017357Y023123D02*
X017359Y023166D01*
X017365Y023208D01*
X017375Y023250D01*
X017388Y023291D01*
X017405Y023331D01*
X017426Y023368D01*
X017450Y023404D01*
X017477Y023437D01*
X017507Y023468D01*
X017540Y023496D01*
X017575Y023521D01*
X017612Y023542D01*
X017651Y023560D01*
X017691Y023574D01*
X017733Y023585D01*
X017775Y023592D01*
X017818Y023595D01*
X017861Y023594D01*
X017904Y023589D01*
X017946Y023580D01*
X017987Y023568D01*
X018027Y023552D01*
X018065Y023532D01*
X018101Y023509D01*
X018135Y023482D01*
X018167Y023453D01*
X018195Y023421D01*
X018221Y023386D01*
X018243Y023350D01*
X018262Y023311D01*
X018277Y023271D01*
X018289Y023230D01*
X018297Y023187D01*
X018301Y023144D01*
X018301Y023102D01*
X018297Y023059D01*
X018289Y023016D01*
X018277Y022975D01*
X018262Y022935D01*
X018243Y022896D01*
X018221Y022860D01*
X018195Y022825D01*
X018167Y022793D01*
X018135Y022764D01*
X018101Y022737D01*
X018065Y022714D01*
X018027Y022694D01*
X017987Y022678D01*
X017946Y022666D01*
X017904Y022657D01*
X017861Y022652D01*
X017818Y022651D01*
X017775Y022654D01*
X017733Y022661D01*
X017691Y022672D01*
X017651Y022686D01*
X017612Y022704D01*
X017575Y022725D01*
X017540Y022750D01*
X017507Y022778D01*
X017477Y022809D01*
X017450Y022842D01*
X017426Y022878D01*
X017405Y022915D01*
X017388Y022955D01*
X017375Y022996D01*
X017365Y023038D01*
X017359Y023080D01*
X017357Y023123D01*
X020918Y021199D02*
X021022Y021472D01*
X021113Y021749D01*
X021191Y022030D01*
X021255Y022314D01*
X021305Y022602D01*
X021341Y022891D01*
X021363Y023182D01*
X021371Y023473D01*
X021365Y023765D01*
X021345Y024056D01*
X021310Y024345D01*
X021262Y024633D01*
X021200Y024918D01*
X021125Y025200D01*
X021035Y025477D01*
X020933Y025750D01*
X020817Y026018D01*
X020689Y026280D01*
X020548Y026535D01*
X020395Y026783D01*
X020230Y027024D01*
X020054Y027256D01*
X019866Y027480D01*
X019669Y027694D01*
X019461Y027898D01*
X019243Y028092D01*
X019016Y028276D01*
X018781Y028448D01*
X018537Y028608D01*
X018286Y028757D01*
X018029Y028893D01*
X017765Y029017D01*
X017495Y029128D01*
X017220Y029226D01*
X016941Y029310D01*
X016658Y029381D01*
X016372Y029438D01*
X016084Y029481D01*
X015794Y029510D01*
X015502Y029525D01*
X015211Y029526D01*
X014919Y029513D01*
X014629Y029485D01*
X014340Y029444D01*
X014054Y029389D01*
X013771Y029320D01*
X013491Y029238D01*
X013216Y029142D01*
X012945Y029033D01*
X012680Y028911D01*
X012422Y028776D01*
X012170Y028629D01*
X011925Y028470D01*
X011689Y028299D01*
X011461Y028117D01*
X011242Y027925D01*
X011033Y027722D01*
X010833Y027509D01*
X010645Y027287D01*
X010467Y027055D01*
X010300Y026816D01*
X010146Y026569D01*
X010003Y026314D01*
X009873Y026053D01*
X009756Y025786D01*
X009756Y010038D01*
X022368Y018112D02*
X022370Y018155D01*
X022376Y018197D01*
X022386Y018239D01*
X022399Y018280D01*
X022416Y018320D01*
X022437Y018357D01*
X022461Y018393D01*
X022488Y018426D01*
X022518Y018457D01*
X022551Y018485D01*
X022586Y018510D01*
X022623Y018531D01*
X022662Y018549D01*
X022702Y018563D01*
X022744Y018574D01*
X022786Y018581D01*
X022829Y018584D01*
X022872Y018583D01*
X022915Y018578D01*
X022957Y018569D01*
X022998Y018557D01*
X023038Y018541D01*
X023076Y018521D01*
X023112Y018498D01*
X023146Y018471D01*
X023178Y018442D01*
X023206Y018410D01*
X023232Y018375D01*
X023254Y018339D01*
X023273Y018300D01*
X023288Y018260D01*
X023300Y018219D01*
X023308Y018176D01*
X023312Y018133D01*
X023312Y018091D01*
X023308Y018048D01*
X023300Y018005D01*
X023288Y017964D01*
X023273Y017924D01*
X023254Y017885D01*
X023232Y017849D01*
X023206Y017814D01*
X023178Y017782D01*
X023146Y017753D01*
X023112Y017726D01*
X023076Y017703D01*
X023038Y017683D01*
X022998Y017667D01*
X022957Y017655D01*
X022915Y017646D01*
X022872Y017641D01*
X022829Y017640D01*
X022786Y017643D01*
X022744Y017650D01*
X022702Y017661D01*
X022662Y017675D01*
X022623Y017693D01*
X022586Y017714D01*
X022551Y017739D01*
X022518Y017767D01*
X022488Y017798D01*
X022461Y017831D01*
X022437Y017867D01*
X022416Y017904D01*
X022399Y017944D01*
X022386Y017985D01*
X022376Y018027D01*
X022370Y018069D01*
X022368Y018112D01*
D11*
G36*
X020405Y020130D02*
X020822Y020547D01*
X021239Y020130D01*
X020822Y019713D01*
X020405Y020130D01*
G37*
G36*
X019431Y021104D02*
X019848Y021521D01*
X020265Y021104D01*
X019848Y020687D01*
X019431Y021104D01*
G37*
G36*
X020127Y023749D02*
X020544Y024166D01*
X020961Y023749D01*
X020544Y023332D01*
X020127Y023749D01*
G37*
G36*
X019152Y024723D02*
X019569Y025140D01*
X019986Y024723D01*
X019569Y024306D01*
X019152Y024723D01*
G37*
G36*
X018735Y026811D02*
X019152Y027228D01*
X019569Y026811D01*
X019152Y026394D01*
X018735Y026811D01*
G37*
G36*
X017760Y027786D02*
X018177Y028203D01*
X018594Y027786D01*
X018177Y027369D01*
X017760Y027786D01*
G37*
G36*
X015812Y027786D02*
X016229Y028203D01*
X016646Y027786D01*
X016229Y027369D01*
X015812Y027786D01*
G37*
G36*
X014837Y028760D02*
X015254Y029177D01*
X015671Y028760D01*
X015254Y028343D01*
X014837Y028760D01*
G37*
G36*
X013167Y027090D02*
X013584Y027507D01*
X014001Y027090D01*
X013584Y026673D01*
X013167Y027090D01*
G37*
G36*
X012193Y028064D02*
X012610Y028481D01*
X013027Y028064D01*
X012610Y027647D01*
X012193Y028064D01*
G37*
G36*
X010105Y025976D02*
X010522Y026393D01*
X010939Y025976D01*
X010522Y025559D01*
X010105Y025976D01*
G37*
G36*
X011079Y025002D02*
X011496Y025419D01*
X011913Y025002D01*
X011496Y024585D01*
X011079Y025002D01*
G37*
G36*
X009966Y023053D02*
X010383Y023470D01*
X010800Y023053D01*
X010383Y022636D01*
X009966Y023053D01*
G37*
G36*
X010940Y022079D02*
X011357Y022496D01*
X011774Y022079D01*
X011357Y021662D01*
X010940Y022079D01*
G37*
G36*
X009966Y019991D02*
X010383Y020408D01*
X010800Y019991D01*
X010383Y019574D01*
X009966Y019991D01*
G37*
G36*
X010940Y019016D02*
X011357Y019433D01*
X011774Y019016D01*
X011357Y018599D01*
X010940Y019016D01*
G37*
G36*
X009966Y017207D02*
X010383Y017624D01*
X010800Y017207D01*
X010383Y016790D01*
X009966Y017207D01*
G37*
G36*
X010940Y016233D02*
X011357Y016650D01*
X011774Y016233D01*
X011357Y015816D01*
X010940Y016233D01*
G37*
G36*
X009966Y014423D02*
X010383Y014840D01*
X010800Y014423D01*
X010383Y014006D01*
X009966Y014423D01*
G37*
G36*
X010940Y013449D02*
X011357Y013866D01*
X011774Y013449D01*
X011357Y013032D01*
X010940Y013449D01*
G37*
G36*
X009966Y011639D02*
X010383Y012056D01*
X010800Y011639D01*
X010383Y011222D01*
X009966Y011639D01*
G37*
G36*
X010940Y010665D02*
X011357Y011082D01*
X011774Y010665D01*
X011357Y010248D01*
X010940Y010665D01*
G37*
G36*
X012749Y011639D02*
X013166Y012056D01*
X013583Y011639D01*
X013166Y011222D01*
X012749Y011639D01*
G37*
G36*
X013724Y010665D02*
X014141Y011082D01*
X014558Y010665D01*
X014141Y010248D01*
X013724Y010665D01*
G37*
G36*
X015533Y011639D02*
X015950Y012056D01*
X016367Y011639D01*
X015950Y011222D01*
X015533Y011639D01*
G37*
G36*
X016508Y010665D02*
X016925Y011082D01*
X017342Y010665D01*
X016925Y010248D01*
X016508Y010665D01*
G37*
G36*
X018317Y011639D02*
X018734Y012056D01*
X019151Y011639D01*
X018734Y011222D01*
X018317Y011639D01*
G37*
G36*
X019292Y010665D02*
X019709Y011082D01*
X020126Y010665D01*
X019709Y010248D01*
X019292Y010665D01*
G37*
G36*
X021380Y011639D02*
X021797Y012056D01*
X022214Y011639D01*
X021797Y011222D01*
X021380Y011639D01*
G37*
G36*
X022354Y010665D02*
X022771Y011082D01*
X023188Y010665D01*
X022771Y010248D01*
X022354Y010665D01*
G37*
G36*
X024303Y011778D02*
X024720Y012195D01*
X025137Y011778D01*
X024720Y011361D01*
X024303Y011778D01*
G37*
G36*
X025277Y010804D02*
X025694Y011221D01*
X026111Y010804D01*
X025694Y010387D01*
X025277Y010804D01*
G37*
G36*
X027365Y012892D02*
X027782Y013309D01*
X028199Y012892D01*
X027782Y012475D01*
X027365Y012892D01*
G37*
G36*
X026391Y013866D02*
X026808Y014283D01*
X027225Y013866D01*
X026808Y013449D01*
X026391Y013866D01*
G37*
G36*
X028061Y015537D02*
X028478Y015954D01*
X028895Y015537D01*
X028478Y015120D01*
X028061Y015537D01*
G37*
G36*
X027086Y016511D02*
X027503Y016928D01*
X027920Y016511D01*
X027503Y016094D01*
X027086Y016511D01*
G37*
G36*
X027087Y018460D02*
X027504Y018877D01*
X027921Y018460D01*
X027504Y018043D01*
X027087Y018460D01*
G37*
G36*
X026112Y019434D02*
X026529Y019851D01*
X026946Y019434D01*
X026529Y019017D01*
X026112Y019434D01*
G37*
G36*
X024024Y019852D02*
X024441Y020269D01*
X024858Y019852D01*
X024441Y019435D01*
X024024Y019852D01*
G37*
G36*
X023050Y020826D02*
X023467Y021243D01*
X023884Y020826D01*
X023467Y020409D01*
X023050Y020826D01*
G37*
G36*
X015992Y022037D02*
X015575Y022454D01*
X015992Y022871D01*
X016409Y022454D01*
X015992Y022037D01*
G37*
G36*
X013821Y024209D02*
X013404Y024626D01*
X013821Y025043D01*
X014238Y024626D01*
X013821Y024209D01*
G37*
D12*
G36*
X024233Y016497D02*
X023787Y016943D01*
X024287Y017443D01*
X024733Y016997D01*
X024233Y016497D01*
G37*
G36*
X025013Y015718D02*
X024567Y016164D01*
X025067Y016664D01*
X025513Y016218D01*
X025013Y015718D01*
G37*
D13*
G36*
X024337Y015000D02*
X024507Y015170D01*
X025121Y014556D01*
X024951Y014386D01*
X024337Y015000D01*
G37*
G36*
X023983Y014647D02*
X024153Y014817D01*
X024767Y014203D01*
X024597Y014033D01*
X023983Y014647D01*
G37*
G36*
X023630Y014293D02*
X023800Y014463D01*
X024414Y013849D01*
X024244Y013679D01*
X023630Y014293D01*
G37*
G36*
X023276Y013940D02*
X023446Y014110D01*
X024060Y013496D01*
X023890Y013326D01*
X023276Y013940D01*
G37*
G36*
X021402Y015814D02*
X021572Y015984D01*
X022186Y015370D01*
X022016Y015200D01*
X021402Y015814D01*
G37*
G36*
X021756Y016167D02*
X021926Y016337D01*
X022540Y015723D01*
X022370Y015553D01*
X021756Y016167D01*
G37*
G36*
X022109Y016521D02*
X022279Y016691D01*
X022893Y016077D01*
X022723Y015907D01*
X022109Y016521D01*
G37*
G36*
X022463Y016874D02*
X022633Y017044D01*
X023247Y016430D01*
X023077Y016260D01*
X022463Y016874D01*
G37*
M02*
