%
M48
M72
T01C0.0197
T02C0.0945
%
T01
X26603Y11287
X25767Y12123
X23401Y10870
X20617Y10591
X20478Y13236
X22844Y14489
X23262Y14906
X22009Y19778
X22705Y19639
X22148Y16577
X23679Y16438
X23819Y15463
X26603Y17969
X27159Y17969
X25350Y19221
X27994Y14906
X19643Y21309
X11152Y11705
X12126Y13793
X11430Y15324
X10456Y14906
X12266Y18108
X12544Y19221
X12961Y19639
X12961Y21309
X12544Y21727
X10874Y21727
X12266Y24232
X11430Y26181
X16581Y26042
X16581Y26599
X17137Y27155
X17694Y27155
X20896Y24232
X13936Y11705
X15189Y11009
X15189Y10452
X16581Y10174
X17833Y10591
T02
X18112Y22840
X23123Y17829
M30
