G75*
G70*
%OFA0B0*%
%FSLAX24Y24*%
%IPPOS*%
%LPD*%
%AMOC8*
5,1,8,0,0,1.08239X$1,22.5*
%
%ADD10C,0.0000*%
%ADD11C,0.0060*%
%ADD12C,0.0080*%
%ADD13C,0.0100*%
%ADD14C,0.0070*%
D10*
X009756Y010038D02*
X009756Y025786D01*
X009873Y026053D01*
X010003Y026314D01*
X010146Y026569D01*
X010300Y026816D01*
X010467Y027055D01*
X010645Y027287D01*
X010833Y027509D01*
X011033Y027722D01*
X011242Y027925D01*
X011461Y028117D01*
X011689Y028299D01*
X011925Y028470D01*
X012170Y028629D01*
X012422Y028776D01*
X012680Y028911D01*
X012945Y029033D01*
X013216Y029142D01*
X013491Y029238D01*
X013771Y029320D01*
X014054Y029389D01*
X014340Y029444D01*
X014629Y029485D01*
X014919Y029513D01*
X015211Y029526D01*
X015502Y029525D01*
X015794Y029510D01*
X016084Y029481D01*
X016372Y029438D01*
X016658Y029381D01*
X016941Y029310D01*
X017220Y029226D01*
X017495Y029128D01*
X017765Y029017D01*
X018029Y028893D01*
X018286Y028757D01*
X018537Y028608D01*
X018781Y028448D01*
X019016Y028276D01*
X019243Y028092D01*
X019461Y027898D01*
X019669Y027694D01*
X019866Y027480D01*
X020054Y027256D01*
X020230Y027024D01*
X020395Y026783D01*
X020548Y026535D01*
X020689Y026280D01*
X020817Y026018D01*
X020933Y025750D01*
X021035Y025477D01*
X021125Y025200D01*
X021200Y024918D01*
X021262Y024633D01*
X021310Y024345D01*
X021345Y024056D01*
X021365Y023765D01*
X021371Y023473D01*
X021363Y023182D01*
X021341Y022891D01*
X021305Y022602D01*
X021255Y022314D01*
X021191Y022030D01*
X021113Y021749D01*
X021022Y021472D01*
X020918Y021199D01*
X022368Y018112D02*
X022370Y018155D01*
X022376Y018197D01*
X022386Y018239D01*
X022399Y018280D01*
X022416Y018320D01*
X022437Y018357D01*
X022461Y018393D01*
X022488Y018426D01*
X022518Y018457D01*
X022551Y018485D01*
X022586Y018510D01*
X022623Y018531D01*
X022662Y018549D01*
X022702Y018563D01*
X022744Y018574D01*
X022786Y018581D01*
X022829Y018584D01*
X022872Y018583D01*
X022915Y018578D01*
X022957Y018569D01*
X022998Y018557D01*
X023038Y018541D01*
X023076Y018521D01*
X023112Y018498D01*
X023146Y018471D01*
X023178Y018442D01*
X023206Y018410D01*
X023232Y018375D01*
X023254Y018339D01*
X023273Y018300D01*
X023288Y018260D01*
X023300Y018219D01*
X023308Y018176D01*
X023312Y018133D01*
X023312Y018091D01*
X023308Y018048D01*
X023300Y018005D01*
X023288Y017964D01*
X023273Y017924D01*
X023254Y017885D01*
X023232Y017849D01*
X023206Y017814D01*
X023178Y017782D01*
X023146Y017753D01*
X023112Y017726D01*
X023076Y017703D01*
X023038Y017683D01*
X022998Y017667D01*
X022957Y017655D01*
X022915Y017646D01*
X022872Y017641D01*
X022829Y017640D01*
X022786Y017643D01*
X022744Y017650D01*
X022702Y017661D01*
X022662Y017675D01*
X022623Y017693D01*
X022586Y017714D01*
X022551Y017739D01*
X022518Y017767D01*
X022488Y017798D01*
X022461Y017831D01*
X022437Y017867D01*
X022416Y017904D01*
X022399Y017944D01*
X022386Y017985D01*
X022376Y018027D01*
X022370Y018069D01*
X022368Y018112D01*
X020918Y021200D02*
X021190Y021304D01*
X021467Y021395D01*
X021748Y021473D01*
X022033Y021537D01*
X022320Y021587D01*
X022609Y021623D01*
X022900Y021645D01*
X023191Y021653D01*
X023483Y021647D01*
X023774Y021627D01*
X024063Y021592D01*
X024351Y021544D01*
X024636Y021482D01*
X024918Y021407D01*
X025195Y021317D01*
X025468Y021215D01*
X025736Y021099D01*
X025998Y020971D01*
X026253Y020830D01*
X026501Y020677D01*
X026742Y020512D01*
X026974Y020336D01*
X027198Y020148D01*
X027412Y019951D01*
X027616Y019743D01*
X027810Y019525D01*
X027994Y019298D01*
X028166Y019063D01*
X028326Y018819D01*
X028475Y018568D01*
X028611Y018311D01*
X028735Y018047D01*
X028846Y017777D01*
X028944Y017502D01*
X029028Y017223D01*
X029099Y016940D01*
X029156Y016654D01*
X029199Y016366D01*
X029228Y016076D01*
X029243Y015784D01*
X029244Y015493D01*
X029231Y015201D01*
X029203Y014911D01*
X029162Y014622D01*
X029107Y014336D01*
X029038Y014053D01*
X028956Y013773D01*
X028860Y013498D01*
X028751Y013227D01*
X028629Y012962D01*
X028494Y012704D01*
X028347Y012452D01*
X028188Y012207D01*
X028017Y011971D01*
X027835Y011743D01*
X027643Y011524D01*
X027440Y011315D01*
X027227Y011115D01*
X027005Y010927D01*
X026773Y010749D01*
X026534Y010582D01*
X026287Y010428D01*
X026032Y010285D01*
X025771Y010155D01*
X025504Y010038D01*
X009756Y010038D01*
X017357Y023123D02*
X017359Y023166D01*
X017365Y023208D01*
X017375Y023250D01*
X017388Y023291D01*
X017405Y023331D01*
X017426Y023368D01*
X017450Y023404D01*
X017477Y023437D01*
X017507Y023468D01*
X017540Y023496D01*
X017575Y023521D01*
X017612Y023542D01*
X017651Y023560D01*
X017691Y023574D01*
X017733Y023585D01*
X017775Y023592D01*
X017818Y023595D01*
X017861Y023594D01*
X017904Y023589D01*
X017946Y023580D01*
X017987Y023568D01*
X018027Y023552D01*
X018065Y023532D01*
X018101Y023509D01*
X018135Y023482D01*
X018167Y023453D01*
X018195Y023421D01*
X018221Y023386D01*
X018243Y023350D01*
X018262Y023311D01*
X018277Y023271D01*
X018289Y023230D01*
X018297Y023187D01*
X018301Y023144D01*
X018301Y023102D01*
X018297Y023059D01*
X018289Y023016D01*
X018277Y022975D01*
X018262Y022935D01*
X018243Y022896D01*
X018221Y022860D01*
X018195Y022825D01*
X018167Y022793D01*
X018135Y022764D01*
X018101Y022737D01*
X018065Y022714D01*
X018027Y022694D01*
X017987Y022678D01*
X017946Y022666D01*
X017904Y022657D01*
X017861Y022652D01*
X017818Y022651D01*
X017775Y022654D01*
X017733Y022661D01*
X017691Y022672D01*
X017651Y022686D01*
X017612Y022704D01*
X017575Y022725D01*
X017540Y022750D01*
X017507Y022778D01*
X017477Y022809D01*
X017450Y022842D01*
X017426Y022878D01*
X017405Y022915D01*
X017388Y022955D01*
X017375Y022996D01*
X017365Y023038D01*
X017359Y023080D01*
X017357Y023123D01*
D11*
X022995Y019113D02*
X023155Y018953D01*
X023075Y019033D02*
X023316Y019273D01*
X023316Y019113D01*
X023286Y018903D02*
X023246Y018863D01*
X023286Y018822D01*
X023326Y018863D01*
X023286Y018903D01*
X023386Y018722D02*
X023546Y018562D01*
X023466Y018642D02*
X023706Y018883D01*
X023706Y018722D01*
X024060Y018369D02*
X024140Y018288D01*
X024140Y018369D02*
X023980Y018208D01*
X023900Y018208D01*
X024237Y018192D02*
X024277Y018152D01*
X024277Y017991D01*
X024197Y017911D02*
X024357Y018071D01*
X024417Y017931D02*
X024297Y017811D01*
X024417Y017691D01*
X024497Y017691D01*
X024497Y017771D01*
X024377Y017891D01*
X024417Y017931D02*
X024497Y017931D01*
X024578Y017851D01*
X024678Y017671D02*
X024638Y017631D01*
X024798Y017471D01*
X024838Y017511D02*
X024838Y017591D01*
X024758Y017671D01*
X024678Y017671D01*
X024597Y017511D02*
X024678Y017430D01*
X024758Y017430D01*
X024838Y017511D01*
X024938Y017411D02*
X025098Y017250D01*
X024978Y017130D02*
X025219Y017371D01*
X025058Y017531D02*
X024818Y017290D01*
X024911Y016602D02*
X024791Y016482D01*
X024911Y016602D02*
X024991Y016602D01*
X025112Y016482D01*
X024951Y016322D01*
X025091Y016262D02*
X025171Y016342D01*
X025252Y016342D01*
X025332Y016262D01*
X025332Y016182D01*
X025252Y016101D01*
X025171Y016101D01*
X025091Y016182D01*
X025091Y016262D01*
X025305Y015968D02*
X025385Y015888D01*
X025345Y015928D02*
X025506Y016088D01*
X025546Y016048D01*
X025586Y016168D02*
X025626Y016209D01*
X025769Y016339D02*
X025849Y016259D01*
X025930Y016259D01*
X026010Y016339D01*
X026010Y016419D01*
X025930Y016499D01*
X025849Y016499D01*
X025809Y016459D01*
X025970Y016299D01*
X026110Y016239D02*
X025990Y016119D01*
X026110Y016239D02*
X026190Y016239D01*
X026310Y016119D01*
X026150Y015958D01*
X026243Y015865D02*
X026324Y015785D01*
X026283Y015825D02*
X026444Y015985D01*
X026484Y015945D01*
X026524Y016065D02*
X026564Y016105D01*
X026577Y015852D02*
X026658Y015771D01*
X026658Y015852D02*
X026497Y015691D01*
X026417Y015691D01*
X026597Y015511D02*
X026717Y015631D01*
X026798Y015631D01*
X026918Y015511D01*
X026757Y015351D01*
X026938Y015331D02*
X027098Y015170D01*
X027058Y015130D02*
X027138Y015210D01*
X027138Y015291D01*
X027058Y015371D01*
X026978Y015371D01*
X026938Y015331D01*
X026898Y015210D02*
X026978Y015130D01*
X027058Y015130D01*
X027111Y014997D02*
X027191Y014917D01*
X027151Y014957D02*
X027392Y015197D01*
X027432Y015157D01*
X027412Y014937D02*
X027291Y014817D01*
X027412Y014696D01*
X027492Y014696D01*
X027492Y014776D01*
X027372Y014897D01*
X027412Y014937D02*
X027492Y014937D01*
X027572Y014857D01*
X027792Y014797D02*
X027632Y014636D01*
X027632Y014476D01*
X027792Y014476D01*
X027953Y014636D01*
X027495Y014259D02*
X027495Y014179D01*
X027455Y014139D01*
X027375Y014139D01*
X027295Y014219D01*
X027214Y014219D01*
X027174Y014179D01*
X027174Y014099D01*
X027255Y014018D01*
X027335Y014018D01*
X027495Y014259D02*
X027415Y014339D01*
X027335Y014339D01*
X027275Y014479D02*
X027115Y014479D01*
X027115Y014640D01*
X026874Y014399D01*
X026774Y014499D02*
X026654Y014619D01*
X026654Y014699D01*
X026814Y014860D01*
X026894Y014860D01*
X027015Y014740D01*
X026774Y014499D01*
X027034Y014239D02*
X027275Y014479D01*
X026494Y015260D02*
X026333Y015421D01*
X026293Y015220D02*
X026373Y015140D01*
X026253Y015020D02*
X026494Y015260D01*
X026253Y015020D02*
X026093Y015180D01*
X026033Y015320D02*
X026113Y015400D01*
X026113Y015481D01*
X025993Y015601D01*
X026073Y015681D02*
X025832Y015441D01*
X025953Y015320D01*
X026033Y015320D01*
X025732Y015541D02*
X025652Y015621D01*
X025692Y015581D02*
X025853Y015741D01*
X025893Y015701D01*
X025933Y015821D02*
X025973Y015861D01*
X025719Y015875D02*
X025639Y015955D01*
X025719Y015955D02*
X025559Y015794D01*
X025479Y015794D01*
X025499Y016609D02*
X025379Y016729D01*
X025379Y016810D01*
X025459Y016810D01*
X025539Y016729D01*
X025619Y016729D01*
X025619Y016810D01*
X025499Y016930D01*
X025790Y016719D02*
X025790Y016639D01*
X025790Y016719D02*
X025870Y016800D01*
X013181Y012869D02*
X013181Y012742D01*
X013025Y012714D01*
X012976Y012579D01*
X013068Y012459D01*
X012976Y012367D01*
X012849Y012452D01*
X012721Y012395D01*
X012686Y012247D01*
X012559Y012247D01*
X012530Y012388D01*
X012474Y012403D01*
X012566Y012636D01*
X012566Y012593D02*
X012530Y012417D01*
X012601Y012275D01*
X012672Y012275D01*
X012707Y012452D01*
X012884Y012487D01*
X012955Y012417D01*
X013025Y012487D01*
X012919Y012593D01*
X012990Y012735D01*
X013167Y012770D01*
X013167Y012841D01*
X012990Y012876D01*
X012955Y013053D01*
X013025Y013124D01*
X012955Y013194D01*
X012813Y013124D01*
X012672Y013194D01*
X012672Y013336D01*
X012601Y013336D01*
X012530Y013194D01*
X012389Y013124D01*
X012283Y013230D01*
X012248Y013124D01*
X012318Y012982D01*
X012212Y012876D01*
X012106Y012841D01*
X012106Y012770D01*
X012212Y012735D01*
X012248Y012699D01*
X012389Y012770D01*
X012460Y012982D01*
X012636Y013018D01*
X012778Y012947D01*
X012849Y012806D01*
X012778Y012664D01*
X012636Y012593D01*
X012566Y012593D01*
X012558Y012556D02*
X012957Y012556D01*
X012930Y012614D02*
X012678Y012614D01*
X012782Y012673D02*
X012959Y012673D01*
X012988Y012731D02*
X012812Y012731D01*
X012841Y012790D02*
X013167Y012790D01*
X013129Y012849D02*
X012827Y012849D01*
X012798Y012907D02*
X012984Y012907D01*
X013025Y012897D02*
X012976Y013018D01*
X013068Y013152D01*
X012976Y013244D01*
X012841Y013152D01*
X012721Y013202D01*
X012686Y013364D01*
X012559Y013364D01*
X012530Y013209D01*
X012410Y013159D01*
X012283Y013244D01*
X012191Y013152D01*
X012269Y013032D01*
X012219Y012897D01*
X012064Y012869D01*
X012064Y012742D01*
X012205Y012714D01*
X012226Y012650D01*
X012453Y012749D01*
X012396Y012790D02*
X012106Y012790D01*
X012129Y012849D02*
X012415Y012849D01*
X012435Y012907D02*
X012243Y012907D01*
X012301Y012966D02*
X012454Y012966D01*
X012297Y013024D02*
X012960Y013024D01*
X012972Y012966D02*
X012741Y012966D01*
X012778Y013141D02*
X012424Y013141D01*
X012371Y013141D02*
X012253Y013141D01*
X012268Y013083D02*
X012984Y013083D01*
X013008Y013141D02*
X012848Y013141D01*
X012672Y013200D02*
X012533Y013200D01*
X012562Y013258D02*
X012672Y013258D01*
X012672Y013317D02*
X012592Y013317D01*
X012313Y013200D02*
X012273Y013200D01*
X012452Y012749D02*
X012446Y012775D01*
X012443Y012800D01*
X012444Y012826D01*
X012449Y012852D01*
X012457Y012876D01*
X012469Y012899D01*
X012484Y012920D01*
X012502Y012939D01*
X012522Y012955D01*
X012545Y012968D01*
X012569Y012977D01*
X012594Y012983D01*
X012620Y012985D01*
X012646Y012983D01*
X012671Y012978D01*
X012696Y012969D01*
X012718Y012957D01*
X012739Y012941D01*
X012757Y012923D01*
X012773Y012902D01*
X012785Y012880D01*
X012794Y012855D01*
X012799Y012830D01*
X012801Y012804D01*
X012799Y012778D01*
X012793Y012753D01*
X012784Y012729D01*
X012771Y012706D01*
X012755Y012686D01*
X012736Y012668D01*
X012715Y012653D01*
X012692Y012641D01*
X012668Y012633D01*
X012642Y012628D01*
X012616Y012627D01*
X012590Y012630D01*
X012565Y012636D01*
X012546Y012497D02*
X013015Y012497D01*
X012977Y012439D02*
X012933Y012439D01*
X012704Y012439D02*
X012535Y012439D01*
X012549Y012380D02*
X012693Y012380D01*
X012681Y012322D02*
X012578Y012322D01*
X012311Y012731D02*
X012216Y012731D01*
X013025Y012897D02*
X013181Y012869D01*
D12*
X010282Y011277D02*
X010282Y011178D01*
X010084Y010980D01*
X009985Y010980D01*
X009886Y011079D01*
X009886Y011178D01*
X010084Y011376D02*
X010183Y011376D01*
X010282Y011277D01*
D13*
X011740Y016972D02*
X012093Y017325D01*
X011562Y017148D02*
X011564Y017185D01*
X011570Y017222D01*
X011579Y017257D01*
X011593Y017292D01*
X011609Y017325D01*
X011630Y017356D01*
X011653Y017385D01*
X011679Y017411D01*
X011708Y017434D01*
X011739Y017455D01*
X011772Y017471D01*
X011807Y017485D01*
X011842Y017494D01*
X011879Y017500D01*
X011916Y017502D01*
X011953Y017500D01*
X011990Y017494D01*
X012025Y017485D01*
X012060Y017471D01*
X012093Y017455D01*
X012124Y017434D01*
X012153Y017411D01*
X012179Y017385D01*
X012202Y017356D01*
X012223Y017325D01*
X012239Y017292D01*
X012253Y017257D01*
X012262Y017222D01*
X012268Y017185D01*
X012270Y017148D01*
X012268Y017111D01*
X012262Y017074D01*
X012253Y017039D01*
X012239Y017004D01*
X012223Y016971D01*
X012202Y016940D01*
X012179Y016911D01*
X012153Y016885D01*
X012124Y016862D01*
X012093Y016841D01*
X012060Y016825D01*
X012025Y016811D01*
X011990Y016802D01*
X011953Y016796D01*
X011916Y016794D01*
X011879Y016796D01*
X011842Y016802D01*
X011807Y016811D01*
X011772Y016825D01*
X011739Y016841D01*
X011708Y016862D01*
X011679Y016885D01*
X011653Y016911D01*
X011630Y016940D01*
X011609Y016971D01*
X011593Y017004D01*
X011579Y017039D01*
X011570Y017074D01*
X011564Y017111D01*
X011562Y017148D01*
X011740Y017325D02*
X012093Y016972D01*
X010870Y017276D02*
X016994Y011152D01*
X018247Y012405D01*
X019138Y011514D01*
X019556Y011931D01*
X020669Y013045D02*
X021087Y013463D01*
X020196Y014353D01*
X021449Y015606D01*
X015324Y021731D01*
X014071Y020478D01*
X013180Y021369D01*
X012763Y020951D01*
X011649Y019838D02*
X011232Y019420D01*
X012123Y018529D01*
X010870Y017276D01*
X013487Y016998D02*
X016716Y013769D01*
X018832Y015885D01*
X015602Y019114D01*
X013487Y016998D01*
X015098Y020684D02*
X015100Y020721D01*
X015106Y020758D01*
X015115Y020793D01*
X015129Y020828D01*
X015145Y020861D01*
X015166Y020892D01*
X015189Y020921D01*
X015215Y020947D01*
X015244Y020970D01*
X015275Y020991D01*
X015308Y021007D01*
X015343Y021021D01*
X015378Y021030D01*
X015415Y021036D01*
X015452Y021038D01*
X015489Y021036D01*
X015526Y021030D01*
X015561Y021021D01*
X015596Y021007D01*
X015629Y020991D01*
X015660Y020970D01*
X015689Y020947D01*
X015715Y020921D01*
X015738Y020892D01*
X015759Y020861D01*
X015775Y020828D01*
X015789Y020793D01*
X015798Y020758D01*
X015804Y020721D01*
X015806Y020684D01*
X015804Y020647D01*
X015798Y020610D01*
X015789Y020575D01*
X015775Y020540D01*
X015759Y020507D01*
X015738Y020476D01*
X015715Y020447D01*
X015689Y020421D01*
X015660Y020398D01*
X015629Y020377D01*
X015596Y020361D01*
X015561Y020347D01*
X015526Y020338D01*
X015489Y020332D01*
X015452Y020330D01*
X015415Y020332D01*
X015378Y020338D01*
X015343Y020347D01*
X015308Y020361D01*
X015275Y020377D01*
X015244Y020398D01*
X015215Y020421D01*
X015189Y020447D01*
X015166Y020476D01*
X015145Y020507D01*
X015129Y020540D01*
X015115Y020575D01*
X015106Y020610D01*
X015100Y020647D01*
X015098Y020684D01*
X020225Y015911D02*
X020579Y015557D01*
X020048Y015734D02*
X020050Y015771D01*
X020056Y015808D01*
X020065Y015843D01*
X020079Y015878D01*
X020095Y015911D01*
X020116Y015942D01*
X020139Y015971D01*
X020165Y015997D01*
X020194Y016020D01*
X020225Y016041D01*
X020258Y016057D01*
X020293Y016071D01*
X020328Y016080D01*
X020365Y016086D01*
X020402Y016088D01*
X020439Y016086D01*
X020476Y016080D01*
X020511Y016071D01*
X020546Y016057D01*
X020579Y016041D01*
X020610Y016020D01*
X020639Y015997D01*
X020665Y015971D01*
X020688Y015942D01*
X020709Y015911D01*
X020725Y015878D01*
X020739Y015843D01*
X020748Y015808D01*
X020754Y015771D01*
X020756Y015734D01*
X020754Y015697D01*
X020748Y015660D01*
X020739Y015625D01*
X020725Y015590D01*
X020709Y015557D01*
X020688Y015526D01*
X020665Y015497D01*
X020639Y015471D01*
X020610Y015448D01*
X020579Y015427D01*
X020546Y015411D01*
X020511Y015397D01*
X020476Y015388D01*
X020439Y015382D01*
X020402Y015380D01*
X020365Y015382D01*
X020328Y015388D01*
X020293Y015397D01*
X020258Y015411D01*
X020225Y015427D01*
X020194Y015448D01*
X020165Y015471D01*
X020139Y015497D01*
X020116Y015526D01*
X020095Y015557D01*
X020079Y015590D01*
X020065Y015625D01*
X020056Y015660D01*
X020050Y015697D01*
X020048Y015734D01*
X016512Y012199D02*
X016514Y012236D01*
X016520Y012273D01*
X016529Y012308D01*
X016543Y012343D01*
X016559Y012376D01*
X016580Y012407D01*
X016603Y012436D01*
X016629Y012462D01*
X016658Y012485D01*
X016689Y012506D01*
X016722Y012522D01*
X016757Y012536D01*
X016792Y012545D01*
X016829Y012551D01*
X016866Y012553D01*
X016903Y012551D01*
X016940Y012545D01*
X016975Y012536D01*
X017010Y012522D01*
X017043Y012506D01*
X017074Y012485D01*
X017103Y012462D01*
X017129Y012436D01*
X017152Y012407D01*
X017173Y012376D01*
X017189Y012343D01*
X017203Y012308D01*
X017212Y012273D01*
X017218Y012236D01*
X017220Y012199D01*
X017218Y012162D01*
X017212Y012125D01*
X017203Y012090D01*
X017189Y012055D01*
X017173Y012022D01*
X017152Y011991D01*
X017129Y011962D01*
X017103Y011936D01*
X017074Y011913D01*
X017043Y011892D01*
X017010Y011876D01*
X016975Y011862D01*
X016940Y011853D01*
X016903Y011847D01*
X016866Y011845D01*
X016829Y011847D01*
X016792Y011853D01*
X016757Y011862D01*
X016722Y011876D01*
X016689Y011892D01*
X016658Y011913D01*
X016629Y011936D01*
X016603Y011962D01*
X016580Y011991D01*
X016559Y012022D01*
X016543Y012055D01*
X016529Y012090D01*
X016520Y012125D01*
X016514Y012162D01*
X016512Y012199D01*
D14*
X017409Y020105D02*
X017236Y020279D01*
X017236Y020394D01*
X017294Y020452D01*
X017409Y020452D01*
X017583Y020279D01*
X017756Y020452D02*
X017409Y020105D01*
X017409Y020452D02*
X017409Y020568D01*
X017467Y020626D01*
X017583Y020626D01*
X017756Y020452D01*
X017276Y020701D02*
X017045Y020470D01*
X017218Y020643D02*
X016987Y020874D01*
X017045Y020932D02*
X016814Y020701D01*
X017045Y020932D02*
X017276Y020932D01*
X017276Y020701D01*
X017027Y021181D02*
X016796Y021412D01*
X016911Y021297D02*
X016565Y020950D01*
X016200Y021315D02*
X016547Y021661D01*
X016663Y021546D02*
X016431Y021777D01*
X016182Y021795D02*
X016182Y022026D01*
X015836Y021679D01*
X015951Y021564D02*
X015720Y021795D01*
M02*
