G75*
G70*
%OFA0B0*%
%FSLAX24Y24*%
%IPPOS*%
%LPD*%
%AMOC8*
5,1,8,0,0,1.08239X$1,22.5*
%
%ADD10C,0.0000*%
%ADD11R,0.1417X0.1417*%
%ADD12C,0.0120*%
%ADD13C,0.0100*%
%ADD14C,0.0357*%
D10*
X010038Y009756D02*
X025786Y009756D01*
X026053Y009873D01*
X026314Y010003D01*
X026569Y010146D01*
X026816Y010300D01*
X027055Y010467D01*
X027287Y010645D01*
X027509Y010833D01*
X027722Y011033D01*
X027925Y011242D01*
X028117Y011461D01*
X028299Y011689D01*
X028470Y011925D01*
X028629Y012170D01*
X028776Y012422D01*
X028911Y012680D01*
X029033Y012945D01*
X029142Y013216D01*
X029238Y013491D01*
X029320Y013771D01*
X029389Y014054D01*
X029444Y014340D01*
X029485Y014629D01*
X029513Y014919D01*
X029526Y015211D01*
X029525Y015502D01*
X029510Y015794D01*
X029481Y016084D01*
X029438Y016372D01*
X029381Y016658D01*
X029310Y016941D01*
X029226Y017220D01*
X029128Y017495D01*
X029017Y017765D01*
X028893Y018029D01*
X028757Y018286D01*
X028608Y018537D01*
X028448Y018781D01*
X028276Y019016D01*
X028092Y019243D01*
X027898Y019461D01*
X027694Y019669D01*
X027480Y019866D01*
X027256Y020054D01*
X027024Y020230D01*
X026783Y020395D01*
X026535Y020548D01*
X026280Y020689D01*
X026018Y020817D01*
X025750Y020933D01*
X025477Y021035D01*
X025200Y021125D01*
X024918Y021200D01*
X024633Y021262D01*
X024345Y021310D01*
X024056Y021345D01*
X023765Y021365D01*
X023473Y021371D01*
X023182Y021363D01*
X022891Y021341D01*
X022602Y021305D01*
X022315Y021255D01*
X022030Y021191D01*
X021749Y021113D01*
X021472Y021022D01*
X021200Y020918D01*
X017640Y022840D02*
X017642Y022883D01*
X017648Y022925D01*
X017658Y022967D01*
X017671Y023008D01*
X017688Y023048D01*
X017709Y023085D01*
X017733Y023121D01*
X017760Y023154D01*
X017790Y023185D01*
X017823Y023213D01*
X017858Y023238D01*
X017895Y023259D01*
X017934Y023277D01*
X017974Y023291D01*
X018016Y023302D01*
X018058Y023309D01*
X018101Y023312D01*
X018144Y023311D01*
X018187Y023306D01*
X018229Y023297D01*
X018270Y023285D01*
X018310Y023269D01*
X018348Y023249D01*
X018384Y023226D01*
X018418Y023199D01*
X018450Y023170D01*
X018478Y023138D01*
X018504Y023103D01*
X018526Y023067D01*
X018545Y023028D01*
X018560Y022988D01*
X018572Y022947D01*
X018580Y022904D01*
X018584Y022861D01*
X018584Y022819D01*
X018580Y022776D01*
X018572Y022733D01*
X018560Y022692D01*
X018545Y022652D01*
X018526Y022613D01*
X018504Y022577D01*
X018478Y022542D01*
X018450Y022510D01*
X018418Y022481D01*
X018384Y022454D01*
X018348Y022431D01*
X018310Y022411D01*
X018270Y022395D01*
X018229Y022383D01*
X018187Y022374D01*
X018144Y022369D01*
X018101Y022368D01*
X018058Y022371D01*
X018016Y022378D01*
X017974Y022389D01*
X017934Y022403D01*
X017895Y022421D01*
X017858Y022442D01*
X017823Y022467D01*
X017790Y022495D01*
X017760Y022526D01*
X017733Y022559D01*
X017709Y022595D01*
X017688Y022632D01*
X017671Y022672D01*
X017658Y022713D01*
X017648Y022755D01*
X017642Y022797D01*
X017640Y022840D01*
X021200Y020917D02*
X021304Y021190D01*
X021395Y021467D01*
X021473Y021748D01*
X021537Y022032D01*
X021587Y022320D01*
X021623Y022609D01*
X021645Y022900D01*
X021653Y023191D01*
X021647Y023483D01*
X021627Y023774D01*
X021592Y024063D01*
X021544Y024351D01*
X021482Y024636D01*
X021407Y024918D01*
X021317Y025195D01*
X021215Y025468D01*
X021099Y025736D01*
X020971Y025998D01*
X020830Y026253D01*
X020677Y026501D01*
X020512Y026742D01*
X020336Y026974D01*
X020148Y027198D01*
X019951Y027412D01*
X019743Y027616D01*
X019525Y027810D01*
X019298Y027994D01*
X019063Y028166D01*
X018819Y028326D01*
X018568Y028475D01*
X018311Y028611D01*
X018047Y028735D01*
X017777Y028846D01*
X017502Y028944D01*
X017223Y029028D01*
X016940Y029099D01*
X016654Y029156D01*
X016366Y029199D01*
X016076Y029228D01*
X015784Y029243D01*
X015493Y029244D01*
X015201Y029231D01*
X014911Y029203D01*
X014622Y029162D01*
X014336Y029107D01*
X014053Y029038D01*
X013773Y028956D01*
X013498Y028860D01*
X013227Y028751D01*
X012962Y028629D01*
X012704Y028494D01*
X012452Y028347D01*
X012207Y028188D01*
X011971Y028017D01*
X011743Y027835D01*
X011524Y027643D01*
X011315Y027440D01*
X011115Y027227D01*
X010927Y027005D01*
X010749Y026773D01*
X010582Y026534D01*
X010428Y026287D01*
X010285Y026032D01*
X010155Y025771D01*
X010038Y025504D01*
X010038Y009756D01*
X022651Y017829D02*
X022653Y017872D01*
X022659Y017914D01*
X022669Y017956D01*
X022682Y017997D01*
X022699Y018037D01*
X022720Y018074D01*
X022744Y018110D01*
X022771Y018143D01*
X022801Y018174D01*
X022834Y018202D01*
X022869Y018227D01*
X022906Y018248D01*
X022945Y018266D01*
X022985Y018280D01*
X023027Y018291D01*
X023069Y018298D01*
X023112Y018301D01*
X023155Y018300D01*
X023198Y018295D01*
X023240Y018286D01*
X023281Y018274D01*
X023321Y018258D01*
X023359Y018238D01*
X023395Y018215D01*
X023429Y018188D01*
X023461Y018159D01*
X023489Y018127D01*
X023515Y018092D01*
X023537Y018056D01*
X023556Y018017D01*
X023571Y017977D01*
X023583Y017936D01*
X023591Y017893D01*
X023595Y017850D01*
X023595Y017808D01*
X023591Y017765D01*
X023583Y017722D01*
X023571Y017681D01*
X023556Y017641D01*
X023537Y017602D01*
X023515Y017566D01*
X023489Y017531D01*
X023461Y017499D01*
X023429Y017470D01*
X023395Y017443D01*
X023359Y017420D01*
X023321Y017400D01*
X023281Y017384D01*
X023240Y017372D01*
X023198Y017363D01*
X023155Y017358D01*
X023112Y017357D01*
X023069Y017360D01*
X023027Y017367D01*
X022985Y017378D01*
X022945Y017392D01*
X022906Y017410D01*
X022869Y017431D01*
X022834Y017456D01*
X022801Y017484D01*
X022771Y017515D01*
X022744Y017548D01*
X022720Y017584D01*
X022699Y017621D01*
X022682Y017661D01*
X022669Y017702D01*
X022659Y017744D01*
X022653Y017786D01*
X022651Y017829D01*
D11*
G36*
X019658Y011942D02*
X020659Y012943D01*
X021660Y011942D01*
X020659Y010941D01*
X019658Y011942D01*
G37*
G36*
X011223Y020377D02*
X012224Y021378D01*
X013225Y020377D01*
X012224Y019376D01*
X011223Y020377D01*
G37*
D12*
X017904Y020627D02*
X018251Y020634D01*
X018428Y020457D01*
X018689Y020719D01*
X018774Y020804D01*
X018512Y021066D01*
X018343Y021066D01*
X018166Y020889D01*
X018166Y020719D01*
X018251Y020634D01*
X018428Y020457D02*
X018336Y020365D01*
X018251Y020281D01*
X018336Y020365D02*
X018336Y020196D01*
X018512Y020019D01*
X018689Y020026D01*
X018859Y020196D01*
X018682Y020373D01*
X018689Y020719D02*
X018859Y020719D01*
X019029Y020549D01*
X019029Y020380D01*
X019283Y020097D02*
X019467Y020097D01*
X019637Y019927D01*
X019637Y019757D01*
X019630Y019750D02*
X019545Y019665D01*
X018859Y019673D01*
X019205Y019326D01*
X019509Y019192D02*
X019509Y019022D01*
X019679Y018852D01*
X019849Y018852D01*
X020188Y019192D01*
X020188Y019361D01*
X020019Y019531D01*
X019849Y019531D01*
X019509Y019192D01*
X020181Y019199D01*
X020321Y018886D02*
X020664Y018886D01*
X020659Y018881D02*
X020160Y018382D01*
X020324Y018207D02*
X019981Y018550D01*
X020613Y018089D02*
X020613Y017919D01*
X020789Y017742D01*
X020959Y017742D01*
X021129Y017912D01*
X021136Y017919D02*
X021136Y018074D01*
X021044Y018166D01*
X020782Y018258D01*
X021037Y018513D01*
X021383Y018166D01*
D13*
X021502Y017837D02*
X022360Y017837D01*
X022360Y017935D02*
X021647Y017935D01*
X021680Y017968D02*
X021733Y018097D01*
X021733Y018236D01*
X021680Y018365D01*
X021581Y018464D01*
X022679Y018464D01*
X022476Y018261D01*
X022360Y017981D01*
X022360Y017678D01*
X022476Y017398D01*
X022691Y017183D01*
X022971Y017067D01*
X023274Y017067D01*
X023555Y017183D01*
X023769Y017398D01*
X023885Y017678D01*
X023885Y017981D01*
X023769Y018261D01*
X023566Y018464D01*
X026183Y018464D01*
X026309Y018338D01*
X026205Y018234D01*
X026134Y018062D01*
X026134Y017981D01*
X024034Y015881D01*
X023912Y015932D01*
X023725Y015932D01*
X023604Y015881D01*
X023692Y015969D01*
X023773Y015969D01*
X023945Y016040D01*
X024077Y016172D01*
X024148Y016344D01*
X024148Y016531D01*
X024077Y016703D01*
X023945Y016835D01*
X023773Y016906D01*
X023586Y016906D01*
X023414Y016835D01*
X023282Y016703D01*
X023211Y016531D01*
X023211Y016450D01*
X022488Y015727D01*
X022488Y016254D01*
X022545Y016311D01*
X022617Y016484D01*
X022617Y016670D01*
X022545Y016842D01*
X022414Y016974D01*
X022241Y017045D01*
X022055Y017045D01*
X021883Y016974D01*
X021751Y016842D01*
X021680Y016670D01*
X021680Y016484D01*
X021751Y016311D01*
X021808Y016254D01*
X021808Y015604D01*
X016796Y010592D01*
X016674Y010642D01*
X016593Y010642D01*
X011899Y015336D01*
X011899Y015417D01*
X011827Y015589D01*
X011696Y015721D01*
X011524Y015792D01*
X011353Y015792D01*
X011353Y020033D01*
X011581Y019805D01*
X012153Y020377D01*
X011581Y020949D01*
X011353Y020720D01*
X011353Y020890D01*
X012458Y021995D01*
X012554Y022091D01*
X012605Y022216D01*
X012605Y022298D01*
X013317Y021586D01*
X013317Y020497D01*
X013317Y020497D01*
X012866Y020949D01*
X012294Y020377D01*
X012224Y020447D01*
X012796Y021019D01*
X012316Y021499D01*
X012282Y021519D01*
X012243Y021529D01*
X012204Y021529D01*
X012166Y021519D01*
X012132Y021499D01*
X011652Y021019D01*
X012224Y020447D01*
X012153Y020377D01*
X012224Y020306D01*
X012294Y020376D01*
X012866Y019805D01*
X013317Y020256D01*
X013317Y019641D01*
X012253Y018576D01*
X012172Y018576D01*
X012000Y018505D01*
X011868Y018373D01*
X011797Y018201D01*
X011797Y018015D01*
X011868Y017843D01*
X012000Y017711D01*
X012172Y017639D01*
X012359Y017639D01*
X012531Y017711D01*
X012663Y017843D01*
X012734Y018015D01*
X012734Y018096D01*
X013850Y019212D01*
X013946Y019307D01*
X013997Y019432D01*
X013997Y021659D01*
X013997Y021794D01*
X013997Y021795D01*
X013983Y021830D01*
X013946Y021919D01*
X013162Y022703D01*
X013162Y024370D01*
X016165Y027372D01*
X016440Y027372D01*
X016669Y027143D01*
X016669Y027067D01*
X016487Y027067D01*
X016315Y026996D01*
X016183Y026864D01*
X016112Y026692D01*
X016112Y026506D01*
X016183Y026333D01*
X016196Y026320D01*
X016183Y026307D01*
X016112Y026135D01*
X016112Y025949D01*
X016183Y025777D01*
X016315Y025645D01*
X016487Y025574D01*
X016568Y025574D01*
X018885Y023256D01*
X018885Y021188D01*
X018809Y021264D01*
X018711Y021362D01*
X018582Y021415D01*
X018412Y021415D01*
X018273Y021415D01*
X018144Y021362D01*
X017869Y021087D01*
X017822Y020973D01*
X017700Y020920D01*
X017604Y020819D01*
X017553Y020690D01*
X017556Y020550D01*
X017612Y020423D01*
X017712Y020326D01*
X017842Y020276D01*
X017901Y020277D01*
X017901Y020211D01*
X017954Y020082D01*
X018053Y019984D01*
X018137Y019899D01*
X018137Y019899D01*
X018221Y019816D01*
X018224Y019809D01*
X018270Y019767D01*
X018314Y019722D01*
X018321Y019719D01*
X018326Y019715D01*
X018385Y019693D01*
X018443Y019669D01*
X018450Y019669D01*
X018457Y019666D01*
X018509Y019669D01*
X018508Y019606D01*
X018509Y019605D01*
X018509Y019603D01*
X018535Y019540D01*
X018560Y019477D01*
X018562Y019476D01*
X018562Y019474D01*
X018611Y019426D01*
X018658Y019378D01*
X018659Y019377D01*
X019007Y019029D01*
X019136Y018976D01*
X019159Y018976D01*
X019159Y018952D01*
X019177Y018911D01*
X019213Y018824D01*
X019311Y018725D01*
X019311Y018725D01*
X019382Y018654D01*
X019481Y018556D01*
X019610Y018502D01*
X019631Y018502D01*
X019631Y018480D01*
X019685Y018352D01*
X020126Y017910D01*
X020255Y017857D01*
X020263Y017857D01*
X020263Y017849D01*
X020316Y017721D01*
X020414Y017622D01*
X020591Y017445D01*
X020720Y017392D01*
X020859Y017392D01*
X021029Y017392D01*
X021157Y017445D01*
X021256Y017544D01*
X021425Y017714D01*
X021433Y017721D01*
X021476Y017826D01*
X021582Y017870D01*
X021680Y017968D01*
X021707Y018034D02*
X022382Y018034D01*
X022423Y018132D02*
X021733Y018132D01*
X021733Y018231D02*
X022464Y018231D01*
X022545Y018329D02*
X021695Y018329D01*
X021617Y018428D02*
X022643Y018428D01*
X022360Y017738D02*
X021440Y017738D01*
X021425Y017714D02*
X021425Y017714D01*
X021352Y017640D02*
X022376Y017640D01*
X022417Y017541D02*
X021253Y017541D01*
X021256Y017544D02*
X021256Y017544D01*
X021151Y017443D02*
X022458Y017443D01*
X022530Y017344D02*
X011353Y017344D01*
X011353Y017246D02*
X022628Y017246D01*
X022778Y017147D02*
X011353Y017147D01*
X011353Y017048D02*
X025202Y017048D01*
X025300Y017147D02*
X023467Y017147D01*
X023617Y017246D02*
X025399Y017246D01*
X025497Y017344D02*
X023716Y017344D01*
X023788Y017443D02*
X025596Y017443D01*
X025694Y017541D02*
X023828Y017541D01*
X023869Y017640D02*
X025793Y017640D01*
X025891Y017738D02*
X023885Y017738D01*
X023885Y017837D02*
X025990Y017837D01*
X026088Y017935D02*
X023885Y017935D01*
X023863Y018034D02*
X026134Y018034D01*
X026163Y018132D02*
X023822Y018132D01*
X023782Y018231D02*
X026204Y018231D01*
X026301Y018329D02*
X023701Y018329D01*
X023602Y018428D02*
X026219Y018428D01*
X026324Y018804D02*
X027159Y017969D01*
X024097Y014906D01*
X023262Y014906D01*
X022705Y014906D01*
X022287Y014489D01*
X022287Y011983D01*
X023401Y010870D01*
X023540Y010452D02*
X025767Y012679D01*
X023958Y014489D01*
X022844Y014489D01*
X022148Y015463D02*
X022148Y016577D01*
X021714Y016753D02*
X011353Y016753D01*
X011353Y016851D02*
X021760Y016851D01*
X021859Y016950D02*
X011353Y016950D01*
X011353Y016654D02*
X021680Y016654D01*
X021680Y016556D02*
X011353Y016556D01*
X011353Y016457D02*
X021691Y016457D01*
X021732Y016359D02*
X011353Y016359D01*
X011353Y016260D02*
X021802Y016260D01*
X021808Y016162D02*
X011353Y016162D01*
X011353Y016063D02*
X021808Y016063D01*
X021808Y015964D02*
X011353Y015964D01*
X011353Y015866D02*
X021808Y015866D01*
X021808Y015767D02*
X011584Y015767D01*
X011748Y015669D02*
X021808Y015669D01*
X021775Y015570D02*
X011835Y015570D01*
X011876Y015472D02*
X021676Y015472D01*
X021578Y015373D02*
X011899Y015373D01*
X011960Y015275D02*
X021479Y015275D01*
X021380Y015176D02*
X012059Y015176D01*
X012158Y015078D02*
X021282Y015078D01*
X021183Y014979D02*
X012256Y014979D01*
X012355Y014880D02*
X021085Y014880D01*
X020986Y014782D02*
X012453Y014782D01*
X012552Y014683D02*
X020888Y014683D01*
X020789Y014585D02*
X012650Y014585D01*
X012749Y014486D02*
X020691Y014486D01*
X020592Y014388D02*
X012847Y014388D01*
X012946Y014289D02*
X020494Y014289D01*
X020395Y014191D02*
X013044Y014191D01*
X013143Y014092D02*
X020296Y014092D01*
X020198Y013994D02*
X013241Y013994D01*
X013340Y013895D02*
X020099Y013895D01*
X020001Y013796D02*
X013439Y013796D01*
X013537Y013698D02*
X019902Y013698D01*
X019804Y013599D02*
X013636Y013599D01*
X013734Y013501D02*
X019705Y013501D01*
X019607Y013402D02*
X013833Y013402D01*
X013931Y013304D02*
X019508Y013304D01*
X019410Y013205D02*
X014030Y013205D01*
X014128Y013107D02*
X019311Y013107D01*
X019213Y013008D02*
X014227Y013008D01*
X014325Y012910D02*
X019114Y012910D01*
X019015Y012811D02*
X014424Y012811D01*
X014523Y012713D02*
X018917Y012713D01*
X018818Y012614D02*
X014621Y012614D01*
X014720Y012515D02*
X018720Y012515D01*
X018621Y012417D02*
X014818Y012417D01*
X014917Y012318D02*
X018523Y012318D01*
X018424Y012220D02*
X015015Y012220D01*
X015114Y012121D02*
X018326Y012121D01*
X018227Y012023D02*
X015212Y012023D01*
X015311Y011924D02*
X018129Y011924D01*
X018030Y011826D02*
X015409Y011826D01*
X015508Y011727D02*
X017931Y011727D01*
X017833Y011629D02*
X015607Y011629D01*
X015705Y011530D02*
X017734Y011530D01*
X017636Y011431D02*
X015804Y011431D01*
X015902Y011333D02*
X017537Y011333D01*
X017439Y011234D02*
X016001Y011234D01*
X016099Y011136D02*
X017340Y011136D01*
X017242Y011037D02*
X016198Y011037D01*
X016296Y010939D02*
X017143Y010939D01*
X017045Y010840D02*
X016395Y010840D01*
X016493Y010742D02*
X016946Y010742D01*
X016847Y010643D02*
X016592Y010643D01*
X016581Y010174D02*
X016859Y010174D01*
X022148Y015463D01*
X022488Y015767D02*
X022529Y015767D01*
X022488Y015866D02*
X022627Y015866D01*
X022726Y015964D02*
X022488Y015964D01*
X022488Y016063D02*
X022824Y016063D01*
X022923Y016162D02*
X022488Y016162D01*
X022494Y016260D02*
X023021Y016260D01*
X023120Y016359D02*
X022565Y016359D01*
X022606Y016457D02*
X023211Y016457D01*
X023221Y016556D02*
X022617Y016556D01*
X022617Y016654D02*
X023262Y016654D01*
X023332Y016753D02*
X022582Y016753D01*
X022536Y016851D02*
X023455Y016851D01*
X023679Y016438D02*
X021592Y014350D01*
X021592Y012874D01*
X020659Y011942D01*
X020478Y013236D02*
X017833Y010591D01*
X016581Y010174D02*
X011430Y015324D01*
X011013Y014906D02*
X011013Y021031D01*
X012266Y022284D01*
X012266Y024232D01*
X012822Y024511D02*
X016024Y027712D01*
X016581Y027712D01*
X017137Y027155D01*
X020060Y024232D01*
X020060Y021449D01*
X021731Y019778D01*
X022009Y019778D01*
X022287Y019221D02*
X021731Y019221D01*
X019643Y021309D01*
X019643Y023536D01*
X016581Y026599D01*
X016112Y026607D02*
X015399Y026607D01*
X015301Y026509D02*
X016112Y026509D01*
X016152Y026410D02*
X015202Y026410D01*
X015104Y026311D02*
X016188Y026311D01*
X016144Y026213D02*
X015005Y026213D01*
X014907Y026114D02*
X016112Y026114D01*
X016112Y026016D02*
X014808Y026016D01*
X014710Y025917D02*
X016125Y025917D01*
X016166Y025819D02*
X014611Y025819D01*
X014513Y025720D02*
X016240Y025720D01*
X016371Y025622D02*
X014414Y025622D01*
X014315Y025523D02*
X016619Y025523D01*
X016717Y025425D02*
X014217Y025425D01*
X014118Y025326D02*
X016816Y025326D01*
X016914Y025228D02*
X014020Y025228D01*
X013921Y025129D02*
X017013Y025129D01*
X017111Y025030D02*
X013823Y025030D01*
X013724Y024932D02*
X017210Y024932D01*
X017308Y024833D02*
X013626Y024833D01*
X013527Y024735D02*
X017407Y024735D01*
X017505Y024636D02*
X013429Y024636D01*
X013330Y024538D02*
X017604Y024538D01*
X017702Y024439D02*
X013231Y024439D01*
X013162Y024341D02*
X017801Y024341D01*
X017900Y024242D02*
X013162Y024242D01*
X013162Y024144D02*
X017998Y024144D01*
X018097Y024045D02*
X013162Y024045D01*
X013162Y023946D02*
X018195Y023946D01*
X018294Y023848D02*
X013162Y023848D01*
X013162Y023749D02*
X018392Y023749D01*
X018491Y023651D02*
X013162Y023651D01*
X013162Y023552D02*
X017838Y023552D01*
X017960Y023603D02*
X017680Y023487D01*
X017465Y023272D01*
X017349Y022992D01*
X017349Y022689D01*
X017465Y022409D01*
X017680Y022194D01*
X017960Y022078D01*
X018263Y022078D01*
X018544Y022194D01*
X018758Y022409D01*
X018874Y022689D01*
X018874Y022992D01*
X018758Y023272D01*
X018544Y023487D01*
X018263Y023603D01*
X017960Y023603D01*
X017647Y023454D02*
X013162Y023454D01*
X013162Y023355D02*
X017548Y023355D01*
X017459Y023257D02*
X013162Y023257D01*
X013162Y023158D02*
X017418Y023158D01*
X017377Y023060D02*
X013162Y023060D01*
X013162Y022961D02*
X017349Y022961D01*
X017349Y022862D02*
X013162Y022862D01*
X013162Y022764D02*
X017349Y022764D01*
X017359Y022665D02*
X013200Y022665D01*
X013298Y022567D02*
X017400Y022567D01*
X017441Y022468D02*
X013397Y022468D01*
X013495Y022370D02*
X017504Y022370D01*
X017603Y022271D02*
X013594Y022271D01*
X013692Y022173D02*
X017731Y022173D01*
X018492Y022173D02*
X018885Y022173D01*
X018885Y022271D02*
X018621Y022271D01*
X018719Y022370D02*
X018885Y022370D01*
X018885Y022468D02*
X018783Y022468D01*
X018824Y022567D02*
X018885Y022567D01*
X018885Y022665D02*
X018864Y022665D01*
X018874Y022764D02*
X018885Y022764D01*
X018874Y022862D02*
X018885Y022862D01*
X018874Y022961D02*
X018885Y022961D01*
X018885Y023060D02*
X018846Y023060D01*
X018885Y023158D02*
X018805Y023158D01*
X018764Y023257D02*
X018885Y023257D01*
X018786Y023355D02*
X018675Y023355D01*
X018688Y023454D02*
X018577Y023454D01*
X018589Y023552D02*
X018385Y023552D01*
X019225Y023397D02*
X016581Y026042D01*
X016118Y026706D02*
X015498Y026706D01*
X015596Y026804D02*
X016159Y026804D01*
X016222Y026903D02*
X015695Y026903D01*
X015794Y027001D02*
X016329Y027001D01*
X016614Y027198D02*
X015991Y027198D01*
X015892Y027100D02*
X016669Y027100D01*
X016515Y027297D02*
X016089Y027297D01*
X016720Y028130D02*
X013379Y028130D01*
X011430Y026181D01*
X012822Y024511D02*
X012822Y022562D01*
X013657Y021727D01*
X013657Y019500D01*
X012266Y018108D01*
X012701Y017935D02*
X020101Y017935D01*
X020003Y018034D02*
X012734Y018034D01*
X012771Y018132D02*
X019904Y018132D01*
X019806Y018231D02*
X012869Y018231D01*
X012968Y018329D02*
X019707Y018329D01*
X019653Y018428D02*
X013066Y018428D01*
X013165Y018527D02*
X019551Y018527D01*
X019411Y018625D02*
X013264Y018625D01*
X013362Y018724D02*
X019313Y018724D01*
X019382Y018654D02*
X019382Y018654D01*
X019214Y018822D02*
X013461Y018822D01*
X013559Y018921D02*
X019173Y018921D01*
X019159Y018952D02*
X019159Y018952D01*
X019031Y019019D02*
X013658Y019019D01*
X013756Y019118D02*
X018919Y019118D01*
X018820Y019216D02*
X013855Y019216D01*
X013850Y019212D02*
X013850Y019212D01*
X013949Y019315D02*
X018722Y019315D01*
X018623Y019413D02*
X013990Y019413D01*
X013997Y019512D02*
X018546Y019512D01*
X018508Y019611D02*
X013997Y019611D01*
X013997Y019709D02*
X018341Y019709D01*
X018225Y019808D02*
X013997Y019808D01*
X013997Y019906D02*
X018130Y019906D01*
X018032Y020005D02*
X013997Y020005D01*
X013997Y020103D02*
X017945Y020103D01*
X017905Y020202D02*
X013997Y020202D01*
X013997Y020300D02*
X017779Y020300D01*
X017637Y020399D02*
X013997Y020399D01*
X013997Y020497D02*
X017579Y020497D01*
X017555Y020596D02*
X013997Y020596D01*
X013997Y020695D02*
X017555Y020695D01*
X017593Y020793D02*
X013997Y020793D01*
X013997Y020892D02*
X017673Y020892D01*
X017829Y020990D02*
X013997Y020990D01*
X013997Y021089D02*
X017871Y021089D01*
X017970Y021187D02*
X013997Y021187D01*
X013997Y021286D02*
X018068Y021286D01*
X018198Y021384D02*
X013997Y021384D01*
X013997Y021483D02*
X018885Y021483D01*
X018885Y021581D02*
X013997Y021581D01*
X013997Y021680D02*
X018885Y021680D01*
X018885Y021779D02*
X013997Y021779D01*
X013963Y021877D02*
X018885Y021877D01*
X018885Y021976D02*
X013890Y021976D01*
X013791Y022074D02*
X018885Y022074D01*
X018885Y021384D02*
X018657Y021384D01*
X018787Y021286D02*
X018885Y021286D01*
X019225Y021170D02*
X019225Y023397D01*
X020617Y024232D02*
X020896Y024232D01*
X020617Y024232D02*
X017694Y027155D01*
X016720Y028130D01*
X012632Y022271D02*
X012605Y022271D01*
X012587Y022173D02*
X012731Y022173D01*
X012829Y022074D02*
X012537Y022074D01*
X012438Y021976D02*
X012928Y021976D01*
X013026Y021877D02*
X012340Y021877D01*
X012241Y021779D02*
X013125Y021779D01*
X013224Y021680D02*
X012143Y021680D01*
X012044Y021581D02*
X013317Y021581D01*
X013317Y021483D02*
X012332Y021483D01*
X012430Y021384D02*
X013317Y021384D01*
X013317Y021286D02*
X012529Y021286D01*
X012627Y021187D02*
X013317Y021187D01*
X013317Y021089D02*
X012726Y021089D01*
X012767Y020990D02*
X013317Y020990D01*
X013317Y020892D02*
X012923Y020892D01*
X012809Y020892D02*
X012668Y020892D01*
X012711Y020793D02*
X012570Y020793D01*
X012612Y020695D02*
X012471Y020695D01*
X012514Y020596D02*
X012372Y020596D01*
X012415Y020497D02*
X012274Y020497D01*
X012272Y020399D02*
X012317Y020399D01*
X012371Y020300D02*
X012229Y020300D01*
X012224Y020306D02*
X012796Y019734D01*
X012316Y019254D01*
X012282Y019235D01*
X012243Y019225D01*
X012204Y019225D01*
X012166Y019235D01*
X012132Y019254D01*
X011652Y019734D01*
X012224Y020306D01*
X012218Y020300D02*
X012077Y020300D01*
X012119Y020202D02*
X011978Y020202D01*
X012021Y020103D02*
X011880Y020103D01*
X011922Y020005D02*
X011781Y020005D01*
X011824Y019906D02*
X011683Y019906D01*
X011725Y019808D02*
X011584Y019808D01*
X011578Y019808D02*
X011353Y019808D01*
X011353Y019906D02*
X011480Y019906D01*
X011381Y020005D02*
X011353Y020005D01*
X011353Y019709D02*
X011677Y019709D01*
X011776Y019611D02*
X011353Y019611D01*
X011353Y019512D02*
X011874Y019512D01*
X011973Y019413D02*
X011353Y019413D01*
X011353Y019315D02*
X012071Y019315D01*
X012376Y019315D02*
X012992Y019315D01*
X013090Y019413D02*
X012475Y019413D01*
X012573Y019512D02*
X013189Y019512D01*
X013287Y019611D02*
X012672Y019611D01*
X012770Y019709D02*
X013317Y019709D01*
X013317Y019808D02*
X012869Y019808D01*
X012863Y019808D02*
X012722Y019808D01*
X012765Y019906D02*
X012624Y019906D01*
X012666Y020005D02*
X012525Y020005D01*
X012568Y020103D02*
X012427Y020103D01*
X012469Y020202D02*
X012328Y020202D01*
X012175Y020399D02*
X012131Y020399D01*
X012174Y020497D02*
X012032Y020497D01*
X012075Y020596D02*
X011934Y020596D01*
X011976Y020695D02*
X011835Y020695D01*
X011878Y020793D02*
X011737Y020793D01*
X011779Y020892D02*
X011638Y020892D01*
X011681Y020990D02*
X011453Y020990D01*
X011524Y020892D02*
X011354Y020892D01*
X011353Y020793D02*
X011426Y020793D01*
X011551Y021089D02*
X011721Y021089D01*
X011650Y021187D02*
X011820Y021187D01*
X011748Y021286D02*
X011919Y021286D01*
X011847Y021384D02*
X012017Y021384D01*
X011945Y021483D02*
X012116Y021483D01*
X013022Y020793D02*
X013317Y020793D01*
X013317Y020695D02*
X013120Y020695D01*
X013219Y020596D02*
X013317Y020596D01*
X013317Y020202D02*
X013263Y020202D01*
X013317Y020103D02*
X013165Y020103D01*
X013066Y020005D02*
X013317Y020005D01*
X013317Y019906D02*
X012967Y019906D01*
X012893Y019216D02*
X011353Y019216D01*
X011353Y019118D02*
X012795Y019118D01*
X012696Y019019D02*
X011353Y019019D01*
X011353Y018921D02*
X012598Y018921D01*
X012499Y018822D02*
X011353Y018822D01*
X011353Y018724D02*
X012401Y018724D01*
X012302Y018625D02*
X011353Y018625D01*
X011353Y018527D02*
X012052Y018527D01*
X011923Y018428D02*
X011353Y018428D01*
X011353Y018329D02*
X011850Y018329D01*
X011809Y018231D02*
X011353Y018231D01*
X011353Y018132D02*
X011797Y018132D01*
X011797Y018034D02*
X011353Y018034D01*
X011353Y017935D02*
X011830Y017935D01*
X011874Y017837D02*
X011353Y017837D01*
X011353Y017738D02*
X011973Y017738D01*
X012172Y017640D02*
X011353Y017640D01*
X011353Y017541D02*
X020495Y017541D01*
X020397Y017640D02*
X012359Y017640D01*
X012558Y017738D02*
X020309Y017738D01*
X020268Y017837D02*
X012657Y017837D01*
X011353Y017443D02*
X020598Y017443D01*
X021592Y018804D02*
X026324Y018804D01*
X027020Y019221D02*
X028134Y018108D01*
X028134Y016994D01*
X028830Y016298D01*
X028830Y014350D01*
X026185Y011705D01*
X025767Y012123D01*
X025767Y012679D02*
X027994Y014906D01*
X026603Y017969D02*
X024097Y015463D01*
X023819Y015463D01*
X023687Y015964D02*
X024118Y015964D01*
X024216Y016063D02*
X023967Y016063D01*
X024066Y016162D02*
X024315Y016162D01*
X024413Y016260D02*
X024113Y016260D01*
X024148Y016359D02*
X024512Y016359D01*
X024610Y016457D02*
X024148Y016457D01*
X024137Y016556D02*
X024709Y016556D01*
X024807Y016654D02*
X024097Y016654D01*
X024027Y016753D02*
X024906Y016753D01*
X025004Y016851D02*
X023904Y016851D01*
X025103Y016950D02*
X022438Y016950D01*
X021592Y018804D02*
X019225Y021170D01*
X022287Y019221D02*
X022705Y019639D01*
X025350Y019221D02*
X027020Y019221D01*
X026185Y011705D02*
X026603Y011287D01*
X023540Y010452D02*
X020756Y010452D01*
X020617Y010591D01*
X015189Y010452D02*
X013936Y011705D01*
X011152Y011705D01*
X012126Y013793D02*
X012405Y013793D01*
X015189Y011009D01*
X012126Y013793D02*
X011013Y014906D01*
X010595Y015046D02*
X010456Y014906D01*
X010595Y015046D02*
X010595Y021449D01*
X010874Y021727D01*
D14*
X010874Y021727D03*
X012544Y021727D03*
X012961Y021309D03*
X012961Y019639D03*
X012544Y019221D03*
X012266Y018108D03*
X011430Y015324D03*
X010456Y014906D03*
X012126Y013793D03*
X011152Y011705D03*
X013936Y011705D03*
X015189Y011009D03*
X015189Y010452D03*
X016581Y010174D03*
X017833Y010591D03*
X020617Y010591D03*
X020478Y013236D03*
X022844Y014489D03*
X023262Y014906D03*
X023819Y015463D03*
X023679Y016438D03*
X022148Y016577D03*
X022705Y019639D03*
X022009Y019778D03*
X019643Y021309D03*
X020896Y024232D03*
X017694Y027155D03*
X017137Y027155D03*
X016581Y026599D03*
X016581Y026042D03*
X012266Y024232D03*
X011430Y026181D03*
X025350Y019221D03*
X026603Y017969D03*
X027159Y017969D03*
X027994Y014906D03*
X025767Y012123D03*
X026603Y011287D03*
X023401Y010870D03*
M02*
