G75*
G70*
%OFA0B0*%
%FSLAX24Y24*%
%IPPOS*%
%LPD*%
%AMOC8*
5,1,8,0,0,1.08239X$1,22.5*
%
%ADD10C,0.0000*%
%ADD11C,0.0060*%
%ADD12C,0.0080*%
%ADD13C,0.0050*%
D10*
X009756Y010038D02*
X009756Y025786D01*
X009873Y026053D01*
X010003Y026314D01*
X010146Y026569D01*
X010300Y026816D01*
X010467Y027055D01*
X010645Y027287D01*
X010833Y027509D01*
X011033Y027722D01*
X011242Y027925D01*
X011461Y028117D01*
X011689Y028299D01*
X011925Y028470D01*
X012170Y028629D01*
X012422Y028776D01*
X012680Y028911D01*
X012945Y029033D01*
X013216Y029142D01*
X013491Y029238D01*
X013771Y029320D01*
X014054Y029389D01*
X014340Y029444D01*
X014629Y029485D01*
X014919Y029513D01*
X015211Y029526D01*
X015502Y029525D01*
X015794Y029510D01*
X016084Y029481D01*
X016372Y029438D01*
X016658Y029381D01*
X016941Y029310D01*
X017220Y029226D01*
X017495Y029128D01*
X017765Y029017D01*
X018029Y028893D01*
X018286Y028757D01*
X018537Y028608D01*
X018781Y028448D01*
X019016Y028276D01*
X019243Y028092D01*
X019461Y027898D01*
X019669Y027694D01*
X019866Y027480D01*
X020054Y027256D01*
X020230Y027024D01*
X020395Y026783D01*
X020548Y026535D01*
X020689Y026280D01*
X020817Y026018D01*
X020933Y025750D01*
X021035Y025477D01*
X021125Y025200D01*
X021200Y024918D01*
X021262Y024633D01*
X021310Y024345D01*
X021345Y024056D01*
X021365Y023765D01*
X021371Y023473D01*
X021363Y023182D01*
X021341Y022891D01*
X021305Y022602D01*
X021255Y022314D01*
X021191Y022030D01*
X021113Y021749D01*
X021022Y021472D01*
X020918Y021199D01*
X022368Y018112D02*
X022370Y018155D01*
X022376Y018197D01*
X022386Y018239D01*
X022399Y018280D01*
X022416Y018320D01*
X022437Y018357D01*
X022461Y018393D01*
X022488Y018426D01*
X022518Y018457D01*
X022551Y018485D01*
X022586Y018510D01*
X022623Y018531D01*
X022662Y018549D01*
X022702Y018563D01*
X022744Y018574D01*
X022786Y018581D01*
X022829Y018584D01*
X022872Y018583D01*
X022915Y018578D01*
X022957Y018569D01*
X022998Y018557D01*
X023038Y018541D01*
X023076Y018521D01*
X023112Y018498D01*
X023146Y018471D01*
X023178Y018442D01*
X023206Y018410D01*
X023232Y018375D01*
X023254Y018339D01*
X023273Y018300D01*
X023288Y018260D01*
X023300Y018219D01*
X023308Y018176D01*
X023312Y018133D01*
X023312Y018091D01*
X023308Y018048D01*
X023300Y018005D01*
X023288Y017964D01*
X023273Y017924D01*
X023254Y017885D01*
X023232Y017849D01*
X023206Y017814D01*
X023178Y017782D01*
X023146Y017753D01*
X023112Y017726D01*
X023076Y017703D01*
X023038Y017683D01*
X022998Y017667D01*
X022957Y017655D01*
X022915Y017646D01*
X022872Y017641D01*
X022829Y017640D01*
X022786Y017643D01*
X022744Y017650D01*
X022702Y017661D01*
X022662Y017675D01*
X022623Y017693D01*
X022586Y017714D01*
X022551Y017739D01*
X022518Y017767D01*
X022488Y017798D01*
X022461Y017831D01*
X022437Y017867D01*
X022416Y017904D01*
X022399Y017944D01*
X022386Y017985D01*
X022376Y018027D01*
X022370Y018069D01*
X022368Y018112D01*
X020918Y021200D02*
X021190Y021304D01*
X021467Y021395D01*
X021748Y021473D01*
X022033Y021537D01*
X022320Y021587D01*
X022609Y021623D01*
X022900Y021645D01*
X023191Y021653D01*
X023483Y021647D01*
X023774Y021627D01*
X024063Y021592D01*
X024351Y021544D01*
X024636Y021482D01*
X024918Y021407D01*
X025195Y021317D01*
X025468Y021215D01*
X025736Y021099D01*
X025998Y020971D01*
X026253Y020830D01*
X026501Y020677D01*
X026742Y020512D01*
X026974Y020336D01*
X027198Y020148D01*
X027412Y019951D01*
X027616Y019743D01*
X027810Y019525D01*
X027994Y019298D01*
X028166Y019063D01*
X028326Y018819D01*
X028475Y018568D01*
X028611Y018311D01*
X028735Y018047D01*
X028846Y017777D01*
X028944Y017502D01*
X029028Y017223D01*
X029099Y016940D01*
X029156Y016654D01*
X029199Y016366D01*
X029228Y016076D01*
X029243Y015784D01*
X029244Y015493D01*
X029231Y015201D01*
X029203Y014911D01*
X029162Y014622D01*
X029107Y014336D01*
X029038Y014053D01*
X028956Y013773D01*
X028860Y013498D01*
X028751Y013227D01*
X028629Y012962D01*
X028494Y012704D01*
X028347Y012452D01*
X028188Y012207D01*
X028017Y011971D01*
X027835Y011743D01*
X027643Y011524D01*
X027440Y011315D01*
X027227Y011115D01*
X027005Y010927D01*
X026773Y010749D01*
X026534Y010582D01*
X026287Y010428D01*
X026032Y010285D01*
X025771Y010155D01*
X025504Y010038D01*
X009756Y010038D01*
X017357Y023123D02*
X017359Y023166D01*
X017365Y023208D01*
X017375Y023250D01*
X017388Y023291D01*
X017405Y023331D01*
X017426Y023368D01*
X017450Y023404D01*
X017477Y023437D01*
X017507Y023468D01*
X017540Y023496D01*
X017575Y023521D01*
X017612Y023542D01*
X017651Y023560D01*
X017691Y023574D01*
X017733Y023585D01*
X017775Y023592D01*
X017818Y023595D01*
X017861Y023594D01*
X017904Y023589D01*
X017946Y023580D01*
X017987Y023568D01*
X018027Y023552D01*
X018065Y023532D01*
X018101Y023509D01*
X018135Y023482D01*
X018167Y023453D01*
X018195Y023421D01*
X018221Y023386D01*
X018243Y023350D01*
X018262Y023311D01*
X018277Y023271D01*
X018289Y023230D01*
X018297Y023187D01*
X018301Y023144D01*
X018301Y023102D01*
X018297Y023059D01*
X018289Y023016D01*
X018277Y022975D01*
X018262Y022935D01*
X018243Y022896D01*
X018221Y022860D01*
X018195Y022825D01*
X018167Y022793D01*
X018135Y022764D01*
X018101Y022737D01*
X018065Y022714D01*
X018027Y022694D01*
X017987Y022678D01*
X017946Y022666D01*
X017904Y022657D01*
X017861Y022652D01*
X017818Y022651D01*
X017775Y022654D01*
X017733Y022661D01*
X017691Y022672D01*
X017651Y022686D01*
X017612Y022704D01*
X017575Y022725D01*
X017540Y022750D01*
X017507Y022778D01*
X017477Y022809D01*
X017450Y022842D01*
X017426Y022878D01*
X017405Y022915D01*
X017388Y022955D01*
X017375Y022996D01*
X017365Y023038D01*
X017359Y023080D01*
X017357Y023123D01*
D11*
X023134Y019252D02*
X023295Y019092D01*
X023214Y019172D02*
X023455Y019413D01*
X023455Y019252D01*
X023425Y019042D02*
X023385Y019002D01*
X023425Y018962D01*
X023465Y019002D01*
X023425Y019042D01*
X023525Y018862D02*
X023685Y018701D01*
X023605Y018781D02*
X023846Y019022D01*
X023846Y018862D01*
X024199Y018508D02*
X024280Y018428D01*
X024280Y018508D02*
X024119Y018347D01*
X024039Y018347D01*
X024376Y018331D02*
X024416Y018291D01*
X024416Y018131D01*
X024336Y018050D02*
X024497Y018211D01*
X024556Y018071D02*
X024436Y017950D01*
X024556Y017830D01*
X024637Y017830D01*
X024637Y017910D01*
X024516Y018031D01*
X024556Y018071D02*
X024637Y018071D01*
X024717Y017990D01*
X024817Y017810D02*
X024777Y017770D01*
X024937Y017610D01*
X024977Y017650D02*
X024977Y017730D01*
X024897Y017810D01*
X024817Y017810D01*
X024737Y017650D02*
X024817Y017570D01*
X024897Y017570D01*
X024977Y017650D01*
X025077Y017550D02*
X025238Y017389D01*
X025117Y017269D02*
X025358Y017510D01*
X025198Y017670D02*
X024957Y017430D01*
X025518Y016949D02*
X025598Y016949D01*
X025678Y016869D01*
X025758Y016869D01*
X025759Y016949D01*
X025638Y017069D01*
X025518Y016949D02*
X025518Y016869D01*
X025638Y016748D01*
X025929Y016779D02*
X025929Y016859D01*
X026009Y016939D01*
X025989Y016638D02*
X025949Y016598D01*
X026109Y016438D01*
X026149Y016478D02*
X026149Y016558D01*
X026069Y016638D01*
X025989Y016638D01*
X025908Y016478D02*
X025989Y016398D01*
X026069Y016398D01*
X026149Y016478D01*
X026249Y016378D02*
X026129Y016258D01*
X026249Y016378D02*
X026329Y016378D01*
X026450Y016258D01*
X026289Y016097D01*
X026383Y016004D02*
X026463Y015924D01*
X026423Y015964D02*
X026583Y016124D01*
X026623Y016084D01*
X026663Y016204D02*
X026703Y016245D01*
X026717Y015991D02*
X026797Y015911D01*
X026797Y015991D02*
X026636Y015830D01*
X026556Y015830D01*
X026736Y015650D02*
X026857Y015770D01*
X026937Y015770D01*
X027057Y015650D01*
X026897Y015490D01*
X027077Y015470D02*
X027237Y015310D01*
X027277Y015350D02*
X027277Y015430D01*
X027197Y015510D01*
X027117Y015510D01*
X027077Y015470D01*
X027037Y015350D02*
X027117Y015269D01*
X027197Y015269D01*
X027277Y015350D01*
X027250Y015136D02*
X027331Y015056D01*
X027291Y015096D02*
X027531Y015336D01*
X027571Y015296D01*
X027551Y015076D02*
X027431Y014956D01*
X027551Y014836D01*
X027631Y014836D01*
X027631Y014916D01*
X027511Y015036D01*
X027551Y015076D02*
X027631Y015076D01*
X027711Y014996D01*
X027771Y014776D02*
X027932Y014936D01*
X028092Y014776D02*
X027932Y014615D01*
X027771Y014615D01*
X027771Y014776D01*
X026422Y013105D02*
X026181Y012865D01*
X026301Y012985D02*
X026301Y013065D01*
X026221Y013145D01*
X026141Y013145D01*
X026021Y013025D01*
X025921Y013205D02*
X025841Y013205D01*
X025921Y013205D02*
X026081Y013366D01*
X026001Y013366D02*
X026081Y013285D01*
X025908Y013459D02*
X025827Y013539D01*
X025908Y013539D02*
X025747Y013379D01*
X025667Y013379D01*
X025574Y013472D02*
X025453Y013593D01*
X025453Y013673D01*
X025534Y013753D01*
X025614Y013753D01*
X025734Y013633D01*
X025493Y013392D01*
X025326Y013205D02*
X025407Y013125D01*
X025406Y013045D01*
X025326Y012965D01*
X025246Y012965D01*
X025166Y013045D01*
X025166Y013125D01*
X025246Y013205D01*
X025326Y013205D01*
X025543Y012988D02*
X025583Y012948D01*
X025583Y012788D01*
X025503Y012708D02*
X025664Y012868D01*
X025723Y012728D02*
X025643Y012648D01*
X025643Y012567D01*
X025764Y012447D01*
X025683Y012367D02*
X025924Y012608D01*
X025804Y012728D01*
X025723Y012728D01*
X024946Y013105D02*
X024906Y013145D01*
X024906Y013225D01*
X025106Y013425D01*
X025186Y013506D02*
X025226Y013546D01*
X025313Y013733D02*
X025353Y013773D01*
X025313Y013813D01*
X025273Y013773D01*
X025313Y013733D01*
X025434Y013853D02*
X025474Y013893D01*
X025434Y013933D01*
X025393Y013893D01*
X025434Y013853D01*
X025183Y013863D02*
X025263Y014264D01*
X025003Y014524D02*
X024923Y014123D01*
X024662Y014384D02*
X024542Y014504D01*
X024542Y014584D01*
X024622Y014584D01*
X024702Y014504D01*
X024783Y014504D01*
X024783Y014584D01*
X024662Y014704D01*
X024522Y014764D02*
X024362Y014925D01*
X024382Y015145D02*
X024342Y015185D01*
X024101Y014944D01*
X024141Y014904D02*
X024061Y014985D01*
X024008Y015118D02*
X024008Y015198D01*
X023888Y015319D01*
X023928Y015359D02*
X023807Y015238D01*
X023928Y015118D01*
X024008Y015118D01*
X024088Y015278D02*
X024008Y015359D01*
X023928Y015359D01*
X023868Y015499D02*
X023748Y015619D01*
X023667Y015619D01*
X023587Y015539D01*
X023587Y015459D01*
X023707Y015338D01*
X023948Y015579D01*
X023567Y015719D02*
X023567Y015799D01*
X023447Y015920D01*
X023407Y015799D02*
X023487Y015719D01*
X023567Y015719D01*
X023447Y015599D02*
X023327Y015719D01*
X023327Y015799D01*
X023407Y015799D01*
X023227Y015899D02*
X023187Y015939D01*
X023147Y015899D01*
X023187Y015859D01*
X023227Y015899D01*
X023097Y016029D02*
X023016Y016029D01*
X022896Y016150D01*
X022836Y016290D02*
X022836Y016370D01*
X022716Y016490D01*
X022756Y016530D02*
X022636Y016410D01*
X022756Y016290D01*
X022836Y016290D01*
X022916Y016450D02*
X022836Y016530D01*
X022756Y016530D01*
X022536Y016510D02*
X022616Y016911D01*
X022489Y016283D02*
X022449Y016243D01*
X022369Y016163D02*
X022208Y016002D01*
X022248Y015962D02*
X022168Y016043D01*
X022075Y016136D02*
X022235Y016296D01*
X022115Y016417D01*
X022035Y016417D01*
X021914Y016296D01*
X021854Y016436D02*
X021935Y016517D01*
X021935Y016597D01*
X021854Y016677D01*
X021774Y016677D01*
X021734Y016637D01*
X021895Y016477D01*
X021854Y016436D02*
X021774Y016436D01*
X021694Y016517D01*
X021554Y016657D02*
X021434Y016777D01*
X021434Y016857D01*
X021514Y016857D01*
X021594Y016777D01*
X021674Y016777D01*
X021674Y016857D01*
X021554Y016978D01*
X022369Y016163D02*
X022409Y016123D01*
X022502Y016029D02*
X022582Y015949D01*
X022582Y016029D02*
X022422Y015869D01*
X022342Y015869D01*
X022522Y015689D02*
X022642Y015809D01*
X022722Y015809D01*
X022843Y015689D01*
X022682Y015528D01*
X022862Y015509D02*
X023023Y015348D01*
X022983Y015308D02*
X023063Y015388D01*
X023063Y015468D01*
X022983Y015549D01*
X022903Y015549D01*
X022862Y015509D01*
X022822Y015388D02*
X022903Y015308D01*
X022983Y015308D01*
X023036Y015175D02*
X023116Y015094D01*
X023076Y015134D02*
X023317Y015375D01*
X023357Y015335D01*
X023337Y015115D02*
X023216Y014994D01*
X023337Y014874D01*
X023417Y014874D01*
X023417Y014954D01*
X023296Y015075D01*
X023337Y015115D02*
X023417Y015115D01*
X023497Y015034D01*
X023637Y014894D02*
X023557Y014654D01*
X023797Y014734D01*
X023978Y014714D02*
X023897Y014313D01*
X024038Y014253D02*
X024118Y014253D01*
X024198Y014173D01*
X024278Y014173D01*
X024278Y014253D01*
X024158Y014374D01*
X024038Y014253D02*
X024038Y014173D01*
X024158Y014053D01*
X024251Y013959D02*
X024331Y013959D01*
X024492Y014120D01*
X024492Y014040D02*
X024412Y014120D01*
X024592Y013940D02*
X024712Y013819D01*
X024712Y013739D01*
X024632Y013659D01*
X024552Y013659D01*
X024431Y013779D01*
X024772Y013599D02*
X024932Y013439D01*
X024892Y013399D02*
X024973Y013479D01*
X024973Y013559D01*
X024892Y013639D01*
X024812Y013639D01*
X024772Y013599D01*
X024732Y013479D02*
X024812Y013399D01*
X024892Y013399D01*
X023097Y016029D02*
X023177Y016110D01*
X023177Y016190D01*
X023056Y016310D01*
D12*
X023905Y019610D02*
X023805Y019709D01*
X023805Y019808D01*
X023905Y019610D02*
X024004Y019610D01*
X024202Y019808D01*
X024202Y019907D01*
X024103Y020006D01*
X024004Y020006D01*
X021279Y019768D02*
X021279Y019669D01*
X021080Y019470D01*
X020981Y019470D01*
X020882Y019570D01*
X020882Y019669D01*
X021080Y019867D02*
X021180Y019867D01*
X021279Y019768D01*
X020384Y023229D02*
X020285Y023229D01*
X020186Y023328D01*
X020186Y023427D01*
X020384Y023625D02*
X020484Y023625D01*
X020583Y023526D01*
X020583Y023427D01*
X020384Y023229D01*
X018714Y026291D02*
X018615Y026291D01*
X018516Y026390D01*
X018516Y026489D01*
X018714Y026291D02*
X018912Y026489D01*
X018912Y026588D01*
X018813Y026687D01*
X018714Y026687D01*
X015989Y027742D02*
X015791Y027544D01*
X015692Y027544D01*
X015593Y027643D01*
X015593Y027742D01*
X015791Y027940D02*
X015890Y027940D01*
X015989Y027841D01*
X015989Y027742D01*
X013066Y027145D02*
X013066Y027046D01*
X012868Y026848D01*
X012769Y026848D01*
X012670Y026947D01*
X012670Y027046D01*
X012868Y027244D02*
X012967Y027244D01*
X013066Y027145D01*
X011018Y025017D02*
X011117Y024918D01*
X011117Y024819D01*
X010919Y024621D01*
X010820Y024621D01*
X010721Y024720D01*
X010721Y024819D01*
X010919Y025017D02*
X011018Y025017D01*
X010879Y022094D02*
X010780Y022094D01*
X010879Y022094D02*
X010978Y021995D01*
X010978Y021896D01*
X010780Y021698D01*
X010681Y021698D01*
X010582Y021797D01*
X010582Y021896D01*
X010780Y019032D02*
X010879Y019032D01*
X010978Y018933D01*
X010978Y018833D01*
X010780Y018635D01*
X010681Y018635D01*
X010582Y018734D01*
X010582Y018833D01*
X010780Y016248D02*
X010879Y016248D01*
X010978Y016149D01*
X010978Y016050D01*
X010780Y015851D01*
X010681Y015851D01*
X010582Y015950D01*
X010582Y016050D01*
X010780Y013464D02*
X010879Y013464D01*
X010978Y013365D01*
X010978Y013266D01*
X010780Y013068D01*
X010681Y013068D01*
X010582Y013167D01*
X010582Y013266D01*
X010183Y011376D02*
X010084Y011376D01*
X010183Y011376D02*
X010282Y011277D01*
X010282Y011178D01*
X010084Y010980D01*
X009985Y010980D01*
X009886Y011079D01*
X009886Y011178D01*
X012809Y011039D02*
X012809Y010939D01*
X012908Y010840D01*
X013007Y010840D01*
X013205Y011039D01*
X013205Y011138D01*
X013106Y011237D01*
X013007Y011237D01*
X014689Y013474D02*
X014540Y013622D01*
X014540Y013721D01*
X014590Y013771D01*
X014689Y013771D01*
X014838Y013622D01*
X014986Y013771D02*
X014838Y013920D01*
X014738Y013920D01*
X014689Y013870D01*
X014689Y013771D01*
X014512Y013948D02*
X014314Y014146D01*
X014363Y014196D02*
X014165Y013997D01*
X014363Y013799D02*
X014562Y013997D01*
X014562Y014196D01*
X014363Y014196D01*
X014335Y014422D02*
X014137Y014620D01*
X014236Y014521D02*
X013939Y014224D01*
X013613Y014549D02*
X013911Y014847D01*
X014010Y014747D02*
X013811Y014946D01*
X013585Y014974D02*
X013585Y015172D01*
X013288Y014875D01*
X013387Y014776D02*
X013189Y014974D01*
X014689Y013474D02*
X014986Y013771D01*
X015791Y011237D02*
X015890Y011237D01*
X015989Y011138D01*
X015989Y011039D01*
X015791Y010840D01*
X015692Y010840D01*
X015593Y010939D01*
X015593Y011039D01*
X018377Y011039D02*
X018377Y010939D01*
X018476Y010840D01*
X018575Y010840D01*
X018773Y011039D01*
X018773Y011138D01*
X018674Y011237D01*
X018575Y011237D01*
X021439Y011039D02*
X021439Y010939D01*
X021538Y010840D01*
X021637Y010840D01*
X021835Y011039D01*
X021835Y011138D01*
X021736Y011237D01*
X021637Y011237D01*
X025197Y010343D02*
X025197Y010244D01*
X025296Y010144D01*
X025395Y010144D01*
X025594Y010343D01*
X025594Y010442D01*
X025495Y010541D01*
X025395Y010541D01*
X027424Y012192D02*
X027424Y012291D01*
X027424Y012192D02*
X027524Y012093D01*
X027623Y012093D01*
X027821Y012291D01*
X027821Y012390D01*
X027722Y012489D01*
X027623Y012489D01*
X028220Y015016D02*
X028120Y015115D01*
X028120Y015214D01*
X028220Y015016D02*
X028319Y015016D01*
X028517Y015214D01*
X028517Y015313D01*
X028418Y015413D01*
X028319Y015413D01*
X027066Y017939D02*
X026967Y017939D01*
X026868Y018038D01*
X026868Y018137D01*
X027066Y017939D02*
X027264Y018137D01*
X027264Y018237D01*
X027165Y018336D01*
X027066Y018336D01*
D13*
X021237Y018691D02*
X021166Y015792D01*
X020530Y015155D01*
X020813Y014872D01*
X019398Y013458D01*
X019116Y013741D01*
X017136Y011761D01*
X015934Y012963D01*
X015722Y014165D01*
X013954Y015933D01*
X012822Y016074D01*
X011479Y017418D01*
X013459Y019398D01*
X013176Y019681D01*
X014590Y021095D01*
X014873Y020812D01*
X015439Y021378D01*
X018479Y021448D01*
X021237Y018691D01*
M02*
