G75*
G70*
%OFA0B0*%
%FSLAX24Y24*%
%IPPOS*%
%LPD*%
%AMOC8*
5,1,8,0,0,1.08239X$1,22.5*
%
%ADD10C,0.0000*%
%ADD11C,0.0060*%
%ADD12C,0.0100*%
%ADD13C,0.0070*%
D10*
X010038Y009756D02*
X025786Y009756D01*
X026053Y009873D01*
X026314Y010003D01*
X026569Y010146D01*
X026816Y010300D01*
X027055Y010467D01*
X027287Y010645D01*
X027509Y010833D01*
X027722Y011033D01*
X027925Y011242D01*
X028117Y011461D01*
X028299Y011689D01*
X028470Y011925D01*
X028629Y012170D01*
X028776Y012422D01*
X028911Y012680D01*
X029033Y012945D01*
X029142Y013216D01*
X029238Y013491D01*
X029320Y013771D01*
X029389Y014054D01*
X029444Y014340D01*
X029485Y014629D01*
X029513Y014919D01*
X029526Y015211D01*
X029525Y015502D01*
X029510Y015794D01*
X029481Y016084D01*
X029438Y016372D01*
X029381Y016658D01*
X029310Y016941D01*
X029226Y017220D01*
X029128Y017495D01*
X029017Y017765D01*
X028893Y018029D01*
X028757Y018286D01*
X028608Y018537D01*
X028448Y018781D01*
X028276Y019016D01*
X028092Y019243D01*
X027898Y019461D01*
X027694Y019669D01*
X027480Y019866D01*
X027256Y020054D01*
X027024Y020230D01*
X026783Y020395D01*
X026535Y020548D01*
X026280Y020689D01*
X026018Y020817D01*
X025750Y020933D01*
X025477Y021035D01*
X025200Y021125D01*
X024918Y021200D01*
X024633Y021262D01*
X024345Y021310D01*
X024056Y021345D01*
X023765Y021365D01*
X023473Y021371D01*
X023182Y021363D01*
X022891Y021341D01*
X022602Y021305D01*
X022315Y021255D01*
X022030Y021191D01*
X021749Y021113D01*
X021472Y021022D01*
X021200Y020918D01*
X017640Y022840D02*
X017642Y022883D01*
X017648Y022925D01*
X017658Y022967D01*
X017671Y023008D01*
X017688Y023048D01*
X017709Y023085D01*
X017733Y023121D01*
X017760Y023154D01*
X017790Y023185D01*
X017823Y023213D01*
X017858Y023238D01*
X017895Y023259D01*
X017934Y023277D01*
X017974Y023291D01*
X018016Y023302D01*
X018058Y023309D01*
X018101Y023312D01*
X018144Y023311D01*
X018187Y023306D01*
X018229Y023297D01*
X018270Y023285D01*
X018310Y023269D01*
X018348Y023249D01*
X018384Y023226D01*
X018418Y023199D01*
X018450Y023170D01*
X018478Y023138D01*
X018504Y023103D01*
X018526Y023067D01*
X018545Y023028D01*
X018560Y022988D01*
X018572Y022947D01*
X018580Y022904D01*
X018584Y022861D01*
X018584Y022819D01*
X018580Y022776D01*
X018572Y022733D01*
X018560Y022692D01*
X018545Y022652D01*
X018526Y022613D01*
X018504Y022577D01*
X018478Y022542D01*
X018450Y022510D01*
X018418Y022481D01*
X018384Y022454D01*
X018348Y022431D01*
X018310Y022411D01*
X018270Y022395D01*
X018229Y022383D01*
X018187Y022374D01*
X018144Y022369D01*
X018101Y022368D01*
X018058Y022371D01*
X018016Y022378D01*
X017974Y022389D01*
X017934Y022403D01*
X017895Y022421D01*
X017858Y022442D01*
X017823Y022467D01*
X017790Y022495D01*
X017760Y022526D01*
X017733Y022559D01*
X017709Y022595D01*
X017688Y022632D01*
X017671Y022672D01*
X017658Y022713D01*
X017648Y022755D01*
X017642Y022797D01*
X017640Y022840D01*
X021200Y020917D02*
X021304Y021190D01*
X021395Y021467D01*
X021473Y021748D01*
X021537Y022032D01*
X021587Y022320D01*
X021623Y022609D01*
X021645Y022900D01*
X021653Y023191D01*
X021647Y023483D01*
X021627Y023774D01*
X021592Y024063D01*
X021544Y024351D01*
X021482Y024636D01*
X021407Y024918D01*
X021317Y025195D01*
X021215Y025468D01*
X021099Y025736D01*
X020971Y025998D01*
X020830Y026253D01*
X020677Y026501D01*
X020512Y026742D01*
X020336Y026974D01*
X020148Y027198D01*
X019951Y027412D01*
X019743Y027616D01*
X019525Y027810D01*
X019298Y027994D01*
X019063Y028166D01*
X018819Y028326D01*
X018568Y028475D01*
X018311Y028611D01*
X018047Y028735D01*
X017777Y028846D01*
X017502Y028944D01*
X017223Y029028D01*
X016940Y029099D01*
X016654Y029156D01*
X016366Y029199D01*
X016076Y029228D01*
X015784Y029243D01*
X015493Y029244D01*
X015201Y029231D01*
X014911Y029203D01*
X014622Y029162D01*
X014336Y029107D01*
X014053Y029038D01*
X013773Y028956D01*
X013498Y028860D01*
X013227Y028751D01*
X012962Y028629D01*
X012704Y028494D01*
X012452Y028347D01*
X012207Y028188D01*
X011971Y028017D01*
X011743Y027835D01*
X011524Y027643D01*
X011315Y027440D01*
X011115Y027227D01*
X010927Y027005D01*
X010749Y026773D01*
X010582Y026534D01*
X010428Y026287D01*
X010285Y026032D01*
X010155Y025771D01*
X010038Y025504D01*
X010038Y009756D01*
X022651Y017829D02*
X022653Y017872D01*
X022659Y017914D01*
X022669Y017956D01*
X022682Y017997D01*
X022699Y018037D01*
X022720Y018074D01*
X022744Y018110D01*
X022771Y018143D01*
X022801Y018174D01*
X022834Y018202D01*
X022869Y018227D01*
X022906Y018248D01*
X022945Y018266D01*
X022985Y018280D01*
X023027Y018291D01*
X023069Y018298D01*
X023112Y018301D01*
X023155Y018300D01*
X023198Y018295D01*
X023240Y018286D01*
X023281Y018274D01*
X023321Y018258D01*
X023359Y018238D01*
X023395Y018215D01*
X023429Y018188D01*
X023461Y018159D01*
X023489Y018127D01*
X023515Y018092D01*
X023537Y018056D01*
X023556Y018017D01*
X023571Y017977D01*
X023583Y017936D01*
X023591Y017893D01*
X023595Y017850D01*
X023595Y017808D01*
X023591Y017765D01*
X023583Y017722D01*
X023571Y017681D01*
X023556Y017641D01*
X023537Y017602D01*
X023515Y017566D01*
X023489Y017531D01*
X023461Y017499D01*
X023429Y017470D01*
X023395Y017443D01*
X023359Y017420D01*
X023321Y017400D01*
X023281Y017384D01*
X023240Y017372D01*
X023198Y017363D01*
X023155Y017358D01*
X023112Y017357D01*
X023069Y017360D01*
X023027Y017367D01*
X022985Y017378D01*
X022945Y017392D01*
X022906Y017410D01*
X022869Y017431D01*
X022834Y017456D01*
X022801Y017484D01*
X022771Y017515D01*
X022744Y017548D01*
X022720Y017584D01*
X022699Y017621D01*
X022682Y017661D01*
X022669Y017702D01*
X022659Y017744D01*
X022653Y017786D01*
X022651Y017829D01*
D11*
X019113Y022994D02*
X018953Y023155D01*
X019273Y023155D01*
X019314Y023195D01*
X019314Y023275D01*
X019233Y023355D01*
X019153Y023355D01*
X018903Y023285D02*
X018863Y023245D01*
X018822Y023285D01*
X018863Y023325D01*
X018903Y023285D01*
X018722Y023385D02*
X018562Y023545D01*
X018642Y023465D02*
X018883Y023706D01*
X018722Y023706D01*
X018369Y024060D02*
X018288Y024140D01*
X018369Y024140D02*
X018208Y023979D01*
X018208Y023899D01*
X018192Y024236D02*
X018152Y024277D01*
X017991Y024277D01*
X017911Y024196D02*
X018071Y024357D01*
X017931Y024417D02*
X017811Y024296D01*
X017691Y024417D01*
X017691Y024497D01*
X017771Y024497D01*
X017891Y024377D01*
X017931Y024417D02*
X017931Y024497D01*
X017851Y024577D01*
X017671Y024677D02*
X017631Y024637D01*
X017471Y024797D01*
X017511Y024837D02*
X017591Y024838D01*
X017671Y024757D01*
X017671Y024677D01*
X017511Y024597D02*
X017430Y024677D01*
X017430Y024757D01*
X017511Y024837D01*
X017411Y024938D02*
X017250Y025098D01*
X017130Y024978D02*
X017371Y025218D01*
X017531Y025058D02*
X017290Y024817D01*
X016602Y024911D02*
X016482Y024790D01*
X016602Y024911D02*
X016602Y024991D01*
X016482Y025111D01*
X016322Y024951D01*
X016262Y025091D02*
X016342Y025171D01*
X016342Y025251D01*
X016262Y025331D01*
X016182Y025331D01*
X016101Y025251D01*
X016101Y025171D01*
X016182Y025091D01*
X016262Y025091D01*
X015968Y025305D02*
X015888Y025385D01*
X015928Y025345D02*
X016088Y025505D01*
X016048Y025545D01*
X016168Y025585D02*
X016209Y025625D01*
X016339Y025769D02*
X016259Y025849D01*
X016259Y025929D01*
X016339Y026009D01*
X016419Y026009D01*
X016499Y025929D01*
X016499Y025849D01*
X016459Y025809D01*
X016299Y025969D01*
X016239Y026109D02*
X016119Y025989D01*
X016239Y026109D02*
X016239Y026190D01*
X016119Y026310D01*
X015958Y026150D01*
X015865Y026243D02*
X015785Y026323D01*
X015825Y026283D02*
X015985Y026444D01*
X015945Y026484D01*
X016065Y026524D02*
X016105Y026564D01*
X015852Y026577D02*
X015771Y026657D01*
X015852Y026657D02*
X015691Y026497D01*
X015691Y026417D01*
X015511Y026597D02*
X015631Y026717D01*
X015631Y026797D01*
X015511Y026918D01*
X015351Y026757D01*
X015331Y026937D02*
X015170Y027098D01*
X015130Y027058D02*
X015210Y027138D01*
X015291Y027138D01*
X015371Y027058D01*
X015371Y026978D01*
X015331Y026937D01*
X015210Y026897D02*
X015130Y026978D01*
X015130Y027058D01*
X014997Y027111D02*
X014917Y027191D01*
X014957Y027151D02*
X015197Y027392D01*
X015157Y027432D01*
X014937Y027412D02*
X014817Y027291D01*
X014696Y027412D01*
X014696Y027492D01*
X014776Y027492D01*
X014897Y027372D01*
X014937Y027412D02*
X014937Y027492D01*
X014857Y027572D01*
X014797Y027792D02*
X014636Y027632D01*
X014476Y027632D01*
X014476Y027792D01*
X014636Y027953D01*
X014259Y027495D02*
X014179Y027495D01*
X014139Y027455D01*
X014139Y027375D01*
X014219Y027295D01*
X014219Y027214D01*
X014179Y027174D01*
X014099Y027174D01*
X014018Y027255D01*
X014018Y027335D01*
X014259Y027495D02*
X014339Y027415D01*
X014339Y027335D01*
X014479Y027275D02*
X014239Y027034D01*
X014399Y026874D02*
X014640Y027114D01*
X014479Y027114D01*
X014479Y027275D01*
X014740Y027014D02*
X014860Y026894D01*
X014860Y026814D01*
X014699Y026653D01*
X014619Y026653D01*
X014499Y026774D01*
X014740Y027014D01*
X015260Y026494D02*
X015020Y026253D01*
X015180Y026092D01*
X015320Y026033D02*
X015400Y026113D01*
X015481Y026113D01*
X015601Y025992D01*
X015681Y026073D02*
X015441Y025832D01*
X015320Y025952D01*
X015320Y026033D01*
X015220Y026293D02*
X015140Y026373D01*
X015260Y026494D02*
X015421Y026333D01*
X015701Y025892D02*
X015741Y025852D01*
X015581Y025692D01*
X015541Y025732D02*
X015621Y025652D01*
X015794Y025558D02*
X015794Y025478D01*
X015794Y025558D02*
X015955Y025719D01*
X015875Y025719D02*
X015955Y025639D01*
X015821Y025933D02*
X015861Y025973D01*
X016639Y025789D02*
X016719Y025789D01*
X016800Y025869D01*
X016810Y025619D02*
X016930Y025499D01*
X016810Y025458D02*
X016729Y025539D01*
X016729Y025619D01*
X016810Y025619D01*
X016810Y025458D02*
X016810Y025378D01*
X016729Y025378D01*
X016609Y025499D01*
X012869Y013181D02*
X012742Y013181D01*
X012714Y013025D01*
X012579Y012976D01*
X012459Y013068D01*
X012367Y012976D01*
X012452Y012849D01*
X012395Y012721D01*
X012247Y012686D01*
X012247Y012559D01*
X012388Y012530D01*
X012403Y012474D01*
X012636Y012566D01*
X012593Y012566D02*
X012345Y012566D01*
X012275Y012601D02*
X012275Y012672D01*
X012452Y012707D01*
X012487Y012884D01*
X012417Y012955D01*
X012487Y013025D01*
X012593Y012919D01*
X012735Y012990D01*
X012770Y013167D01*
X012841Y013167D01*
X012876Y012990D01*
X013053Y012955D01*
X013124Y013025D01*
X013194Y012955D01*
X013124Y012813D01*
X013194Y012672D01*
X013336Y012672D01*
X013336Y012601D01*
X013194Y012530D01*
X013124Y012389D01*
X013230Y012283D01*
X013124Y012247D01*
X012982Y012318D01*
X012876Y012212D01*
X012841Y012106D01*
X012770Y012106D01*
X012735Y012212D01*
X012699Y012247D01*
X012770Y012389D01*
X012982Y012460D01*
X013018Y012636D01*
X012947Y012778D01*
X012806Y012849D01*
X012664Y012778D01*
X012593Y012636D01*
X012593Y012566D01*
X012417Y012530D01*
X012275Y012601D01*
X012275Y012625D02*
X012593Y012625D01*
X012617Y012683D02*
X012333Y012683D01*
X012459Y012742D02*
X012646Y012742D01*
X012709Y012800D02*
X012471Y012800D01*
X012482Y012859D02*
X013147Y012859D01*
X013152Y012841D02*
X013202Y012721D01*
X013364Y012686D01*
X013364Y012559D01*
X013209Y012530D01*
X013159Y012410D01*
X013244Y012283D01*
X013152Y012191D01*
X013032Y012269D01*
X012897Y012219D01*
X012869Y012064D01*
X012742Y012064D01*
X012714Y012205D01*
X012650Y012226D01*
X012749Y012453D01*
X012776Y012391D02*
X013125Y012391D01*
X013154Y012449D02*
X012951Y012449D01*
X012992Y012508D02*
X013183Y012508D01*
X013266Y012566D02*
X013004Y012566D01*
X013015Y012625D02*
X013336Y012625D01*
X013189Y012683D02*
X012994Y012683D01*
X012965Y012742D02*
X013159Y012742D01*
X013130Y012800D02*
X012902Y012800D01*
X012946Y012976D02*
X012707Y012976D01*
X012744Y013035D02*
X012867Y013035D01*
X012897Y013025D02*
X013018Y012976D01*
X013152Y013068D01*
X013244Y012976D01*
X013152Y012841D01*
X013176Y012918D02*
X012454Y012918D01*
X012438Y012976D02*
X012537Y012976D01*
X012755Y013093D02*
X012856Y013093D01*
X012844Y013152D02*
X012767Y013152D01*
X012869Y013181D02*
X012897Y013025D01*
X013075Y012976D02*
X013173Y012976D01*
X012749Y012452D02*
X012775Y012446D01*
X012800Y012443D01*
X012826Y012444D01*
X012852Y012449D01*
X012876Y012457D01*
X012899Y012469D01*
X012920Y012484D01*
X012939Y012502D01*
X012955Y012522D01*
X012968Y012545D01*
X012977Y012569D01*
X012983Y012594D01*
X012985Y012620D01*
X012983Y012646D01*
X012978Y012671D01*
X012969Y012696D01*
X012957Y012718D01*
X012941Y012739D01*
X012923Y012757D01*
X012902Y012773D01*
X012880Y012785D01*
X012855Y012794D01*
X012830Y012799D01*
X012804Y012801D01*
X012778Y012799D01*
X012753Y012793D01*
X012729Y012784D01*
X012706Y012771D01*
X012686Y012755D01*
X012668Y012736D01*
X012653Y012715D01*
X012641Y012692D01*
X012633Y012668D01*
X012628Y012642D01*
X012627Y012616D01*
X012630Y012590D01*
X012636Y012565D01*
X012742Y012332D02*
X013181Y012332D01*
X013202Y012274D02*
X013072Y012274D01*
X012938Y012274D02*
X012713Y012274D01*
X012732Y012215D02*
X012879Y012215D01*
X012858Y012156D02*
X012753Y012156D01*
D12*
X016972Y012093D02*
X017325Y011740D01*
X016794Y011916D02*
X016796Y011953D01*
X016802Y011990D01*
X016811Y012025D01*
X016825Y012060D01*
X016841Y012093D01*
X016862Y012124D01*
X016885Y012153D01*
X016911Y012179D01*
X016940Y012202D01*
X016971Y012223D01*
X017004Y012239D01*
X017039Y012253D01*
X017074Y012262D01*
X017111Y012268D01*
X017148Y012270D01*
X017185Y012268D01*
X017222Y012262D01*
X017257Y012253D01*
X017292Y012239D01*
X017325Y012223D01*
X017356Y012202D01*
X017385Y012179D01*
X017411Y012153D01*
X017434Y012124D01*
X017455Y012093D01*
X017471Y012060D01*
X017485Y012025D01*
X017494Y011990D01*
X017500Y011953D01*
X017502Y011916D01*
X017500Y011879D01*
X017494Y011842D01*
X017485Y011807D01*
X017471Y011772D01*
X017455Y011739D01*
X017434Y011708D01*
X017411Y011679D01*
X017385Y011653D01*
X017356Y011630D01*
X017325Y011609D01*
X017292Y011593D01*
X017257Y011579D01*
X017222Y011570D01*
X017185Y011564D01*
X017148Y011562D01*
X017111Y011564D01*
X017074Y011570D01*
X017039Y011579D01*
X017004Y011593D01*
X016971Y011609D01*
X016940Y011630D01*
X016911Y011653D01*
X016885Y011679D01*
X016862Y011708D01*
X016841Y011739D01*
X016825Y011772D01*
X016811Y011807D01*
X016802Y011842D01*
X016796Y011879D01*
X016794Y011916D01*
X016972Y011740D02*
X017325Y012093D01*
X018529Y012122D02*
X017276Y010870D01*
X011152Y016994D01*
X012405Y018247D01*
X011514Y019138D01*
X011931Y019555D01*
X013045Y020669D02*
X013463Y021087D01*
X014353Y020196D01*
X015606Y021449D01*
X021731Y015324D01*
X020478Y014071D01*
X021369Y013180D01*
X020951Y012763D01*
X019838Y011649D02*
X019420Y011232D01*
X018529Y012122D01*
X016998Y013487D02*
X013769Y016716D01*
X015885Y018832D01*
X019114Y015602D01*
X016998Y013487D01*
X020330Y015452D02*
X020332Y015489D01*
X020338Y015526D01*
X020347Y015561D01*
X020361Y015596D01*
X020377Y015629D01*
X020398Y015660D01*
X020421Y015689D01*
X020447Y015715D01*
X020476Y015738D01*
X020507Y015759D01*
X020540Y015775D01*
X020575Y015789D01*
X020610Y015798D01*
X020647Y015804D01*
X020684Y015806D01*
X020721Y015804D01*
X020758Y015798D01*
X020793Y015789D01*
X020828Y015775D01*
X020861Y015759D01*
X020892Y015738D01*
X020921Y015715D01*
X020947Y015689D01*
X020970Y015660D01*
X020991Y015629D01*
X021007Y015596D01*
X021021Y015561D01*
X021030Y015526D01*
X021036Y015489D01*
X021038Y015452D01*
X021036Y015415D01*
X021030Y015378D01*
X021021Y015343D01*
X021007Y015308D01*
X020991Y015275D01*
X020970Y015244D01*
X020947Y015215D01*
X020921Y015189D01*
X020892Y015166D01*
X020861Y015145D01*
X020828Y015129D01*
X020793Y015115D01*
X020758Y015106D01*
X020721Y015100D01*
X020684Y015098D01*
X020647Y015100D01*
X020610Y015106D01*
X020575Y015115D01*
X020540Y015129D01*
X020507Y015145D01*
X020476Y015166D01*
X020447Y015189D01*
X020421Y015215D01*
X020398Y015244D01*
X020377Y015275D01*
X020361Y015308D01*
X020347Y015343D01*
X020338Y015378D01*
X020332Y015415D01*
X020330Y015452D01*
X015911Y020225D02*
X015557Y020579D01*
X015380Y020402D02*
X015382Y020439D01*
X015388Y020476D01*
X015397Y020511D01*
X015411Y020546D01*
X015427Y020579D01*
X015448Y020610D01*
X015471Y020639D01*
X015497Y020665D01*
X015526Y020688D01*
X015557Y020709D01*
X015590Y020725D01*
X015625Y020739D01*
X015660Y020748D01*
X015697Y020754D01*
X015734Y020756D01*
X015771Y020754D01*
X015808Y020748D01*
X015843Y020739D01*
X015878Y020725D01*
X015911Y020709D01*
X015942Y020688D01*
X015971Y020665D01*
X015997Y020639D01*
X016020Y020610D01*
X016041Y020579D01*
X016057Y020546D01*
X016071Y020511D01*
X016080Y020476D01*
X016086Y020439D01*
X016088Y020402D01*
X016086Y020365D01*
X016080Y020328D01*
X016071Y020293D01*
X016057Y020258D01*
X016041Y020225D01*
X016020Y020194D01*
X015997Y020165D01*
X015971Y020139D01*
X015942Y020116D01*
X015911Y020095D01*
X015878Y020079D01*
X015843Y020065D01*
X015808Y020056D01*
X015771Y020050D01*
X015734Y020048D01*
X015697Y020050D01*
X015660Y020056D01*
X015625Y020065D01*
X015590Y020079D01*
X015557Y020095D01*
X015526Y020116D01*
X015497Y020139D01*
X015471Y020165D01*
X015448Y020194D01*
X015427Y020225D01*
X015411Y020258D01*
X015397Y020293D01*
X015388Y020328D01*
X015382Y020365D01*
X015380Y020402D01*
X011845Y016866D02*
X011847Y016903D01*
X011853Y016940D01*
X011862Y016975D01*
X011876Y017010D01*
X011892Y017043D01*
X011913Y017074D01*
X011936Y017103D01*
X011962Y017129D01*
X011991Y017152D01*
X012022Y017173D01*
X012055Y017189D01*
X012090Y017203D01*
X012125Y017212D01*
X012162Y017218D01*
X012199Y017220D01*
X012236Y017218D01*
X012273Y017212D01*
X012308Y017203D01*
X012343Y017189D01*
X012376Y017173D01*
X012407Y017152D01*
X012436Y017129D01*
X012462Y017103D01*
X012485Y017074D01*
X012506Y017043D01*
X012522Y017010D01*
X012536Y016975D01*
X012545Y016940D01*
X012551Y016903D01*
X012553Y016866D01*
X012551Y016829D01*
X012545Y016792D01*
X012536Y016757D01*
X012522Y016722D01*
X012506Y016689D01*
X012485Y016658D01*
X012462Y016629D01*
X012436Y016603D01*
X012407Y016580D01*
X012376Y016559D01*
X012343Y016543D01*
X012308Y016529D01*
X012273Y016520D01*
X012236Y016514D01*
X012199Y016512D01*
X012162Y016514D01*
X012125Y016520D01*
X012090Y016529D01*
X012055Y016543D01*
X012022Y016559D01*
X011991Y016580D01*
X011962Y016603D01*
X011936Y016629D01*
X011913Y016658D01*
X011892Y016689D01*
X011876Y016722D01*
X011862Y016757D01*
X011853Y016792D01*
X011847Y016829D01*
X011845Y016866D01*
D13*
X020105Y017409D02*
X020279Y017236D01*
X020394Y017236D01*
X020452Y017294D01*
X020452Y017409D01*
X020279Y017583D01*
X020452Y017756D02*
X020105Y017409D01*
X020452Y017409D02*
X020568Y017409D01*
X020626Y017467D01*
X020626Y017583D01*
X020452Y017756D01*
X020701Y017276D02*
X020470Y017045D01*
X020643Y017218D02*
X020874Y016987D01*
X020932Y017045D02*
X020701Y016814D01*
X020932Y017045D02*
X020932Y017276D01*
X020701Y017276D01*
X021181Y017027D02*
X021412Y016796D01*
X021297Y016911D02*
X020950Y016565D01*
X021315Y016200D02*
X021661Y016547D01*
X021546Y016662D02*
X021777Y016431D01*
X021795Y016182D02*
X022026Y016182D01*
X021679Y015835D01*
X021564Y015951D02*
X021795Y015720D01*
M02*
