G75*
G70*
%OFA0B0*%
%FSLAX24Y24*%
%IPPOS*%
%LPD*%
%AMOC8*
5,1,8,0,0,1.08239X$1,22.5*
%
%ADD10C,0.0000*%
%ADD11R,0.0591X0.0591*%
%ADD12R,0.0630X0.0709*%
%ADD13R,0.0240X0.0870*%
%ADD14C,0.0100*%
%ADD15C,0.0357*%
D10*
X010038Y009756D02*
X025786Y009756D01*
X026053Y009873D01*
X026314Y010003D01*
X026569Y010146D01*
X026816Y010300D01*
X027055Y010467D01*
X027287Y010645D01*
X027509Y010833D01*
X027722Y011033D01*
X027925Y011242D01*
X028117Y011461D01*
X028299Y011689D01*
X028470Y011925D01*
X028629Y012170D01*
X028776Y012422D01*
X028911Y012680D01*
X029033Y012945D01*
X029142Y013216D01*
X029238Y013491D01*
X029320Y013771D01*
X029389Y014054D01*
X029444Y014340D01*
X029485Y014629D01*
X029513Y014919D01*
X029526Y015211D01*
X029525Y015502D01*
X029510Y015794D01*
X029481Y016084D01*
X029438Y016372D01*
X029381Y016658D01*
X029310Y016941D01*
X029226Y017220D01*
X029128Y017495D01*
X029017Y017765D01*
X028893Y018029D01*
X028757Y018286D01*
X028608Y018537D01*
X028448Y018781D01*
X028276Y019016D01*
X028092Y019243D01*
X027898Y019461D01*
X027694Y019669D01*
X027480Y019866D01*
X027256Y020054D01*
X027024Y020230D01*
X026783Y020395D01*
X026535Y020548D01*
X026280Y020689D01*
X026018Y020817D01*
X025750Y020933D01*
X025477Y021035D01*
X025200Y021125D01*
X024918Y021200D01*
X024633Y021262D01*
X024345Y021310D01*
X024056Y021345D01*
X023765Y021365D01*
X023473Y021371D01*
X023182Y021363D01*
X022891Y021341D01*
X022602Y021305D01*
X022315Y021255D01*
X022030Y021191D01*
X021749Y021113D01*
X021472Y021022D01*
X021200Y020918D01*
X017640Y022840D02*
X017642Y022883D01*
X017648Y022925D01*
X017658Y022967D01*
X017671Y023008D01*
X017688Y023048D01*
X017709Y023085D01*
X017733Y023121D01*
X017760Y023154D01*
X017790Y023185D01*
X017823Y023213D01*
X017858Y023238D01*
X017895Y023259D01*
X017934Y023277D01*
X017974Y023291D01*
X018016Y023302D01*
X018058Y023309D01*
X018101Y023312D01*
X018144Y023311D01*
X018187Y023306D01*
X018229Y023297D01*
X018270Y023285D01*
X018310Y023269D01*
X018348Y023249D01*
X018384Y023226D01*
X018418Y023199D01*
X018450Y023170D01*
X018478Y023138D01*
X018504Y023103D01*
X018526Y023067D01*
X018545Y023028D01*
X018560Y022988D01*
X018572Y022947D01*
X018580Y022904D01*
X018584Y022861D01*
X018584Y022819D01*
X018580Y022776D01*
X018572Y022733D01*
X018560Y022692D01*
X018545Y022652D01*
X018526Y022613D01*
X018504Y022577D01*
X018478Y022542D01*
X018450Y022510D01*
X018418Y022481D01*
X018384Y022454D01*
X018348Y022431D01*
X018310Y022411D01*
X018270Y022395D01*
X018229Y022383D01*
X018187Y022374D01*
X018144Y022369D01*
X018101Y022368D01*
X018058Y022371D01*
X018016Y022378D01*
X017974Y022389D01*
X017934Y022403D01*
X017895Y022421D01*
X017858Y022442D01*
X017823Y022467D01*
X017790Y022495D01*
X017760Y022526D01*
X017733Y022559D01*
X017709Y022595D01*
X017688Y022632D01*
X017671Y022672D01*
X017658Y022713D01*
X017648Y022755D01*
X017642Y022797D01*
X017640Y022840D01*
X021200Y020917D02*
X021304Y021190D01*
X021395Y021467D01*
X021473Y021748D01*
X021537Y022032D01*
X021587Y022320D01*
X021623Y022609D01*
X021645Y022900D01*
X021653Y023191D01*
X021647Y023483D01*
X021627Y023774D01*
X021592Y024063D01*
X021544Y024351D01*
X021482Y024636D01*
X021407Y024918D01*
X021317Y025195D01*
X021215Y025468D01*
X021099Y025736D01*
X020971Y025998D01*
X020830Y026253D01*
X020677Y026501D01*
X020512Y026742D01*
X020336Y026974D01*
X020148Y027198D01*
X019951Y027412D01*
X019743Y027616D01*
X019525Y027810D01*
X019298Y027994D01*
X019063Y028166D01*
X018819Y028326D01*
X018568Y028475D01*
X018311Y028611D01*
X018047Y028735D01*
X017777Y028846D01*
X017502Y028944D01*
X017223Y029028D01*
X016940Y029099D01*
X016654Y029156D01*
X016366Y029199D01*
X016076Y029228D01*
X015784Y029243D01*
X015493Y029244D01*
X015201Y029231D01*
X014911Y029203D01*
X014622Y029162D01*
X014336Y029107D01*
X014053Y029038D01*
X013773Y028956D01*
X013498Y028860D01*
X013227Y028751D01*
X012962Y028629D01*
X012704Y028494D01*
X012452Y028347D01*
X012207Y028188D01*
X011971Y028017D01*
X011743Y027835D01*
X011524Y027643D01*
X011315Y027440D01*
X011115Y027227D01*
X010927Y027005D01*
X010749Y026773D01*
X010582Y026534D01*
X010428Y026287D01*
X010285Y026032D01*
X010155Y025771D01*
X010038Y025504D01*
X010038Y009756D01*
X022651Y017829D02*
X022653Y017872D01*
X022659Y017914D01*
X022669Y017956D01*
X022682Y017997D01*
X022699Y018037D01*
X022720Y018074D01*
X022744Y018110D01*
X022771Y018143D01*
X022801Y018174D01*
X022834Y018202D01*
X022869Y018227D01*
X022906Y018248D01*
X022945Y018266D01*
X022985Y018280D01*
X023027Y018291D01*
X023069Y018298D01*
X023112Y018301D01*
X023155Y018300D01*
X023198Y018295D01*
X023240Y018286D01*
X023281Y018274D01*
X023321Y018258D01*
X023359Y018238D01*
X023395Y018215D01*
X023429Y018188D01*
X023461Y018159D01*
X023489Y018127D01*
X023515Y018092D01*
X023537Y018056D01*
X023556Y018017D01*
X023571Y017977D01*
X023583Y017936D01*
X023591Y017893D01*
X023595Y017850D01*
X023595Y017808D01*
X023591Y017765D01*
X023583Y017722D01*
X023571Y017681D01*
X023556Y017641D01*
X023537Y017602D01*
X023515Y017566D01*
X023489Y017531D01*
X023461Y017499D01*
X023429Y017470D01*
X023395Y017443D01*
X023359Y017420D01*
X023321Y017400D01*
X023281Y017384D01*
X023240Y017372D01*
X023198Y017363D01*
X023155Y017358D01*
X023112Y017357D01*
X023069Y017360D01*
X023027Y017367D01*
X022985Y017378D01*
X022945Y017392D01*
X022906Y017410D01*
X022869Y017431D01*
X022834Y017456D01*
X022801Y017484D01*
X022771Y017515D01*
X022744Y017548D01*
X022720Y017584D01*
X022699Y017621D01*
X022682Y017661D01*
X022669Y017702D01*
X022659Y017744D01*
X022653Y017786D01*
X022651Y017829D01*
D11*
G36*
X020687Y019848D02*
X021104Y020265D01*
X021521Y019848D01*
X021104Y019431D01*
X020687Y019848D01*
G37*
G36*
X019713Y020822D02*
X020130Y021239D01*
X020547Y020822D01*
X020130Y020405D01*
X019713Y020822D01*
G37*
G36*
X020409Y023467D02*
X020826Y023884D01*
X021243Y023467D01*
X020826Y023050D01*
X020409Y023467D01*
G37*
G36*
X019435Y024441D02*
X019852Y024858D01*
X020269Y024441D01*
X019852Y024024D01*
X019435Y024441D01*
G37*
G36*
X019017Y026529D02*
X019434Y026946D01*
X019851Y026529D01*
X019434Y026112D01*
X019017Y026529D01*
G37*
G36*
X018043Y027503D02*
X018460Y027920D01*
X018877Y027503D01*
X018460Y027086D01*
X018043Y027503D01*
G37*
G36*
X016094Y027503D02*
X016511Y027920D01*
X016928Y027503D01*
X016511Y027086D01*
X016094Y027503D01*
G37*
G36*
X015120Y028478D02*
X015537Y028895D01*
X015954Y028478D01*
X015537Y028061D01*
X015120Y028478D01*
G37*
G36*
X013449Y026807D02*
X013866Y027224D01*
X014283Y026807D01*
X013866Y026390D01*
X013449Y026807D01*
G37*
G36*
X012475Y027782D02*
X012892Y028199D01*
X013309Y027782D01*
X012892Y027365D01*
X012475Y027782D01*
G37*
G36*
X010387Y025694D02*
X010804Y026111D01*
X011221Y025694D01*
X010804Y025277D01*
X010387Y025694D01*
G37*
G36*
X011361Y024720D02*
X011778Y025137D01*
X012195Y024720D01*
X011778Y024303D01*
X011361Y024720D01*
G37*
G36*
X010248Y022771D02*
X010665Y023188D01*
X011082Y022771D01*
X010665Y022354D01*
X010248Y022771D01*
G37*
G36*
X011222Y021796D02*
X011639Y022213D01*
X012056Y021796D01*
X011639Y021379D01*
X011222Y021796D01*
G37*
G36*
X010248Y019709D02*
X010665Y020126D01*
X011082Y019709D01*
X010665Y019292D01*
X010248Y019709D01*
G37*
G36*
X011222Y018734D02*
X011639Y019151D01*
X012056Y018734D01*
X011639Y018317D01*
X011222Y018734D01*
G37*
G36*
X010248Y016925D02*
X010665Y017342D01*
X011082Y016925D01*
X010665Y016508D01*
X010248Y016925D01*
G37*
G36*
X011222Y015950D02*
X011639Y016367D01*
X012056Y015950D01*
X011639Y015533D01*
X011222Y015950D01*
G37*
G36*
X010248Y014141D02*
X010665Y014558D01*
X011082Y014141D01*
X010665Y013724D01*
X010248Y014141D01*
G37*
G36*
X011222Y013166D02*
X011639Y013583D01*
X012056Y013166D01*
X011639Y012749D01*
X011222Y013166D01*
G37*
G36*
X010248Y011357D02*
X010665Y011774D01*
X011082Y011357D01*
X010665Y010940D01*
X010248Y011357D01*
G37*
G36*
X011222Y010383D02*
X011639Y010800D01*
X012056Y010383D01*
X011639Y009966D01*
X011222Y010383D01*
G37*
G36*
X013032Y011357D02*
X013449Y011774D01*
X013866Y011357D01*
X013449Y010940D01*
X013032Y011357D01*
G37*
G36*
X014006Y010383D02*
X014423Y010800D01*
X014840Y010383D01*
X014423Y009966D01*
X014006Y010383D01*
G37*
G36*
X015816Y011357D02*
X016233Y011774D01*
X016650Y011357D01*
X016233Y010940D01*
X015816Y011357D01*
G37*
G36*
X016790Y010383D02*
X017207Y010800D01*
X017624Y010383D01*
X017207Y009966D01*
X016790Y010383D01*
G37*
G36*
X018599Y011357D02*
X019016Y011774D01*
X019433Y011357D01*
X019016Y010940D01*
X018599Y011357D01*
G37*
G36*
X019574Y010383D02*
X019991Y010800D01*
X020408Y010383D01*
X019991Y009966D01*
X019574Y010383D01*
G37*
G36*
X021662Y011357D02*
X022079Y011774D01*
X022496Y011357D01*
X022079Y010940D01*
X021662Y011357D01*
G37*
G36*
X022636Y010383D02*
X023053Y010800D01*
X023470Y010383D01*
X023053Y009966D01*
X022636Y010383D01*
G37*
G36*
X024585Y011496D02*
X025002Y011913D01*
X025419Y011496D01*
X025002Y011079D01*
X024585Y011496D01*
G37*
G36*
X025559Y010522D02*
X025976Y010939D01*
X026393Y010522D01*
X025976Y010105D01*
X025559Y010522D01*
G37*
G36*
X027647Y012610D02*
X028064Y013027D01*
X028481Y012610D01*
X028064Y012193D01*
X027647Y012610D01*
G37*
G36*
X026673Y013584D02*
X027090Y014001D01*
X027507Y013584D01*
X027090Y013167D01*
X026673Y013584D01*
G37*
G36*
X028343Y015254D02*
X028760Y015671D01*
X029177Y015254D01*
X028760Y014837D01*
X028343Y015254D01*
G37*
G36*
X027369Y016229D02*
X027786Y016646D01*
X028203Y016229D01*
X027786Y015812D01*
X027369Y016229D01*
G37*
G36*
X027369Y018177D02*
X027786Y018594D01*
X028203Y018177D01*
X027786Y017760D01*
X027369Y018177D01*
G37*
G36*
X026394Y019152D02*
X026811Y019569D01*
X027228Y019152D01*
X026811Y018735D01*
X026394Y019152D01*
G37*
G36*
X024306Y019569D02*
X024723Y019986D01*
X025140Y019569D01*
X024723Y019152D01*
X024306Y019569D01*
G37*
G36*
X023332Y020544D02*
X023749Y020961D01*
X024166Y020544D01*
X023749Y020127D01*
X023332Y020544D01*
G37*
G36*
X016274Y021755D02*
X015857Y022172D01*
X016274Y022589D01*
X016691Y022172D01*
X016274Y021755D01*
G37*
G36*
X014103Y023927D02*
X013686Y024344D01*
X014103Y024761D01*
X014520Y024344D01*
X014103Y023927D01*
G37*
D12*
G36*
X024515Y016215D02*
X024069Y016661D01*
X024569Y017161D01*
X025015Y016715D01*
X024515Y016215D01*
G37*
G36*
X025295Y015436D02*
X024849Y015882D01*
X025349Y016382D01*
X025795Y015936D01*
X025295Y015436D01*
G37*
D13*
G36*
X024619Y014718D02*
X024789Y014888D01*
X025403Y014274D01*
X025233Y014104D01*
X024619Y014718D01*
G37*
G36*
X024265Y014365D02*
X024435Y014535D01*
X025049Y013921D01*
X024879Y013751D01*
X024265Y014365D01*
G37*
G36*
X023912Y014011D02*
X024082Y014181D01*
X024696Y013567D01*
X024526Y013397D01*
X023912Y014011D01*
G37*
G36*
X023558Y013658D02*
X023728Y013828D01*
X024342Y013214D01*
X024172Y013044D01*
X023558Y013658D01*
G37*
G36*
X021685Y015531D02*
X021855Y015701D01*
X022469Y015087D01*
X022299Y014917D01*
X021685Y015531D01*
G37*
G36*
X022038Y015885D02*
X022208Y016055D01*
X022822Y015441D01*
X022652Y015271D01*
X022038Y015885D01*
G37*
G36*
X022392Y016239D02*
X022562Y016409D01*
X023176Y015795D01*
X023006Y015625D01*
X022392Y016239D01*
G37*
G36*
X022745Y016592D02*
X022915Y016762D01*
X023529Y016148D01*
X023359Y015978D01*
X022745Y016592D01*
G37*
D14*
X023137Y016370D02*
X023344Y016577D01*
X023540Y016577D01*
X023679Y016438D01*
X023819Y016298D01*
X024153Y016298D01*
X024542Y016688D01*
X024871Y016162D02*
X024917Y016162D01*
X024958Y016202D02*
X024729Y015973D01*
X024709Y015939D01*
X024699Y015900D01*
X024699Y015861D01*
X024709Y015823D01*
X024729Y015789D01*
X024930Y015587D01*
X025251Y015908D01*
X025322Y015838D01*
X025001Y015517D01*
X025202Y015315D01*
X025236Y015296D01*
X025274Y015285D01*
X025314Y015285D01*
X025321Y015287D01*
X025061Y015026D01*
X024953Y015134D01*
X024846Y015179D01*
X024731Y015179D01*
X024624Y015134D01*
X024373Y014883D01*
X024343Y014811D01*
X024270Y014781D01*
X024019Y014530D01*
X023989Y014457D01*
X023917Y014427D01*
X023666Y014176D01*
X023621Y014070D01*
X023621Y013954D01*
X023627Y013940D01*
X023544Y013856D01*
X023950Y013450D01*
X023936Y013436D01*
X023530Y013842D01*
X023438Y013750D01*
X023418Y013716D01*
X023408Y013678D01*
X023408Y013639D01*
X023418Y013600D01*
X023438Y013566D01*
X023752Y013252D01*
X023936Y013435D01*
X023950Y013421D01*
X023767Y013238D01*
X024081Y012923D01*
X024115Y012903D01*
X024153Y012893D01*
X024193Y012893D01*
X024231Y012903D01*
X024265Y012923D01*
X024357Y013015D01*
X023950Y013421D01*
X023965Y013435D01*
X024371Y013029D01*
X024455Y013113D01*
X024469Y013107D01*
X024449Y013107D01*
X024469Y013107D02*
X024506Y013107D01*
X024553Y013059D01*
X024095Y012602D01*
X023263Y012602D01*
X022436Y013429D01*
X022341Y013524D01*
X022216Y013576D01*
X020800Y013576D01*
X020743Y013633D01*
X020571Y013704D01*
X020385Y013704D01*
X020213Y013633D01*
X020081Y013501D01*
X014291Y013501D01*
X014192Y013599D02*
X020179Y013599D01*
X020081Y013501D02*
X020010Y013329D01*
X020010Y013143D01*
X020081Y012971D01*
X020213Y012839D01*
X020385Y012768D01*
X020571Y012768D01*
X020743Y012839D01*
X020800Y012896D01*
X022007Y012896D01*
X022719Y012184D01*
X022498Y012184D01*
X022495Y012183D01*
X022373Y012132D01*
X022252Y012011D01*
X022243Y012020D01*
X022136Y012064D01*
X022021Y012064D01*
X021914Y012020D01*
X021898Y012004D01*
X021834Y012030D01*
X021798Y012045D01*
X021663Y012045D01*
X019297Y012045D01*
X019293Y012043D01*
X019197Y012004D01*
X019181Y012020D01*
X019074Y012064D01*
X018959Y012064D01*
X018852Y012020D01*
X018843Y012011D01*
X018261Y012593D01*
X018165Y012689D01*
X018040Y012741D01*
X015956Y012741D01*
X015831Y012689D01*
X015736Y012593D01*
X015467Y012325D01*
X012745Y015047D01*
X012745Y017901D01*
X012745Y018036D01*
X012734Y018062D01*
X012734Y018201D01*
X012663Y018373D01*
X012531Y018505D01*
X012359Y018576D01*
X012305Y018576D01*
X012347Y018676D01*
X012347Y018792D01*
X012303Y018898D01*
X011803Y019398D01*
X011697Y019442D01*
X011581Y019442D01*
X011475Y019398D01*
X010976Y018898D01*
X010932Y018792D01*
X010932Y018676D01*
X010976Y018570D01*
X011475Y018071D01*
X011581Y018027D01*
X011697Y018027D01*
X011797Y018068D01*
X011797Y018015D01*
X011868Y017843D01*
X012000Y017711D01*
X012065Y017684D01*
X012065Y016352D01*
X011803Y016614D01*
X011697Y016658D01*
X011581Y016658D01*
X011475Y016614D01*
X010976Y016115D01*
X010932Y016008D01*
X010932Y015893D01*
X010976Y015786D01*
X010992Y015769D01*
X010951Y015670D01*
X010951Y015531D01*
X010951Y015449D01*
X010657Y015743D01*
X010657Y016217D01*
X010722Y016217D01*
X010829Y016261D01*
X011328Y016760D01*
X011372Y016867D01*
X011372Y016982D01*
X011328Y017089D01*
X011319Y017098D01*
X011440Y017219D01*
X011476Y017307D01*
X011492Y017344D01*
X012065Y017344D01*
X012065Y017246D02*
X011451Y017246D01*
X011492Y017344D02*
X011492Y017762D01*
X011492Y017897D01*
X011477Y017933D01*
X011440Y018022D01*
X010657Y018805D01*
X010657Y019001D01*
X010722Y019001D01*
X010829Y019045D01*
X011328Y019544D01*
X011372Y019651D01*
X011372Y019766D01*
X011328Y019873D01*
X011312Y019889D01*
X011337Y019951D01*
X011353Y019989D01*
X011353Y020820D01*
X011301Y020945D01*
X011205Y021041D01*
X011138Y021109D01*
X011220Y021109D01*
X011359Y021109D01*
X011396Y021124D01*
X011458Y021150D01*
X011475Y021133D01*
X011581Y021089D01*
X011697Y021089D01*
X011803Y021133D01*
X012303Y021632D01*
X012347Y021739D01*
X012347Y021854D01*
X012303Y021961D01*
X011803Y022460D01*
X011697Y022504D01*
X011581Y022504D01*
X011475Y022460D01*
X011139Y022124D01*
X010967Y022195D01*
X010917Y022195D01*
X011328Y022607D01*
X011372Y022713D01*
X011372Y022829D01*
X011328Y022935D01*
X011311Y022952D01*
X011337Y023014D01*
X011353Y023051D01*
X011353Y023882D01*
X011337Y023921D01*
X011301Y024007D01*
X010796Y024512D01*
X010796Y024986D01*
X010862Y024986D01*
X010968Y025031D01*
X011467Y025530D01*
X011511Y025636D01*
X011511Y025713D01*
X011524Y025713D01*
X011696Y025784D01*
X011827Y025916D01*
X011899Y026088D01*
X011899Y026274D01*
X011827Y026446D01*
X011696Y026578D01*
X011524Y026650D01*
X011337Y026650D01*
X011165Y026578D01*
X011033Y026446D01*
X011003Y026374D01*
X010977Y026348D01*
X010968Y026357D01*
X010862Y026401D01*
X010854Y026401D01*
X010926Y026521D01*
X011471Y027184D01*
X012110Y027758D01*
X012184Y027807D01*
X012184Y027724D01*
X012228Y027618D01*
X012238Y027608D01*
X011977Y027348D01*
X011926Y027223D01*
X011926Y027088D01*
X011926Y025390D01*
X011836Y025427D01*
X011721Y025427D01*
X011614Y025383D01*
X011115Y024884D01*
X011071Y024777D01*
X011071Y024662D01*
X011115Y024555D01*
X011614Y024056D01*
X011721Y024012D01*
X011836Y024012D01*
X011848Y024017D01*
X011868Y023967D01*
X012000Y023835D01*
X012172Y023764D01*
X012359Y023764D01*
X012531Y023835D01*
X012663Y023967D01*
X012734Y024139D01*
X012734Y024326D01*
X012663Y024498D01*
X012531Y024629D01*
X012481Y024650D01*
X012486Y024662D01*
X012486Y024777D01*
X012442Y024884D01*
X012433Y024893D01*
X012554Y025014D01*
X012590Y025101D01*
X012605Y025139D01*
X012605Y027015D01*
X012718Y027128D01*
X012728Y027118D01*
X012834Y027074D01*
X012950Y027074D01*
X013056Y027118D01*
X013555Y027618D01*
X013599Y027724D01*
X013599Y027840D01*
X013555Y027946D01*
X013546Y027955D01*
X013729Y028138D01*
X015049Y028138D01*
X015134Y028052D01*
X014703Y028052D01*
X014578Y028000D01*
X014483Y027905D01*
X014040Y027462D01*
X014031Y027471D01*
X013924Y027515D01*
X013809Y027515D01*
X013702Y027471D01*
X013203Y026972D01*
X013159Y026865D01*
X013159Y026750D01*
X013203Y026643D01*
X013702Y026144D01*
X013809Y026100D01*
X013924Y026100D01*
X014031Y026144D01*
X014530Y026643D01*
X014574Y026750D01*
X014574Y026865D01*
X014530Y026972D01*
X014520Y026981D01*
X014912Y027372D01*
X015326Y027372D01*
X016112Y026586D01*
X016112Y026506D01*
X016183Y026333D01*
X016196Y026320D01*
X016183Y026307D01*
X016112Y026135D01*
X016112Y025949D01*
X016183Y025777D01*
X016315Y025645D01*
X016487Y025574D01*
X016674Y025574D01*
X016846Y025645D01*
X016978Y025777D01*
X017049Y025949D01*
X017049Y026030D01*
X017706Y026687D01*
X017772Y026687D01*
X017772Y026249D01*
X017772Y026113D01*
X017823Y025989D01*
X019197Y024615D01*
X019188Y024605D01*
X019144Y024499D01*
X019144Y024383D01*
X019188Y024277D01*
X019685Y023781D01*
X019633Y023729D01*
X019581Y023604D01*
X019581Y023469D01*
X019581Y022285D01*
X018937Y021641D01*
X018900Y021552D01*
X018885Y021516D01*
X018885Y021381D01*
X018885Y020824D01*
X018937Y020699D01*
X019033Y020604D01*
X020886Y018750D01*
X020981Y018655D01*
X021106Y018603D01*
X022634Y018603D01*
X022758Y018655D01*
X022854Y018750D01*
X022985Y018881D01*
X024443Y018881D01*
X024481Y018897D01*
X024542Y018923D01*
X024559Y018906D01*
X024666Y018862D01*
X024781Y018862D01*
X024888Y018906D01*
X024904Y018923D01*
X025004Y018881D01*
X025027Y018881D01*
X025084Y018824D01*
X025257Y018753D01*
X025443Y018753D01*
X025615Y018824D01*
X025747Y018956D01*
X025818Y019128D01*
X025818Y019315D01*
X026147Y019315D01*
X026148Y019316D02*
X026104Y019209D01*
X026104Y019094D01*
X026148Y018988D01*
X026157Y018978D01*
X026036Y018857D01*
X025986Y018736D01*
X025984Y018732D01*
X025984Y018315D01*
X025984Y018179D01*
X026036Y018054D01*
X026134Y017956D01*
X026134Y017875D01*
X026205Y017703D01*
X026337Y017572D01*
X026509Y017500D01*
X026590Y017500D01*
X026959Y017132D01*
X026959Y016648D01*
X026976Y016606D01*
X027010Y016523D01*
X027131Y016402D01*
X027122Y016393D01*
X027078Y016286D01*
X027078Y016171D01*
X027122Y016064D01*
X027131Y016055D01*
X026410Y015334D01*
X026314Y015238D01*
X026263Y015113D01*
X026263Y014839D01*
X026314Y014714D01*
X026410Y014618D01*
X026853Y014175D01*
X026426Y013748D01*
X026382Y013642D01*
X026382Y013526D01*
X026426Y013420D01*
X026435Y013411D01*
X026153Y013128D01*
X025410Y013870D01*
X025649Y014109D01*
X025693Y014216D01*
X025693Y014331D01*
X025649Y014438D01*
X025541Y014546D01*
X026591Y015595D01*
X026612Y015617D01*
X026664Y015742D01*
X026664Y016088D01*
X026612Y016213D01*
X026517Y016308D01*
X026517Y016308D01*
X025081Y017744D01*
X024986Y017839D01*
X024861Y017891D01*
X024447Y017891D01*
X024322Y017839D01*
X024226Y017744D01*
X023817Y017334D01*
X023706Y017334D01*
X023769Y017398D01*
X023885Y017678D01*
X023885Y017981D01*
X023769Y018261D01*
X023555Y018476D01*
X023274Y018592D01*
X022971Y018592D01*
X022691Y018476D01*
X022476Y018261D01*
X022360Y017981D01*
X022360Y017678D01*
X022476Y017398D01*
X022540Y017334D01*
X021593Y017334D01*
X016929Y021999D01*
X016938Y022008D01*
X016982Y022115D01*
X016982Y022230D01*
X016938Y022337D01*
X016439Y022836D01*
X016332Y022880D01*
X016217Y022880D01*
X016110Y022836D01*
X015611Y022337D01*
X015567Y022230D01*
X015567Y022115D01*
X015611Y022008D01*
X016110Y021509D01*
X016217Y021465D01*
X016332Y021465D01*
X016439Y021509D01*
X016448Y021518D01*
X021164Y016802D01*
X021260Y016706D01*
X021385Y016654D01*
X021680Y016654D01*
X012745Y016654D01*
X012745Y016556D02*
X021680Y016556D01*
X021680Y016484D02*
X021751Y016311D01*
X021883Y016180D01*
X021910Y016168D01*
X021792Y016050D01*
X021762Y015978D01*
X021690Y015948D01*
X021438Y015696D01*
X021394Y015590D01*
X021394Y015474D01*
X021438Y015368D01*
X022135Y014671D01*
X022242Y014627D01*
X022278Y014627D01*
X022376Y014529D01*
X022376Y014396D01*
X022447Y014223D01*
X022579Y014092D01*
X022751Y014020D01*
X022937Y014020D01*
X023110Y014092D01*
X023631Y014092D01*
X023621Y013994D02*
X013798Y013994D01*
X013700Y014092D02*
X022579Y014092D01*
X022480Y014191D02*
X013601Y014191D01*
X013503Y014289D02*
X022420Y014289D01*
X022379Y014388D02*
X013404Y014388D01*
X013306Y014486D02*
X022376Y014486D01*
X022320Y014585D02*
X013207Y014585D01*
X013108Y014683D02*
X022123Y014683D01*
X022024Y014782D02*
X013010Y014782D01*
X012911Y014880D02*
X021926Y014880D01*
X021827Y014979D02*
X012813Y014979D01*
X012745Y015078D02*
X021729Y015078D01*
X021630Y015176D02*
X012745Y015176D01*
X012745Y015275D02*
X021531Y015275D01*
X021436Y015373D02*
X012745Y015373D01*
X012745Y015472D02*
X021395Y015472D01*
X021394Y015570D02*
X012745Y015570D01*
X012745Y015669D02*
X021427Y015669D01*
X021509Y015767D02*
X012745Y015767D01*
X012745Y015866D02*
X021608Y015866D01*
X021730Y015964D02*
X012745Y015964D01*
X012745Y016063D02*
X021805Y016063D01*
X021903Y016162D02*
X012745Y016162D01*
X012745Y016260D02*
X021802Y016260D01*
X021732Y016359D02*
X012745Y016359D01*
X012745Y016457D02*
X021691Y016457D01*
X021680Y016484D02*
X021680Y016654D01*
X021452Y016994D02*
X023958Y016994D01*
X024515Y017551D01*
X024793Y017551D01*
X026324Y016020D01*
X026324Y015809D01*
X025011Y014496D01*
X024657Y014143D02*
X026179Y012621D01*
X026185Y012621D01*
X026185Y012679D01*
X027090Y013584D01*
X026672Y013994D02*
X025534Y013994D01*
X025632Y014092D02*
X026770Y014092D01*
X026837Y014191D02*
X025683Y014191D01*
X025693Y014289D02*
X026739Y014289D01*
X026640Y014388D02*
X025670Y014388D01*
X025601Y014486D02*
X026542Y014486D01*
X026443Y014585D02*
X025580Y014585D01*
X025679Y014683D02*
X026345Y014683D01*
X026286Y014782D02*
X025777Y014782D01*
X025876Y014880D02*
X026263Y014880D01*
X026263Y014979D02*
X025975Y014979D01*
X026073Y015078D02*
X026263Y015078D01*
X026289Y015176D02*
X026172Y015176D01*
X026270Y015275D02*
X026351Y015275D01*
X026369Y015373D02*
X026449Y015373D01*
X026467Y015472D02*
X026548Y015472D01*
X026566Y015570D02*
X026646Y015570D01*
X026634Y015669D02*
X026745Y015669D01*
X026664Y015767D02*
X026844Y015767D01*
X026942Y015866D02*
X026664Y015866D01*
X026664Y015964D02*
X027041Y015964D01*
X027124Y016063D02*
X026664Y016063D01*
X026633Y016162D02*
X027082Y016162D01*
X027078Y016260D02*
X026565Y016260D01*
X026466Y016359D02*
X027108Y016359D01*
X027076Y016457D02*
X026368Y016457D01*
X026269Y016556D02*
X026997Y016556D01*
X026959Y016654D02*
X026171Y016654D01*
X026072Y016753D02*
X026959Y016753D01*
X026959Y016851D02*
X025973Y016851D01*
X025875Y016950D02*
X026959Y016950D01*
X026959Y017048D02*
X025776Y017048D01*
X025678Y017147D02*
X026943Y017147D01*
X026845Y017246D02*
X025579Y017246D01*
X025481Y017344D02*
X026746Y017344D01*
X026648Y017443D02*
X025382Y017443D01*
X025284Y017541D02*
X026411Y017541D01*
X026269Y017640D02*
X025185Y017640D01*
X025087Y017738D02*
X026191Y017738D01*
X026150Y017837D02*
X024988Y017837D01*
X025081Y017744D02*
X025081Y017744D01*
X024320Y017837D02*
X023885Y017837D01*
X023885Y017935D02*
X026134Y017935D01*
X026056Y018034D02*
X023863Y018034D01*
X023822Y018132D02*
X026004Y018132D01*
X025984Y018231D02*
X023782Y018231D01*
X023701Y018329D02*
X025984Y018329D01*
X025984Y018428D02*
X023602Y018428D01*
X023432Y018527D02*
X025984Y018527D01*
X025984Y018625D02*
X022687Y018625D01*
X022813Y018527D02*
X020401Y018527D01*
X020302Y018625D02*
X021053Y018625D01*
X020912Y018724D02*
X020204Y018724D01*
X020105Y018822D02*
X020814Y018822D01*
X020886Y018750D02*
X020886Y018750D01*
X020715Y018921D02*
X020007Y018921D01*
X019908Y019019D02*
X020617Y019019D01*
X020518Y019118D02*
X019810Y019118D01*
X019711Y019216D02*
X020420Y019216D01*
X020321Y019315D02*
X019612Y019315D01*
X019514Y019413D02*
X020223Y019413D01*
X020124Y019512D02*
X019415Y019512D01*
X019317Y019611D02*
X020026Y019611D01*
X019927Y019709D02*
X019218Y019709D01*
X019120Y019808D02*
X019829Y019808D01*
X019730Y019906D02*
X019021Y019906D01*
X018923Y020005D02*
X019631Y020005D01*
X019533Y020103D02*
X018824Y020103D01*
X018726Y020202D02*
X019434Y020202D01*
X019336Y020300D02*
X018627Y020300D01*
X018528Y020399D02*
X019237Y020399D01*
X019139Y020497D02*
X018430Y020497D01*
X018331Y020596D02*
X019040Y020596D01*
X018942Y020695D02*
X018233Y020695D01*
X018134Y020793D02*
X018898Y020793D01*
X018885Y020892D02*
X018036Y020892D01*
X017937Y020990D02*
X018885Y020990D01*
X018885Y021089D02*
X017839Y021089D01*
X017740Y021187D02*
X018885Y021187D01*
X018885Y021286D02*
X017642Y021286D01*
X017543Y021384D02*
X018885Y021384D01*
X018885Y021483D02*
X017444Y021483D01*
X017346Y021581D02*
X018912Y021581D01*
X018885Y021516D02*
X018885Y021516D01*
X018976Y021680D02*
X017247Y021680D01*
X017149Y021779D02*
X019074Y021779D01*
X019173Y021877D02*
X017050Y021877D01*
X016952Y021976D02*
X019271Y021976D01*
X019370Y022074D02*
X016965Y022074D01*
X016982Y022173D02*
X017731Y022173D01*
X017680Y022194D02*
X017960Y022078D01*
X018263Y022078D01*
X018544Y022194D01*
X018758Y022409D01*
X018874Y022689D01*
X018874Y022992D01*
X018758Y023272D01*
X018544Y023487D01*
X018263Y023603D01*
X017960Y023603D01*
X017680Y023487D01*
X017465Y023272D01*
X017349Y022992D01*
X017349Y022689D01*
X017465Y022409D01*
X017680Y022194D01*
X017603Y022271D02*
X016965Y022271D01*
X016904Y022370D02*
X017504Y022370D01*
X017441Y022468D02*
X016806Y022468D01*
X016707Y022567D02*
X017400Y022567D01*
X017359Y022665D02*
X016609Y022665D01*
X016510Y022764D02*
X017349Y022764D01*
X017349Y022862D02*
X016374Y022862D01*
X016175Y022862D02*
X011358Y022862D01*
X011372Y022764D02*
X016038Y022764D01*
X015940Y022665D02*
X011353Y022665D01*
X011288Y022567D02*
X015841Y022567D01*
X015743Y022468D02*
X011783Y022468D01*
X011894Y022370D02*
X015644Y022370D01*
X015584Y022271D02*
X011992Y022271D01*
X012091Y022173D02*
X015567Y022173D01*
X015584Y022074D02*
X012189Y022074D01*
X012288Y021976D02*
X015643Y021976D01*
X015742Y021877D02*
X012337Y021877D01*
X012347Y021779D02*
X015840Y021779D01*
X015939Y021680D02*
X012322Y021680D01*
X012252Y021581D02*
X016037Y021581D01*
X016173Y021483D02*
X012153Y021483D01*
X012055Y021384D02*
X016581Y021384D01*
X016483Y021483D02*
X016376Y021483D01*
X016680Y021286D02*
X011956Y021286D01*
X011858Y021187D02*
X016779Y021187D01*
X016877Y021089D02*
X011157Y021089D01*
X011205Y021041D02*
X011205Y021041D01*
X011256Y020990D02*
X016976Y020990D01*
X017074Y020892D02*
X011323Y020892D01*
X011353Y020793D02*
X017173Y020793D01*
X017271Y020695D02*
X011353Y020695D01*
X011353Y020596D02*
X017370Y020596D01*
X017468Y020497D02*
X011353Y020497D01*
X011353Y020399D02*
X017567Y020399D01*
X017665Y020300D02*
X011353Y020300D01*
X011353Y020202D02*
X017764Y020202D01*
X017863Y020103D02*
X011353Y020103D01*
X011353Y020005D02*
X017961Y020005D01*
X018060Y019906D02*
X011318Y019906D01*
X011355Y019808D02*
X018158Y019808D01*
X018257Y019709D02*
X011372Y019709D01*
X011356Y019611D02*
X018355Y019611D01*
X018454Y019512D02*
X011296Y019512D01*
X011197Y019413D02*
X011513Y019413D01*
X011392Y019315D02*
X011099Y019315D01*
X011000Y019216D02*
X011294Y019216D01*
X011195Y019118D02*
X010902Y019118D01*
X010767Y019019D02*
X011097Y019019D01*
X010998Y018921D02*
X010657Y018921D01*
X010657Y018822D02*
X010944Y018822D01*
X010932Y018724D02*
X010739Y018724D01*
X010837Y018625D02*
X010953Y018625D01*
X010936Y018527D02*
X011019Y018527D01*
X011034Y018428D02*
X011118Y018428D01*
X011133Y018329D02*
X011216Y018329D01*
X011231Y018231D02*
X011315Y018231D01*
X011330Y018132D02*
X011413Y018132D01*
X011428Y018034D02*
X011564Y018034D01*
X011476Y017935D02*
X011830Y017935D01*
X011797Y018034D02*
X011714Y018034D01*
X011874Y017837D02*
X011492Y017837D01*
X011492Y017897D02*
X011492Y017897D01*
X011492Y017738D02*
X011973Y017738D01*
X012065Y017640D02*
X011492Y017640D01*
X011492Y017541D02*
X012065Y017541D01*
X012065Y017443D02*
X011492Y017443D01*
X011368Y017147D02*
X012065Y017147D01*
X012065Y017048D02*
X011345Y017048D01*
X011372Y016950D02*
X012065Y016950D01*
X012065Y016851D02*
X011366Y016851D01*
X011321Y016753D02*
X012065Y016753D01*
X012065Y016654D02*
X011706Y016654D01*
X011573Y016654D02*
X011222Y016654D01*
X011124Y016556D02*
X011417Y016556D01*
X011318Y016457D02*
X011025Y016457D01*
X010926Y016359D02*
X011220Y016359D01*
X011121Y016260D02*
X010826Y016260D01*
X010657Y016162D02*
X011023Y016162D01*
X010954Y016063D02*
X010657Y016063D01*
X010657Y015964D02*
X010932Y015964D01*
X010943Y015866D02*
X010657Y015866D01*
X010657Y015767D02*
X010992Y015767D01*
X010951Y015670D02*
X010951Y015670D01*
X010951Y015669D02*
X010731Y015669D01*
X010830Y015570D02*
X010951Y015570D01*
X010951Y015472D02*
X010928Y015472D01*
X011291Y015463D02*
X011430Y015324D01*
X011291Y015463D02*
X011291Y015602D01*
X011639Y015950D01*
X012059Y016359D02*
X012065Y016359D01*
X012065Y016457D02*
X011960Y016457D01*
X011861Y016556D02*
X012065Y016556D01*
X012745Y016753D02*
X021213Y016753D01*
X021114Y016851D02*
X012745Y016851D01*
X012745Y016950D02*
X021016Y016950D01*
X020917Y017048D02*
X012745Y017048D01*
X012745Y017147D02*
X020819Y017147D01*
X020720Y017246D02*
X012745Y017246D01*
X012745Y017344D02*
X020622Y017344D01*
X020523Y017443D02*
X012745Y017443D01*
X012745Y017541D02*
X020425Y017541D01*
X020326Y017640D02*
X012745Y017640D01*
X012745Y017738D02*
X020228Y017738D01*
X020129Y017837D02*
X012745Y017837D01*
X012745Y017935D02*
X020030Y017935D01*
X019932Y018034D02*
X012745Y018034D01*
X012734Y018132D02*
X019833Y018132D01*
X019735Y018231D02*
X012722Y018231D01*
X012681Y018329D02*
X019636Y018329D01*
X019538Y018428D02*
X012608Y018428D01*
X012479Y018527D02*
X019439Y018527D01*
X019341Y018625D02*
X012325Y018625D01*
X012347Y018724D02*
X019242Y018724D01*
X019144Y018822D02*
X012334Y018822D01*
X012280Y018921D02*
X019045Y018921D01*
X018946Y019019D02*
X012182Y019019D01*
X012083Y019118D02*
X018848Y019118D01*
X018749Y019216D02*
X011985Y019216D01*
X011886Y019315D02*
X018651Y019315D01*
X018552Y019413D02*
X011765Y019413D01*
X011639Y018734D02*
X012266Y018108D01*
X012405Y017969D01*
X012405Y014906D01*
X015467Y011844D01*
X014771Y011148D01*
X014771Y010731D01*
X014423Y010383D01*
X015189Y010452D02*
X015328Y010452D01*
X016233Y011357D01*
X016581Y011705D01*
X016720Y011705D01*
X017833Y010591D01*
X017207Y010383D02*
X016859Y010035D01*
X016720Y010035D01*
X016581Y010174D01*
X015189Y011009D02*
X016163Y011983D01*
X017276Y011983D01*
X019225Y010035D01*
X019643Y010035D01*
X019991Y010383D01*
X020339Y010731D01*
X020478Y010731D01*
X020617Y010591D01*
X021731Y011705D02*
X019364Y011705D01*
X019016Y011357D01*
X017972Y012401D01*
X016024Y012401D01*
X015467Y011844D01*
X015375Y012417D02*
X015559Y012417D01*
X015658Y012515D02*
X015276Y012515D01*
X015178Y012614D02*
X015756Y012614D01*
X015888Y012713D02*
X015079Y012713D01*
X014981Y012811D02*
X020280Y012811D01*
X020142Y012910D02*
X014882Y012910D01*
X014784Y013008D02*
X020065Y013008D01*
X020025Y013107D02*
X014685Y013107D01*
X014587Y013205D02*
X020010Y013205D01*
X020010Y013304D02*
X014488Y013304D01*
X014390Y013402D02*
X020040Y013402D01*
X020369Y013698D02*
X014094Y013698D01*
X013995Y013796D02*
X023484Y013796D01*
X023575Y013796D02*
X023604Y013796D01*
X023583Y013895D02*
X013897Y013895D01*
X012126Y013793D02*
X012126Y013654D01*
X011639Y013166D01*
X011430Y013932D02*
X010595Y013097D01*
X010595Y012818D01*
X012126Y011287D01*
X012126Y010870D01*
X011639Y010383D01*
X010804Y011357D02*
X010665Y011357D01*
X010804Y011357D02*
X011152Y011705D01*
X010317Y012540D01*
X010317Y013793D01*
X010665Y014141D01*
X010317Y014489D01*
X010317Y014767D01*
X010456Y014906D01*
X010317Y015602D02*
X011430Y014489D01*
X011430Y013932D01*
X010317Y015602D02*
X010317Y016577D01*
X010665Y016925D01*
X011152Y017412D01*
X011152Y017829D01*
X010317Y018665D01*
X010317Y019361D01*
X010665Y019709D01*
X011013Y020057D01*
X011013Y020753D01*
X010317Y021449D01*
X010317Y022423D01*
X010665Y022771D01*
X011013Y023119D01*
X011013Y023815D01*
X010456Y024372D01*
X010456Y025346D01*
X010804Y025694D01*
X011291Y026181D01*
X011430Y026181D01*
X011095Y026509D02*
X010918Y026509D01*
X010859Y026410D02*
X011018Y026410D01*
X010996Y026607D02*
X011235Y026607D01*
X011077Y026706D02*
X011926Y026706D01*
X011926Y026804D02*
X011159Y026804D01*
X011240Y026903D02*
X011926Y026903D01*
X011926Y027001D02*
X011321Y027001D01*
X011402Y027100D02*
X011926Y027100D01*
X011926Y027198D02*
X011488Y027198D01*
X011597Y027297D02*
X011956Y027297D01*
X012025Y027395D02*
X011707Y027395D01*
X011816Y027494D02*
X012123Y027494D01*
X012222Y027593D02*
X011926Y027593D01*
X012036Y027691D02*
X012198Y027691D01*
X012184Y027790D02*
X012158Y027790D01*
X012266Y027155D02*
X012266Y025207D01*
X011778Y024720D01*
X012266Y024232D01*
X012695Y024045D02*
X013875Y024045D01*
X013823Y023994D02*
X014011Y023806D01*
X014045Y023786D01*
X014083Y023776D01*
X014123Y023776D01*
X014161Y023786D01*
X014195Y023806D01*
X014382Y023994D01*
X014103Y024273D01*
X014174Y024344D01*
X014103Y024414D01*
X014382Y024694D01*
X014195Y024881D01*
X014161Y024901D01*
X014123Y024911D01*
X014083Y024911D01*
X014045Y024901D01*
X014011Y024881D01*
X013823Y024694D01*
X014103Y024414D01*
X014032Y024344D01*
X013753Y024623D01*
X013565Y024436D01*
X013546Y024402D01*
X013535Y024363D01*
X013535Y024324D01*
X013546Y024286D01*
X013565Y024252D01*
X013753Y024064D01*
X014032Y024344D01*
X014103Y024273D01*
X013823Y023994D01*
X013870Y023946D02*
X012642Y023946D01*
X012543Y023848D02*
X013969Y023848D01*
X014237Y023848D02*
X019617Y023848D01*
X019653Y023749D02*
X011353Y023749D01*
X011353Y023651D02*
X019601Y023651D01*
X019581Y023552D02*
X018385Y023552D01*
X018577Y023454D02*
X019581Y023454D01*
X019581Y023355D02*
X018675Y023355D01*
X018764Y023257D02*
X019581Y023257D01*
X019581Y023158D02*
X018805Y023158D01*
X018846Y023060D02*
X019581Y023060D01*
X019581Y022961D02*
X018874Y022961D01*
X018874Y022862D02*
X019581Y022862D01*
X019581Y022764D02*
X018874Y022764D01*
X018864Y022665D02*
X019581Y022665D01*
X019581Y022567D02*
X018824Y022567D01*
X018783Y022468D02*
X019581Y022468D01*
X019581Y022370D02*
X018719Y022370D01*
X018621Y022271D02*
X019567Y022271D01*
X019469Y022173D02*
X018492Y022173D01*
X019225Y021449D02*
X019921Y022144D01*
X019921Y023536D01*
X020478Y024093D01*
X020478Y025485D01*
X019434Y026529D01*
X018460Y027503D02*
X017555Y028408D01*
X016441Y028408D01*
X016163Y028130D01*
X015885Y028130D01*
X015537Y028478D01*
X013588Y028478D01*
X012892Y027782D01*
X012266Y027155D01*
X012605Y027001D02*
X013232Y027001D01*
X013174Y026903D02*
X012605Y026903D01*
X012605Y026804D02*
X013159Y026804D01*
X013177Y026706D02*
X012605Y026706D01*
X012605Y026607D02*
X013239Y026607D01*
X013337Y026509D02*
X012605Y026509D01*
X012605Y026410D02*
X013436Y026410D01*
X013535Y026311D02*
X012605Y026311D01*
X012605Y026213D02*
X013633Y026213D01*
X013774Y026114D02*
X012605Y026114D01*
X012605Y026016D02*
X016112Y026016D01*
X016112Y026114D02*
X013959Y026114D01*
X014099Y026213D02*
X016144Y026213D01*
X016188Y026311D02*
X014198Y026311D01*
X014296Y026410D02*
X016152Y026410D01*
X016112Y026509D02*
X014395Y026509D01*
X014494Y026607D02*
X016091Y026607D01*
X015993Y026706D02*
X014556Y026706D01*
X014574Y026804D02*
X015894Y026804D01*
X015796Y026903D02*
X014558Y026903D01*
X014541Y027001D02*
X015697Y027001D01*
X015599Y027100D02*
X014639Y027100D01*
X014738Y027198D02*
X015500Y027198D01*
X015401Y027297D02*
X014836Y027297D01*
X014771Y027712D02*
X015467Y027712D01*
X016581Y026599D01*
X016859Y027155D02*
X017137Y027155D01*
X016859Y027155D02*
X016511Y027503D01*
X017627Y026607D02*
X017772Y026607D01*
X017772Y026509D02*
X017528Y026509D01*
X017429Y026410D02*
X017772Y026410D01*
X017772Y026311D02*
X017331Y026311D01*
X017232Y026213D02*
X017772Y026213D01*
X017772Y026114D02*
X017134Y026114D01*
X017049Y026016D02*
X017812Y026016D01*
X017895Y025917D02*
X017036Y025917D01*
X016995Y025819D02*
X017993Y025819D01*
X018092Y025720D02*
X016921Y025720D01*
X016790Y025622D02*
X018190Y025622D01*
X018289Y025523D02*
X012605Y025523D01*
X012605Y025425D02*
X018387Y025425D01*
X018486Y025326D02*
X012605Y025326D01*
X012605Y025228D02*
X018584Y025228D01*
X018683Y025129D02*
X012601Y025129D01*
X012560Y025030D02*
X018782Y025030D01*
X018880Y024932D02*
X012471Y024932D01*
X012463Y024833D02*
X013963Y024833D01*
X013864Y024735D02*
X012486Y024735D01*
X012514Y024636D02*
X013881Y024636D01*
X013838Y024538D02*
X013979Y024538D01*
X013937Y024439D02*
X014078Y024439D01*
X014128Y024439D02*
X014269Y024439D01*
X014226Y024538D02*
X014367Y024538D01*
X014325Y024636D02*
X019176Y024636D01*
X019160Y024538D02*
X014539Y024538D01*
X014453Y024623D02*
X014640Y024436D01*
X014660Y024402D01*
X014670Y024363D01*
X014670Y024324D01*
X014660Y024286D01*
X014640Y024252D01*
X014453Y024064D01*
X014174Y024344D01*
X014453Y024623D01*
X014341Y024735D02*
X019077Y024735D01*
X018979Y024833D02*
X014243Y024833D01*
X014177Y024341D02*
X014171Y024341D01*
X014134Y024242D02*
X014275Y024242D01*
X014232Y024144D02*
X014374Y024144D01*
X014331Y024045D02*
X019420Y024045D01*
X019322Y024144D02*
X014532Y024144D01*
X014631Y024242D02*
X019223Y024242D01*
X019162Y024341D02*
X014670Y024341D01*
X014637Y024439D02*
X019144Y024439D01*
X019519Y023946D02*
X014335Y023946D01*
X014072Y024242D02*
X013931Y024242D01*
X013973Y024144D02*
X013832Y024144D01*
X013673Y024144D02*
X012734Y024144D01*
X012734Y024242D02*
X013575Y024242D01*
X013535Y024341D02*
X012728Y024341D01*
X012687Y024439D02*
X013569Y024439D01*
X013667Y024538D02*
X012623Y024538D01*
X011988Y023848D02*
X011353Y023848D01*
X011326Y023946D02*
X011889Y023946D01*
X011641Y024045D02*
X011263Y024045D01*
X011165Y024144D02*
X011527Y024144D01*
X011428Y024242D02*
X011066Y024242D01*
X010968Y024341D02*
X011330Y024341D01*
X011231Y024439D02*
X010869Y024439D01*
X010796Y024538D02*
X011132Y024538D01*
X011081Y024636D02*
X010796Y024636D01*
X010796Y024735D02*
X011071Y024735D01*
X011094Y024833D02*
X010796Y024833D01*
X010796Y024932D02*
X011163Y024932D01*
X011262Y025030D02*
X010968Y025030D01*
X011067Y025129D02*
X011360Y025129D01*
X011459Y025228D02*
X011165Y025228D01*
X011264Y025326D02*
X011557Y025326D01*
X011715Y025425D02*
X011362Y025425D01*
X011461Y025523D02*
X011926Y025523D01*
X011926Y025425D02*
X011842Y025425D01*
X011926Y025622D02*
X011505Y025622D01*
X011542Y025720D02*
X011926Y025720D01*
X011926Y025819D02*
X011730Y025819D01*
X011828Y025917D02*
X011926Y025917D01*
X011926Y026016D02*
X011869Y026016D01*
X011899Y026114D02*
X011926Y026114D01*
X011926Y026213D02*
X011899Y026213D01*
X011883Y026311D02*
X011926Y026311D01*
X011926Y026410D02*
X011843Y026410D01*
X011765Y026509D02*
X011926Y026509D01*
X011926Y026607D02*
X011626Y026607D01*
X012691Y027100D02*
X012772Y027100D01*
X013011Y027100D02*
X013331Y027100D01*
X013429Y027198D02*
X013136Y027198D01*
X013235Y027297D02*
X013528Y027297D01*
X013627Y027395D02*
X013333Y027395D01*
X013432Y027494D02*
X013758Y027494D01*
X013975Y027494D02*
X014072Y027494D01*
X014171Y027593D02*
X013530Y027593D01*
X013586Y027691D02*
X014269Y027691D01*
X014368Y027790D02*
X013599Y027790D01*
X013579Y027888D02*
X014466Y027888D01*
X014565Y027987D02*
X013578Y027987D01*
X013676Y028085D02*
X015101Y028085D01*
X014771Y027712D02*
X013866Y026807D01*
X012605Y025917D02*
X016125Y025917D01*
X016166Y025819D02*
X012605Y025819D01*
X012605Y025720D02*
X016240Y025720D01*
X016371Y025622D02*
X012605Y025622D01*
X014029Y024341D02*
X014035Y024341D01*
X016274Y022172D02*
X021452Y016994D01*
X021583Y017344D02*
X022530Y017344D01*
X022458Y017443D02*
X021485Y017443D01*
X021386Y017541D02*
X022417Y017541D01*
X022376Y017640D02*
X021288Y017640D01*
X021189Y017738D02*
X022360Y017738D01*
X022360Y017837D02*
X021091Y017837D01*
X020992Y017935D02*
X022360Y017935D01*
X022382Y018034D02*
X020894Y018034D01*
X020795Y018132D02*
X022423Y018132D01*
X022464Y018231D02*
X020696Y018231D01*
X020598Y018329D02*
X022544Y018329D01*
X022643Y018428D02*
X020499Y018428D01*
X021174Y018943D02*
X019225Y020892D01*
X019225Y021449D01*
X019643Y021309D02*
X020130Y020822D01*
X021104Y019848D02*
X021452Y019500D01*
X021731Y019500D01*
X022009Y019778D01*
X022705Y019639D02*
X022844Y019639D01*
X023749Y020544D01*
X024097Y020196D01*
X024375Y020196D01*
X024654Y020474D01*
X025489Y020474D01*
X026811Y019152D01*
X026324Y018665D01*
X026324Y018247D01*
X026603Y017969D01*
X027299Y017273D01*
X027299Y016716D01*
X027786Y016229D01*
X026603Y015046D01*
X026603Y014906D01*
X028412Y013097D01*
X028412Y012958D01*
X028064Y012610D01*
X026573Y013895D02*
X025435Y013895D01*
X025484Y013796D02*
X026475Y013796D01*
X026405Y013698D02*
X025583Y013698D01*
X025681Y013599D02*
X026382Y013599D01*
X026393Y013501D02*
X025780Y013501D01*
X025879Y013402D02*
X026427Y013402D01*
X026329Y013304D02*
X025977Y013304D01*
X026076Y013205D02*
X026230Y013205D01*
X026185Y012621D02*
X026185Y011983D01*
X025698Y011496D01*
X025002Y011496D01*
X024654Y011844D01*
X022566Y011844D01*
X022079Y011357D01*
X021731Y011705D01*
X021852Y012023D02*
X021920Y012023D01*
X021798Y012045D02*
X021798Y012045D01*
X022237Y012023D02*
X022264Y012023D01*
X022362Y012121D02*
X018733Y012121D01*
X018831Y012023D02*
X018858Y012023D01*
X018634Y012220D02*
X022684Y012220D01*
X022585Y012318D02*
X018536Y012318D01*
X018437Y012417D02*
X022487Y012417D01*
X022388Y012515D02*
X018339Y012515D01*
X018240Y012614D02*
X022290Y012614D01*
X022191Y012713D02*
X018109Y012713D01*
X019175Y012023D02*
X019243Y012023D01*
X020478Y013236D02*
X022148Y013236D01*
X023123Y012262D01*
X024236Y012262D01*
X025034Y013059D01*
X025767Y012326D01*
X025767Y012123D01*
X025034Y013059D02*
X024304Y013789D01*
X023998Y013402D02*
X023969Y013402D01*
X023931Y013402D02*
X023903Y013402D01*
X023899Y013501D02*
X023871Y013501D01*
X023801Y013599D02*
X023772Y013599D01*
X023702Y013698D02*
X023674Y013698D01*
X023413Y013698D02*
X020587Y013698D01*
X020777Y013599D02*
X023419Y013599D01*
X023503Y013501D02*
X022364Y013501D01*
X022463Y013402D02*
X023602Y013402D01*
X023700Y013304D02*
X022561Y013304D01*
X022660Y013205D02*
X023799Y013205D01*
X023804Y013304D02*
X023833Y013304D01*
X023897Y013107D02*
X022758Y013107D01*
X022857Y013008D02*
X023996Y013008D01*
X024104Y012910D02*
X022956Y012910D01*
X023054Y012811D02*
X024305Y012811D01*
X024242Y012910D02*
X024403Y012910D01*
X024350Y013008D02*
X024502Y013008D01*
X024293Y013107D02*
X024265Y013107D01*
X024195Y013205D02*
X024166Y013205D01*
X024096Y013304D02*
X024068Y013304D01*
X024206Y012713D02*
X023153Y012713D01*
X023251Y012614D02*
X024108Y012614D01*
X023680Y014191D02*
X023209Y014191D01*
X023241Y014223D02*
X023313Y014396D01*
X023313Y014438D01*
X023355Y014438D01*
X023527Y014509D01*
X023659Y014641D01*
X023730Y014813D01*
X023730Y014995D01*
X023912Y014995D01*
X024084Y015066D01*
X024216Y015198D01*
X024287Y015370D01*
X024287Y015556D01*
X024216Y015728D01*
X024084Y015860D01*
X023912Y015932D01*
X023725Y015932D01*
X023723Y015930D01*
X023751Y015958D01*
X023886Y015958D01*
X024220Y015958D01*
X024258Y015974D01*
X024320Y016000D01*
X024350Y015969D01*
X024457Y015925D01*
X024572Y015925D01*
X024679Y015969D01*
X025262Y016552D01*
X025276Y016587D01*
X025332Y016532D01*
X025330Y016532D01*
X025292Y016522D01*
X025258Y016502D01*
X025028Y016273D01*
X025322Y015979D01*
X025251Y015909D01*
X024958Y016202D01*
X024998Y016162D02*
X025139Y016162D01*
X025097Y016063D02*
X025238Y016063D01*
X025195Y015964D02*
X025307Y015964D01*
X025294Y015866D02*
X025209Y015866D01*
X025251Y015767D02*
X025110Y015767D01*
X025153Y015669D02*
X025012Y015669D01*
X025054Y015570D02*
X024281Y015570D01*
X024287Y015472D02*
X025046Y015472D01*
X025144Y015373D02*
X024287Y015373D01*
X024248Y015275D02*
X025309Y015275D01*
X025210Y015176D02*
X024852Y015176D01*
X024725Y015176D02*
X024194Y015176D01*
X024095Y015078D02*
X024567Y015078D01*
X024469Y014979D02*
X023730Y014979D01*
X023730Y014880D02*
X024372Y014880D01*
X024273Y014782D02*
X023717Y014782D01*
X023676Y014683D02*
X024173Y014683D01*
X024074Y014585D02*
X023603Y014585D01*
X023472Y014486D02*
X024001Y014486D01*
X023877Y014388D02*
X023309Y014388D01*
X023269Y014289D02*
X023779Y014289D01*
X023241Y014223D02*
X023110Y014092D01*
X022844Y014489D02*
X022844Y014542D01*
X022077Y015309D01*
X022430Y015663D02*
X023187Y014906D01*
X023262Y014906D01*
X023337Y015463D02*
X023819Y015463D01*
X024177Y015767D02*
X024750Y015767D01*
X024699Y015866D02*
X024070Y015866D01*
X024235Y015964D02*
X024361Y015964D01*
X024668Y015964D02*
X024724Y015964D01*
X024773Y016063D02*
X024819Y016063D01*
X024970Y016260D02*
X025041Y016260D01*
X025069Y016359D02*
X025115Y016359D01*
X025167Y016457D02*
X025213Y016457D01*
X025263Y016556D02*
X025308Y016556D01*
X024848Y015669D02*
X024240Y015669D01*
X023751Y015958D02*
X023751Y015958D01*
X023337Y015463D02*
X022784Y016017D01*
X022223Y016577D01*
X022148Y016577D01*
X023715Y017344D02*
X023827Y017344D01*
X023788Y017443D02*
X023925Y017443D01*
X023828Y017541D02*
X024024Y017541D01*
X024122Y017640D02*
X023869Y017640D01*
X023885Y017738D02*
X024221Y017738D01*
X024226Y017744D02*
X024226Y017744D01*
X024538Y018921D02*
X024544Y018921D01*
X024375Y019221D02*
X022844Y019221D01*
X022566Y018943D01*
X021174Y018943D01*
X022827Y018724D02*
X025984Y018724D01*
X026021Y018822D02*
X025610Y018822D01*
X025712Y018921D02*
X026099Y018921D01*
X026135Y019019D02*
X025773Y019019D01*
X025814Y019118D02*
X026104Y019118D01*
X026107Y019216D02*
X025818Y019216D01*
X025818Y019315D02*
X025747Y019487D01*
X025615Y019619D01*
X025443Y019690D01*
X025405Y019690D01*
X025387Y019734D01*
X024986Y020134D01*
X025348Y020134D01*
X026157Y019325D01*
X026148Y019316D01*
X026069Y019413D02*
X025777Y019413D01*
X025722Y019512D02*
X025970Y019512D01*
X025872Y019611D02*
X025623Y019611D01*
X025773Y019709D02*
X025397Y019709D01*
X025313Y019808D02*
X025675Y019808D01*
X025576Y019906D02*
X025214Y019906D01*
X025116Y020005D02*
X025478Y020005D01*
X025379Y020103D02*
X025017Y020103D01*
X024723Y019569D02*
X024375Y019221D01*
X024723Y019569D02*
X025071Y019221D01*
X025350Y019221D01*
X025089Y018822D02*
X022926Y018822D01*
X024902Y018921D02*
X024909Y018921D01*
X027159Y017969D02*
X027577Y018386D01*
X027786Y018177D01*
X028760Y015254D02*
X028412Y014906D01*
X027994Y014906D01*
X025112Y015078D02*
X025009Y015078D01*
X022092Y012811D02*
X020676Y012811D01*
X023401Y010870D02*
X023401Y010731D01*
X023053Y010383D01*
X025976Y010522D02*
X026603Y011148D01*
X026603Y011287D01*
X017349Y022961D02*
X011315Y022961D01*
X011353Y023060D02*
X017377Y023060D01*
X017418Y023158D02*
X011353Y023158D01*
X011353Y023257D02*
X017459Y023257D01*
X017548Y023355D02*
X011353Y023355D01*
X011353Y023454D02*
X017647Y023454D01*
X017838Y023552D02*
X011353Y023552D01*
X011495Y022468D02*
X011190Y022468D01*
X011091Y022370D02*
X011385Y022370D01*
X011286Y022271D02*
X010993Y022271D01*
X011021Y022173D02*
X011188Y022173D01*
X011139Y022124D02*
X011139Y022124D01*
X010874Y021727D02*
X011152Y021449D01*
X011291Y021449D01*
X011639Y021796D01*
X010456Y019917D02*
X010665Y019709D01*
X016581Y026042D02*
X017694Y027155D01*
X018112Y027155D02*
X018112Y026181D01*
X019852Y024441D01*
X020896Y024232D02*
X021174Y023954D01*
X021174Y023815D01*
X020826Y023467D01*
X018112Y027155D02*
X018460Y027503D01*
X013936Y011705D02*
X013588Y011357D01*
X013449Y011357D01*
D15*
X013936Y011705D03*
X015189Y011009D03*
X015189Y010452D03*
X016581Y010174D03*
X017833Y010591D03*
X020617Y010591D03*
X020478Y013236D03*
X022844Y014489D03*
X023262Y014906D03*
X023819Y015463D03*
X023679Y016438D03*
X022148Y016577D03*
X022705Y019639D03*
X022009Y019778D03*
X019643Y021309D03*
X020896Y024232D03*
X017694Y027155D03*
X017137Y027155D03*
X016581Y026599D03*
X016581Y026042D03*
X012266Y024232D03*
X011430Y026181D03*
X010874Y021727D03*
X012544Y021727D03*
X012961Y021309D03*
X012961Y019639D03*
X012544Y019221D03*
X012266Y018108D03*
X011430Y015324D03*
X010456Y014906D03*
X012126Y013793D03*
X011152Y011705D03*
X023401Y010870D03*
X025767Y012123D03*
X026603Y011287D03*
X027994Y014906D03*
X027159Y017969D03*
X026603Y017969D03*
X025350Y019221D03*
M02*
